<?xml version="1.0" encoding="utf-8"?>
<!-- Generator: Adobe Illustrator 27.2.0, SVG Export Plug-In . SVG Version: 6.00 Build 0)  -->
<svg version="1.1" id="Layer_1" xmlns="http://www.w3.org/2000/svg" xmlns:xlink="http://www.w3.org/1999/xlink" x="0px" y="0px"
	 viewBox="0 0 104.5 102.1" style="enable-background:new 0 0 104.5 102.1;" xml:space="preserve">
<style type="text/css">
	.st0{fill:#595959;}
	.st1{fill:#FFFFFF;}
	.st2{fill-rule:evenodd;clip-rule:evenodd;fill:#595959;}
	.st3{fill:#DE2B38;}
	.st4{fill:#298C43;}
	.st5{fill:#7E8DAD;}
	.st6{fill-rule:evenodd;clip-rule:evenodd;fill:#FFFFFF;}
	.st7{fill:#A7A9AC;}
	.st8{fill:#EF3E3D;}
	.st9{fill:#010101;}
	.st10{fill:#5E68B0;}
	.st11{fill:#3DB54A;}
	.st12{fill:#63BD5C;}
	.st13{fill:#019547;}
	.st14{fill:#135380;}
	.st15{fill:#13395F;}
	.st16{fill:#A4DBE0;}
	.st17{fill:#C8E9F1;}
	.st18{fill:#D9F0FB;}
	.st19{fill:#F47C28;}
	.st20{fill:#BA2025;}
	.st21{fill:#CEE3E8;}
	.st22{fill:#616E7D;}
	.st23{fill:#AAD3C7;}
	.st24{fill:#E31E26;}
	.st25{fill:#66B445;}
	.st26{fill:#60B9E8;}
	.st27{fill:#C12731;}
</style>
<g id="XMLID_119_">
	<path id="XMLID_150_" class="st26" d="M88.6,38.8H76.9c-6.8,0-12.3-5.5-12.3-12.3V14.7c0-6.8-5.5-12.3-12.3-12.3h0
		c-6.8,0-12.3,5.5-12.3,12.3v11.7c0,6.8-5.5,12.3-12.3,12.3H15.9c-6.8,0-12.3,5.5-12.3,12.3v0c0,6.8,5.5,12.3,12.3,12.3h11.7
		c6.8,0,12.3,5.5,12.3,12.3v11.7c0,6.8,5.5,12.3,12.3,12.3h0c6.8,0,12.3-5.5,12.3-12.3V75.7c0-6.8,5.5-12.3,12.3-12.3h11.7
		c6.8,0,12.3-5.5,12.3-12.3v0C100.9,44.3,95.4,38.8,88.6,38.8z"/>
	<path id="XMLID_301_" class="st27" d="M85.9,31.3c-0.3-6-7.3-9.7-11-11.6c-0.6-0.3-1.1-0.6-1.3-0.7c-1.7-1.1-2.9-0.8-3.7-0.4
		c-0.8,0.4-1.3,1.3-1.3,2.2c0,1.3,0.9,2.7,2.5,3.7c0.4,0.3,1,0.5,1.6,0.8c1.7,0.8,4.8,2.4,5.2,3.9c0.3,1.2-0.2,1.7-1.5,2.7l-0.3,0.2
		c-3.1,2.7-6.7,4.4-10.2,6c-0.7,0.3-1.4,0.6-2,1c-4,1.9-8.2,3.8-12.2,5.6c-2.4,1.1-4.7,2.1-7.1,3.2l-0.2,0.1
		c-5.1,2.4-10.4,4.8-15.5,7.9c-0.4,0.2-0.7,0.4-1.1,0.7c-2.7,1.6-6.5,3.8-8.3,8.2c-2.7,6.6,1.4,12.7,12.4,18.1
		c0.3,0.1,0.5,0.3,0.7,0.4c0.8,0.4,1.5,0.6,2,0.6c1.4,0,2-1,2.1-1.2c1.1-2.2-1.6-4.8-2.8-5.5c-0.2-0.1-0.4-0.2-0.7-0.3
		c-1.7-0.8-5.7-2.8-6.5-5.4c-0.3-1-0.1-2,0.6-3.2c1.9-3.2,5-4.9,7.8-6.4c0.5-0.3,1-0.5,1.5-0.8c6.9-3.9,14.1-7.1,21-10.2
		c4.7-2.1,9.6-4.3,14.4-6.6c0.2-0.1,0.7-0.3,1.3-0.5C77.4,41.9,86.3,38.3,85.9,31.3z"/>
</g>
</svg>
