<?xml version="1.0" encoding="utf-8"?>
<!-- Generator: Adobe Illustrator 27.2.0, SVG Export Plug-In . SVG Version: 6.00 Build 0)  -->
<svg version="1.1" id="Layer_1" xmlns="http://www.w3.org/2000/svg" xmlns:xlink="http://www.w3.org/1999/xlink" x="0px" y="0px"
	 viewBox="0 0 104.5 102.1" style="enable-background:new 0 0 104.5 102.1;" xml:space="preserve">
<style type="text/css">
	.st0{fill:#A7A9AC;}
	.st1{fill:#595959;}
	.st2{fill:#FFFFFF;}
	.st3{fill-rule:evenodd;clip-rule:evenodd;fill:#595959;}
	.st4{fill:#DE2B38;}
	.st5{fill:#298C43;}
	.st6{fill:#7E8DAD;}
	.st7{fill-rule:evenodd;clip-rule:evenodd;fill:#FFFFFF;}
	.st8{fill:#EF3E3D;}
	.st9{fill:#010101;}
</style>
<path class="st0" d="M99.3,85.6c0,6.9-5.6,12.6-12.6,12.6h-69c-6.9,0-12.6-5.6-12.6-12.6v-69C5.2,9.6,10.8,4,17.8,4h69
	c6.9,0,12.6,5.6,12.6,12.6V85.6z"/>
<g>
	<path class="st2" d="M86.7,84.1H17.8c-3.1,0-5.1-3.4-3.5-6.1l34.4-58c1.6-2.6,5.4-2.6,6.9,0l34.4,58C91.7,80.7,89.8,84.1,86.7,84.1
		L86.7,84.1z"/>
	<path class="st8" d="M52.3,21.7l35.1,59.1H17.2L52.3,21.7 M52.3,16.6c-1.4,0-2.8,0.7-3.6,2.1L12.7,79.2c-1.7,2.8,0.4,6.3,3.6,6.3
		h71.8c3.3,0,5.3-3.5,3.6-6.3L55.9,18.6C55.1,17.3,53.7,16.6,52.3,16.6L52.3,16.6z"/>
	<g>
		<path class="st9" d="M49.7,65L48,38.9c-0.2-2.4,1.6-4.4,4-4.6s4.4,1.6,4.6,4c0,0.2,0,0.4,0,0.6L54.8,65C54.5,68.1,50,68.1,49.7,65
			L49.7,65L49.7,65z"/>
		<circle class="st9" cx="52.3" cy="74.5" r="3.5"/>
	</g>
</g>
</svg>
