<?xml version="1.0" encoding="UTF-8"?>
<svg id="Objects" xmlns="http://www.w3.org/2000/svg" viewBox="0 0 1159 1010">
  <defs>
    <style>
      .cls-1 {
        fill: #fff;
      }

      .cls-2 {
        fill: #ef3c3c;
      }
    </style>
  </defs>
  <path class="cls-1" d="m997.42,906.23H161.58c-37.88,0-61.36-41.22-42.04-73.8L537.46,127.72c18.93-31.92,65.14-31.92,84.07,0l417.92,704.71c19.32,32.58-4.16,73.8-42.04,73.8Z"/>
  <path class="cls-2" d="m579.5,148.66l425.98,718.31H153.52L579.5,148.66m0-62.54c-17,0-34,8.33-43.89,25L99.32,846.82c-20.17,34.01,4.34,77.05,43.89,77.05h872.59c39.54,0,64.06-43.04,43.89-77.05L623.39,111.12c-9.88-16.66-26.88-25-43.89-25h0Z"/>
  <g>
    <path d="m548.86,673.86l-21.34-317.16c-1.93-28.71,19.78-53.55,48.49-55.48,28.71-1.93,53.55,19.78,55.48,48.49.15,2.26.13,4.79,0,7l-21.34,317.16c-3.68,38.02-57.66,37.93-61.29,0h0Z"/>
    <circle cx="579.5" cy="789.15" r="42.52"/>
  </g>
</svg>