<?xml version="1.0" encoding="UTF-8"?>
<svg id="Objects" xmlns="http://www.w3.org/2000/svg" viewBox="0 0 1642.83 1798.86">
  <defs>
    <style>
      .cls-1 {
        fill: #fff;
      }

      .cls-2 {
        fill: #1d1d1b;
      }
    </style>
  </defs>
  <path class="cls-1" d="m1572.26,1455.78c0,58.62-47.52,106.13-106.13,106.13H176.7c-58.6,0-106.13-47.5-106.13-106.13,0-20.13,5.69-39.38,15.88-55.84,10.2-16.48,24.9-30.15,42.92-39.13,38.33-19.1,69.59-48.22,91.28-83.25,21.7-35.05,33.8-76.02,33.8-118.84v-415.76c0-267.09,184.69-491.04,433.32-551.12-.63-5.2-.94-10.49-.94-15.85,0-74.33,60.25-134.58,134.58-134.58s134.58,60.25,134.58,134.58c0,5.36-.31,10.65-.94,15.85,102.89,24.85,194.83,77.77,267.27,150.2,102.6,102.6,166.06,244.34,166.06,400.91v415.76c0,85.64,48.44,163.89,125.08,202.09,18.02,8.98,32.72,22.65,42.92,39.13,10.2,16.46,15.88,35.71,15.88,55.84Z"/>
  <path class="cls-2" d="m1006.82,1613.45c0,102.4-83.01,185.41-185.41,185.41s-185.41-83.01-185.41-185.41h370.82Z"/>
  <path class="cls-2" d="m154.89,627.56c-1.71,0-3.44-.17-5.18-.54-13.59-2.85-22.31-16.17-19.46-29.76,21.46-102.53,64.55-197.01,128.08-280.82,61.73-81.43,141.93-149.78,231.94-197.65,12.26-6.52,27.49-1.87,34.01,10.39,6.52,12.26,1.87,27.49-10.39,34.01-83.62,44.47-158.13,107.97-215.48,183.63-59,77.83-99.01,165.56-118.93,260.74-2.48,11.86-12.94,20-24.59,20Z"/>
  <path class="cls-2" d="m25.18,612.95c-1.58,0-3.19-.15-4.8-.46-13.63-2.64-22.55-15.83-19.92-29.46,23.71-122.67,75.95-240.58,151.09-340.97C225.54,143.2,322.22,60.51,431.15,2.92c12.28-6.49,27.49-1.8,33.98,10.48,6.49,12.28,1.8,27.49-10.48,33.98-102.39,54.13-193.27,131.87-262.83,224.81-70.61,94.35-119.71,205.13-141.98,320.38-2.32,12.02-12.86,20.38-24.66,20.38Z"/>
  <path class="cls-2" d="m1487.94,627.56c-11.65,0-22.11-8.14-24.59-20-19.92-95.19-59.93-182.91-118.93-260.74-57.35-75.66-131.87-139.16-215.48-183.63-12.26-6.52-16.92-21.75-10.39-34.01,6.52-12.26,21.75-16.92,34.01-10.39,90.01,47.87,170.22,116.22,231.94,197.65,63.53,83.81,106.62,178.29,128.08,280.82,2.85,13.59-5.87,26.92-19.46,29.76-1.74.36-3.47.54-5.18.54Z"/>
  <path class="cls-2" d="m1617.65,612.95c-11.81,0-22.34-8.36-24.66-20.38-22.27-115.25-71.37-226.04-141.98-320.38-69.56-92.94-160.45-170.68-262.83-224.81-12.28-6.49-16.97-21.71-10.48-33.98,6.49-12.28,21.7-16.97,33.98-10.48,108.92,57.58,205.6,140.28,279.59,239.14,75.14,100.4,127.39,218.3,151.09,340.97,2.64,13.64-6.28,26.83-19.92,29.46-1.61.31-3.22.46-4.8.46Z"/>
</svg>