<?xml version="1.0" encoding="utf-8"?>
<!-- Generator: Adobe Illustrator 27.2.0, SVG Export Plug-In . SVG Version: 6.00 Build 0)  -->
<svg version="1.1" xmlns="http://www.w3.org/2000/svg" xmlns:xlink="http://www.w3.org/1999/xlink" x="0px" y="0px"
	 viewBox="0 0 1122 1122" style="enable-background:new 0 0 1122 1122;" xml:space="preserve">
<style type="text/css">
	.st0{fill:#616E7D;}
	.st1{fill:#AAD4C8;}
	.st2{fill:#82BFAB;}
</style>
<g id="Bg">
</g>
<g id="Object">
	<g>
		<path class="st0" d="M52.2,692.2l-18.8,15.6l273.7,34c39.8,15.8,81.2,27.1,124,34C445.5,636.7,593.4,527,773.3,527
			c72.9,0,140.5,18.1,196.2,48.8c34.8-52.5,54.6-111.9,54.6-175c0-211.3-221-383.3-492.6-383.3c-271.6,0-492.6,171.9-492.6,383.3
			c0,75.9,28.5,148.9,82.4,212l-0.4,0.3l5.3,5.6C120.1,631,84.4,665.4,52.2,692.2z M203.6,230.7h642.1v34.9H203.6V230.7z
			 M203.6,360.1h642.1V395H203.6V360.1z M203.6,489.5h340v34.9h-340V489.5z"/>
		<path class="st1" d="M458.1,798.1c0,134,141.5,243,315.3,243c38.4,0,76.2-5.4,112.3-16.1l7.7-2.3l88.4,81.7V980.2l5.9-4.2
			c64.2-46,101-110.8,101-177.8c0-134-141.5-243-315.3-243C599.5,555.2,458.1,664.2,458.1,798.1z"/>
		<rect x="203.6" y="230.7" class="st2" width="642.1" height="34.9"/>
		<rect x="203.6" y="360.1" class="st2" width="642.1" height="34.9"/>
		<rect x="203.6" y="489.5" class="st2" width="340" height="34.9"/>
	</g>
</g>
</svg>
