<?xml version="1.0" encoding="UTF-8"?>
<svg id="_35" data-name="35" xmlns="http://www.w3.org/2000/svg" viewBox="0 0 268 268">
  <path d="m248.83,141.03v17.13h-37.12l-19.28,36.76c-1.77,3.22-4.99,5.02-8.56,4.65-3.57,0-6.42-2.5-7.5-5.7l-14.64-42.48-12.84,31.04c-1.79,3.22-5.36,5.36-9.29,5.36-3.57-.71-6.79-3.57-7.5-7.5l-12.13-74.95-14.64,114.23c-.37,4.28-3.93,7.5-8.22,7.5h-.34c-3.94,0-7.5-3.22-8.58-7.16l-16.78-88.17-10.35,21.78c-1.43,2.85-4.62,4.63-7.84,4.63H17.17v-17.13h30.35l19.63-40.71c1.8-3.57,5.36-5.34,8.93-4.99,3.91.71,6.79,3.22,7.5,7.13l11.78,62.13,14.98-116.02c.37-4.28,3.94-7.13,8.22-7.13,4.28-.37,7.84,2.85,8.93,7.13l16.41,99.95,10.72-24.99c1.43-3.22,4.62-5.72,8.22-5.36,3.91,0,6.76,2.51,8.19,5.71l15.35,45.34,12.49-23.55c1.43-2.87,4.31-4.65,7.5-4.65h42.48Z" fill="#6f61c0"/>
</svg>