<?xml version="1.0" encoding="utf-8"?>
<!-- Generator: Adobe Illustrator 27.2.0, SVG Export Plug-In . SVG Version: 6.00 Build 0)  -->
<svg version="1.1" id="Layer_1" xmlns="http://www.w3.org/2000/svg" xmlns:xlink="http://www.w3.org/1999/xlink" x="0px" y="0px"
	 viewBox="0 0 151.1 147.6" style="enable-background:new 0 0 151.1 147.6;" xml:space="preserve">
<style type="text/css">
	.st0{fill:#A7A9AC;}
	.st1{fill:#595959;}
	.st2{fill:#FFFFFF;}
	.st3{fill-rule:evenodd;clip-rule:evenodd;fill:#595959;}
	.st4{fill:#DE2B38;}
	.st5{fill:#298C43;}
	.st6{fill:#7E8DAD;}
	.st7{fill-rule:evenodd;clip-rule:evenodd;fill:#FFFFFF;}
	.st8{fill:#EF3E3D;}
	.st9{fill:#010101;}
	.st10{fill:#5E68B0;}
	.st11{fill:#3DB54A;}
	.st12{fill:#63BD5C;}
	.st13{fill:#019547;}
	.st14{fill:#135380;}
	.st15{fill:#13395F;}
	.st16{fill:#A4DBE0;}
	.st17{fill:#C8E9F1;}
	.st18{fill:#D9F0FB;}
	.st19{fill:#F47C28;}
	.st20{fill:#BA2025;}
	.st21{fill:#CEE3E8;}
	.st22{fill:none;}
</style>
<g>
	<ellipse transform="matrix(0.7071 -0.7071 0.7071 0.7071 -30.0502 75.027)" class="st10" cx="75.5" cy="73.8" rx="70" ry="70"/>
	<g>
		<g id="XMLID_00000133530581383428769430000013248226431579483831_">
			<g>
				<path class="st11" d="M37.9,63c0,0-5.1,44.1,27.4,46.9L37.9,63z"/>
				<path class="st12" d="M37.9,63l27.4,46.9C65.3,109.9,73.1,78.9,37.9,63z"/>
			</g>
		</g>
		<path class="st13" d="M38.7,72.5c0.1-0.2,0.3-0.3,0.5-0.2l4.9,2l-4.8-8.3c-0.1-0.2,0-0.4,0.1-0.5c0.2-0.1,0.4,0,0.5,0.1l4.9,8.3
			l0.9-4.9c0-0.2,0.2-0.3,0.4-0.3c0.2,0,0.3,0.2,0.3,0.4l-1,5.8l5.9,10.1L53,75.1c0-0.2,0.2-0.4,0.4-0.3c0.2,0,0.4,0.2,0.3,0.4
			l-1.8,11l5.5,9.3L60,84.9c0.1-0.2,0.3-0.3,0.5-0.3c0.2,0.1,0.3,0.3,0.3,0.5l-2.9,11.4l3.6,6.1l2.2-6.2c0.1-0.2,0.3-0.3,0.5-0.2
			c0.2,0.1,0.3,0.3,0.2,0.5l-2.4,6.8l2.4,4.1c0.1,0.2,0,0.4-0.1,0.5c-0.1,0-0.1,0.1-0.2,0.1c-0.1,0-0.3-0.1-0.3-0.2l-2.4-4.1
			l-9.5-0.5c-0.2,0-0.4-0.2-0.4-0.4c0-0.2,0.2-0.4,0.4-0.4l9,0.5l-3.6-6.2l-13-2.4c-0.2,0-0.3-0.2-0.3-0.4c0-0.2,0.2-0.3,0.4-0.3
			L56.7,96l-5.5-9.4l-11.1-4c-0.2-0.1-0.3-0.3-0.2-0.5c0.1-0.2,0.3-0.3,0.5-0.2l10.3,3.6l-5.9-10.1L38.9,73
			C38.7,72.9,38.6,72.7,38.7,72.5z"/>
	</g>
	<g>
		<g id="XMLID_00000178178821782849411620000018380551970917047979_">
			<g>
				<path class="st11" d="M20.4,96.4c0,0,19,34.1,43.5,19.4L20.4,96.4z"/>
				<path class="st12" d="M20.4,96.4L64,115.8C64,115.8,53.6,89.7,20.4,96.4z"/>
			</g>
		</g>
		<path class="st13" d="M25.8,102.8c0-0.2,0.1-0.4,0.2-0.4l4.5-1.1l-7.7-3.4c-0.2-0.1-0.2-0.3-0.2-0.4c0.1-0.2,0.3-0.2,0.4-0.2
			l7.7,3.4l-1.9-3.9c-0.1-0.2,0-0.4,0.2-0.4c0.2-0.1,0.4,0,0.4,0.2l2.2,4.6l9.4,4.2l-4-8c-0.1-0.2,0-0.4,0.2-0.5
			c0.2-0.1,0.4,0,0.5,0.2l4.3,8.8l8.7,3.9l-3.5-8.9c-0.1-0.2,0-0.4,0.2-0.4c0.2-0.1,0.4,0,0.4,0.2l3.8,9.6l5.7,2.5l-1.6-5.6
			c-0.1-0.2,0.1-0.4,0.2-0.4c0.2-0.1,0.4,0.1,0.4,0.2l1.7,6.1l3.8,1.7c0.2,0.1,0.2,0.3,0.2,0.4c0,0.1-0.1,0.1-0.1,0.1
			c-0.1,0.1-0.2,0.1-0.3,0l-3.8-1.7L51,118c-0.2,0.1-0.4,0.1-0.5-0.1c-0.1-0.2-0.1-0.4,0.1-0.5l6.7-4.3l-5.8-2.6l-10.5,5
			c-0.2,0.1-0.4,0-0.4-0.2c-0.1-0.2,0-0.4,0.2-0.4l9.9-4.7l-8.8-3.9l-10,2.9c-0.2,0.1-0.4-0.1-0.4-0.2c-0.1-0.2,0.1-0.4,0.2-0.4
			l9.2-2.7l-9.4-4.2l-5.4,1.3C26.1,103.1,25.9,103,25.8,102.8z"/>
	</g>
	<g id="XMLID_00000085956552845148680960000014652510915266195128_">
		<g>
			<path class="st2" d="M89.7,85.5c0,0.3-0.2,0.5-0.5,0.5c-0.3,0-0.5-0.2-0.5-0.5c0-3.7-1.3-7.4-3.5-10.3c-0.2-0.2-0.1-0.6,0.1-0.8
				c0.2-0.2,0.6-0.1,0.8,0.1C88.4,77.7,89.7,81.6,89.7,85.5z"/>
			<path class="st14" d="M85.1,59.6c0,0.4-0.5,0.8-1.3,1.2c-0.5,0.2-1.1,0.4-1.8,0.6c-0.5,0.1-1,0.2-1.6,0.3
				c-0.5,0.1-1.1,0.1-1.7,0.2c-0.5,0-1.1,0.1-1.6,0.1c-0.5,0-1.1,0-1.7,0c-0.6,0-1.1,0-1.7,0c-0.6,0-1.1-0.1-1.7-0.1
				c-0.6,0-1.1-0.1-1.6-0.2c-0.6-0.1-1.1-0.2-1.6-0.3c-0.7-0.1-1.3-0.3-1.7-0.5c-0.9-0.3-1.4-0.8-1.4-1.2c0-1.3,4.3-2.3,9.7-2.3
				C80.7,57.2,85.1,58.3,85.1,59.6z"/>
			<path class="st2" d="M84.7,73.1c0.2,0.2,0.2,0.6-0.1,0.8c-0.1,0.1-0.2,0.1-0.3,0.1c-0.1,0-0.3-0.1-0.4-0.2l-2-2.4
				c-0.2-0.2-0.2-0.6,0.1-0.8c0.2-0.2,0.6-0.2,0.8,0.1L84.7,73.1z"/>
			<path class="st14" d="M84,61.3v6.5c0,0.1-0.1,0.3-0.3,0.3c-0.1,0-0.3-0.1-0.3-0.3v-6.5c0-0.1,0.1-0.3,0.3-0.3c0,0,0,0,0,0
				C83.9,61.1,84,61.2,84,61.3z"/>
			<path class="st15" d="M83.8,60.7c0.8-0.3,1.3-0.7,1.3-1.2v7.8c0,0.4-0.4,0.8-1.2,1.1l-0.2-0.3c0.1,0,0.3-0.1,0.3-0.3v-6.5
				c0-0.1-0.1-0.3-0.3-0.3L83.8,60.7z"/>
			<path class="st14" d="M82.3,61.8v6.5c0,0.1-0.1,0.2-0.2,0.3c0,0,0,0-0.1,0c-0.1,0-0.3-0.1-0.3-0.3v-6.5c0-0.1,0.1-0.2,0.2-0.3
				c0,0,0,0,0.1,0C82.2,61.6,82.3,61.7,82.3,61.8z"/>
			<path class="st15" d="M82.1,68.6c0.1,0,0.2-0.1,0.2-0.3v-6.5c0-0.1-0.1-0.3-0.3-0.3c0,0,0,0-0.1,0L82,61.3
				c0.7-0.2,1.3-0.3,1.8-0.6l0,0.3c0,0,0,0,0,0c-0.1,0-0.3,0.1-0.3,0.3v6.5c0,0.1,0.1,0.3,0.3,0.3l0.2,0.3c-0.2,0.1-0.4,0.2-0.6,0.2
				c-0.3,0.1-0.7,0.2-1.1,0.3L82.1,68.6z"/>
			<path class="st14" d="M80.1,68.7v-6.5c0-0.1,0.1-0.3,0.3-0.3c0.1,0,0.3,0.1,0.3,0.3v6.5c0,0.1-0.1,0.2-0.2,0.3c0,0,0,0-0.1,0
				C80.3,68.9,80.1,68.8,80.1,68.7z"/>
			<path class="st15" d="M82.2,69c-0.5,0.1-1.1,0.2-1.7,0.3l-0.1-0.4c0.1,0,0.2-0.1,0.2-0.3v-6.5c0-0.1-0.1-0.3-0.3-0.3l0-0.3
				c0.6-0.1,1.1-0.2,1.6-0.3l0.1,0.3c-0.1,0-0.2,0.1-0.2,0.3v6.5c0,0.1,0.1,0.3,0.3,0.3c0,0,0,0,0.1,0L82.2,69z"/>
			<path class="st14" d="M78.7,62.1c0.1,0,0.3,0.1,0.3,0.3v6.5c0,0.1-0.1,0.3-0.3,0.3c-0.1,0-0.3-0.1-0.3-0.3v-6.5
				C78.5,62.2,78.5,62.1,78.7,62.1C78.7,62.1,78.7,62.1,78.7,62.1z"/>
			<path class="st15" d="M80.4,68.9C80.4,68.9,80.4,68.9,80.4,68.9l0.1,0.4c-0.5,0.1-1.1,0.2-1.7,0.2l0-0.4c0.1,0,0.3-0.1,0.3-0.3
				v-6.5c0-0.1-0.1-0.3-0.3-0.3c0,0,0,0-0.1,0l0-0.3c0.6-0.1,1.2-0.1,1.7-0.2l0,0.3c-0.1,0-0.3,0.1-0.3,0.3v6.5
				C80.1,68.8,80.3,68.9,80.4,68.9z"/>
			<path class="st15" d="M78.8,69.5c-0.5,0.1-1.1,0.1-1.7,0.1l0-0.4c0.1,0,0.3-0.1,0.3-0.3v-6.5c0-0.1-0.1-0.3-0.3-0.3l0-0.3
				c0.6,0,1.1-0.1,1.6-0.1l0,0.3c-0.1,0-0.2,0.1-0.2,0.3v6.5c0,0.1,0.1,0.3,0.3,0.3L78.8,69.5z"/>
			<path class="st14" d="M77.3,62.4V69c0,0.1-0.1,0.3-0.3,0.3c-0.1,0-0.3-0.1-0.3-0.3v-6.5c0-0.1,0.1-0.3,0.3-0.3
				C77.2,62.2,77.3,62.3,77.3,62.4z"/>
			<path class="st14" d="M75.6,62.5V69c0,0.1-0.1,0.3-0.3,0.3c-0.1,0-0.3-0.1-0.3-0.3v-6.5c0-0.1,0.1-0.3,0.3-0.3
				C75.5,62.2,75.6,62.3,75.6,62.5z"/>
			<path class="st15" d="M75.6,62.5c0-0.1-0.1-0.3-0.3-0.3v-0.3c0.6,0,1.1,0,1.7,0l0,0.3c-0.1,0-0.3,0.1-0.3,0.3V69
				c0,0.1,0.1,0.3,0.3,0.3l0,0.4c-0.6,0-1.1,0-1.7,0h0l0-0.4c0.1,0,0.3-0.1,0.3-0.3V62.5z"/>
			<path class="st15" d="M74,62.4c0-0.1-0.1-0.3-0.3-0.3l0-0.3c0.5,0,1.1,0,1.7,0v0.3c-0.1,0-0.3,0.1-0.3,0.3V69
				c0,0.1,0.1,0.3,0.3,0.3l0,0.4c-0.6,0-1.1,0-1.7,0l0-0.4c0.1,0,0.3-0.1,0.3-0.3V62.4z"/>
			<path class="st14" d="M74,62.4V69c0,0.1-0.1,0.3-0.3,0.3c-0.1,0-0.3-0.1-0.3-0.3v-6.5c0-0.1,0.1-0.3,0.3-0.3
				C73.8,62.2,74,62.3,74,62.4z"/>
			<path class="st15" d="M73.7,69.6c-0.6,0-1.2-0.1-1.7-0.1l0-0.4c0.1,0,0.3-0.1,0.3-0.3v-6.5c0-0.1-0.1-0.3-0.3-0.3l0-0.3
				c0.5,0,1.1,0.1,1.7,0.1l0,0.3c-0.1,0-0.3,0.1-0.3,0.3V69c0,0.1,0.1,0.3,0.3,0.3L73.7,69.6z"/>
			<path class="st14" d="M71.8,62.3c0-0.1,0.1-0.3,0.3-0.3c0.1,0,0.3,0.1,0.3,0.3v6.5c0,0.1-0.1,0.3-0.3,0.3c-0.1,0-0.3-0.1-0.3-0.3
				V62.3z"/>
			<path class="st15" d="M70.3,68.9c0.1,0,0.3-0.1,0.3-0.3v-6.5c0-0.1-0.1-0.2-0.2-0.3l0-0.3c0.5,0.1,1,0.1,1.6,0.2l0,0.3
				c-0.1,0-0.3,0.1-0.3,0.3v6.5c0,0.1,0.1,0.3,0.3,0.3l0,0.4c-0.4,0-0.7-0.1-1-0.1c-0.2,0-0.5-0.1-0.7-0.1L70.3,68.9
				C70.3,68.9,70.3,68.9,70.3,68.9z"/>
			<path class="st14" d="M70.1,62.1c0-0.1,0.1-0.3,0.3-0.3c0,0,0,0,0.1,0c0.1,0,0.2,0.1,0.2,0.3v6.5c0,0.1-0.1,0.3-0.3,0.3
				c0,0,0,0-0.1,0c-0.1,0-0.2-0.1-0.2-0.3V62.1z"/>
			<path class="st15" d="M70.2,69.3c-0.6-0.1-1.2-0.2-1.7-0.3l0.1-0.4c0,0,0,0,0.1,0c0.1,0,0.3-0.1,0.3-0.3v-6.5
				c0-0.1-0.1-0.2-0.2-0.3l0.1-0.3c0.5,0.1,1.1,0.2,1.6,0.3l0,0.3c0,0,0,0-0.1,0c-0.1,0-0.3,0.1-0.3,0.3v6.5c0,0.1,0.1,0.2,0.2,0.3
				L70.2,69.3z"/>
			<path class="st14" d="M68.9,61.8v6.5c0,0.1-0.1,0.3-0.3,0.3c0,0,0,0-0.1,0c-0.1,0-0.2-0.1-0.2-0.3v-6.5c0-0.1,0.1-0.3,0.3-0.3
				c0,0,0,0,0.1,0C68.9,61.6,68.9,61.7,68.9,61.8z"/>
			<path class="st15" d="M68.4,68.4c0,0.1,0.1,0.2,0.2,0.3L68.5,69c-0.4-0.1-0.8-0.2-1.1-0.3h0c-0.2-0.1-0.3-0.1-0.5-0.2l0-0.4
				c0,0,0,0,0,0c0.1,0,0.3-0.1,0.3-0.3v-6.5c0-0.1-0.1-0.3-0.3-0.3l0.1-0.3c0.5,0.2,1.1,0.4,1.7,0.5l-0.1,0.3c0,0,0,0-0.1,0
				c-0.1,0-0.3,0.1-0.3,0.3V68.4z"/>
			<path class="st14" d="M67.3,61.3v6.5c0,0.1-0.1,0.3-0.3,0.3c0,0,0,0,0,0c-0.1,0-0.3-0.1-0.3-0.3v-6.5c0-0.1,0.1-0.3,0.3-0.3
				C67.1,61.1,67.3,61.2,67.3,61.3z"/>
			<path class="st16" d="M69.4,72.7c-1.7,3.5-2.6,8-2.6,12.6v3.4c-4.1-0.7-6.8-1.8-6.8-3.1v-1c0-4.6,1.6-9.1,4.6-12.6l2.9-3.4h0
				c0.3,0.1,0.7,0.2,1.1,0.3c0.5,0.1,1.1,0.2,1.7,0.3c0.2,0,0.5,0.1,0.7,0.1L69.4,72.7z"/>
			<path class="st17" d="M66.8,120.1v-10.2c2.5,0.4,5.4,0.6,8.6,0.6c8.5,0,15.4-1.7,15.4-3.7V117c0,2-6.9,3.7-15.4,3.7
				C72.2,120.7,69.2,120.5,66.8,120.1z"/>
			<path class="st2" d="M66.8,107.3c2.5,0.4,5.4,0.6,8.6,0.6c8.5,0,15.4-1.7,15.4-3.7v2.6c0,2-6.9,3.7-15.4,3.7
				c-3.2,0-6.2-0.2-8.6-0.6V107.3z"/>
			<path class="st14" d="M66.8,91.6c2.5,0.4,5.4,0.6,8.6,0.6c8.5,0,15.4-1.7,15.4-3.7v15.7c0,2-6.9,3.7-15.4,3.7
				c-3.2,0-6.2-0.2-8.6-0.6V91.6z"/>
			<path class="st2" d="M66.8,88.7c2.5,0.4,5.4,0.6,8.6,0.6c8.5,0,15.4-1.7,15.4-3.7v2.9c0,2-6.9,3.7-15.4,3.7
				c-3.2,0-6.2-0.2-8.6-0.6V88.7z"/>
			<path class="st17" d="M66.8,85.3c0-4.6,0.9-9.1,2.6-12.6l1.6-3.3c0.3,0,0.7,0.1,1,0.1c0.5,0.1,1.1,0.1,1.7,0.1c0.5,0,1.1,0,1.7,0
				h0c0.6,0,1.1,0,1.7,0c0.6,0,1.2-0.1,1.7-0.1c0.6-0.1,1.2-0.1,1.7-0.2c0.6-0.1,1.2-0.2,1.7-0.3c0.4-0.1,0.8-0.2,1.1-0.3l2.9,3.4
				c3,3.5,4.6,8,4.6,12.6v1c0,2-6.9,3.7-15.4,3.7c-3.2,0-6.2-0.2-8.6-0.6V85.3z M89.2,86.1c0.3,0,0.5-0.2,0.5-0.5
				c0-4-1.3-7.9-3.8-11c-0.2-0.2-0.5-0.3-0.8-0.1c-0.2,0.2-0.3,0.5-0.1,0.8c2.3,2.9,3.5,6.6,3.5,10.3C88.6,85.8,88.9,86.1,89.2,86.1
				z M84.7,73.8c0.2-0.2,0.3-0.5,0.1-0.8l-2-2.4c-0.2-0.2-0.5-0.3-0.8-0.1c-0.2,0.2-0.3,0.5-0.1,0.8l2,2.4c0.1,0.1,0.3,0.2,0.4,0.2
				C84.4,74,84.6,73.9,84.7,73.8z"/>
			<path class="st16" d="M66.8,109.9v10.2c-4.1-0.7-6.8-1.8-6.8-3.1v-10.2C59.9,108.1,62.6,109.2,66.8,109.9z"/>
			<path class="st18" d="M66.8,107.3v2.6c-4.1-0.7-6.8-1.8-6.8-3.1v-2.6C59.9,105.5,62.6,106.6,66.8,107.3z"/>
			<path class="st15" d="M66.8,91.6v15.7c-4.1-0.7-6.8-1.8-6.8-3.1V88.5C59.9,89.8,62.6,90.9,66.8,91.6z"/>
			<path class="st18" d="M66.8,88.7v2.9c-4.1-0.7-6.8-1.8-6.8-3.1v-2.9C59.9,86.9,62.6,88,66.8,88.7z"/>
			<path class="st15" d="M65.7,59.6c0,0.4,0.5,0.9,1.4,1.2L67,61.1c-0.1,0-0.3,0.1-0.3,0.3v6.5c0,0.1,0.1,0.3,0.3,0.3l0,0.4
				c-0.8-0.3-1.3-0.7-1.3-1.2V59.6z"/>
		</g>
	</g>
	<g>
		<g>
			<g id="XMLID_00000050654222931611259630000014717118306227031223_">
				<g>
					<path class="st19" d="M79.4,114.1c2.3,0,4.1,1.8,4.1,4.1c0,1.1-0.5,2.2-1.2,2.9c-0.7,0.7-1.8,1.2-2.9,1.2h-4
						c-2.3,0-4.1-1.8-4.1-4.1c0-1.1,0.5-2.2,1.2-2.9c0.7-0.7,1.8-1.2,2.9-1.2H79.4z"/>
					<g>
						<path class="st20" d="M88.6,114.1c2.3,0,4.1,1.8,4.1,4.1c0,1.1-0.5,2.2-1.2,2.9c-0.7,0.7-1.8,1.2-2.9,1.2h-9.2
							c1.1,0,2.2-0.5,2.9-1.2c0.7-0.7,1.2-1.8,1.2-2.9c0-2.3-1.8-4.1-4.1-4.1H88.6z M90.4,115.1c-0.1-0.1-0.2,0-0.3,0.1
							c-0.1,0.1,0,0.2,0.1,0.3c0.9,0.6,1.5,1.6,1.5,2.8c0,0.9-0.4,1.8-1.1,2.4c-0.1,0.1-0.1,0.2,0,0.3c0,0,0.1,0.1,0.2,0.1
							c0.1,0,0.1,0,0.1-0.1c0.8-0.7,1.2-1.7,1.2-2.7C92.1,116.9,91.4,115.8,90.4,115.1z M89.5,115.1c0.1,0,0.2-0.1,0.2-0.1
							c0-0.1,0-0.2-0.1-0.3c-0.4-0.1-0.8-0.2-1.3-0.2c-0.1,0-0.2,0.1-0.2,0.2c0,0.1,0.1,0.2,0.2,0.2C88.7,114.9,89.1,115,89.5,115.1
							C89.5,115.1,89.5,115.1,89.5,115.1z"/>
					</g>
					<path class="st19" d="M90.4,115.1c1.1,0.7,1.7,1.9,1.7,3.1c0,1-0.4,2-1.2,2.7c0,0-0.1,0.1-0.1,0.1c-0.1,0-0.1,0-0.2-0.1
						c-0.1-0.1-0.1-0.2,0-0.3c0.7-0.6,1.1-1.5,1.1-2.4c0-1.1-0.6-2.1-1.5-2.8c-0.1-0.1-0.1-0.2-0.1-0.3
						C90.1,115.1,90.3,115,90.4,115.1z"/>
					<path class="st19" d="M88.3,114.5c0.4,0,0.9,0.1,1.3,0.2c0.1,0,0.2,0.2,0.1,0.3c0,0.1-0.1,0.1-0.2,0.1c0,0,0,0-0.1,0
						c-0.4-0.1-0.7-0.2-1.1-0.2c-0.1,0-0.2-0.1-0.2-0.2C88.1,114.6,88.2,114.5,88.3,114.5z"/>
				</g>
			</g>
		</g>
	</g>
	<g>
		<g>
			<g id="XMLID_00000005979205369603163270000009015407238498544777_">
				<g>
					<path class="st19" d="M94.1,118.9c2.2-0.5,4.4,0.9,4.9,3.1c0.3,1.1,0,2.2-0.5,3.1c-0.6,0.9-1.4,1.6-2.5,1.8l-3.9,0.9
						c-2.2,0.5-4.4-0.9-4.9-3.1c-0.3-1.1,0-2.2,0.5-3.1c0.6-0.9,1.4-1.6,2.5-1.8L94.1,118.9z"/>
					<g>
						<path class="st20" d="M103.1,116.8c2.2-0.5,4.4,0.9,4.9,3.1c0.3,1.1,0,2.2-0.5,3.1c-0.6,0.9-1.4,1.6-2.5,1.8l-9,2.1
							c1.1-0.3,2-0.9,2.5-1.8c0.6-0.9,0.8-2,0.5-3.1c-0.5-2.2-2.7-3.6-4.9-3.1L103.1,116.8z M105,117.4c-0.1,0-0.2,0-0.3,0.1
							c0,0.1,0,0.2,0.1,0.3c1,0.4,1.8,1.3,2.1,2.4c0.2,0.9,0,1.9-0.5,2.6c-0.1,0.1,0,0.2,0.1,0.3c0,0,0.1,0,0.2,0c0,0,0.1,0,0.1-0.1
							c0.6-0.9,0.8-1.9,0.6-2.9C107.1,118.8,106.2,117.8,105,117.4z M104.2,117.6c0.1,0,0.2-0.1,0.2-0.2c0-0.1-0.1-0.2-0.2-0.2
							c-0.4-0.1-0.9,0-1.3,0.1c-0.1,0-0.2,0.1-0.2,0.3c0,0.1,0.1,0.2,0.3,0.2C103.4,117.6,103.8,117.5,104.2,117.6
							C104.2,117.6,104.2,117.6,104.2,117.6z"/>
					</g>
					<path class="st19" d="M105,117.4c1.2,0.4,2.1,1.4,2.3,2.7c0.2,1,0,2.1-0.6,2.9c0,0-0.1,0.1-0.1,0.1c-0.1,0-0.1,0-0.2,0
						c-0.1-0.1-0.1-0.2-0.1-0.3c0.5-0.8,0.7-1.7,0.5-2.6c-0.3-1.1-1-2-2.1-2.4c-0.1,0-0.2-0.2-0.1-0.3
						C104.8,117.4,104.9,117.3,105,117.4z"/>
					<path class="st19" d="M102.9,117.2c0.4-0.1,0.9-0.1,1.3-0.1c0.1,0,0.2,0.1,0.2,0.2c0,0.1-0.1,0.2-0.2,0.2c0,0,0,0-0.1,0
						c-0.4,0-0.8,0-1.1,0.1c-0.1,0-0.2,0-0.3-0.2C102.7,117.4,102.8,117.3,102.9,117.2z"/>
				</g>
			</g>
		</g>
	</g>
	<g>
		<g>
			<g id="XMLID_00000085231615718715131080000008748523534545959838_">
				<g>
					<path class="st19" d="M42.6,116.7c2.2-0.3,4.3,1.2,4.6,3.4c0.2,1.1-0.1,2.2-0.7,3c-0.6,0.8-1.5,1.4-2.6,1.6l-3.9,0.6
						c-2.2,0.3-4.3-1.2-4.6-3.4c-0.2-1.1,0.1-2.2,0.7-3c0.6-0.8,1.5-1.4,2.6-1.6L42.6,116.7z"/>
					<g>
						<path class="st20" d="M51.6,115.3c2.2-0.3,4.3,1.2,4.6,3.4c0.2,1.1-0.1,2.2-0.7,3c-0.6,0.8-1.5,1.4-2.6,1.6l-9,1.4
							c1.1-0.2,2-0.8,2.6-1.6c0.6-0.8,0.9-1.9,0.7-3c-0.3-2.2-2.4-3.7-4.6-3.4L51.6,115.3z M53.5,116c-0.1,0-0.2,0-0.3,0.1
							c0,0.1,0,0.2,0.1,0.3c1,0.5,1.7,1.4,1.9,2.5c0.1,0.9-0.1,1.8-0.7,2.5c-0.1,0.1-0.1,0.2,0,0.3c0,0,0.1,0.1,0.2,0
							c0,0,0.1,0,0.1-0.1c0.6-0.8,0.9-1.9,0.8-2.9C55.4,117.5,54.6,116.5,53.5,116z M52.7,116.1c0.1,0,0.2-0.1,0.2-0.2
							c0-0.1-0.1-0.2-0.2-0.2c-0.4-0.1-0.9-0.1-1.3,0c-0.1,0-0.2,0.1-0.2,0.2c0,0.1,0.1,0.2,0.2,0.2C51.9,116,52.2,116.1,52.7,116.1
							C52.6,116.1,52.7,116.1,52.7,116.1z"/>
					</g>
					<path class="st19" d="M53.5,116c1.1,0.5,1.9,1.6,2.1,2.8c0.2,1-0.1,2.1-0.8,2.9c0,0-0.1,0.1-0.1,0.1c-0.1,0-0.1,0-0.2,0
						c-0.1-0.1-0.1-0.2,0-0.3c0.6-0.7,0.8-1.6,0.7-2.5c-0.2-1.1-0.9-2-1.9-2.5c-0.1,0-0.2-0.2-0.1-0.3C53.3,116,53.4,115.9,53.5,116
						z"/>
					<path class="st19" d="M51.4,115.7c0.4-0.1,0.9-0.1,1.3,0c0.1,0,0.2,0.1,0.2,0.2c0,0.1-0.1,0.2-0.2,0.2c0,0,0,0-0.1,0
						c-0.4-0.1-0.8-0.1-1.1,0c-0.1,0-0.2-0.1-0.2-0.2C51.2,115.8,51.3,115.7,51.4,115.7z"/>
				</g>
			</g>
		</g>
	</g>
	<g>
		<g>
			<g id="XMLID_00000033353164091630393970000004112698662736857010_">
				<g>
					<path class="st19" d="M84,132.9c2.1-0.7,4.4,0.4,5.1,2.5c0.4,1.1,0.3,2.2-0.2,3.1c-0.5,0.9-1.3,1.7-2.3,2l-3.7,1.3
						c-2.1,0.7-4.4-0.4-5.1-2.5c-0.4-1.1-0.3-2.2,0.2-3.1c0.5-0.9,1.3-1.7,2.3-2L84,132.9z"/>
					<g>
						<path class="st20" d="M92.7,129.9c2.1-0.7,4.4,0.4,5.1,2.5c0.4,1.1,0.3,2.2-0.2,3.1c-0.5,0.9-1.3,1.7-2.3,2l-8.6,2.9
							c1.1-0.4,1.9-1.1,2.3-2c0.5-0.9,0.6-2,0.2-3.1c-0.7-2.1-3-3.3-5.1-2.5L92.7,129.9z M94.6,130.3c-0.1,0-0.2,0-0.3,0.2
							c0,0.1,0,0.2,0.2,0.3c1.1,0.3,1.9,1.1,2.3,2.1c0.3,0.9,0.2,1.8-0.2,2.6c-0.1,0.1,0,0.2,0.1,0.3c0.1,0,0.1,0,0.2,0
							c0,0,0.1,0,0.1-0.1c0.5-0.9,0.6-2,0.3-3C96.8,131.5,95.8,130.6,94.6,130.3z M93.8,130.6c0.1,0,0.1-0.1,0.1-0.2
							c0-0.1-0.1-0.2-0.2-0.2c-0.4,0-0.9,0.1-1.3,0.2c-0.1,0-0.2,0.2-0.1,0.3c0,0.1,0.2,0.2,0.3,0.1C93,130.6,93.4,130.6,93.8,130.6
							C93.8,130.6,93.8,130.6,93.8,130.6z"/>
					</g>
					<path class="st19" d="M94.6,130.3c1.2,0.3,2.2,1.2,2.6,2.4c0.3,1,0.2,2.1-0.3,3c0,0-0.1,0.1-0.1,0.1c-0.1,0-0.1,0-0.2,0
						c-0.1-0.1-0.1-0.2-0.1-0.3c0.4-0.8,0.5-1.8,0.2-2.6c-0.4-1-1.2-1.8-2.3-2.1c-0.1,0-0.2-0.1-0.2-0.3
						C94.4,130.3,94.5,130.2,94.6,130.3z"/>
					<path class="st19" d="M92.5,130.4c0.4-0.1,0.8-0.2,1.3-0.2c0.1,0,0.2,0.1,0.2,0.2c0,0.1-0.1,0.2-0.1,0.2c0,0,0,0-0.1,0
						c-0.4,0-0.8,0.1-1.1,0.2c-0.1,0-0.2,0-0.3-0.1C92.4,130.5,92.4,130.4,92.5,130.4z"/>
				</g>
			</g>
		</g>
	</g>
	<g>
		<g>
			<g id="XMLID_00000146475343298488352420000016523145856911010184_">
				<g>
					<path class="st19" d="M58.1,126.4c2.1-0.7,4.5,0.4,5.2,2.6c0.4,1.1,0.3,2.2-0.2,3.1c-0.5,0.9-1.3,1.7-2.4,2.1l-3.8,1.3
						c-2.1,0.7-4.5-0.4-5.2-2.6c-0.4-1.1-0.3-2.2,0.2-3.1c0.5-0.9,1.3-1.7,2.4-2.1L58.1,126.4z"/>
					<g>
						<path class="st20" d="M66.9,123.5c2.1-0.7,4.5,0.4,5.2,2.6c0.4,1.1,0.3,2.2-0.2,3.1c-0.5,0.9-1.3,1.7-2.4,2.1l-8.7,3
							c1.1-0.4,1.9-1.1,2.4-2.1c0.5-0.9,0.6-2.1,0.2-3.1c-0.7-2.1-3-3.3-5.2-2.6L66.9,123.5z M68.8,123.8c-0.1,0-0.2,0-0.3,0.2
							c0,0.1,0,0.2,0.2,0.3c1.1,0.3,1.9,1.1,2.3,2.1c0.3,0.9,0.2,1.8-0.2,2.6c-0.1,0.1,0,0.2,0.1,0.3c0.1,0,0.1,0,0.2,0
							c0,0,0.1,0,0.1-0.1c0.5-0.9,0.6-2,0.3-3C71,125,70.1,124.1,68.8,123.8z M68.1,124.1c0.1,0,0.1-0.1,0.1-0.2
							c0-0.1-0.1-0.2-0.2-0.2c-0.4,0-0.9,0.1-1.3,0.2c-0.1,0-0.2,0.2-0.1,0.3c0,0.1,0.2,0.2,0.3,0.1
							C67.2,124.2,67.6,124.1,68.1,124.1C68,124.1,68,124.1,68.1,124.1z"/>
					</g>
					<path class="st19" d="M68.8,123.8c1.2,0.3,2.2,1.2,2.6,2.4c0.3,1,0.2,2.1-0.3,3c0,0-0.1,0.1-0.1,0.1c-0.1,0-0.1,0-0.2,0
						c-0.1-0.1-0.1-0.2-0.1-0.3c0.4-0.8,0.5-1.8,0.2-2.6c-0.4-1.1-1.2-1.9-2.3-2.1c-0.1,0-0.2-0.1-0.2-0.3
						C68.6,123.9,68.7,123.8,68.8,123.8z"/>
					<path class="st19" d="M66.7,123.9c0.4-0.1,0.8-0.2,1.3-0.2c0.1,0,0.2,0.1,0.2,0.2c0,0.1-0.1,0.2-0.1,0.2c0,0,0,0-0.1,0
						c-0.4,0-0.8,0.1-1.1,0.2c-0.1,0-0.2,0-0.3-0.1C66.6,124.1,66.6,124,66.7,123.9z"/>
				</g>
			</g>
		</g>
	</g>
	<g>
		<polygon class="st21" points="106.7,97.7 110.2,97.7 110.2,94.2 114,94.2 114,97.7 117.5,97.7 117.5,101.5 114,101.5 114,105 
			110.2,105 110.2,101.5 106.7,101.5 		"/>
		<polygon class="st21" points="103.5,60.8 107,60.8 107,57.3 110.8,57.3 110.8,60.8 114.3,60.8 114.3,64.7 110.8,64.7 110.8,68.1 
			107,68.1 107,64.7 103.5,64.7 		"/>
		<g>
			<path class="st21" d="M92.9,75.1c0-2.7,2.2-4.9,4.9-4.9c2.7,0,4.9,2.2,4.9,4.9s-2.2,4.9-4.9,4.9C95.1,80,92.9,77.8,92.9,75.1z
				 M94.2,75.1c0,2,1.6,3.6,3.6,3.6c2,0,3.6-1.6,3.6-3.6c0-2-1.6-3.6-3.6-3.6C95.8,71.5,94.2,73.1,94.2,75.1z"/>
		</g>
		<g>
			<path class="st21" d="M122.1,84.4c0-2.7,2.2-4.9,4.9-4.9s4.9,2.2,4.9,4.9s-2.2,4.9-4.9,4.9S122.1,87.1,122.1,84.4z M123.4,84.4
				c0,2,1.6,3.6,3.6,3.6s3.6-1.6,3.6-3.6c0-2-1.6-3.6-3.6-3.6S123.4,82.4,123.4,84.4z"/>
		</g>
		<path class="st21" d="M120.2,113.3c0,1.3,1,2.3,2.3,2.3c1.3,0,2.3-1,2.3-2.3s-1-2.3-2.3-2.3C121.2,111.1,120.2,112.1,120.2,113.3z
			"/>
		<path class="st21" d="M110.4,83.9c0,1.1,0.9,1.9,1.9,1.9c1.1,0,1.9-0.9,1.9-1.9c0-1.1-0.9-1.9-1.9-1.9
			C111.3,82,110.4,82.9,110.4,83.9z"/>
		<path class="st21" d="M98.4,90.9c0,1.1,0.9,1.9,1.9,1.9c1.1,0,1.9-0.9,1.9-1.9c0-1.1-0.9-1.9-1.9-1.9C99.2,89,98.4,89.8,98.4,90.9
			z"/>
		<circle class="st21" cx="100.3" cy="108.6" r="1.9"/>
	</g>
	<g>
		<path id="SVGID_x5F_1_x5F_" class="st22" d="M128.2,73.8c0,29.1-23.6,52.6-52.6,52.6c-29.1,0-52.6-23.6-52.6-52.6
			s23.6-52.6,52.6-52.6C104.6,21.2,128.2,44.7,128.2,73.8z"/>
		<text>		<textPath  xlink:href="#SVGID_x5F_1_x5F_" startOffset="33.3333%">
<tspan  class="st2" style="font-family:'Poppins-Medium'; font-size:12.3462px;">Drug Information Center</tspan>		</textPath>
</text>
	</g>
</g>
</svg>
