<?xml version="1.0" encoding="UTF-8"?>
<svg id="Layer_1" data-name="Layer 1" xmlns="http://www.w3.org/2000/svg" viewBox="0 0 104.51 102.13">
  <rect x="5.2" y="4.01" width="94.1" height="94.11" rx="12.55" ry="12.55" fill="#d23a27"/>
  <path d="m99.31,85.56v-37.55s0,0-.01-.01c-.05-.06-31.75-31.76-31.82-31.82-.29-.38-.81-.62-1.41-.62h-27.64c-.94,0-1.67.6-1.67,1.37v2.06c0,.4.19.75.51.99.06.08,1.66,1.67,1.71,1.71v52.86c0,3.02,1.24,5.77,3.27,7.88l15.66,15.66s.01.01.02.02h28.81c6.93,0,12.55-5.62,12.55-12.55Z" fill="#9e2a20"/>
  <g>
    <path d="m66.07,15.56h-27.64c-.94,0-1.67.6-1.67,1.37v2.06c0,.77.73,1.37,1.67,1.37h.55v54.19c0,6.63,5.95,12.02,13.27,12.02s13.26-5.39,13.26-12.02V20.36h.56c.94,0,1.67-.6,1.67-1.37v-2.06c0-.77-.73-1.37-1.67-1.37Zm-13.82,69.2c-6.5,0-11.78-4.75-11.78-10.61v-26.73h23.55v26.73c0,5.86-5.27,10.61-11.78,10.61Z" fill="#fff"/>
    <rect x="46.19" y="51.58" width="12.12" height=".57" fill="#fff"/>
    <rect x="46.19" y="55.88" width="12.12" height=".57" fill="#fff"/>
    <rect x="42.19" y="60.19" width="20.13" height=".57" fill="#fff"/>
    <rect x="46.19" y="64.49" width="12.12" height=".57" fill="#fff"/>
    <rect x="46.19" y="68.79" width="12.12" height=".57" fill="#fff"/>
  </g>
</svg>