<?xml version="1.0" encoding="utf-8"?>
<!-- Generator: Adobe Illustrator 27.2.0, SVG Export Plug-In . SVG Version: 6.00 Build 0)  -->
<svg version="1.1" id="Layer_1" xmlns="http://www.w3.org/2000/svg" xmlns:xlink="http://www.w3.org/1999/xlink" x="0px" y="0px"
	 viewBox="0 0 112.2 108.2" style="enable-background:new 0 0 112.2 108.2;" xml:space="preserve">
<style type="text/css">
	.st0{opacity:0.78;fill:#FFFFFF;}
	.st1{fill:#36B3B6;}
	
		.st2{opacity:0.5;clip-path:url(#SVGID_00000070089811372518456710000001521562622110899900_);fill:url(#SVGID_00000140693041506055707620000017826400811043363004_);}
	
		.st3{opacity:0.5;clip-path:url(#SVGID_00000070089811372518456710000001521562622110899900_);fill:url(#SVGID_00000170276066077424014130000002552576127264907966_);}
	.st4{fill:#22608A;}
	.st5{fill:#123A60;}
	.st6{fill:#FFFFFF;}
	.st7{fill:#CDE3E8;}
	.st8{opacity:0.4;fill:url(#SVGID_00000164485256938872613780000006191721630428413316_);}
	.st9{opacity:0.4;fill:url(#SVGID_00000133506841426137102480000017719574291014653315_);}
	.st10{opacity:0.5;fill:url(#SVGID_00000174573677795989145060000009320178486016266683_);}
	.st11{clip-path:url(#SVGID_00000017488828134557700820000010208218682990792100_);}
	.st12{fill:#056F9A;}
	.st13{fill:#AEAEAE;}
	.st14{opacity:0.5;fill:url(#SVGID_00000079473913681639262700000002847307880299747496_);}
	.st15{fill:#BB2025;}
	.st16{fill:#F47C2A;}
	.st17{fill:#DF1F26;}
	
		.st18{opacity:0.5;clip-path:url(#SVGID_00000054226901958095304060000011075187293457889695_);fill:url(#SVGID_00000121958762172862922080000012235702419192945044_);}
	.st19{fill:#A0C3D3;}
	
		.st20{opacity:0.5;clip-path:url(#SVGID_00000151542216597213749640000017403892814045199021_);fill:url(#SVGID_00000150790805219474637700000013117100326586274950_);}
	.st21{opacity:0.5;fill:url(#SVGID_00000051377261118743994630000012865253691552727184_);}
	
		.st22{opacity:0.4;clip-path:url(#SVGID_00000070805213060832166910000015219439505516150172_);fill:url(#SVGID_00000143600389105185252890000010764128544678960289_);}
	
		.st23{opacity:0.4;clip-path:url(#SVGID_00000070805213060832166910000015219439505516150172_);fill:url(#SVGID_00000054266269383368888240000017299447083146610081_);}
	.st24{fill:#F05223;}
	.st25{opacity:0.4;fill:url(#SVGID_00000039828841588011210350000012473260238113808571_);}
	.st26{opacity:0.4;fill:url(#SVGID_00000176003824179302283060000000858388639824576182_);}
	.st27{opacity:0.5;fill:url(#SVGID_00000169534045904683144180000013288206227403633599_);}
	.st28{opacity:0.5;fill:url(#SVGID_00000127725228148743468600000010072461023509734074_);}
	.st29{opacity:0.5;fill:url(#SVGID_00000155132176988089363750000004854322825248059833_);}
	
		.st30{opacity:0.5;clip-path:url(#SVGID_00000098935305304617994380000008387161752095855254_);fill:url(#SVGID_00000165222186854535160510000004013103412768329906_);}
	.st31{opacity:0.92;fill:#FFFFFF;}
</style>
<g>
	<g>
		<path class="st0" d="M102.2,79.1c0,0.9-0.6,1.9-1.4,2.4l-43.4,25c-0.8,0.4-2,0.4-2.8,0l-43.4-25C10.6,81.1,10,80,10,79.1V29
			c0-0.9,0.6-1.9,1.4-2.4l43.4-25c0.8-0.4,2-0.4,2.8,0l43.4,25c0.8,0.4,1.4,1.5,1.4,2.4V79.1z"/>
		<path class="st1" d="M101.1,78.5c0,0.9-0.6,1.9-1.3,2.3l-42.3,24.4c-0.7,0.4-1.9,0.4-2.7,0L12.5,80.8c-0.7-0.4-1.3-1.5-1.3-2.3
			V29.7c0-0.9,0.6-1.9,1.3-2.3L54.8,2.9c0.7-0.4,1.9-0.4,2.7,0l42.3,24.4c0.7,0.4,1.3,1.5,1.3,2.3V78.5z"/>
		<g>
			<defs>
				<path id="SVGID_00000075152132600106510680000018112479893163826841_" d="M101.1,78.5c0,0.9-0.6,1.9-1.3,2.3l-42.3,24.4
					c-0.7,0.4-1.9,0.4-2.7,0L12.5,80.8c-0.7-0.4-1.3-1.5-1.3-2.3V29.7c0-0.9,0.6-1.9,1.3-2.3L54.8,2.9c0.7-0.4,1.9-0.4,2.7,0
					l42.3,24.4c0.7,0.4,1.3,1.5,1.3,2.3V78.5z"/>
			</defs>
			<clipPath id="SVGID_00000034076372966382305910000005375889812005477520_">
				<use xlink:href="#SVGID_00000075152132600106510680000018112479893163826841_"  style="overflow:visible;"/>
			</clipPath>
			
				<linearGradient id="SVGID_00000034790291889320432770000013371648075465263018_" gradientUnits="userSpaceOnUse" x1="-214.8908" y1="41.7811" x2="-67.9294" y2="14.7633" gradientTransform="matrix(0.4969 -0.3191 0.5403 0.8415 96.6281 -12.9475)">
				<stop  offset="1.098900e-02" style="stop-color:#FFFFFF"/>
				<stop  offset="0.1141" style="stop-color:#FAFAFA"/>
				<stop  offset="0.2367" style="stop-color:#ECECEC"/>
				<stop  offset="0.3692" style="stop-color:#D4D4D4"/>
				<stop  offset="0.5088" style="stop-color:#B2B2B2"/>
				<stop  offset="0.6539" style="stop-color:#878787"/>
				<stop  offset="0.8037" style="stop-color:#525252"/>
				<stop  offset="0.9545" style="stop-color:#151515"/>
				<stop  offset="1" style="stop-color:#010101"/>
			</linearGradient>
			
				<polygon style="opacity:0.4;clip-path:url(#SVGID_00000034076372966382305910000005375889812005477520_);fill:url(#SVGID_00000034790291889320432770000013371648075465263018_);" points="
				94.8,50.9 24.5,92.8 7.1,84.2 3.3,43.4 51.2,13.8 			"/>
			
				<linearGradient id="SVGID_00000163039645278797868490000004330127074616061073_" gradientUnits="userSpaceOnUse" x1="-200.05" y1="66.1353" x2="-106.0089" y2="48.8465" gradientTransform="matrix(0.4969 -0.3191 0.5403 0.8415 96.6281 -12.9475)">
				<stop  offset="1.098900e-02" style="stop-color:#FFFFFF"/>
				<stop  offset="0.1559" style="stop-color:#FCFCFC"/>
				<stop  offset="0.283" style="stop-color:#F1F1F1"/>
				<stop  offset="0.4036" style="stop-color:#DFDFDF"/>
				<stop  offset="0.52" style="stop-color:#C5C5C5"/>
				<stop  offset="0.6336" style="stop-color:#A5A5A5"/>
				<stop  offset="0.745" style="stop-color:#7D7D7D"/>
				<stop  offset="0.8547" style="stop-color:#4D4D4D"/>
				<stop  offset="0.9603" style="stop-color:#171717"/>
				<stop  offset="1" style="stop-color:#010101"/>
			</linearGradient>
			
				<polygon style="opacity:0.4;clip-path:url(#SVGID_00000034076372966382305910000005375889812005477520_);fill:url(#SVGID_00000163039645278797868490000004330127074616061073_);" points="
				85,80.2 44.3,104 18.3,88.4 59.1,63.5 			"/>
		</g>
		<g>
			<g>
				<g>
					<path class="st6" d="M62,85.4c0,1.4-1.1,2.5-2.5,2.5h-10c-1.4,0-2.5-1.1-2.5-2.5l0,0c0-1.4,1.1-2.5,2.5-2.5h10
						C60.8,82.9,62,84,62,85.4L62,85.4z"/>
					<g>
						<path class="st16" d="M62,85.4c0-1.4-1.1-2.5-2.5-2.5h-5v5.1h5C60.8,87.9,62,86.8,62,85.4z"/>
					</g>
				</g>
				<g>
					<path class="st7" d="M49.4,87.9h5v-2.5h-7.6C46.9,86.8,48,87.9,49.4,87.9z"/>
					<path class="st24" d="M59.4,87.9c1.4,0,2.5-1.1,2.5-2.5h-7.5v2.5H59.4z"/>
				</g>
			</g>
			<g>
				<g>
					<path class="st6" d="M55.4,89.8c0,1.4-1.1,2.5-2.5,2.5h-10c-1.4,0-2.5-1.1-2.5-2.5l0,0c0-1.4,1.1-2.5,2.5-2.5h10
						C54.3,87.2,55.4,88.4,55.4,89.8L55.4,89.8z"/>
					<g>
						<path class="st16" d="M55.4,89.8c0-1.4-1.1-2.5-2.5-2.5h-5v5.1h5C54.3,92.3,55.4,91.2,55.4,89.8z"/>
					</g>
				</g>
				<g>
					<path class="st7" d="M42.9,92.3h5v-2.5h-7.6C40.4,91.2,41.5,92.3,42.9,92.3z"/>
					<path class="st24" d="M52.9,92.3c1.4,0,2.5-1.1,2.5-2.5h-7.5v2.5H52.9z"/>
				</g>
			</g>
		</g>
		<g>
			<path class="st6" d="M51,77.7c0,1.4-1.1,2.5-2.5,2.5H34c-1.4,0-2.5-1.1-2.5-2.5v-11c0-1.4,1.1-2.5,2.5-2.5h14.6
				c1.4,0,2.5,1.1,2.5,2.5V77.7z"/>
			<rect x="35.2" y="57.5" class="st6" width="12.2" height="11.2"/>
			<g>
				<path class="st7" d="M31.5,66.7v11c0,1.4,1.1,2.5,2.5,2.5h7.5v-16H34C32.6,64.2,31.5,65.3,31.5,66.7z"/>
			</g>
			
				<linearGradient id="SVGID_00000159470804585912123150000000918796223916986508_" gradientUnits="userSpaceOnUse" x1="38.4697" y1="67.8763" x2="40.8702" y2="58.4244">
				<stop  offset="0.1044" style="stop-color:#FFFFFF"/>
				<stop  offset="0.2062" style="stop-color:#FBFBFB"/>
				<stop  offset="0.2971" style="stop-color:#F1F1F1"/>
				<stop  offset="0.3837" style="stop-color:#DEDEDE"/>
				<stop  offset="0.4679" style="stop-color:#C5C5C5"/>
				<stop  offset="0.5502" style="stop-color:#A4A4A4"/>
				<stop  offset="0.6312" style="stop-color:#7B7B7B"/>
				<stop  offset="0.7111" style="stop-color:#4B4B4B"/>
				<stop  offset="0.7881" style="stop-color:#141414"/>
				<stop  offset="0.8132" style="stop-color:#010101"/>
			</linearGradient>
			<polygon style="opacity:0.4;fill:url(#SVGID_00000159470804585912123150000000918796223916986508_);" points="47.4,62.1 
				42.4,68.6 31.3,66.6 35.2,61.9 			"/>
			<g>
				<path class="st7" d="M49.6,62.1v-4c0-1.4-0.9-2.5-2.1-2.5H35.4c-1.1,0-2.1,1.1-2.1,2.5v4H49.6z"/>
				<g>
					<path class="st6" d="M48.5,60.9c0,0.2-0.2,0.3-0.4,0.3l0,0c-0.2,0-0.4-0.1-0.4-0.3v-3.5c0-0.2,0.2-0.3,0.4-0.3l0,0
						c0.2,0,0.4,0.1,0.4,0.3V60.9z"/>
					<path class="st6" d="M47,60.9c0,0.2-0.2,0.3-0.4,0.3l0,0c-0.2,0-0.4-0.1-0.4-0.3v-3.5c0-0.2,0.2-0.3,0.4-0.3l0,0
						c0.2,0,0.4,0.1,0.4,0.3V60.9z"/>
					<path class="st6" d="M45.5,60.9c0,0.2-0.2,0.3-0.4,0.3l0,0c-0.2,0-0.4-0.1-0.4-0.3v-3.5c0-0.2,0.2-0.3,0.4-0.3l0,0
						c0.2,0,0.4,0.1,0.4,0.3V60.9z"/>
					<path class="st6" d="M44,60.9c0,0.2-0.2,0.3-0.4,0.3l0,0c-0.2,0-0.4-0.1-0.4-0.3v-3.5c0-0.2,0.2-0.3,0.4-0.3l0,0
						c0.2,0,0.4,0.1,0.4,0.3V60.9z"/>
					<path class="st6" d="M42.5,60.9c0,0.2-0.2,0.3-0.4,0.3l0,0c-0.2,0-0.4-0.1-0.4-0.3v-3.5c0-0.2,0.2-0.3,0.4-0.3l0,0
						c0.2,0,0.4,0.1,0.4,0.3V60.9z"/>
					<path class="st6" d="M41.1,60.9c0,0.2-0.2,0.3-0.4,0.3l0,0c-0.2,0-0.4-0.1-0.4-0.3v-3.5c0-0.2,0.2-0.3,0.4-0.3l0,0
						c0.2,0,0.4,0.1,0.4,0.3V60.9z"/>
					<path class="st6" d="M39.6,60.9c0,0.2-0.2,0.3-0.4,0.3l0,0c-0.2,0-0.4-0.1-0.4-0.3v-3.5c0-0.2,0.2-0.3,0.4-0.3l0,0
						c0.2,0,0.4,0.1,0.4,0.3V60.9z"/>
					<path class="st6" d="M38.1,60.9c0,0.2-0.2,0.3-0.4,0.3l0,0c-0.2,0-0.4-0.1-0.4-0.3v-3.5c0-0.2,0.2-0.3,0.4-0.3l0,0
						c0.2,0,0.4,0.1,0.4,0.3V60.9z"/>
					<path class="st6" d="M36.6,60.9c0,0.2-0.2,0.3-0.4,0.3l0,0c-0.2,0-0.4-0.1-0.4-0.3v-3.5c0-0.2,0.2-0.3,0.4-0.3l0,0
						c0.2,0,0.4,0.1,0.4,0.3V60.9z"/>
					<path class="st6" d="M35.1,60.9c0,0.2-0.2,0.3-0.4,0.3l0,0c-0.2,0-0.4-0.1-0.4-0.3v-3.5c0-0.2,0.2-0.3,0.4-0.3l0,0
						c0.2,0,0.4,0.1,0.4,0.3V60.9z"/>
				</g>
			</g>
		</g>
		<g>
			<g>
				<path class="st7" d="M95,50.2c0,0.4-0.3,0.6-0.6,0.6H52.2c-0.4,0-0.6-0.3-0.6-0.6V18.5c0-0.4,0.3-0.6,0.6-0.6h42.2
					c0.4,0,0.6,0.3,0.6,0.6V50.2z"/>
				<path class="st6" d="M95,43.5c0,0-6.1,6.9-6.1,6.9H51.7c-0.4,0-0.6-0.3-0.6-0.6V18.1c0-0.4,0.3-0.6,0.6-0.6h42.7
					c0.4,0,0.6,0.3,0.6,0.6V43.5z"/>
				<g>
					<path class="st19" d="M89.9,43.5h5l-6.1,6.9v-5.9C88.9,44,89.4,43.5,89.9,43.5z"/>
				</g>
				<g>
					<g>
						<rect x="56.8" y="29.2" class="st19" width="3.4" height="2.5"/>
						<rect x="61.7" y="29.2" class="st19" width="3.4" height="2.5"/>
						<rect x="66.6" y="29.2" class="st24" width="3.4" height="2.5"/>
						<rect x="71.6" y="29.2" class="st19" width="3.4" height="2.5"/>
						<rect x="76.5" y="29.2" class="st19" width="3.4" height="2.5"/>
						<rect x="81.4" y="29.2" class="st19" width="3.4" height="2.5"/>
						<rect x="86.4" y="29.2" class="st19" width="3.4" height="2.5"/>
					</g>
					<g>
						<rect x="71.6" y="24.9" class="st19" width="3.4" height="2.5"/>
						<rect x="76.5" y="24.9" class="st19" width="3.4" height="2.5"/>
						<rect x="81.4" y="24.9" class="st19" width="3.4" height="2.5"/>
						<rect x="86.4" y="24.9" class="st19" width="3.4" height="2.5"/>
					</g>
					<g>
						<rect x="56.8" y="33.7" class="st19" width="3.4" height="2.5"/>
						<rect x="61.7" y="33.7" class="st19" width="3.4" height="2.5"/>
						<rect x="66.6" y="33.7" class="st19" width="3.4" height="2.5"/>
						<rect x="71.6" y="33.7" class="st19" width="3.4" height="2.5"/>
						<rect x="76.5" y="33.7" class="st19" width="3.4" height="2.5"/>
						<rect x="81.4" y="33.7" class="st19" width="3.4" height="2.5"/>
						<rect x="86.4" y="33.7" class="st19" width="3.4" height="2.5"/>
					</g>
					<g>
						<rect x="56.8" y="38.2" class="st19" width="3.4" height="2.5"/>
						<rect x="61.7" y="38.2" class="st19" width="3.4" height="2.5"/>
						<rect x="66.6" y="38.2" class="st19" width="3.4" height="2.5"/>
						<rect x="71.6" y="38.2" class="st19" width="3.4" height="2.5"/>
						<rect x="76.5" y="38.2" class="st19" width="3.4" height="2.5"/>
						<rect x="81.4" y="38.2" class="st19" width="3.4" height="2.5"/>
						<rect x="86.4" y="38.2" class="st19" width="3.4" height="2.5"/>
					</g>
					<g>
						<rect x="56.8" y="42.7" class="st19" width="3.4" height="2.5"/>
						<rect x="61.7" y="42.7" class="st19" width="3.4" height="2.5"/>
						<rect x="66.6" y="42.7" class="st19" width="3.4" height="2.5"/>
					</g>
				</g>
			</g>
			<path class="st24" d="M95,21.5v-7.1c0-0.4-0.3-0.6-0.6-0.6H51.7c-0.4,0-0.6,0.3-0.6,0.6v7.1H95z"/>
			<g>
				<g>
					<g>
						<path class="st5" d="M55.4,15.9c0,0.4-0.3,0.8-0.6,0.8h0c-0.3,0-0.6-0.3-0.6-0.8v-2.9c0-0.4,0.3-0.8,0.6-0.8h0
							c0.3,0,0.6,0.3,0.6,0.8V15.9z"/>
					</g>
					<g>
						<path class="st5" d="M59,15.9c0,0.4-0.3,0.8-0.6,0.8h0c-0.3,0-0.6-0.3-0.6-0.8v-2.9c0-0.4,0.3-0.8,0.6-0.8h0
							c0.3,0,0.6,0.3,0.6,0.8V15.9z"/>
					</g>
					<g>
						<path class="st5" d="M62.7,15.9c0,0.4-0.3,0.8-0.6,0.8h0c-0.3,0-0.6-0.3-0.6-0.8v-2.9c0-0.4,0.3-0.8,0.6-0.8h0
							c0.3,0,0.6,0.3,0.6,0.8V15.9z"/>
					</g>
					<g>
						<path class="st5" d="M66.3,15.9c0,0.4-0.3,0.8-0.6,0.8h0c-0.3,0-0.6-0.3-0.6-0.8v-2.9c0-0.4,0.3-0.8,0.6-0.8h0
							c0.3,0,0.6,0.3,0.6,0.8V15.9z"/>
					</g>
					<g>
						<path class="st5" d="M70,15.9c0,0.4-0.3,0.8-0.6,0.8h0c-0.3,0-0.6-0.3-0.6-0.8v-2.9c0-0.4,0.3-0.8,0.6-0.8h0
							c0.3,0,0.6,0.3,0.6,0.8V15.9z"/>
					</g>
					<g>
						<path class="st5" d="M73.6,15.9c0,0.4-0.3,0.8-0.6,0.8h0c-0.3,0-0.6-0.3-0.6-0.8v-2.9c0-0.4,0.3-0.8,0.6-0.8h0
							c0.3,0,0.6,0.3,0.6,0.8V15.9z"/>
					</g>
					<g>
						<path class="st5" d="M77.2,15.9c0,0.4-0.3,0.8-0.6,0.8h0c-0.3,0-0.6-0.3-0.6-0.8v-2.9c0-0.4,0.3-0.8,0.6-0.8h0
							c0.3,0,0.6,0.3,0.6,0.8V15.9z"/>
					</g>
					<g>
						<path class="st5" d="M80.9,15.9c0,0.4-0.3,0.8-0.6,0.8h0c-0.3,0-0.6-0.3-0.6-0.8v-2.9c0-0.4,0.3-0.8,0.6-0.8h0
							c0.3,0,0.6,0.3,0.6,0.8V15.9z"/>
					</g>
					<g>
						<path class="st5" d="M84.5,15.9c0,0.4-0.3,0.8-0.6,0.8h0c-0.3,0-0.6-0.3-0.6-0.8v-2.9c0-0.4,0.3-0.8,0.6-0.8h0
							c0.3,0,0.6,0.3,0.6,0.8V15.9z"/>
					</g>
					<g>
						<path class="st5" d="M88.1,15.9c0,0.4-0.3,0.8-0.6,0.8h0c-0.3,0-0.6-0.3-0.6-0.8v-2.9c0-0.4,0.3-0.8,0.6-0.8h0
							c0.3,0,0.6,0.3,0.6,0.8V15.9z"/>
					</g>
					<g>
						<path class="st5" d="M91.8,15.9c0,0.4-0.3,0.8-0.6,0.8h0c-0.3,0-0.6-0.3-0.6-0.8v-2.9c0-0.4,0.3-0.8,0.6-0.8h0
							c0.3,0,0.6,0.3,0.6,0.8V15.9z"/>
					</g>
				</g>
			</g>
		</g>
		<g>
			<rect x="20.8" y="35.4" class="st24" width="16.9" height="27.4"/>
			<rect x="29.2" y="37.3" class="st16" width="8.5" height="25.5"/>
			<g>
				<rect x="25.5" y="44.3" class="st6" width="10.1" height="7.1"/>
				<rect x="25.5" y="44.3" class="st7" width="3.8" height="7.1"/>
			</g>
			
				<linearGradient id="SVGID_00000062899785202695846820000012586374007944043707_" gradientUnits="userSpaceOnUse" x1="22.6105" y1="49.6701" x2="32.6852" y2="32.542">
				<stop  offset="0.1044" style="stop-color:#FFFFFF"/>
				<stop  offset="0.2062" style="stop-color:#FBFBFB"/>
				<stop  offset="0.2971" style="stop-color:#F1F1F1"/>
				<stop  offset="0.3837" style="stop-color:#DEDEDE"/>
				<stop  offset="0.4679" style="stop-color:#C5C5C5"/>
				<stop  offset="0.5502" style="stop-color:#A4A4A4"/>
				<stop  offset="0.6312" style="stop-color:#7B7B7B"/>
				<stop  offset="0.7111" style="stop-color:#4B4B4B"/>
				<stop  offset="0.7881" style="stop-color:#141414"/>
				<stop  offset="0.8132" style="stop-color:#010101"/>
			</linearGradient>
			<polygon style="opacity:0.4;fill:url(#SVGID_00000062899785202695846820000012586374007944043707_);" points="38.9,37.3 
				27.5,51.9 17.1,43.8 22,36.9 			"/>
			<rect x="18.9" y="29.2" class="st6" width="21" height="9.7"/>
		</g>
		<g>
			<g>
				<path class="st5" d="M77.7,74.5c-1.1,1-2.8,1-3.8-0.1l0,0c-1-1.1-1-2.8,0.1-3.8l17.6-15.2c1.1-1,1.9-1.9,3-0.8l0,0
					c1,1.1,0.1,1.9-0.9,2.9L77.7,74.5z"/>
				<g>
					<path class="st6" d="M92.8,63.5c0,12-7.6,19.3-16.9,19.3s-16.9-7.2-16.9-19.3H92.8z"/>
					<g>
						<path class="st7" d="M76,82.8c0.1,0,0.1,0,0.2,0V63.5H59.1C59.1,75.5,66.7,82.8,76,82.8z"/>
					</g>
				</g>
			</g>
		</g>
	</g>
	<g>
		<g>
			<path class="st6" d="M80.1,93.1c0,1.7-1.4,3.1-3.1,3.1H65c-1.7,0-3.1-1.4-3.1-3.1l0,0c0-1.7,1.4-3.1,3.1-3.1h12.1
				C78.7,90,80.1,91.4,80.1,93.1L80.1,93.1z"/>
			<g>
				<path class="st17" d="M80.1,93.1c0-1.7-1.4-3.1-3.1-3.1h-6v6.1h6C78.7,96.2,80.1,94.8,80.1,93.1z"/>
			</g>
		</g>
		<g>
			<path class="st7" d="M65,96.2h6.1v-3h-9.1C61.9,94.8,63.3,96.2,65,96.2z"/>
			<path class="st15" d="M77.1,96.2c1.7,0,3.1-1.4,3.1-3h-9.1v3H77.1z"/>
		</g>
	</g>
</g>
</svg>
