<?xml version="1.0" encoding="utf-8"?>
<!-- Generator: Adobe Illustrator 27.2.0, SVG Export Plug-In . SVG Version: 6.00 Build 0)  -->
<svg version="1.1" xmlns="http://www.w3.org/2000/svg" xmlns:xlink="http://www.w3.org/1999/xlink" x="0px" y="0px"
	 viewBox="0 0 708 180" style="enable-background:new 0 0 708 180;" xml:space="preserve">
<style type="text/css">
	.st0{fill:#6F61C0;}
	.st1{fill:#A084E8;}
	.st2{fill:#8BE8E5;}
	.st3{fill:#37517E;}
</style>
<g id="_x33_5">
	<g>
		<path class="st0" d="M194.1,95.2v13.2h-28.5l-14.8,28.2c-1.4,2.5-3.8,3.9-6.6,3.6c-2.7,0-4.9-1.9-5.8-4.4l-11.2-32.6l-9.9,23.8
			c-1.4,2.5-4.1,4.1-7.1,4.1c-2.7-0.5-5.2-2.7-5.8-5.8l-9.3-57.6l-11.2,87.7c-0.3,3.3-3,5.8-6.3,5.8c0,0,0,0-0.3,0
			c-3,0-5.8-2.5-6.6-5.5L57.8,88.1l-8,16.7c-1.1,2.2-3.6,3.6-6,3.6H16.2V95.2h23.3L54.6,64c1.4-2.7,4.1-4.1,6.9-3.8
			c3,0.5,5.2,2.5,5.8,5.5l9,47.7l11.5-89.1c0.3-3.3,3-5.5,6.3-5.5c3.3-0.3,6,2.2,6.9,5.5l12.6,76.8l8.2-19.2
			c1.1-2.5,3.6-4.4,6.3-4.1c3,0,5.2,1.9,6.3,4.4l11.8,34.8l9.6-18.1c1.1-2.2,3.3-3.6,5.8-3.6H194.1z"/>
	</g>
	<g>
		<path class="st3" d="M232.2,50.3h17.4c11.2,0,18.8,0.5,22.8,1.5c4,1,7,2.7,9,5.1c2.1,2.4,3.3,5,3.9,7.9c0.5,2.9,0.8,8.6,0.8,17
			v31.3c0,8-0.4,13.4-1.1,16.1c-0.8,2.7-2.1,4.8-3.9,6.3c-1.9,1.5-4.2,2.6-7,3.2c-2.8,0.6-6.9,0.9-12.5,0.9h-29.3V50.3z M255.4,65.6
			v58.8c3.3,0,5.4-0.7,6.2-2c0.8-1.3,1.2-5,1.2-11V76.7c0-4-0.1-6.6-0.4-7.8c-0.3-1.1-0.8-2-1.8-2.5C259.7,65.9,258,65.6,255.4,65.6
			z"/>
		<path class="st3" d="M317.9,50.3v89.3h-23.2V50.3H317.9z"/>
		<path class="st3" d="M376.4,77.4h-21.6v-6.6c0-3.1-0.3-5.1-0.8-5.9c-0.6-0.8-1.5-1.3-2.8-1.3c-1.4,0-2.5,0.6-3.2,1.7
			c-0.7,1.1-1.1,2.9-1.1,5.2c0,3,0.4,5.2,1.2,6.7c0.8,1.5,3,3.3,6.6,5.5c10.3,6.1,16.9,11.2,19.5,15.1c2.7,3.9,4,10.3,4,19
			c0,6.4-0.7,11.1-2.2,14.1c-1.5,3-4.4,5.5-8.6,7.6c-4.3,2-9.2,3.1-14.9,3.1c-6.2,0-11.5-1.2-15.9-3.5c-4.4-2.4-7.3-5.4-8.6-9
			c-1.4-3.6-2-8.8-2-15.5v-5.8h21.6v10.9c0,3.3,0.3,5.5,0.9,6.5c0.6,1,1.7,1.4,3.2,1.4s2.7-0.6,3.4-1.8c0.8-1.2,1.1-3,1.1-5.4
			c0-5.3-0.7-8.7-2.2-10.3c-1.5-1.6-5.1-4.3-10.9-8.1c-5.8-3.8-9.6-6.6-11.5-8.3c-1.9-1.7-3.4-4.1-4.7-7.2c-1.2-3.1-1.8-7-1.8-11.7
			c0-6.8,0.9-11.8,2.6-15c1.7-3.2,4.6-5.6,8.5-7.4c3.9-1.8,8.6-2.7,14.1-2.7c6,0,11.2,1,15.4,2.9c4.2,2,7.1,4.4,8.4,7.4
			c1.4,3,2.1,8,2.1,15.1V77.4z"/>
		<path class="st3" d="M385.6,50.3H409c6.3,0,11.2,0.5,14.6,1.5s6,2.4,7.7,4.3c1.7,1.9,2.9,4.1,3.5,6.8c0.6,2.7,0.9,6.8,0.9,12.4
			v7.8c0,5.7-0.6,9.9-1.8,12.5c-1.2,2.6-3.3,4.6-6.5,6c-3.1,1.4-7.3,2.1-12.3,2.1h-6.2v36h-23.2V50.3z M408.9,65.6v22.7
			c0.7,0,1.2,0.1,1.7,0.1c2.1,0,3.6-0.5,4.4-1.6c0.8-1,1.2-3.2,1.2-6.5V73c0-3.1-0.5-5-1.4-6C413.9,66.1,411.9,65.6,408.9,65.6z"/>
		<path class="st3" d="M442.4,50.3h38.7v17.9h-15.5v16.9h14.5v17h-14.5v19.6h17v17.9h-40.3V50.3z"/>
		<path class="st3" d="M541.2,50.3v89.3h-20.4l-12.1-40.6v40.6h-19.4V50.3h19.4l13,40.2V50.3H541.2z"/>
		<path class="st3" d="M599.7,77.4h-21.6v-6.6c0-3.1-0.3-5.1-0.8-5.9c-0.6-0.8-1.5-1.3-2.8-1.3c-1.4,0-2.5,0.6-3.2,1.7
			c-0.7,1.1-1.1,2.9-1.1,5.2c0,3,0.4,5.2,1.2,6.7c0.8,1.5,3,3.3,6.6,5.5c10.3,6.1,16.9,11.2,19.5,15.1c2.7,3.9,4,10.3,4,19
			c0,6.4-0.7,11.1-2.2,14.1c-1.5,3-4.4,5.5-8.6,7.6c-4.3,2-9.2,3.1-14.9,3.1c-6.2,0-11.5-1.2-15.9-3.5c-4.4-2.4-7.3-5.4-8.6-9
			c-1.4-3.6-2-8.8-2-15.5v-5.8h21.6v10.9c0,3.3,0.3,5.5,0.9,6.5c0.6,1,1.7,1.4,3.2,1.4s2.7-0.6,3.4-1.8c0.8-1.2,1.1-3,1.1-5.4
			c0-5.3-0.7-8.7-2.2-10.3c-1.5-1.6-5.1-4.3-10.9-8.1c-5.8-3.8-9.6-6.6-11.5-8.3c-1.9-1.7-3.4-4.1-4.7-7.2c-1.2-3.1-1.8-7-1.8-11.7
			c0-6.8,0.9-11.8,2.6-15c1.7-3.2,4.6-5.6,8.5-7.4c3.9-1.8,8.6-2.7,14.1-2.7c6,0,11.2,1,15.4,2.9c4.2,2,7.1,4.4,8.4,7.4
			c1.4,3,2.1,8,2.1,15.1V77.4z"/>
		<path class="st3" d="M608.9,50.3h38.7v17.9h-15.5v16.9h14.5v17h-14.5v19.6h17v17.9h-40.3V50.3z"/>
	</g>
</g>
<g id="Layer_1">
</g>
</svg>
