<?xml version="1.0" encoding="UTF-8"?>
<svg id="Layer_1" data-name="Layer 1" xmlns="http://www.w3.org/2000/svg" viewBox="0 0 104.51 102.13">
  <rect x="5.35" y="3.91" width="94.1" height="94.1" rx="12.55" ry="12.55" fill="#bc63a7"/>
  <path d="m99.46,85.46v-37.45c-.05-.05-23.94-23.94-23.94-23.94-1.69-1.7-4.34-2.81-7.33-2.81-5.1,0-9.24,3.21-9.24,7.16v10.64c-.09-.08-14.9-14.9-14.99-14.99-1.69-1.71-4.34-2.81-7.33-2.81-5.1,0-9.24,3.21-9.24,7.16v45.09c0,1.75.81,3.35,2.16,4.59.05.05,19.92,19.92,19.92,19.92h37.45c6.93,0,12.55-5.62,12.55-12.55Z" fill="#864476"/>
  <g>
    <g>
      <path d="m36.62,21.26c-5.1,0-9.24,3.21-9.24,7.16v45.09c0,3.95,4.14,7.16,9.24,7.16s9.24-3.21,9.24-7.16V28.42c0-3.95-4.14-7.16-9.24-7.16Zm8.65,51.85c0,3.88-3.87,7.03-8.65,7.03s-8.65-3.15-8.65-7.03v-22.15h13.61v-19.14c0-1.04.47-1.88,1.04-1.88s1.04.84,1.04,1.88v19.14h1.61v22.15Z" fill="#fff"/>
      <path d="m40.53,76.66c-.57,0,1.05-.73,1.05-7.8v-17.9h2.08v18.45c0,5.21-2.56,7.25-3.13,7.25Z" fill="#fff"/>
    </g>
    <g>
      <path d="m77.43,73.51V28.42c0-3.95-4.14-7.16-9.24-7.16s-9.24,3.21-9.24,7.16v45.09c0,3.95,4.14,7.16,9.24,7.16s9.24-3.21,9.24-7.16Zm-.59-22.54h-1.61v19.14c0,1.04-.46,1.88-1.04,1.88s-1.04-.84-1.04-1.88v-19.14h-13.61v-22.15c0-3.88,3.87-7.03,8.65-7.03s8.65,3.15,8.65,7.03v22.15Z" fill="#fff"/>
      <path d="m72.1,25.27c-.57,0,1.05.73,1.05,7.8v17.9h2.08v-18.45c0-5.21-2.56-7.25-3.13-7.25Z" fill="#fff"/>
    </g>
  </g>
</svg>