<?xml version="1.0" encoding="UTF-8"?>
<svg id="Layer_1" data-name="Layer 1" xmlns="http://www.w3.org/2000/svg" viewBox="0 0 25 27">
  <defs>
    <style>
      .cls-1 {
        fill: #de2b38;
      }
    </style>
  </defs>
  <path class="cls-1" d="m22.5,8.04c-.06.04-2.52,1.97-2.52,1.97v10.03c0,.73-.59,1.32-1.32,1.32H5.57c-.73,0-1.32-.59-1.32-1.32V6.95c0-.73.59-1.32,1.32-1.32h11.85c1.03-.74,2.1-1.46,3.2-2.12-.57-.33-1.24-.51-1.95-.51H5.57c-2.18,0-3.95,1.77-3.95,3.95v13.09c0,2.18,1.77,3.95,3.95,3.95h13.09c2.18,0,3.95-1.77,3.95-3.95V7.95l-.12.09Z"/>
  <path class="cls-1" d="m21.38,4.28c-1.43.87-2.81,1.8-4.14,2.79-1.33,1-2.62,2.03-3.87,3.11-.35.3-.69.61-1.04.92-.11-.13-.22-.26-.32-.39l-.48-.62-.24-.31-.22-.32-.45-.64c-.08-.11-.15-.22-.22-.33-.07-.11-.15-.22-.24-.31-.09-.1-.19-.19-.31-.27-.12-.08-.25-.16-.41-.21l-.19-.06c-.13-.04-.27-.07-.42-.08-.87-.04-1.61.63-1.65,1.5-.03.7.29,1.2.63,1.68l.51.72.26.36.28.35.56.69c.15.18.31.35.46.52-.05.05-.11.1-.16.16l-.88.87c-.29.29-.59.58-.87.88-.29.29-.57.6-.82.93-.13.16-.25.34-.36.52-.06.09-.11.18-.16.27-.05.09-.1.19-.15.3-.17.37-.18.82.02,1.21.35.68,1.18.94,1.85.59l.08-.04c.09-.04.18-.1.26-.15.08-.06.17-.11.25-.17.16-.12.32-.24.47-.37.31-.26.59-.53.87-.82.28-.29.56-.57.84-.86l.85-.85c.07-.07.14-.14.21-.21.13.11.27.23.41.34.11.09.23.19.35.28l.36.27.36.26c.12.09.25.17.37.25.12.08.25.17.37.25.13.08.26.16.39.23.13.08.26.16.39.23l.4.22c.13.07.27.14.41.21.14.07.27.14.42.2.14.06.28.13.43.18.08.03.14.06.23.09l.26.09c.54.19,1.17,0,1.51-.49.41-.59.26-1.41-.34-1.81l-.22-.15h-.02s-.02-.02-.03-.03l-.07-.04s-.1-.06-.15-.09c-.1-.06-.21-.13-.31-.19-.11-.06-.21-.13-.32-.2-.11-.07-.21-.14-.31-.21l-.31-.22c-.1-.07-.21-.15-.31-.23-.1-.08-.21-.15-.31-.23-.1-.08-.2-.16-.3-.24-.1-.08-.2-.16-.3-.24l-.29-.25-.29-.25c-.09-.09-.19-.18-.28-.27-.05-.05-.11-.1-.16-.15.32-.29.63-.59.96-.88l.89-.81.9-.79c.3-.26.6-.52.91-.78l.46-.39.23-.19.23-.19.93-.75c.31-.25.63-.49.94-.73l.47-.37c.16-.12.32-.24.48-.35l.95-.71.03-.02c.54-.4.69-1.15.34-1.74-.38-.62-1.19-.82-1.81-.44Z"/>
</svg>