<?xml version="1.0" encoding="UTF-8"?>
<svg xmlns="http://www.w3.org/2000/svg" xmlns:xlink="http://www.w3.org/1999/xlink" viewBox="0 0 750 500">
  <defs>
    <style>
      .cls-1 {
        fill: #a8cded;
      }

      .cls-2, .cls-3, .cls-4, .cls-5, .cls-6, .cls-7, .cls-8, .cls-9, .cls-10 {
        mix-blend-mode: multiply;
      }

      .cls-2, .cls-11 {
        fill: #4e484a;
      }

      .cls-12, .cls-3 {
        fill: #fff;
      }

      .cls-13, .cls-4 {
        fill: #f8cbb0;
      }

      .cls-14 {
        fill: #a63850;
      }

      .cls-5, .cls-15 {
        fill: #a66733;
      }

      .cls-16 {
        isolation: isolate;
      }

      .cls-17, .cls-7 {
        fill: #eef6fd;
      }

      .cls-18 {
        font-family: Poppins-Black, Poppins;
        font-size: 42.31px;
        font-weight: 800;
        letter-spacing: .04em;
      }

      .cls-18, .cls-19, .cls-20 {
        fill: #89ddb6;
      }

      .cls-6 {
        opacity: .49;
      }

      .cls-6, .cls-21 {
        fill: #c08570;
      }

      .cls-22, .cls-10 {
        fill: #91c2ed;
      }

      .cls-19 {
        opacity: .51;
      }

      .cls-23 {
        clip-path: url(#clippath);
      }

      .cls-24, .cls-8 {
        fill: #ccf0df;
      }

      .cls-25 {
        fill: #862947;
      }

      .cls-26 {
        fill: #e1e8fd;
      }

      .cls-27 {
        fill: none;
      }

      .cls-28 {
        fill: #76b89b;
      }

      .cls-29 {
        fill: url(#New_Pattern_Swatch_2);
      }

      .cls-30 {
        fill: #f0f4ff;
      }

      .cls-31 {
        opacity: .27;
      }
    </style>
    <pattern id="New_Pattern_Swatch_2" data-name="New Pattern Swatch 2" x="0" y="0" width="7.6" height="7.6" patternTransform="translate(-517.64 -250)" patternUnits="userSpaceOnUse" viewBox="0 0 7.6 7.6">
      <g>
        <rect class="cls-27" width="7.6" height="7.6"/>
        <circle class="cls-30" cx="3.8" cy="3.8" r="1.7"/>
      </g>
    </pattern>
    <clipPath id="clippath">
      <rect class="cls-27" x="81.9" y="94.7" width="586.21" height="294.45" transform="translate(750 483.86) rotate(180)"/>
    </clipPath>
  </defs>
  <g class="cls-16">
    <g id="BACKGROUND">
      <g>
        <path class="cls-30" d="m150.02,325.38c4.64,17.69,17.53,33.93,35.3,45.55,8.79,5.75,18.81,10.4,29.61,13.53,13.75,4,28.51,5.45,43.12,5.94,15.77.53,31.59.11,47.37-.03,16.4-.15,32.8-.29,49.2-.44,32.79-.3,65.59-.59,98.38-.88,32.58-.3,65.16-.59,97.73-.88.41,0,.56-.32.45-.55-.62-1.26,28.4-24.8,32.09-28.19,11.51-10.56,22.7-21.58,28.8-34.73,7.29-15.72,5.69-35.06-9.58-46.8-21.68-16.66-59.22-16.24-55.34-46.88,2.23-17.63,17.49-31.53,24.23-48.04,17.08-41.89-5.19-91.71-60.08-108.75-23.02-7.14-49.2-7.03-72.64-.99-18.43,4.75-31.49,15.11-44.43,25.8-12.06,9.96-29.5,26.87-49.69,22.05-13.95-3.33-23.83-12.15-36.86-16.84-13.88-4.99-29.69-6.92-44.84-4.92-20.08,2.66-38.64,12.38-48.47,26.2-18.53,26.07,4.02,47.23,14.38,71.36,3.75,8.73,4.72,18.76-1.1,26.8-9.26,12.79-30.85,17.03-44.46,26.5-8.92,6.21-16.41,13.65-22.13,21.81-11.35,16.18-15.76,35.26-11.03,53.34Z"/>
        <g>
          <circle class="cls-29" cx="609.67" cy="106.65" r="62.93" transform="translate(-8.19 142.93) rotate(-13.28)"/>
          <circle class="cls-29" cx="140.33" cy="348.15" r="62.93" transform="translate(-52.95 26.37) rotate(-9.04)"/>
          <circle class="cls-29" cx="142.11" cy="145.83" r="39.18"/>
          <circle class="cls-29" cx="613.82" cy="352.66" r="39.18"/>
        </g>
        <g>
          <circle class="cls-30" cx="183.7" cy="210.69" r="11.59" transform="translate(-43.68 48.11) rotate(-13.35)"/>
          <path class="cls-30" d="m142.11,229.74c0,3.33,2.7,6.03,6.03,6.03s6.03-2.7,6.03-6.03-2.7-6.03-6.03-6.03-6.03,2.7-6.03,6.03Z"/>
        </g>
        <g>
          <circle class="cls-30" cx="345.46" cy="88.78" r="11.59" transform="translate(-11.15 81.33) rotate(-13.22)"/>
          <path class="cls-30" d="m311.9,69.14c0,3.33,2.7,6.03,6.03,6.03s6.03-2.7,6.03-6.03-2.7-6.03-6.03-6.03-6.03,2.7-6.03,6.03Z"/>
        </g>
        <path class="cls-30" d="m196.92,123.4c3.18.98,6.56-.8,7.55-3.98.98-3.18-.8-6.56-3.98-7.55-3.18-.98-6.56.8-7.55,3.98-.98,3.18.8,6.56,3.98,7.55Z"/>
        <path class="cls-30" d="m513.12,64.51c3.18.98,6.56-.8,7.55-3.98.98-3.18-.8-6.56-3.98-7.55-3.18-.98-6.56.8-7.55,3.98-.98,3.18.8,6.56,3.98,7.55Z"/>
        <g>
          <circle class="cls-30" cx="584.08" cy="223.2" r="11.59" transform="translate(154.35 677.4) rotate(-67.5)"/>
          <path class="cls-30" d="m591.66,191.61c0,3.33,2.7,6.03,6.03,6.03s6.03-2.7,6.03-6.03-2.7-6.03-6.03-6.03-6.03,2.7-6.03,6.03Z"/>
          <circle class="cls-30" cx="608.69" cy="250" r="6.03"/>
        </g>
      </g>
      <g>
        <g>
          <path class="cls-24" d="m105.39,289.24c1.22-.94,2.55-1.66,3.98-2.18.4-.15.82-.28,1.24-.41.87-.26,1.78-.43,2.7-.57.73-.1,1.47-.18,2.21-.22.42-.02.84-.04,1.28-.05,1.62-.03,3.24.06,4.85.23,2.65.26,5.29.72,7.9,1.11,5.56.82,11.2,1.26,16.66-.37.21-.07.4-.18.56-.32,2.59,4.04,4.88,8.3,7.05,12.57,3.06,6.06,5.93,12.22,9.12,18.21,3.14,5.89,6.67,11.54,10.61,16.93,4.04,5.5,22.45,27.15,25.19,30.52,2.23,2.74,4.41,5.54,6.5,8.4-.22-.17-.43-.33-.64-.51-9.19-7.51-17.87-15.61-26-24.25-2.42-2.56-4.78-5.17-7.09-7.83-.69-.79-1.84-1-2.7-.33-.18.14-.33.33-.45.53-.4.65-.4,1.57.12,2.17.78.89,1.56,1.79,2.35,2.66,2.15,2.41,4.36,4.8,6.61,7.14.24.25.49.51.74.76,10.4,10.78,21.66,20.71,33.66,29.67.83,1.41,1.63,2.84,2.38,4.3.93,1.75,1.78,3.54,2.57,5.35l1.27-1c.62-.49,1.25-.98,1.86-1.47-.8-1.8-1.66-3.57-2.59-5.29-.55-1.05-1.13-2.08-1.72-3.1-.03-.48-.26-.95-.76-1.32l-.02-.03c-4.66-7.79-10.32-14.99-16.12-21.93-2.96-3.52-5.97-7.01-8.96-10.5-2.16-5.78-3.95-11.69-5.31-17.7-1.91-8.37-3.08-16.91-3.5-25.5.64-.52-.17-11.5.03-14.97.21-3.91.57-7.81,1.09-11.68.31-2.36.69-4.71,1.12-7.06.05-.3.11-.63.18-.94.32-1.69.68-3.37,1.06-5.05.19-.82.39-1.62.59-2.44,1.07-4.36,2.36-8.68,3.86-12.93.35-.99-.08-2.1-1.09-2.5-.07-.03-.16-.06-.22-.07-.9-.22-1.96.25-2.27,1.15-.07.2-.15.41-.21.62-1.97,5.68-3.59,11.48-4.83,17.37-.14.57-.26,1.15-.37,1.73-.22,1.07-.42,2.14-.62,3.22-.23,1.27-.44,2.55-.63,3.83-.68,4.47-1.15,8.98-1.41,13.5-1.48-5.06-2.89-10.14-4.22-15.23-.35-1.34-.7-2.69-1.05-4.03-.09-.39-.19-.78-.28-1.16-.32-1.28-.64-2.56-.95-3.85-.1-.4-.19-.78-.28-1.18-.46-1.89-.91-3.77-1.33-5.66-.07-.34-.16-.68-.22-1.01-.46-2.03-.91-4.07-1.34-6.11-.03-.14-.06-.26-.09-.4-.04-.18-.1-.36-.18-.52-.36-.75-1.1-1.24-1.98-1.11-.96.13-1.83,1.11-1.64,2.12,0,.02,0,.03,0,.05.07.29.12.59.19.88.51,2.37,1.03,4.76,1.59,7.13.06.33.13.65.22.97.22,1.01.46,2.02.69,3.02.27,1.11.53,2.23.8,3.33.08.33.16.66.24.99.34,1.41.7,2.82,1.06,4.22.19.81.4,1.61.61,2.4.07.27.14.56.22.82,2.34,8.98,4.92,17.88,7.72,26.72.08,4.07.32,8.12.73,12.16.95,9.11,2.73,18.13,5.33,26.92-3.37-4.13-6.62-8.35-9.61-12.76-7.71-11.36-12.79-24.14-19.4-36.12-5.12-9.26-11.25-17.92-19.62-24.4,2.22-4.66,2.75-10.02,1.73-15.07-.27-1.38-.66-2.73-1.16-4.04-.12-.33-.25-.65-.4-.96-.44-1.06-.98-2.08-1.58-3.06-.17-.28-.35-.55-.53-.82-.53-.78-1.1-1.5-1.71-2.2-.69-.79-1.83-1.01-2.7-.33-.78.61-1.01,1.91-.33,2.7.34.39.66.77.96,1.18.22.28.44.58.63.89.81,1.19,1.46,2.47,1.99,3.8.13.31.24.62.35.93.2.61.37,1.2.52,1.82.12.49.23.98.3,1.48.02.05.03.09.02.15.63,3.74.21,7.65-1.27,11.24-3.65-2.41-7.64-4.38-11.81-5.65-.16-.06-.31-.1-.48-.13-.57-.19-1.15-.34-1.73-.48-.27-.07-.52-.13-.79-.18-.4-.09-.79-.18-1.2-.25-1.72-.33-3.48-.53-5.22-.57-.49-.02-.97-.04-1.46-.01-1.95,0-3.91.2-5.87.6-1.01.21-1.78,1.09-1.64,2.17.14.98,1.15,1.85,2.17,1.64,1.22-.24,2.47-.42,3.71-.52,1.51-.11,3.01-.11,4.51.02.54.03,1.11.09,1.66.18,1.69.22,3.34.59,4.95,1.08,5.61,1.67,10.85,4.77,15.35,8.46,4.38,3.59,8.04,7.82,11.24,12.39-2.79.82-5.78.94-8.68.75-4.9-.31-9.69-1.41-14.57-1.86-.11-.01-.21-.02-.31-.02-.56-.05-1.12-.1-1.67-.12-1.23-.06-2.48-.05-3.72,0-1.9.09-3.8.34-5.62.83-.41.1-.81.21-1.2.34-2.09.66-4.05,1.63-5.84,3.02-1.94,1.53.43,4.55,2.37,3.02Z"/>
          <g>
            <path class="cls-24" d="m104.61,350.12c9.39,4.41,12.98,15.02,18.54,22.98,4.27,6.13,10.78,11.75,18.76,10.86,3.51-.4,6.85-2.12,8.83-5.12,2.17-3.31,2.55-7.31,3.68-11.02,1.08-3.6,3.16-7.49,7.22-8.14,2.99-.47,5.99.46,8.99.42,3.28-.07,6.08-1.73,7.16-4.95.19-.57.31-1.14.39-1.7.16-1.15.09-2.29-.11-3.42-.05-.31-.1-.61-.17-.9.24.02.51-.12.63-.34.09-.12.11-.27.06-.44,0-.04-.01-.06-.02-.08-2-5.45-5.79-10.16-10.61-13.4-4.33-2.92-9.39-4.58-14.62-4.71-5.42-.12-10.76,1.21-15.77,3.19-11.34,4.47-21.13,12.33-32.97,15.59-.59.17-.44.98,0,1.19Z"/>
            <path class="cls-8" d="m142.09,355.63c-.83,1.18-1.76,2.36-2.87,3.28.18.16.28.4.2.68-1.8,6.41-8.23,10.47-14.78,9.39-.81-.13-.66-1.41.15-1.27,5.82.95,11.36-2.46,13.23-7.97-.4.23-.81.43-1.26.58-1.84.6-3.79.35-5.57-.35-1.5-.59-2.84-1.51-4.13-2.51-3.39,1.63-7.46,1.69-10.9.17-.75-.33-.28-1.53.47-1.19,2.94,1.31,6.32,1.33,9.28.12-2.28-1.83-4.53-3.7-7.45-4.23-.81-.15-.66-1.42.15-1.27,3.19.58,5.56,2.62,8,4.55.04-2.61-1.02-5.15-2.89-6.99-.25-.24-.14-.71.11-.9.3-.24.65-.13.9.11,2.3,2.25,3.44,5.54,3.12,8.73.64.48,1.3.93,1.99,1.34,1.79,1.05,3.95,1.83,6.04,1.35.69-.16,1.31-.45,1.88-.82,0-5.76-2.93-11.33-7.68-14.6-.68-.47.08-1.5.76-1.03,4.82,3.31,7.82,8.8,8.17,14.6.98-.97,1.79-2.15,2.54-3.24,1.37-2,2.83-3.87,4.65-5.48.91-.8,1.88-1.53,2.89-2.19-1.02-3.37-3.32-6.3-6.44-7.97-.72-.39-.25-1.58.47-1.19,3.36,1.8,5.94,4.84,7.09,8.48.6-.35,1.22-.68,1.85-.97,2.41-1.13,4.99-1.84,7.63-2.13-1.88-2.65-4.42-4.77-7.41-6.09-.75-.33-.28-1.53.47-1.19,3.34,1.48,6.22,3.87,8.24,6.91.06.09.09.17.11.26,1.45-.07,2.9-.03,4.35.17.97.13,1.92.34,2.86.58-1.11-2.35-2.72-4.42-4.77-6.03-.65-.51.11-1.54.76-1.03,2.47,1.94,4.4,4.49,5.6,7.39.02.05.02.1.03.14,3.2,1.07,6.19,2.77,8.7,5.04.61.55-.15,1.58-.76,1.03-2.3-2.08-4.96-3.63-7.8-4.64-.41,3.37-1.77,6.59-3.91,9.22-.52.64-1.55-.12-1.03-.76,2.06-2.54,3.34-5.61,3.7-8.86-2.24-.66-4.56-1-6.9-.97,0,.02.01.04,0,.06-.28,4.4-2.26,8.55-5.45,11.57-.6.57-1.38-.44-.79-1.01,2.91-2.76,4.67-6.59,4.96-10.58-2.72.18-5.42.85-7.96,2.03-1.33.62-2.6,1.38-3.79,2.23.06.06.11.14.15.24,1.74,4.9,1.86,10.3.26,15.25-1.73,5.37-5.48,10.02-10.31,12.91-.7.42-1.5-.58-.79-1.01,4.59-2.75,8.14-7.05,9.83-12.14,1.56-4.68,1.48-9.85-.16-14.49-.36.29-.72.58-1.07.9-1.88,1.7-3.27,3.72-4.71,5.77Z"/>
          </g>
          <g>
            <path class="cls-24" d="m179.39,276.53c.09.14.2.2.33.21.18.02.36-.07.47-.23.13.17.27.32.43.48.44.47.9.89,1.42,1.25.5.35,1.05.64,1.66.85,2.31.79,4.49-.09,5.96-1.95,1.34-1.7,2.12-3.83,3.69-5.34,2.16-2.06,5.29-1.53,7.84-.59,2.61.98,5.07,2.5,7.92,2.71,2.59.18,5.04-.98,6.8-2.83,4-4.18,3.62-10.38,1.98-15.51-2.13-6.68-6.65-13.39-5.07-20.69.07-.35-.33-.8-.69-.52-7.05,5.37-15.85,7.55-23.36,12.1-.41.26-.83.52-1.24.78-.85.55-1.68,1.14-2.49,1.77-1.87,1.47-3.59,3.14-5,5.1-.49.68-.94,1.39-1.33,2.14-1.38,2.55-2.19,5.4-2.36,8.32-.12,1.9.05,3.82.47,5.69.36,1.7.97,3.36,1.78,4.9.25.46.5.91.79,1.35Z"/>
            <path class="cls-8" d="m199.59,258.81c1.04.04,2.12.02,3.14-.21.01.17.11.34.3.41,4.46,1.77,9.61-.14,11.86-4.38.28-.52-.52-.99-.8-.47-2,3.76-6.38,5.45-10.36,4.11.3-.13.6-.27.88-.47,1.15-.79,1.86-2.02,2.23-3.35.32-1.12.38-2.29.37-3.47,2.42-1.23,4.23-3.54,4.86-6.18.14-.58-.75-.83-.89-.25-.54,2.26-2,4.21-3.99,5.38-.05-2.11-.14-4.22.83-6.13.27-.53-.53-1-.8-.47-1.06,2.09-.93,4.33-.89,6.58-1.51-1.12-2.51-2.84-2.75-4.72-.03-.25-.34-.39-.56-.33-.27.07-.36.31-.33.56.29,2.3,1.68,4.4,3.65,5.61,0,.58-.03,1.15-.1,1.73-.18,1.49-.67,3.07-1.87,4.06-.39.33-.83.55-1.29.72-3.31-2.52-5.22-6.64-5.02-10.79.03-.6-.9-.61-.92-.01-.2,4.21,1.63,8.34,4.8,11.07-.98.14-2.01.09-2.97.04-1.75-.09-3.46-.07-5.18.27-.86.17-1.7.41-2.52.7-1.49-2.06-2.16-4.66-1.75-7.18.09-.58-.8-.84-.89-.25-.44,2.72.18,5.53,1.77,7.78-.46.19-.92.4-1.37.63-1.7.89-3.24,2.06-4.56,3.44-.7-2.24-.8-4.62-.25-6.91.14-.58-.75-.83-.89-.25-.61,2.56-.5,5.26.36,7.75.02.07.06.13.1.18-.67.8-1.29,1.66-1.8,2.57-.35.61-.65,1.25-.92,1.89-.86-1.67-1.35-3.5-1.37-5.38,0-.59-.93-.61-.92-.01.03,2.27.65,4.49,1.8,6.45.02.03.05.05.07.08-.79,2.3-1.12,4.76-.91,7.2.05.59.98.61.92.01-.19-2.23.09-4.44.75-6.51,2.11,1.23,4.55,1.87,7,1.79.59-.02.61-.94.01-.92-2.36.07-4.68-.54-6.7-1.75.6-1.57,1.42-3.06,2.46-4.38.01.01.02.02.03.03,2.64,1.76,5.9,2.44,9.03,1.93.59-.09.35-.99-.23-.89-2.86.46-5.82-.2-8.24-1.79,1.29-1.48,2.86-2.74,4.65-3.68.94-.49,1.93-.89,2.94-1.2,0,.06.03.13.07.19,2.05,3.14,5.1,5.57,8.64,6.82,3.84,1.36,8.15,1.23,11.92-.27.55-.22.32-1.11-.23-.89-3.58,1.43-7.61,1.58-11.27.34-3.37-1.15-6.3-3.46-8.25-6.43.33-.08.65-.16.98-.22,1.8-.34,3.56-.25,5.38-.18Z"/>
          </g>
          <g>
            <path class="cls-24" d="m52.43,323.24c6.73-3.29,14.35-1.15,21.29.23,6.22,1.22,13.18,1.85,18.75-1.82,2.6-1.71,4.19-4.27,5.52-7.01,1.33-2.72,2.51-5.72,4.91-7.71,2.66-2.19,6.2-2.83,9.27-4.23,2.49-1.14,4.64-2.88,6.26-5.09,2.43-3.32,3.59-7.5,3.23-11.55-.09-.91-.26-1.82-.5-2.72.12-.1.21-.23.26-.38.06-.23.03-.5-.18-.69-.05-.04-.1-.09-.15-.13-.07-.07-.15-.16-.24-.22-5.37-4.94-12.11-8.33-19.27-9.72-3.2-.61-6.55-.87-9.78-.35-3.32.54-6.26,1.95-8.68,4.29-1.34,1.32-2.6,2.77-4.17,3.84-1.49,1.02-3.26,1.61-4.99,2.15-3.22,1.02-6.26,2.11-8.98,4.18-2.52,1.91-4.64,4.36-6.16,7.13-1.61,2.93-2.42,6.11-2.75,9.42-.68,6.52.12,14.01-4.39,19.39-.4.49.2,1.26.77.98Z"/>
            <path class="cls-8" d="m59.03,315.9c1.06-4.9,4.99-8.27,9.06-10.79.52-.32,1.04-.63,1.57-.94-2.5-.57-5.1-.55-7.59.08-.34.09-.68-.23-.72-.55-.05-.37.21-.64.55-.72,2.99-.76,6.13-.67,9.08.18.08.02.14.07.2.12,1.43-.84,2.86-1.69,4.21-2.65,1.5-1.07,2.88-2.3,4.21-3.58-4.36-3.25-9.99-4.54-15.34-3.47-.81.16-.98-1.11-.17-1.27,5.72-1.14,11.82.29,16.45,3.83.41-.42.83-.84,1.24-1.26,2.01-2.1,4-4.19,6.15-6.09-3.17-3.47-8-5.23-12.67-4.56-.82.12-.99-1.15-.17-1.27,5.09-.73,10.35,1.21,13.81,5,1.41-1.18,2.9-2.26,4.52-3.19,1.49-.86,3.05-1.59,4.66-2.21-3.45-2.37-7.35-4.07-11.45-4.93-.8-.17-.65-1.44.15-1.27,4.53.95,8.82,2.82,12.58,5.52.07.05.11.11.15.16,2.15-.72,4.38-1.22,6.62-1.5.62-.08,1.23-.14,1.85-.18-1.86-2.79-5.02-4.62-8.38-4.84-.82-.05-.67-1.32.15-1.27,4.01.26,7.66,2.6,9.68,6.04,3.97-.11,7.95.46,11.73,1.74.78.27.31,1.46-.47,1.19-1.22-.41-2.46-.72-3.72-.97.1,2.68-.26,5.35-1.13,7.88-.27.78-1.46.31-1.19-.47.84-2.46,1.19-5.07,1.04-7.66-1.99-.32-4.02-.47-6.03-.42,1.81,4.62,1.12,10.07-1.84,14.06-.49.66-1.52-.1-1.03-.76,2.78-3.75,3.38-8.89,1.56-13.19,0-.02,0-.04-.01-.06-2.73.18-5.43.67-8.04,1.5.01.03.03.05.04.08,2.09,7.24,2.19,14.9.28,22.19-.21.8-1.4.32-1.19-.47,1.81-6.94,1.71-14.34-.28-21.23-.02-.07-.02-.13-.02-.19-1.31.47-2.59,1.02-3.83,1.65-2.22,1.14-4.2,2.55-6.06,4.13,2.94,2.82,4.3,6.84,4.37,10.87.08,4.32-1.13,8.5-2.38,12.6-.24.79-1.43.31-1.19-.47,2.14-7.01,4.49-16.37-1.71-22.12-.01-.01-.02-.03-.03-.04-1.5,1.35-2.93,2.8-4.34,4.29-.82.87-1.65,1.73-2.49,2.58,2.63,6.95,1.74,14.96-2.32,21.18-.45.69-1.48-.07-1.03-.76,3.72-5.69,4.58-13.02,2.34-19.42-.69.67-1.39,1.32-2.12,1.94-2.01,1.71-4.23,3.09-6.5,4.41.03.08.05.17.05.27-.02,4.54-2.26,8.94-5.87,11.67-.66.5-1.45-.51-.79-1.01,3.21-2.42,5.15-6.2,5.35-10.19-4.37,2.58-9.14,5.69-10.27,10.94-.17.8-1.45.65-1.27-.15Z"/>
          </g>
          <g>
            <path class="cls-24" d="m50.96,249.54c6.32,1.5,10.23,7.15,14.12,11.89,3.48,4.25,7.8,8.5,13.54,9.12,2.68.29,5.16-.55,7.57-1.64,2.38-1.09,4.84-2.45,7.54-2.45,2.98,0,5.7,1.52,8.53,2.28,2.3.61,4.7.63,7,.04,3.61-.93,6.8-3.22,8.77-6.36.35-.53.66-1.11.92-1.69.11,0,.22-.03.3-.09h.02c.21-.11.36-.31.32-.59-.02-.15-.04-.28-.06-.43-.03-.25-.07-.5-.12-.75-.96-6-3.56-11.7-7.43-16.4-1.8-2.19-3.89-4.19-6.36-5.63-2.51-1.48-5.26-2.16-8.18-1.92-1.62.13-3.26.43-4.9.28-1.58-.14-3.08-.73-4.53-1.31-2.72-1.1-5.36-2.03-8.32-2.16-2.73-.1-5.5.38-8.05,1.38-2.69,1.07-4.99,2.76-7.04,4.78-4.04,4-7.63,9.44-13.63,10.57-.52.1-.54.95-.02,1.07Z"/>
            <path class="cls-8" d="m59.42,248.26c3.41-2.7,7.9-2.78,12.02-2.22.52.07,1.05.15,1.57.24-1.36-1.76-3.11-3.18-5.12-4.13-.27-.13-.33-.53-.18-.76.17-.28.49-.31.76-.18,2.42,1.14,4.47,2.93,5.98,5.13.04.06.06.12.07.19,1.42.23,2.84.45,4.28.55,1.6.11,3.19.05,4.79-.07-1.13-4.58-4.19-8.55-8.35-10.78-.63-.34-.05-1.28.58-.95,4.46,2.39,7.75,6.71,8.9,11.63.51-.05,1.02-.1,1.52-.16,2.5-.29,4.99-.6,7.47-.69-.21-4.07-2.47-7.92-5.96-10.04-.61-.37-.03-1.32.58-.95,3.82,2.32,6.26,6.52,6.49,10.96,1.59,0,3.19.08,4.79.36,1.47.25,2.92.62,4.34,1.09-1-3.49-2.67-6.77-4.95-9.61-.44-.55.36-1.33.8-.77,2.51,3.14,4.34,6.75,5.37,10.63.02.07.02.13.01.19,1.83.71,3.6,1.6,5.26,2.65.45.29.9.59,1.34.9.29-2.9-.81-5.86-2.94-7.86-.52-.49.28-1.25.8-.77,2.54,2.38,3.69,5.97,3.15,9.38,2.72,2.11,5.07,4.69,6.89,7.63.38.61-.6,1.14-.97.54-.59-.95-1.25-1.84-1.95-2.7-1.41,1.85-3.13,3.43-5.11,4.65-.61.38-1.14-.6-.54-.97,1.92-1.18,3.59-2.74,4.92-4.55-1.16-1.31-2.43-2.53-3.81-3.61-1.34,4.09-4.8,7.36-8.99,8.4-.69.17-.96-.91-.27-1.08,3.93-.98,7.17-4.09,8.32-7.97,0-.02.02-.03.03-.05-1.92-1.39-4.01-2.54-6.21-3.43,0,.03,0,.05-.02.08-2.59,6-6.75,11.18-12.05,15.01-.58.42-1.11-.56-.54-.97,5.04-3.64,9.05-8.65,11.52-14.36.02-.05.06-.09.09-.13-1.14-.41-2.3-.75-3.48-1.01-2.11-.46-4.22-.61-6.33-.57.41,3.51-.9,6.95-3.07,9.69-2.33,2.94-5.45,5.07-8.54,7.12-.6.4-1.13-.58-.54-.97,5.3-3.52,12.04-8.48,11.05-15.75,0-.02,0-.03,0-.04-1.75.08-3.51.26-5.27.47-1.03.13-2.06.25-3.09.36-2.08,6.1-7.08,10.98-13.23,12.89-.68.21-.95-.87-.27-1.08,5.63-1.75,10.25-6.19,12.28-11.71-.83.07-1.66.12-2.49.14-2.29.04-4.53-.27-6.78-.63-.02.07-.06.14-.11.21-2.52,3.03-6.44,4.74-10.37,4.57-.71-.03-.69-1.14.03-1.11,3.48.15,6.87-1.31,9.2-3.87-4.34-.69-9.26-1.23-12.91,1.66-.56.44-1.33-.36-.77-.8Z"/>
          </g>
          <g>
            <path class="cls-24" d="m118.8,242.8c3.38,4.53,8,8.08,13.24,10.17.12.05.25.09.37.15.03.01.04.01.06.02.19.06.37-.01.48-.13.09-.07.15-.18.18-.29,1.05-.19,2.05-.52,3-.97,2.55-1.19,4.7-3.22,6.03-5.72,1-1.88,1.49-3.95,1.44-6.08-.06-2.61-.8-5.29-.15-7.87.57-2.34,2.27-4.18,3.73-6.02,1.45-1.84,2.7-3.82,3.03-6.2.67-5.12-2.09-9.76-5.04-13.68-3.3-4.37-7.36-8.96-7.32-14.76,0-.49-.74-.66-.93-.21-2.25,4.96-7.73,6.91-12.05,9.57-2.2,1.35-4.15,2.99-5.64,5.1-1.43,2-2.41,4.29-2.91,6.69-.52,2.59-.28,5.08.11,7.67.21,1.38.38,2.81.17,4.2-.21,1.45-.81,2.8-1.27,4.19-.82,2.48-.82,5.01-.07,7.5.72,2.43,2.03,4.68,3.53,6.7Z"/>
            <path class="cls-8" d="m134.96,198.46c-3.06,2.38-4.09,6.26-4.48,9.95-.05.47-.09.94-.13,1.41-1.24-1.55-2.1-3.37-2.49-5.32-.05-.26-.39-.4-.62-.32-.28.09-.37.36-.32.62.48,2.34,1.59,4.5,3.18,6.27.04.05.09.08.15.1-.1,1.28-.21,2.56-.43,3.83-.24,1.41-.63,2.78-1.08,4.13-3.73-1.95-6.52-5.44-7.58-9.53-.16-.62-1.1-.31-.94.31,1.12,4.37,4.18,8.14,8.2,10.18-.15.43-.31.86-.46,1.29-.79,2.11-1.58,4.2-2.18,6.33-3.49-1.04-6.34-3.82-7.44-7.3-.19-.61-1.14-.31-.94.3,1.2,3.8,4.32,6.81,8.12,7.95-.35,1.38-.6,2.78-.71,4.23-.1,1.33-.08,2.66.03,3.99-2.82-1.61-5.3-3.75-7.28-6.33-.39-.5-1.23.03-.84.53,2.19,2.84,4.93,5.2,8.08,6.91.06.03.11.04.16.05.22,1.74.62,3.46,1.18,5.12.15.46.32.91.5,1.35-2.57-.36-4.91-1.95-6.19-4.22-.31-.56-1.15-.02-.84.53,1.53,2.71,4.39,4.47,7.47,4.72,1.26,2.81,2.99,5.39,5.15,7.59.45.46,1.12-.28.67-.73-.7-.71-1.33-1.48-1.93-2.27,1.9-.83,3.64-1.98,5.12-3.44.46-.45-.28-1.12-.73-.67-1.43,1.41-3.13,2.53-4.99,3.3-.89-1.28-1.67-2.64-2.32-4.07,3.83-.29,7.39-2.6,9.19-6.01.3-.57-.58-1.03-.88-.46-1.68,3.2-5.06,5.35-8.67,5.52-.02,0-.03,0-.05.01-.79-1.96-1.36-4.01-1.65-6.11.03,0,.05,0,.07,0,5.75-.98,11.12-3.48,15.57-7.26.49-.41-.25-1.08-.73-.67-4.23,3.59-9.42,6.01-14.89,6.94-.05,0-.09.03-.14.05-.11-1.07-.16-2.15-.14-3.23.04-1.93.37-3.79.84-5.61,2.96,1.1,6.22.69,9.05-.61,3.04-1.39,5.55-3.65,7.98-5.89.47-.43-.26-1.1-.73-.67-4.17,3.85-9.9,8.64-16,6.24-.01,0-.02,0-.04,0,.44-1.5.97-2.99,1.53-4.47.33-.87.65-1.73.96-2.6,5.73-.51,11.02-3.81,13.98-8.74.33-.55-.55-1.01-.88-.46-2.71,4.5-7.54,7.57-12.75,8.16.23-.7.46-1.41.64-2.13.52-1.97.73-3.99.89-6.01.07,0,.13-.02.2-.05,3.16-1.54,5.48-4.58,6.16-8.02.12-.62-.84-.84-.97-.21-.61,3.05-2.59,5.67-5.31,7.16.33-3.91.9-8.28,4.18-10.84.5-.39-.03-1.23-.53-.84Z"/>
          </g>
          <g>
            <path class="cls-24" d="m155.64,266.74c3.8,3.63,8.52,6.25,13.61,7.55.37.1.75.19,1.14.27.13.03.26.06.39.08.21.04.4-.05.52-.19.07-.09.13-.21.13-.33.53-.19,1.05-.43,1.54-.69,1.48-.79,2.79-1.86,3.85-3.17,1.03-1.22,1.83-2.63,2.35-4.14.01-.04.03-.07.04-.11.24-.71.4-1.44.5-2.18,0,0,.02,0,0-.02.2-1.33.16-2.68-.1-4.03-.22-1.18-.58-2.34-.91-3.52-.36-1.39-.66-2.79-.55-4.23.17-2.4,1.54-4.48,2.66-6.55,1.13-2.06,2.03-4.22,1.96-6.62-.18-5.17-3.68-9.28-7.25-12.66-3.96-3.76-8.73-7.61-9.67-13.34-.07-.48-.82-.51-.95-.05-1.37,5.26-6.46,8.1-10.28,11.44-1.94,1.7-3.59,3.64-4.71,5.96-1.07,2.21-1.67,4.63-1.76,7.08-.07,2.65.59,5.06,1.4,7.55.42,1.33.83,2.7.86,4.11.03,1.47-.34,2.91-.56,4.35-.4,2.58.02,5.07,1.17,7.4,1.12,2.28,2.78,4.27,4.61,6.02Z"/>
            <path class="cls-8" d="m164.18,220.33c-2.62,2.86-2.99,6.85-2.76,10.55.03.47.07.94.11,1.41-1.48-1.32-2.63-2.98-3.34-4.83-.1-.25-.45-.32-.67-.21-.26.14-.31.42-.21.67.86,2.22,2.32,4.17,4.18,5.66.05.04.1.06.16.07.11,1.28.21,2.56.21,3.84,0,1.43-.16,2.85-.38,4.26-4.01-1.3-7.34-4.28-9.06-8.13-.26-.58-1.14-.12-.88.46,1.84,4.12,5.47,7.33,9.78,8.67-.08.45-.16.9-.24,1.35-.42,2.21-.86,4.4-1.1,6.61-3.61-.45-6.89-2.71-8.55-5.96-.29-.57-1.17-.11-.88.46,1.82,3.55,5.39,5.99,9.33,6.48-.11,1.42-.13,2.84,0,4.28.13,1.33.36,2.64.69,3.93-3.04-1.12-5.86-2.82-8.24-5.03-.47-.43-1.2.23-.73.67,2.63,2.44,5.73,4.3,9.12,5.47.06.02.12.02.17.02.51,1.68,1.19,3.31,2.02,4.85.23.42.46.84.71,1.25-2.6.07-5.17-1.1-6.8-3.13-.4-.5-1.13.17-.73.67,1.96,2.42,5.07,3.67,8.15,3.41,1.71,2.56,3.85,4.82,6.34,6.63.52.38,1.06-.46.54-.83-.81-.58-1.56-1.24-2.28-1.91,1.73-1.13,3.26-2.56,4.47-4.24.37-.52-.46-1.06-.83-.54-1.18,1.63-2.67,3.02-4.37,4.09-1.09-1.12-2.09-2.33-2.96-3.62,3.73-.93,6.86-3.8,8.06-7.46.2-.61-.74-.92-.94-.31-1.13,3.43-4.1,6.12-7.63,6.89-.02,0-.03.01-.04.02-1.11-1.8-2.01-3.73-2.65-5.75.03,0,.05,0,.07,0,5.51-1.92,10.39-5.29,14.14-9.75.41-.49-.42-1.02-.83-.54-3.57,4.25-8.29,7.5-13.53,9.33-.05.02-.09.05-.12.07-.29-1.04-.52-2.09-.67-3.16-.28-1.91-.27-3.8-.1-5.68,3.1.59,6.24-.35,8.82-2.1,2.76-1.88,4.86-4.52,6.89-7.14.39-.51-.44-1.04-.83-.54-3.47,4.49-8.33,10.16-14.73,8.82-.01,0-.02,0-.04,0,.18-1.56.46-3.11.76-4.66.18-.91.36-1.82.52-2.73,5.56-1.45,10.23-5.59,12.33-10.94.23-.59-.71-.9-.94-.31-1.93,4.89-6.17,8.72-11.22,10.17.11-.73.21-1.47.28-2.21.18-2.03.06-4.05-.12-6.08.06-.02.13-.04.19-.09,2.86-2.04,4.64-5.43,4.74-8.93.02-.64-.97-.69-.99-.05-.09,3.11-1.61,6.03-4.04,7.94-.33-3.91-.49-8.32,2.31-11.38.43-.47-.23-1.21-.67-.73Z"/>
          </g>
        </g>
        <g>
          <path class="cls-24" d="m644.61,289.24c-1.22-.94-2.55-1.66-3.98-2.18-.4-.15-.82-.28-1.24-.41-.87-.26-1.78-.43-2.7-.57-.73-.1-1.47-.18-2.21-.22-.42-.02-.84-.04-1.28-.05-1.62-.03-3.24.06-4.85.23-2.65.26-5.29.72-7.9,1.11-5.56.82-11.2,1.26-16.66-.37-.21-.07-.4-.18-.56-.32-2.59,4.04-4.88,8.3-7.05,12.57-3.06,6.06-5.93,12.22-9.12,18.21-3.14,5.89-6.67,11.54-10.61,16.93-4.04,5.5-22.45,27.15-25.19,30.52-2.23,2.74-4.41,5.54-6.5,8.4.22-.17.43-.33.64-.51,9.19-7.51,17.87-15.61,26-24.25,2.42-2.56,4.78-5.17,7.09-7.83.69-.79,1.84-1,2.7-.33.18.14.33.33.45.53.4.65.4,1.57-.12,2.17-.78.89-1.56,1.79-2.35,2.66-2.15,2.41-4.36,4.8-6.61,7.14-.24.25-.49.51-.74.76-10.4,10.78-21.66,20.71-33.66,29.67-.83,1.41-1.63,2.84-2.38,4.3-.93,1.75-1.78,3.54-2.57,5.35l-1.27-1c-.62-.49-1.25-.98-1.86-1.47.8-1.8,1.66-3.57,2.59-5.29.55-1.05,1.13-2.08,1.72-3.1.03-.48.26-.95.76-1.32l.02-.03c4.66-7.79,10.32-14.99,16.12-21.93,2.96-3.52,5.97-7.01,8.96-10.5,2.16-5.78,3.95-11.69,5.31-17.7,1.91-8.37,3.08-16.91,3.5-25.5-.64-.52.17-11.5-.02-14.97-.21-3.91-.57-7.81-1.09-11.68-.31-2.36-.69-4.71-1.12-7.06-.05-.3-.11-.63-.18-.94-.32-1.69-.68-3.37-1.06-5.05-.19-.82-.39-1.62-.59-2.44-1.07-4.36-2.36-8.68-3.86-12.93-.35-.99.08-2.1,1.09-2.5.07-.03.16-.06.22-.07.9-.22,1.96.25,2.27,1.15.07.2.15.41.21.62,1.97,5.68,3.59,11.48,4.83,17.37.14.57.26,1.15.37,1.73.22,1.07.42,2.14.62,3.22.23,1.27.44,2.55.63,3.83.68,4.47,1.15,8.98,1.41,13.5,1.48-5.06,2.89-10.14,4.22-15.23.35-1.34.7-2.69,1.05-4.03.09-.39.19-.78.28-1.16.32-1.28.64-2.56.95-3.85.1-.4.19-.78.28-1.18.46-1.89.91-3.77,1.33-5.66.07-.34.16-.68.22-1.01.46-2.03.91-4.07,1.34-6.11.03-.14.06-.26.09-.4.04-.18.1-.36.18-.52.36-.75,1.1-1.24,1.98-1.11.96.13,1.83,1.11,1.64,2.12,0,.02,0,.03,0,.05-.07.29-.12.59-.19.88-.51,2.37-1.03,4.76-1.59,7.13-.06.33-.13.65-.22.97-.22,1.01-.46,2.02-.69,3.02-.27,1.11-.53,2.23-.8,3.33-.08.33-.16.66-.24.99-.34,1.41-.7,2.82-1.06,4.22-.19.81-.4,1.61-.61,2.4-.07.27-.14.56-.22.82-2.34,8.98-4.92,17.88-7.72,26.72-.08,4.07-.32,8.12-.73,12.16-.95,9.11-2.73,18.13-5.33,26.92,3.37-4.13,6.62-8.35,9.61-12.76,7.71-11.36,12.79-24.14,19.4-36.12,5.12-9.26,11.25-17.92,19.62-24.4-2.22-4.66-2.75-10.02-1.73-15.07.27-1.38.66-2.73,1.16-4.04.11-.33.25-.65.4-.96.44-1.06.98-2.08,1.58-3.06.17-.28.35-.55.53-.82.53-.78,1.1-1.5,1.71-2.2.69-.79,1.83-1.01,2.7-.33.78.61,1.01,1.91.33,2.7-.34.39-.66.77-.96,1.18-.22.28-.44.58-.63.89-.81,1.19-1.46,2.47-1.99,3.8-.13.31-.24.62-.35.93-.2.61-.37,1.2-.52,1.82-.12.49-.23.98-.3,1.48-.02.05-.03.09-.02.15-.63,3.74-.21,7.65,1.27,11.24,3.65-2.41,7.64-4.38,11.81-5.65.16-.06.31-.1.48-.13.57-.19,1.15-.34,1.73-.48.27-.07.52-.13.79-.18.4-.09.79-.18,1.2-.25,1.72-.33,3.48-.53,5.22-.57.49-.02.97-.04,1.46-.01,1.95,0,3.91.2,5.87.6,1.01.21,1.78,1.09,1.64,2.17-.14.98-1.15,1.85-2.17,1.64-1.22-.24-2.47-.42-3.71-.52-1.51-.11-3.01-.11-4.51.02-.54.03-1.11.09-1.66.18-1.69.22-3.34.59-4.95,1.08-5.61,1.67-10.85,4.77-15.35,8.46-4.38,3.59-8.04,7.82-11.24,12.39,2.79.82,5.78.94,8.68.75,4.9-.31,9.69-1.41,14.57-1.86.11-.01.21-.02.31-.02.56-.05,1.12-.1,1.67-.12,1.23-.06,2.48-.05,3.72,0,1.9.09,3.8.34,5.62.83.41.1.81.21,1.2.34,2.09.66,4.05,1.63,5.84,3.02,1.94,1.53-.43,4.55-2.37,3.02Z"/>
          <g>
            <path class="cls-24" d="m645.39,348.94c-11.84-3.25-21.63-11.12-32.97-15.59-5.01-1.98-10.34-3.32-15.77-3.19-5.23.13-10.3,1.79-14.62,4.71-4.82,3.24-8.61,7.94-10.61,13.4,0,.03-.02.05-.02.08-.05.17-.02.32.06.44.12.22.38.36.63.34-.07.29-.12.59-.17.9-.2,1.13-.26,2.27-.11,3.42.08.57.2,1.13.39,1.7,1.07,3.22,3.87,4.88,7.16,4.95,3,.04,6.01-.89,8.99-.42,4.07.65,6.14,4.54,7.22,8.14,1.13,3.7,1.51,7.7,3.68,11.02,1.98,3,5.31,4.72,8.83,5.12,7.98.89,14.49-4.73,18.76-10.86,5.56-7.96,9.16-18.58,18.54-22.98.44-.21.59-1.02,0-1.19Z"/>
            <path class="cls-8" d="m607.91,355.63c.83,1.18,1.76,2.36,2.87,3.28-.18.16-.28.4-.2.68,1.8,6.41,8.23,10.47,14.78,9.39.81-.13.66-1.41-.15-1.27-5.82.95-11.36-2.46-13.23-7.97.4.23.81.43,1.26.58,1.84.6,3.79.35,5.57-.35,1.5-.59,2.84-1.51,4.13-2.51,3.39,1.63,7.46,1.69,10.9.17.75-.33.28-1.53-.47-1.19-2.94,1.31-6.32,1.33-9.28.12,2.28-1.83,4.53-3.7,7.45-4.23.81-.15.66-1.42-.15-1.27-3.19.58-5.56,2.62-8,4.55-.04-2.61,1.02-5.15,2.89-6.99.25-.24.14-.71-.11-.9-.3-.24-.65-.13-.9.11-2.3,2.25-3.44,5.54-3.12,8.73-.64.48-1.3.93-1.99,1.34-1.79,1.05-3.95,1.83-6.04,1.35-.69-.16-1.31-.45-1.88-.82,0-5.76,2.93-11.33,7.68-14.6.68-.47-.08-1.5-.76-1.03-4.82,3.31-7.82,8.8-8.17,14.6-.98-.97-1.79-2.15-2.54-3.24-1.37-2-2.83-3.87-4.65-5.48-.91-.8-1.88-1.53-2.89-2.19,1.02-3.37,3.32-6.3,6.44-7.97.72-.39.25-1.58-.47-1.19-3.36,1.8-5.94,4.84-7.09,8.48-.6-.35-1.22-.68-1.85-.97-2.41-1.13-4.99-1.84-7.63-2.13,1.88-2.65,4.42-4.77,7.41-6.09.75-.33.28-1.53-.47-1.19-3.34,1.48-6.22,3.87-8.24,6.91-.06.09-.09.17-.11.26-1.45-.07-2.9-.03-4.35.17-.97.13-1.92.34-2.86.58,1.11-2.35,2.72-4.42,4.77-6.03.65-.51-.11-1.54-.76-1.03-2.47,1.94-4.4,4.49-5.6,7.39-.02.05-.02.1-.03.14-3.2,1.07-6.19,2.77-8.7,5.04-.61.55.15,1.58.76,1.03,2.3-2.08,4.96-3.63,7.8-4.64.41,3.37,1.77,6.59,3.91,9.22.52.64,1.55-.12,1.03-.76-2.06-2.54-3.34-5.61-3.7-8.86,2.24-.66,4.56-1,6.9-.97,0,.02-.01.04,0,.06.28,4.4,2.26,8.55,5.45,11.57.6.57,1.38-.44.79-1.01-2.91-2.76-4.67-6.59-4.96-10.58,2.72.18,5.42.85,7.96,2.03,1.33.62,2.6,1.38,3.79,2.23-.06.06-.11.14-.15.24-1.74,4.9-1.86,10.3-.26,15.25,1.73,5.37,5.48,10.02,10.31,12.91.7.42,1.5-.58.79-1.01-4.59-2.75-8.14-7.05-9.83-12.14-1.56-4.68-1.48-9.85.16-14.49.36.29.72.58,1.07.9,1.88,1.7,3.27,3.72,4.71,5.77Z"/>
          </g>
          <g>
            <path class="cls-24" d="m571.39,275.18c.81-1.55,1.42-3.2,1.78-4.9.42-1.87.59-3.78.47-5.69-.17-2.92-.98-5.77-2.36-8.32-.39-.75-.84-1.46-1.33-2.14-1.41-1.96-3.13-3.63-5-5.1-.81-.63-1.63-1.22-2.49-1.77-.41-.26-.83-.52-1.24-.78-7.52-4.55-16.31-6.73-23.36-12.1-.35-.28-.75.17-.69.52,1.58,7.3-2.94,14.01-5.07,20.69-1.65,5.12-2.02,11.33,1.98,15.51,1.76,1.85,4.21,3.01,6.8,2.83,2.85-.21,5.31-1.73,7.92-2.71,2.55-.95,5.68-1.47,7.84.59,1.57,1.51,2.35,3.64,3.69,5.34,1.47,1.86,3.65,2.74,5.96,1.95.6-.21,1.15-.49,1.66-.85.52-.35.98-.78,1.42-1.25.15-.16.29-.31.43-.48.11.15.29.25.47.23.13-.02.24-.07.33-.21.28-.44.54-.9.79-1.35Z"/>
            <path class="cls-8" d="m550.41,258.81c-1.04.04-2.12.02-3.14-.21-.01.17-.11.34-.3.41-4.46,1.77-9.61-.14-11.86-4.38-.28-.52.52-.99.8-.47,2,3.76,6.38,5.45,10.36,4.11-.3-.13-.6-.27-.88-.47-1.15-.79-1.86-2.02-2.23-3.35-.32-1.12-.38-2.29-.37-3.47-2.42-1.23-4.23-3.54-4.86-6.18-.14-.58.75-.83.89-.25.54,2.26,2,4.21,3.99,5.38.05-2.11.14-4.22-.83-6.13-.27-.53.53-1,.8-.47,1.06,2.09.93,4.33.89,6.58,1.51-1.12,2.51-2.84,2.75-4.72.03-.25.34-.39.56-.33.27.07.36.31.33.56-.29,2.3-1.68,4.4-3.65,5.61,0,.58.03,1.15.1,1.73.18,1.49.67,3.07,1.87,4.06.39.33.83.55,1.29.72,3.31-2.52,5.22-6.64,5.02-10.79-.03-.6.9-.61.92-.01.2,4.21-1.63,8.34-4.8,11.07.98.14,2.01.09,2.97.04,1.75-.09,3.46-.07,5.18.27.86.17,1.7.41,2.52.7,1.49-2.06,2.16-4.66,1.75-7.18-.09-.58.8-.84.89-.25.44,2.72-.18,5.53-1.77,7.78.46.19.92.4,1.37.63,1.7.89,3.24,2.06,4.56,3.44.7-2.24.8-4.62.25-6.91-.14-.58.75-.83.89-.25.61,2.56.5,5.26-.36,7.75-.02.07-.06.13-.1.18.67.8,1.29,1.66,1.8,2.57.35.61.65,1.25.92,1.89.86-1.67,1.35-3.5,1.37-5.38,0-.59.93-.61.92-.01-.03,2.27-.65,4.49-1.8,6.45-.02.03-.05.05-.07.08.79,2.3,1.12,4.76.91,7.2-.05.59-.98.61-.92.01.19-2.23-.09-4.44-.75-6.51-2.11,1.23-4.55,1.87-7,1.79-.59-.02-.61-.94-.01-.92,2.36.07,4.68-.54,6.7-1.75-.6-1.57-1.42-3.06-2.46-4.38-.01.01-.02.02-.03.03-2.64,1.76-5.9,2.44-9.03,1.93-.59-.09-.35-.99.23-.89,2.86.46,5.82-.2,8.24-1.79-1.29-1.48-2.86-2.74-4.65-3.68-.94-.49-1.93-.89-2.94-1.2,0,.06-.03.13-.07.19-2.05,3.14-5.1,5.57-8.64,6.82-3.84,1.36-8.15,1.23-11.92-.27-.55-.22-.32-1.11.23-.89,3.58,1.43,7.61,1.58,11.27.34,3.37-1.15,6.3-3.46,8.25-6.43-.33-.08-.65-.16-.98-.22-1.8-.34-3.56-.25-5.38-.18Z"/>
          </g>
          <g>
            <path class="cls-24" d="m698.34,322.26c-4.51-5.38-3.71-12.86-4.39-19.39-.33-3.31-1.14-6.5-2.75-9.42-1.52-2.77-3.64-5.22-6.16-7.13-2.72-2.07-5.76-3.17-8.98-4.18-1.73-.54-3.49-1.13-4.99-2.15-1.57-1.07-2.82-2.52-4.17-3.84-2.43-2.34-5.36-3.75-8.68-4.29-3.24-.52-6.58-.26-9.78.35-7.17,1.39-13.9,4.79-19.27,9.72-.08.06-.16.15-.24.22-.05.04-.1.08-.15.13-.21.19-.25.46-.18.69.05.15.13.28.26.38-.25.9-.41,1.81-.5,2.72-.37,4.06.8,8.23,3.23,11.55,1.62,2.21,3.77,3.95,6.26,5.09,3.07,1.4,6.61,2.04,9.27,4.23,2.39,1.99,3.58,4.99,4.91,7.71,1.33,2.74,2.93,5.29,5.52,7.01,5.57,3.67,12.53,3.04,18.75,1.82,6.93-1.38,14.56-3.52,21.29-.23.56.28,1.16-.49.77-.98Z"/>
            <path class="cls-8" d="m690.97,315.9c-1.06-4.9-4.99-8.27-9.06-10.79-.52-.32-1.04-.63-1.57-.94,2.5-.57,5.1-.55,7.59.08.34.09.68-.23.72-.55.05-.37-.21-.64-.55-.72-2.99-.76-6.13-.67-9.08.18-.08.02-.14.07-.2.12-1.43-.84-2.86-1.69-4.21-2.65-1.5-1.07-2.88-2.3-4.21-3.58,4.36-3.25,9.99-4.54,15.34-3.47.81.16.98-1.11.17-1.27-5.72-1.14-11.82.29-16.45,3.83-.41-.42-.83-.84-1.24-1.26-2.01-2.1-4-4.19-6.15-6.09,3.17-3.47,8-5.23,12.67-4.56.82.12.99-1.15.17-1.27-5.09-.73-10.35,1.21-13.81,5-1.41-1.18-2.9-2.26-4.52-3.19-1.49-.86-3.05-1.59-4.66-2.21,3.45-2.37,7.35-4.07,11.45-4.93.8-.17.65-1.44-.15-1.27-4.53.95-8.82,2.82-12.58,5.52-.07.05-.11.11-.15.16-2.15-.72-4.38-1.22-6.62-1.5-.62-.08-1.23-.14-1.85-.18,1.86-2.79,5.02-4.62,8.38-4.84.82-.05.67-1.32-.15-1.27-4.01.26-7.66,2.6-9.68,6.04-3.97-.11-7.95.46-11.73,1.74-.78.27-.31,1.46.47,1.19,1.22-.41,2.46-.72,3.72-.97-.1,2.68.26,5.35,1.13,7.88.27.78,1.46.31,1.19-.47-.84-2.46-1.19-5.07-1.04-7.66,1.99-.32,4.02-.47,6.03-.42-1.81,4.62-1.12,10.07,1.84,14.06.49.66,1.52-.1,1.03-.76-2.78-3.75-3.38-8.89-1.56-13.19,0-.02,0-.04.01-.06,2.73.18,5.43.67,8.04,1.5-.01.03-.03.05-.04.08-2.09,7.24-2.19,14.9-.28,22.19.21.8,1.4.32,1.19-.47-1.81-6.94-1.71-14.34.28-21.23.02-.07.02-.13.02-.19,1.31.47,2.59,1.02,3.83,1.65,2.22,1.14,4.2,2.55,6.06,4.13-2.94,2.82-4.3,6.84-4.37,10.87-.08,4.32,1.13,8.5,2.38,12.6.24.79,1.43.31,1.19-.47-2.14-7.01-4.49-16.37,1.71-22.12.01-.01.02-.03.03-.04,1.5,1.35,2.93,2.8,4.35,4.29.82.87,1.65,1.73,2.49,2.58-2.63,6.95-1.74,14.96,2.32,21.18.45.69,1.48-.07,1.03-.76-3.72-5.69-4.58-13.02-2.34-19.42.69.67,1.39,1.32,2.12,1.94,2.01,1.71,4.23,3.09,6.5,4.41-.03.08-.05.17-.05.27.02,4.54,2.26,8.94,5.87,11.67.66.5,1.45-.51.79-1.01-3.21-2.42-5.15-6.2-5.35-10.19,4.37,2.58,9.14,5.69,10.27,10.94.17.8,1.45.65,1.27-.15Z"/>
          </g>
          <g>
            <path class="cls-24" d="m699.02,248.46c-5.99-1.12-9.59-6.56-13.63-10.57-2.06-2.02-4.35-3.71-7.04-4.78-2.55-1.01-5.32-1.49-8.05-1.38-2.97.13-5.6,1.06-8.32,2.16-1.45.59-2.95,1.17-4.53,1.31-1.63.15-3.27-.14-4.9-.28-2.92-.24-5.67.44-8.18,1.92-2.46,1.44-4.56,3.44-6.36,5.63-3.87,4.7-6.47,10.4-7.43,16.4-.05.25-.09.5-.12.75-.02.15-.04.28-.06.43-.04.28.11.48.32.59h.02c.08.06.19.08.3.09.26.58.58,1.15.92,1.69,1.97,3.14,5.16,5.44,8.77,6.36,2.31.59,4.7.56,7-.04,2.83-.76,5.55-2.27,8.53-2.28,2.7,0,5.15,1.36,7.54,2.45,2.41,1.1,4.89,1.93,7.57,1.64,5.75-.62,10.06-4.87,13.54-9.12,3.89-4.75,7.8-10.39,14.12-11.89.52-.13.5-.97-.02-1.07Z"/>
            <path class="cls-8" d="m690.58,248.26c-3.41-2.7-7.9-2.78-12.02-2.22-.52.07-1.05.15-1.57.24,1.36-1.76,3.11-3.18,5.12-4.13.27-.13.33-.53.18-.76-.17-.28-.49-.31-.76-.18-2.42,1.14-4.47,2.93-5.98,5.13-.04.06-.06.12-.07.19-1.42.23-2.84.45-4.28.55-1.6.11-3.19.05-4.79-.07,1.13-4.58,4.19-8.55,8.35-10.78.63-.34.05-1.28-.58-.95-4.46,2.39-7.75,6.71-8.9,11.63-.51-.05-1.02-.1-1.52-.16-2.5-.29-4.99-.6-7.47-.69.21-4.07,2.47-7.92,5.96-10.04.61-.37.03-1.32-.58-.95-3.82,2.32-6.26,6.52-6.49,10.96-1.59,0-3.19.08-4.79.36-1.47.25-2.92.62-4.34,1.09,1-3.49,2.67-6.77,4.95-9.61.44-.55-.36-1.33-.8-.77-2.51,3.14-4.34,6.75-5.37,10.63-.02.07-.02.13-.01.19-1.84.71-3.6,1.6-5.26,2.65-.45.29-.9.59-1.34.9-.29-2.9.81-5.86,2.94-7.86.52-.49-.28-1.25-.8-.77-2.54,2.38-3.69,5.97-3.15,9.38-2.72,2.11-5.07,4.69-6.89,7.63-.38.61.6,1.14.97.54.59-.95,1.25-1.84,1.95-2.7,1.41,1.85,3.13,3.43,5.11,4.65.61.38,1.14-.6.54-.97-1.92-1.18-3.59-2.74-4.92-4.55,1.16-1.31,2.43-2.53,3.81-3.61,1.34,4.09,4.8,7.36,8.99,8.4.69.17.96-.91.27-1.08-3.93-.98-7.17-4.09-8.32-7.97,0-.02-.02-.03-.03-.05,1.92-1.39,4.01-2.54,6.21-3.43,0,.03,0,.05.02.08,2.59,6,6.75,11.18,12.05,15.01.58.42,1.11-.56.54-.97-5.04-3.64-9.05-8.65-11.52-14.36-.02-.05-.06-.09-.09-.13,1.14-.41,2.3-.75,3.48-1.01,2.11-.46,4.22-.61,6.33-.57-.41,3.51.9,6.95,3.07,9.69,2.33,2.94,5.45,5.07,8.54,7.12.6.4,1.13-.58.54-.97-5.3-3.52-12.04-8.48-11.05-15.75,0-.02,0-.03,0-.04,1.75.08,3.51.26,5.27.47,1.03.13,2.06.25,3.09.36,2.08,6.1,7.08,10.98,13.23,12.89.68.21.95-.87.27-1.08-5.63-1.75-10.25-6.19-12.28-11.71.83.07,1.66.12,2.49.14,2.29.04,4.53-.27,6.78-.63.02.07.06.14.11.21,2.52,3.03,6.44,4.74,10.37,4.57.71-.03.69-1.14-.03-1.11-3.48.15-6.87-1.31-9.2-3.87,4.34-.69,9.26-1.23,12.91,1.66.56.44,1.33-.36.77-.8Z"/>
          </g>
          <g>
            <path class="cls-24" d="m634.74,236.09c.75-2.49.75-5.02-.07-7.5-.46-1.39-1.06-2.74-1.27-4.19-.21-1.39-.04-2.81.17-4.2.39-2.59.63-5.08.11-7.67-.49-2.4-1.48-4.69-2.91-6.69-1.49-2.1-3.44-3.75-5.64-5.1-4.32-2.65-9.8-4.61-12.05-9.57-.19-.44-.94-.28-.93.21.04,5.8-4.02,10.39-7.32,14.76-2.95,3.92-5.71,8.56-5.04,13.68.32,2.39,1.58,4.36,3.03,6.2,1.45,1.84,3.15,3.68,3.73,6.02.64,2.59-.1,5.27-.15,7.87-.04,2.13.44,4.21,1.44,6.08,1.32,2.5,3.48,4.54,6.03,5.72.95.45,1.95.78,3,.97.03.11.09.22.18.29.12.12.29.19.48.13.02,0,.04,0,.06-.02.12-.05.25-.09.37-.15,5.24-2.09,9.87-5.64,13.24-10.17,1.51-2.02,2.82-4.27,3.53-6.7Z"/>
            <path class="cls-8" d="m615.04,198.46c3.06,2.38,4.09,6.26,4.48,9.95.05.47.09.94.13,1.41,1.24-1.55,2.1-3.37,2.49-5.32.05-.26.39-.4.62-.32.28.09.37.36.32.62-.48,2.34-1.59,4.5-3.18,6.27-.04.05-.09.08-.15.1.1,1.28.21,2.56.43,3.83.24,1.41.63,2.78,1.08,4.13,3.73-1.95,6.52-5.44,7.58-9.53.16-.62,1.1-.31.94.31-1.12,4.37-4.18,8.14-8.2,10.18.15.43.31.86.46,1.29.79,2.11,1.58,4.2,2.18,6.33,3.49-1.04,6.34-3.82,7.44-7.3.19-.61,1.14-.31.94.3-1.2,3.8-4.32,6.81-8.12,7.95.35,1.38.6,2.78.71,4.23.1,1.33.08,2.66-.03,3.99,2.82-1.61,5.3-3.75,7.28-6.33.39-.5,1.23.03.84.53-2.19,2.84-4.93,5.2-8.08,6.91-.06.03-.11.04-.16.05-.23,1.74-.62,3.46-1.18,5.12-.15.46-.32.91-.5,1.35,2.57-.36,4.91-1.95,6.19-4.22.31-.56,1.15-.02.84.53-1.53,2.71-4.39,4.47-7.47,4.72-1.26,2.81-2.99,5.39-5.15,7.59-.45.46-1.12-.28-.67-.73.7-.71,1.33-1.48,1.93-2.27-1.9-.83-3.64-1.98-5.12-3.44-.46-.45.28-1.12.73-.67,1.43,1.41,3.13,2.53,4.99,3.3.89-1.28,1.67-2.64,2.32-4.07-3.83-.29-7.39-2.6-9.19-6.01-.3-.57.58-1.03.88-.46,1.68,3.2,5.06,5.35,8.67,5.52.02,0,.03,0,.05.01.79-1.96,1.36-4.01,1.65-6.11-.03,0-.05,0-.07,0-5.75-.98-11.12-3.48-15.57-7.26-.49-.41.25-1.08.73-.67,4.23,3.59,9.42,6.01,14.89,6.94.05,0,.09.03.14.05.11-1.07.16-2.15.14-3.23-.04-1.93-.37-3.79-.84-5.61-2.96,1.1-6.22.69-9.05-.61-3.04-1.39-5.55-3.65-7.98-5.89-.47-.43.26-1.1.73-.67,4.17,3.85,9.9,8.64,16,6.24.01,0,.02,0,.04,0-.44-1.5-.97-2.99-1.53-4.47-.33-.87-.65-1.73-.96-2.6-5.73-.51-11.02-3.81-13.98-8.74-.33-.55.55-1.01.88-.46,2.71,4.5,7.54,7.57,12.75,8.16-.23-.7-.46-1.41-.65-2.13-.52-1.97-.73-3.99-.89-6.01-.07,0-.13-.02-.2-.05-3.16-1.54-5.48-4.58-6.16-8.02-.12-.62.84-.84.97-.21.61,3.05,2.59,5.67,5.31,7.16-.33-3.91-.9-8.28-4.18-10.84-.5-.39.03-1.23.53-.84Z"/>
          </g>
          <g>
            <path class="cls-24" d="m598.97,260.72c1.15-2.34,1.57-4.82,1.17-7.4-.22-1.44-.59-2.88-.56-4.35.03-1.41.44-2.78.86-4.11.81-2.49,1.47-4.9,1.4-7.55-.08-2.44-.69-4.87-1.76-7.08-1.12-2.33-2.78-4.26-4.72-5.96-3.82-3.34-8.91-6.18-10.28-11.44-.13-.46-.88-.43-.95.05-.94,5.72-5.71,9.57-9.67,13.34-3.57,3.39-7.07,7.49-7.25,12.66-.08,2.4.82,4.55,1.96,6.62,1.12,2.06,2.49,4.15,2.66,6.55.11,1.44-.19,2.83-.55,4.23-.32,1.18-.68,2.35-.91,3.52-.26,1.34-.3,2.7-.1,4.03-.02.02,0,.02,0,.02.1.75.26,1.47.5,2.18.01.04.03.07.04.11.52,1.52,1.32,2.92,2.35,4.14,1.06,1.3,2.37,2.38,3.85,3.17.5.26,1.01.5,1.54.69,0,.12.06.24.13.33.12.14.3.24.52.19.13-.03.26-.06.39-.08.39-.08.77-.18,1.14-.27,5.1-1.31,9.82-3.92,13.61-7.55,1.83-1.75,3.49-3.74,4.61-6.02Z"/>
            <path class="cls-8" d="m585.82,220.33c2.62,2.86,2.99,6.85,2.76,10.55-.03.47-.07.94-.11,1.41,1.48-1.32,2.63-2.98,3.34-4.83.1-.25.45-.32.67-.21.26.14.31.42.21.67-.86,2.22-2.32,4.17-4.18,5.66-.05.04-.1.06-.16.07-.11,1.28-.21,2.56-.21,3.84,0,1.43.16,2.85.38,4.26,4.01-1.3,7.34-4.28,9.06-8.13.26-.58,1.14-.12.88.46-1.84,4.12-5.47,7.33-9.78,8.67.08.45.16.9.24,1.35.42,2.21.86,4.4,1.1,6.61,3.61-.45,6.89-2.71,8.55-5.96.29-.57,1.17-.11.88.46-1.82,3.55-5.39,5.99-9.33,6.48.11,1.42.13,2.84,0,4.28-.13,1.33-.36,2.64-.69,3.93,3.04-1.12,5.86-2.82,8.24-5.03.47-.43,1.2.23.73.67-2.63,2.44-5.73,4.3-9.12,5.47-.06.02-.12.02-.17.02-.51,1.68-1.19,3.31-2.02,4.85-.23.42-.47.84-.71,1.25,2.6.07,5.17-1.1,6.8-3.13.4-.5,1.13.17.73.67-1.96,2.42-5.07,3.67-8.15,3.41-1.71,2.56-3.85,4.82-6.34,6.63-.52.38-1.06-.46-.54-.83.81-.58,1.56-1.24,2.28-1.91-1.73-1.13-3.26-2.56-4.47-4.24-.37-.52.46-1.06.83-.54,1.18,1.63,2.67,3.02,4.37,4.09,1.09-1.12,2.09-2.33,2.96-3.62-3.73-.93-6.86-3.8-8.06-7.46-.2-.61.74-.92.94-.31,1.13,3.43,4.1,6.12,7.63,6.89.02,0,.03.01.04.02,1.11-1.8,2.01-3.73,2.65-5.75-.03,0-.05,0-.07,0-5.51-1.92-10.39-5.29-14.14-9.75-.41-.49.42-1.02.83-.54,3.57,4.25,8.29,7.5,13.53,9.33.05.02.09.05.12.07.29-1.04.52-2.09.67-3.16.28-1.91.27-3.8.1-5.68-3.1.59-6.25-.35-8.82-2.1-2.76-1.88-4.86-4.52-6.89-7.14-.39-.51.44-1.04.83-.54,3.47,4.49,8.33,10.16,14.73,8.82.01,0,.02,0,.04,0-.18-1.56-.46-3.11-.76-4.66-.18-.91-.36-1.82-.52-2.73-5.56-1.45-10.23-5.59-12.33-10.94-.23-.59.71-.9.94-.31,1.93,4.89,6.17,8.72,11.22,10.17-.11-.73-.21-1.47-.28-2.21-.18-2.03-.06-4.05.12-6.08-.06-.02-.13-.04-.19-.09-2.86-2.04-4.64-5.43-4.74-8.93-.02-.64.97-.69.99-.05.09,3.11,1.61,6.03,4.04,7.94.33-3.91.49-8.32-2.31-11.38-.43-.47.23-1.21.67-.73Z"/>
          </g>
        </g>
      </g>
    </g>
    <g id="OBJECTS">
      <rect class="cls-22" x="155.61" y="388.53" width="438.78" height="4.28" rx="2.12" ry="2.12"/>
      <text class="cls-18" transform="translate(255.86 438.17)"><tspan x="0" y="0">WELCOME </tspan></text>
      <g class="cls-23">
        <g>
          <path class="cls-15" d="m200.77,154.73c1.72-7.3,8.28-13.2,15.72-14.13,7.44-.93,15.26,3.17,18.72,9.83l2.85-.56c3.71,6.83,2.64,15.9-2.44,21.78-5.07,5.89-13.76,8.3-21.2,6.04-9.38-2.85-15.9-13.41-13.66-22.96Z"/>
          <g>
            <g>
              <path class="cls-13" d="m279.16,234.39l.21,40.23,3.5,43.19,10.12,124.76s9.36,10.42,15,2.96l-4.65-133.27-1.36-39.17c-.49-7.4-2.02-14.72-4.86-21.46-4.04-9.57-9.72-15.91-17.96-17.24Z"/>
              <path class="cls-22" d="m308.31,442.22l1.83,28.48c.16,2.45-.98,4.83-3.08,6.47l-11.9,9.26c-1.03.8-2.73.23-2.77-.97-.09-2.59,1.35-7.01,9.34-12.57l-.4-12.95s-.34,13.27-2.93,13.71c0,0-4.32,1.63-2.89-14.34,0,0-2.75-8.84,2.8-13.93l-8.74-28.89,20.64-.83-1.9,26.55Z"/>
            </g>
            <path class="cls-14" d="m279.16,234.39l.21,40.23,3.5,43.19c6.76-1.82,13.52-3.66,20.26-5.49.07-.01.13-.04.21-.06l-1.36-39.17c-.49-7.4-2.02-14.72-4.86-21.46-4.04-9.57-9.72-15.91-17.96-17.24Z"/>
          </g>
          <path class="cls-25" d="m295.63,490.11l-6.63,81.64-21.55,126.42c.28.73.58,1.45.91,2.15h-14.33c.81-.39,1.38-.25,1.38-.25-4.43-53.91-7.45-104.37,0-129.27l-3.17-156.52h-12.67l-31.96,151.45c-4.7,41.32-20.53,90.25-44.09,134.34.51.05.99.13,1.44.25h-16.35l.97-1.53,29.78-136.87,14.58-139.56c5.07-58.83,27.25-91.72,27.25-91.72h60.19l5.44,25.26c9.48,44.06,12.44,89.28,8.79,134.21Z"/>
          <path class="cls-14" d="m209.72,246.02l7.95,76.36-15.76,54.81c34.82,13.05,64.43,13,87.46-3.6l-7.78-46.94,6.13-38.49,4.91-9.99c2.14-4.35,2.45-9.38.87-13.94l-9.57-27.71c-4.47-2.8-9.65-4.89-15.28-6.33-1.45-.36-2.89-.67-4.31-.94,0,0,0-.01-.01,0-12.67-2.38-24.23-.91-37.06,2.47-3.33.87-6.74,1.87-10.29,2.96-4.86,1.5-7.93,6.3-7.25,11.34Z"/>
          <path class="cls-25" d="m227.27,231.72c1.41,2.21,2.93,4.35,4.56,6.42,9.84,12.46,23.58,21.77,38.82,26.23.42.12.78-.15.93-.52,1.21-3.22,1.93-6.6,2.11-10.03.48-9.18-3.05-18.08-9.35-24.56,0,0,0-.01-.01,0-12.67-2.38-24.23-.91-37.06,2.47Z"/>
          <g>
            <path class="cls-13" d="m256.78,228.27l.11-4.05v-.52s-.13-9.86-.13-9.86l-20.34-2.21.3,8.14c.06,1.48.12,3.01.26,4.51.01.35.02,2.03.02,3.9,0,.42,0,.85.06,1.26-3.03,4.56,21.1,28.26,29.5,28.24,2.28-2.85-2.86-26.58-9.77-29.41Z"/>
            <path class="cls-4" d="m237.86,229.56c3.01.38,6.14.18,9.25-.64.04,0,.08-.02.11-.03,5.81-1.57,9.64-7.13,9.56-13.14l-.03-1.9-20.34-2.21.3,8.14c.06,1.48.12,3.01.26,4.51.02.38.02,2.26.02,4.28.31.36.55.63.86,1Z"/>
            <path class="cls-13" d="m215.33,190.36c1.47,5.83,5.86,7.69,10.01,8.78.1.03.21.06.31.09,2.02,3.95,4.83,7.78,8.06,10.96,3.38,3.81,7.7,6.61,12.58,7.67.13.03.28.06.43.09.28.06.55.13.84.18.19.03.39.03.58.04.16.01.33.03.49.04.37.01.75.03,1.14.03.37-.02.75-.04,1.12-.09.16-.01.33-.03.49-.06.19-.01.39-.03.58-.06.28-.06.55-.15.84-.22.13-.03.28-.07.42-.1,4.83-1.29,9.02-4.26,12.23-8.23,3.08-3.32,5.71-7.28,7.55-11.31,1.57-.48,3.2-1.08,4.67-1.93,2.45-1.42,4.49-3.62,5.26-7.39.99-4.77-.45-10.99-4.4-11.25-1.18-.07-2.51.39-3.81,1.2-1.91-7.9-6.27-16.24-11.55-21.94-2.23-2.83-4.74-4.65-7.48-5.73-1.47-.67-2.96-1.12-4.44-1.21-1.02-.07-2.02-.09-3.02-.04-.99,0-1.99.06-3.01.18-1.47.15-2.95.67-4.38,1.41-2.68,1.2-5.11,3.13-7.21,6.06-5.02,5.92-9,14.45-10.57,22.42-1.33-.75-2.68-1.15-3.86-1.03-3.93.43-5.08,6.73-3.89,11.44Z"/>
            <g>
              <path class="cls-5" d="m208.95,148.73c2.15-4.49,7.4-6.73,12.14-5.21.91.29.52,1.74-.4,1.44-4.15-1.33-8.58.6-10.45,4.52-.42.87-1.71.11-1.29-.75Z"/>
              <path class="cls-5" d="m206.35,148.68c.54-.79,1.84-.04,1.29.75-3.29,4.78-2.67,11.18,1.52,15.2.7.67-.36,1.72-1.06,1.06-4.65-4.45-5.41-11.7-1.76-17.01Z"/>
              <path class="cls-5" d="m210.1,170.63c5.44-5.49,8.04-13.53,6.76-21.17-.16-.94,1.28-1.35,1.44-.4,1.36,8.17-1.31,16.73-7.15,22.62-.68.68-1.74-.37-1.06-1.06Z"/>
              <path class="cls-5" d="m219.74,158.58c.63-4.09,2.28-7.99,4.77-11.3.57-.76,1.87-.02,1.29.75-2.42,3.22-4,6.96-4.62,10.94-.06.4-.56.62-.92.52-.43-.11-.58-.52-.52-.92Z"/>
              <path class="cls-5" d="m219.21,168.08c.92-1.08,1.82-2.2,2.45-3.49.68-1.41,1.01-2.95,1.42-4.45.69-2.55,1.69-4.86,3.51-6.81,1.73-1.86,3.98-3.19,6.43-3.85.93-.25,1.33,1.19.4,1.44-2.35.64-4.44,1.94-6.05,3.77-1.8,2.05-2.49,4.52-3.18,7.1-.7,2.61-1.76,4.77-3.5,6.85-1.75,2.1-3.76,4.12-4.16,6.95-.13.95-1.57.55-1.44-.4.4-2.85,2.33-5.01,4.13-7.12Z"/>
            </g>
            <g>
              <path class="cls-4" d="m257.9,196.08c-.32-.77-.9-1.4-1.38-2.06-.55-.75-1.02-1.57-1.42-2.41-.8-1.69-1.27-3.49-1.43-5.32-.05-.5-.63-.84-1.08-.77-.53.08-.76.56-.72,1.06.28,3.08,1.43,6.08,3.28,8.62.71.98,1.75,2.03.73,3.11-1.02,1.08-2.77.79-4.13.61-1.18-.15-1.3,1.69-.12,1.84,1.77.22,3.66.37,5.13-.72,1.22-.9,1.76-2.46,1.15-3.95Z"/>
              <path class="cls-11" d="m239.74,187.21c.23,1.71,1.36,3.02,2.51,2.94,1.16-.08,1.9-1.53,1.67-3.24-.23-1.71-1.36-3.02-2.51-2.94-1.16.08-1.9,1.53-1.67,3.24Z"/>
              <path class="cls-11" d="m257.96,187.12c.23,1.71,1.36,3.02,2.51,2.94,1.16-.08,1.9-1.53,1.67-3.24-.23-1.71-1.36-3.02-2.51-2.94-1.16.08-1.9,1.53-1.67,3.24Z"/>
              <path class="cls-11" d="m258.64,175.01c.41-.19.82-.18,1.2-.13,2.55.35,4.42,2.56,4.76,5.46-.15-.4-.34-.77-.62-1.05-.02-.02-.03-.02-.05-.04-.15-.19-.32-.36-.51-.5-.69-.51-1.57-.71-2.44-.87s-1.76-.3-2.52-.7c-.37-.2-.73-.53-.67-1.05.05-.47.44-.92.84-1.11Z"/>
              <path class="cls-11" d="m242.86,174.28c-.37-.29-.78-.37-1.17-.41-2.55-.26-4.7,1.48-5.45,4.25.21-.35.44-.67.75-.89.02-.01.04-.02.06-.03.17-.15.36-.28.57-.37.75-.34,1.64-.33,2.52-.28.88.05,1.77.13,2.58-.09.39-.11.79-.35.81-.87.02-.47-.3-1.01-.67-1.3Z"/>
              <path class="cls-4" d="m243.28,201.83c2.84,2.56,6.94,3.49,10.62,2.51,1.05-.28,1.44,1.36.39,1.65-4.29,1.15-8.96-.03-12.25-3-.81-.73.43-1.88,1.24-1.15Z"/>
            </g>
            <g>
              <g>
                <g>
                  <path class="cls-26" d="m225.43,183.48c3.69,4.66,7.68,9.07,11.93,13.22.69.67-.37,1.73-1.06,1.06-4.26-4.15-8.24-8.56-11.93-13.22-.59-.75.46-1.81,1.06-1.06Z"/>
                  <path class="cls-26" d="m225.59,196.22c2.06,5.87,5.83,11.12,10.77,14.92.75.58,0,1.88-.75,1.29-5.27-4.06-9.25-9.54-11.46-15.81-.32-.91,1.12-1.3,1.44-.4Z"/>
                </g>
                <g>
                  <path class="cls-26" d="m273.82,183.48c-3.69,4.66-7.68,9.07-11.93,13.22-.69.67.37,1.73,1.06,1.06,4.26-4.15,8.24-8.56,11.93-13.22.59-.75-.46-1.81-1.06-1.06Z"/>
                  <path class="cls-26" d="m273.67,196.22c-2.06,5.87-5.83,11.12-10.77,14.92-.75.58,0,1.88.75,1.29,5.27-4.06,9.25-9.54,11.46-15.81.32-.91-1.12-1.3-1.44-.4Z"/>
                </g>
              </g>
              <g>
                <path class="cls-12" d="m233.68,200.84c.35-3.57,2.94-6.56,6.4-7.49.75-.2,1.5-.39,2.26-.55,5.29-1.14,10.7-1.37,16.03-.84,4.77.48,8.33,4.55,8.07,9.34-.18,3.43-1.01,6.86-2.3,10.09-3.01,3.03-6.72,5.3-10.91,6.35-.13.03-.28.07-.42.1-.28.07-.55.16-.84.21-.19.03-.39.04-.58.06-.16.03-.33.04-.49.06-.37.04-.75.07-1.12.08-.39,0-.76-.01-1.14-.03-.16-.01-.33-.03-.49-.04-.19-.01-.39-.01-.58-.04-.28-.04-.55-.11-.84-.17-.15-.03-.3-.06-.43-.08-4.12-.85-7.83-2.88-10.93-5.66-1.27-3.7-2.04-7.66-1.68-11.39Z"/>
                <g>
                  <path class="cls-26" d="m240.66,198.72c6.74.06,13.46-.56,20.07-1.85.94-.18,1.34,1.26.4,1.44-6.74,1.32-13.6,1.96-20.47,1.91-.96,0-.96-1.5,0-1.5Z"/>
                  <path class="cls-26" d="m242.62,204.05c5.72.54,11.48.19,17.08-1.06.94-.21,1.34,1.23.4,1.44-5.73,1.28-11.63,1.66-17.48,1.11-.95-.09-.96-1.59,0-1.5Z"/>
                  <path class="cls-26" d="m241.63,209.67c6.13.84,12.37.42,18.35-1.17.93-.25,1.33,1.19.4,1.44-6.25,1.66-12.74,2.04-19.14,1.17-.95-.13-.55-1.57.4-1.44Z"/>
                </g>
              </g>
            </g>
            <path class="cls-15" d="m210.48,170.67c2.21.41,4.47-.69,6.06-2.27,1.59-1.58,2.66-3.6,3.78-5.54,2.27-3.93,4.95-7.76,8.67-10.37,2.47-1.73,5.31-2.86,8.11-3.97,5.79-2.29,11.99-4.62,18.08-3.36,5.93,1.23,10.6,5.62,15.15,9.6,4.55,3.99,9.82,7.93,15.88,7.94l-7.78,1.02c5.08,3.55,8.51,9.79,7.61,15.92-.57,3.92-2.77,7.4-4.16,11.11-1.39,3.71-1.84,8.29.73,11.31-1.79-.51-3.32-1.87-4.03-3.6.33,3.2-.85,6.52-3.12,8.8-2.27,2.28-5.6,3.46-8.8,3.14,2.18-1.06,3.16-3.71,3.14-6.13-.02-2.42-.81-4.77-1.23-7.15-.37-2.14-.39-4.48.63-6.36-.7.92-1.84,1.52-3,1.5,3.38-4.61,4.02-11.02,1.85-16.29-5.93-2.2-11.22-6.19-14.86-11.37,1.58,4.05-.05,9.09-3.69,11.45-1.11-5.28-2.99-10.4-5.56-15.15.78,3.45-1.53,6.85-4.15,9.24-2.62,2.39-5.74,4.39-7.46,7.49-1.71,3.1-1.19,7.85,2.12,9.13-2.18,1.15-5.21.16-6.3-2.05,2.03,3.92,2.63,8.56,1.66,12.87-.26,1.13-.62,2.27-.49,3.42.13,1.15.92,2.33,2.07,2.45-1.31.17-2.69-.35-3.57-1.34,1.48,1.52,1.95,3.94,1.14,5.91-.81,1.96-2.84,3.36-4.96,3.4,1.77-1.16,1.73-3.91.58-5.69-1.15-1.78-3.04-2.9-4.69-4.24-4.08-3.32-6.79-8.26-7.39-13.48-.6-5.22.92-10.65,4.14-14.81-2.31.58-4.94-.5-6.17-2.54Z"/>
          </g>
          <path class="cls-3" d="m291.45,257.56c-1.11-3.08-2.2-6.22-2.6-9.49-.12-.94-1.61-.95-1.5,0,.69,5.58,3.17,10.64,4.75,15.99.79,2.65,1.33,5.38,1.19,8.16-.15,2.88-1.06,5.67-2.32,8.25-1.44,2.95-3.29,5.67-5.15,8.37-.37.54.11,1.05.63,1.08-3.44,13.18-5.09,26.82-4.82,40.44.08,4.03.33,8.05.74,12.06.03.25.15.43.31.55,2.3,12.46,4.23,24.99,5.75,37.56,1.56,12.86,2.71,25.76,3.45,38.69.42,7.32.7,14.65.86,21.97.02.96,1.52.96,1.5,0-.28-13.07-.98-26.13-2.09-39.16-1.1-12.91-2.62-25.78-4.53-38.6-1.09-7.31-2.32-14.6-3.67-21.87-.03-.15-.1-.26-.18-.35-1.29-13.7-.68-27.56,1.88-41.08.75-3.96,1.67-7.88,2.74-11.77.06-.22.02-.4-.07-.55,2.86-4.22,5.56-8.72,6.29-13.83.82-5.72-1.25-11.15-3.16-16.44Z"/>
          <g>
            <path class="cls-5" d="m237.52,151.49c-3.45,1.97-7.04,4.22-9.02,7.8-.88,1.6-1.36,3.4-2.02,5.09-.69,1.79-1.62,3.38-3,4.72-.69.67.37,1.73,1.06,1.06,1.26-1.23,2.23-2.66,2.94-4.27.72-1.65,1.19-3.39,1.92-5.04,1.68-3.8,5.42-6.09,8.89-8.07.84-.48.08-1.77-.75-1.29Z"/>
            <path class="cls-5" d="m237.35,157.65c-.23-.93-1.67-.54-1.44.4.98,4.03-2.33,7.33-4.64,10.17-2.21,2.71-4.19,6.06-3.17,9.68.26.92,1.7.53,1.44-.4-1.14-4.02,2.11-7.38,4.44-10.21,2.23-2.71,4.25-5.99,3.37-9.64Z"/>
            <path class="cls-5" d="m224.16,198.51c-6.07-6.14-6.37-16.06-.61-22.52.64-.72-.42-1.78-1.06-1.06-3.03,3.4-4.76,7.87-4.64,12.44.12,4.56,2.06,8.96,5.26,12.19.68.69,1.74-.37,1.06-1.06Z"/>
            <path class="cls-5" d="m224.5,183.04c-.55-.78-1.84-.04-1.29.75,1.87,2.68,2.42,6.09,1.48,9.21-.28.92,1.16,1.32,1.44.4,1.05-3.48.45-7.38-1.63-10.37Z"/>
            <path class="cls-5" d="m251.56,164.83c-1.29-5.28-4.6-9.94-9.13-12.94-.81-.53-1.56.76-.75,1.29,4.21,2.79,7.24,7.14,8.44,12.04.23.93,1.67.54,1.44-.4Z"/>
            <path class="cls-5" d="m270.74,170.19c-5.22-1.34-9.73-4.75-12.41-9.42-1.37-2.38-2.41-5.1-4.51-6.97-1.82-1.62-4.38-2.6-6.76-1.7-.89.34-.51,1.78.4,1.44,2.67-1.01,5.26.85,6.75,2.96,1.56,2.22,2.5,4.8,4.11,6.99,2.94,4.01,7.21,6.9,12.03,8.14.93.24,1.33-1.2.4-1.44Z"/>
            <path class="cls-5" d="m270.97,160.72c-8.44-2.36-13.55-14.19-23.49-11.69-.93.23-.54,1.68.4,1.44,4.64-1.17,8.83,1.8,12.15,4.68,3.2,2.78,6.35,5.83,10.54,7.01.93.26,1.32-1.18.4-1.44Z"/>
            <path class="cls-5" d="m282.35,175.24c-1.59-5.93-6.75-10.15-12.81-10.8-.96-.1-.95,1.39,0,1.5,5.84.62,10.61,5.1,11.63,10.88,1.07,6.02-3.03,11.3-2.95,17.26.01.96,1.51.96,1.5,0-.05-3.36,1.3-6.46,2.24-9.63.89-3.03,1.22-6.11.4-9.2Z"/>
            <path class="cls-5" d="m275.13,173.45c-.56-.77-1.86-.03-1.29.75,2.83,3.93,1.62,8.92.28,13.16-1.39,4.4-2.98,9.11-1.34,13.68.32.9,1.77.51,1.44-.4-1.75-4.89.5-9.85,1.85-14.53,1.19-4.14,1.74-8.95-.93-12.67Z"/>
            <path class="cls-5" d="m272.61,178.36c-.11-.39-.53-.63-.92-.52-.39.11-.63.53-.52.92.43,1.57.62,3.13.6,4.76,0,.39.35.77.75.75.41-.02.74-.33.75-.75.03-1.74-.19-3.48-.65-5.16Z"/>
          </g>
          <g>
            <path class="cls-13" d="m128.7,240.43l16.33,43.89c2.89,7.75,11.96,11.16,19.23,7.21l13.98-7.57,2.12-1.15,40.74-22.07-2.5-23.79c-.16-1.51-1.82-2.38-3.16-1.63l-42.35,23.63-1.38.76h0s-11.22,6.27-11.22,6.27c-2.77-4.43-12.07-19.76-20.06-32.98-3.69,2.3-7.73,4.86-11.75,7.43Z"/>
            <path class="cls-14" d="m170.07,260.78c.58,2.06,1.24,4.11,1.82,6.14,1.07,3.72,2.16,7.43,3.3,11.13.94,3.04,1.9,6.06,2.91,9.08l49.17-18.2-6.95-32.44c-.18-1.67-2.01-2.63-3.48-1.8l-46.76,26.09Z"/>
            <path class="cls-22" d="m95.3,191.95l9.36,7.61-1.5,1.51c-9.66-6.21-7.13-1.2-7.13-1.2l11.17,6.74c5.86,9.66,12.91,10.69,12.91,10.69l8.58,23.11c4.02-2.57,8.06-5.13,11.75-7.43-6.86-11.32-12.77-21.1-12.77-21.1l2.11-5.17c.96-2.39,1.09-5.02.52-7.54-1.41-6.45.24-11.1.24-11.1-4.91-.3-4.19,9.15-4.19,9.15l-3.51,2-5.43-5.82c-8.08-19.56-10.3-13.01-10.3-13.01l5.98,12.92-2.11,1.3c-8.37-16.65-9.87-10.62-9.87-10.62l7.46,12.34-1.91,1.72c-12.46-12.34-11.37-6.12-11.37-6.12Z"/>
          </g>
          <g class="cls-9">
            <path class="cls-3" d="m256.52,276.17c-4.93,9.66-15.6,15.27-26.37,13.68-.94-.14-1.35,1.3-.4,1.44,11.42,1.69,22.8-4.06,28.06-14.36.44-.86-.85-1.61-1.29-.76Z"/>
            <path class="cls-3" d="m287.63,288.11c1.33-3.83,3.27-7.34,4.93-11.02,1.74-3.86,2.35-7.81,1.4-11.97-1.05-4.61-3.44-8.79-5.8-12.84-.49-.83.81-1.59,1.29-.75,4.01,6.89,8.2,14.75,5.71,22.92-1.23,4.04-3.58,7.63-5.15,11.53-1.58,3.93-2.68,8.04-3.51,12.18-.96,4.78-1.57,9.62-2.17,14.45-.12.94-1.61.95-1.5,0,1.02-8.25,2.05-16.6,4.78-24.5Z"/>
          </g>
        </g>
        <g>
          <g>
            <path class="cls-20" d="m626.32,236.52l-16.33,43.89c-2.89,7.75-11.96,11.16-19.23,7.21l-13.98-7.57-2.12-1.15-40.74-22.07,2.5-23.79c.16-1.51,1.82-2.38,3.16-1.63l42.35,23.63,1.38.76h0s11.22,6.27,11.22,6.27c2.77-4.43,12.07-19.76,20.06-32.98,3.69,2.3,7.73,4.86,11.75,7.43Z"/>
            <path class="cls-21" d="m659.71,188.05l-9.36,7.61,1.5,1.51c9.66-6.21,7.13-1.2,7.13-1.2l-11.17,6.74c-5.86,9.66-12.91,10.69-12.91,10.69l-8.58,23.11c-4.02-2.57-8.06-5.13-11.75-7.43,6.86-11.32,12.77-21.1,12.77-21.1l-2.11-5.17c-.96-2.39-1.09-5.02-.52-7.54,1.41-6.45-.24-11.1-.24-11.1,4.91-.3,4.19,9.15,4.19,9.15l3.51,2,5.43-5.82c8.08-19.56,10.3-13.01,10.3-13.01l-5.98,12.92,2.11,1.3c8.38-16.65,9.87-10.62,9.87-10.62l-7.46,12.34,1.91,1.72c12.46-12.34,11.37-6.12,11.37-6.12Z"/>
          </g>
          <path class="cls-28" d="m554.55,484.92l-6.55,80.75-21.32,125.04c.28.72.58,1.43.9,2.13h-14.17c.8-.38,1.36-.25,1.36-.25-4.38-53.33-7.37-103.23,0-127.86l-3.14-154.82h-12.53l-31.61,149.8c-4.64,40.87-20.31,89.27-43.61,132.88.5.04.98.13,1.42.25h-16.17l.96-1.51,29.45-135.38,14.42-138.04c5.01-58.19,26.95-90.72,26.95-90.72h59.54l5.38,24.98c9.38,43.58,12.31,88.31,8.7,132.75Z"/>
          <path class="cls-20" d="m551.59,275.29l-4.85,9.88-6.27,42.01h-59.54l-11.34-83.69c-.67-4.98,2.36-9.73,7.16-11.21,18.52-5.72,33.54-8.86,51.12-4.44,5.57,1.42,10.69,3.49,15.11,6.25l9.46,27.41c1.57,4.51,1.27,9.48-.85,13.79Z"/>
          <path class="cls-20" d="m538.26,317.85l-59.01,3.22s-30.52,61.55-28.24,97.74c0,0,75.8,20.56,108.17-2.63,0,0-11.13-79.04-20.92-98.33Z"/>
          <path class="cls-28" d="m515.86,273.31c-4.87,9.56-15.43,15.11-26.08,13.53-.93-.14-1.33,1.29-.39,1.43,11.29,1.67,22.56-4.01,27.75-14.21.43-.85-.84-1.6-1.28-.75Z"/>
          <g>
            <path class="cls-28" d="m530.86,413.63c-1.03-8.24-2.06-16.48-3.08-24.72-.12-.94,1.35-1.14,1.47-.19,1.02,8.18,2.04,16.36,3.06,24.54,4.54-.06,9.06-.53,13.51-1.39-.25-.07-.47-.25-.55-.56-1.61-6.44-2.9-12.96-3.86-19.53-.14-.94,1.33-1.13,1.47-.19.96,6.57,2.25,13.09,3.86,19.53.06.26-.01.45-.15.59,3.76-.77,7.47-1.82,11.09-3.17-2.41-9.92-4.82-19.84-7.23-29.77-.02-.1-.02-.18,0-.26-7.47.5-14.89,1.61-22.18,3.33-.16.07-.34.1-.51.06-.15-.02-.26-.09-.35-.19-.11-.1-.2-.23-.23-.41-.58-3.34-1.16-6.68-1.74-10.03-.16-.94,1.3-1.13,1.47-.19.53,3.07,1.06,6.13,1.6,9.2,7.32-1.7,14.76-2.8,22.25-3.28.65-.04.93.62.75,1.07.19.09.35.25.41.51,2.41,9.94,4.82,19.88,7.24,29.81.08.33-.06.56-.28.69.05.3-.06.61-.42.75-8.57,3.23-17.68,4.91-26.84,4.91-.64,0-.93-.69-.75-1.12Z"/>
            <path class="cls-28" d="m534.12,389.31c5.07.19,10.11-.78,14.77-2.79.88-.38,1.45.99.57,1.36-4.91,2.12-10.21,3.09-15.55,2.89-.95-.04-.74-1.5.21-1.47Z"/>
          </g>
          <g>
            <path class="cls-28" d="m486.11,413.63c1.03-8.24,2.06-16.48,3.08-24.72.12-.94-1.35-1.14-1.47-.19-1.02,8.18-2.04,16.36-3.06,24.54-4.54-.06-9.06-.53-13.51-1.39.25-.07.47-.25.55-.56,1.61-6.44,2.9-12.96,3.86-19.53.14-.94-1.33-1.13-1.47-.19-.96,6.57-2.25,13.09-3.86,19.53-.06.26.01.45.15.59-3.76-.77-7.47-1.82-11.09-3.17,2.41-9.92,4.82-19.84,7.23-29.77.02-.1.02-.18,0-.26,7.47.5,14.89,1.61,22.18,3.33.16.07.34.1.51.06.15-.02.26-.09.35-.19.11-.1.2-.23.23-.41.58-3.34,1.16-6.68,1.74-10.03.16-.94-1.3-1.13-1.47-.19-.53,3.07-1.06,6.13-1.6,9.2-7.32-1.7-14.76-2.8-22.25-3.28-.65-.04-.93.62-.75,1.07-.19.09-.35.25-.41.51-2.41,9.94-4.82,19.88-7.24,29.81-.08.33.06.56.28.69-.05.3.06.61.42.75,8.57,3.23,17.68,4.91,26.84,4.91.65,0,.93-.69.75-1.12Z"/>
            <path class="cls-28" d="m482.85,389.31c-5.07.19-10.11-.78-14.77-2.79-.88-.38-1.45.99-.57,1.36,4.91,2.12,10.21,3.09,15.55,2.89.95-.04.74-1.5-.21-1.47Z"/>
          </g>
          <path class="cls-28" d="m541.74,339.37c1.01,5.49,1.94,11,2.81,16.52.48-.1.96-.19,1.44-.27-.92-5.89-1.9-11.76-3-17.62-.03-.15-.1-.26-.18-.34-1.27-13.55-.67-27.26,1.86-40.63.74-3.92,1.65-7.8,2.71-11.64.06-.21.02-.4-.07-.54,2.82-4.18,5.5-8.62,6.22-13.68.81-5.65-1.24-11.03-3.13-16.26-1.1-3.05-2.17-6.15-2.57-9.38-.12-.93-1.6-.94-1.48,0,.68,5.52,3.13,10.53,4.7,15.81.78,2.62,1.31,5.32,1.17,8.07-.14,2.85-1.05,5.61-2.3,8.16-1.42,2.92-3.26,5.61-5.1,8.28-.37.54.11,1.04.62,1.06-3.4,13.03-5.04,26.53-4.77,40,.08,3.98.33,7.96.73,11.93.02.25.15.42.31.54Z"/>
          <path class="cls-28" d="m521.88,230.29c-.33-1.39-2.48-.8-2.14.59,1.31,5.47-1.94,11.27-7.01,13.47-5.52,2.4-12.02.7-16.13-3.53-2.28-2.34-3.81-5.3-4.56-8.47-.33-1.39-2.47-.8-2.14.59,1.52,6.48,6.3,12.27,12.82,14.09,6.54,1.82,13.87-.47,17.46-6.41,1.86-3.08,2.54-6.82,1.7-10.33Z"/>
          <g>
            <g>
              <path class="cls-21" d="m499.38,237.11h0c3.85,7.4,14.94,5.45,16.03-2.82l.11-.83c.82-2.76,1.14-5.64.92-8.52l-.21-3.02v-.51s-.13-9.75-.13-9.75l-20.12-2.19.29,8.05c.05,1.46.12,2.98.26,4.46.01.35.02,2,.02,3.85,0,.42,0,.84.06,1.25.16,3.5,1.11,6.91,2.76,10.02Z"/>
              <path class="cls-6" d="m497.41,227.21c2.97.38,6.08.18,9.15-.64.04,0,.07-.02.11-.03,5.74-1.56,9.54-7.05,9.46-13l-.03-1.88-20.12-2.19.29,8.05c.05,1.46.12,2.98.26,4.46.02.37.02,2.23.02,4.23.31.36.54.63.85.99Z"/>
              <path class="cls-21" d="m537.64,175.83c-1.17-.07-2.48.39-3.77,1.18-1.89-7.81-6.2-16.06-11.42-21.69-2.2-2.8-4.69-4.61-7.39-5.66-1.46-.67-2.93-1.11-4.4-1.21-1.01-.06-2-.08-2.98-.04-.98,0-1.97.07-2.98.17-1.46.16-2.91.67-4.34,1.4-2.65,1.18-5.06,3.09-7.13,5.99-4.96,5.85-8.91,14.29-10.45,22.18-1.32-.74-2.65-1.14-3.82-1.02-3.9.43-5.04,6.64-3.86,11.31,1.49,5.92,6.03,7.68,10.22,8.78,1.99,3.89,4.78,7.69,7.97,10.84,3.35,3.77,7.62,6.52,12.44,7.58.14.03.28.06.43.09.28.06.55.14.84.18.19.03.39.02.58.04.16.02.32.02.49.04.37.02.74.04,1.12.03.38,0,.75-.04,1.12-.08.16-.02.32-.03.48-.06.19-.03.39-.03.58-.07.28-.06.55-.15.83-.22.14-.04.28-.07.42-.11,4.77-1.27,8.92-4.21,12.1-8.13,3.04-3.29,5.66-7.21,7.48-11.18,4.14-1.28,8.59-3.24,9.82-9.22.97-4.72-.44-10.88-4.36-11.13Z"/>
              <path class="cls-11" d="m535.89,167.86c-.35-6.96-3.62-13.48-8.75-18.15-5.21-4.74-12.04-7.35-19.09-7.19-7.3.16-14.49,3.1-19.7,8.23-6.34-4.22-15.6-3.97-20.1,2.8-1.96,2.95-2.73,6.83-1.45,10.21.76,2.02,2.16,3.74,2.87,5.78.87,2.47.11,4.94-.76,7.3-.88,2.38-1.89,4.94-1.34,7.52.42,1.98,1.78,3.83,3.81,4.3.32.08.74-.16.7-.54-.32-3.77,1.82-7.58,5.3-9.14.5-.22,1.02-.4,1.54-.56.9,3.11,2.63,5.99,4.99,8.18,1.39,1.29,2.97,2.3,4.72,3.03.42.18.77-.32.68-.68-2-8.72,2.48-18.32,10.63-22.13,4.13-1.93,8.96-2.36,13.38-1.27,4.38,1.08,8.21,3.72,10.84,7.39,2.88,4.03,4.28,9.03,3.71,13.96-.06.49.64.72.95.39,4.9-5.15,7.43-12.34,7.07-19.43Z"/>
              <path class="cls-19" d="m546.93,172.93c-.17-2.78-.18-5.53-.1-8.31.08-2.67.12-5.35-.29-7.99-.34-2.18-.96-4.3-1.81-6.32-3.6-8.52-11.36-14.2-20.03-14.81-2.01-.14-4.03.02-6,.43-5.08-7.69-15.25-7.36-22.89-5.3-3.72,1.01-7.75,2.22-10.4,5.17-12.06,13.38-22.99,11.65-19.23,33.3,1.69,9.74-1.73,5.11-1.42,12.93.45,11.3,10.25,15.3,14.55,15.43,1.9.06,3.86-.7,5.18-2.19,1.54-1.73,1.75-4.05,1.54-6.33-.23-2.36-.71-4.69,0-7.01.6-2.01,1.88-3.69,3.34-5.05,3.3-3.07,7.67-4.75,11.85-5.87,4.63-1.24,9.45-1.63,14.21-1.18,2.34.23,4.68.64,6.94,1.33,1.88.57,3.77,1.39,5.29,2.72,1.63,1.42,2.61,3.38,2.66,5.65.05,2.62-.86,5.12-1.45,7.63-.83,3.56-.88,8.55,2.69,10.43,3.69,1.94,7.92-.86,10.42-3.69,3.04-3.44,4.8-7.89,5.15-12.61.21-2.79,0-5.58-.18-8.36Z"/>
              <g>
                <path class="cls-6" d="m517.23,194.1c-.31-.76-.89-1.38-1.37-2.04-.54-.75-1.01-1.55-1.4-2.38-.8-1.67-1.25-3.45-1.42-5.27-.05-.5-.63-.83-1.07-.76-.53.08-.75.55-.71,1.05.28,3.05,1.42,6.01,3.25,8.52.7.97,1.73,2.01.72,3.08-1.01,1.06-2.74.78-4.09.61-1.17-.15-1.29,1.67-.12,1.82,1.75.22,3.62.36,5.08-.71,1.2-.89,1.74-2.44,1.13-3.91Z"/>
                <path class="cls-11" d="m499.26,185.32c.23,1.69,1.34,2.99,2.49,2.91,1.14-.08,1.88-1.51,1.65-3.2-.23-1.69-1.34-2.99-2.49-2.91-1.14.08-1.88,1.51-1.65,3.2Z"/>
                <path class="cls-11" d="m517.29,185.24c.23,1.69,1.34,2.99,2.49,2.91,1.14-.08,1.88-1.51,1.65-3.2-.23-1.69-1.34-2.99-2.49-2.91-1.14.08-1.88,1.51-1.65,3.2Z"/>
                <path class="cls-11" d="m517.96,173.26c.4-.19.81-.18,1.19-.13,2.52.35,4.37,2.54,4.71,5.4-.15-.39-.34-.76-.61-1.04-.02-.02-.03-.02-.05-.04-.15-.19-.32-.36-.5-.5-.68-.51-1.55-.7-2.41-.86-.86-.16-1.74-.29-2.49-.7-.36-.19-.72-.52-.67-1.04.05-.46.43-.91.84-1.1Z"/>
                <path class="cls-11" d="m502.35,172.54c-.37-.28-.77-.37-1.15-.41-2.53-.25-4.65,1.46-5.39,4.2.2-.35.44-.67.75-.88.02-.01.04-.02.06-.03.17-.15.36-.28.56-.37.75-.34,1.62-.33,2.49-.28.87.05,1.75.12,2.55-.09.38-.11.78-.34.8-.86.02-.47-.3-1-.67-1.28Z"/>
                <path class="cls-6" d="m502.77,199.78c2.81,2.53,6.86,3.45,10.5,2.48,1.04-.28,1.43,1.35.39,1.63-4.24,1.14-8.86-.03-12.11-2.96-.8-.72.43-1.86,1.22-1.14Z"/>
              </g>
            </g>
            <path class="cls-20" d="m532.61,197.74c-1.47-2.52-2.38-5.36-2.56-8.27-.09-1.48,0-2.95.22-4.41.24-1.57.55-3.15.53-4.74-.08-5.98-5.18-10.11-10.57-11.53-2.97-.79-6.07-.88-9.12-.71-3.06.17-6.16.45-9.19.94-2.84.47-5.64,1.33-7.99,3.04-2.33,1.69-4.36,3.88-6.17,6.11-1.03,1.28-1.94,2.62-2.57,4.14-.6,1.46-.84,3.03-.94,4.59-.19,3.06.3,6.4-1.04,9.27-.25.54-.15,1.2.4,1.52.48.28,1.27.15,1.52-.4,2.33-5,0-10.89,2.88-15.69,1.37-2.28,3.34-4.31,5.26-6.13,2.02-1.91,4.3-3.19,7-3.86,2.74-.69,5.6-.89,8.4-1.14,3.03-.27,6.15-.46,9.16.06,4.83.82,10.44,3.87,10.72,9.39.09,1.71-.28,3.38-.52,5.06-.23,1.61-.33,3.22-.2,4.84.26,3.19,1.22,6.27,2.84,9.03.72,1.23,2.64.12,1.92-1.12Z"/>
          </g>
          <g>
            <g>
              <path class="cls-12" d="m446.94,439.1l-2.3,28.12c-.2,2.42.66,4.8,2.32,6.46l9.44,9.43c.82.82,2.22.29,2.29-.9.15-2.56-.9-6.96-7.26-12.64l.7-12.79s-.1,13.13,2,13.62c0,0,3.48,1.71,2.76-14.11,0,0,2.49-8.68-1.89-13.83l7.95-28.37-16.81-1.28.79,26.29Z"/>
              <path class="cls-20" d="m481.35,231.16l-1.33,39.77-18.17,165.67s-14.23,2.53-19.59-5.01l15.45-162.81c.69-7.3,2.4-14.49,5.4-21.08,4.26-9.36,10.06-15.47,18.24-16.54Z"/>
            </g>
            <path class="cls-28" d="m473.72,332.06c1.37-14.71,2.74-29.42,4.11-44.13.77-8.25,1.54-16.51,2.3-24.76.07-.71,1.18-.71,1.11,0-1.36,14.66-2.73,29.33-4.09,43.99-1.37,14.71-2.74,29.42-4.11,44.13-.77,8.25-1.54,16.51-2.3,24.76-.07.71-1.18.71-1.11,0,1.36-14.66,2.73-29.33,4.09-43.99Z"/>
          </g>
        </g>
        <g>
          <g>
            <path class="cls-13" d="m450.61,440.02l-.4,29.62c-.03,2.55-1.23,4.94-3.25,6.5l-11.43,8.83c-.99.76-2.49.06-2.44-1.19.11-2.69,1.73-7.17,9.35-12.43l.57-13.44s-1.26,13.73-3.64,14.02c0,0-4.02,1.41-1.57-15.04,0,0-1.84-9.33,3.54-14.25l-5.82-30.48,18.72.47-3.63,27.38Z"/>
            <path class="cls-12" d="m434.4,219.12l-2.7,41.69,2.7,174.99s15.46,4.17,22.18-3.13v-171.71c0-7.7-1.13-15.4-3.76-22.6-3.73-10.23-9.5-17.24-18.42-19.24Z"/>
          </g>
          <g>
            <path class="cls-13" d="m371.31,209.54v.08c-.01,1.38.18,3.36.58,5.62,1.19,6.95,4.21,9.64,8.07,10.59,8.67,2.11,16.96-4.8,17.07-13.71l.34-31.11c.05-5.08-4-9.23-9.07-9.3l-7.37-.08c-2.45-.03-4.69.9-6.34,2.45-1.79,1.66-2.92,4.01-2.95,6.64l-.33,28.82Z"/>
            <path class="cls-4" d="m371.31,209.54c.34,0,.67,0,1-.01,11.55-.6,20.44-10.53,20.56-22.1l.07-5.85c.04-4.12-4.03-7.51-9.1-7.56l-7.37-.08c-.64-.01-1.27.04-1.89.14-1.79,1.66-2.92,4.01-2.95,6.64l-.33,28.82Z"/>
            <path class="cls-13" d="m347.89,164.54c1.09,6.44,5.72,8.77,10.1,10.31.06.01.1.04.16.05,1.81,4.37,4.49,8.7,7.65,12.37,3.28,4.36,7.65,7.71,12.76,9.27.15.04.31.09.46.13.3.08.59.19.89.26.21.05.42.06.61.1.18.03.35.05.52.08.4.06.81.11,1.21.13.39.02.8.02,1.21,0,.17,0,.35-.01.52-.02.21-.02.42,0,.63-.02.3-.04.61-.11.91-.17.15-.02.32-.05.47-.08,5.26-.96,9.98-3.77,13.75-7.72,3.57-3.28,6.73-7.28,9.04-11.41.15-.03.32-.07.47-.11,4.44-1.03,9.14-2.86,10.92-8.99,1.46-5,.47-11.77-3.74-12.38-1.25-.18-2.71.2-4.17.95-1.36-8.58-5.29-17.87-10.43-24.39-2.13-3.22-4.66-5.38-7.48-6.76-1.52-.85-3.06-1.45-4.63-1.68-1.09-.16-2.15-.26-3.22-.31-1.05-.08-2.13-.11-3.23-.07-1.58.05-3.2.47-4.8,1.14-2.96,1.04-5.73,2.89-8.21,5.84-5.87,5.89-10.85,14.65-13.2,23.01-1.35-.91-2.76-1.46-4.03-1.43-4.24.12-6.01,6.73-5.14,11.87Z"/>
            <path class="cls-11" d="m398.68,158.92s0,0,.01,0c.07-.03.16-.03.24-.04-1.05-2.82-3.6-5.07-6.57-5.64-.47-.09-.96-.14-1.41.02-.45.16-.83.59-.8,1.06.03.53.52.9,1,1.14.98.49,2.07.71,3.14.96,1.07.25,2.15.53,3.07,1.12.54.35,1,.83,1.32,1.39Z"/>
            <path class="cls-11" d="m375.12,152.43c-.44-.18-.94-.15-1.41-.07-3.12.49-5.85,2.83-6.9,5.8.27-.41.58-.8.97-1.1.02-.02.05-.03.07-.04.22-.2.46-.39.72-.54.94-.56,2.03-.8,3.11-1.01,1.08-.21,2.17-.39,3.17-.84.48-.22.99-.57,1.04-1.1.05-.47-.32-.92-.76-1.09Z"/>
            <path class="cls-4" d="m382.53,174.03c-.96.17-1.94.15-2.87-.16-.45-.15-.91-.35-1.29-.62-.07-.05-.22-.15-.24-.24.02.07.02,0,.03-.04.02-.25.22-.54.32-.77.9-2.03,1.96-3.99,3.19-5.84.26-.39.27-.89-.12-1.21-.33-.27-.95-.27-1.21.12-.78,1.16-1.5,2.36-2.16,3.6-.31.59-.61,1.18-.89,1.78-.29.62-.65,1.28-.81,1.95-.35,1.48,1.14,2.35,2.32,2.78,1.25.46,2.59.6,3.9.36.46-.08.82-.45.77-.93-.04-.43-.48-.86-.94-.77Z"/>
            <path class="cls-11" d="m394.38,163.62c-.1,1.58-1.06,2.83-2.14,2.78-1.09-.04-1.89-1.36-1.79-2.94.1-1.58,1.06-2.83,2.14-2.78,1.09.04,1.89,1.36,1.79,2.94Z"/>
            <path class="cls-11" d="m374.83,163.62c-.1,1.58-1.06,2.83-2.14,2.78-1.09-.04-1.89-1.36-1.79-2.94.1-1.58,1.06-2.83,2.14-2.78,1.09.04,1.89,1.36,1.79,2.94Z"/>
            <path class="cls-4" d="m377.24,181.01c2.63.45,5.4.71,7.98-.14,2.02-.66,3.87-2.11,4.63-4.14.39-1.04,2.04-.51,1.65.54-.9,2.41-2.93,4.19-5.31,5.09-2.89,1.09-6.04.9-9.03.39-.47-.08-.85-.4-.83-.91.02-.43.45-.91.91-.83Z"/>
          </g>
          <path class="cls-17" d="m427.01,347.58c-.06,1.77,5.53,38.72,4.57,64.54-1.31,35.29-5.85,99.53-10.66,162.15-3.37,43.93-6.88,87.02-9.51,118.79-.67,7.96-1.28,15.18-1.81,21.56v.02c-.92,11.03-1.63,19.42-2.07,24.32-.26,3.18-.41,4.88-.41,4.88l-16.89.11-.06-4.88-.24-23.3-.18-16.51-1.37-124.78-1.75-159.45-.24-4.67-5.47,164.16-3.9,117.3-.8,24.02-.77,23.32-.17,4.88-17.15-1.27-1.37-49.41-7.75-118.63-9.34-142.87c-.17-1.27-.32-2.55-.45-3.83l-.21.09c-3.7-36.03,5.4-74.08,5.4-74.08l82.6-6.43Z"/>
          <path class="cls-22" d="m428.68,298.12c-2.33,25.28-1.99,44.75-1.99,44.75l1.8,8,2.84,12.6c.34,1.58-8.95,18.96-9.27,20.58-20.36,10.47-34.57,7.16-58.6,5.25-6.91-.55-13.98-1.54-21.27-2.94-.3-.08-.59-.12-.89-.18l-.57-1.13-2.41-4.88c-1.13-5.53-1.54-11.22-1.2-16.9,1.48-25.18-.14-51.48-2.69-74.47-.16-1.52-.34-3.04-.53-4.52-.99-8.51-2.13-16.49-3.26-23.74-2.65-16.92-3.08-33.29-3.14-41.05,4.19-2.96,8.95-5.15,14.06-6.42l14.1-3.53c4.32-.65,8.65-1.05,13.01-1.2l2.67-.1c1.72,10.27,12.12,10.47,12.12,10.47,0,0,12.82.47,13.92-10.47,5.02.85,12.78,2.74,20.62,4.78,0,0,.04,0,.1.02,1.54.41,3.08.81,4.6,1.24,4.19,1.11,16.09,6.33,16.09,6.33-6.91,16.9-5.45,40.16-8.02,59.19-.53,3.79-.97,7.52-1.38,11.16-.26,2.43-.49,4.82-.71,7.15Z"/>
          <path class="cls-10" d="m396.97,227.6c-4.65-.45-8.97-2.77-12.02-6.29-.09-.59-.82-1.05-1.31-.48-3.26,3.82-7.55,6.64-12.36,8.1-.97.29-.56,1.83.42,1.53,4.73-1.43,9.02-4.13,12.37-7.76,3.31,3.69,7.96,6.01,12.89,6.49,1.02.1,1.01-1.49,0-1.59Z"/>
          <g>
            <path class="cls-12" d="m371.34,208.25l-.77,43.58-1.09,61.99-2.86,161.69c-.47,26.24-15.56,50-39.12,61.57l7.68-187.22-7.68-130.37s7.23-4.05,17.04-7.33c7.82-2.61,17.26-4.76,26.03-3.97.26,0,.51.04.77.06Z"/>
            <path class="cls-3" d="m370.57,208.19v43.64l-1.09,61.99-20.42-34.46,11.65-13.66-15.22-15.03-.95-38.51c7.82-2.61,17.26-4.76,26.03-3.97Z"/>
          </g>
          <g>
            <path class="cls-12" d="m440.97,219.49s-20.95-11.75-40.03-11.47c-.55,0-1.07,0-1.58.04-.75.04-1.5.1-2.23.18l1.84,104.32,2.88,162.95c.45,26.24,15.56,50,39.12,61.57l-7.68-187.22,7.68-130.37Z"/>
            <path class="cls-1" d="m435.21,393.78c-.47-21.84-.28-43.7.58-65.52.48-12.23,1.16-24.45,2.05-36.63.05-.69-.46-1.28-.93-1.28-.55,0-.88.59-.93,1.28-1.59,21.74-2.52,43.57-2.8,65.41-.27,21.85.12,43.71,1.16,65.51.59,12.22,1.38,24.42,2.38,36.59.06.69.39,1.28.93,1.28.46,0,.99-.59.93-1.28-1.78-21.71-2.91-43.52-3.38-65.36Z"/>
            <path class="cls-3" d="m422.21,250.67l-15.21,15.03,11.65,13.66-19.67,33.21-1.84-104.32v-.06c.73-.08,1.48-.12,2.23-.12.51-.04,1.03-.04,1.58-.04,7.64,0,15.52,1.88,22.22,4.13l-.95,38.51Z"/>
            <path class="cls-3" d="m429.68,306.28h-23.82c-.4,0-.64.25-.73.55-.12.13-.2.29-.2.51v6.84c0,.36.2.58.45.69.06.34.3.63.74.63h22.77c.2,0,.35-.07.47-.17.42.03.85-.22.85-.76v-6.92c.43-.43.26-1.37-.53-1.37Zm-1.06,7.63h-22.1v-6.05h22.1v6.05Z"/>
            <g>
              <path class="cls-17" d="m410.54,299.03h1.92c.61,0,1.1.49,1.1,1.1v6.15h-4.12v-6.15c0-.61.49-1.1,1.1-1.1Z"/>
              <path class="cls-11" d="m414.67,299.03h1.92c.61,0,1.1.49,1.1,1.1v6.15h-4.12v-6.15c0-.61.49-1.1,1.1-1.1Z"/>
              <path class="cls-17" d="m418.79,299.03h1.92c.61,0,1.1.49,1.1,1.1v6.15h-4.12v-6.15c0-.61.49-1.1,1.1-1.1Z"/>
              <path class="cls-11" d="m422.91,299.03h1.92c.61,0,1.1.49,1.1,1.1v6.15h-4.12v-6.15c0-.61.49-1.1,1.1-1.1Z"/>
            </g>
          </g>
          <path class="cls-12" d="m337.29,270.33l-3.38,13.96-19.02,78.69c-5.37.06-10.21-1.72-14.45-5.75-6.22-5.92-8.77-14.79-7.44-23.28,5.31-33.85,11.41-65.34,18.96-92.67.2-.73.43-1.44.67-2.17,2.71-8.08,8.02-14.83,14.87-19.61,4.19-2.96,8.95-5.15,14.06-6.42l-4.27,57.25Z"/>
          <g>
            <path class="cls-11" d="m350.25,214.73c6.06-5.09,13.41-8.55,21.17-10.29v2.11c-8.12,1.9-15.86,5.75-21.84,11.53-7.54,7.29-11.95,18.03-10.03,28.53.24,1.28-1.7,1.82-1.94.55-2.25-12.24,3.3-24.55,12.64-32.42Z"/>
            <g>
              <path class="cls-11" d="m353.03,255.97c-.07-.14-.17-.27-.32-.38l-13.64-9.9c-1.06-.77-2.07.99-1.02,1.75,4.48,3.25,8.96,6.51,13.44,9.76v35.81l-7.24,5.18c-.47-.08-.96-.05-1.43.12-.67.25-1.24.67-1.71,1.19-.47.52-.95,1.09-1.2,1.76-.27.72-.07,1.61.53,2.1,1.04.85,2.54.71,3.58-.08.59-.45,1.01-.99,1.29-1.67.2-.51.23-1.14.01-1.67.04-.04.09-.08.12-.13h0c2.52-1.81,5.04-3.61,7.56-5.41,0,0,.01-.02.02-.02.28-.15.49-.42.49-.83v-36.75c0-.41-.21-.68-.49-.83Z"/>
              <path class="cls-11" d="m323.33,256.8v36.75c0,.42.21.68.49.83,0,0,.01.02.02.02l7.56,5.41h0c.03.05.08.09.12.13-.22.52-.19,1.16.01,1.67.27.69.7,1.23,1.29,1.67,1.04.79,2.54.92,3.58.08.6-.49.8-1.38.53-2.1-.25-.67-.72-1.24-1.2-1.76-.48-.53-1.05-.94-1.71-1.19-.46-.17-.95-.2-1.43-.12l-7.24-5.18v-35.81c4.48-3.25,8.96-6.51,13.44-9.76,1.05-.76.03-2.52-1.02-1.75l-13.64,9.9c-.15.11-.25.24-.32.38-.28.15-.49.42-.49.83Z"/>
            </g>
            <path class="cls-11" d="m431.57,273.75c.14,1.3-1.88,1.3-2.03,0-1.44-12.93.95-26.36-2.96-38.98-2.9-9.3-9.4-17.3-17.59-22.51-3.69-2.35-7.7-4.11-11.87-5.29v-2.11c5.41,1.48,10.56,3.85,15.11,7.15,8.35,6.06,14.61,14.81,17.04,24.9,2.9,12.07.93,24.6,2.29,36.83Z"/>
            <g>
              <path class="cls-11" d="m436.48,275.77c0,3.16-2.56,5.71-5.71,5.71s-5.71-2.56-5.71-5.71,2.56-5.71,5.71-5.71,5.71,2.56,5.71,5.71Z"/>
              <path class="cls-3" d="m434.81,275.77c0,2.23-1.81,4.04-4.04,4.04s-4.04-1.81-4.04-4.04,1.81-4.04,4.04-4.04,4.04,1.81,4.04,4.04Z"/>
            </g>
          </g>
          <g>
            <polygon class="cls-17" points="352.43 345.03 318.29 354.58 282.77 288.66 293.82 289.38 318.95 291.01 330.1 291.74 352.43 345.03"/>
            <g>
              <path class="cls-13" d="m346.05,316.52l-4.59-.83c-1.2-.22-2.11,1.07-1.51,2.13l1.16,2.02-9.18,4.59c-2.34,1.17-3.84,3.55-3.87,6.17l-.17,14.11s-6.95,3.75-17.93-5.41c-6.89,5-8.32,12.16-5.18,21.14,0,0,12.8,9.81,35.21-5.88l14.5-9.54c2-1.32,3.2-3.55,3.2-5.94v-7.6c0-1.74-.59-3.43-1.67-4.79l-6.34-8c-.91-1.14-2.2-1.92-3.63-2.18Z"/>
              <path class="cls-4" d="m342.46,320.25c1.05-.75,1.82.15,1.97,1.01.25,1.38-.75,2.75-1.59,3.74-1.98,2.33-4.62,3.93-7.2,5.5-1.11.68-.1,2.43,1.02,1.75,3.31-2.01,6.95-4.21,8.95-7.65.94-1.62,1.3-3.73.11-5.33-1.09-1.48-3.38-1.85-4.7-.44-.89.95.54,2.39,1.43,1.43h0Z"/>
            </g>
            <path class="cls-7" d="m312.83,304.64c-6.06,2.73-13.83-1.46-17.37-9.34-.87-1.97-1.41-3.98-1.63-5.92l25.13,1.63c.78,6.01-1.49,11.55-6.12,13.63Z"/>
          </g>
          <g>
            <path class="cls-3" d="m361.54,416.55c-.03-8.91-.07-17.81-.1-26.72,0-1.02-1.26-1.02-1.25,0,.03,8.84.07,17.68.1,26.52-3.82.57-7.67.69-11.49.38.2-.11.37-.33.4-.67.65-7.07,1.02-14.18,1.11-21.3.01-1.02-1.24-1.02-1.25,0-.09,7.12-.47,14.23-1.11,21.3-.03.28.06.48.19.6-3.25-.3-6.47-.9-9.66-1.84.94-10.89,1.88-21.77,2.82-32.65,0-.11,0-.2-.02-.28,6.33-.5,12.68-.34,18.98.48.14.05.29.05.43,0,.12-.04.21-.13.27-.25.08-.12.14-.27.15-.47.12-3.63.25-7.27.37-10.9.03-1.02-1.22-1.02-1.25,0-.11,3.33-.23,6.67-.34,10-6.33-.8-12.7-.95-19.04-.42-.55.05-.71.79-.51,1.24-.15.12-.27.32-.29.6-.94,10.9-1.89,21.8-2.83,32.71-.03.36.11.59.31.69-.01.32.11.64.44.74,7.55,2.26,15.38,2.78,23.07,1.52.54-.09.71-.86.5-1.29Z"/>
            <path class="cls-3" d="m356.16,391.14c-4.23.9-8.58.57-12.7-.92-.78-.28-1.11,1.25-.33,1.53,4.35,1.58,8.91,1.87,13.37.92.79-.17.46-1.7-.33-1.53Z"/>
          </g>
          <g>
            <path class="cls-3" d="m406.33,416.55c.03-8.91.07-17.81.1-26.72,0-1.02,1.26-1.02,1.25,0-.03,8.84-.07,17.68-.1,26.52,3.82.57,7.67.69,11.49.38-.2-.11-.37-.33-.4-.67-.65-7.07-1.02-14.18-1.11-21.3-.01-1.02,1.24-1.02,1.25,0,.09,7.12.47,14.23,1.11,21.3.03.28-.06.48-.19.6,3.25-.3,6.47-.9,9.66-1.84-.94-10.89-1.88-21.77-2.82-32.65,0-.11,0-.2.02-.28-6.33-.5-12.68-.34-18.98.48-.14.05-.29.05-.43,0-.12-.04-.21-.13-.27-.25-.08-.12-.14-.27-.15-.47-.12-3.63-.25-7.27-.37-10.9-.03-1.02,1.22-1.02,1.25,0,.11,3.33.23,6.67.34,10,6.33-.8,12.7-.95,19.04-.42.55.05.71.79.51,1.24.15.12.27.32.29.6.94,10.9,1.89,21.8,2.83,32.71.03.36-.11.59-.31.69.01.32-.11.64-.44.74-7.55,2.26-15.38,2.78-23.07,1.52-.54-.09-.71-.86-.5-1.29Z"/>
            <path class="cls-3" d="m411.72,391.14c4.23.9,8.58.57,12.7-.92.78-.28,1.11,1.25.33,1.53-4.35,1.58-8.91,1.87-13.37.92-.79-.17-.46-1.7.33-1.53Z"/>
          </g>
          <g>
            <path class="cls-22" d="m370.48,200.26s.04.09.06.13c0-.01-.01-.02-.02-.04,0,0,0,0,0,.01,0,.03.02.05.04.07.02.02.04.03.07.04.05.01.11,0,.15-.04.03-.03.06-.06.09-.1,0-.01.02-.02.02-.03,0-.01.01-.02.02-.04v-.04s0-.04,0-.06c0-.01-.01-.02-.02-.03,0-.01-.02-.02-.03-.03,0,0-.02-.02-.03-.02-.02,0-.04-.01-.06-.01-.03,0-.06,0-.1,0h.04s-.03,0-.04,0c.01,0,.02.01.04.02,0,0,0,0,0,0-.02-.01-.04-.02-.06-.02-.02,0-.04,0-.06,0-.02,0-.04.01-.05.03-.02.01-.03.02-.04.04-.02.03-.03.08-.02.12,0,.01.01.02.02.04.01.02.03.04.05.05.02,0,.04.02.07.02.02,0,.05,0,.07,0,.02,0,.05,0,.07,0-.04-.09-.07-.17-.11-.26-.03.03-.06.06-.09.1.08.02.17.04.25.07-.02-.04-.04-.09-.06-.13,0,.01,0,.02.02.04,0,0,0,0,0-.01,0-.02-.01-.04-.03-.05-.01-.02-.02-.03-.04-.04-.02-.01-.04-.02-.06-.02-.02,0-.04,0-.06,0-.04.01-.07.03-.09.07,0,.01-.01.02-.02.04,0,.03,0,.05,0,.08Z"/>
            <g>
              <path class="cls-22" d="m371.42,198.09c-4.63.83-9.02,6.37-10.56,9.93l.7,22.63c7.4,1.89,17.12-4.97,22.78-11.94-6.01-4.52-10.15-13.63-12.92-20.62Z"/>
              <path class="cls-22" d="m397.23,198.09c4.63.83,9.02,6.37,10.56,9.93l-.7,22.63c-7.4,1.89-17.08-4.97-22.75-11.94,6.01-4.52,10.12-13.63,12.89-20.62Z"/>
            </g>
          </g>
          <g>
            <path class="cls-11" d="m418.06,157.52c.01-8.87-1.63-17.73-4.81-26.01-1.12-2.91-2.95-6.1-5.91-6.72-.32-.61-.73-1.18-1.22-1.66-1.44-1.39-3.36-2.15-5.23-2.88-7.3-2.85-14.95-5.74-22.75-4.99-5.47.52-10.65,2.83-15.23,5.88-4.58,3.04-8.62,6.81-12.64,10.55,2.71-.49,5.41-.97,8.12-1.46-5.39,8.35-10.77,16.7-16.16,25.05,2.83-2.01,5.66-4.01,8.5-6.02-2.82,2.15-3.09,6.41-1.91,9.75,1.18,3.34,3.48,6.15,5.1,9.31s2.51,7.08.76,10.16c2.54-1.84,4.38-4.62,5.09-7.67-.92,3.36.87,7.26,4.03,8.75-1.54-8.94-.29-18.33,3.46-26.6,6.97-4.67,13.44-10.07,19.28-16.1-1.92,5.59-2.97,11.47-3.11,17.38,4.22-4.07,7.85-8.76,10.72-13.88-.67,5.31,2.2,10.35,4.93,14.95,2.73,4.6,5.53,9.7,4.71,14.99,2.58-2.87,4.4-6.42,5.2-10.2-.66,2.45.58,5.27,2.83,6.45-.6-3.6.41-7.43,2.71-10.26,1.19.41,2.38.82,3.58,1.23Z"/>
            <g class="cls-31">
              <path class="cls-2" d="m387.78,128.1c-6.88,3.81-12.89,9.01-17.69,15.23-.62.81.75,1.6,1.37.8,4.63-6,10.49-10.99,17.12-14.66.89-.49.09-1.86-.8-1.37Z"/>
              <path class="cls-2" d="m369.73,131.35c-9.58,7.59-14.92,20.06-13.82,32.23.09,1.01,1.68,1.02,1.59,0-1.07-11.81,4.06-23.75,13.35-31.11.8-.63-.33-1.75-1.12-1.12Z"/>
              <path class="cls-2" d="m356.23,141.42c-3.71,4.27-5.33,9.99-4.45,15.57.16,1.01,1.69.58,1.53-.42-.79-4.98.74-10.23,4.04-14.03.67-.77-.45-1.89-1.12-1.12Z"/>
              <path class="cls-2" d="m366.05,146.74c-.34-.2-.91-.11-1.09.28-1.09,2.5-2,5.06-2.71,7.69-.27.99,1.26,1.41,1.53.42.67-2.49,1.52-4.94,2.55-7.31.17-.39.12-.85-.28-1.09Z"/>
              <path class="cls-2" d="m391.56,122.47c-9.66-3.69-21.11-1.41-28.7,5.59-.75.69.37,1.81,1.12,1.12,7.2-6.65,18.02-8.67,27.15-5.18.95.36,1.37-1.17.42-1.53Z"/>
              <path class="cls-2" d="m404.62,155.97c-4.83-7.93-6.1-17.72-3.46-26.63.29-.98-1.24-1.4-1.53-.42-2.76,9.29-1.42,19.57,3.62,27.85.53.87,1.9.07,1.37-.8Z"/>
              <path class="cls-2" d="m406.29,136.24c-.03-1.02-1.62-1.02-1.59,0,.13,4.08.07,8.17-.2,12.24-.07,1.02,1.52,1.02,1.59,0,.27-4.07.34-8.16.2-12.24Z"/>
              <path class="cls-2" d="m408.56,129.48c-.53-.87-1.9-.08-1.37.8,4,6.59,5.28,14.6,3.53,22.11-.23.99,1.3,1.42,1.53.42,1.85-7.92.53-16.37-3.68-23.33Z"/>
              <path class="cls-2" d="m394.88,130.95c-.4-.24-.83-.06-1.09.28-2.13,2.89-4.07,5.92-5.81,9.07-.49.89.88,1.7,1.37.8,1.74-3.15,3.68-6.18,5.81-9.07.25-.35.06-.89-.28-1.09Z"/>
            </g>
          </g>
        </g>
      </g>
    </g>
  </g>
</svg>