<?xml version="1.0" encoding="UTF-8"?>
<svg id="Layer_1" data-name="Layer 1" xmlns="http://www.w3.org/2000/svg" viewBox="0 0 104.51 102.13">
  <defs>
    <style>
      .cls-1 {
        fill: #f4ac77;
      }

      .cls-2 {
        fill: #fff;
      }

      .cls-3 {
        fill: #d08252;
      }
    </style>
  </defs>
  <rect class="cls-1" x="5.2" y="4.01" width="94.1" height="94.1" rx="12.55" ry="12.55"/>
  <path class="cls-3" d="m86.76,98.12h-24.57s-9.91-9.16-9.91-9.16l-3.19-4.21c.61-.27,1.24-.59,1.85-.95-.07-.07-1.6-1.59-1.64-1.64-.86-.83-1.3-1.82-1.3-2.94,0-1.52.64-2.74,1.69-3.68-.09-.09-.98-.98-1.08-1.09-.81-.71-1.16-1.58-1.16-2.73,0-1.3.49-2.3,1.5-3.08-.09-.09-1.35-1.34-1.44-1.44-.79-.77-1.17-1.73-1.19-2.98-.03-2.07.93-3.23,2.42-4.14-.06-.06-2.11-2.1-2.2-2.2-1.13-1.07-1.65-2.37-1.65-4.04,0-.79.15-1.5.44-2.14-.14-.15-5.51-5.5-5.68-5.69-.54-.51-.93-1.1-1.14-1.8-.23-.21-16.64-16.61-16.81-16.81-.48-.42-.63-.81-.42-1.03.04-.04.17-.08.38-.14-.1-.1-4.92-4.91-5.01-5.02-.5-.46-.69-.85-.52-1.03.27-.28,5.18-.29,9.93-.25.18.46,2.85,3.03,3.51,3.37,0,0,0-.01-.01-.02-.81-.78-2.5-2.31-2.91-3.34,3.42,0,8.47.11,8.66.02.37-.16,3.44-1.58,6.23-1.15,1.5.24,2.55.78,3.19,1.48.08.07,5.4,5.4,5.5,5.49,0-.42,0-.67,0-.71.06-.34.3-.87.64-1.33l-1.36-1.35c-.46-.56-.73-1.26-.73-2.02,0-1.8,1.51-3.26,3.36-3.26.8,0,1.54.27,2.12.73,0,0,4.75,4.75,4.75,4.76-.21-1.68,1.02-3.32,3.97-3.78,2.79-.43,5.86.98,6.22,1.15.19.09,5.24-.02,8.66-.02-.13.32.29.77.59,0,4.75-.04,9.66-.03,9.93.25-1.14-1.21,10.92,10.97,10.92,10.97v54.42c0,6.93-5.62,12.55-12.55,12.55Z"/>
  <g>
    <path class="cls-2" d="m83.23,26.36c-.2-.2-2.84-.59-5.99-.99l-.13.14c-1.25,1.33-4.4,2.37-7.21,2.4,1.86.53,3.96,1.02,5.9,1.17,5.05.39,8.14-2.03,7.44-2.72Z"/>
    <path class="cls-2" d="m65.87,24.04s5.88.62,10.74,1.24c-1.31,1.4-4.95,2.53-8.03,2.28-2.43-.76-4.22-1.52-4.22-1.52l1.51-2Z"/>
    <path class="cls-2" d="m77.03,31.42c-.09-.18-1.98-.91-4.26-1.74l-.19.11c-.89.52-2.39.82-4,.82h0c-.77,0-1.51-.07-2.19-.2,1.24.69,2.67,1.38,4.07,1.8,3.8,1.15,6.92-.16,6.59-.8Z"/>
    <path class="cls-2" d="m64.29,26.72s4.37,1.47,7.95,2.76c-1.43.83-4.6,1.08-6.91.36-1.65-.99-2.81-1.87-2.81-1.87l1.77-1.26Z"/>
    <path class="cls-2" d="m67.44,32.31l-.19.06c-.46.15-1.03.23-1.67.23h0c-1.2,0-2.45-.27-3.45-.71.73.76,1.6,1.54,2.54,2.11,2.59,1.57,5.5.98,5.47.39-.01-.16-1.21-1.05-2.69-2.08Z"/>
    <path class="cls-2" d="m61.53,28.32s2.93,1.92,5.3,3.57c-1.42.46-4,.16-5.57-.81-.96-1.09-1.56-2-1.56-2l1.83-.76Z"/>
    <path class="cls-2" d="m61.98,33.59l-.16.02c-.11,0-.22.02-.34.02-1.13,0-2.71-.5-3.74-1.37.31.76.72,1.56,1.27,2.19,1.53,1.78,4.16,1.83,4.36,1.33.06-.14-.57-1.07-1.38-2.19Z"/>
    <path class="cls-2" d="m58.71,29.26s1.67,2.14,2.99,3.95c-1.35.12-3.36-.6-4.28-1.69-.37-1.08-.52-1.95-.52-1.95l1.81-.3Z"/>
    <path class="cls-2" d="m57.33,34.93l-.12-.05c-.08-.03-.17-.07-.25-.11-.82-.39-1.84-1.31-2.34-2.3,0,.66.08,1.39.3,2.04.61,1.83,2.52,2.79,2.8,2.5.08-.08-.11-.99-.39-2.08Z"/>
    <path class="cls-2" d="m56.15,30.48s.61,2.14,1.06,3.92c-1.02-.38-2.28-1.61-2.64-2.73.04-.92.17-1.61.17-1.61l1.4.42Z"/>
    <path class="cls-2" d="m88.38,20.18c-.27-.28-5.18-.29-9.93-.25l-.04.1c-.52,1.29-2.23,3.05-5.37,4.03,2.92.07,6.15.06,8.25-.25,4.91-.71,7.59-3.09,7.08-3.64Z"/>
    <path class="cls-2" d="m52.26,29.83c7.07,0,8.02-4.91,8.02-4.91-2.25-2.17-1.65-5.43,2.71-6.11,2.79-.43,5.86.98,6.22,1.15.19.09,5.24-.02,8.66-.02-.42,1.05-2.1,3.14-6.02,4.1-3.01-.16-5.75-.29-5.75-.29,0,0-2.45,7.99-13.84,7.99v-1.91Z"/>
    <path class="cls-2" d="m21.28,26.36c.2-.2,2.84-.59,5.99-.99l.13.14c1.25,1.33,4.4,2.37,7.22,2.4-1.86.53-3.96,1.02-5.9,1.17-5.05.39-8.14-2.03-7.44-2.72Z"/>
    <path class="cls-2" d="m38.64,24.04s-5.87.62-10.74,1.24c1.31,1.4,4.95,2.53,8.03,2.28,2.43-.76,4.22-1.52,4.22-1.52l-1.51-2Z"/>
    <path class="cls-2" d="m27.48,31.42c.09-.18,1.98-.91,4.26-1.74l.2.11c.89.52,2.38.82,4,.82h0c.77,0,1.51-.07,2.2-.2-1.24.69-2.67,1.38-4.07,1.8-3.8,1.15-6.92-.16-6.59-.8Z"/>
    <path class="cls-2" d="m40.23,26.72s-4.37,1.47-7.95,2.76c1.43.83,4.6,1.08,6.91.36,1.66-.99,2.81-1.87,2.81-1.87l-1.77-1.26Z"/>
    <path class="cls-2" d="m37.07,32.31l.19.06c.46.15,1.03.23,1.67.23h0c1.2,0,2.45-.27,3.45-.71-.73.76-1.6,1.54-2.54,2.11-2.59,1.57-5.5.98-5.47.39.01-.16,1.21-1.05,2.69-2.08Z"/>
    <path class="cls-2" d="m42.98,28.32s-2.93,1.92-5.3,3.57c1.42.46,4,.16,5.57-.81.96-1.09,1.56-2,1.56-2l-1.83-.76Z"/>
    <path class="cls-2" d="m42.53,33.59l.16.02c.11,0,.22.02.34.02,1.13,0,2.71-.5,3.74-1.37-.31.76-.72,1.56-1.27,2.19-1.53,1.78-4.16,1.83-4.36,1.33-.05-.14.58-1.07,1.39-2.19Z"/>
    <path class="cls-2" d="m45.8,29.26s-1.67,2.14-2.99,3.95c1.35.12,3.36-.6,4.29-1.69.37-1.08.52-1.95.52-1.95l-1.81-.3Z"/>
    <path class="cls-2" d="m47.18,34.93l.12-.05c.08-.03.17-.07.25-.11.82-.39,1.83-1.31,2.34-2.3,0,.66-.08,1.39-.3,2.04-.61,1.83-2.52,2.79-2.8,2.5-.08-.08.12-.99.39-2.08Z"/>
    <path class="cls-2" d="m48.36,30.48s-.61,2.14-1.06,3.92c1.02-.38,2.28-1.61,2.64-2.73-.03-.92-.18-1.61-.18-1.61l-1.4.42Z"/>
    <path class="cls-2" d="m16.13,20.18c.27-.28,5.18-.29,9.93-.25l.04.1c.52,1.29,2.23,3.05,5.37,4.03-2.92.07-6.15.06-8.25-.25-4.91-.71-7.6-3.09-7.08-3.64Z"/>
    <path class="cls-2" d="m52.26,29.83c-7.07,0-8.02-4.91-8.02-4.91,2.25-2.17,1.65-5.43-2.71-6.11-2.79-.43-5.86.98-6.23,1.15-.19.09-5.24-.02-8.66-.02.42,1.05,2.1,3.14,6.02,4.1,3.01-.16,5.75-.29,5.75-.29,0,0,2.45,7.99,13.84,7.99v-1.91Z"/>
    <path class="cls-2" d="m54.32,25.07c-.13-.71-1.02-2.26-2.05-2.26s-1.92,1.55-2.04,2.26c-.13.71,1.53,63.88,2.04,63.88s2.17-63.17,2.05-63.88Z"/>
    <path class="cls-2" d="m50.34,19.39c.8-1.01,2.01-1.59,3.3-1.59.21,0,.42.02.62.05-.58-.46-1.31-.73-2.12-.73-1.86,0-3.36,1.46-3.36,3.26,0,.76.27,1.47.73,2.02-.15-1.06.14-2.14.82-3.01Z"/>
    <path class="cls-2" d="m50.01,22.92c.6.53,1.39.85,2.26.85,1.86,0,3.36-1.46,3.36-3.26,0-.83-.32-1.59-.85-2.16-1.45-.4-3.1.09-4.09,1.35-.76.96-.97,2.15-.68,3.22Z"/>
    <path class="cls-2" d="m47.28,48.8c.99-.61,2.21-1.1,3.79-1.53-.08-.01-.15-.03-.23-.05-.52-.1-1.08-.2-1.71-.3-4.1-.7-8.34-1.41-8.34-3.67,0-1.64.95-2.04,1.56-2.12l.05-2.68c-2.44.33-4.06,2.1-4.06,4.63,0,3.69,4.36,4.93,8.94,5.74h0Z"/>
    <path class="cls-2" d="m55.47,84.74c-.55-.24-1.15-.54-1.74-.88-.21.11-.43.21-.66.31,0,0,0,0,.01,0,.83.25,1.65.43,2.39.57h0Z"/>
    <path class="cls-2" d="m55.62,59.92c1.84,1.06,2.65,2.38,2.62,4.29-.04,2.85-1.98,3.95-4.74,4.78-2.23.69-3.87,1.23-3.88,2.72,0,1.02.73,1.51,2.09,1.98,0,0-.67.37-1.06.6-.55.31-1.13.78-1.13.78-1.45-.82-2.06-1.85-2.06-3.36,0-1.3.49-2.3,1.5-3.08,1.15-.88,2.75-1.34,3.91-1.71,2.14-.64,3.19-1.31,3.21-2.74.03-1.71-1.76-2.72-3.2-3.16.37-.14,1.3-.5,1.58-.61.36-.14,1.16-.49,1.16-.49Z"/>
    <path class="cls-2" d="m48.92,59.45c-2.83-1.35-4.03-3.03-4.03-5.61,0-1.93.85-3.41,2.6-4.52,2.08-1.32,5.23-1.95,7.93-2.39,4.1-.7,8.34-1.41,8.34-3.67,0-1.64-.95-2.04-1.56-2.12l-.05-2.68c2.68.31,3.94,2.11,3.94,4.69,0,3.72-4.3,4.88-8.93,5.69-4.58.8-10.11,1.59-10.11,5.02,0,2.12,1.25,2.94,3.73,4.06.37.17.73.36.73.36-.35.13-.78.29-1.16.45-.59.26-1.43.74-1.43.74Z"/>
    <path class="cls-2" d="m54.95,75.58c1.08,1.01,1.6,2.22,1.6,3.63,0,1.7-.99,3.08-2.94,4.1-1.37.72-3.02,1.15-4.53,1.43,2.43-1.07,5.24-2.89,5.31-5.53.02-.98-.48-1.93-1.7-2.59-.11-.06,2.1-.98,2.26-1.04Z"/>
    <path class="cls-2" d="m51.08,58.91c2.58-1.12,6.42-1.68,6.42-5.08,0-2.13-2.09-3.12-4.14-3.76,1.41-.31,2.56-.48,3.79-.7,1.69,1.1,2.52,2.56,2.52,4.47,0,2.54-1.17,4.2-3.91,5.55-4.77,2.04-7.32,2.39-7.28,4.8.02,1.45,1.1,2.07,2.9,2.65-.91.31-1.84.7-2.62,1.27-1.66-.88-2.42-2.09-2.44-3.88-.05-3.02,1.99-4.11,4.76-5.3Z"/>
    <path class="cls-2" d="m51.17,74.49c2.04-1.1,3.77-1.18,3.77-2.77,0-1.07-.87-1.61-1.85-2.02.57-.19,1.63-.47,2.65-.96.92.76,1.37,1.74,1.37,2.98.01,3-2.46,3.45-4.79,4.62-1.24.61-2.18,1.5-2.15,2.88.03,1.31.74,2.41,1.7,3.29-.31.25-.67.5-1.06.74-1.86-1.01-2.81-2.37-2.81-4.03,0-2.15,1.27-3.7,3.17-4.72Z"/>
    <path class="cls-2" d="m62.95,41.39s-.75.83-2.09,1.09c-1.77.35-2.94.14-3.1-.16-.17-.3,2.51-.34,3.31-.88.8-.54.3-1.45.3-1.45,0,0-.65.69-1.82.92-1.17.24-3.04.26-3.1-.32-.06-.57,2.6-2.7,5.71-2.16l.8,2.95Zm-3.42-2.54c-.36.11-.68.38-.63.52.04.14.53.23.89.12.36-.11.64-.35.59-.48-.05-.14-.49-.27-.85-.15Z"/>
    <path class="cls-2" d="m61.22,41.32s-1.09-.34-1.85-.27c-.71.06-1.37.69-1.96.63-.52-.06-.96-.4-1.12-.37-.15.02-.34.23,0,.39.34.15.72.36,1.24.33.78-.05,1.43-.58,1.99-.58s1.41.31,1.41.31l.3-.43Z"/>
    <path class="cls-2" d="m42.4,38.44c3.11-.54,5.77,1.59,5.71,2.16-.06.57-1.92.55-3.1.32-1.17-.23-1.82-.92-1.82-.92,0,0-.5.91.3,1.45.8.54,3.48.58,3.31.88-.16.3-1.33.5-3.1.16-1.34-.26-2.09-1.09-2.09-1.09l.8-2.95Zm1.78.56c-.04.14.23.37.59.48.36.12.85.02.89-.12.04-.14-.28-.41-.63-.52-.36-.12-.8,0-.85.15Z"/>
    <path class="cls-2" d="m43.33,41.32s1.09-.34,1.85-.27c.71.06,1.37.69,1.97.63.52-.06.96-.4,1.12-.37.15.02.34.23,0,.39-.34.15-.72.36-1.24.33-.77-.05-1.43-.58-1.99-.58s-1.41.31-1.41.31l-.3-.43Z"/>
  </g>
</svg>