<?xml version="1.0" encoding="UTF-8"?>
<svg id="Layer_1" data-name="Layer 1" xmlns="http://www.w3.org/2000/svg" viewBox="0 0 107.14 109.18">
  <rect x="6.52" y="7.54" width="94.1" height="94.11" rx="12.55" ry="12.55" fill="#36648f"/>
  <path d="m88.07,101.64c6.93,0,12.55-5.62,12.55-12.55v-28.43c-.06-.02-39.25-39.24-39.22-39.34l-8.32-2.92-.65,1.84,1.52,1.33v.02s-1.47-.51-1.47-.51l.99,2.68s1.13,1.19,1.4,1.29v.03s-1.66-.58-1.66-.58l-.78,2.23,1.51,1.35-3.8-1.33-8.69,24.76,1.76,1.59-1.17-.41-.69,1.96,1.72,1.68-1.05-.37-.88,2.52,6.12,6.11h-12.3v1.93l2.69,2.58h-1.05c-.54,0-.98.48-.98,1.08,0,.38.19.7.46.89.13.19,13.68,13.72,13.85,13.87h-15.82l-3.57,5.85,11.1,10.87h46.42Z" fill="#25496a"/>
  <g>
    <rect x="36.85" y="36.16" width="26.24" height="8.81" transform="translate(-4.85 74.3) rotate(-70.67)" fill="#fff"/>
    <rect x="53.78" y="24.1" width="2.36" height="4.5" transform="translate(11.93 69.51) rotate(-70.7)" fill="#fff"/>
    <rect x="55.95" y="16.38" width="1.95" height="8.81" transform="translate(18.49 67.64) rotate(-70.69)" fill="#fff"/>
    <polygon points="53.48 23.76 55.6 24.5 57.73 25.25 60.18 23.77 56.33 22.42 52.49 21.08 53.48 23.76" fill="#fff"/>
    <rect x="43.94" y="51.34" width="2.08" height="6.93" transform="translate(-21.62 79.09) rotate(-70.65)" fill="#fff"/>
    <rect x="42.53" y="55.6" width="2.67" height="4.78" transform="translate(-25.39 80.18) rotate(-70.67)" fill="#fff"/>
    <polygon points="69.88 90.78 30.55 90.78 34.12 84.93 64.95 84.93 69.88 90.78" fill="#fff"/>
    <path d="m75.56,66.27c-1.74,5.21-5.54,9.11-10.61,10.98v6.18h-8.09v-6.09l-7.4-1.43c-2.12-.41-3.65-2.26-3.65-4.42v-1.08h-.88c-.1.48-.49.85-.96.85h-7.34c-.54,0-.98-.48-.98-1.08s.44-1.08.98-1.08h7.34c.47,0,.86.36.96.85h.88v-3.43h-10.82v-1.93h14.31v2.59c0,5.22,1.19,5.22,6.14,5.22h1.42c6.94-.22,11.42-3.85,12.81-8,1.57-4.72,1.22-10.2-1.84-13.84-2.48-2.95-5.47-4.65-8.32-5.62-1.19-.4-2.35-.68-3.43-.87-.37-.4-.65-.9-.79-1.48-.4-1.72.64-3.43,2.34-3.88.98.19,2.01.44,3.06.77,3.83,1.2,7.96,3.43,11.39,7.52,4.31,5.14,5.68,12.72,3.49,19.3Zm-12.57,9.11c0-1.08-.88-1.96-1.95-1.96s-1.96.88-1.96,1.96.88,1.96,1.96,1.96,1.95-.88,1.95-1.96Zm-3.92-33.95c0-.74-.6-1.33-1.33-1.33s-1.33.6-1.33,1.33.6,1.33,1.33,1.33,1.33-.6,1.33-1.33Z" fill="#fff"/>
  </g>
</svg>