<?xml version="1.0" encoding="utf-8"?>
<!-- Generator: Adobe Illustrator 27.2.0, SVG Export Plug-In . SVG Version: 6.00 Build 0)  -->
<svg version="1.1" id="Layer_1" xmlns="http://www.w3.org/2000/svg" xmlns:xlink="http://www.w3.org/1999/xlink" x="0px" y="0px"
	 viewBox="0 0 112.2 108.2" style="enable-background:new 0 0 112.2 108.2;" xml:space="preserve">
<style type="text/css">
	.st0{opacity:0.78;fill:#FFFFFF;}
	.st1{fill:#36B3B6;}
	
		.st2{opacity:0.5;clip-path:url(#SVGID_00000040564767533664712110000014278559781933851019_);fill:url(#SVGID_00000049903457758009087440000006868943803080465078_);}
	
		.st3{opacity:0.5;clip-path:url(#SVGID_00000040564767533664712110000014278559781933851019_);fill:url(#SVGID_00000039846524860492200430000005768267695910457007_);}
	.st4{fill:#22608A;}
	.st5{fill:#123A60;}
	.st6{fill:#FFFFFF;}
	.st7{fill:#CDE3E8;}
	.st8{opacity:0.4;fill:url(#SVGID_00000158707546647741964530000004232474581651464333_);}
	.st9{opacity:0.4;fill:url(#SVGID_00000033333112522298600210000005034544752004003982_);}
	.st10{opacity:0.5;fill:url(#SVGID_00000047041912100401509180000010997146732422317444_);}
	.st11{clip-path:url(#SVGID_00000119104632338216130750000013712983632915246977_);}
	.st12{fill:#056F9A;}
	.st13{fill:#AEAEAE;}
	.st14{opacity:0.5;fill:url(#SVGID_00000067212877586313511340000004586723363870338953_);}
	.st15{fill:#BB2025;}
	.st16{fill:#F47C2A;}
	.st17{fill:#DF1F26;}
	
		.st18{opacity:0.5;clip-path:url(#SVGID_00000096769135164321630170000008400838886196178593_);fill:url(#SVGID_00000087398421880405237440000001651891092526223281_);}
	.st19{fill:#A0C3D3;}
	
		.st20{opacity:0.5;clip-path:url(#SVGID_00000145027659051262587300000011587723913482129282_);fill:url(#SVGID_00000149371699327519821010000000606318646042127291_);}
	.st21{opacity:0.5;fill:url(#SVGID_00000036251753462969134970000000608091515510705047_);}
	
		.st22{opacity:0.4;clip-path:url(#SVGID_00000162338480703256215120000010007927894886847926_);fill:url(#SVGID_00000088112153485242023370000002704721365093426103_);}
	
		.st23{opacity:0.4;clip-path:url(#SVGID_00000162338480703256215120000010007927894886847926_);fill:url(#SVGID_00000054977592169228139330000000803507469530852772_);}
	.st24{fill:#F05223;}
	.st25{opacity:0.4;fill:url(#SVGID_00000125574982489029688150000003800655645634549151_);}
	.st26{opacity:0.4;fill:url(#SVGID_00000158711541752037982770000011634368419604036522_);}
	.st27{opacity:0.5;fill:url(#SVGID_00000093159301878375241180000008527887911378114177_);}
	.st28{opacity:0.5;fill:url(#SVGID_00000107567611378252405990000003535708865470232962_);}
	.st29{opacity:0.5;fill:url(#SVGID_00000050644468328360245700000007272684041285192080_);}
	
		.st30{opacity:0.5;clip-path:url(#SVGID_00000100360066957926395010000003214927073509165759_);fill:url(#SVGID_00000078005159477339480190000014651387409701478536_);}
	.st31{opacity:0.92;fill:#FFFFFF;}
</style>
<g>
	<path class="st0" d="M102.2,79.1c0,0.9-0.6,1.9-1.4,2.4l-43.3,25c-0.8,0.4-2,0.4-2.8,0l-43.3-25C10.7,81,10,80,10,79.1v-50
		c0-0.9,0.6-1.9,1.4-2.4l43.3-25c0.8-0.4,2-0.4,2.8,0l43.3,25c0.8,0.4,1.4,1.5,1.4,2.4V79.1z"/>
	<path class="st1" d="M101.1,78.5c0,0.8-0.6,1.9-1.3,2.3l-42.3,24.4c-0.7,0.4-1.9,0.4-2.7,0L12.5,80.8c-0.7-0.4-1.3-1.5-1.3-2.3
		V29.7c0-0.9,0.6-1.9,1.3-2.3L54.8,2.9c0.7-0.4,1.9-0.4,2.7,0l42.3,24.4c0.7,0.4,1.3,1.5,1.3,2.3V78.5z"/>
	<g>
		<defs>
			<path id="SVGID_1_" d="M101.2,78.6c0,0.9-0.6,1.9-1.3,2.3l-42.3,24.4c-0.7,0.4-1.9,0.4-2.7,0L12.7,81c-0.7-0.4-1.3-1.5-1.3-2.3
				V29.8c0-0.9,0.6-1.9,1.3-2.3L54.9,3.1c0.7-0.4,1.9-0.4,2.7,0l42.3,24.4c0.7,0.4,1.3,1.5,1.3,2.3V78.6z"/>
		</defs>
		<clipPath id="SVGID_00000056390695687773776450000000185857700918060708_">
			<use xlink:href="#SVGID_1_"  style="overflow:visible;"/>
		</clipPath>
		
			<linearGradient id="SVGID_00000036969030913255598640000005556942740812769468_" gradientUnits="userSpaceOnUse" x1="-204.2675" y1="69.1794" x2="-96.308" y2="-46.5929" gradientTransform="matrix(0.5269 -1.990000e-02 -1.990000e-02 0.5255 124.5613 52.1235)">
			<stop  offset="0.1813" style="stop-color:#FFFFFF"/>
			<stop  offset="0.256" style="stop-color:#F9F9F9"/>
			<stop  offset="0.3594" style="stop-color:#E7E7E7"/>
			<stop  offset="0.4797" style="stop-color:#C9C9C9"/>
			<stop  offset="0.6126" style="stop-color:#A0A0A0"/>
			<stop  offset="0.7559" style="stop-color:#6C6C6C"/>
			<stop  offset="0.9057" style="stop-color:#2D2D2D"/>
			<stop  offset="1" style="stop-color:#010101"/>
		</linearGradient>
		
			<polygon style="opacity:0.5;clip-path:url(#SVGID_00000056390695687773776450000000185857700918060708_);fill:url(#SVGID_00000036969030913255598640000005556942740812769468_);" points="
			35.7,36.1 48.2,27.2 61.9,34.5 73.1,28 77.7,41.6 95,69 28.4,104.5 6.7,80 7,40.7 26.1,29.9 		"/>
		
			<linearGradient id="SVGID_00000173158147238647198310000004999827743129174184_" gradientUnits="userSpaceOnUse" x1="-210.9867" y1="-59.6757" x2="-173.8808" y2="-66.4974" gradientTransform="matrix(0.4969 -0.3191 0.5403 0.8415 156.6179 84.4777)">
			<stop  offset="0.3846" style="stop-color:#FFFFFF"/>
			<stop  offset="0.4622" style="stop-color:#E6E6E6"/>
			<stop  offset="0.6278" style="stop-color:#A5A5A5"/>
			<stop  offset="0.8659" style="stop-color:#3E3E3E"/>
			<stop  offset="1" style="stop-color:#010101"/>
		</linearGradient>
		
			<polygon style="opacity:0.5;clip-path:url(#SVGID_00000056390695687773776450000000185857700918060708_);fill:url(#SVGID_00000173158147238647198310000004999827743129174184_);" points="
			47.8,101.6 34.7,108.9 5.7,84.4 25.1,72.6 		"/>
	</g>
	<polygon class="st4" points="38.4,34.2 43.1,54.2 33.5,52.3 33.4,42.2 	"/>
	<polygon class="st5" points="24,35.7 20,53.9 29.7,59.7 29.1,38 	"/>
	<path class="st6" d="M45.6,56.5v-0.2c-0.7-4.7-3.6-4.1-10.7-7.4L28.4,49c-6.5,2.9-10.5,3.9-10.6,8.1L17,64.2h29.3L45.6,56.5z"/>
	<g>
		<path class="st7" d="M28.2,46.1c-0.1,1.3-0.9,3.8-2,4.7c1.3,2.2,4.1,4.6,5.3,4.7c-0.1-4.8,0-9.4,0-9.4H28.2z"/>
		<path class="st6" d="M34.7,46.1c0.1,1.3,0.9,3.8,2,4.7c-1.3,2.2-4.1,4.6-5.3,4.7c0.1-4.8,0-9.4,0-9.4H34.7z"/>
	</g>
	
		<linearGradient id="SVGID_00000106123849405217630350000012774042900716181685_" gradientUnits="userSpaceOnUse" x1="261.2436" y1="-36.2108" x2="273.0154" y2="-48.8344" gradientTransform="matrix(0.463 -0.5924 0.9498 0.7424 -55.3264 240.113)">
		<stop  offset="0.1044" style="stop-color:#FFFFFF"/>
		<stop  offset="0.2062" style="stop-color:#FBFBFB"/>
		<stop  offset="0.2971" style="stop-color:#F1F1F1"/>
		<stop  offset="0.3837" style="stop-color:#DEDEDE"/>
		<stop  offset="0.4679" style="stop-color:#C5C5C5"/>
		<stop  offset="0.5502" style="stop-color:#A4A4A4"/>
		<stop  offset="0.6312" style="stop-color:#7B7B7B"/>
		<stop  offset="0.7111" style="stop-color:#4B4B4B"/>
		<stop  offset="0.7881" style="stop-color:#141414"/>
		<stop  offset="0.8132" style="stop-color:#010101"/>
	</linearGradient>
	<polygon style="opacity:0.4;fill:url(#SVGID_00000106123849405217630350000012774042900716181685_);" points="35.1,46.5 26,58.1 
		20.9,54 29.9,42.5 	"/>
	<g>
		<path class="st7" d="M25.8,33.8c-0.7,1.3-0.3,3-0.3,4.8c-0.4,0.1-0.7,0.4-0.7,1.3c0,1.3,0.6,3.2,1.4,3.5c0.1,0.3,0.2,0.6,0.4,0.9
			c0,0,0,0,0,0c0.3,0.6,0.6,1.2,1,1.7c0.2,0.2,0.4,0.5,0.6,0.7c1,1.1,2.1,1.7,3.3,1.8v-18C29.5,30.5,26.9,31.7,25.8,33.8z"/>
		<path class="st6" d="M31.5,30.5v18c1.2-0.1,2.4-0.8,3.3-1.8c0.2-0.2,0.4-0.4,0.6-0.7c0.4-0.5,0.7-1,1-1.7c0,0,0,0,0,0
			c0.1-0.3,0.3-0.6,0.4-0.9c0.9-0.3,1.4-2.3,1.4-3.5c0-0.8-0.3-1.2-0.7-1.3c0.1-1.8,0.4-3.5-0.3-4.8C36.1,31.7,33.5,30.5,31.5,30.5z
			"/>
	</g>
	<path class="st5" d="M31.5,30.1c-1.4-0.5-4.6,0.1-6,1.8c-2,2.6-2,7.6-2,7.6l2.6-0.4c0,0,0.8-3.2,3.6-4.3
		C31.9,34,31.5,30.1,31.5,30.1z"/>
	<path class="st4" d="M28.6,32.5c0.5,2.4,5.1,2.7,6.7,3.5c1.6,0.8,1.5,3.1,1.5,3.1l1.3-0.4c0,0,1.6-4.6-1.3-7.1
		C34,29,30.9,30,29.7,30.3C28.4,30.7,28.6,32.5,28.6,32.5z"/>
	<g>
		<path class="st6" d="M36.9,29.8c-1.9-1.2-3.7-1.7-5.4-1.8h-0.2c-1.6,0.1-3.5,0.5-5.4,1.8c0.9,2.4,1.5,3.9,1.5,3.9
			c1.4-0.5,2.6-0.7,3.9-0.7c1.3,0,2.5,0.2,3.9,0.7C35.4,33.7,36,32.2,36.9,29.8z"/>
		<g>
			<g>
				<path class="st5" d="M32.9,29.9h-0.8c0,0,0,0,0,0v-0.8c0,0,0-0.1-0.1-0.1h-1c0,0-0.1,0-0.1,0.1v0.8c0,0,0,0,0,0h-0.8
					c0,0-0.1,0-0.1,0.1v1c0,0,0,0.1,0.1,0.1h0.8c0,0,0,0,0,0v0.8v0c0,0,0,0.1,0.1,0.1h1c0,0,0.1,0,0.1-0.1v-0.8c0,0,0,0,0,0h0.8
					c0,0,0.1,0,0.1-0.1L32.9,29.9C33,29.9,33,29.9,32.9,29.9z"/>
			</g>
		</g>
	</g>
	<g>
		<path class="st6" d="M94,60.8v-0.2c-0.7-4.8-1.9-5.5-9.2-8.9l-9.4,0.2c-7.2,2.5-9.1,4.1-9.7,9.5l-0.8,7.2h29.8L94,60.8z"/>
		<g>
			<polygon class="st7" points="75.9,49.4 75.3,51.8 79.7,55.4 79.6,49.8 			"/>
			<polygon class="st6" points="83.3,49.5 84,51.9 79.5,55.5 79.6,49.9 			"/>
		</g>
		<path class="st7" d="M75.5,51c0.4,0.6,2.9,2.4,4.3,2.2c1.3-0.1,3.6-1.3,4-2.3c0.4,0.4,1.6,1,1.6,1l-5.9,6L74,52.4L75.5,51z"/>
		
			<linearGradient id="SVGID_00000049181947221779463830000005358448517811370119_" gradientUnits="userSpaceOnUse" x1="300.5667" y1="24.8211" x2="309.527" y2="15.2124" gradientTransform="matrix(0.463 -0.5924 1.1392 0.8904 -86.4437 215.4894)">
			<stop  offset="0.1044" style="stop-color:#FFFFFF"/>
			<stop  offset="0.2062" style="stop-color:#FBFBFB"/>
			<stop  offset="0.2971" style="stop-color:#F1F1F1"/>
			<stop  offset="0.3837" style="stop-color:#DEDEDE"/>
			<stop  offset="0.4679" style="stop-color:#C5C5C5"/>
			<stop  offset="0.5502" style="stop-color:#A4A4A4"/>
			<stop  offset="0.6312" style="stop-color:#7B7B7B"/>
			<stop  offset="0.7111" style="stop-color:#4B4B4B"/>
			<stop  offset="0.7881" style="stop-color:#141414"/>
			<stop  offset="0.8132" style="stop-color:#010101"/>
		</linearGradient>
		<polygon style="opacity:0.4;fill:url(#SVGID_00000049181947221779463830000005358448517811370119_);" points="83.4,50.1 
			76.5,58.8 71.8,55.1 78.7,46.4 		"/>
		<g>
			<g>
				<g>
					<g>
						<path class="st6" d="M75.4,49.4c0.2,0.2,0.4,0.5,0.6,0.7c0,0,0,0,0,0C75.8,49.9,75.6,49.7,75.4,49.4z"/>
					</g>
					<path class="st7" d="M86.8,43.3c0-0.8-0.2-1.1-0.6-1.3c0.1-1.7,0.3-3.4-0.3-4.6c-1.2-2.3-4.4-3.8-6.5-3.8
						c-2.1,0-4.8,1.2-5.9,3.4c-0.7,1.3-0.4,3.1-0.3,4.9c-0.4,0.1-0.7,0.4-0.7,1.3c0,1.3,0.6,3.3,1.5,3.6c0.1,0.3,0.2,0.6,0.4,0.9
						c0,0,0,0,0,0c0.3,0.6,0.7,1.2,1,1.7c0.2,0.2,0.4,0.5,0.6,0.7c0,0,0,0,0,0c1.1,1.2,2.4,1.9,3.8,1.9c2.1,0,4-1.6,5.3-4.1
						c0.1-0.2,0.2-0.4,0.3-0.5c0.1-0.2,0.1-0.4,0.2-0.6C86.3,46.3,86.8,44.5,86.8,43.3z"/>
				</g>
			</g>
			<g>
				<g>
					<path class="st6" d="M85,47.9c0.1-0.2,0.2-0.4,0.3-0.5c0.1-0.2,0.1-0.4,0.2-0.6c0.8-0.5,1.3-2.3,1.3-3.5c0-0.8-0.2-1.1-0.6-1.3
						c0.1-1.7,0.3-3.4-0.3-4.6c-1.1-2.3-4.3-3.7-6.5-3.8V52c0.1,0,0.2,0,0.3,0C81.8,52,83.7,50.4,85,47.9z"/>
				</g>
			</g>
			<g>
				<path class="st5" d="M83.6,36.6c0.1,1.1-1.9,1-3.2,0.8c-1.3-0.2-2.1,0-3.4,0.4c-1.3,0.4-2.5,1.7-2.7,2.3c-0.1,0.4,0,2.3,0,2.3
					l-1.1-0.5c0,0-0.4-2.6,0-4.4c0.4-1.7,1.2-3.2,4.4-3.9c2.9-0.6,4.9-0.2,5,0.5c0.2,0,0.4-0.1,0.7-0.1c0.7,0,1.7,0.8,2.3,1.7
					c0.6,0.9,1.4,2.6,1,5.5c-0.1,0.8-0.2,1-0.2,1l-0.9,0.5c0,0,0.4-3.7-1.1-4.7C83.7,37.7,83.6,36.6,83.6,36.6z"/>
				<g>
					<g>
						<g>
							<path class="st4" d="M84.2,38c1.5,1.1,1.1,4.7,1.1,4.7l0.9-0.5c0,0,0.2-0.2,0.2-1c0.4-2.9-0.2-4.6-0.7-5.5
								c-0.6-0.9-1.8-1.7-2.5-1.7c-0.1,0-0.5,0.1-0.6,0.1c0.3,0.9,0.9,2.3,0.9,2.5C83.6,36.6,83.7,37.6,84.2,38z"/>
						</g>
						<g>
							<path class="st4" d="M83.6,36.6c0,0.1,0,0.2,0,0.2C83.6,36.8,83.6,36.7,83.6,36.6z"/>
						</g>
					</g>
				</g>
			</g>
		</g>
		<g>
			<g>
				<path class="st6" d="M86.4,27.7c0-0.5-2.9-1-6.6-1c-3.7,0-6.7,0.5-6.7,1l0,0v10.1c0,0,0.1,0,0.1,0c0-0.3,2.9-0.8,6.6-0.8
					c3.3,0,6,0.4,6.5,0.7V27.7L86.4,27.7z"/>
				<g>
					<path class="st7" d="M73.2,27.7v10.1c0,0,0.1,0,0.1,0c0-0.3,2.9-0.8,6.6-0.8c0,0,0,0,0.1,0V26.8c0,0-0.1,0-0.1,0
						C76.2,26.8,73.2,27.3,73.2,27.7z"/>
				</g>
			</g>
			<g>
				<g>
					<path class="st5" d="M82.1,31.1h-1.3c0,0,0,0,0,0v-1.3c0-0.1,0-0.1-0.1-0.1H79c0,0-0.1,0-0.1,0.1v1.3c0,0,0,0,0,0h-1.3
						c0,0-0.1,0-0.1,0.1v1.6c0,0,0,0.1,0.1,0.1h1.3c0,0,0,0,0,0v1.2v0c0,0,0,0.1,0.1,0.1h1.6c0,0,0.1,0,0.1-0.1V33c0,0,0,0,0,0h1.3
						c0.1,0,0.1,0,0.1-0.1L82.1,31.1C82.1,31.2,82.1,31.1,82.1,31.1z"/>
				</g>
			</g>
		</g>
	</g>
	
		<linearGradient id="SVGID_00000098207317264921825640000014699150493600000173_" gradientUnits="userSpaceOnUse" x1="12.0305" y1="87.8165" x2="51.7552" y2="55.7682">
		<stop  offset="0.3846" style="stop-color:#FFFFFF"/>
		<stop  offset="0.4622" style="stop-color:#E6E6E6"/>
		<stop  offset="0.6278" style="stop-color:#A5A5A5"/>
		<stop  offset="0.8659" style="stop-color:#3E3E3E"/>
		<stop  offset="1" style="stop-color:#010101"/>
	</linearGradient>
	<polygon style="opacity:0.5;fill:url(#SVGID_00000098207317264921825640000014699150493600000173_);" points="51.2,71.4 26.9,87.1 
		12.1,72.5 42.3,55.1 	"/>
	<g>
		<path class="st6" d="M77.6,65.2v-0.2c-1.1-7.2-2.9-8.3-13.8-13.4l-14.2,0.3C38.7,55.5,35.9,58,35,66.1L33.8,77h44.9L77.6,65.2z"/>
		<g>
			<polygon class="st7" points="50.4,48.1 49.4,51.7 56.1,57.1 55.9,48.7 			"/>
			<polygon class="st6" points="61.5,48.2 62.5,51.8 55.8,57.2 56,48.8 			"/>
		</g>
		<path class="st5" d="M49.8,49.8c0.7,0.8,4.2,3.6,6.2,3.3c2-0.2,5.4-2,6-3.5c0.6,0.6,2.6,2.2,2.6,2.2l-8.9,20.8l-8.3-20L49.8,49.8z
			"/>
		<g>
			<g>
				<g>
					<g>
						<path class="st6" d="M49.6,48.2c0.3,0.4,0.6,0.7,0.8,1c0,0,0,0,0,0C50.2,48.9,49.9,48.5,49.6,48.2z"/>
					</g>
					<path class="st7" d="M66.8,38.9c0-1.2-0.4-1.7-1-1.9c0.1-2.5,0.5-5.1-0.4-7c-1.7-3.5-6.5-5.6-9.8-5.6c-3.1,0-7.2,1.8-8.9,5.1
						c-1.1,2-0.5,4.6-0.4,7.3c-0.7,0.2-1.1,0.7-1.1,1.9c0,1.9,0.9,5,2.2,5.4c0.2,0.5,0.4,0.9,0.6,1.4c0,0,0,0.1,0,0.1
						c0.5,0.9,1,1.8,1.5,2.5c0.3,0.4,0.6,0.7,0.9,1c0,0,0,0,0,0c1.6,1.8,3.6,2.8,5.6,2.8c3.2,0,6-2.4,7.9-6.2
						c0.1-0.3,0.3-0.5,0.5-0.8c0.1-0.3,0.2-0.6,0.3-0.9C66.1,43.5,66.8,40.7,66.8,38.9z"/>
				</g>
			</g>
			<g>
				<g>
					<path class="st6" d="M64.1,45.8c0.1-0.3,0.3-0.5,0.5-0.8c0.1-0.3,0.2-0.6,0.3-0.9c1.2-0.7,1.9-3.5,1.9-5.2c0-1.2-0.4-1.7-1-1.9
						c0.1-2.5,0.5-5.1-0.4-7c-1.7-3.5-6.4-5.6-9.7-5.6V52c0.1,0,0.3,0,0.4,0C59.3,52,62.1,49.6,64.1,45.8z"/>
				</g>
			</g>
			<g>
				<path class="st5" d="M61.9,28.9c0.2,1.6-2.8,1.5-4.8,1.2c-2-0.3-3.2,0.1-5.1,0.6c-1.9,0.5-3.7,2.5-4,3.5c-0.2,0.6,0,3.4,0,3.4
					l-1.7-0.8c0,0-0.8-4.1-0.2-6.8c0.6-2.5,2.1-4.6,6.8-5.6c4.3-0.9,7.3-0.4,7.5,0.7c0.3,0.1,0.6-0.2,1-0.2c1,0,2.9,1.2,3.8,2.6
					c0.9,1.4,1.7,4,1.1,8.3c-0.1,1.1-0.4,1.4-0.4,1.4l-1.4,0.8c0,0,0.6-5.5-1.7-7.1C62.2,30.5,61.9,28.9,61.9,28.9z"/>
				<g>
					<g>
						<g>
							<path class="st4" d="M62.9,31c2.3,1.6,1.7,7.1,1.7,7.1l1.4-0.8c0,0,0.2-0.3,0.4-1.4c0.6-4.3-0.2-6.9-1.1-8.3
								c-0.9-1.4-2.8-2.6-3.8-2.6c-0.2,0-0.7,0.1-0.9,0.2c0.4,1.4,1.4,3.4,1.4,3.8C61.9,28.9,62.1,30.4,62.9,31z"/>
						</g>
						<g>
							<path class="st4" d="M61.9,28.9c0,0.1,0,0.2,0,0.4C61.9,29.1,61.9,29,61.9,28.9z"/>
						</g>
					</g>
				</g>
			</g>
		</g>
		<g>
			<defs>
				<path id="SVGID_00000112603059943287220580000014784973623336929973_" d="M49.7,49.9c0.7,0.8,4.2,3.6,6.2,3.3c2-0.2,5.4-2,6-3.5
					c0.6,0.6,2.6,2.2,2.6,2.2l-8.9,20.8l-8.3-20L49.7,49.9z"/>
			</defs>
			<clipPath id="SVGID_00000137836832959663510870000000889823274677299362_">
				<use xlink:href="#SVGID_00000112603059943287220580000014784973623336929973_"  style="overflow:visible;"/>
			</clipPath>
			<g style="clip-path:url(#SVGID_00000137836832959663510870000000889823274677299362_);">
				<g>
					<g>
						<polygon class="st1" points="57.3,58.7 55.8,58.7 55.8,54.8 58.7,54.8 58.7,56.5 						"/>
						<polygon class="st1" points="57.4,58.1 60,82.4 55.9,85.6 55.9,85.5 55.7,58.1 						"/>
						<polygon class="st12" points="54.7,58.7 55.9,58.7 55.9,54.8 52.9,54.8 52.9,56.5 						"/>
						<polygon class="st12" points="54.4,58.1 51.9,82.4 55.9,85.6 55.9,58.1 						"/>
					</g>
					<polygon class="st12" points="57.5,58.6 54.4,58.6 54.4,58.3 57.5,58.3 					"/>
				</g>
			</g>
		</g>
	</g>
	<g>
		<g>
			<g>
				<g>
					<path class="st12" d="M44.7,70.3c-0.5,0.2-0.7,0.3-0.8,0.4c-0.1,0.1-0.3,0.4-0.3,1.1c0,0.5-0.1,3.5,0.7,5.5
						c0.1,0.2,0.2,0.1,0.3,0c0.1-0.1,0.3-1.2,0.2-1.3c-0.1-0.1-0.3-0.2-0.4-0.4c-0.1-0.2,0-3.4,0.1-3.6c0.1-0.2,0.3-0.1,0.4-0.1
						C44.6,71.2,44.7,70.3,44.7,70.3z"/>
				</g>
			</g>
		</g>
		<g>
			<path class="st5" d="M47.6,72.3H25.2c-0.2,0-0.4,0.2-0.4,0.4v29c0,0.2,0.2,0.4,0.4,0.4h22.3c0.2,0,0.4-0.2,0.4-0.4v-29
				C48,72.4,47.8,72.3,47.6,72.3z"/>
			<path class="st6" d="M45,95.5c0,0-2.5,2.7-2.5,2.7H28.1c-0.2,0-0.3-0.1-0.3-0.3V76.4c0-0.2,0.1-0.3,0.3-0.3h16.6
				c0.2,0,0.3,0.1,0.3,0.3V95.5z"/>
			<path class="st13" d="M40.4,71.6h-8.1c-0.2,0-0.4,0.2-0.4,0.4c0,0.2,0.2,0.4,0.4,0.4H33c-0.1,0.1-0.1,0.3-0.1,0.5
				c0,0.5,0.4,0.8,0.8,0.8h5.4c0.5,0,0.8-0.4,0.8-0.8c0-0.2-0.1-0.3-0.1-0.5h0.6c0.2,0,0.4-0.2,0.4-0.4
				C40.8,71.7,40.6,71.6,40.4,71.6z"/>
			<rect x="30.3" y="79.3" class="st7" width="12.1" height="0.5"/>
			<rect x="30.3" y="81.4" class="st7" width="12.1" height="0.5"/>
			<rect x="30.3" y="83.7" class="st7" width="12.1" height="0.5"/>
			<rect x="30.3" y="85.8" class="st7" width="12.1" height="0.5"/>
			<rect x="30.3" y="88.1" class="st7" width="12.1" height="0.5"/>
			<rect x="30.3" y="90.2" class="st7" width="12.1" height="0.5"/>
			<rect x="30.3" y="92.4" class="st7" width="12.1" height="0.5"/>
			<g>
				<path class="st13" d="M42.8,95.5H45l-2.5,2.7v-2.4C42.5,95.6,42.6,95.5,42.8,95.5z"/>
			</g>
		</g>
		<g>
			<g>
				<path class="st7" d="M46,91.5c0,0-0.2,0.4-0.3,0.4c-0.1,0-0.3-0.4-0.3-0.4L46,91.5z"/>
				<path class="st6" d="M46,91.5c0.2-0.5,0.4-2,0.4-2.3l-1.4,0c0,0.5,0.3,2,0.4,2.3C45.8,91.6,46,91.6,46,91.5z"/>
				<path class="st7" d="M46.4,89.3c0.1-0.7,0.4-10.8,0.4-10.8l-2.3,0c0,0,0.4,10.1,0.5,10.8C45.9,89.3,46.3,89.3,46.4,89.3z"/>
				<path class="st12" d="M45.7,70.4L45.7,70.4C45.7,70.4,45.7,70.4,45.7,70.4l1.2-0.1c0-0.1,0.1-1.5-1.1-1.5l0,0c0,0,0,0,0,0
					c0,0,0,0,0,0l0,0c-1.2,0-1.1,1.4-1.1,1.5L45.7,70.4C45.7,70.4,45.7,70.4,45.7,70.4L45.7,70.4z"/>
				<path class="st7" d="M45.7,78.2l0.3,0v-0.1l0.8,0c0-0.1,0.1-7.6,0-8c-0.5,0-0.9,0-1.2,0c-0.2,0-0.6,0-1.1,0
					c-0.1,0.4,0,7.9,0,7.9l0.8,0.1v0.1L45.7,78.2z"/>
				<path class="st12" d="M44.5,78.6C44.5,78.6,44.5,78.6,44.5,78.6l0-0.6c0,0,0,0,0,0h2.4c0,0,0,0,0,0v0.6c0,0,0,0,0,0H44.5z"/>
			</g>
		</g>
	</g>
</g>
</svg>
