<?xml version="1.0" encoding="UTF-8"?>
<svg id="Layer_1" data-name="Layer 1" xmlns="http://www.w3.org/2000/svg" viewBox="0 0 104.51 102.13">
  <defs>
    <style>
      .cls-1 {
        fill: #606c84;
      }

      .cls-2 {
        fill: #fff;
      }

      .cls-3 {
        fill: #7e8dad;
      }
    </style>
  </defs>
  <rect class="cls-3" x="5.2" y="4.01" width="94.1" height="94.1" rx="12.55" ry="12.55"/>
  <path class="cls-1" d="m99.31,85.57v-37.85c-.37-.38-26.78-26.75-27.16-27.16-.98-1.04-2.22-1.71-3.71-2v.8l-.87-.98h-.44s-2.44-.83-3.05-.78c-.62.05-.7,1.5-.7,2.04,0,.49.07,1.74.56,1.99.05.09,8.5,8.53,8.53,8.55,0,.47-.02.96-.05,1.46-.04.58-.09,1.14-.17,1.69-.01,0-.03-.01-.05-.02-.06-.11-15.28-15.35-15.42-15.42-.1-.17-.22-.28-.38-.3-.62-.05-3.05.78-3.05.78h-.44s0,1.18,0,1.18c-.09.02-.87-.74-.87-1.01-1.49.29-2.73.96-3.71,2-2.06,2.19-2.9,5.86-2.56,11.22.15,2.43.61,4.66,1.3,6.67.11-.03.9.71.9.73l-1.17.42c1.08,2.76,2.61,5.06,4.36,6.85,0,0,7.18,7.18,7.24,7.24v.97l1.47,1.22v.03h-1.36c-.18,3.06-.5,5.88-.94,8.45-.03-.03-5.9-5.9-5.98-5.97-1.02-1.08-2.46-1.76-4.06-1.76-2.43,0-4.5,1.56-5.26,3.73h-3.68v1.8s-1.31-1.51-1.31-1.51c-5.33,1.04-8.56,6.35-9.02,11.04-.37,3.76.77,7.99,3.74,10.98.14.14,15.27,15.26,15.42,15.42h0s39.32,0,39.32,0c6.93,0,12.55-5.62,12.55-12.55Z"/>
  <g>
    <path class="cls-2" d="m49.26,37.72c-.64-1.83-1.07-3.87-1.2-6.07-.28-4.57.39-7.85,1.94-9.5.58-.61,1.18-1.12,2.02-1.34v-2.24c-1.49.29-2.73.96-3.71,2-2.06,2.19-2.9,5.86-2.56,11.22.15,2.43.61,4.66,1.3,6.67l2.21-.74Z"/>
    <path class="cls-2" d="m60.23,47.16c-3.73,0-7.86-3.34-10.04-8.78l-3.42,1.23c2.77,7.04,8.39,11.17,13.45,11.16v-3.61Z"/>
    <path class="cls-2" d="m60.23,47.16c3.73,0,7.86-3.34,10.04-8.78l3.42,1.23c-2.77,7.04-8.39,11.17-13.45,11.16v-3.61Z"/>
    <path class="cls-2" d="m42.61,86.65c3.51,0,6.61-1.1,9.28-3.29,5.64-4.64,8.89-13.86,9.69-27.44h-3.08c-.75,12.55-3.67,21.04-8.57,25.06-2.81,2.31-6.31,3.08-10.4,2.27-6.31-1.24-8.67-6.55-8.21-11.25.34-3.49,2.3-7,5.96-8.13v-3.21c-5.34,1.04-8.57,6.35-9.03,11.04-.58,5.89,2.52,12.97,10.68,14.57,1.27.25,2.49.37,3.67.37Z"/>
    <rect class="cls-2" x="58.39" y="48.76" width="3.69" height="5.91"/>
    <path class="cls-2" d="m53.34,18.38s2.44-.83,3.05-.78c.62.05.7,1.5.7,2.04,0,.54-.08,2-.7,2.04-.62.05-3.05-.78-3.05-.78h-.44s0-2.52,0-2.52h.44Z"/>
    <path class="cls-2" d="m71.21,37.72c.64-1.83,1.07-3.87,1.2-6.07.28-4.56-.39-7.85-1.94-9.5-.58-.61-1.18-1.12-2.03-1.34v-2.25c1.49.29,2.73.96,3.71,2,2.06,2.19,2.89,5.86,2.56,11.22-.15,2.43-.61,4.66-1.3,6.67l-2.21-.74Z"/>
    <path class="cls-2" d="m67.12,18.38s-2.44-.83-3.05-.78c-.62.05-.7,1.5-.7,2.04,0,.54.08,2,.7,2.04.62.05,3.05-.78,3.05-.78h.44v-2.52h-.44Z"/>
    <path class="cls-2" d="m38.58,60.38h3.68c.76-2.17,2.83-3.74,5.26-3.73,3.08,0,5.58,2.5,5.58,5.58s-2.5,5.58-5.58,5.58c-2.43,0-4.5-1.56-5.26-3.73h-3.68v-3.7Zm4.7,1.85c0,2.34,1.9,4.24,4.24,4.24s4.24-1.9,4.23-4.24c0-2.34-1.9-4.24-4.23-4.24-2.34,0-4.24,1.9-4.24,4.24Z"/>
    <path class="cls-2" d="m44.42,62.23c0,1.72,1.39,3.11,3.11,3.11s3.11-1.39,3.11-3.11c0-1.72-1.39-3.11-3.11-3.11s-3.11,1.39-3.11,3.11Z"/>
  </g>
</svg>