<?xml version="1.0" encoding="utf-8"?>
<!-- Generator: Adobe Illustrator 27.2.0, SVG Export Plug-In . SVG Version: 6.00 Build 0)  -->
<svg version="1.1" xmlns="http://www.w3.org/2000/svg" xmlns:xlink="http://www.w3.org/1999/xlink" x="0px" y="0px"
	 viewBox="0 0 853 180" style="enable-background:new 0 0 853 180;" xml:space="preserve">
<style type="text/css">
	.st0{fill:#6F61C0;}
	.st1{fill:#A084E8;}
	.st2{fill:#8BE8E5;}
	.st3{fill:#37517E;}
</style>
<g id="_x33_5">
	<g>
		<path class="st0" d="M194.1-554.1v13.2h-28.5l-14.8,28.2c-1.4,2.5-3.8,3.9-6.6,3.6c-2.7,0-4.9-1.9-5.8-4.4l-11.2-32.6l-9.9,23.8
			c-1.4,2.5-4.1,4.1-7.1,4.1c-2.7-0.5-5.2-2.7-5.8-5.8l-9.3-57.6l-11.2,87.7c-0.3,3.3-3,5.8-6.3,5.8c0,0,0,0-0.3,0
			c-3,0-5.8-2.5-6.6-5.5l-12.9-67.7l-8,16.7c-1.1,2.2-3.6,3.6-6,3.6H16.2v-13.2h23.3l15.1-31.3c1.4-2.7,4.1-4.1,6.9-3.8
			c3,0.5,5.2,2.5,5.8,5.5l9,47.7l11.5-89.1c0.3-3.3,3-5.5,6.3-5.5c3.3-0.3,6,2.2,6.9,5.5l12.6,76.8l8.2-19.2
			c1.1-2.5,3.6-4.4,6.3-4.1c3,0,5.2,1.9,6.3,4.4l11.8,34.8l9.6-18.1c1.1-2.2,3.3-3.6,5.8-3.6H194.1z"/>
	</g>
	<g>
		<path class="st0" d="M194.1,305.2v13.2h-28.5l-14.8,28.2c-1.4,2.5-3.8,3.9-6.6,3.6c-2.7,0-4.9-1.9-5.8-4.4l-11.2-32.6l-9.9,23.8
			c-1.4,2.5-4.1,4.1-7.1,4.1c-2.7-0.5-5.2-2.7-5.8-5.8l-9.3-57.6l-11.2,87.7c-0.3,3.3-3,5.8-6.3,5.8c0,0,0,0-0.3,0
			c-3,0-5.8-2.5-6.6-5.5l-12.9-67.7l-8,16.7c-1.1,2.2-3.6,3.6-6,3.6H16.2v-13.2h23.3L54.6,274c1.4-2.7,4.1-4.1,6.9-3.8
			c3,0.5,5.2,2.5,5.8,5.5l9,47.7l11.5-89.1c0.3-3.3,3-5.5,6.3-5.5c3.3-0.3,6,2.2,6.9,5.5l12.6,76.8l8.2-19.2
			c1.1-2.5,3.6-4.4,6.3-4.1c3,0,5.2,1.9,6.3,4.4l11.8,34.8l9.6-18.1c1.1-2.2,3.3-3.6,5.8-3.6H194.1z"/>
	</g>
	<g>
		<g>
			<path class="st1" d="M244.4-601.1c0-2.7-0.9-4.9-2.6-6.8c-1.7-1.9-4-2.8-6.6-2.8h-20.4v43.1h8.4v-17.1h12c2.6,0,4.9-1,6.6-2.8
				c1.7-1.9,2.6-4.2,2.6-6.8V-601.1z M235.9-597.2c0,3.3-1,5-4.8,5h-8v-10.9h8c3.8,0,4.8,1.3,4.8,4.5V-597.2z M296.7-567.5v-43.1
				h-8.4v17.8h-15.5v-17.8h-8.4v43.1h8.4v-17.7h15.5v17.7H296.7z M348.4-567.5h8.9l-14.9-43.1h-11.7l-14.9,43.1h8.9l3.6-11h16.5
				L348.4-567.5z M336.3-602.9h0.6l5.3,16.5h-11.3L336.3-602.9z M406-601.1c0-2.7-0.9-4.9-2.6-6.8c-1.7-1.9-4-2.8-6.6-2.8h-20.4
				v43.1h8.4v-17.1h6.9l8.7,17.1h9.2l-9.1-17.9c3.3-1.5,5.5-5,5.5-8.9V-601.1z M397.6-597.2c0,3.3-1,5-4.8,5h-8v-10.9h8
				c3.8,0,4.8,1.3,4.8,4.5V-597.2z M447.7-587.7l-10.1-22.9h-8.2v43.1h8.1v-26.4h0.3l7.3,16h5.7l7.3-16h0.3v26.4h8.1v-43.1h-8.2
				l-10.1,22.9H447.7z M518.3-567.5h8.9l-14.9-43.1h-11.7l-14.9,43.1h8.9l3.6-11h16.5L518.3-567.5z M506.2-602.9h0.6l5.3,16.5h-11.3
				L506.2-602.9z M572.7-575.2l-1.8,0.2c-1.2,0.1-2.8,0.3-4.7,0.4c-1.8,0.1-3.4,0.2-4.7,0.2c-3.9,0-6.1-0.6-7.2-2.4
				c-1.1-2-1.2-3.6-1.2-7.8v-9c0-3.9,0.5-6.5,1.5-7.9c1.1-1.5,3.4-2.2,6.9-2.2c2.9,0,6.5,0.3,11,0.8v-7.7c-5.7-0.4-9.5-0.7-11.4-0.7
				c-11,0-16.5,4.5-16.5,13.5v17.6c0,9,5.5,13.5,16.5,13.5c1.9,0,5.7-0.3,11.5-0.7V-575.2z M607.4-593.2h-0.6l-8.4-17.5h-9.5
				l14,26.6v16.5h8.4V-584l14-26.6h-9.5L607.4-593.2z"/>
		</g>
		<g>
			<path class="st2" d="M224.3-516.7c-1.6,0-2.9-0.2-4.1-0.5c-1.2-0.4-2.2-1-3-2c-0.8-1-1.5-2.3-1.9-4.1c-0.4-1.8-0.6-4.1-0.6-7
				c0-2.8,0.2-5,0.7-6.8c0.4-1.8,1.1-3.1,1.9-4.1c0.8-1,1.9-1.6,3.1-2c1.2-0.4,2.6-0.6,4.1-0.6c1.2,0,2.3,0.1,3.4,0.2
				c1,0.1,2,0.3,2.8,0.5c0.8,0.2,1.5,0.4,2.1,0.6v4.1c-0.4-0.1-1-0.2-1.7-0.3c-0.7-0.1-1.6-0.2-2.5-0.2c-0.9-0.1-1.9-0.1-3-0.1
				c-1,0-1.9,0.1-2.6,0.3c-0.7,0.2-1.3,0.6-1.7,1.3s-0.7,1.5-0.9,2.6c-0.2,1.2-0.3,2.7-0.3,4.5c0,1.8,0.1,3.2,0.3,4.4
				c0.2,1.2,0.5,2,0.9,2.7c0.4,0.6,1,1.1,1.7,1.3c0.7,0.3,1.6,0.4,2.7,0.4c1.8,0,3.3,0,4.4-0.1c1.1-0.1,2.1-0.2,2.8-0.3v4.1
				c-0.6,0.2-1.4,0.4-2.2,0.6c-0.8,0.2-1.8,0.3-2.8,0.4C226.7-516.8,225.6-516.7,224.3-516.7z"/>
			<path class="st2" d="M288.8-516.7c-1.8,0-3.4-0.2-4.8-0.5c-1.4-0.3-2.5-1-3.4-1.9c-0.9-0.9-1.6-2.3-2.1-4.1
				c-0.5-1.8-0.7-4.1-0.7-6.9c0-2.9,0.2-5.2,0.7-7c0.5-1.8,1.2-3.2,2.1-4.1c0.9-1,2.1-1.6,3.4-2c1.4-0.4,3-0.5,4.8-0.5
				c1.8,0,3.4,0.2,4.8,0.5c1.4,0.4,2.5,1,3.4,2c0.9,1,1.6,2.3,2.1,4.1c0.5,1.8,0.7,4.1,0.7,7c0,2.9-0.2,5.2-0.7,6.9
				c-0.5,1.8-1.1,3.1-2.1,4.1c-0.9,0.9-2.1,1.6-3.4,1.9C292.2-516.9,290.6-516.7,288.8-516.7z M288.8-521.5c1.1,0,2-0.1,2.7-0.4
				c0.7-0.2,1.3-0.7,1.7-1.3s0.7-1.5,0.9-2.6c0.2-1.1,0.3-2.6,0.3-4.4c0-1.9-0.1-3.5-0.3-4.6c-0.2-1.2-0.5-2-0.9-2.6
				c-0.4-0.6-1-1-1.7-1.2c-0.7-0.2-1.6-0.3-2.7-0.3c-1,0-1.9,0.1-2.6,0.3c-0.7,0.2-1.3,0.6-1.7,1.2c-0.4,0.6-0.8,1.5-1,2.6
				s-0.3,2.7-0.3,4.6c0,1.8,0.1,3.3,0.3,4.4c0.2,1.1,0.5,2,0.9,2.6s1,1,1.7,1.3C286.8-521.7,287.7-521.5,288.8-521.5z"/>
			<path class="st2" d="M345.9-517v-26.6h4.3l11.2,17.6v-17.6h5.3v26.6h-4.3l-11.1-17.6v17.6H345.9z"/>
			<path class="st2" d="M413.3-517v-26.6h4.3l11.2,17.6v-17.6h5.3v26.6h-4.3l-11.1-17.6v17.6H413.3z"/>
			<path class="st2" d="M487-516.8c-0.6,0-1.2-0.1-2-0.2s-1.5-0.4-2.1-0.7c-0.7-0.4-1.2-1-1.7-1.7c-0.4-0.8-0.7-1.9-0.7-3.2v-14.9
				c0-1.2,0.2-2.2,0.5-3c0.4-0.8,0.8-1.4,1.4-1.9c0.6-0.5,1.3-0.8,2-1c0.7-0.2,1.4-0.3,2.1-0.3c1.8,0,3.4,0,4.8,0.1
				c1.4,0,2.6,0.1,3.7,0.2s2.1,0.1,3,0.2v4.5h-9.9c-0.7,0-1.3,0.2-1.7,0.5c-0.4,0.4-0.6,0.9-0.6,1.7v3.9l10.5,0.3v4.2l-10.5,0.3v3.7
				c0,0.6,0.1,1.1,0.3,1.5c0.2,0.3,0.5,0.6,0.8,0.7c0.3,0.1,0.7,0.2,1.1,0.2h10v4.5c-1.1,0.1-2.2,0.2-3.5,0.3
				c-1.3,0.1-2.6,0.1-3.9,0.2C489.4-516.8,488.1-516.8,487-516.8z"/>
			<path class="st2" d="M553-516.7c-1.6,0-2.9-0.2-4.1-0.5c-1.2-0.4-2.2-1-3-2c-0.8-1-1.5-2.3-1.9-4.1c-0.4-1.8-0.6-4.1-0.6-7
				c0-2.8,0.2-5,0.7-6.8c0.4-1.8,1.1-3.1,1.9-4.1c0.8-1,1.9-1.6,3.1-2c1.2-0.4,2.6-0.6,4.1-0.6c1.2,0,2.3,0.1,3.4,0.2
				c1,0.1,2,0.3,2.8,0.5c0.8,0.2,1.5,0.4,2.1,0.6v4.1c-0.4-0.1-1-0.2-1.7-0.3c-0.7-0.1-1.6-0.2-2.5-0.2c-0.9-0.1-1.9-0.1-3-0.1
				c-1,0-1.9,0.1-2.6,0.3c-0.7,0.2-1.3,0.6-1.7,1.3s-0.7,1.5-0.9,2.6c-0.2,1.2-0.3,2.7-0.3,4.5c0,1.8,0.1,3.2,0.3,4.4
				c0.2,1.2,0.5,2,0.9,2.7c0.4,0.6,1,1.1,1.7,1.3c0.7,0.3,1.6,0.4,2.7,0.4c1.8,0,3.3,0,4.4-0.1c1.1-0.1,2.1-0.2,2.8-0.3v4.1
				c-0.6,0.2-1.4,0.4-2.2,0.6c-0.8,0.2-1.8,0.3-2.8,0.4C555.4-516.8,554.2-516.7,553-516.7z"/>
			<path class="st2" d="M612.8-517v-21.9h-7.3v-4.8h20v4.8h-7.3v21.9H612.8z"/>
		</g>
	</g>
	<g>
		<path class="st1" d="M-526.6-413.1c0-2.7-0.9-4.9-2.6-6.8c-1.7-1.9-4-2.8-6.6-2.8h-20.4v43.1h8.4v-17.1h12c2.6,0,4.9-1,6.6-2.8
			c1.7-1.9,2.6-4.2,2.6-6.8V-413.1z M-535.1-409.2c0,3.3-1,5-4.8,5h-8v-10.9h8c3.8,0,4.8,1.3,4.8,4.5V-409.2z M-474.3-379.5v-43.1
			h-8.4v17.8h-15.5v-17.8h-8.4v43.1h8.4v-17.7h15.5v17.7H-474.3z M-422.6-379.5h8.9l-14.9-43.1h-11.7l-14.9,43.1h8.9l3.6-11h16.5
			L-422.6-379.5z M-434.7-415h0.6l5.3,16.5h-11.3L-434.7-415z M-365-413.1c0-2.7-0.9-4.9-2.6-6.8c-1.7-1.9-4-2.8-6.6-2.8h-20.4v43.1
			h8.4v-17.1h6.9l8.7,17.1h9.2l-9.1-17.9c3.3-1.5,5.5-5,5.5-8.9V-413.1z M-373.4-409.2c0,3.3-1,5-4.8,5h-8v-10.9h8
			c3.8,0,4.8,1.3,4.8,4.5V-409.2z M-323.3-399.8l-10.1-22.9h-8.2v43.1h8.1V-406h0.3l7.3,16h5.7l7.3-16h0.3v26.4h8.1v-43.1h-8.2
			l-10.1,22.9H-323.3z M-252.7-379.5h8.9l-14.9-43.1h-11.7l-14.9,43.1h8.9l3.6-11h16.5L-252.7-379.5z M-264.8-415h0.6l5.3,16.5
			h-11.3L-264.8-415z M-198.3-387.2l-1.8,0.2c-1.2,0.1-2.8,0.3-4.7,0.4c-1.8,0.1-3.4,0.2-4.7,0.2c-3.9,0-6.1-0.6-7.2-2.4
			c-1.1-2-1.2-3.6-1.2-7.8v-9c0-3.9,0.5-6.5,1.5-7.9c1.1-1.5,3.4-2.2,6.9-2.2c2.9,0,6.5,0.3,11,0.8v-7.7c-5.7-0.4-9.5-0.7-11.4-0.7
			c-11,0-16.5,4.5-16.5,13.5v17.6c0,9,5.5,13.5,16.5,13.5c1.9,0,5.7-0.3,11.5-0.7V-387.2z M-163.6-405.2h-0.6l-8.4-17.5h-9.5
			l14,26.6v16.5h8.4v-16.5l14-26.6h-9.5L-163.6-405.2z"/>
	</g>
	<g>
		<path class="st0" d="M-235.2-531v17.1h-37.1l-19.3,36.8c-1.8,3.2-5,5-8.6,4.7c-3.6,0-6.4-2.5-7.5-5.7l-14.6-42.5l-12.8,31
			c-1.8,3.2-5.4,5.4-9.3,5.4c-3.6-0.7-6.8-3.6-7.5-7.5l-12.1-75l-14.6,114.2c-0.4,4.3-3.9,7.5-8.2,7.5c0,0,0,0-0.3,0
			c-3.9,0-7.5-3.2-8.6-7.2l-16.8-88.2l-10.4,21.8c-1.4,2.9-4.6,4.6-7.8,4.6h-36.1V-531h30.3l19.6-40.7c1.8-3.6,5.4-5.3,8.9-5
			c3.9,0.7,6.8,3.2,7.5,7.1l11.8,62.1l15-116c0.4-4.3,3.9-7.1,8.2-7.1c4.3-0.4,7.8,2.9,8.9,7.1l16.4,100l10.7-25
			c1.4-3.2,4.6-5.7,8.2-5.4c3.9,0,6.8,2.5,8.2,5.7l15.3,45.3l12.5-23.6c1.4-2.9,4.3-4.6,7.5-4.6H-235.2z"/>
	</g>
	<g>
		<path class="st2" d="M-546.7-345.8c-1.6,0-2.9-0.2-4.1-0.5c-1.2-0.4-2.2-1-3-2c-0.8-1-1.5-2.3-1.9-4.1c-0.4-1.8-0.6-4.1-0.6-7
			c0-2.8,0.2-5,0.7-6.8c0.4-1.8,1.1-3.1,1.9-4.1c0.8-1,1.9-1.6,3.1-2c1.2-0.4,2.6-0.6,4.1-0.6c1.2,0,2.3,0.1,3.4,0.2
			c1,0.1,2,0.3,2.8,0.5c0.8,0.2,1.5,0.4,2.1,0.6v4.1c-0.4-0.1-1-0.2-1.7-0.3c-0.7-0.1-1.6-0.2-2.5-0.2s-1.9-0.1-3-0.1
			c-1,0-1.9,0.1-2.6,0.3s-1.3,0.6-1.7,1.3s-0.7,1.5-0.9,2.6c-0.2,1.2-0.3,2.7-0.3,4.5c0,1.8,0.1,3.2,0.3,4.4c0.2,1.2,0.5,2,0.9,2.7
			c0.4,0.6,1,1.1,1.7,1.3c0.7,0.3,1.6,0.4,2.7,0.4c1.8,0,3.3,0,4.4-0.1c1.1-0.1,2.1-0.2,2.8-0.3v4.1c-0.6,0.2-1.4,0.4-2.2,0.6
			c-0.8,0.2-1.8,0.3-2.8,0.4C-544.3-345.8-545.4-345.8-546.7-345.8z"/>
		<path class="st2" d="M-482.2-345.8c-1.8,0-3.4-0.2-4.8-0.5s-2.5-1-3.4-1.9c-0.9-0.9-1.6-2.3-2.1-4.1c-0.5-1.8-0.7-4.1-0.7-6.9
			c0-2.9,0.2-5.2,0.7-7c0.5-1.8,1.2-3.2,2.1-4.1c0.9-1,2.1-1.6,3.4-2c1.4-0.4,3-0.5,4.8-0.5c1.8,0,3.4,0.2,4.8,0.5
			c1.4,0.4,2.5,1,3.4,2c0.9,1,1.6,2.3,2.1,4.1c0.5,1.8,0.7,4.1,0.7,7c0,2.9-0.2,5.2-0.7,6.9c-0.5,1.8-1.1,3.1-2.1,4.1
			c-0.9,0.9-2.1,1.6-3.4,1.9C-478.8-346-480.4-345.8-482.2-345.8z M-482.2-350.6c1.1,0,2-0.1,2.7-0.4c0.7-0.2,1.3-0.7,1.7-1.3
			s0.7-1.5,0.9-2.6c0.2-1.1,0.3-2.6,0.3-4.4c0-1.9-0.1-3.5-0.3-4.6c-0.2-1.2-0.5-2-0.9-2.6s-1-1-1.7-1.2c-0.7-0.2-1.6-0.3-2.7-0.3
			c-1,0-1.9,0.1-2.6,0.3c-0.7,0.2-1.3,0.6-1.7,1.2c-0.4,0.6-0.8,1.5-1,2.6c-0.2,1.2-0.3,2.7-0.3,4.6c0,1.8,0.1,3.3,0.3,4.4
			c0.2,1.1,0.5,2,0.9,2.6c0.4,0.6,1,1,1.7,1.3C-484.2-350.7-483.3-350.6-482.2-350.6z"/>
		<path class="st2" d="M-425.1-346v-26.6h4.3l11.2,17.6v-17.6h5.3v26.6h-4.3l-11.1-17.6v17.6H-425.1z"/>
		<path class="st2" d="M-357.7-346v-26.6h4.3l11.2,17.6v-17.6h5.3v26.6h-4.3l-11.1-17.6v17.6H-357.7z"/>
		<path class="st2" d="M-284-345.8c-0.6,0-1.2-0.1-2-0.2c-0.7-0.1-1.5-0.4-2.1-0.7c-0.7-0.4-1.2-1-1.7-1.7c-0.4-0.8-0.7-1.9-0.7-3.2
			v-14.9c0-1.2,0.2-2.2,0.5-3c0.4-0.8,0.8-1.4,1.4-1.9c0.6-0.5,1.3-0.8,2-1c0.7-0.2,1.4-0.3,2.1-0.3c1.8,0,3.4,0,4.8,0.1
			c1.4,0,2.6,0.1,3.7,0.2c1.1,0.1,2.1,0.1,3,0.2v4.5h-9.9c-0.7,0-1.3,0.2-1.7,0.5c-0.4,0.4-0.6,0.9-0.6,1.7v3.9l10.5,0.3v4.2
			l-10.5,0.3v3.7c0,0.6,0.1,1.1,0.3,1.5c0.2,0.3,0.5,0.6,0.8,0.7c0.3,0.1,0.7,0.2,1.1,0.2h10v4.5c-1.1,0.1-2.2,0.2-3.5,0.3
			c-1.3,0.1-2.6,0.1-3.9,0.2C-281.6-345.8-282.9-345.8-284-345.8z"/>
		<path class="st2" d="M-218-345.8c-1.6,0-2.9-0.2-4.1-0.5c-1.2-0.4-2.2-1-3-2c-0.8-1-1.5-2.3-1.9-4.1c-0.4-1.8-0.6-4.1-0.6-7
			c0-2.8,0.2-5,0.7-6.8c0.4-1.8,1.1-3.1,1.9-4.1s1.9-1.6,3.1-2c1.2-0.4,2.6-0.6,4.1-0.6c1.2,0,2.3,0.1,3.4,0.2c1,0.1,2,0.3,2.8,0.5
			c0.8,0.2,1.5,0.4,2.1,0.6v4.1c-0.4-0.1-1-0.2-1.7-0.3c-0.7-0.1-1.6-0.2-2.5-0.2c-0.9-0.1-1.9-0.1-3-0.1c-1,0-1.9,0.1-2.6,0.3
			c-0.7,0.2-1.3,0.6-1.7,1.3s-0.7,1.5-0.9,2.6c-0.2,1.2-0.3,2.7-0.3,4.5c0,1.8,0.1,3.2,0.3,4.4c0.2,1.2,0.5,2,0.9,2.7s1,1.1,1.7,1.3
			c0.7,0.3,1.6,0.4,2.7,0.4c1.8,0,3.3,0,4.4-0.1s2.1-0.2,2.8-0.3v4.1c-0.6,0.2-1.4,0.4-2.2,0.6c-0.8,0.2-1.8,0.3-2.8,0.4
			C-215.6-345.8-216.8-345.8-218-345.8z"/>
		<path class="st2" d="M-158.2-346v-21.9h-7.3v-4.8h20v4.8h-7.3v21.9H-158.2z"/>
	</g>
	<g>
		<g>
			<path class="st3" d="M246.4,260.3v89.3h-23.2v-89.3H246.4z"/>
			<path class="st3" d="M307.6,260.3v89.3h-20.4l-12.1-40.6v40.6h-19.4v-89.3h19.4l13,40.2v-40.2H307.6z"/>
			<path class="st3" d="M316.9,260.3h23.4c6.3,0,11.2,0.5,14.6,1.5s6,2.4,7.7,4.3c1.7,1.9,2.9,4.1,3.5,6.8c0.6,2.7,0.9,6.8,0.9,12.4
				v7.8c0,5.7-0.6,9.9-1.8,12.5c-1.2,2.6-3.3,4.6-6.5,6c-3.1,1.4-7.3,2.1-12.3,2.1h-6.2v36h-23.2V260.3z M340.1,275.6v22.7
				c0.7,0,1.2,0.1,1.7,0.1c2.1,0,3.6-0.5,4.4-1.6c0.8-1,1.2-3.2,1.2-6.5V283c0-3.1-0.5-5-1.4-6C345.1,276.1,343.1,275.6,340.1,275.6
				z"/>
			<path class="st3" d="M413.8,260.3l13.3,89.3h-23.7l-1.2-16.1h-8.3l-1.4,16.1h-24l11.8-89.3H413.8z M401.5,317.8
				c-1.2-10.1-2.4-22.6-3.5-37.5c-2.4,17.1-3.9,29.6-4.5,37.5H401.5z"/>
			<path class="st3" d="M477.8,260.3v17.9H464v71.5h-23.2v-71.5H427v-17.9H477.8z"/>
			<path class="st3" d="M506.3,260.3v89.3h-23.2v-89.3H506.3z"/>
			<path class="st3" d="M515.6,260.3h38.7v17.9h-15.5v16.9h14.5v17h-14.5v19.6h17v17.9h-40.3V260.3z"/>
			<path class="st3" d="M614.5,260.3v89.3h-20.4L582,309.1v40.6h-19.4v-89.3H582l13,40.2v-40.2H614.5z"/>
			<path class="st3" d="M670.6,260.3v17.9h-13.8v71.5h-23.2v-71.5h-13.7v-17.9H670.6z"/>
		</g>
	</g>
	<g>
		<path class="st0" d="M194.1,95.2v13.2h-28.5l-14.8,28.2c-1.4,2.5-3.8,3.9-6.6,3.6c-2.7,0-4.9-1.9-5.8-4.4l-11.2-32.6l-9.9,23.8
			c-1.4,2.5-4.1,4.1-7.1,4.1c-2.7-0.5-5.2-2.7-5.8-5.8l-9.3-57.6l-11.2,87.7c-0.3,3.3-3,5.8-6.3,5.8c0,0,0,0-0.3,0
			c-3,0-5.8-2.5-6.6-5.5L57.8,88.1l-8,16.7c-1.1,2.2-3.6,3.6-6,3.6H16.2V95.2h23.3L54.6,64c1.4-2.7,4.1-4.1,6.9-3.8
			c3,0.5,5.2,2.5,5.8,5.5l9,47.7l11.5-89.1c0.3-3.3,3-5.5,6.3-5.5c3.3-0.3,6,2.2,6.9,5.5l12.6,76.8l8.2-19.2
			c1.1-2.5,3.6-4.4,6.3-4.1c3,0,5.2,1.9,6.3,4.4l11.8,34.8l9.6-18.1c1.1-2.2,3.3-3.6,5.8-3.6H194.1z"/>
	</g>
	<g>
		<g>
			<path class="st3" d="M276.2,102.6c0,9-0.2,15.3-0.6,19.1c-0.4,3.7-1.7,7.1-4,10.2s-5.2,5.5-9,7.1c-3.8,1.7-8.2,2.5-13.2,2.5
				c-4.8,0-9.1-0.8-12.9-2.3c-3.8-1.6-6.9-3.9-9.2-7c-2.3-3.1-3.7-6.5-4.1-10.2c-0.4-3.7-0.7-10.1-0.7-19.3V87.4
				c0-9,0.2-15.3,0.6-19.1c0.4-3.7,1.7-7.1,4-10.2c2.2-3.1,5.2-5.5,9-7.1c3.8-1.7,8.2-2.5,13.2-2.5c4.8,0,9.1,0.8,12.9,2.3
				c3.8,1.6,6.9,3.9,9.2,7c2.3,3.1,3.7,6.5,4.1,10.2c0.4,3.7,0.7,10.1,0.7,19.3V102.6z M253,73.3c0-4.2-0.2-6.8-0.7-8
				c-0.5-1.2-1.4-1.7-2.8-1.7c-1.2,0-2.1,0.5-2.8,1.4c-0.6,0.9-1,3.7-1,8.3V115c0,5.2,0.2,8.4,0.6,9.6c0.4,1.2,1.4,1.8,3,1.8
				c1.6,0,2.6-0.7,3-2.1c0.4-1.4,0.7-4.7,0.7-10V73.3z"/>
			<path class="st3" d="M337.7,50.3V110c0,6.8-0.2,11.5-0.7,14.3s-1.7,5.6-3.9,8.4c-2.2,2.9-5,5.1-8.6,6.6
				c-3.5,1.5-7.7,2.2-12.6,2.2c-5.3,0-10-0.9-14.1-2.6c-4.1-1.8-7.1-4.1-9.2-6.9c-2-2.8-3.2-5.8-3.6-9c-0.4-3.1-0.6-9.8-0.6-19.8
				V50.3h23.2v67c0,3.9,0.2,6.4,0.6,7.5c0.4,1.1,1.3,1.6,2.6,1.6c1.5,0,2.4-0.6,2.8-1.8s0.6-4,0.6-8.5V50.3H337.7z"/>
			<path class="st3" d="M393.5,50.3v17.9h-13.8v71.5h-23.2V68.2h-13.7V50.3H393.5z"/>
			<path class="st3" d="M398.8,50.3h23.4c6.3,0,11.2,0.5,14.6,1.5s6,2.4,7.7,4.3c1.7,1.9,2.9,4.1,3.5,6.8c0.6,2.7,0.9,6.8,0.9,12.4
				v7.8c0,5.7-0.6,9.9-1.8,12.5c-1.2,2.6-3.3,4.6-6.5,6c-3.1,1.4-7.3,2.1-12.3,2.1H422v36h-23.2V50.3z M422,65.6v22.7
				c0.7,0,1.2,0.1,1.7,0.1c2.1,0,3.6-0.5,4.4-1.6c0.8-1,1.2-3.2,1.2-6.5V73c0-3.1-0.5-5-1.4-6C427,66.1,425,65.6,422,65.6z"/>
			<path class="st3" d="M495.6,50.3l13.3,89.3h-23.7l-1.2-16.1h-8.3l-1.4,16.1h-24l11.8-89.3H495.6z M483.3,107.8
				c-1.2-10.1-2.4-22.6-3.5-37.5c-2.4,17.1-3.9,29.6-4.5,37.5H483.3z"/>
			<path class="st3" d="M559.7,50.3v17.9h-13.8v71.5h-23.2V68.2h-13.7V50.3H559.7z"/>
			<path class="st3" d="M588.2,50.3v89.3H565V50.3H588.2z"/>
			<path class="st3" d="M597.5,50.3h38.7v17.9h-15.5v16.9h14.5v17h-14.5v19.6h17v17.9h-40.3V50.3z"/>
			<path class="st3" d="M696.3,50.3v89.3H676l-12.1-40.6v40.6h-19.4V50.3h19.4l13,40.2V50.3H696.3z"/>
			<path class="st3" d="M752.4,50.3v17.9h-13.8v71.5h-23.2V68.2h-13.7V50.3H752.4z"/>
		</g>
	</g>
	<g>
		<path class="st0" d="M194.1-108.8v13.2h-28.5l-14.8,28.2c-1.4,2.5-3.8,3.9-6.6,3.6c-2.7,0-4.9-1.9-5.8-4.4l-11.2-32.6L117.3-77
			c-1.4,2.5-4.1,4.1-7.1,4.1c-2.7-0.5-5.2-2.7-5.8-5.8l-9.3-57.6L83.9-48.5c-0.3,3.3-3,5.8-6.3,5.8c0,0,0,0-0.3,0
			c-3,0-5.8-2.5-6.6-5.5l-12.9-67.7l-8,16.7c-1.1,2.2-3.6,3.6-6,3.6H16.2v-13.2h23.3L54.6-140c1.4-2.7,4.1-4.1,6.9-3.8
			c3,0.5,5.2,2.5,5.8,5.5l9,47.7l11.5-89.1c0.3-3.3,3-5.5,6.3-5.5c3.3-0.3,6,2.2,6.9,5.5l12.6,76.8l8.2-19.2
			c1.1-2.5,3.6-4.4,6.3-4.1c3,0,5.2,1.9,6.3,4.4l11.8,34.8l9.6-18.1c1.1-2.2,3.3-3.6,5.8-3.6H194.1z"/>
	</g>
	<g>
		<g>
			<path class="st3" d="M255.4-153.7v89.3h-23.2v-89.3H255.4z"/>
			<path class="st3" d="M320-153.7l-11.8,89.3h-35.3l-13.4-89.3H284c2.8,24.6,4.9,45.4,6.1,62.5c1.2-17.2,2.5-32.5,3.8-45.8
				l1.6-16.6H320z"/>
			<path class="st3" d="M350.5-108.6v15.4h-29.3v-15.4H350.5z"/>
			<path class="st3" d="M357.2-153.7h23.4c6.3,0,11.2,0.5,14.6,1.5s6,2.4,7.7,4.3c1.7,1.9,2.9,4.1,3.5,6.8c0.6,2.7,0.9,6.8,0.9,12.4
				v7.8c0,5.7-0.6,9.9-1.8,12.5c-1.2,2.6-3.3,4.6-6.5,6c-3.1,1.4-7.3,2.1-12.3,2.1h-6.2v36h-23.2V-153.7z M380.4-138.4v22.7
				c0.7,0,1.2,0.1,1.7,0.1c2.1,0,3.6-0.5,4.4-1.6c0.8-1,1.2-3.2,1.2-6.5v-7.3c0-3.1-0.5-5-1.4-6
				C385.4-137.9,383.4-138.4,380.4-138.4z"/>
			<path class="st3" d="M413.9-153.7h16.4c11,0,18.4,0.4,22.3,1.3c3.9,0.8,7,3,9.5,6.5c2.4,3.5,3.7,9,3.7,16.6c0,7-0.9,11.6-2.6,14
				c-1.7,2.4-5.1,3.8-10.2,4.3c4.6,1.1,7.7,2.7,9.3,4.6c1.6,1.9,2.6,3.7,3,5.3c0.4,1.6,0.6,6,0.6,13.2v23.6h-21.6V-94
				c0-4.8-0.4-7.7-1.1-8.9c-0.8-1.1-2.7-1.7-5.9-1.7v40.3h-23.2V-153.7z M437.1-138.4v19.9c2.6,0,4.4-0.4,5.5-1.1c1-0.7,1.6-3,1.6-7
				v-4.9c0-2.8-0.5-4.7-1.5-5.6C441.7-137.9,439.8-138.4,437.1-138.4z"/>
			<path class="st3" d="M474.7-153.7h38.7v17.9H498v16.9h14.5v17H498v19.6h17v17.9h-40.3V-153.7z"/>
			<path class="st3" d="M521.7-153.7h23.4c6.3,0,11.2,0.5,14.6,1.5s6,2.4,7.7,4.3c1.7,1.9,2.9,4.1,3.5,6.8c0.6,2.7,0.9,6.8,0.9,12.4
				v7.8c0,5.7-0.6,9.9-1.8,12.5c-1.2,2.6-3.3,4.6-6.5,6c-3.1,1.4-7.3,2.1-12.3,2.1h-6.2v36h-23.2V-153.7z M544.9-138.4v22.7
				c0.7,0,1.2,0.1,1.7,0.1c2.1,0,3.6-0.5,4.4-1.6c0.8-1,1.2-3.2,1.2-6.5v-7.3c0-3.1-0.5-5-1.4-6
				C549.9-137.9,547.9-138.4,544.9-138.4z"/>
		</g>
	</g>
	<g>
		<path class="st0" d="M194.1-303.8v13.2h-28.5l-14.8,28.2c-1.4,2.5-3.8,3.9-6.6,3.6c-2.7,0-4.9-1.9-5.8-4.4l-11.2-32.6l-9.9,23.8
			c-1.4,2.5-4.1,4.1-7.1,4.1c-2.7-0.5-5.2-2.7-5.8-5.8l-9.3-57.6l-11.2,87.7c-0.3,3.3-3,5.8-6.3,5.8c0,0,0,0-0.3,0
			c-3,0-5.8-2.5-6.6-5.5l-12.9-67.7l-8,16.7c-1.1,2.2-3.6,3.6-6,3.6H16.2v-13.2h23.3L54.6-335c1.4-2.7,4.1-4.1,6.9-3.8
			c3,0.5,5.2,2.5,5.8,5.5l9,47.7l11.5-89.1c0.3-3.3,3-5.5,6.3-5.5c3.3-0.3,6,2.2,6.9,5.5l12.6,76.8l8.2-19.2
			c1.1-2.5,3.6-4.4,6.3-4.1c3,0,5.2,1.9,6.3,4.4l11.8,34.8l9.6-18.1c1.1-2.2,3.3-3.6,5.8-3.6H194.1z"/>
	</g>
	<g>
		<path class="st3" d="M232.2-348.7h17.4c11.2,0,18.8,0.5,22.8,1.5c4,1,7,2.7,9,5.1c2.1,2.4,3.3,5,3.9,7.9c0.5,2.9,0.8,8.6,0.8,17
			v31.3c0,8-0.4,13.4-1.1,16.1c-0.8,2.7-2.1,4.8-3.9,6.3c-1.9,1.5-4.2,2.6-7,3.2c-2.8,0.6-6.9,0.9-12.5,0.9h-29.3V-348.7z
			 M255.4-333.4v58.8c3.3,0,5.4-0.7,6.2-2c0.8-1.3,1.2-5,1.2-11v-34.7c0-4-0.1-6.6-0.4-7.8c-0.3-1.1-0.8-2-1.8-2.5
			C259.7-333.1,258-333.4,255.4-333.4z"/>
		<path class="st3" d="M317.9-348.7v89.3h-23.2v-89.3H317.9z"/>
		<path class="st3" d="M376.4-321.6h-21.6v-6.6c0-3.1-0.3-5.1-0.8-5.9c-0.6-0.8-1.5-1.3-2.8-1.3c-1.4,0-2.5,0.6-3.2,1.7
			c-0.7,1.1-1.1,2.9-1.1,5.2c0,3,0.4,5.2,1.2,6.7c0.8,1.5,3,3.3,6.6,5.5c10.3,6.1,16.9,11.2,19.5,15.1c2.7,3.9,4,10.3,4,19
			c0,6.4-0.7,11.1-2.2,14.1c-1.5,3-4.4,5.5-8.6,7.6c-4.3,2-9.2,3.1-14.9,3.1c-6.2,0-11.5-1.2-15.9-3.5c-4.4-2.4-7.3-5.4-8.6-9
			c-1.4-3.6-2-8.8-2-15.5v-5.8h21.6v10.9c0,3.3,0.3,5.5,0.9,6.5c0.6,1,1.7,1.4,3.2,1.4s2.7-0.6,3.4-1.8c0.8-1.2,1.1-3,1.1-5.4
			c0-5.3-0.7-8.7-2.2-10.3c-1.5-1.6-5.1-4.3-10.9-8.1c-5.8-3.8-9.6-6.6-11.5-8.3c-1.9-1.7-3.4-4.1-4.7-7.2c-1.2-3.1-1.8-7-1.8-11.7
			c0-6.8,0.9-11.8,2.6-15c1.7-3.2,4.6-5.6,8.5-7.4c3.9-1.8,8.6-2.7,14.1-2.7c6,0,11.2,1,15.4,2.9c4.2,2,7.1,4.4,8.4,7.4
			c1.4,3,2.1,8,2.1,15.1V-321.6z"/>
		<path class="st3" d="M385.6-348.7H409c6.3,0,11.2,0.5,14.6,1.5s6,2.4,7.7,4.3c1.7,1.9,2.9,4.1,3.5,6.8c0.6,2.7,0.9,6.8,0.9,12.4
			v7.8c0,5.7-0.6,9.9-1.8,12.5c-1.2,2.6-3.3,4.6-6.5,6c-3.1,1.4-7.3,2.1-12.3,2.1h-6.2v36h-23.2V-348.7z M408.9-333.4v22.7
			c0.7,0,1.2,0.1,1.7,0.1c2.1,0,3.6-0.5,4.4-1.6c0.8-1,1.2-3.2,1.2-6.5v-7.3c0-3.1-0.5-5-1.4-6C413.9-332.9,411.9-333.4,408.9-333.4
			z"/>
		<path class="st3" d="M442.4-348.7h38.7v17.9h-15.5v16.9h14.5v17h-14.5v19.6h17v17.9h-40.3V-348.7z"/>
		<path class="st3" d="M541.2-348.7v89.3h-20.4l-12.1-40.6v40.6h-19.4v-89.3h19.4l13,40.2v-40.2H541.2z"/>
		<path class="st3" d="M599.7-321.6h-21.6v-6.6c0-3.1-0.3-5.1-0.8-5.9c-0.6-0.8-1.5-1.3-2.8-1.3c-1.4,0-2.5,0.6-3.2,1.7
			c-0.7,1.1-1.1,2.9-1.1,5.2c0,3,0.4,5.2,1.2,6.7c0.8,1.5,3,3.3,6.6,5.5c10.3,6.1,16.9,11.2,19.5,15.1c2.7,3.9,4,10.3,4,19
			c0,6.4-0.7,11.1-2.2,14.1c-1.5,3-4.4,5.5-8.6,7.6c-4.3,2-9.2,3.1-14.9,3.1c-6.2,0-11.5-1.2-15.9-3.5c-4.4-2.4-7.3-5.4-8.6-9
			c-1.4-3.6-2-8.8-2-15.5v-5.8h21.6v10.9c0,3.3,0.3,5.5,0.9,6.5c0.6,1,1.7,1.4,3.2,1.4s2.7-0.6,3.4-1.8c0.8-1.2,1.1-3,1.1-5.4
			c0-5.3-0.7-8.7-2.2-10.3c-1.5-1.6-5.1-4.3-10.9-8.1c-5.8-3.8-9.6-6.6-11.5-8.3c-1.9-1.7-3.4-4.1-4.7-7.2c-1.2-3.1-1.8-7-1.8-11.7
			c0-6.8,0.9-11.8,2.6-15c1.7-3.2,4.6-5.6,8.5-7.4c3.9-1.8,8.6-2.7,14.1-2.7c6,0,11.2,1,15.4,2.9c4.2,2,7.1,4.4,8.4,7.4
			c1.4,3,2.1,8,2.1,15.1V-321.6z"/>
		<path class="st3" d="M608.9-348.7h38.7v17.9h-15.5v16.9h14.5v17h-14.5v19.6h17v17.9h-40.3V-348.7z"/>
	</g>
</g>
<g id="Layer_1">
</g>
</svg>
