<?xml version="1.0" encoding="utf-8"?>
<!-- Generator: Adobe Illustrator 27.2.0, SVG Export Plug-In . SVG Version: 6.00 Build 0)  -->
<svg version="1.1" id="Layer_1" xmlns="http://www.w3.org/2000/svg" xmlns:xlink="http://www.w3.org/1999/xlink" x="0px" y="0px"
	 viewBox="0 0 112.2 108.2" style="enable-background:new 0 0 112.2 108.2;" xml:space="preserve">
<style type="text/css">
	.st0{opacity:0.78;fill:#FFFFFF;}
	.st1{fill:#36B3B6;}
	
		.st2{opacity:0.5;clip-path:url(#SVGID_00000179633602836042314450000013836705139406124938_);fill:url(#SVGID_00000178886045313494915730000008242850983424331136_);}
	
		.st3{opacity:0.5;clip-path:url(#SVGID_00000179633602836042314450000013836705139406124938_);fill:url(#SVGID_00000129913122387616759760000011786041501599432352_);}
	.st4{fill:#22608A;}
	.st5{fill:#123A60;}
	.st6{fill:#FFFFFF;}
	.st7{fill:#CDE3E8;}
	.st8{opacity:0.4;fill:url(#SVGID_00000142854774097789709460000014088611313571855539_);}
	.st9{opacity:0.4;fill:url(#SVGID_00000116230432009839348340000009013284404852559794_);}
	.st10{opacity:0.5;fill:url(#SVGID_00000129904101276462197100000007760739277377970580_);}
	.st11{clip-path:url(#SVGID_00000087378873404415892950000005555410726909431483_);}
	.st12{fill:#056F9A;}
	.st13{fill:#AEAEAE;}
	.st14{opacity:0.5;fill:url(#SVGID_00000092420529067695090570000016548437273526368917_);}
	.st15{fill:#BB2025;}
	.st16{fill:#F47C2A;}
	.st17{fill:#DF1F26;}
	
		.st18{opacity:0.5;clip-path:url(#SVGID_00000133527073456144951150000011267997750645821862_);fill:url(#SVGID_00000178917861189059557380000016385753455625476491_);}
	.st19{fill:#A0C3D3;}
	
		.st20{opacity:0.5;clip-path:url(#SVGID_00000097468177069103373760000007383057981203150014_);fill:url(#SVGID_00000119106032842357517160000004049839952718941856_);}
	.st21{opacity:0.5;fill:url(#SVGID_00000147199083639567123040000001027680095095264679_);}
	
		.st22{opacity:0.4;clip-path:url(#SVGID_00000079449037986828657590000006008530796567189928_);fill:url(#SVGID_00000088849055181647653200000016786500937910041763_);}
	
		.st23{opacity:0.4;clip-path:url(#SVGID_00000079449037986828657590000006008530796567189928_);fill:url(#SVGID_00000116230222974602072240000000038371075370812838_);}
	.st24{fill:#F05223;}
	.st25{opacity:0.4;fill:url(#SVGID_00000150821973104956510880000009673309652149405059_);}
	.st26{opacity:0.4;fill:url(#SVGID_00000182514456773738642270000015007001154411325837_);}
	.st27{opacity:0.5;fill:url(#SVGID_00000052079026251727549820000012366893547779045256_);}
	.st28{opacity:0.5;fill:url(#SVGID_00000177480646522730294350000013838768198571848322_);}
	.st29{opacity:0.5;fill:url(#SVGID_00000031164967627293267310000006771122421905904513_);}
	
		.st30{opacity:0.5;clip-path:url(#SVGID_00000123412976107885960270000014434491553601388975_);fill:url(#SVGID_00000026854982734960019860000000711375446772894890_);}
	.st31{opacity:0.92;fill:#FFFFFF;}
</style>
<g>
	<path class="st0" d="M103.9,79.2c0,0.9-0.6,2-1.4,2.4L59,106.6c-0.8,0.4-2,0.4-2.8,0L12.8,81.6c-0.8-0.4-1.4-1.5-1.4-2.4V29
		c0-0.9,0.6-2,1.4-2.4L56.3,1.5c0.8-0.4,2-0.4,2.8,0l43.4,25.1c0.8,0.4,1.4,1.5,1.4,2.4V79.2z"/>
	<path class="st1" d="M102.7,78.6c0,0.9-0.6,1.9-1.3,2.3L59,105.4c-0.7,0.4-2,0.4-2.7,0L13.9,80.9c-0.7-0.4-1.3-1.5-1.3-2.3V29.6
		c0-0.9,0.6-1.9,1.3-2.3L56.3,2.8c0.7-0.4,1.9-0.4,2.7,0l42.4,24.5c0.7,0.4,1.3,1.5,1.3,2.3V78.6z"/>
	
		<linearGradient id="SVGID_00000152950930807664641380000005560319340766150325_" gradientUnits="userSpaceOnUse" x1="-249.0109" y1="-13.7831" x2="-228.1174" y2="-36.1885" gradientTransform="matrix(0.4969 -0.3191 0.5403 0.8415 161.0249 27.8973)">
		<stop  offset="0.1813" style="stop-color:#FFFFFF"/>
		<stop  offset="0.2846" style="stop-color:#E6E6E6"/>
		<stop  offset="0.5048" style="stop-color:#A5A5A5"/>
		<stop  offset="0.8216" style="stop-color:#3E3E3E"/>
		<stop  offset="1" style="stop-color:#010101"/>
	</linearGradient>
	<polygon style="opacity:0.5;fill:url(#SVGID_00000152950930807664641380000005560319340766150325_);" points="49.3,80.1 24.6,93.3 
		8.4,82.3 23,74.5 	"/>
	
		<linearGradient id="SVGID_00000141415193804179265700000001542243163322936198_" gradientUnits="userSpaceOnUse" x1="-145.2285" y1="-39.8265" x2="-117.9513" y2="-69.0777" gradientTransform="matrix(0.4969 -0.3191 0.5403 0.8415 161.0249 27.8973)">
		<stop  offset="0.1813" style="stop-color:#FFFFFF"/>
		<stop  offset="0.2846" style="stop-color:#E6E6E6"/>
		<stop  offset="0.5048" style="stop-color:#A5A5A5"/>
		<stop  offset="0.8216" style="stop-color:#3E3E3E"/>
		<stop  offset="1" style="stop-color:#010101"/>
	</linearGradient>
	<polygon style="opacity:0.5;fill:url(#SVGID_00000141415193804179265700000001542243163322936198_);" points="88.9,23.2 80.5,28.9 
		80.2,31.2 66.6,40.4 43.9,29.6 74.5,11.8 	"/>
	
		<linearGradient id="SVGID_00000133509455042046342830000014317994167437070762_" gradientUnits="userSpaceOnUse" x1="78.9545" y1="51.3052" x2="107.2233" y2="45.4216">
		<stop  offset="8.241760e-02" style="stop-color:#FFFFFF"/>
		<stop  offset="0.1982" style="stop-color:#E6E6E6"/>
		<stop  offset="0.445" style="stop-color:#A5A5A5"/>
		<stop  offset="0.8001" style="stop-color:#3E3E3E"/>
		<stop  offset="1" style="stop-color:#010101"/>
	</linearGradient>
	<polygon style="opacity:0.5;fill:url(#SVGID_00000133509455042046342830000014317994167437070762_);" points="92.5,33.7 93,34.2 
		93.2,38.1 93.3,39.4 95.2,40.1 95.2,61.1 94.1,62.1 93.8,68 75.5,75.7 61.9,44.6 92.4,24.8 	"/>
	<g>
		<defs>
			<path id="SVGID_00000080887647632236279690000002341383751127307694_" d="M102.7,78.5c0,0.9-0.6,1.9-1.3,2.3L59,105.3
				c-0.7,0.4-2,0.4-2.7,0L13.9,80.9c-0.7-0.4-1.3-1.5-1.3-2.3V29.6c0-0.9,0.6-1.9,1.3-2.3L56.3,2.8c0.7-0.4,1.9-0.4,2.7,0l42.4,24.5
				c0.7,0.4,1.3,1.5,1.3,2.3V78.5z"/>
		</defs>
		<clipPath id="SVGID_00000077309541308423149050000018023369250983043240_">
			<use xlink:href="#SVGID_00000080887647632236279690000002341383751127307694_"  style="overflow:visible;"/>
		</clipPath>
		
			<linearGradient id="SVGID_00000113314465910178094200000000071515934286627257_" gradientUnits="userSpaceOnUse" x1="20.3298" y1="95.457" x2="67.2864" y2="50.9721">
			<stop  offset="0.1813" style="stop-color:#FFFFFF"/>
			<stop  offset="0.2516" style="stop-color:#F7F7F7"/>
			<stop  offset="0.361" style="stop-color:#E1E1E1"/>
			<stop  offset="0.4961" style="stop-color:#BDBDBD"/>
			<stop  offset="0.6514" style="stop-color:#8B8B8B"/>
			<stop  offset="0.824" style="stop-color:#4A4A4A"/>
			<stop  offset="1" style="stop-color:#010101"/>
		</linearGradient>
		
			<polygon style="opacity:0.5;clip-path:url(#SVGID_00000077309541308423149050000018023369250983043240_);fill:url(#SVGID_00000113314465910178094200000000071515934286627257_);" points="
			83,70.7 79.1,73.1 92.6,74.2 90.4,76.3 93.7,77.4 88.1,80.6 92.1,81.4 47.5,105.3 10.9,81.5 8.6,52.7 33.9,36.2 		"/>
	</g>
	<g>
		<g>
			<path class="st6" d="M74.6,16.9l0.5-7.8c0,0,2-1.6,2.9-1.4c0.9,0.2,2.3,0.6,2.6,1.1C81,9.4,80.7,17,80.7,17l8,0.5
				c0,0,1.2,1.9,1.2,2.2c0,0.3-0.1,2.2-0.3,2.5c-0.2,0.3-1,1.2-1,1.2l-7.8-0.1l-0.6,7.4l-1.3,0.9l-3.1-0.2L74.5,30l0-6.6l-7.1-0.6
				c0,0-1.1-0.1-1.3-1.6c-0.3-1.4,0.4-3.3,0.9-3.8C67.5,16.9,74.6,16.9,74.6,16.9z"/>
			<path class="st16" d="M90,20.6l0-0.1c0-1.6-0.7-3.4-2.4-3.4l-19.7-0.3c-1.6,0-2.4,1.7-2.4,3.4l0,0.1c0,1.6,0.7,3.3,2.4,3.3
				l19.7,0.3C89.2,23.9,90,22.2,90,20.6z M89,19.2c0.1,0.1,0.1,0.2,0,0.2c-0.1,0.1-0.2,0.1-0.2,0c-0.1-0.1-0.1-0.2,0-0.2
				C88.8,19.2,88.9,19.2,89,19.2z M88,19.2c0.1,0.1,0.1,0.2,0,0.2c-0.1,0.1-0.2,0.1-0.2,0c-0.1-0.1-0.1-0.2,0-0.2
				C87.9,19.1,88,19.1,88,19.2z M88.4,18.2c0.1,0.1,0.1,0.2,0,0.2c-0.1,0.1-0.2,0.1-0.2,0c-0.1-0.1-0.1-0.2,0-0.2
				C88.3,18.1,88.4,18.1,88.4,18.2z M87.1,19.2c0.1,0.1,0.1,0.2,0,0.2c-0.1,0.1-0.2,0.1-0.2,0c-0.1-0.1-0.1-0.2,0-0.2
				C87,19.1,87.1,19.1,87.1,19.2z M87.5,18.1c0.1,0.1,0.1,0.2,0,0.2c-0.1,0.1-0.2,0.1-0.2,0c-0.1-0.1-0.1-0.2,0-0.2
				C87.3,18.1,87.4,18.1,87.5,18.1z M86.2,19.2c0.1,0.1,0.1,0.2,0,0.2c-0.1,0.1-0.2,0.1-0.2,0c-0.1-0.1-0.1-0.2,0-0.2
				C86,19.1,86.1,19.1,86.2,19.2z M86.6,18.1c0.1,0.1,0.1,0.2,0,0.2c-0.1,0.1-0.2,0.1-0.2,0c-0.1-0.1-0.1-0.2,0-0.2
				C86.4,18.1,86.5,18.1,86.6,18.1z M85.3,19.2c0.1,0.1,0.1,0.2,0,0.2c-0.1,0.1-0.2,0.1-0.2,0c-0.1-0.1-0.1-0.2,0-0.2
				C85.1,19.1,85.2,19.1,85.3,19.2z M85.7,18.1c0.1,0.1,0.1,0.2,0,0.2c-0.1,0.1-0.2,0.1-0.2,0c-0.1-0.1-0.1-0.2,0-0.2
				C85.5,18,85.6,18,85.7,18.1z M84.4,19.1c0.1,0.1,0.1,0.2,0,0.2c-0.1,0.1-0.2,0.1-0.2,0c-0.1-0.1-0.1-0.2,0-0.2
				C84.2,19.1,84.3,19.1,84.4,19.1z M82.9,20.3c0.1,0.1,0.1,0.2,0,0.2c-0.1,0.1-0.2,0.1-0.2,0c-0.1-0.1-0.1-0.2,0-0.2
				C82.7,20.2,82.8,20.2,82.9,20.3z M84.7,18.1c0.1,0.1,0.1,0.2,0,0.2c-0.1,0.1-0.2,0.1-0.2,0c-0.1-0.1-0.1-0.2,0-0.2
				C84.6,18,84.7,18,84.7,18.1z M83.4,19.1c0.1,0.1,0.1,0.2,0,0.2c-0.1,0.1-0.2,0.1-0.2,0c-0.1-0.1-0.1-0.2,0-0.2
				C83.3,19.1,83.4,19.1,83.4,19.1z M81.9,20.3c0.1,0.1,0.1,0.2,0,0.2c-0.1,0.1-0.2,0.1-0.2,0c-0.1-0.1-0.1-0.2,0-0.2
				C81.8,20.2,81.9,20.2,81.9,20.3z M83.8,18.1c0.1,0.1,0.1,0.2,0,0.2c-0.1,0.1-0.2,0.1-0.2,0c-0.1-0.1-0.1-0.2,0-0.2
				C83.7,18,83.8,18,83.8,18.1z M82.5,19.1c0.1,0.1,0.1,0.2,0,0.2c-0.1,0.1-0.2,0.1-0.2,0c-0.1-0.1-0.1-0.2,0-0.2
				C82.4,19,82.5,19,82.5,19.1z M82.9,18.1c0.1,0.1,0.1,0.2,0,0.2c-0.1,0.1-0.2,0.1-0.2,0c-0.1-0.1-0.1-0.2,0-0.2
				C82.7,18,82.8,18,82.9,18.1z M82,18c0.1,0.1,0.1,0.2,0,0.2c-0.1,0.1-0.2,0.1-0.2,0c-0.1-0.1-0.1-0.2,0-0.2C81.8,18,81.9,18,82,18
				z M72.4,18.9c0.1,0.1,0.1,0.2,0,0.2c-0.1,0.1-0.2,0.1-0.2,0c-0.1-0.1-0.1-0.2,0-0.2C72.3,18.9,72.4,18.9,72.4,18.9z M72.8,17.9
				c0.1,0.1,0.1,0.2,0,0.2c-0.1,0.1-0.2,0.1-0.2,0c-0.1-0.1-0.1-0.2,0-0.2C72.6,17.8,72.7,17.8,72.8,17.9z M71.5,18.9
				c0.1,0.1,0.1,0.2,0,0.2c-0.1,0.1-0.2,0.1-0.2,0c-0.1-0.1-0.1-0.2,0-0.2C71.3,18.8,71.4,18.9,71.5,18.9z M71.9,17.9
				c0.1,0.1,0.1,0.2,0,0.2c-0.1,0.1-0.2,0.1-0.2,0c-0.1-0.1-0.1-0.2,0-0.2C71.7,17.8,71.8,17.8,71.9,17.9z M70.6,18.9
				c0.1,0.1,0.1,0.2,0,0.2c-0.1,0.1-0.2,0.1-0.2,0c-0.1-0.1-0.1-0.2,0-0.2C70.4,18.8,70.5,18.8,70.6,18.9z M70.9,17.8
				c0.1,0.1,0.1,0.2,0,0.2c-0.1,0.1-0.2,0.1-0.2,0c-0.1-0.1-0.1-0.2,0-0.2C70.8,17.8,70.9,17.8,70.9,17.8z M70,17.8
				c0.1,0.1,0.1,0.2,0,0.2c-0.1,0.1-0.2,0.1-0.2,0c-0.1-0.1-0.1-0.2,0-0.2C69.9,17.8,70,17.8,70,17.8z M67,18
				c-0.1-0.1-0.1-0.2,0-0.2c0.1-0.1,0.2-0.1,0.2,0c0.1,0.1,0.1,0.2,0,0.2C67.2,18.1,67.1,18.1,67,18z M66.7,19
				c-0.1-0.1-0.1-0.2,0-0.2c0.1-0.1,0.2-0.1,0.2,0c0.1,0.1,0.1,0.2,0,0.2C66.8,19.1,66.7,19.1,66.7,19z M68,18
				c-0.1-0.1-0.1-0.2,0-0.2c0.1-0.1,0.2-0.1,0.2,0c0.1,0.1,0.1,0.2,0,0.2C68.1,18.1,68,18.1,68,18z M66.1,20.2
				C66,20.1,66,20,66.1,20c0.1-0.1,0.2-0.1,0.2,0c0.1,0.1,0.1,0.2,0,0.2C66.2,20.3,66.1,20.3,66.1,20.2z M67.6,19.1
				c-0.1-0.1-0.1-0.2,0-0.2c0.1-0.1,0.2-0.1,0.2,0c0.1,0.1,0.1,0.2,0,0.2C67.8,19.1,67.7,19.1,67.6,19.1z M68.9,18
				c-0.1-0.1-0.1-0.2,0-0.2c0.1-0.1,0.2-0.1,0.2,0c0.1,0.1,0.1,0.2,0,0.2C69,18.1,68.9,18.1,68.9,18z M67,20.2
				c-0.1-0.1-0.1-0.2,0-0.2c0.1-0.1,0.2-0.1,0.2,0c0.1,0.1,0.1,0.2,0,0.2C67.2,20.3,67.1,20.3,67,20.2z M68.5,19.1
				c-0.1-0.1-0.1-0.2,0-0.2c0.1-0.1,0.2-0.1,0.2,0c0.1,0.1,0.1,0.2,0,0.2C68.7,19.1,68.6,19.1,68.5,19.1z M66.6,21.4
				c-0.1-0.1-0.1-0.2,0-0.2c0.1-0.1,0.2-0.1,0.2,0c0.1,0.1,0.1,0.2,0,0.2C66.8,21.4,66.7,21.4,66.6,21.4z M67.9,20.2
				c-0.1-0.1-0.1-0.2,0-0.2c0.1-0.1,0.2-0.1,0.2,0c0.1,0.1,0.1,0.2,0,0.2C68.1,20.3,68,20.3,67.9,20.2z M69.4,19.1
				c-0.1-0.1-0.1-0.2,0-0.2c0.1-0.1,0.2-0.1,0.2,0c0.1,0.1,0.1,0.2,0,0.2C69.6,19.2,69.5,19.2,69.4,19.1z M67.6,21.4
				c-0.1-0.1-0.1-0.2,0-0.2c0.1-0.1,0.2-0.1,0.2,0c0.1,0.1,0.1,0.2,0,0.2C67.7,21.4,67.6,21.4,67.6,21.4z M68.8,20.2
				c-0.1-0.1-0.1-0.2,0-0.2c0.1-0.1,0.2-0.1,0.2,0c0.1,0.1,0.1,0.2,0,0.2C69,20.3,68.9,20.3,68.8,20.2z M67,22.5
				c-0.1-0.1-0.1-0.2,0-0.2c0.1-0.1,0.2-0.1,0.2,0c0.1,0.1,0.1,0.2,0,0.2C67.1,22.6,67,22.6,67,22.5z M68.5,21.4
				c-0.1-0.1-0.1-0.2,0-0.2c0.1-0.1,0.2-0.1,0.2,0c0.1,0.1,0.1,0.2,0,0.2C68.6,21.5,68.5,21.5,68.5,21.4z M69.8,20.3
				c-0.1-0.1-0.1-0.2,0-0.2c0.1-0.1,0.2-0.1,0.2,0c0.1,0.1,0.1,0.2,0,0.2C69.9,20.3,69.8,20.3,69.8,20.3z M67.9,22.5
				c-0.1-0.1-0.1-0.2,0-0.2c0.1-0.1,0.2-0.1,0.2,0c0.1,0.1,0.1,0.2,0,0.2C68,22.6,67.9,22.6,67.9,22.5z M69.4,21.4
				c-0.1-0.1-0.1-0.2,0-0.2c0.1-0.1,0.2-0.1,0.2,0c0.1,0.1,0.1,0.2,0,0.2C69.6,21.5,69.5,21.5,69.4,21.4z M70.7,20.3
				c-0.1-0.1-0.1-0.2,0-0.2c0.1-0.1,0.2-0.1,0.2,0c0.1,0.1,0.1,0.2,0,0.2C70.8,20.3,70.7,20.3,70.7,20.3z M68.8,22.6
				c-0.1-0.1-0.1-0.2,0-0.2c0.1-0.1,0.2-0.1,0.2,0c0.1,0.1,0.1,0.2,0,0.2C69,22.6,68.9,22.6,68.8,22.6z M70.3,21.4
				c-0.1-0.1-0.1-0.2,0-0.2c0.1-0.1,0.2-0.1,0.2,0c0.1,0.1,0.1,0.2,0,0.2C70.5,21.5,70.4,21.5,70.3,21.4z M71.6,20.3
				c-0.1-0.1-0.1-0.2,0-0.2c0.1-0.1,0.2-0.1,0.2,0c0.1,0.1,0.1,0.2,0,0.2C71.8,20.4,71.7,20.4,71.6,20.3z M69.7,22.6
				c-0.1-0.1-0.1-0.2,0-0.2c0.1-0.1,0.2-0.1,0.2,0c0.1,0.1,0.1,0.2,0,0.2C69.9,22.6,69.8,22.6,69.7,22.6z M71.2,21.4
				c-0.1-0.1-0.1-0.2,0-0.2c0.1-0.1,0.2-0.1,0.2,0c0.1,0.1,0.1,0.2,0,0.2C71.4,21.5,71.3,21.5,71.2,21.4z M72.5,20.3
				c-0.1-0.1-0.1-0.2,0-0.2c0.1-0.1,0.2-0.1,0.2,0c0.1,0.1,0.1,0.2,0,0.2C72.7,20.4,72.6,20.4,72.5,20.3z M70.6,22.6
				c-0.1-0.1-0.1-0.2,0-0.2c0.1-0.1,0.2-0.1,0.2,0c0.1,0.1,0.1,0.2,0,0.2C70.8,22.7,70.7,22.7,70.6,22.6z M72.2,21.5
				c-0.1-0.1-0.1-0.2,0-0.2c0.1-0.1,0.2-0.1,0.2,0c0.1,0.1,0.1,0.2,0,0.2C72.3,21.5,72.2,21.5,72.2,21.5z M71.6,22.6
				c-0.1-0.1-0.1-0.2,0-0.2c0.1-0.1,0.2-0.1,0.2,0c0.1,0.1,0.1,0.2,0,0.2C71.7,22.7,71.6,22.7,71.6,22.6z M72.5,22.6
				c-0.1-0.1-0.1-0.2,0-0.2c0.1-0.1,0.2-0.1,0.2,0c0.1,0.1,0.1,0.2,0,0.2C72.6,22.7,72.5,22.7,72.5,22.6z M73.4,22.6
				c-0.1-0.1-0.1-0.2,0-0.2c0.1-0.1,0.2-0.1,0.2,0c0.1,0.1,0.1,0.2,0,0.2C73.6,22.7,73.5,22.7,73.4,22.6z M74.3,22.7
				c-0.1-0.1-0.1-0.2,0-0.2c0.1-0.1,0.2-0.1,0.2,0c0.1,0.1,0.1,0.2,0,0.2C74.5,22.7,74.4,22.7,74.3,22.7z M75.2,22.7
				c-0.1-0.1-0.1-0.2,0-0.2c0.1-0.1,0.2-0.1,0.2,0c0.1,0.1,0.1,0.2,0,0.2C75.4,22.7,75.3,22.7,75.2,22.7z M76.2,22.7
				c-0.1-0.1-0.1-0.2,0-0.2c0.1-0.1,0.2-0.1,0.2,0c0.1,0.1,0.1,0.2,0,0.2C76.3,22.8,76.2,22.8,76.2,22.7z M77.1,22.7
				c-0.1-0.1-0.1-0.2,0-0.2c0.1-0.1,0.2-0.1,0.2,0c0.1,0.1,0.1,0.2,0,0.2C77.2,22.8,77.1,22.8,77.1,22.7z M78,22.7
				c-0.1-0.1-0.1-0.2,0-0.2c0.1-0.1,0.2-0.1,0.2,0c0.1,0.1,0.1,0.2,0,0.2C78.2,22.8,78.1,22.8,78,22.7z M78.9,22.7
				c-0.1-0.1-0.1-0.2,0-0.2c0.1-0.1,0.2-0.1,0.2,0c0.1,0.1,0.1,0.2,0,0.2C79.1,22.8,79,22.8,78.9,22.7z M79.8,22.8
				c-0.1-0.1-0.1-0.2,0-0.2c0.1-0.1,0.2-0.1,0.2,0c0.1,0.1,0.1,0.2,0,0.2C80,22.8,79.9,22.8,79.8,22.8z M80.8,22.8
				c-0.1-0.1-0.1-0.2,0-0.2c0.1-0.1,0.2-0.1,0.2,0c0.1,0.1,0.1,0.2,0,0.2C80.9,22.8,80.8,22.8,80.8,22.8z M81.1,22.5
				c-0.4,0-7.6-0.2-7.8-0.2c-0.2,0-0.4,0-0.4-0.4c0-0.3,0.1-3.4,0.1-3.4S73,18,73.4,18c0,0,0-0.1,0-0.1c0.1-0.1,0.2-0.1,0.2,0
				c0,0,0,0.1,0,0.1c0.1,0,0.4,0,0.6,0c0,0,0-0.1,0-0.1c0.1-0.1,0.2-0.1,0.2,0c0,0,0,0.1,0,0.1c0.2,0,0.4,0,0.6,0c0,0,0-0.1,0-0.1
				c0.1-0.1,0.2-0.1,0.2,0c0,0,0,0.1,0,0.1c0.2,0,0.4,0,0.6,0c0,0,0-0.1,0-0.1c0.1-0.1,0.2-0.1,0.2,0c0,0,0,0.1,0,0.1
				c0.2,0,0.4,0,0.6,0c0,0,0-0.1,0-0.1c0.1-0.1,0.2-0.1,0.2,0c0,0,0,0.1,0,0.1c0.2,0,0.4,0,0.6,0c0,0,0-0.1,0-0.1
				c0.1-0.1,0.2-0.1,0.2,0c0,0,0,0.1,0,0.1c0.2,0,0.4,0,0.6,0c0-0.1,0-0.1,0-0.1c0.1-0.1,0.2-0.1,0.2,0c0,0,0,0.1,0,0.1
				c0.2,0,0.4,0,0.6,0c0-0.1,0-0.1,0-0.1c0.1-0.1,0.2-0.1,0.2,0c0,0,0.1,0.1,0,0.2c0.2,0,0.4,0,0.6,0c0-0.1,0-0.1,0-0.2
				c0.1-0.1,0.2-0.1,0.2,0c0,0,0.1,0.1,0,0.2c0.1,0,0.2,0,0.2,0c0.1,0,0.3,0,0.3,0.3c0,0.1,0,0.3,0,0.6c0,0.1,0,0.1,0,0.2
				c0,0.6,0,1.5,0,2.1c0,0.1,0,0.1,0,0.2c0,0.3,0,0.5,0,0.5C81.5,22.3,81.5,22.5,81.1,22.5z M82.3,21.6c-0.1-0.1-0.1-0.2,0-0.2
				c0.1-0.1,0.2-0.1,0.2,0c0.1,0.1,0.1,0.2,0,0.2C82.4,21.7,82.3,21.7,82.3,21.6z M83.5,20.5c-0.1-0.1-0.1-0.2,0-0.2
				c0.1-0.1,0.2-0.1,0.2,0c0.1,0.1,0.1,0.2,0,0.2C83.7,20.6,83.6,20.6,83.5,20.5z M81.7,22.8c-0.1-0.1-0.1-0.2,0-0.2
				c0.1-0.1,0.2-0.1,0.2,0c0.1,0.1,0.1,0.2,0,0.2C81.8,22.9,81.7,22.9,81.7,22.8z M83.2,21.7c-0.1-0.1-0.1-0.2,0-0.2
				c0.1-0.1,0.2-0.1,0.2,0c0.1,0.1,0.1,0.2,0,0.2C83.3,21.7,83.2,21.7,83.2,21.7z M84.5,20.5c-0.1-0.1-0.1-0.2,0-0.2
				c0.1-0.1,0.2-0.1,0.2,0c0.1,0.1,0.1,0.2,0,0.2C84.6,20.6,84.5,20.6,84.5,20.5z M82.6,22.8c-0.1-0.1-0.1-0.2,0-0.2
				c0.1-0.1,0.2-0.1,0.2,0c0.1,0.1,0.1,0.2,0,0.2C82.7,22.9,82.7,22.9,82.6,22.8z M84.1,21.7c-0.1-0.1-0.1-0.2,0-0.2
				c0.1-0.1,0.2-0.1,0.2,0c0.1,0.1,0.1,0.2,0,0.2C84.3,21.7,84.2,21.7,84.1,21.7z M85.4,20.5c-0.1-0.1-0.1-0.2,0-0.2
				c0.1-0.1,0.2-0.1,0.2,0c0.1,0.1,0.1,0.2,0,0.2C85.5,20.6,85.4,20.6,85.4,20.5z M83.5,22.8c-0.1-0.1-0.1-0.2,0-0.2
				c0.1-0.1,0.2-0.1,0.2,0c0.1,0.1,0.1,0.2,0,0.2C83.7,22.9,83.6,22.9,83.5,22.8z M85,21.7c-0.1-0.1-0.1-0.2,0-0.2
				c0.1-0.1,0.2-0.1,0.2,0c0.1,0.1,0.1,0.2,0,0.2C85.2,21.8,85.1,21.8,85,21.7z M86.3,20.6c-0.1-0.1-0.1-0.2,0-0.2
				c0.1-0.1,0.2-0.1,0.2,0c0.1,0.1,0.1,0.2,0,0.2C86.5,20.6,86.4,20.6,86.3,20.6z M84.4,22.8c-0.1-0.1-0.1-0.2,0-0.2
				c0.1-0.1,0.2-0.1,0.2,0c0.1,0.1,0.1,0.2,0,0.2C84.6,22.9,84.5,22.9,84.4,22.8z M85.9,21.7c-0.1-0.1-0.1-0.2,0-0.2
				c0.1-0.1,0.2-0.1,0.2,0c0.1,0.1,0.1,0.2,0,0.2C86.1,21.8,86,21.8,85.9,21.7z M87.2,20.6c-0.1-0.1-0.1-0.2,0-0.2
				c0.1-0.1,0.2-0.1,0.2,0c0.1,0.1,0.1,0.2,0,0.2C87.4,20.6,87.3,20.6,87.2,20.6z M85.3,22.9c-0.1-0.1-0.1-0.2,0-0.2
				c0.1-0.1,0.2-0.1,0.2,0c0.1,0.1,0.1,0.2,0,0.2C85.5,22.9,85.4,22.9,85.3,22.9z M86.9,21.7c-0.1-0.1-0.1-0.2,0-0.2
				c0.1-0.1,0.2-0.1,0.2,0c0.1,0.1,0.1,0.2,0,0.2C87,21.8,86.9,21.8,86.9,21.7z M88.1,20.6c-0.1-0.1-0.1-0.2,0-0.2
				c0.1-0.1,0.2-0.1,0.2,0c0.1,0.1,0.1,0.2,0,0.2C88.3,20.7,88.2,20.7,88.1,20.6z M86.3,22.9c-0.1-0.1-0.1-0.2,0-0.2
				c0.1-0.1,0.2-0.1,0.2,0c0.1,0.1,0.1,0.2,0,0.2C86.4,22.9,86.3,22.9,86.3,22.9z M87.8,21.7c-0.1-0.1-0.1-0.2,0-0.2
				c0.1-0.1,0.2-0.1,0.2,0c0.1,0.1,0.1,0.2,0,0.2C87.9,21.8,87.8,21.8,87.8,21.7z M89.1,20.6c-0.1-0.1-0.1-0.2,0-0.2
				c0.1-0.1,0.2-0.1,0.2,0c0.1,0.1,0.1,0.2,0,0.2C89.3,20.7,89.2,20.7,89.1,20.6z M87.2,22.9c-0.1-0.1-0.1-0.2,0-0.2
				c0.1-0.1,0.2-0.1,0.2,0c0.1,0.1,0.1,0.2,0,0.2C87.3,23,87.2,23,87.2,22.9z M88.7,21.8c-0.1-0.1-0.1-0.2,0-0.2
				c0.1-0.1,0.2-0.1,0.2,0c0.1,0.1,0.1,0.2,0,0.2C88.9,21.8,88.8,21.8,88.7,21.8z M88.1,22.9c-0.1-0.1-0.1-0.2,0-0.2
				c0.1-0.1,0.2-0.1,0.2,0c0.1,0.1,0.1,0.2,0,0.2C88.3,23,88.2,23,88.1,22.9z M81.2,18.9c0-0.2-0.1-0.2-0.2-0.3
				c-0.1,0-6.7-0.2-7.1-0.3c-0.4,0-0.4,0.4-0.4,0.4s0,0.7,0,1.3c0.1,0,0.1,0,0.2,0c0.1,0.1,0.1,0.2,0,0.2c-0.1,0.1-0.1,0.1-0.2,0
				c0,0.5,0,1,0,1.1c0,0.3,0.1,0.3,0.3,0.4c0.2,0,6.8,0.2,7.1,0.2c0.3,0,0.3-0.1,0.4-0.3C81.2,21.7,81.2,19.2,81.2,18.9z M74,19.2
				C74,19.1,74,19,74,19c0.1-0.1,0.2-0.1,0.2,0c0.1,0.1,0.1,0.2,0,0.2C74.2,19.2,74.1,19.2,74,19.2z M75,19.2
				c-0.1-0.1-0.1-0.2,0-0.2c0.1-0.1,0.2-0.1,0.2,0c0.1,0.1,0.1,0.2,0,0.2C75.1,19.3,75,19.3,75,19.2z M74.4,20.3
				c-0.1-0.1-0.1-0.2,0-0.2c0.1-0.1,0.2-0.1,0.2,0c0.1,0.1,0.1,0.2,0,0.2C74.5,20.4,74.4,20.4,74.4,20.3z M75.9,19.2
				c-0.1-0.1-0.1-0.2,0-0.2c0.1-0.1,0.2-0.1,0.2,0c0.1,0.1,0.1,0.2,0,0.2C76,19.3,75.9,19.3,75.9,19.2z M74,21.5
				c-0.1-0.1-0.1-0.2,0-0.2c0.1-0.1,0.2-0.1,0.2,0c0.1,0.1,0.1,0.2,0,0.2C74.2,21.6,74.1,21.6,74,21.5z M75.3,20.4
				c-0.1-0.1-0.1-0.2,0-0.2c0.1-0.1,0.2-0.1,0.2,0c0.1,0.1,0.1,0.2,0,0.2C75.4,20.4,75.3,20.4,75.3,20.4z M76.8,19.2
				c-0.1-0.1-0.1-0.2,0-0.2c0.1-0.1,0.2-0.1,0.2,0c0.1,0.1,0.1,0.2,0,0.2C77,19.3,76.9,19.3,76.8,19.2z M74.9,21.5
				c-0.1-0.1-0.1-0.2,0-0.2c0.1-0.1,0.2-0.1,0.2,0c0.1,0.1,0.1,0.2,0,0.2C75.1,21.6,75,21.6,74.9,21.5z M76.2,20.4
				c-0.1-0.1-0.1-0.2,0-0.2c0.1-0.1,0.2-0.1,0.2,0c0.1,0.1,0.1,0.2,0,0.2C76.4,20.4,76.3,20.4,76.2,20.4z M77.7,19.2
				c-0.1-0.1-0.1-0.2,0-0.2c0.1-0.1,0.2-0.1,0.2,0c0.1,0.1,0.1,0.2,0,0.2C77.9,19.3,77.8,19.3,77.7,19.2z M75.8,21.5
				c-0.1-0.1-0.1-0.2,0-0.2c0.1-0.1,0.2-0.1,0.2,0c0.1,0.1,0.1,0.2,0,0.2C76,21.6,75.9,21.6,75.8,21.5z M77.1,20.4
				c-0.1-0.1-0.1-0.2,0-0.2c0.1-0.1,0.2-0.1,0.2,0c0.1,0.1,0.1,0.2,0,0.2C77.3,20.5,77.2,20.5,77.1,20.4z M78.6,19.3
				c-0.1-0.1-0.1-0.2,0-0.2c0.1-0.1,0.2-0.1,0.2,0c0.1,0.1,0.1,0.2,0,0.2C78.8,19.3,78.7,19.3,78.6,19.3z M76.7,21.5
				c-0.1-0.1-0.1-0.2,0-0.2c0.1-0.1,0.2-0.1,0.2,0c0.1,0.1,0.1,0.2,0,0.2C76.9,21.6,76.8,21.6,76.7,21.5z M78,20.4
				c-0.1-0.1-0.1-0.2,0-0.2c0.1-0.1,0.2-0.1,0.2,0c0.1,0.1,0.1,0.2,0,0.2C78.2,20.5,78.1,20.5,78,20.4z M79.5,19.3
				c-0.1-0.1-0.1-0.2,0-0.2c0.1-0.1,0.2-0.1,0.2,0c0.1,0.1,0.1,0.2,0,0.2C79.7,19.3,79.6,19.3,79.5,19.3z M77.7,21.6
				c-0.1-0.1-0.1-0.2,0-0.2c0.1-0.1,0.2-0.1,0.2,0c0.1,0.1,0.1,0.2,0,0.2C77.8,21.6,77.7,21.6,77.7,21.6z M79,20.4
				c-0.1-0.1-0.1-0.2,0-0.2c0.1-0.1,0.2-0.1,0.2,0c0.1,0.1,0.1,0.2,0,0.2C79.1,20.5,79,20.5,79,20.4z M80.5,19.3
				c-0.1-0.1-0.1-0.2,0-0.2c0.1-0.1,0.2-0.1,0.2,0c0.1,0.1,0.1,0.2,0,0.2C80.6,19.4,80.5,19.4,80.5,19.3z M78.6,21.6
				c-0.1-0.1-0.1-0.2,0-0.2c0.1-0.1,0.2-0.1,0.2,0c0.1,0.1,0.1,0.2,0,0.2C78.7,21.6,78.6,21.6,78.6,21.6z M79.9,20.4
				c-0.1-0.1-0.1-0.2,0-0.2c0.1-0.1,0.2-0.1,0.2,0c0.1,0.1,0.1,0.2,0,0.2C80,20.5,79.9,20.5,79.9,20.4z M79.5,21.6
				c-0.1-0.1-0.1-0.2,0-0.2c0.1-0.1,0.2-0.1,0.2,0c0.1,0.1,0.1,0.2,0,0.2C79.7,21.7,79.6,21.7,79.5,21.6z M80.8,20.5
				c-0.1-0.1-0.1-0.2,0-0.2c0.1-0.1,0.2-0.1,0.2,0c0.1,0.1,0.1,0.2,0,0.2C81,20.5,80.9,20.5,80.8,20.5z M80.4,21.6
				c-0.1-0.1-0.1-0.2,0-0.2c0.1-0.1,0.2-0.1,0.2,0c0.1,0.1,0.1,0.2,0,0.2C80.6,21.7,80.5,21.7,80.4,21.6z"/>
		</g>
		<path class="st16" d="M79.7,15.8l-1.6,0c0,0,0,0.1,0,0.1c-0.1,0.1-0.2,0.1-0.2,0c0,0,0-0.1,0-0.1l-1.7,0c-0.2,0-0.3,0.1-0.3,0.3
			l0,0.3l4.2,0l0-0.2C80,16,79.8,15.8,79.7,15.8z M76.6,16.2c-0.1-0.1-0.1-0.2,0-0.2c0.1-0.1,0.2-0.1,0.2,0c0.1,0.1,0.1,0.2,0,0.2
			C76.8,16.2,76.7,16.2,76.6,16.2z M78.9,16.3c-0.1-0.1-0.1-0.2,0-0.2c0.1-0.1,0.2-0.1,0.2,0c0.1,0.1,0.1,0.2,0,0.2
			C79.1,16.3,79,16.3,78.9,16.3z M80.9,29.7l0.2-6.9l-1,0l0,1.2c0,0,0,0,0,0c0.1,0.1,0.1,0.2,0,0.2c0,0,0,0,0,0l0,0.1
			c0,0.2-0.2,0.3-0.3,0.3l-4-0.1c-0.2,0-0.3-0.2-0.3-0.4c0,0,0-0.7,0-1.7l-1.1-0.1l-0.2,7.2c0,1.6,1.7,2.4,3.4,2.4l0.1,0
			C79.2,32,80.9,31.3,80.9,29.7z M80,27.6c0.1,0.1,0.1,0.2,0,0.2c-0.1,0.1-0.2,0.1-0.2,0c-0.1-0.1-0.1-0.2,0-0.2
			C79.8,27.6,79.9,27.6,80,27.6z M80,26.7c0.1,0.1,0.1,0.2,0,0.2c-0.1,0.1-0.2,0.1-0.2,0c-0.1-0.1-0.1-0.2,0-0.2
			C79.8,26.6,79.9,26.6,80,26.7z M78.8,27.2c-0.1,0.1-0.2,0.1-0.2,0c-0.1-0.1-0.1-0.2,0-0.2c0.1-0.1,0.2-0.1,0.2,0
			C78.9,27.1,78.9,27.2,78.8,27.2z M80,25.8c0.1,0.1,0.1,0.2,0,0.2c-0.1,0.1-0.2,0.1-0.2,0c-0.1-0.1-0.1-0.2,0-0.2
			C79.9,25.7,80,25.7,80,25.8z M78.9,26.3c-0.1,0.1-0.2,0.1-0.2,0c-0.1-0.1-0.1-0.2,0-0.2c0.1-0.1,0.2-0.1,0.2,0
			C78.9,26.2,78.9,26.3,78.9,26.3z M80.1,24.9c0.1,0.1,0.1,0.2,0,0.2c-0.1,0.1-0.2,0.1-0.2,0c-0.1-0.1-0.1-0.2,0-0.2
			C79.9,24.8,80,24.8,80.1,24.9z M78.9,25.2c0.1,0.1,0.1,0.2,0,0.2c-0.1,0.1-0.2,0.1-0.2,0c-0.1-0.1-0.1-0.2,0-0.2
			C78.7,25.1,78.8,25.1,78.9,25.2z M75.3,25c-0.1-0.1-0.1-0.2,0-0.2c0.1-0.1,0.2-0.1,0.2,0c0.1,0.1,0.1,0.2,0,0.2
			C75.4,25,75.4,25,75.3,25z M75.3,25.9c-0.1-0.1-0.1-0.2,0-0.2c0.1-0.1,0.2-0.1,0.2,0c0.1,0.1,0.1,0.2,0,0.2
			C75.4,26,75.3,26,75.3,25.9z M76.3,25.3c-0.1-0.1-0.1-0.2,0-0.2c0.1-0.1,0.2-0.1,0.2,0c0.1,0.1,0.1,0.2,0,0.2
			C76.5,25.4,76.4,25.4,76.3,25.3z M75.2,26.8c-0.1-0.1-0.1-0.2,0-0.2c0.1-0.1,0.2-0.1,0.2,0c0.1,0.1,0.1,0.2,0,0.2
			C75.4,26.9,75.3,26.9,75.2,26.8z M77.5,24.8c0.1-0.1,0.2-0.1,0.2,0c0.1,0.1,0.1,0.2,0,0.2c-0.1,0.1-0.2,0.1-0.2,0
			C77.5,25,77.5,24.9,77.5,24.8z M76.3,26.3c-0.1-0.1-0.1-0.2,0-0.2c0.1-0.1,0.2-0.1,0.2,0c0.1,0.1,0.1,0.2,0,0.2
			C76.5,26.3,76.4,26.3,76.3,26.3z M75.2,27.7c-0.1-0.1-0.1-0.2,0-0.2c0.1-0.1,0.2-0.1,0.2,0c0.1,0.1,0.1,0.2,0,0.2
			C75.4,27.8,75.3,27.8,75.2,27.7z M77.5,25.7c0.1-0.1,0.2-0.1,0.2,0c0.1,0.1,0.1,0.2,0,0.2c-0.1,0.1-0.2,0.1-0.2,0
			C77.4,25.9,77.4,25.8,77.5,25.7z M76.3,27.2c-0.1-0.1-0.1-0.2,0-0.2c0.1-0.1,0.2-0.1,0.2,0c0.1,0.1,0.1,0.2,0,0.2
			C76.5,27.3,76.4,27.2,76.3,27.2z M75.2,28.6c-0.1-0.1-0.1-0.2,0-0.2c0.1-0.1,0.2-0.1,0.2,0c0.1,0.1,0.1,0.2,0,0.2
			C75.4,28.7,75.3,28.7,75.2,28.6z M77.5,26.6c0.1-0.1,0.2-0.1,0.2,0c0.1,0.1,0.1,0.2,0,0.2c-0.1,0.1-0.2,0.1-0.2,0
			C77.4,26.8,77.4,26.7,77.5,26.6z M76.3,28.1c-0.1-0.1-0.1-0.2,0-0.2c0.1-0.1,0.2-0.1,0.2,0c0.1,0.1,0.1,0.2,0,0.2
			C76.4,28.2,76.3,28.2,76.3,28.1z M75.2,29.6c-0.1-0.1-0.1-0.2,0-0.2c0.1-0.1,0.2-0.1,0.2,0c0.1,0.1,0.1,0.2,0,0.2
			C75.3,29.6,75.2,29.6,75.2,29.6z M77.5,27.6c0.1-0.1,0.2-0.1,0.2,0c0.1,0.1,0.1,0.2,0,0.2c-0.1,0.1-0.2,0.1-0.2,0
			C77.4,27.7,77.4,27.6,77.5,27.6z M76.3,29c-0.1-0.1-0.1-0.2,0-0.2c0.1-0.1,0.2-0.1,0.2,0c0.1,0.1,0.1,0.2,0,0.2
			C76.4,29.1,76.3,29.1,76.3,29z M75.2,30.5c-0.1-0.1-0.1-0.2,0-0.2c0.1-0.1,0.2-0.1,0.2,0c0.1,0.1,0.1,0.2,0,0.2
			C75.3,30.6,75.2,30.6,75.2,30.5z M77.4,28.5c0.1-0.1,0.2-0.1,0.2,0c0.1,0.1,0.1,0.2,0,0.2c-0.1,0.1-0.2,0.1-0.2,0
			C77.4,28.6,77.4,28.5,77.4,28.5z M76.2,29.9c-0.1-0.1-0.1-0.2,0-0.2c0.1-0.1,0.2-0.1,0.2,0c0.1,0.1,0.1,0.2,0,0.2
			C76.4,30,76.3,30,76.2,29.9z M78.6,27.9c0.1-0.1,0.2-0.1,0.2,0c0.1,0.1,0.1,0.2,0,0.2c-0.1,0.1-0.2,0.1-0.2,0
			C78.5,28.1,78.5,28,78.6,27.9z M77.4,29.4c0.1-0.1,0.2-0.1,0.2,0c0.1,0.1,0.1,0.2,0,0.2c-0.1,0.1-0.2,0.1-0.2,0
			C77.3,29.6,77.3,29.5,77.4,29.4z M76.2,30.9c-0.1-0.1-0.1-0.2,0-0.2c0.1-0.1,0.2-0.1,0.2,0c0.1,0.1,0.1,0.2,0,0.2
			C76.4,30.9,76.3,30.9,76.2,30.9z M78.6,28.9c0.1-0.1,0.2-0.1,0.2,0c0.1,0.1,0.1,0.2,0,0.2c-0.1,0.1-0.2,0.1-0.2,0
			C78.5,29,78.5,28.9,78.6,28.9z M77.4,30.5c-0.1-0.1-0.1-0.2,0-0.2c0.1-0.1,0.2-0.1,0.2,0c0.1,0.1,0.1,0.2,0,0.2
			C77.5,30.6,77.4,30.6,77.4,30.5z M79.7,28.5c0.1-0.1,0.2-0.1,0.2,0c0.1,0.1,0.1,0.2,0,0.2c-0.1,0.1-0.2,0.1-0.2,0
			C79.7,28.7,79.7,28.6,79.7,28.5z M78.6,29.8c0.1-0.1,0.2-0.1,0.2,0c0.1,0.1,0.1,0.2,0,0.2c-0.1,0.1-0.2,0.1-0.2,0
			C78.5,29.9,78.5,29.8,78.6,29.8z M77.4,31.5c-0.1-0.1-0.1-0.2,0-0.2c0.1-0.1,0.2-0.1,0.2,0c0.1,0.1,0.1,0.2,0,0.2
			C77.5,31.5,77.4,31.5,77.4,31.5z M79.7,29.5c0.1-0.1,0.2-0.1,0.2,0c0.1,0.1,0.1,0.2,0,0.2c-0.1,0.1-0.2,0.1-0.2,0
			C79.7,29.6,79.7,29.5,79.7,29.5z M78.5,30.9c-0.1-0.1-0.1-0.2,0-0.2c0.1-0.1,0.2-0.1,0.2,0c0.1,0.1,0.1,0.2,0,0.2
			C78.7,31,78.6,31,78.5,30.9z M79.7,30.6c-0.1-0.1-0.1-0.2,0-0.2c0.1-0.1,0.2-0.1,0.2,0c0.1,0.1,0.1,0.2,0,0.2
			C79.9,30.7,79.8,30.7,79.7,30.6z M75.6,23.9c0,0.2,0.1,0.3,0.3,0.3l3.6,0.1c0.1,0,0.2-0.1,0.3-0.2c0,0,0-0.2,0-0.2l-2.1,0
			c0,0,0,0,0,0c0.1,0.1,0.1,0.2,0,0.2c-0.1,0.1-0.2,0.1-0.2,0c-0.1-0.1-0.1-0.2,0-0.2c0,0,0,0,0,0L75.6,23.9z M75.6,15.6
			c0-0.1,0.2-0.1,0.2-0.1l4,0.1c0.1,0,0.2,0.1,0.3,0.1c0.1,0,0.1,0,0.2,0c0.1,0.1,0.1,0.2,0,0.2c0,0,0,0-0.1,0l0,1.5
			c0,0,1,0.2,1,0.2l0.2-7.7c0-1.6-1.6-2.4-3.3-2.4l-0.1,0c-1.6,0-3.4,0.7-3.4,2.3l-0.2,7.6l1.1,0C75.5,16.4,75.5,15.6,75.6,15.6z
			 M76.6,15.2c-0.1-0.1-0.1-0.2,0-0.2c0.1-0.1,0.2-0.1,0.2,0c0.1,0.1,0.1,0.2,0,0.2C76.8,15.3,76.7,15.3,76.6,15.2z M80.3,14.8
			c0.1,0.1,0.1,0.2,0,0.2c-0.1,0.1-0.2,0.1-0.2,0c-0.1-0.1-0.1-0.2,0-0.2C80.1,14.7,80.2,14.7,80.3,14.8z M79.1,15.3
			c-0.1,0.1-0.2,0.1-0.2,0c-0.1-0.1-0.1-0.2,0-0.2c0.1-0.1,0.2-0.1,0.2,0C79.2,15.1,79.2,15.2,79.1,15.3z M80.3,13.8
			c0.1,0.1,0.1,0.2,0,0.2c-0.1,0.1-0.2,0.1-0.2,0c-0.1-0.1-0.1-0.2,0-0.2C80.2,13.8,80.3,13.8,80.3,13.8z M79.2,14.4
			c-0.1,0.1-0.2,0.1-0.2,0c-0.1-0.1-0.1-0.2,0-0.2c0.1-0.1,0.2-0.1,0.2,0C79.2,14.2,79.2,14.3,79.2,14.4z M80.3,12.9
			c0.1,0.1,0.1,0.2,0,0.2c-0.1,0.1-0.2,0.1-0.2,0c-0.1-0.1-0.1-0.2,0-0.2C80.2,12.9,80.3,12.9,80.3,12.9z M78,14.9
			c-0.1,0.1-0.2,0.1-0.2,0c-0.1-0.1-0.1-0.2,0-0.2c0.1-0.1,0.2-0.1,0.2,0C78,14.8,78,14.9,78,14.9z M79.2,13.5
			c-0.1,0.1-0.2,0.1-0.2,0c-0.1-0.1-0.1-0.2,0-0.2c0.1-0.1,0.2-0.1,0.2,0C79.2,13.3,79.2,13.4,79.2,13.5z M80.4,12
			c0.1,0.1,0.1,0.2,0,0.2c-0.1,0.1-0.2,0.1-0.2,0c-0.1-0.1-0.1-0.2,0-0.2C80.2,11.9,80.3,11.9,80.4,12z M78,14
			c-0.1,0.1-0.2,0.1-0.2,0c-0.1-0.1-0.1-0.2,0-0.2c0.1-0.1,0.2-0.1,0.2,0C78.1,13.8,78.1,13.9,78,14z M79.2,12.5
			c-0.1,0.1-0.2,0.1-0.2,0c-0.1-0.1-0.1-0.2,0-0.2c0.1-0.1,0.2-0.1,0.2,0C79.3,12.4,79.3,12.5,79.2,12.5z M80.4,11.1
			c0.1,0.1,0.1,0.2,0,0.2c-0.1,0.1-0.2,0.1-0.2,0c-0.1-0.1-0.1-0.2,0-0.2C80.2,11,80.3,11,80.4,11.1z M79.2,11.6
			c-0.1,0.1-0.2,0.1-0.2,0c-0.1-0.1-0.1-0.2,0-0.2c0.1-0.1,0.2-0.1,0.2,0C79.3,11.5,79.3,11.6,79.2,11.6z M80.4,10.2
			c0.1,0.1,0.1,0.2,0,0.2c-0.1,0.1-0.2,0.1-0.2,0c-0.1-0.1-0.1-0.2,0-0.2C80.3,10.1,80.4,10.1,80.4,10.2z M79.2,10.7
			c-0.1,0.1-0.2,0.1-0.2,0c-0.1-0.1-0.1-0.2,0-0.2c0.1-0.1,0.2-0.1,0.2,0C79.3,10.5,79.3,10.6,79.2,10.7z M80.4,9.2
			c0.1,0.1,0.1,0.2,0,0.2c-0.1,0.1-0.2,0.1-0.2,0c-0.1-0.1-0.1-0.2,0-0.2C80.3,9.2,80.4,9.2,80.4,9.2z M79.3,9.6
			c0.1,0.1,0.1,0.2,0,0.2c-0.1,0.1-0.2,0.1-0.2,0C79,9.7,79,9.6,79,9.6C79.1,9.5,79.2,9.5,79.3,9.6z M79.3,8.6
			c0.1,0.1,0.1,0.2,0,0.2c-0.1,0.1-0.2,0.1-0.2,0c-0.1-0.1-0.1-0.2,0-0.2C79.1,8.6,79.2,8.6,79.3,8.6z M78.1,8.2
			c0.1,0.1,0.1,0.2,0,0.2c-0.1,0.1-0.2,0.1-0.2,0c-0.1-0.1-0.1-0.2,0-0.2C78,8.1,78.1,8.1,78.1,8.2z M75.7,9.4
			c-0.1-0.1-0.1-0.2,0-0.2c0.1-0.1,0.2-0.1,0.2,0c0.1,0.1,0.1,0.2,0,0.2C75.8,9.4,75.7,9.4,75.7,9.4z M76.8,8.8
			c-0.1-0.1-0.1-0.2,0-0.2c0.1-0.1,0.2-0.1,0.2,0C77,8.7,77,8.8,77,8.8C76.9,8.9,76.8,8.9,76.8,8.8z M75.7,10.3
			c-0.1-0.1-0.1-0.2,0-0.2c0.1-0.1,0.2-0.1,0.2,0c0.1,0.1,0.1,0.2,0,0.2C75.8,10.3,75.7,10.3,75.7,10.3z M76.7,9.7
			c-0.1-0.1-0.1-0.2,0-0.2c0.1-0.1,0.2-0.1,0.2,0C77,9.6,77,9.7,77,9.7C76.9,9.8,76.8,9.8,76.7,9.7z M75.6,11.2
			c-0.1-0.1-0.1-0.2,0-0.2c0.1-0.1,0.2-0.1,0.2,0c0.1,0.1,0.1,0.2,0,0.2C75.8,11.3,75.7,11.3,75.6,11.2z M77.9,9.2
			c0.1-0.1,0.2-0.1,0.2,0c0.1,0.1,0.1,0.2,0,0.2c-0.1,0.1-0.2,0.1-0.2,0C77.8,9.3,77.8,9.2,77.9,9.2z M76.7,10.6
			c-0.1-0.1-0.1-0.2,0-0.2c0.1-0.1,0.2-0.1,0.2,0c0.1,0.1,0.1,0.2,0,0.2C76.9,10.7,76.8,10.7,76.7,10.6z M75.6,12.1
			c-0.1-0.1-0.1-0.2,0-0.2c0.1-0.1,0.2-0.1,0.2,0c0.1,0.1,0.1,0.2,0,0.2C75.8,12.2,75.7,12.2,75.6,12.1z M77.9,10.1
			c0.1-0.1,0.2-0.1,0.2,0c0.1,0.1,0.1,0.2,0,0.2c-0.1,0.1-0.2,0.1-0.2,0C77.8,10.3,77.8,10.2,77.9,10.1z M76.7,11.6
			c-0.1-0.1-0.1-0.2,0-0.2c0.1-0.1,0.2-0.1,0.2,0c0.1,0.1,0.1,0.2,0,0.2C76.8,11.6,76.7,11.6,76.7,11.6z M75.6,13
			c-0.1-0.1-0.1-0.2,0-0.2c0.1-0.1,0.2-0.1,0.2,0c0.1,0.1,0.1,0.2,0,0.2C75.7,13.1,75.6,13.1,75.6,13z M77.9,11
			c0.1-0.1,0.2-0.1,0.2,0c0.1,0.1,0.1,0.2,0,0.2c-0.1,0.1-0.2,0.1-0.2,0C77.8,11.2,77.8,11.1,77.9,11z M76.7,12.5
			c-0.1-0.1-0.1-0.2,0-0.2c0.1-0.1,0.2-0.1,0.2,0c0.1,0.1,0.1,0.2,0,0.2C76.8,12.6,76.7,12.5,76.7,12.5z M75.6,13.9
			c-0.1-0.1-0.1-0.2,0-0.2c0.1-0.1,0.2-0.1,0.2,0c0.1,0.1,0.1,0.2,0,0.2C75.7,14,75.6,14,75.6,13.9z M77.8,11.9
			c0.1-0.1,0.2-0.1,0.2,0c0.1,0.1,0.1,0.2,0,0.2c-0.1,0.1-0.2,0.1-0.2,0C77.8,12.1,77.8,12,77.8,11.9z M76.6,13.4
			c-0.1-0.1-0.1-0.2,0-0.2c0.1-0.1,0.2-0.1,0.2,0c0.1,0.1,0.1,0.2,0,0.2C76.8,13.5,76.7,13.5,76.6,13.4z M75.5,14.9
			c-0.1-0.1-0.1-0.2,0-0.2c0.1-0.1,0.2-0.1,0.2,0c0.1,0.1,0.1,0.2,0,0.2C75.7,14.9,75.6,14.9,75.5,14.9z M77.8,12.9
			c0.1-0.1,0.2-0.1,0.2,0c0.1,0.1,0.1,0.2,0,0.2c-0.1,0.1-0.2,0.1-0.2,0C77.7,13,77.7,12.9,77.8,12.9z M76.6,14.3
			c-0.1-0.1-0.1-0.2,0-0.2c0.1-0.1,0.2-0.1,0.2,0c0.1,0.1,0.1,0.2,0,0.2C76.8,14.4,76.7,14.4,76.6,14.3z"/>
	</g>
	<g>
		<path class="st6" d="M42.6,52.1c0,0.4-1.6,0.7-3.5,0.7c-1.9,0-3.5-0.3-3.5-0.7c0-0.4,1.6-0.7,3.5-0.7C41,51.4,42.6,51.6,42.6,52.1
			z"/>
		<path class="st6" d="M42.6,52.3c-0.2,0.4-1.7,0.7-3.5,0.7c-1.9,0-3.5-0.2-3.5-0.7c0,0,0,0.3,0,0.3h0c0,0.5,1.6,0.7,3.5,0.7
			c1.9,0,3.5-0.3,3.5-0.8l0,0v0c0,0,0,0,0,0c0,0,0,0,0,0C42.5,52.6,42.6,52.3,42.6,52.3z"/>
		<g>
			<path class="st6" d="M39,52.2l-1,0l0-3.8c0,0-0.6-1.5-0.7-2.7c-0.1-1.1-0.1-1.1-0.1-13.4c0,0,1,0.1,1.9,0.1
				C39.1,44.2,39,52.2,39,52.2z"/>
			<path class="st6" d="M40.4,32.4c0,0.3,0.1,12.9,0.1,13.6c0,0.7-0.2,1.9-0.3,2.4c0,0.5,0,3.7,0,4l0.3-0.2c0,0,0-2.5,0-3.6
				c0.2-0.5,0.5-1.4,0.5-2.7c0-0.9,0-13.5,0-13.5L40.4,32.4z"/>
			<path class="st6" d="M39,32.3l1-0.1c0,0,0.1,12.9,0.1,13.7c0,0.7-0.2,1.9-0.3,2.4c0,0.6,0,3.9,0,3.9l-1,0.1L39,32.3z"/>
		</g>
		<path class="st6" d="M41.4,32.1l-4.7,0c0,0-0.1,0.1-0.1,0.1c0,0.1,0,0.1,0.1,0.1l0.2,0l0,0.4l-0.2,0c0,0-0.1,0-0.1,0.1
			c0,0,0,0.1,0.1,0.1l0.2,0l0,0.3l-0.2,0c0,0-0.1,0-0.1,0.1c0,0,0,0.1,0.1,0.1l4.7,0c0,0,0.1,0,0.1-0.1c0,0,0-0.1-0.1-0.1l-0.2,0
			l0-0.3l0.2,0c0,0,0.1,0,0.1-0.1c0,0,0-0.1-0.1-0.1l-0.2,0l0-0.4l0.2,0c0,0,0.1-0.1,0.1-0.1C41.5,32.2,41.4,32.1,41.4,32.1z"/>
		<path class="st6" d="M36.1,44.9l0-22.9c0-0.1,0.1-0.2,0.2-0.2l0,0l5.6,0c0,0,0.1,0,0.1,0l0,0c0,0,0,0.1,0,0.1l0,0L42,44.8
			c0,0.1,0,0.1-0.1,0.1l0,0c0,0-0.3,0.2-1.1,0.3l0,0c-0.5,0.1-1.1,0.1-1.8,0.1l0,0c-0.7,0-1.4,0-1.9-0.1l0,0c-0.6-0.1-1-0.2-1-0.2
			l0,0c0,0,0,0-0.1,0l0,0C36.1,45,36.1,45,36.1,44.9L36.1,44.9z M36.4,44.8c0.1,0,0.4,0.1,0.8,0.1l0,0c0.5,0.1,1.1,0.1,1.8,0.1l0,0
			c0.7,0,1.3,0,1.8-0.1l0,0c0.4,0,0.6-0.1,0.7-0.1l0,0c0,0,0.1,0,0.1,0l0,0l-0.1-22.6l-5.3,0L36.4,44.8L36.4,44.8z"/>
		<path class="st6" d="M36.1,22.1L36.1,22.1L36.1,22.1c0-0.1,0-0.2,0.1-0.2l0,0c0.1-0.1,0.2-0.1,0.4-0.2l0,0c0.4-0.1,1-0.2,1.4-0.3
			l0,0c0.1,0,0.1,0,0.1-0.1l0,0c0-0.3,0-1.6,0-1.6l0,0l0-0.2l1.9,0l0,0.2c0,0,0,1.2,0,1.6l0,0c0,0,0,0,0,0l0,0c0,0,0.1,0,0.2,0.1
			l0,0c0.1,0,0.3,0.1,0.5,0.1l0,0c0.5,0.1,0.9,0.1,1.1,0.3l0,0c0,0,0.1,0.1,0.1,0.1l0,0l0,0.1v10.2h-0.2H42v0.2l-5.9,0L36.1,22.1
			L36.1,22.1z M36.4,32l5.2,0l0-10l0,0c-0.1-0.1-0.6-0.2-1-0.2l0,0c-0.4-0.1-0.7-0.2-0.9-0.3l0,0c0,0,0,0,0,0l0,0c0,0,0,0,0-0.1l0,0
			c0-0.1,0-1.1,0-1.5l0,0l-1.3,0c0,0.4,0,1.5,0,1.5l0,0c0,0.1,0,0.1-0.1,0.1l0,0c-0.2,0.1-0.4,0.2-0.8,0.3l0,0
			c-0.3,0.1-0.7,0.1-0.9,0.2l0,0c-0.1,0-0.2,0.1-0.2,0.1l0,0L36.4,32L36.4,32z"/>
		<polygon class="st5" points="39.2,15.4 38.9,15.4 38.9,5.5 39.2,6.4 		"/>
		<path class="st6" d="M39.5,15.8c0,0-0.1-0.3-0.1-0.3c0,0-0.1,0-0.1,0l-0.1,0.2l0,1.7c0,0.1-0.1,0.1-0.2,0.1
			c-0.1,0-0.2-0.1-0.2-0.1l0-1.7l-0.1-0.2c0,0-0.1,0-0.1,0c0,0-0.1,0.3-0.1,0.3s-0.1,0-0.2,0c-0.1,0,0,1.3,0.1,1.5
			c0,0.2-0.2,0.4-0.3,0.6c-0.1,0.2-0.3,2.3-0.3,2.3c0,0,0.2,0,1.2,0c0.9,0,1.1,0,1.1,0c0-0.1-0.2-2.1-0.2-2.3
			c-0.1-0.2-0.3-0.4-0.3-0.6c0-0.2,0.1-1.5,0-1.5C39.6,15.9,39.5,15.8,39.5,15.8z"/>
		<path class="st6" d="M38.7,15.6c0-0.1,0.1-0.2,0.3-0.2c0.2,0,0.3,0.1,0.3,0.2c0,0-0.2,0-0.4,0C38.8,15.6,38.7,15.6,38.7,15.6z"/>
		<path class="st6" d="M40.4,20.3c0,0.1-0.1,0.1-0.1,0.1l-2.5,0c-0.1,0-0.1,0-0.1-0.1l0,0c0-0.1,0.1-0.1,0.1-0.1l2.5,0
			C40.3,20.2,40.4,20.3,40.4,20.3L40.4,20.3z"/>
		<g>
			<path class="st31" d="M37.1,23.3C37.1,23.3,37.1,23.3,37.1,23.3L37.1,23.3C37.1,23.2,37.1,23.2,37.1,23.3L37.1,23.3l2.9-0.1
				c0,0,0,0,0,0l0,0c0,0,0,0,0,0l0,0L37.1,23.3L37.1,23.3z"/>
			<path class="st31" d="M37.1,27.2C37.1,27.2,37.1,27.2,37.1,27.2L37.1,27.2C37.1,27.2,37.1,27.1,37.1,27.2L37.1,27.2l2.9-0.1
				c0,0,0,0,0,0l0,0c0,0,0,0,0,0l0,0L37.1,27.2L37.1,27.2z"/>
			<path class="st31" d="M37.2,31.2C37.1,31.2,37.1,31.2,37.2,31.2L37.2,31.2C37.1,31.2,37.1,31.1,37.2,31.2L37.2,31.2l2.9-0.1
				c0,0,0,0,0,0l0,0c0,0,0,0,0,0l0,0L37.2,31.2L37.2,31.2z"/>
			<path class="st31" d="M37.1,24C37.1,24,37.1,24,37.1,24L37.1,24C37.1,24,37.1,23.9,37.1,24L37.1,24l1.3-0.1c0,0,0,0,0,0l0,0
				c0,0,0,0,0,0l0,0L37.1,24L37.1,24z"/>
			<path class="st31" d="M37.1,24.8C37.1,24.8,37.1,24.8,37.1,24.8L37.1,24.8C37.1,24.8,37.1,24.7,37.1,24.8L37.1,24.8l1.3-0.1
				c0,0,0,0,0,0l0,0c0,0,0,0,0,0l0,0L37.1,24.8L37.1,24.8z"/>
			<path class="st31" d="M37.1,25.6C37.1,25.6,37.1,25.6,37.1,25.6L37.1,25.6C37.1,25.6,37.1,25.5,37.1,25.6L37.1,25.6l1.3-0.1
				c0,0,0,0,0,0l0,0c0,0,0,0,0,0l0,0L37.1,25.6L37.1,25.6z"/>
			<path class="st31" d="M37.1,26.4C37.1,26.4,37.1,26.4,37.1,26.4L37.1,26.4C37.1,26.4,37.1,26.3,37.1,26.4L37.1,26.4l1.3-0.1
				c0,0,0,0,0,0l0,0c0,0,0,0,0,0l0,0L37.1,26.4L37.1,26.4z"/>
			<path class="st31" d="M37.1,28C37.1,28,37.1,28,37.1,28L37.1,28C37.1,28,37.1,27.9,37.1,28L37.1,28l1.3-0.1c0,0,0,0,0,0l0,0
				c0,0,0,0,0,0l0,0L37.1,28L37.1,28z"/>
			<path class="st31" d="M37.2,28.8C37.1,28.8,37.1,28.8,37.2,28.8L37.2,28.8C37.1,28.8,37.1,28.7,37.2,28.8L37.2,28.8l1.3-0.1
				c0,0,0,0,0,0l0,0c0,0,0,0,0,0l0,0L37.2,28.8L37.2,28.8z"/>
			<path class="st31" d="M37.2,29.6C37.1,29.6,37.1,29.6,37.2,29.6L37.2,29.6C37.1,29.6,37.1,29.5,37.2,29.6L37.2,29.6l1.3-0.1
				c0,0,0,0,0,0l0,0c0,0,0,0,0,0l0,0L37.2,29.6L37.2,29.6z"/>
			<path class="st31" d="M37.2,30.4C37.1,30.4,37.1,30.4,37.2,30.4L37.2,30.4C37.1,30.4,37.1,30.3,37.2,30.4L37.2,30.4l1.3-0.1
				c0,0,0,0,0,0l0,0c0,0,0,0,0,0l0,0L37.2,30.4L37.2,30.4z"/>
		</g>
		<g>
			<g>
				<path class="st6" d="M40.9,23.5l0-0.4l-0.1,0.1l-0.1,0l0.2-0.2h0.1L40.9,23.5L40.9,23.5z"/>
			</g>
		</g>
		<g>
			<g>
				<path class="st6" d="M40.6,27.1c0-0.1,0.1-0.2,0.2-0.2c0.3,0,0.3,0.2,0.1,0.3c-0.1,0.1-0.1,0.1-0.2,0.1l0.3,0v0.1l-0.5,0l0-0.1
					l0.3-0.2v0C41,27.1,41,27,40.8,27C40.8,27,40.7,27,40.6,27.1L40.6,27.1z"/>
			</g>
		</g>
		<g>
			<g>
				<path class="st6" d="M40.8,31.1l0.1,0c0.1,0,0.1,0,0.1-0.1c0-0.1-0.1-0.1-0.1-0.1C40.8,30.9,40.7,30.9,40.8,31.1L40.6,31
					c0-0.1,0.1-0.1,0.2-0.1c0.1,0,0.2,0,0.2,0.1c0,0,0,0.1-0.1,0.1c0.1,0,0.1,0.1,0.1,0.1c0,0.1-0.1,0.2-0.2,0.2
					c-0.1,0-0.2-0.1-0.2-0.1l0.1,0c0,0,0.1,0.1,0.1,0.1c0.1,0,0.2,0,0.1-0.1c0,0,0-0.1-0.1-0.1L40.8,31.1L40.8,31.1z"/>
			</g>
		</g>
		<path class="st6" d="M34.4,44.9c0,0.3,2.1,0.5,4.6,0.5c2.6,0,4.6-0.3,4.6-0.5c0-0.3-2.1-0.5-4.6-0.5
			C36.5,44.4,34.4,44.6,34.4,44.9z M36.6,44.8c0-0.1,1.1-0.2,2.4-0.3c1.3,0,2.4,0.1,2.4,0.2c0,0.1-1.1,0.2-2.4,0.3
			C37.7,45.1,36.6,45,36.6,44.8z"/>
		<path class="st6" d="M39,45.5c-2.6,0-4.6-0.2-4.6-0.5l0,0.3c0,0,0,0,0,0c0,0,0,0,0,0v0h0c0,0.3,2.1,0.5,4.6,0.5
			c2.5,0,4.6-0.3,4.6-0.5l0,0l0-0.3C43.6,45.3,41.5,45.5,39,45.5z M34.4,45L34.4,45C34.4,45,34.4,45,34.4,45L34.4,45z M34.4,45.1
			L34.4,45.1L34.4,45.1L34.4,45.1z"/>
	</g>
	<g>
		<path class="st6" d="M95.8,68.3c0,0.4-1.5,0.7-3.2,0.7c-1.8,0-3.2-0.2-3.3-0.7c0-0.4,1.5-0.6,3.3-0.7
			C94.4,67.7,95.8,67.9,95.8,68.3z"/>
		<path class="st6" d="M95.8,68.5c-0.2,0.4-1.6,0.6-3.3,0.6c-1.8,0-3.3-0.2-3.3-0.7c0,0,0,0.3,0,0.3h0c0,0.4,1.5,0.7,3.3,0.7
			c1.8,0,3.2-0.3,3.2-0.7l0,0v0c0,0,0,0,0,0c0,0,0,0,0,0C95.8,68.8,95.9,68.5,95.8,68.5z"/>
		<g>
			<path class="st6" d="M92.5,68.4l-1,0l0-3.6c0,0-0.6-1.4-0.6-2.5c-0.1-1.1-0.1-1.1-0.1-12.6c0,0,1,0.1,1.8,0
				C92.6,60.9,92.5,68.4,92.5,68.4z"/>
			<path class="st6" d="M93.8,49.8c0,0.3,0.1,12,0.1,12.7c0,0.7-0.2,1.8-0.3,2.2c0,0.5,0,3.4,0,3.7l0.3-0.2c0,0,0-2.3,0-3.4
				c0.2-0.5,0.5-1.3,0.5-2.5c0-0.8,0-12.6,0-12.6L93.8,49.8z"/>
			<path class="st6" d="M92.5,49.8l1-0.1c0,0,0.1,12.1,0.1,12.8c0,0.7-0.2,1.8-0.3,2.2c0,0.5,0,3.7,0,3.7l-1,0.1L92.5,49.8z"/>
		</g>
		<path class="st6" d="M94.8,49.6l-4.4,0c0,0-0.1,0.1-0.1,0.1c0,0.1,0,0.1,0.1,0.1l0.2,0l0,0.4l-0.2,0c0,0-0.1,0-0.1,0.1
			c0,0,0,0.1,0.1,0.1l0.2,0l0,0.3l-0.2,0c0,0-0.1,0-0.1,0.1c0,0,0,0.1,0.1,0.1l4.4,0c0,0,0.1,0,0.1-0.1c0,0,0-0.1-0.1-0.1h-0.2
			l0-0.3l0.2,0c0,0,0.1,0,0.1-0.1c0,0,0-0.1-0.1-0.1l-0.2,0l0-0.4l0.2,0c0,0,0.1-0.1,0.1-0.1C94.8,49.6,94.8,49.6,94.8,49.6z"/>
		<path class="st6" d="M89.8,61.6l0-21.4c0-0.1,0.1-0.2,0.2-0.2l0,0l5.2,0c0,0,0.1,0,0.1,0l0,0c0,0,0,0.1,0,0.1l0,0l0.1,21.4
			c0,0,0,0.1-0.1,0.1l0,0c0,0-0.3,0.2-1,0.3l0,0c-0.4,0.1-1,0.1-1.7,0.1l0,0c-0.7,0-1.3,0-1.8-0.1l0,0c-0.6-0.1-0.9-0.2-0.9-0.2l0,0
			c0,0,0,0-0.1,0l0,0C89.8,61.7,89.8,61.6,89.8,61.6L89.8,61.6z M90.1,61.5c0.1,0,0.4,0.1,0.7,0.1l0,0c0.4,0.1,1.1,0.1,1.7,0.1l0,0
			c0.7,0,1.3,0,1.7-0.1l0,0c0.3,0,0.6-0.1,0.7-0.1l0,0c0,0,0.1,0,0.1,0l0,0l0-21.1l-4.9,0L90.1,61.5L90.1,61.5z"/>
		<path class="st6" d="M89.8,40.1L89.8,40.1L89.8,40.1c0-0.1,0-0.2,0.1-0.2l0,0c0.1-0.1,0.2-0.1,0.3-0.2l0,0c0.4-0.1,1-0.2,1.3-0.3
			l0,0c0.1,0,0.1,0,0.1,0l0,0c0-0.3,0-1.5,0-1.5l0,0v-0.1l1.8,0v0.2c0,0,0,1.2,0,1.5l0,0c0,0,0,0,0,0l0,0c0,0,0.1,0,0.2,0.1l0,0
			c0.1,0,0.3,0.1,0.5,0.1l0,0c0.4,0.1,0.9,0.1,1.1,0.3l0,0c0,0,0.1,0.1,0.1,0.1l0,0l0,0.1v9.5l-0.2,0l0.2,0v0.2l-5.5,0L89.8,40.1
			L89.8,40.1z M90.1,49.5l4.9,0l0-9.3l0,0c-0.1,0-0.5-0.1-0.9-0.2l0,0c-0.4-0.1-0.7-0.2-0.9-0.3l0,0c0,0,0,0,0,0l0,0c0,0,0,0,0-0.1
			l0,0c0-0.1,0-1.1,0-1.4l0,0l-1.2,0c0,0.4,0,1.4,0,1.4l0,0c0,0.1,0,0.1-0.1,0.1l0,0c-0.2,0.1-0.4,0.2-0.7,0.2l0,0
			c-0.3,0.1-0.7,0.1-0.9,0.2l0,0c-0.1,0-0.2,0.1-0.2,0.1l0,0L90.1,49.5L90.1,49.5z"/>
		<polygon class="st6" points="92.7,33.9 92.4,33.9 92.4,24.6 92.7,25.4 		"/>
		<path class="st6" d="M93,34.3c0,0-0.1-0.2-0.1-0.3c0,0-0.1,0-0.1,0l-0.1,0.2l0,1.6c0,0.1-0.1,0.1-0.2,0.1c-0.1,0-0.2-0.1-0.2-0.1
			l0-1.6L92.3,34c0,0-0.1,0-0.1,0c0,0-0.1,0.3-0.1,0.3s-0.1,0-0.1,0c-0.1,0,0,1.2,0.1,1.4c0,0.2-0.2,0.4-0.3,0.6
			c-0.1,0.2-0.3,2.1-0.3,2.2c0,0,0.2,0,1.1,0c0.8,0,1,0,1,0c0-0.1-0.1-2-0.2-2.2c-0.1-0.2-0.3-0.4-0.3-0.6c0-0.2,0.1-1.4,0-1.4
			C93.1,34.3,93,34.3,93,34.3z"/>
		<path class="st6" d="M92.2,34c0-0.1,0.1-0.2,0.3-0.2c0.2,0,0.3,0.1,0.3,0.2c0,0-0.2,0-0.3,0C92.4,34,92.2,34,92.2,34z"/>
		<path class="st6" d="M93.8,38.5c0,0,0,0.1-0.1,0.1l-2.3,0c-0.1,0-0.1,0-0.1-0.1l0,0c0,0,0.1-0.1,0.1-0.1l2.3,0
			C93.8,38.4,93.8,38.4,93.8,38.5L93.8,38.5z"/>
		<g>
			<path class="st31" d="M90.8,41.3C90.7,41.3,90.7,41.3,90.8,41.3L90.8,41.3C90.7,41.2,90.7,41.2,90.8,41.3L90.8,41.3l2.8-0.1
				c0,0,0,0,0,0l0,0c0,0,0,0,0,0l0,0L90.8,41.3L90.8,41.3z"/>
			<path class="st31" d="M90.8,45C90.8,45,90.7,44.9,90.8,45L90.8,45C90.7,44.9,90.8,44.9,90.8,45L90.8,45l2.8-0.1c0,0,0,0,0,0l0,0
				c0,0,0,0,0,0l0,0L90.8,45L90.8,45z"/>
			<path class="st31" d="M90.8,48.7C90.8,48.7,90.7,48.7,90.8,48.7L90.8,48.7C90.7,48.7,90.8,48.6,90.8,48.7L90.8,48.7l2.8-0.1
				c0,0,0,0,0,0l0,0c0,0,0,0,0,0l0,0L90.8,48.7L90.8,48.7z"/>
			<path class="st31" d="M90.8,42C90.7,42,90.7,42,90.8,42L90.8,42C90.7,41.9,90.7,41.9,90.8,42L90.8,42l1.2-0.1c0,0,0,0,0,0l0,0
				c0,0,0,0,0,0l0,0L90.8,42L90.8,42z"/>
			<path class="st31" d="M90.8,42.7C90.7,42.7,90.7,42.7,90.8,42.7L90.8,42.7C90.7,42.7,90.7,42.6,90.8,42.7L90.8,42.7l1.2-0.1
				c0,0,0,0,0,0l0,0c0,0,0,0,0,0l0,0L90.8,42.7L90.8,42.7z"/>
			<path class="st31" d="M90.8,43.5C90.8,43.5,90.7,43.5,90.8,43.5L90.8,43.5C90.7,43.4,90.8,43.4,90.8,43.5L90.8,43.5l1.2-0.1
				c0,0,0,0,0,0l0,0c0,0,0,0,0,0l0,0L90.8,43.5L90.8,43.5z"/>
			<path class="st31" d="M90.8,44.2C90.8,44.2,90.7,44.2,90.8,44.2L90.8,44.2C90.7,44.2,90.8,44.1,90.8,44.2L90.8,44.2l1.2-0.1
				c0,0,0,0,0,0l0,0c0,0,0,0,0,0l0,0L90.8,44.2L90.8,44.2z"/>
			<path class="st31" d="M90.8,45.7C90.8,45.7,90.7,45.7,90.8,45.7L90.8,45.7C90.7,45.7,90.8,45.6,90.8,45.7L90.8,45.7l1.2-0.1
				c0,0,0,0,0,0l0,0c0,0,0,0,0,0l0,0L90.8,45.7L90.8,45.7z"/>
			<path class="st31" d="M90.8,46.5C90.8,46.5,90.7,46.5,90.8,46.5L90.8,46.5C90.7,46.4,90.8,46.4,90.8,46.5L90.8,46.5l1.2-0.1
				c0,0,0,0,0,0l0,0c0,0,0,0,0,0l0,0L90.8,46.5L90.8,46.5z"/>
			<path class="st31" d="M90.8,47.2C90.8,47.2,90.7,47.2,90.8,47.2L90.8,47.2C90.7,47.2,90.8,47.1,90.8,47.2L90.8,47.2l1.2-0.1
				c0,0,0,0,0,0l0,0c0,0,0,0,0,0l0,0L90.8,47.2L90.8,47.2z"/>
			<path class="st31" d="M90.8,48C90.8,48,90.7,48,90.8,48L90.8,48C90.7,47.9,90.8,47.9,90.8,48L90.8,48l1.2-0.1c0,0,0,0,0,0l0,0
				c0,0,0,0,0,0l0,0L90.8,48L90.8,48z"/>
		</g>
		<g>
			<g>
				<path class="st6" d="M94.3,41.5l0-0.4l-0.1,0.1l-0.1,0l0.2-0.2h0.1L94.3,41.5L94.3,41.5z"/>
			</g>
		</g>
		<g>
			<g>
				<path class="st6" d="M94,44.8c0-0.1,0.1-0.2,0.2-0.2c0.2,0,0.3,0.2,0.1,0.3c-0.1,0.1-0.1,0.1-0.2,0.1l0.3,0v0.1l-0.4,0l0-0.1
					l0.3-0.2v0c0.1-0.1,0.1-0.2-0.1-0.2C94.2,44.7,94.1,44.8,94,44.8L94,44.8z"/>
			</g>
		</g>
		<g>
			<g>
				<path class="st6" d="M94.2,48.6L94.2,48.6c0.2,0,0.2,0,0.2-0.1c0,0-0.1-0.1-0.1-0.1C94.2,48.4,94.1,48.4,94.2,48.6L94,48.5
					c0-0.1,0.1-0.1,0.2-0.1c0.1,0,0.2,0,0.2,0.1c0,0,0,0.1-0.1,0.1c0.1,0,0.1,0.1,0.1,0.1c0,0.1-0.1,0.1-0.2,0.1
					c-0.1,0-0.2-0.1-0.2-0.1l0.1,0c0,0,0,0.1,0.1,0.1c0.1,0,0.1,0,0.1-0.1C94.4,48.7,94.3,48.6,94.2,48.6L94.2,48.6L94.2,48.6z"/>
			</g>
		</g>
		<path class="st6" d="M88.2,61.5c0,0.3,1.9,0.5,4.3,0.5c2.4,0,4.3-0.2,4.3-0.5c0-0.3-1.9-0.5-4.3-0.5C90.2,61,88.2,61.3,88.2,61.5z
			 M90.3,61.5c0-0.1,1-0.2,2.3-0.2c1.2,0,2.3,0.1,2.3,0.2c0,0.1-1,0.2-2.3,0.2C91.3,61.7,90.3,61.6,90.3,61.5z"/>
		<path class="st6" d="M92.5,62.1c-2.4,0-4.3-0.2-4.3-0.5l0,0.3l0,0c0,0,0,0,0,0v0l0,0c0,0.3,2,0.5,4.3,0.5c2.4,0,4.3-0.2,4.3-0.5
			l0,0l0-0.3C96.8,61.9,94.9,62.1,92.5,62.1z M88.2,61.7L88.2,61.7C88.2,61.7,88.2,61.7,88.2,61.7L88.2,61.7z M88.2,61.7L88.2,61.7
			L88.2,61.7C88.2,61.7,88.2,61.7,88.2,61.7z"/>
	</g>
	<g>
		<rect x="42" y="40" class="st6" width="31.8" height="23.8"/>
		<g>
			<path class="st6" d="M63.9,25.9H51.4c-2.7,0-4.8,2.2-4.8,4.8v4.8h3.7v-3.7c0-2.1,0.5-2.5,2.5-2.5h9.7c2.1,0,2.7,0.4,2.7,2.5v3.7
				h3.5v-4.8C68.7,28,66.6,25.9,63.9,25.9z"/>
		</g>
		<g>
			<g>
				<path class="st15" d="M76.6,34.7H38.7c-4.3,0-7.8,3.1-7.8,7.5v21.7c0,4.3,3.5,7.8,7.8,7.8h37.9c4.3,0,7.8-3.5,7.8-7.8V42.2
					C84.4,37.9,80.9,34.7,76.6,34.7z M67.7,56.7c0,0.2-0.2,0.4-0.4,0.4h-5.1c-0.1,0-0.2,0.1-0.2,0.2v5.1c0,0.2-0.2,0.4-0.4,0.4h-6.7
					c-0.2,0-0.4-0.2-0.4-0.4v-0.2l0-4.9c0-0.1-0.1-0.2-0.2-0.2h-5.1c-0.2,0-0.4-0.2-0.4-0.4V50c0-0.2,0.2-0.4,0.4-0.4h5.1
					c0.1,0,0.2-0.1,0.2-0.2l0-5.1c0-0.2,0.2-0.4,0.4-0.4h6.7c0.2,0,0.4,0.2,0.4,0.4v5.1c0,0.1,0.1,0.2,0.2,0.2h5.1
					c0.2,0,0.4,0.2,0.4,0.4V56.7z"/>
			</g>
		</g>
	</g>
	<g>
		<rect x="34" y="63.8" class="st6" width="15.2" height="16.2"/>
		<polygon class="st19" points="34,80 44.4,78.5 44.4,76.2 34,76.2 		"/>
		<rect x="17.5" y="62.2" class="st7" width="26.9" height="16.2"/>
		<rect x="16.4" y="61.1" class="st6" width="9.5" height="17.4"/>
	</g>
	<path class="st7" d="M61.3,81.5c0,0,6.7-0.8,7.4-0.4c0.7,0.4,5.6,2.9,6.3,3.1c0.7,0.2,7.7,2.2,8.7,2c0.7-0.1,1.3-1.4-0.8-2.4
		c-2.1-1-4.5-2-3.9-2.3c0.5-0.3,8.8,0,9.9,0.2c1.3,0.1,3.6,0,3.8-1.1c0.2-1.1-2.3-1.4-3.7-1.5c-1.5-0.2-4.4-0.6-4.4-0.9
		c0-0.2,7.1,0.1,9-0.7c0.7-0.3,1-1.9-0.7-2.1c-1.7-0.2-8.6,0-8.4-0.2c0.2-0.2,6.7-0.4,7.5-0.7c0.8-0.3,0.8-0.8,0.3-1.4
		c-0.5-0.6-5.8-0.6-6.7-0.7c-1-0.1-3.1,0.1-3.2-0.2c-0.1-0.2,4.9,0,5.7-0.2c0.8-0.2,1.4-0.6,1.1-1.1c-0.3-0.4-1.6-0.9-4.6-1.2
		c-1.9-0.2-6.9,0-8.8,0.3c-1.9,0.3-6.2,2.6-7.4,2.3c-1.1-0.3-6.8-1.1-7-1.1C61,71.4,61.3,81.5,61.3,81.5z"/>
	<path class="st6" d="M62.4,86.4c0,0,5.5-3.8,6.3-3.8c0.8,0,6.3,0,7-0.2c0.7-0.2,7.8-1.7,8.6-2.2c0.6-0.4,0.5-1.9-1.8-1.8
		c-2.4,0.1-4.9,0.3-4.5-0.2c0.3-0.5,7.8-4.1,8.8-4.5c1.2-0.5,3.2-1.6,2.9-2.7c-0.3-1.1-2.6-0.1-4,0.4c-1.4,0.5-4.2,1.5-4.3,1.3
		c-0.1-0.2,6.3-3.2,7.6-4.8c0.5-0.6,0-2.1-1.6-1.5c-1.6,0.6-7.6,4-7.5,3.8c0.1-0.2,5.7-3.5,6.3-4.1c0.5-0.6,0.4-1.1-0.3-1.4
		c-0.7-0.3-5.4,2.2-6.3,2.5c-0.9,0.3-2.8,1.5-2.9,1.4c-0.2-0.2,4.3-2.3,4.9-2.8c0.7-0.5,0.9-1.2,0.4-1.4c-0.5-0.2-1.8,0-4.6,1
		c-1.8,0.7-6.1,3.2-7.6,4.3c-1.5,1.2-4.3,5.2-5.5,5.5c-1.1,0.3-6.6,2.2-6.7,2.3C57.4,77.6,62.4,86.4,62.4,86.4z"/>
</g>
</svg>
