<?xml version="1.0" encoding="utf-8"?>
<!-- Generator: Adobe Illustrator 27.2.0, SVG Export Plug-In . SVG Version: 6.00 Build 0)  -->
<svg version="1.1" id="Layer_1" xmlns="http://www.w3.org/2000/svg" xmlns:xlink="http://www.w3.org/1999/xlink" x="0px" y="0px"
	 viewBox="0 0 415 180" style="enable-background:new 0 0 415 180;" xml:space="preserve">
<style type="text/css">
	.st0{fill:#6F61C0;}
	.st1{fill:#37517E;}
</style>
<g>
	<path class="st0" d="M194.1,95.2v13.2h-28.5l-14.8,28.2c-1.4,2.5-3.8,3.9-6.6,3.6c-2.7,0-4.9-1.9-5.8-4.4l-11.2-32.6l-9.9,23.8
		c-1.4,2.5-4.1,4.1-7.1,4.1c-2.7-0.5-5.2-2.7-5.8-5.8l-9.3-57.6l-11.2,87.7c-0.3,3.3-3,5.8-6.3,5.8c0,0,0,0-0.3,0
		c-3,0-5.8-2.5-6.6-5.5L57.8,88.1l-8,16.7c-1.1,2.2-3.6,3.6-6,3.6H16.2V95.2h23.3L54.6,64c1.4-2.7,4.1-4.1,6.9-3.8
		c3,0.5,5.2,2.5,5.8,5.5l9,47.7l11.5-89.1c0.3-3.3,3-5.5,6.3-5.5c3.3-0.3,6,2.2,6.9,5.5l12.6,76.8l8.2-19.2c1.1-2.5,3.6-4.4,6.3-4.1
		c3,0,5.2,1.9,6.3,4.4l11.8,34.8l9.6-18.1c1.1-2.2,3.3-3.6,5.8-3.6h32.5V95.2z"/>
</g>
<g>
	<path class="st1" d="M247.7,50.3v71.5h14.1v17.9h-37.4V50.3H247.7z"/>
	<path class="st1" d="M326.4,105.7v15.1l-6.2,4l7.8,14.9h-20.6l-2.7-5c-6.9,4.6-13.5,6.8-19.6,6.8c-6.5,0-11.5-2.2-15-6.5
		c-3.5-4.3-5.2-9.5-5.2-15.6c0-4.9,1-8.7,3.1-11.4c2.1-2.8,5.1-5,9.3-6.7c-5.9-4.2-8.8-9.9-8.8-17.2c0-6.2,2.1-11.2,6.3-15
		c4.2-3.8,10-5.7,17.3-5.7c6.6,0,11.8,1.9,15.6,5.6c3.8,3.7,5.7,8.4,5.7,14.2c0,6-2.3,11.4-7,16.1l7.9,14.2L326.4,105.7z M297,124.6
		l-7.2-12c-2.8,2.5-4.1,5.2-4.1,8.1c0,2.1,0.4,3.7,1.3,4.7c0.9,1,2.1,1.6,3.8,1.6C292.6,126.9,294.7,126.1,297,124.6z M292,90
		c2.5-3.3,3.8-6.4,3.8-9.4c0-1.3-0.4-2.5-1.1-3.5c-0.7-1.1-1.8-1.6-3.1-1.6c-1.2,0-2.1,0.4-2.8,1.2c-0.6,0.8-0.9,2-0.9,3.7
		C287.9,83.9,289.2,87.1,292,90z"/>
	<path class="st1" d="M332.6,50.3H350c11.2,0,18.8,0.5,22.8,1.5c4,1,7,2.7,9,5.1c2.1,2.4,3.3,5,3.9,7.9c0.5,2.9,0.8,8.6,0.8,17v31.3
		c0,8-0.4,13.4-1.1,16.1c-0.8,2.7-2.1,4.8-3.9,6.3s-4.2,2.6-7,3.2c-2.8,0.6-6.9,0.9-12.5,0.9h-29.3V50.3z M355.8,65.6v58.8
		c3.3,0,5.4-0.7,6.2-2c0.8-1.3,1.2-5,1.2-11V76.6c0-4-0.1-6.6-0.4-7.8c-0.3-1.1-0.8-2-1.8-2.5C360.1,65.8,358.3,65.6,355.8,65.6z"/>
</g>
</svg>
