<?xml version="1.0" encoding="utf-8"?>
<!-- Generator: Adobe Illustrator 27.2.0, SVG Export Plug-In . SVG Version: 6.00 Build 0)  -->
<svg version="1.1" id="Layer_1" xmlns="http://www.w3.org/2000/svg" xmlns:xlink="http://www.w3.org/1999/xlink" x="0px" y="0px"
	 viewBox="0 0 112.2 108.2" style="enable-background:new 0 0 112.2 108.2;" xml:space="preserve">
<style type="text/css">
	.st0{opacity:0.78;fill:#FFFFFF;}
	.st1{fill:#36B3B6;}
	
		.st2{opacity:0.5;clip-path:url(#SVGID_00000142147564859641073970000008585330391209136305_);fill:url(#SVGID_00000179612011305588867240000007525265406949922749_);}
	
		.st3{opacity:0.5;clip-path:url(#SVGID_00000142147564859641073970000008585330391209136305_);fill:url(#SVGID_00000170247072647177449080000010063780049626000292_);}
	.st4{fill:#22608A;}
	.st5{fill:#123A60;}
	.st6{fill:#FFFFFF;}
	.st7{fill:#CDE3E8;}
	.st8{opacity:0.4;fill:url(#SVGID_00000125603581658934568130000001270562580340955012_);}
	.st9{opacity:0.4;fill:url(#SVGID_00000060730172023664652010000000861603062869340293_);}
	.st10{opacity:0.5;fill:url(#SVGID_00000048495007014628159630000008889065206148948403_);}
	.st11{clip-path:url(#SVGID_00000116219145016508336330000011736980946907411860_);}
	.st12{fill:#056F9A;}
	.st13{fill:#AEAEAE;}
	.st14{opacity:0.5;fill:url(#SVGID_00000006695414067329121510000003560667491424637870_);}
	.st15{fill:#BB2025;}
	.st16{fill:#F47C2A;}
	.st17{fill:#DF1F26;}
	
		.st18{opacity:0.5;clip-path:url(#SVGID_00000101069371412492996920000002777025643012937604_);fill:url(#SVGID_00000035526302425597368420000010204518191867241878_);}
	.st19{fill:#A0C3D3;}
	
		.st20{opacity:0.5;clip-path:url(#SVGID_00000025435857164283572740000008048016979560706727_);fill:url(#SVGID_00000065786806567458876510000002655015299277241268_);}
	.st21{opacity:0.5;fill:url(#SVGID_00000172407407027097700260000015378339039548156314_);}
	
		.st22{opacity:0.4;clip-path:url(#SVGID_00000120559105164812314340000003167845955226225596_);fill:url(#SVGID_00000145737619924763343150000010741282994677186700_);}
	
		.st23{opacity:0.4;clip-path:url(#SVGID_00000120559105164812314340000003167845955226225596_);fill:url(#SVGID_00000085972205732859597650000008124959637398238122_);}
	.st24{fill:#F05223;}
	.st25{opacity:0.4;fill:url(#SVGID_00000018234744166664744580000017620819458552382109_);}
	.st26{opacity:0.4;fill:url(#SVGID_00000114072609126571640690000017054958846450943401_);}
	.st27{opacity:0.5;fill:url(#SVGID_00000070840095605762125550000003398005150108264888_);}
	.st28{opacity:0.5;fill:url(#SVGID_00000131351109394796743820000008001527422610123453_);}
	.st29{opacity:0.5;fill:url(#SVGID_00000003815512769533223880000001579856388285806211_);}
	
		.st30{opacity:0.5;clip-path:url(#SVGID_00000150073508892731852980000010514053824701598653_);fill:url(#SVGID_00000076576529890012065040000005102266816667373190_);}
	.st31{opacity:0.92;fill:#FFFFFF;}
</style>
<g>
	<path class="st0" d="M100.8,79.8c0,0.8-0.6,1.9-1.3,2.3l-42,24.3c-0.7,0.4-1.9,0.4-2.7,0l-42-24.3c-0.7-0.4-1.3-1.5-1.3-2.3V31.2
		c0-0.8,0.6-1.9,1.3-2.3l42-24.3c0.7-0.4,1.9-0.4,2.7,0l42,24.3c0.7,0.4,1.3,1.5,1.3,2.3V79.8z"/>
	<path class="st1" d="M99.7,79.2c0,0.8-0.6,1.8-1.3,2.3l-41,23.7c-0.7,0.4-1.9,0.4-2.6,0l-41-23.7c-0.7-0.4-1.3-1.4-1.3-2.3V31.8
		c0-0.8,0.6-1.8,1.3-2.3l41-23.7c0.7-0.4,1.9-0.4,2.6,0l41,23.7c0.7,0.4,1.3,1.4,1.3,2.3V79.2z"/>
	
		<linearGradient id="SVGID_00000023281327812467126920000000781127695359116213_" gradientUnits="userSpaceOnUse" x1="-57.9691" y1="45.9913" x2="10.7842" y2="-27.7377" gradientTransform="matrix(0.5455 7.390000e-02 7.390000e-02 0.5507 75.3101 43.0466)">
		<stop  offset="0.2473" style="stop-color:#FFFFFF"/>
		<stop  offset="1" style="stop-color:#010101"/>
	</linearGradient>
	<polygon style="opacity:0.5;fill:url(#SVGID_00000023281327812467126920000000781127695359116213_);" points="93.9,52.6 74.1,66.4 
		45.4,62.5 44.6,26.6 62.9,13.1 	"/>
	<g>
		<path class="st6" d="M93.8,52.6c0,0.2-0.1,0.3-0.3,0.3H62.8c-0.2,0-0.3-0.1-0.3-0.3V13.3c0-0.2,0.1-0.3,0.3-0.3h30.7
			c0.2,0,0.3,0.1,0.3,0.3V52.6z"/>
		<g>
			<rect x="77.2" y="17.6" class="st13" width="12.5" height="1.1"/>
			<rect x="77.2" y="19.4" class="st13" width="12.5" height="1.1"/>
			<rect x="77.2" y="21.2" class="st13" width="12.5" height="1.1"/>
			<rect x="77.2" y="23" class="st13" width="12.5" height="1.1"/>
		</g>
		<g>
			<rect x="77.2" y="28.4" class="st13" width="12.5" height="1.1"/>
			<rect x="77.2" y="30.1" class="st13" width="12.5" height="1.1"/>
			<rect x="77.2" y="31.9" class="st13" width="12.5" height="1.1"/>
			<rect x="77.2" y="33.7" class="st13" width="12.5" height="1.1"/>
		</g>
		<g>
			<rect x="77.2" y="38.9" class="st13" width="12.5" height="1.1"/>
			<rect x="77.2" y="40.7" class="st13" width="12.5" height="1.1"/>
			<rect x="77.2" y="42.5" class="st13" width="12.5" height="1.1"/>
			<rect x="77.2" y="44.2" class="st13" width="12.5" height="1.1"/>
		</g>
		<g>
			<path class="st15" d="M73.6,20.9c0,1.7-1.4,3.1-3.1,3.1c-1.7,0-3.1-1.4-3.1-3.1c0-1.7,1.4-3.1,3.1-3.1
				C72.3,17.9,73.6,19.2,73.6,20.9z"/>
			<g>
				<g>
					<path class="st6" d="M69.7,21.2h-0.2v0.3h-0.2v-0.3h-0.6V21l0.5-0.8h0.3V21h0.2V21.2z M69.3,21v-0.3c0-0.1,0-0.2,0-0.3h0
						c0,0.1-0.1,0.1-0.1,0.2L68.9,21H69.3z"/>
					<path class="st6" d="M69.8,20.9c0-0.5,0.2-0.7,0.5-0.7c0.3,0,0.5,0.2,0.5,0.7c0,0.5-0.2,0.7-0.5,0.7
						C70,21.6,69.8,21.3,69.8,20.9z M70.5,20.9c0-0.4-0.1-0.5-0.2-0.5c-0.1,0-0.2,0.1-0.2,0.5c0,0.4,0.1,0.5,0.2,0.5
						C70.4,21.4,70.5,21.2,70.5,20.9z"/>
					<path class="st6" d="M70.9,20.6c0-0.3,0.1-0.4,0.3-0.4c0.2,0,0.3,0.2,0.3,0.4c0,0.3-0.1,0.4-0.3,0.4C71,21,70.9,20.8,70.9,20.6
						z M71.4,20.6c0-0.2-0.1-0.3-0.2-0.3c-0.1,0-0.2,0.1-0.2,0.3c0,0.2,0.1,0.3,0.2,0.3C71.3,20.9,71.4,20.8,71.4,20.6z M71.3,21.6
						l0.8-1.4h0.1l-0.8,1.4H71.3z M71.9,21.1c0-0.3,0.1-0.4,0.3-0.4c0.2,0,0.3,0.2,0.3,0.4c0,0.3-0.1,0.4-0.3,0.4
						C72,21.6,71.9,21.4,71.9,21.1z M72.4,21.1c0-0.2-0.1-0.3-0.2-0.3s-0.2,0.1-0.2,0.3c0,0.2,0.1,0.3,0.2,0.3S72.4,21.3,72.4,21.1z
						"/>
				</g>
			</g>
		</g>
		<g>
			<path class="st16" d="M73.6,31.4c0,1.7-1.4,3.1-3.1,3.1c-1.7,0-3.1-1.4-3.1-3.1c0-1.7,1.4-3.1,3.1-3.1
				C72.3,28.4,73.6,29.7,73.6,31.4z"/>
			<g>
				<g>
					<path class="st6" d="M68.7,31.9c0.4-0.4,0.6-0.6,0.6-0.8c0-0.1-0.1-0.2-0.2-0.2c-0.1,0-0.2,0.1-0.3,0.2l-0.1-0.1
						c0.1-0.1,0.2-0.2,0.4-0.2c0.3,0,0.4,0.2,0.4,0.4c0,0.2-0.2,0.5-0.5,0.8c0.1,0,0.2,0,0.2,0h0.3V32h-0.9V31.9z"/>
					<path class="st6" d="M69.8,31.4c0-0.5,0.2-0.7,0.5-0.7c0.3,0,0.5,0.2,0.5,0.7c0,0.5-0.2,0.7-0.5,0.7
						C70,32.1,69.8,31.8,69.8,31.4z M70.5,31.4c0-0.4-0.1-0.5-0.2-0.5c-0.1,0-0.2,0.1-0.2,0.5c0,0.4,0.1,0.5,0.2,0.5
						C70.4,31.9,70.5,31.7,70.5,31.4z"/>
					<path class="st6" d="M70.9,31.1c0-0.3,0.1-0.4,0.3-0.4c0.2,0,0.3,0.2,0.3,0.4c0,0.3-0.1,0.4-0.3,0.4
						C71,31.5,70.9,31.3,70.9,31.1z M71.4,31.1c0-0.2-0.1-0.3-0.2-0.3c-0.1,0-0.2,0.1-0.2,0.3c0,0.2,0.1,0.3,0.2,0.3
						C71.3,31.4,71.4,31.3,71.4,31.1z M71.3,32.1l0.8-1.4h0.1l-0.8,1.4H71.3z M71.9,31.6c0-0.3,0.1-0.4,0.3-0.4
						c0.2,0,0.3,0.2,0.3,0.4c0,0.3-0.1,0.4-0.3,0.4C72,32.1,71.9,31.9,71.9,31.6z M72.4,31.6c0-0.2-0.1-0.3-0.2-0.3
						s-0.2,0.1-0.2,0.3c0,0.2,0.1,0.3,0.2,0.3S72.4,31.8,72.4,31.6z"/>
				</g>
			</g>
		</g>
		<g>
			<path class="st17" d="M73.6,41.8c0,1.7-1.4,3.1-3.1,3.1c-1.7,0-3.1-1.4-3.1-3.1c0-1.7,1.4-3.1,3.1-3.1
				C72.3,38.8,73.6,40.1,73.6,41.8z"/>
			<g>
				<g>
					<path class="st6" d="M69.5,41.4c0-0.1-0.1-0.1-0.2-0.1c-0.2,0-0.3,0.1-0.3,0.5c0.1-0.1,0.2-0.2,0.3-0.2c0.2,0,0.4,0.1,0.4,0.4
						c0,0.3-0.2,0.4-0.4,0.4c-0.3,0-0.5-0.2-0.5-0.7c0-0.5,0.3-0.7,0.5-0.7c0.2,0,0.3,0.1,0.4,0.2L69.5,41.4z M69.4,42
						c0-0.2-0.1-0.2-0.2-0.2c-0.1,0-0.2,0-0.2,0.2c0,0.2,0.1,0.3,0.3,0.3C69.4,42.3,69.4,42.2,69.4,42z"/>
					<path class="st6" d="M69.8,41.8c0-0.5,0.2-0.7,0.5-0.7c0.3,0,0.5,0.2,0.5,0.7c0,0.5-0.2,0.7-0.5,0.7
						C70,42.5,69.8,42.2,69.8,41.8z M70.5,41.8c0-0.4-0.1-0.5-0.2-0.5c-0.1,0-0.2,0.1-0.2,0.5c0,0.4,0.1,0.5,0.2,0.5
						C70.4,42.3,70.5,42.1,70.5,41.8z"/>
					<path class="st6" d="M70.9,41.5c0-0.3,0.1-0.4,0.3-0.4c0.2,0,0.3,0.2,0.3,0.4c0,0.3-0.1,0.4-0.3,0.4
						C71,41.9,70.9,41.7,70.9,41.5z M71.4,41.5c0-0.2-0.1-0.3-0.2-0.3c-0.1,0-0.2,0.1-0.2,0.3c0,0.2,0.1,0.3,0.2,0.3
						C71.3,41.8,71.4,41.7,71.4,41.5z M71.3,42.5L72,41h0.1l-0.8,1.4H71.3z M71.9,42c0-0.3,0.1-0.4,0.3-0.4c0.2,0,0.3,0.2,0.3,0.4
						c0,0.3-0.1,0.4-0.3,0.4C72,42.5,71.9,42.3,71.9,42z M72.4,42c0-0.2-0.1-0.3-0.2-0.3s-0.2,0.1-0.2,0.3c0,0.2,0.1,0.3,0.2,0.3
						S72.4,42.2,72.4,42z"/>
				</g>
			</g>
		</g>
	</g>
	<g>
		<defs>
			<path id="SVGID_00000108992224947745852280000011699852713533602179_" d="M99.7,79.2c0,0.8-0.6,1.8-1.3,2.3l-41,23.7
				c-0.7,0.4-1.9,0.4-2.6,0l-41-23.7c-0.7-0.4-1.3-1.4-1.3-2.3V31.8c0-0.8,0.6-1.8,1.3-2.3l41-23.7c0.7-0.4,1.9-0.4,2.6,0l41,23.7
				c0.7,0.4,1.3,1.4,1.3,2.3V79.2z"/>
		</defs>
		<clipPath id="SVGID_00000083780590159387436990000008288905210297134246_">
			<use xlink:href="#SVGID_00000108992224947745852280000011699852713533602179_"  style="overflow:visible;"/>
		</clipPath>
		
			<linearGradient id="SVGID_00000177443969552850508910000017675003938343787658_" gradientUnits="userSpaceOnUse" x1="-114.7285" y1="109.1188" x2="-0.8074" y2="-13.0466" gradientTransform="matrix(0.5455 7.390000e-02 7.390000e-02 0.5507 75.3101 43.0466)">
			<stop  offset="0.1044" style="stop-color:#FFFFFF"/>
			<stop  offset="0.1911" style="stop-color:#EFEFEF"/>
			<stop  offset="0.3601" style="stop-color:#C6C6C6"/>
			<stop  offset="0.5948" style="stop-color:#838383"/>
			<stop  offset="0.8832" style="stop-color:#282828"/>
			<stop  offset="1" style="stop-color:#010101"/>
		</linearGradient>
		
			<polygon style="opacity:0.5;clip-path:url(#SVGID_00000083780590159387436990000008288905210297134246_);fill:url(#SVGID_00000177443969552850508910000017675003938343787658_);" points="
			54.5,17.3 48.6,21.9 54.5,39.1 51.6,40.9 30.7,55.9 36.3,59.5 62.4,57.8 63.6,59.4 52.3,69.8 54.8,71.8 62.3,65.1 68.2,65.1 
			68.3,67.3 71.1,65 76.8,65 77,67.3 80.2,65 85.9,65 84.1,90.1 50.8,109.8 11.2,85.5 8.8,42.3 46,16.4 		"/>
	</g>
	<g>
		<g>
			<g>
				<g>
					<path class="st5" d="M45.4,63.1h9.6v-4.3h-9.6V63.1z"/>
				</g>
			</g>
			<g>
				<path class="st5" d="M43.6,65.9c0,0.2,0.1,0.4,0.3,0.4h12.7c0.2,0,0.3-0.2,0.3-0.4V64c0-0.2-0.1-0.4-0.3-0.4H43.9
					c-0.2,0-0.3,0.2-0.3,0.4V65.9z"/>
			</g>
			<g>
				<g>
					<g>
						<path class="st5" d="M46.5,2c0,0.3,0.2,0.5,0.5,0.5h6.4c0.3,0,0.5-0.2,0.5-0.5l0,0c0-0.3-0.2-0.5-0.5-0.5h-6.4
							C46.7,1.5,46.5,1.7,46.5,2L46.5,2z"/>
					</g>
					<g>
						<g>
							<path class="st5" d="M53.1,2.8h-5.9v13.9h5.9V2.8z"/>
						</g>
					</g>
					<path class="st7" d="M45.7,17.3L45.7,17.3c0-1.3,1-2.3,2.3-2.3h4.3c1.3,0,2.3,1,2.3,2.3l0,0H45.7z"/>
				</g>
				<path class="st7" d="M54.6,17.9h-8.9v21.3h8.9V17.9z"/>
				<g>
					<path class="st5" d="M45.7,39.8h8.9c0,1.3-2.7,2.2-2.6,2.3V43h-3.7V42C48,41.9,45.7,40.9,45.7,39.8z"/>
				</g>
			</g>
			<g>
				<g>
					<g>
						<g>
							<path class="st5" d="M52.7,49.8c0.1,0,0.5,0,1.1-0.1c0.6-0.1,1-0.2,1.1-0.3l0.1,0.8c0,0.1-0.5,0.2-1,0.3
								c-0.6,0.1-1.1,0.1-1.1,0.1L52.7,49.8z"/>
						</g>
					</g>
					<g>
						<g>
							<path class="st5" d="M51.5,46l0.7,3.7c0.1,0,0.8,0,1.6-0.2c0.8-0.2,1.5-0.3,1.6-0.4l-0.7-3.7c0,0-0.7,0.2-1.6,0.3
								C52.2,45.9,51.5,46,51.5,46z"/>
						</g>
					</g>
					<g>
						<g>
							<path class="st5" d="M51.2,45.8c0.1,0.1,0.2,0.2,0.3,0.2c0,0,0.7,0,1.6-0.2c0.8-0.2,1.5-0.3,1.5-0.4c0,0,0.1-0.1,0.2-0.2
								L51.2,45.8z"/>
						</g>
					</g>
				</g>
				<g>
					<g>
						<g>
							<g>
								<path class="st5" d="M47.8,53.4c0.1,0,0.6,0.1,1.3,0.1c0.7,0,1.2-0.1,1.3-0.1l0,0.9c0,0.1-0.6,0.1-1.3,0.2
									c-0.7,0-1.2-0.1-1.3-0.1L47.8,53.4z"/>
							</g>
						</g>
					</g>
					<g>
						<g>
							<path class="st5" d="M47.1,46.7l0,6.5c0.1,0.1,0.9,0.1,1.9,0.1c1,0,1.8-0.1,1.9-0.1l0-6.6c-0.1,0-0.8,0.1-1.8,0.1
								C48.1,46.6,47.2,46.7,47.1,46.7z"/>
						</g>
					</g>
					<g>
						<g>
							<path class="st5" d="M46.8,46.4c0.1,0.2,0.4,0.5,0.4,0.5c0.1,0,0.8,0,1.8,0c1,0,1.9-0.1,1.9-0.1c0.3-0.2,0.4-0.5,0.5-1
								L46.8,46.4z"/>
						</g>
					</g>
				</g>
				<g>
					<g>
						<g>
							<g>
								<path class="st5" d="M57.1,50.4c0.1,0,0.6-0.1,1.3-0.3c0.7-0.2,1.2-0.4,1.3-0.4l0.3,0.9c0,0.1-0.6,0.3-1.2,0.5
									c-0.7,0.2-1.3,0.3-1.3,0.2L57.1,50.4z"/>
							</g>
						</g>
					</g>
					<g>
						<g>
							<path class="st5" d="M55.1,45.8l1.3,4.5c0.1,0,0.9-0.1,1.9-0.4c1-0.3,1.8-0.6,1.9-0.6l-1.3-4.5c0,0-0.9,0.3-1.9,0.6
								C56.1,45.7,55.1,45.8,55.1,45.8z"/>
						</g>
					</g>
					<g>
						<g>
							<path class="st5" d="M54.8,45.3c0,0.1-0.1,0.2-0.1,0.2c0.1,0.2,0.4,0.5,0.6,0.5c0,0,0.7-0.1,1.9-0.5c1-0.3,1.8-0.6,1.8-0.6
								c0,0,0.1-0.2,0.1-0.4L54.8,45.3z"/>
						</g>
					</g>
				</g>
			</g>
			<g>
				<path class="st7" d="M46.4,46L45,45c0-0.2,0.1-0.3,0.3-0.4l14.5-2.4c0.2,0,0.3,0.1,0.4,0.3l-1,1.6L46.4,46z"/>
				<path class="st7" d="M45.8,44.2l13.3-2.2L59,41.6c0-0.2-0.2-0.3-0.4-0.3L46,43.3c-0.2,0-0.3,0.2-0.3,0.4L45.8,44.2z"/>
			</g>
			<g>
				<path class="st7" d="M52.1,56.5c0.4-0.2,0.8-0.4,1-0.5l0,0c0.1-0.1,0.1-0.2,0-0.2l0,0c-0.1-0.1-0.2-0.1-0.2,0l0,0
					c-0.1,0.1-0.5,0.3-0.9,0.5l0,0c-0.4,0.2-0.9,0.4-1,0.4l0,0c-0.1,0-1.1-0.1-2.1-0.3l0,0c-1.1-0.2-2.3-0.4-3.2-0.5l0,0
					c-0.6-0.1-1-0.2-1.1-0.2l0,0c-0.2,0-0.3,0.1-0.5,0.2l0,0c-0.2,0.1-0.4,0.2-0.6,0.3l0,0c-0.4,0.2-1.2,0.7-1.2,0.7l0,0l0,0
					c-0.1,0.1-0.1,0.2,0,0.2l0,0c0.1,0.1,0.2,0.1,0.2,0l0,0c0,0,1.3-0.8,1.8-1l0,0c0.2-0.1,0.3-0.1,0.3-0.1l0,0
					c0.1,0,0.5,0.1,1.1,0.2l0,0c0.6,0.1,1.3,0.2,2.1,0.3l0,0c1.5,0.3,3,0.5,3.3,0.5l0,0C51.2,56.9,51.7,56.7,52.1,56.5L52.1,56.5z"
					/>
				<g>
					<g>
						<rect x="41.2" y="55.6" class="st5" width="1.2" height="1.5"/>
						<path class="st5" d="M40.7,55.7c0,0.2,0.2,0.3,0.3,0.3h1.6c0.2,0,0.3-0.2,0.3-0.3V55c0-0.2-0.2-0.3-0.3-0.3H41
							c-0.2,0-0.3,0.2-0.3,0.3V55.7z"/>
					</g>
				</g>
			</g>
			<path class="st7" d="M55.1,76.6c0,0.2-0.2,0.3-0.3,0.3H45c-0.2,0-0.3-0.2-0.3-0.3v-3.9c0,0,0,0,0,0c0.4,0.3,2.6,0.5,5.2,0.5
				c2.6,0,4.8-0.2,5.2-0.5c0,0,0,0,0,0V76.6z"/>
			<path class="st7" d="M44.7,72l0,0.1c0.2,0.4,2.4,0.6,5.2,0.6c2.7,0,4.9-0.2,5.1-0.6c0,0,0-0.1,0-0.2c0-0.6-0.2-1-0.6-1.3
				C54,70.3,52.3,70,49.9,70c-2.3,0-4,0.2-4.4,0.5C45,70.8,44.7,71.3,44.7,72z M46.6,70.8c0.7-0.3,1.9-0.5,3.3-0.5
				c1.4,0,2.5,0.2,3.3,0.5c-0.8,0.1-2,0.2-3.3,0.2C48.6,71,47.4,70.9,46.6,70.8z"/>
			<g>
				<path class="st7" d="M31.3,77.4h9.5v-9.1h0c0,0,0,0,0,0c0-1.1-0.9-1.9-1.9-1.9c-0.8,0-1.5,0.5-1.8,1.2L31.3,77.4z M37.6,68.5
					c0-0.6,0.5-1.2,1.2-1.2c0.6,0,1.2,0.5,1.2,1.2c0,0.6-0.5,1.2-1.2,1.2C38.1,69.7,37.6,69.2,37.6,68.5z"/>
				<g>
					<path class="st5" d="M38,68.5c0,0.4,0.3,0.7,0.7,0.7c0.4,0,0.7-0.3,0.7-0.7c0-0.4-0.3-0.7-0.7-0.7C38.3,67.8,38,68.1,38,68.5z"
						/>
				</g>
			</g>
			<g>
				<g>
					<g>
						<g>
							<path class="st5" d="M37.4,28.1c0,1.5,1.2,2.7,2.7,2.7c1.5,0,2.7-1.2,2.7-2.7c0-1.5-1.2-2.7-2.7-2.7
								C38.6,25.3,37.4,26.6,37.4,28.1z M39.2,28.1c0-0.5,0.4-0.9,0.9-0.9c0.5,0,0.9,0.4,0.9,0.9c0,0.5-0.4,0.9-0.9,0.9
								C39.6,29,39.2,28.6,39.2,28.1z"/>
						</g>
					</g>
					<path class="st7" d="M39.5,28.1c0,0.3,0.3,0.6,0.6,0.6c0.3,0,0.6-0.3,0.6-0.6c0-0.3-0.3-0.6-0.6-0.6
						C39.8,27.4,39.5,27.7,39.5,28.1z M39.7,27.6C39.8,27.6,39.8,27.6,39.7,27.6l0.8,0.8c0,0,0,0.1,0,0.1c0,0-0.1,0-0.1,0L39.7,27.6
						C39.7,27.7,39.7,27.7,39.7,27.6z"/>
				</g>
				<g>
					<path class="st5" d="M35.1,35.1c0,0.6,0.5,1.2,1.2,1.2c0.6,0,1.2-0.5,1.2-1.2c0-0.6-0.5-1.2-1.2-1.2
						C35.6,34,35.1,34.5,35.1,35.1z"/>
				</g>
				<g>
					<g>
						<path class="st5" d="M22.3,49.6c0,9,5.8,18.1,10.2,23.5l3.8-6.6c0.6-1,1.5-1.6,2.9-1.6c1.5,0,2.6,1.3,2.6,3.5
							c0,0,0,6.8,0,10.1l0.9,0V59.1c0,0-1.6,0.3-5.2,0.1c-3.6-0.2-6.6-5.2-7.2-11.3c-0.6-6.1,3.1-7.6,5.5-8.2
							c1.8-0.5,6.9-0.5,9.3-0.4V20.7c-3,0-6.7,0.8-10.1,3.4C31.2,27,22.3,35.6,22.3,49.6z M40.1,31.6c-1.9,0-3.5-1.6-3.5-3.5
							c0-1.9,1.6-3.5,3.5-3.5c1.9,0,3.5,1.6,3.5,3.5C43.6,30,42,31.6,40.1,31.6z M34.3,35.1c0-1.1,0.9-2,2-2c1.1,0,2,0.9,2,2
							c0,1.1-0.9,2-2,2C35.2,37.1,34.3,36.2,34.3,35.1z"/>
					</g>
				</g>
			</g>
			<g>
				<path class="st5" d="M24.8,79.8c0,0.3,0.2,0.5,0.5,0.5h38.1c0.3,0,0.5-0.2,0.5-0.5V76c0-0.3-0.2-0.5-0.5-0.5H25.3
					c-0.3,0-0.5,0.2-0.5,0.5V79.8z"/>
			</g>
			<path class="st7" d="M38,59.1c0,0.1,0.1,0.3,0.3,0.3h25.1c0.1,0,0.3-0.1,0.3-0.3v-1.9c0-0.1-0.1-0.3-0.3-0.3H38.2
				c-0.1,0-0.3,0.1-0.3,0.3V59.1z"/>
		</g>
	</g>
	<g>
		<rect x="57" y="80.9" class="st6" width="33.8" height="4"/>
		<g>
			<path class="st6" d="M71.4,67.9c0,0-0.1,21.7,0,22.5c0.1,0.8,0.9,2.1,2.7,2.1c1.2,0,2.5-0.3,2.8-2.3c0.3-1.9,0.1-22.3,0.1-22.3
				L71.4,67.9z"/>
			<g>
				<path class="st19" d="M71.8,68.8c0,0.2,0.2,0.4,0.4,0.4l3.8,0c0.2,0,0.4-0.2,0.4-0.4l0-1.8c0-0.2-0.2-0.4-0.4-0.4l-3.8,0
					c-0.2,0-0.4,0.2-0.4,0.4L71.8,68.8z"/>
				<path class="st19" d="M71.2,89.9l0-22.2c0-0.1,0-0.1,0.1-0.1l0,0c0,0,0.1,0,0.1,0l0,0c0,0,0.3,0.1,0.7,0.1l0,0
					c0.5,0,1.3,0.1,2,0.1l0,0c0.9,0,1.8,0,2.3-0.1l0,0c0.3,0,0.4-0.1,0.4-0.1l0,0c0.1,0,0.1,0,0.1,0l0,0c0,0,0.1,0.1,0.1,0.1l0,0
					l0,22.2c0,0.7-0.3,1.3-0.7,1.8l0,0c-0.5,0.6-1.3,1-2.2,1l0,0l-0.2,0c-0.8,0-1.4-0.3-2-0.7l0,0C71.5,91.4,71.2,90.7,71.2,89.9
					L71.2,89.9z M71.5,89.9c0,0.7,0.3,1.3,0.8,1.7l0,0c0.5,0.4,1.1,0.7,1.7,0.7l0,0h0.2c0.8,0,1.5-0.3,2-0.8l0,0
					c0.4-0.4,0.6-1,0.6-1.5l0,0l0-22c-0.1,0-0.2,0-0.3,0l0,0C76,68,75.1,68,74.1,68l0,0c-0.8,0-1.5,0-2.1-0.1l0,0
					c-0.2,0-0.4,0-0.6-0.1l0,0L71.5,89.9L71.5,89.9z"/>
				<path class="st16" d="M71.9,72.7v16.8c0,1.2,0.9,2.1,2.1,2.1l0.1,0c1.2,0,2.1-0.9,2.1-2.1V72.7L71.9,72.7z"/>
				<path class="st6" d="M71.2,64.9c-0.2,0.1-0.3,0.3-0.3,0.5l0,1.5c0,0.3,0.2,0.5,0.4,0.5c0.4,0.1,1.5,0.2,2.8,0.2
					c1.3,0,2.3-0.1,2.8-0.2c0.3,0,0.5-0.2,0.5-0.5l0-1.5c0-0.2-0.2-0.4-0.4-0.5C77,64.9,71.3,64.8,71.2,64.9z"/>
			</g>
		</g>
		<g>
			<path class="st6" d="M80.2,67.9c0,0-0.1,21.7,0,22.5c0.1,0.8,0.9,2.2,2.6,2.1c1.2,0,2.6-0.3,2.9-2.3c0.3-1.9,0.1-22.3,0.1-22.3
				L80.2,67.9z"/>
			<g>
				<path class="st19" d="M80.6,68.8c0,0.2,0.2,0.4,0.4,0.4l3.8,0c0.2,0,0.4-0.2,0.4-0.4l0-1.8c0-0.2-0.2-0.4-0.4-0.4l-3.8,0
					c-0.2,0-0.4,0.2-0.4,0.4L80.6,68.8z"/>
				<path class="st19" d="M80,89.9l0-22.2c0-0.1,0-0.1,0.1-0.1l0,0c0,0,0.1,0,0.1,0l0,0c0,0,0.3,0.1,0.7,0.1l0,0
					c0.5,0,1.3,0.1,2,0.1l0,0c0.9,0,1.8,0,2.3-0.1l0,0c0.3,0,0.4-0.1,0.4-0.1v0c0,0,0.1,0,0.1,0l0,0c0,0,0.1,0.1,0.1,0.1l0,0l0,22.2
					c0,0.7-0.3,1.3-0.7,1.8l0,0c-0.5,0.6-1.3,1-2.2,1l0,0l-0.2,0c-0.8,0-1.4-0.3-2-0.7l0,0C80.3,91.4,80,90.7,80,89.9L80,89.9z
					 M80.3,89.9c0,0.7,0.3,1.3,0.8,1.7l0,0c0.5,0.4,1.1,0.7,1.7,0.7l0,0H83c0.8,0,1.5-0.3,2-0.8l0,0c0.4-0.4,0.6-1,0.6-1.5l0,0l0-22
					c-0.1,0-0.2,0-0.3,0l0,0c-0.5,0-1.4,0.1-2.3,0.1l0,0c-0.8,0-1.5,0-2.1-0.1l0,0c-0.2,0-0.4,0-0.5-0.1l0,0L80.3,89.9L80.3,89.9z"
					/>
				<path class="st15" d="M80.7,70.9v18.7c0,1.2,0.9,2.1,2.1,2.1l0.1,0c1.2,0,2.1-0.9,2.1-2.1V70.9L80.7,70.9z"/>
				<path class="st6" d="M80,64.9c-0.2,0.1-0.3,0.3-0.3,0.5l0,1.5c0,0.3,0.2,0.5,0.4,0.5c0.4,0.1,1.5,0.2,2.8,0.2
					c1.3,0,2.3-0.1,2.8-0.2c0.3,0,0.5-0.2,0.5-0.5l0-1.5c0-0.2-0.2-0.4-0.4-0.5C85.8,64.9,80.1,64.8,80,64.9z"/>
			</g>
		</g>
		<g>
			<path class="st6" d="M62.5,67.9c0,0-0.1,21.7,0,22.5c0.1,0.8,1.1,2.2,2.6,2.1c1.2-0.1,2.5-0.3,2.8-2.3c0.3-1.9,0.1-22.3,0.1-22.3
				L62.5,67.9z"/>
			<g>
				<path class="st19" d="M63,68.8c0,0.2,0.2,0.4,0.4,0.4l3.8,0c0.2,0,0.4-0.2,0.4-0.4l0-1.8c0-0.2-0.2-0.4-0.4-0.4l-3.8,0
					c-0.2,0-0.4,0.2-0.4,0.4L63,68.8z"/>
				<path class="st19" d="M62.3,89.9l0-22.2c0-0.1,0-0.1,0.1-0.1l0,0c0,0,0.1,0,0.1,0l0,0c0,0,0.3,0.1,0.7,0.1l0,0
					c0.5,0,1.3,0.1,2,0.1l0,0c0.9,0,1.8,0,2.3-0.1l0,0c0.3,0,0.4-0.1,0.4-0.1v0c0.1,0,0.1,0,0.1,0l0,0c0,0,0.1,0.1,0.1,0.1l0,0
					l0,22.2c0,0.7-0.3,1.3-0.7,1.8l0,0c-0.5,0.6-1.3,1-2.2,1l0,0l-0.2,0c-0.8,0-1.4-0.3-2-0.7l0,0C62.7,91.4,62.3,90.7,62.3,89.9
					L62.3,89.9z M62.7,89.9c0,0.7,0.3,1.3,0.8,1.7l0,0c0.5,0.4,1.1,0.7,1.7,0.7l0,0h0.2c0.8,0,1.5-0.3,2-0.8l0,0
					c0.4-0.4,0.6-1,0.6-1.5l0,0l0-22c-0.1,0-0.2,0-0.3,0l0,0c-0.5,0-1.4,0.1-2.3,0.1l0,0c-0.8,0-1.5,0-2.1-0.1l0,0
					c-0.2,0-0.4,0-0.5-0.1l0,0L62.7,89.9L62.7,89.9z"/>
				<path class="st15" d="M63.1,79.5v10c0,1.2,0.9,2.1,2.1,2.1l0.1,0c1.2,0,2.1-0.9,2.1-2.1v-10L63.1,79.5z"/>
				<path class="st6" d="M62.4,64.9c-0.2,0.1-0.3,0.3-0.3,0.5l0,1.5c0,0.3,0.2,0.5,0.4,0.5c0.4,0.1,1.5,0.2,2.8,0.2
					c1.3,0,2.3-0.1,2.8-0.2c0.3,0,0.5-0.2,0.5-0.5l0-1.5c0-0.2-0.2-0.4-0.4-0.5C68.2,64.9,62.5,64.8,62.4,64.9z"/>
			</g>
		</g>
		<path class="st6" d="M57.1,92.4V75.8c0-2.6,2.1-4.7,4.7-4.7l0,0l0.6,0v0.7h-0.6c-2.2,0-4.1,1.8-4.1,4.1l0,0v16.6H57.1L57.1,92.4z"
			/>
		<path class="st6" d="M90.4,92.4V75.8c0-2.2-1.8-4.1-4.1-4.1l0,0h-0.6V71h0.6c2.6,0,4.7,2.1,4.7,4.7l0,0v16.6h0H90.4L90.4,92.4z"/>
		<g>
			<polygon class="st6" points="68,71.7 68,71 71.2,71 71.2,71.7 68,71.7 			"/>
			<polygon class="st6" points="76.9,71.7 76.9,71 80.1,71 80.1,71.7 76.9,71.7 			"/>
		</g>
	</g>
</g>
</svg>
