<?xml version="1.0" encoding="utf-8"?>
<!-- Generator: Adobe Illustrator 27.2.0, SVG Export Plug-In . SVG Version: 6.00 Build 0)  -->
<svg version="1.1" id="Layer_1" xmlns="http://www.w3.org/2000/svg" xmlns:xlink="http://www.w3.org/1999/xlink" x="0px" y="0px"
	 viewBox="0 0 401.5 180" style="enable-background:new 0 0 401.5 180;" xml:space="preserve">
<style type="text/css">
	.st0{fill:#6F61C0;}
	.st1{fill:#A084E8;}
	.st2{fill:#8BE8E5;}
	.st3{fill:#37517E;}
</style>
<g>
	<path class="st0" d="M194.1,95.2v13.2h-28.5l-14.8,28.2c-1.4,2.5-3.8,3.9-6.6,3.6c-2.7,0-4.9-1.9-5.8-4.4l-11.2-32.6l-9.9,23.8
		c-1.4,2.5-4.1,4.1-7.1,4.1c-2.7-0.5-5.2-2.7-5.8-5.8l-9.3-57.6l-11.2,87.7c-0.3,3.3-3,5.8-6.3,5.8c0,0,0,0-0.3,0
		c-3,0-5.8-2.5-6.6-5.5L57.8,88.1l-8,16.7c-1.1,2.2-3.6,3.6-6,3.6H16.2V95.2h23.3L54.6,64c1.4-2.7,4.1-4.1,6.9-3.8
		c3,0.5,5.2,2.5,5.8,5.5l9,47.7l11.5-89.1c0.3-3.3,3-5.5,6.3-5.5c3.3-0.3,6,2.2,6.9,5.5l12.6,76.8l8.2-19.2c1.1-2.5,3.6-4.4,6.3-4.1
		c3,0,5.2,1.9,6.3,4.4l11.8,34.8l9.6-18.1c1.1-2.2,3.3-3.6,5.8-3.6h32.5L194.1,95.2L194.1,95.2z"/>
</g>
<g>
	<g>
		<path class="st3" d="M244.6,51.4v71.5h14.1v17.9h-37.4V51.4H244.6z"/>
		<path class="st3" d="M304.6,51.4l13.3,89.3h-23.7l-1.2-16.1h-8.3l-1.4,16.1h-24L271,51.4H304.6z M292.2,108.8
			c-1.2-10.1-2.4-22.6-3.5-37.5c-2.4,17.1-3.9,29.6-4.5,37.5H292.2z"/>
		<path class="st3" d="M321.8,51.4H345c7.3,0,12.9,0.6,16.6,1.7c3.8,1.1,6.8,3.4,9.1,6.9c2.3,3.5,3.5,9.1,3.5,16.8
			c0,5.2-0.8,8.9-2.5,10.9c-1.6,2.1-4.9,3.6-9.7,4.7c5.4,1.2,9,3.2,10.9,6c1.9,2.8,2.9,7.1,2.9,12.9v8.3c0,6-0.7,10.5-2.1,13.4
			c-1.4,2.9-3.6,4.9-6.6,6c-3,1.1-9.2,1.6-18.5,1.6h-26.9V51.4z M345,66.7v19.9c1,0,1.8-0.1,2.3-0.1c2.3,0,3.7-0.6,4.4-1.7
			c0.6-1.1,0.9-4.3,0.9-9.6c0-2.8-0.3-4.8-0.8-5.9c-0.5-1.1-1.2-1.8-2-2.1C349,66.9,347.4,66.7,345,66.7z M345,100.4v25
			c3.3-0.1,5.4-0.6,6.3-1.5c0.9-0.9,1.4-3.2,1.4-6.8v-8.3c0-3.8-0.4-6.1-1.2-7C350.6,101,348.5,100.5,345,100.4z"/>
	</g>
</g>
</svg>
