<?xml version="1.0" encoding="utf-8"?>
<!-- Generator: Adobe Illustrator 27.2.0, SVG Export Plug-In . SVG Version: 6.00 Build 0)  -->
<svg version="1.1" id="Layer_1" x="0px" y="0px"
	 viewBox="0 0 25 27" style="enable-background:new 0 0 25 27;" xml:space="preserve">
<style type="text/css">
	.st0{fill:#595959;}
	.st1{fill:#FFFFFF;}
	.st2{fill-rule:evenodd;clip-rule:evenodd;fill:#595959;}
	.st3{fill:#DE2B38;}
	.st4{fill:#298C43;}
	.st5{fill:#7E8DAD;}
	.st6{fill-rule:evenodd;clip-rule:evenodd;fill:#FFFFFF;}
	.st7{fill:#A7A9AC;}
	.st8{fill:#EF3E3D;}
	.st9{fill:#010101;}
	.st10{fill:url(#XMLID_00000016763929079114705850000010580212914044612767_);}
	.st11{fill:#AAD2DC;}
	.st12{fill:#D3E3EB;}
	.st13{fill:url(#XMLID_00000085252695701522722560000007691676940524091807_);}
	.st14{fill:url(#XMLID_00000183234139508278677180000016897754197378645635_);}
	.st15{fill:url(#XMLID_00000120551576556009416660000013168188929210437513_);}
	.st16{fill:url(#XMLID_00000121269613544458757650000016891029914025348270_);}
	.st17{fill:#AF76B2;}
	.st18{fill:none;stroke:#24326A;stroke-linecap:round;}
	.st19{fill:#24326A;}
	.st20{fill:none;stroke:#FFFFFF;stroke-linecap:round;}
	.st21{fill:#BB9B95;}
	.st22{fill:#DECAC6;}
	.st23{fill:#429DD7;}
	.st24{fill:#72B3E2;}
	.st25{opacity:0.5;fill:#E8F2FB;}
	.st26{opacity:0.5;fill:#FFFFFF;}
	.st27{fill:#E93837;}
	.st28{fill:#F05044;}
	.st29{fill:#EFE2E1;}
	.st30{fill:#F15F50;}
	.st31{fill:#EAD9D8;}
	.st32{fill:#F04D3F;}
	.st33{fill:#422D2A;}
	.st34{fill:#573B38;}
	.st35{fill:#664545;}
	.st36{fill:#D1B8B4;}
	.st37{fill:#C5A9A6;}
	.st38{fill:#7FA63F;}
	.st39{fill:#98CA42;}
	.st40{fill:#221F1F;}
	.st41{fill:#F2C224;}
	.st42{filter:url(#Adobe_OpacityMaskFilter);}
	.st43{filter:url(#Adobe_OpacityMaskFilter_00000009557416304925354300000000792482008647540150_);}
	
		.st44{mask:url(#XMLID_00000127042145874728475040000014578691091668264593_);fill:url(#XMLID_00000042704745455228349220000018346589034298698639_);}
	.st45{opacity:0.19;fill:url(#XMLID_00000124873463520214994280000010506745454835520399_);}
	.st46{fill:#F4AC77;}
	.st47{fill:#D08252;}
	.st48{fill:#89C8EB;}
	.st49{fill:#98BFD8;}
	.st50{fill:#FDFEFF;}
	.st51{opacity:0.53;fill:#98BFD8;}
	.st52{fill:#EC2227;}
	.st53{opacity:0.33;fill:#98BFD8;}
	.st54{fill:#142937;}
	.st55{opacity:0.16;clip-path:url(#XMLID_00000132770653835961312330000003990487513974921359_);fill:#FFFFFF;}
	.st56{fill:#26415E;}
	.st57{opacity:0.48;fill:#98BFD8;}
	.st58{clip-path:url(#XMLID_00000036248994937217484180000010999473772262798271_);fill:#76B0CE;}
	.st59{fill:#1B3749;}
	.st60{opacity:0.2;clip-path:url(#XMLID_00000150095260769067552940000015614209758756907669_);fill:#98BFD8;}
	.st61{opacity:0.41;fill:#FDFEFF;}
	.st62{clip-path:url(#XMLID_00000013194688306870955870000003083007860506689674_);fill:#76B0CE;}
	.st63{fill:#425973;}
	.st64{fill:#3A5066;}
	.st65{fill:#FDFEFD;}
	.st66{fill:#E4E1E8;}
	.st67{opacity:0.37;fill:#3A5066;}
	.st68{opacity:0.26;fill:#1B3749;}
	.st69{opacity:0.15;fill:#1184C4;}
	.st70{fill:#293B54;}
	.st71{fill:#162435;}
	.st72{fill:#39B883;}
	.st73{fill:url(#SVGID_1_);}
	.st74{fill:url(#SVGID_00000180336063197885706840000012033212776168886670_);}
</style>
<g>
	<g id="Layer_1-2_1_">
		
			<linearGradient id="SVGID_1_" gradientUnits="userSpaceOnUse" x1="5.0555" y1="702.7518" x2="20.3759" y2="684.2608" gradientTransform="matrix(1 0 0 -1 0 705.6383)">
			<stop  offset="0" style="stop-color:#4A9AD4"/>
			<stop  offset="1" style="stop-color:#51C4CD"/>
		</linearGradient>
		<path class="st73" d="M19.2,2H6.9C5.9,2,5,2.9,5,4v16.7l0,0c0,0.1,0,0.3,0.1,0.4v0l0,0l0.1,0.3l0,0c0.1,0.2,0.2,0.3,0.3,0.4
			c0,0,0.1,0.1,0.1,0.1l0.1,0.1c0.1,0.1,0.3,0.2,0.4,0.3l0.3,0.1l0,0h0c0.2,0.1,0.5,0.1,0.7,0.1H10v2c0,0.1,0.1,0.2,0.2,0.2
			c0,0,0.1,0,0.1,0c0.1,0,0.1,0,0.2-0.1l1.2-1.4l1.4,1.4c0.1,0.1,0.2,0.1,0.3,0.1c0.1,0,0.2-0.1,0.2-0.2v-2h5.7
			c0.4,0,0.8-0.3,0.8-0.8l0,0V2.8C20,2.4,19.7,2,19.2,2C19.2,2,19.2,2,19.2,2z M19.5,21.9c0,0.1-0.1,0.2-0.2,0.2h-5.7v-1.6h5.9V21.9
			z M13,22.7v1.4L11.9,23c0,0-0.1-0.1-0.2-0.1l0,0c-0.1,0-0.1,0-0.2,0.1l-1,1.1v-3.4H13L13,22.7L13,22.7z M13.3,20.1H8.2
			c-0.1,0-0.3,0.1-0.3,0.3l0,0c0,0.1,0.1,0.2,0.2,0.3H10v1.6H7.3c-0.2,0-0.3,0-0.5-0.1L6.6,22l-0.1,0c-0.2-0.1-0.4-0.2-0.5-0.3
			c-0.1-0.1-0.1-0.1-0.2-0.2c-0.1-0.1-0.1-0.2-0.2-0.3l0-0.1c0-0.1,0-0.1-0.1-0.2c0-0.1-0.1-0.2-0.1-0.3c0-0.1,0-0.2,0-0.3l0,0
			c0-0.1,0-0.2,0-0.3c0.1-0.4,0.2-0.8,0.5-1c0.3-0.3,0.8-0.5,1.3-0.5h12c0.1,0,0.1,0,0.1,0.1c0,0,0,0,0,0v1.4H13.3z M5.5,4
			c0-0.8,0.6-1.4,1.4-1.4h1.4v15.5h-1c-0.6,0-1.2,0.2-1.6,0.7c-0.1,0.1-0.1,0.1-0.2,0.2V4z M19.5,2.8v15.3h-0.1H8.9V2.5h10.3
			C19.4,2.5,19.5,2.6,19.5,2.8C19.5,2.8,19.5,2.8,19.5,2.8z"/>
		
			<linearGradient id="SVGID_00000011023670690753430490000016639869426230333317_" gradientUnits="userSpaceOnUse" x1="7.4244" y1="704.7138" x2="22.7448" y2="686.228" gradientTransform="matrix(1 0 0 -1 0 705.6383)">
			<stop  offset="0" style="stop-color:#4A9AD4"/>
			<stop  offset="1" style="stop-color:#51C4CD"/>
		</linearGradient>
		<path style="fill:url(#SVGID_00000011023670690753430490000016639869426230333317_);" d="M11.2,11.3h6V6.8h-6V11.3z M11.7,7.3h4.9
			v3.5h-4.9V7.3z"/>
	</g>
</g>
</svg>
