<?xml version="1.0" encoding="UTF-8"?>
<svg id="Layer_1" data-name="Layer 1" xmlns="http://www.w3.org/2000/svg" viewBox="0 0 104.51 102.13">
  <defs>
    <style>
      .cls-1 {
        fill: #f4ac77;
      }

      .cls-2 {
        fill: #fff;
      }

      .cls-3 {
        fill: #d08252;
      }
    </style>
  </defs>
  <rect class="cls-1" x="5.2" y="4.01" width="94.1" height="94.11" rx="12.55" ry="12.55"/>
  <path class="cls-3" d="m99.31,77.61v-27.02c-16.23-16.23-22.18-22.18-29.91-29.91-1.1-1.1-2.82-1.15-3.84-.13l-11.65,11.65c.54.54,44.89,44.89,45.41,45.41Z"/>
  <path class="cls-3" d="m32.58,53.52l-11.65,11.65c-1.02,1.02-.97,2.74.13,3.84,0,0,28.71,28.71,29.1,29.11h27.02c-4.5-4.51-44.6-44.6-44.6-44.6Z"/>
  <path class="cls-3" d="m99.31,80.89C29.05,10.63,47.58,29.17,38.95,20.54c-1.02-1.02-2.74-.96-3.84.13l-14.06,14.06c-1.1,1.09-1.16,2.81-.13,3.84,4.31,4.31,29.97,29.97,59.54,59.55h6.29c6.93,0,12.55-5.62,12.55-12.55v-4.67Z"/>
  <g>
    <path class="cls-2" d="m83.59,65.17c1.02,1.02.97,2.74-.13,3.84l-14.06,14.06c-.53.53-1.23.84-1.95.86-.72.02-1.4-.24-1.89-.73L20.92,38.57c-1.02-1.03-.97-2.74.13-3.84l14.06-14.06c1.1-1.1,2.82-1.16,3.84-.13l44.63,44.63ZM38.4,22.3c.4-.4.41-1.06,0-1.47-.4-.4-1.06-.4-1.47,0-.4.41-.4,1.06,0,1.47.41.41,1.07.41,1.47,0Zm4.99,4.99c.4-.4.4-1.06,0-1.47-.2-.2-.46-.3-.74-.3-.28,0-.54.11-.73.3-.2.2-.31.46-.31.74,0,.28.11.54.3.73.4.41,1.06.41,1.47,0Zm4.99,4.99c.2-.19.3-.45.3-.73s-.11-.54-.3-.73c-.4-.4-1.06-.4-1.47,0-.41.41-.41,1.06,0,1.47.41.4,1.06.4,1.47,0Zm3.52,4.99c.4.4,1.06.4,1.47,0,.4-.41.4-1.07,0-1.47-.2-.2-.46-.31-.74-.3-.28,0-.54.11-.73.31-.2.19-.31.45-.31.73,0,.28.11.54.3.73h0Zm6.46,4.99c.19-.19.3-.46.31-.73,0-.28-.11-.54-.31-.74-.41-.4-1.06-.4-1.47,0-.41.4-.41,1.06,0,1.47.41.4,1.06.4,1.47,0Zm4.99,4.99c.4-.4.4-1.06,0-1.47-.41-.41-1.07-.41-1.47,0-.41.41-.41,1.06,0,1.47.41.41,1.07.41,1.47,0Zm4.99,4.99c.4-.41.4-1.06,0-1.47-.4-.4-1.06-.4-1.47,0-.4.41-.41,1.06,0,1.47.41.4,1.07.41,1.47,0Zm4.98,4.98c.2-.19.3-.45.31-.73,0-.28-.11-.54-.3-.74-.41-.4-1.07-.4-1.47,0-.4.41-.41,1.06,0,1.47.4.41,1.07.41,1.47,0Zm3.52,4.99c.2.2.46.3.73.3.28,0,.54-.11.73-.31.2-.2.3-.46.3-.73,0-.28-.11-.54-.3-.73-.41-.4-1.06-.41-1.47,0-.19.2-.3.46-.31.74,0,.28.11.54.31.74h0Zm5.72,5.29c.28,0,.54-.11.73-.3.4-.41.41-1.06,0-1.47-.2-.2-.46-.3-.74-.3-.28,0-.54.11-.73.31-.4.41-.4,1.06,0,1.47.2.2.46.3.73.3ZM36.96,28.72c.41-.4.41-1.06,0-1.47-.4-.4-1.06-.4-1.46,0-.2.19-.3.46-.31.73,0,.28.11.54.3.74.41.4,1.07.4,1.47,0Zm4.99,4.99c.2-.2.31-.46.31-.73s-.11-.54-.3-.74c-.2-.19-.46-.3-.74-.3-.28,0-.54.11-.73.31-.19.19-.3.45-.3.73,0,.28.11.54.31.74.4.4,1.06.4,1.47,0Zm4.26,5.29c.28,0,.54-.11.73-.31.2-.2.31-.46.31-.73s-.11-.54-.3-.73c-.2-.2-.46-.31-.74-.31-.28,0-.54.11-.73.31-.2.2-.3.46-.31.73,0,.28.11.54.31.74.19.2.46.3.73.3Zm20.69,19.65c.4-.41.4-1.06,0-1.47-.4-.4-1.06-.4-1.47,0-.4.4-.4,1.06,0,1.47.41.4,1.07.4,1.47,0Zm4.99,4.99c.4-.4.4-1.06,0-1.47-.4-.41-1.07-.41-1.47,0-.2.2-.3.46-.3.73,0,.28.11.54.31.73.4.4,1.06.4,1.47,0Zm4.99,4.99c.4-.41.4-1.06,0-1.47-.2-.2-.46-.31-.74-.31-.28,0-.54.11-.73.31-.19.19-.3.45-.3.73,0,.28.11.54.31.74.4.41,1.06.41,1.47,0ZM30.54,30.16c.4-.4.4-1.06,0-1.47-.4-.4-1.06-.4-1.47,0-.4.4-.4,1.07,0,1.47.41.4,1.07.4,1.47,0Zm4.99,4.99c.2-.2.31-.46.31-.74,0-.27-.11-.54-.31-.73-.4-.41-1.06-.41-1.47,0-.2.2-.31.46-.31.73,0,.28.11.54.31.73.4.41,1.07.41,1.47,0Zm4.26,5.29c.27,0,.53-.11.73-.3.4-.4.41-1.06,0-1.47-.4-.4-1.06-.4-1.47,0-.4.41-.4,1.06,0,1.47.2.2.46.31.74.3Zm24.2,24.64c.2.2.46.31.74.3.27,0,.53-.11.73-.31.2-.19.31-.46.31-.74,0-.27-.11-.53-.31-.73-.4-.4-1.06-.4-1.46,0-.4.4-.4,1.07,0,1.47h0Zm4.99,4.99c.2.2.46.3.74.3.28,0,.53-.11.73-.31.2-.19.3-.45.31-.72,0-.28-.11-.54-.31-.75-.4-.4-1.06-.4-1.46,0-.2.2-.31.45-.31.73,0,.28.11.54.3.73h0Zm6.45,4.99c.4-.41.41-1.06,0-1.47-.4-.4-1.06-.4-1.47,0-.4.4-.4,1.06,0,1.47.4.4,1.06.4,1.47,0ZM27.59,36.53c.4.4,1.06.4,1.47,0,.2-.19.31-.45.3-.73,0-.28-.11-.54-.3-.74-.41-.4-1.06-.4-1.47,0-.2.2-.3.46-.3.73,0,.28.11.54.3.73h0Zm6.45,4.99c.41-.4.41-1.06,0-1.47-.41-.41-1.06-.41-1.47,0-.41.4-.41,1.06,0,1.47.41.4,1.07.4,1.47,0Zm4.99,4.99c.4-.4.4-1.07,0-1.47-.4-.4-1.06-.4-1.46,0-.4.4-.4,1.07,0,1.47.4.4,1.06.4,1.47,0Zm19.95,19.95c.4-.4.4-1.07,0-1.47-.41-.4-1.07-.4-1.47,0-.4.4-.4,1.06,0,1.47.41.4,1.07.4,1.47,0Zm4.25,5.29c.28,0,.54-.11.73-.31.4-.4.4-1.06,0-1.47-.41-.4-1.06-.4-1.47,0-.2.2-.31.46-.31.73,0,.28.11.54.31.74.2.19.46.3.73.3Zm4.99,4.99c.28,0,.54-.11.73-.31.4-.4.4-1.06,0-1.47-.19-.2-.45-.3-.73-.3-.28,0-.54.11-.73.3-.41.4-.41,1.06,0,1.47.2.2.46.31.74.31ZM22.63,37.97c.4-.4.4-1.06,0-1.47-.4-.4-1.06-.41-1.47,0-.4.41-.4,1.06,0,1.47.41.4,1.07.41,1.47,0Zm4.98,4.99c.4-.41.4-1.06,0-1.47-.2-.2-.46-.31-.74-.3-.28,0-.54.11-.73.3-.19.2-.3.46-.3.73,0,.28.11.54.31.73.41.4,1.06.4,1.47,0Zm4.99,4.99c.41-.41.41-1.07,0-1.47-.41-.4-1.06-.4-1.47,0-.4.4-.4,1.06,0,1.47.41.4,1.06.4,1.47,0Zm4.99,4.99c.4-.4.4-1.06,0-1.47-.41-.4-1.06-.4-1.47,0-.2.19-.3.45-.31.73,0,.28.11.54.31.74.4.4,1.06.4,1.47,0Zm4.99,4.99c.2-.2.3-.46.3-.73s-.11-.54-.3-.74c-.41-.41-1.07-.41-1.47,0-.4.4-.4,1.06,0,1.47.4.41,1.06.4,1.46,0Zm4.99,4.99c.41-.41.4-1.07,0-1.47-.41-.41-1.07-.4-1.47,0-.4.41-.4,1.06,0,1.47.4.4,1.06.4,1.47,0Zm4.99,4.99c.4-.41.41-1.06,0-1.47-.2-.2-.46-.31-.74-.31-.28,0-.54.11-.73.3-.41.4-.41,1.06,0,1.47.4.4,1.06.4,1.47,0Zm4.26,5.29c.28,0,.54-.1.73-.3.4-.41.4-1.07,0-1.47-.41-.4-1.07-.4-1.47,0-.4.41-.41,1.07,0,1.47.2.2.46.3.74.3Zm4.25,4.68c.2.2.46.3.74.3.28,0,.54-.1.73-.31.19-.19.3-.45.3-.73,0-.28-.11-.54-.3-.74-.4-.4-1.06-.4-1.47,0-.4.4-.41,1.06,0,1.46h0Zm4.99,4.99c.2.2.46.3.74.31.28,0,.54-.11.73-.31.2-.19.3-.45.3-.73,0-.28-.11-.54-.3-.74-.2-.2-.46-.31-.74-.31s-.54.11-.73.31c-.4.4-.4,1.06,0,1.46h0Zm-14.63-45.5c-.53-.53-1.64-.29-2.47.54l-10.67,10.67c-.83.83-1.08,1.94-.54,2.47l15.34,15.35c.25.25.66.34,1.12.24.47-.1.95-.38,1.35-.78l10.68-10.67c.83-.83,1.07-1.94.54-2.47l-15.34-15.34Z"/>
    <path class="cls-2" d="m57.6,30.81c-.2-.2-.45-.3-.73-.3-.28,0-.54.11-.74.3-.4.41-.4,1.07,0,1.47.4.4,1.06.4,1.47,0,.4-.41.4-1.07,0-1.47Zm4.99-3.52c.19-.2.3-.46.3-.73,0-.28-.11-.54-.31-.73-.2-.2-.46-.31-.73-.3-.28,0-.54.1-.73.3-.4.41-.41,1.06,0,1.47.2.19.46.3.73.3.28,0,.54-.11.74-.31h0Zm5.29-5.72c0-.28-.11-.54-.3-.73-.4-.4-1.06-.41-1.47,0-.2.2-.3.46-.3.74,0,.28.11.54.31.73.4.4,1.06.4,1.47,0,.19-.2.3-.45.3-.73Zm-3.86,10.68c-.4-.4-1.06-.4-1.47,0-.4.4-.41,1.07,0,1.47.2.19.46.3.73.3s.54-.11.73-.31c.4-.4.4-1.06,0-1.47Zm4.99-4.99c-.41-.4-1.06-.41-1.47,0-.2.2-.31.46-.31.74,0,.28.11.54.31.74.19.19.45.3.73.3.28,0,.54-.11.74-.31.4-.4.41-1.06,0-1.47Zm-3.56,12.88c.2-.2.31-.46.31-.74,0-.28-.11-.53-.31-.73-.2-.2-.46-.31-.73-.31-.28,0-.54.11-.74.31-.4.4-.4,1.06,0,1.46.41.4,1.06.4,1.47,0h0Zm4.99-4.99c.2-.2.3-.46.3-.74,0-.28-.11-.53-.31-.73-.19-.2-.45-.3-.72-.31-.28,0-.55.11-.74.31-.4.4-.4,1.06,0,1.47.2.2.46.3.73.3.28,0,.54-.1.73-.3h0Zm4.98-6.46c-.4-.4-1.06-.41-1.47,0-.4.41-.4,1.06,0,1.47.4.4,1.06.4,1.47,0,.4-.4.4-1.06,0-1.47Zm-3.3,12.2c0-.28-.11-.54-.31-.73-.4-.41-1.06-.41-1.47,0-.41.4-.4,1.06,0,1.47.2.2.46.31.73.31.27,0,.54-.11.74-.31.19-.2.3-.46.3-.73Zm4.99-4.99c0-.28-.11-.54-.31-.73-.4-.41-1.06-.4-1.47,0-.19.2-.3.46-.3.73,0,.28.11.54.3.73.4.4,1.06.4,1.47,0,.2-.2.3-.46.3-.74Zm-3.55,11.41c0-.28-.11-.54-.3-.73-.41-.4-1.07-.4-1.47,0-.4.41-.4,1.07,0,1.47.4.4,1.07.4,1.47,0,.2-.2.31-.46.3-.74Zm4.68-4.25c.2-.19.3-.46.3-.74s-.11-.54-.3-.73c-.19-.19-.45-.3-.73-.3-.28,0-.54.11-.74.3-.4.41-.4,1.07,0,1.47.41.4,1.06.4,1.46,0h0Zm4.99-4.99c.2-.2.3-.46.3-.74s-.11-.54-.3-.73c-.19-.2-.45-.3-.73-.3-.28,0-.54.11-.74.3-.2.2-.31.46-.31.74s.11.54.31.74c.4.4,1.06.4,1.47,0h0Zm-29.35-5.87l11.65-11.65c1.03-1.02,2.74-.97,3.84.13l14.06,14.06c.53.53.84,1.23.86,1.95.03.72-.24,1.4-.73,1.89l-11.65,11.65-18.03-18.03Z"/>
    <path class="cls-2" d="m32.66,57.21c.4-.4.4-1.06,0-1.47-.41-.4-1.07-.4-1.47,0-.2.2-.3.46-.3.74,0,.28.11.53.3.73.4.4,1.07.4,1.47,0Zm-4.99,4.99c.2-.2.31-.46.31-.74s-.11-.54-.3-.73c-.41-.41-1.06-.4-1.47,0-.2.2-.3.46-.3.73,0,.28.1.54.3.73.19.2.46.3.73.31.28,0,.54-.11.73-.3h0Zm-4.99,4.99c.4-.4.4-1.06,0-1.47-.19-.2-.45-.3-.73-.31-.28,0-.54.11-.74.31-.4.41-.4,1.06,0,1.47.2.2.45.3.73.3s.54-.11.73-.3Zm11.41-3.55c.2-.2.31-.46.31-.74s-.11-.54-.3-.73c-.41-.41-1.07-.41-1.47,0-.4.4-.4,1.06,0,1.47.41.41,1.06.41,1.47,0Zm-4.99,4.99c.2-.2.31-.46.31-.74,0-.28-.11-.53-.3-.73-.2-.2-.46-.31-.74-.31-.28,0-.54.11-.74.31-.41.4-.4,1.06,0,1.47.41.4,1.06.4,1.47,0Zm11.42-3.55c.4-.41.4-1.06,0-1.47-.4-.41-1.06-.41-1.46,0-.2.2-.31.46-.31.74,0,.28.11.54.31.73.19.2.45.31.73.31.28,0,.54-.11.74-.31h0Zm-4.99,4.98c.2-.2.3-.45.3-.73,0-.28-.11-.54-.3-.73-.4-.4-1.06-.41-1.47,0-.2.2-.31.46-.31.75,0,.27.11.53.31.72.19.2.45.31.73.31.28,0,.54-.11.74-.3h0Zm-4.99,4.99c.4-.41.4-1.07,0-1.47-.4-.4-1.06-.4-1.47,0-.41.41-.4,1.06,0,1.47.41.4,1.06.41,1.47,0Zm11.46-3.6c.2-.2.31-.46.31-.74,0-.28-.11-.54-.31-.73-.41-.4-1.06-.41-1.47,0-.4.41-.4,1.06,0,1.47.19.2.46.31.73.31.28,0,.54-.11.73-.3Zm-4.99,4.99c.4-.4.4-1.07,0-1.47-.19-.2-.45-.31-.73-.3-.28,0-.54.11-.73.3-.41.41-.41,1.07,0,1.47.19.2.45.3.73.31.28,0,.54-.11.74-.3Zm11.41-3.55c.4-.4.4-1.06,0-1.47-.41-.41-1.07-.4-1.47,0-.4.4-.4,1.07,0,1.47.2.2.46.3.73.3.28,0,.54-.11.74-.3Zm-4.99,4.99c.4-.4.4-1.06,0-1.46-.4-.4-1.06-.41-1.47,0-.2.2-.3.46-.3.74,0,.27.11.53.3.73.2.2.46.31.73.31.28,0,.54-.11.74-.3h0Zm-4.99,4.99c.41-.4.41-1.06,0-1.47-.2-.2-.46-.31-.74-.31s-.54.11-.74.31c-.2.2-.3.46-.3.74,0,.28.1.54.3.73.19.2.45.3.73.3.28,0,.54-.11.74-.3h0Zm12.16-11.32l-11.65,11.65c-.49.49-1.17.76-1.89.73-.72-.02-1.42-.33-1.95-.86l-14.06-14.06c-1.1-1.1-1.15-2.81-.13-3.84l11.65-11.65,18.03,18.03Z"/>
  </g>
</svg>