<?xml version="1.0" encoding="UTF-8"?>
<svg id="Layer_1" data-name="Layer 1" xmlns="http://www.w3.org/2000/svg" viewBox="0 0 108.42 112.63">
  <defs>
    <style>
      .cls-1 {
        fill: #fff;
      }

      .cls-2 {
        fill: #2f444d;
      }

      .cls-3 {
        fill: #4a626c;
      }
    </style>
  </defs>
  <rect class="cls-3" x="7.16" y="9.26" width="94.1" height="94.1" rx="12.55" ry="12.55"/>
  <path class="cls-2" d="m101.26,90.82v-28.24c-.26-.26-29.35-29.36-29.53-29.53-.47-.51-.95-.83-1.36-1.03-.01-.01-3.06-3.06-3.11-3.1-.35-.37-.75-.7-1.21-.97-1.26-.76-2.96-.86-4.25-.8-.28-.2-5.49-5.72-5.9-5.72h-3.4c-.24,0-.43.16-.43.36v3.3c0,.25.96.98.96.98h-.53c-.24,0-.43.16-.43.36v3.19c0,.2.3.4.3.4l1.22,1.22-1.42-.02-3.67-3.87s-3.81-.82-6.15.58c-1.99,1.19-3.1,3.45-1.79,5.2l-1.41-1.47s-2.24.15-3.57,3.07c-.8,1.74-.47,3.45.85,4.73.06.07,6.54,6.54,6.54,6.54h-.35s-7.36-7.37-7.82-7.73c0,0-2.67.43-3.56,3.35-.38,1.25.07,2.44,1.11,3.48.11.12,2.56,2.56,2.67,2.67l-.78.51s-1.32-1.65-3.68-3.22c0,0-2.11,1.73-2,4.99.05,1.41.71,2.87,2.02,4.06.09.09,2.92,2.92,2.92,2.92l-1.01.6s-2.12-2.4-4.2-3.89c0,0-1.54,1.72-1.16,4.64.13,1.04.73,2.15,1.71,3.13.02.02,3.02,3.02,3.06,3.06l-.51.44c-.98-.9.17,0-3.55-3.39,0,0-1.06.52-1.81,2.65-.75,2.13.26,3.4.26,3.4,0,0-.99.86-1.04,3.22-.04,2,.64,2.65.85,2.8.02.03.04.04.06.06-.06.09-.59.89-.74,2.41-.17,1.69.92,2.95.92,2.95,0,0-.81,1.03-.92,3.05-.08,1.34.42,3.87,2.4,5.8.07.07,15.33,15.33,15.4,15.4h45.48c6.93,0,12.55-5.62,12.55-12.55Z"/>
  <g>
    <path class="cls-1" d="m61.61,33.46v1.73s4.12.16,5.95-1.73c1.73-1.78.61-4.26-1.51-5.53-2.33-1.4-6.15-.58-6.15-.58v1.38s4.6-.64,6.04,1.55c1.44,2.19-.66,2.99-4.34,3.17Z"/>
    <path class="cls-1" d="m57.89,39.16s8.25,1.97,11.83-.29c3.83-2.42-.84-5.32-.84-5.32l.37-1.89s2.24.15,3.58,3.07c1.34,2.92-.46,5.79-4.89,6.59-4.23.77-10.05-.2-10.05-.2v-1.96Z"/>
    <path class="cls-1" d="m57.89,45.18s10.74,2.27,15.37-.72c4-2.58-.54-4.26-.54-4.26l.89-1.93s2.67.43,3.56,3.35c.94,3.07-3.1,5.85-8.82,6.61-5,.66-10.46-.66-10.46-.66v-2.38Z"/>
    <path class="cls-1" d="m57.89,51.71s6.64,3.2,12.86,2.67c6.22-.54,7-4.17,6.56-5.57-.51-1.64-1.46-2.23-1.46-2.23l2-1.53s2.11,1.73,2,4.99c-.11,3.22-3.38,6.68-10.44,6.68s-11.51-2.84-11.51-2.84v-2.17Z"/>
    <path class="cls-1" d="m57.89,56.72s6.83,5.04,13.35,5.21c6.06.15,7.8-2.64,7.84-4.71.02-1.34-.73-2.03-.73-2.03l1.77-1.46s1.54,1.72,1.16,4.64c-.39,3.07-4.73,6.79-11.63,5.89-6.4-.84-11.75-4.94-11.75-4.94v-2.6Z"/>
    <polygon class="cls-1" points="74.24 42.56 73.04 43.6 69.93 41.87 71.77 40.66 74.24 42.56"/>
    <polygon class="cls-1" points="73.27 47.68 71.13 48.78 75.57 51.31 76.78 49.99 73.27 47.68"/>
    <path class="cls-1" d="m80.58,61.62s1.06.52,1.81,2.65c.75,2.13-.26,3.4-.26,3.4,0,0,.99.86,1.04,3.22.05,2.36-.92,2.85-.92,2.85,0,0,.59.82.75,2.43.17,1.69-.92,2.95-.92,2.95,0,0,.81,1.03.92,3.05.11,1.9-.92,6.16-5.68,7.77-4.76,1.61-8.48-2.36-11.13-6.39-2.65-4.03-9.84-18.48-9.84-18.48l1.55-3.05s10.25,7.51,17.5,7.51,3.22-6.13,3.22-6.13l1.96-1.78Zm-22.68,2.78l-.73,1.07s3.95,6.45,5.27,5.53c1.32-.92-4.55-6.6-4.55-6.6Zm9.71,9.02c-.77,1,2.74,4.24,7.04,3.86,4.2-.37,6.29-3.99,6.66-5.39.36-1.4-.26-2.76-1.45-2.09-1.17.65-1.37,2.88-4.94,3.17-3.57.29-6.51-.58-7.31.46Zm7.52,10.74c5.03-.27,6.22-6.91,5.87-7.18-.35-.27-1.57,1.57-3.72,2.99-2.15,1.42-7.05-.53-7.52.38-.46.88.34,4.07,5.37,3.8Zm-.19,4.51c5.09,0,5.76-5.47,5.76-5.47,0,0-1.53,2.46-5.23,3.07-3.83.63-5.99-1.61-6.24-1.07-.38.81,1.98,3.48,5.72,3.47Zm-9.67-8.81c1.06,1.64,2.24-.11,1.35-1.41-.66-.97-3.48-4.12-3.8-3.86-.37.32,1.38,3.63,2.45,5.27Z"/>
    <polygon class="cls-1" points="78.97 66.66 76.32 64.4 74.78 64.82 77.85 68.04 78.97 66.66"/>
    <polygon class="cls-1" points="77.78 58.72 74.4 56.72 72.82 57.49 76.2 60.18 77.78 58.72"/>
    <polygon class="cls-1" points="69.62 53.73 71.52 53.31 64.76 49.05 61.46 48.82 69.62 53.73"/>
    <polygon class="cls-1" points="69.62 53.73 71.52 53.31 64.76 49.05 61.46 48.82 69.62 53.73"/>
    <path class="cls-1" d="m58.34,32.84c-.64-.37-.98-1.56-.98-1.56h-6.3s-.34,1.2-.98,1.56c-1.25.71-2.61.57-2.61.57v1.96s1.96.17,3.08,1.09c1.12.92,1.13,1.73,1.13,1.73h5.07s.01-.8,1.13-1.73c1.12-.92,3.07-1.09,3.07-1.09v-1.96s-1.35.14-2.6-.57Z"/>
    <path class="cls-1" d="m57.15,39.16h-5.87s-.15,22.38.29,23.37c.75,1.73,2.65,1.73,2.65,1.73,0,0,1.9,0,2.65-1.73.43-1,.29-23.37.29-23.37Z"/>
    <path class="cls-1" d="m46.81,33.46v1.73s-4.12.16-5.95-1.73c-1.73-1.78-.6-4.26,1.51-5.53,2.33-1.4,6.15-.58,6.15-.58v1.38s-4.6-.64-6.04,1.55c-1.44,2.19.66,2.99,4.34,3.17Z"/>
    <path class="cls-1" d="m50.53,39.16s-8.25,1.97-11.83-.29c-3.83-2.42.83-5.32.83-5.32l-.37-1.89s-2.24.15-3.57,3.07c-1.34,2.92.46,5.79,4.89,6.59,4.23.77,10.05-.2,10.05-.2v-1.96Z"/>
    <path class="cls-1" d="m50.53,45.18s-10.74,2.27-15.37-.72c-4-2.58.54-4.26.54-4.26l-.89-1.93s-2.67.43-3.56,3.35c-.94,3.07,3.1,5.85,8.82,6.61,5,.66,10.46-.66,10.46-.66v-2.38Z"/>
    <path class="cls-1" d="m50.53,51.71s-6.64,3.2-12.86,2.67c-6.22-.54-7-4.17-6.56-5.57.51-1.64,1.46-2.23,1.46-2.23l-2-1.53s-2.11,1.73-2,4.99c.11,3.22,3.38,6.68,10.44,6.68s11.51-2.84,11.51-2.84v-2.17Z"/>
    <path class="cls-1" d="m50.53,56.72s-6.83,5.04-13.35,5.21c-6.06.15-7.8-2.64-7.84-4.71-.02-1.34.73-2.03.73-2.03l-1.76-1.46s-1.54,1.72-1.16,4.64c.39,3.07,4.73,6.79,11.63,5.89,6.4-.84,11.75-4.94,11.75-4.94v-2.6Z"/>
    <polygon class="cls-1" points="34.18 42.56 35.39 43.6 38.49 41.87 36.65 40.66 34.18 42.56"/>
    <polygon class="cls-1" points="35.15 47.68 37.29 48.78 32.85 51.31 31.64 49.99 35.15 47.68"/>
    <path class="cls-1" d="m29.8,63.4s-4.03,6.13,3.22,6.13,17.5-7.51,17.5-7.51l1.55,3.05s-7.2,14.45-9.84,18.48c-2.65,4.03-6.37,8-11.13,6.39-4.76-1.61-5.79-5.87-5.68-7.77.12-2.02.92-3.05.92-3.05,0,0-1.09-1.27-.92-2.95.16-1.61.75-2.43.75-2.43,0,0-.97-.49-.92-2.85.05-2.36,1.04-3.22,1.04-3.22,0,0-1.01-1.27-.26-3.4.75-2.13,1.81-2.65,1.81-2.65l1.96,1.78Zm16.17,7.6c1.32.92,5.27-5.53,5.27-5.53l-.73-1.07s-5.87,5.68-4.55,6.6Zm-12.47,1.96c-3.57-.29-3.77-2.51-4.94-3.17-1.19-.67-1.82.69-1.45,2.09.37,1.4,2.46,5.02,6.66,5.39,4.3.38,7.81-2.86,7.04-3.86-.8-1.03-3.74-.17-7.31-.46Zm5.16,7.4c-.48-.92-5.37,1.04-7.52-.38-2.15-1.42-3.38-3.26-3.72-2.99-.34.27.84,6.91,5.87,7.18,5.03.27,5.83-2.92,5.37-3.8Zm.54,4.83c-.26-.54-2.42,1.71-6.24,1.07-3.7-.61-5.23-3.07-5.23-3.07,0,0,.67,5.46,5.76,5.47,3.74,0,6.1-2.67,5.72-3.47Zm6.4-10.6c-.32-.27-3.14,2.89-3.8,3.86-.88,1.29.29,3.05,1.35,1.41,1.07-1.64,2.82-4.95,2.45-5.27Z"/>
    <polygon class="cls-1" points="29.46 66.66 32.1 64.4 33.64 64.82 30.57 68.04 29.46 66.66"/>
    <polygon class="cls-1" points="30.65 58.72 34.02 56.72 35.6 57.49 32.22 60.18 30.65 58.72"/>
    <polygon class="cls-1" points="38.81 53.73 36.9 53.31 43.66 49.05 46.96 48.82 38.81 53.73"/>
    <polygon class="cls-1" points="38.81 53.73 36.9 53.31 43.66 49.05 46.96 48.82 38.81 53.73"/>
    <path class="cls-1" d="m56.34,67.46c-.26-.72-.72-1.75-2.13-1.75s-1.87,1.03-2.13,1.75c-.26.72-.63,3.03,0,3.57.63.54,2.13.36,2.13.36,0,0,1.5.18,2.13-.36.63-.54.26-2.85,0-3.57Z"/>
    <path class="cls-1" d="m56.08,72.21h-3.74c-.26,0-.47.22-.47.48v4.08c0,.43.34.77.77.77h3.15c.43,0,.77-.34.77-.77v-4.08c0-.26-.21-.48-.48-.48Z"/>
    <path class="cls-1" d="m55.91,26.07h-3.4c-.24,0-.43.16-.43.36v3.12c0,.33.31.59.7.59h2.86c.39,0,.7-.26.7-.59v-3.12c0-.2-.19-.36-.43-.36Z"/>
    <path class="cls-1" d="m55.91,21.42h-3.4c-.24,0-.43.16-.43.36v3.12c0,.33.31.59.7.59h2.86c.39,0,.7-.26.7-.59v-3.12c0-.2-.19-.36-.43-.36Z"/>
    <path class="cls-1" d="m56.08,79.06h-3.74c-.26,0-.47.21-.47.47v4.07c0,.43.34.77.77.77h3.15c.43,0,.77-.34.77-.77v-4.07c0-.26-.21-.47-.48-.47Z"/>
    <path class="cls-1" d="m56.55,86.36c0-.26-.21-.47-.48-.47h-3.74c-.26,0-.47.21-.47.47v4.08c0,.42.34.77.77.77h3.15c.43,0,.77-.35.77-.77v-4.08Z"/>
  </g>
</svg>