<?xml version="1.0" encoding="UTF-8"?>
<svg id="Layer_1" data-name="Layer 1" xmlns="http://www.w3.org/2000/svg" viewBox="0 0 104.51 102.13">
  <rect x="5.2" y="4.01" width="94.1" height="94.1" rx="12.55" ry="12.55" fill="#4a626c"/>
  <path d="m86.76,98.12c6.93,0,12.55-5.62,12.55-12.55v-36.97s-.04-.05-.07-.07c-.09-.09-25.61-25.61-25.7-25.7-6.13-6.53-16.22-3.3-16.22-3.3-3.76.9-6.03,2.92-6.28,5.1,0,0-2.41,2.75-1.85,3.81-.83,2.41-2.23,1.4-3.23,1.77-.64.16-1.25,1.13-.93,1.8l3.37,3.25h-21.57c.62.39,16.94,17.01,17.32,17.25-2.31,1.13-4.04,2.65-4.9,5.08-1.24,3.3-.07,5.8,2.06,7.75.02.02,6.55,6.55,6.56,6.56,0,0,0,0,0,0l.12,4.68s.73.49.73.58c-1.73.32-3.62.41-5.07.52l2.75,2.55-10.1,3.16,15.71,14.68s34.55.04,34.74.04Z" fill="#2f444d"/>
  <g>
    <path d="m50.73,48.1l20.41-12.84H26.82l20.41,12.84.07,2.45c1.07-.34,2.2-.65,3.39-.97l.04-1.47Z" fill="#fff"/>
    <path d="m48.07,79.71l-11.77,3.68h25.34l-11.77-3.68.02-.78c-.58.08-1.2.12-1.85.13l.02.65Z" fill="#fff"/>
    <path d="m50.88,68.09l-.07,2.46c1.74.92,2.76,1.9,2.49,3.58-.55,3.14-6.29,3.31-9.65,3.55,3.04,1.16,10.43,1.34,11.41-3.37.63-3.02-1.35-4.67-4.18-6.22Z" fill="#fff"/>
    <path d="m47.41,54.87l.58,21.72c.7-.1,1.38-.24,1.99-.42l.6-22.32c-1.14.31-2.21.64-3.16,1.02Z" fill="#fff"/>
    <path d="m46.71,54.42c3.99-1.71,37.89-6.47,29.71-26.96-4.98-12.44-19.1-7.93-19.1-7.93-3.76.9-6.03,2.92-6.28,5.1,0,0-2.41,2.75-1.85,3.81-.83,2.41-2.23,1.4-3.23,1.77-.64.16-1.27,1.19-.93,1.8-.06-.73.75-1.48,1.07-1.43.76-.21,2.53.91,3.68-1.79,2.08.32,8.16-1.68,8.96-5.11,13.58-5.18,22.57,13.51,6.47,21.52-4.83,2.56-9.66,3.79-13.85,4.91-5.83,1.55-10.5,2.93-12.12,7.49-2.17,5.76,3.01,9.12,7.86,11.26l-.07-2.77c-2.45-1.3-6.55-3.56-5.03-7.36.79-2.06,2.48-3.35,4.72-4.31Z" fill="#fff"/>
  </g>
</svg>