<?xml version="1.0" encoding="UTF-8"?>
<svg id="Layer_1" data-name="Layer 1" xmlns="http://www.w3.org/2000/svg" viewBox="0 0 791 180">
  <defs>
    <style>
      .cls-1 {
        fill: #6f61c0;
      }

      .cls-2 {
        fill: #37517e;
        font-family: Impact, Impact;
        font-size: 116px;
      }
    </style>
  </defs>
  <path class="cls-1" d="m194.1,95.2v13.2h-28.5l-14.8,28.2c-1.4,2.5-3.8,3.9-6.6,3.6-2.7,0-4.9-1.9-5.8-4.4l-11.2-32.6-9.9,23.8c-1.4,2.5-4.1,4.1-7.1,4.1-2.7-.5-5.2-2.7-5.8-5.8l-9.3-57.6-11.2,87.7c-.3,3.3-3,5.8-6.3,5.8h-.3c-3,0-5.8-2.5-6.6-5.5l-12.9-67.6-8,16.7c-1.1,2.2-3.6,3.6-6,3.6h-27.6v-13.2h23.3l15.1-31.2c1.4-2.7,4.1-4.1,6.9-3.8,3,.5,5.2,2.5,5.8,5.5l9,47.7,11.5-89.1c.3-3.3,3-5.5,6.3-5.5,3.3-.3,6,2.2,6.9,5.5l12.6,76.8,8.2-19.2c1.1-2.5,3.6-4.4,6.3-4.1,3,0,5.2,1.9,6.3,4.4l11.8,34.8,9.6-18.1c1.1-2.2,3.3-3.6,5.8-3.6h32.5v-.1Z"/>
  <text class="cls-2" transform="translate(206.83 141.5)"><tspan x="0" y="0">NURSE VIEW</tspan></text>
</svg>