<?xml version="1.0" encoding="UTF-8"?>
<svg xmlns="http://www.w3.org/2000/svg" xmlns:xlink="http://www.w3.org/1999/xlink" viewBox="0 0 252.38 179.78">
  <defs>
    <linearGradient id="linear-gradient" x1="130.45" y1="47.91" x2="69.73" y2="181.84" gradientUnits="userSpaceOnUse">
      <stop offset="0" stop-color="#ff002b"/>
      <stop offset=".12" stop-color="#ff3a5b"/>
      <stop offset=".25" stop-color="#ff6e86"/>
      <stop offset=".37" stop-color="#ff9aab"/>
      <stop offset=".5" stop-color="#ffbec9"/>
      <stop offset=".62" stop-color="#ffdae1"/>
      <stop offset=".75" stop-color="#ffeff1"/>
      <stop offset=".87" stop-color="#fffbfb"/>
      <stop offset="1" stop-color="#fff"/>
    </linearGradient>
    <linearGradient id="linear-gradient-2" x1="193.94" y1="83.04" x2="139.72" y2="175.93" gradientUnits="userSpaceOnUse">
      <stop offset="0" stop-color="#478aff"/>
      <stop offset=".12" stop-color="#6fa3ff"/>
      <stop offset=".26" stop-color="#9abfff"/>
      <stop offset=".41" stop-color="#bed6ff"/>
      <stop offset=".56" stop-color="#dbe8ff"/>
      <stop offset=".7" stop-color="#eff4ff"/>
      <stop offset=".85" stop-color="#fbfcff"/>
      <stop offset="1" stop-color="#fff"/>
    </linearGradient>
  </defs>
  <g fill="none" isolation="isolate">
    <g id="Layer_1" data-name="Layer 1">
      <path d="m231.83,32.82c.31-2.69-.34-4.61-1.73-5.95-5.09-4.9-20.08-2-33.9-.26C60.94,43.72,30.96,45.19,23.57,54.6c-.08.1-.16.2-.23.3l-14.06,19.45c-1.82,2.52-2.13,5.62-2.45,9.73v45.28c0,6.98,5.66,12.64,12.64,12.64,0,0,5.46-.12,14.39-.31l8.11,13.94,11.07-14.34c44.61-.93,119.2-2.45,131.07-2.45,2.68,0,5.26-1.67,7.7-4.56l15.9-18.85c.19-.22.38-.46.57-.7,12.48-15.88,21.37-63.11,23.57-81.93Z" fill="url(#linear-gradient)" mix-blend-mode="multiply"/>
      <path d="m196.2,26.62C23.52,48.46,22.44,44.81,20.86,64.73v45.74c0,7.05,5.72,12.77,12.76,12.77,0,0,5.52-.12,14.53-.31l8.19,14.08,9.35-14.44c44.81-.94,122.07-2.51,134.22-2.51,16.77,0,29.25-64.45,31.91-87.23,1.46-12.52-18.03-8.43-35.63-6.21Z" fill="#fff"/>
      <path d="m196.2,26.62C23.52,48.46,22.44,44.81,20.86,64.73v45.74c0,7.05,5.72,12.77,12.76,12.77,0,0,5.52-.12,14.53-.31l8.19,14.08,9.35-14.44c44.81-.94,122.07-2.51,134.22-2.51,16.77,0,29.25-64.45,31.91-87.23,1.46-12.52-18.03-8.43-35.63-6.21Z" fill="#ff002b"/>
      <g fill="none" mix-blend-mode="multiply">
        <path d="m231.62,115.15c-.19-2.38-.37-4.17-1.42-5.49-4.04-5.09-20.97-3.34-100.96-1.63-7.89.17-16.43-.21-19.59,2.86-.04.03-.07.07-.1.1l-12.82,13.28c-.88.91-1.29,2.11-1.1,3.7,1.54,12.94,8.75,49.13,18.45,47.7,7.03-1.04,51.68-6.73,77.59-10.01l5.41,7.55,10.32-9.54c1.81-.23,2.81-.36,2.81-.36,1.7-.25,3.26-1.06,4.51-2.21l14.01-12.91c.06-.06.12-.11.18-.17,1.66-1.61,2.72-3.84,2.72-6.16v-26.71Z" fill="url(#linear-gradient-2)" mix-blend-mode="multiply"/>
        <path d="m129.24,108.02c100.83-2.15,101.46-4.37,102.38,7.13v26.71c0,4.12-3.34,7.95-7.45,8.55,0,0-3.22.41-8.49,1.07l-4.78,8.93-5.46-7.63c-26.17,3.32-71.28,9.06-78.37,10.11-9.79,1.45-17.08-35.11-18.63-48.18-.85-7.18,10.53-6.48,20.81-6.7Z" fill="#478aff"/>
      </g>
      <g>
        <path d="m150.18,124.07l-6.53.39v26.01l-9.63.57v-26.01l-6.92.41.56-8.39,23.08-1.37-.56,8.39Z" fill="#fff"/>
        <path d="m163.07,149.31l-9.57.57v-34.37l9.57-.57v34.37Z" fill="#fff"/>
        <path d="m180.63,137.03l-2.59.15v11.24l-9.46.56v-34.37l11.43-.68c4.02-.24,7,.49,8.95,2.18,1.95,1.69,2.93,4.6,2.93,8.74s-.92,7.14-2.76,9.02c-1.84,1.88-4.67,2.94-8.5,3.16Zm1.07-7.54c.34-.65.51-1.78.51-3.41s-.19-2.76-.56-3.4c-.38-.64-1.13-.93-2.25-.86l-1.35.08v8.75l1.58-.09c1.05-.06,1.75-.42,2.08-1.06Z" fill="#fff"/>
        <path d="m196.06,115.41c1.95-2.11,4.62-3.26,8.02-3.47,3.4-.2,6.88-.08,10.44.37l-1.12,8.92c-3.72-.63-6.27-.9-7.66-.82-1.76.1-2.65.86-2.65,2.26,0,.55.42,1.06,1.27,1.53.84.47,1.87.95,3.07,1.45,1.2.5,2.4,1.11,3.6,1.83,1.2.72,2.22,1.8,3.07,3.22.84,1.43,1.27,3.1,1.27,5.02,0,3.51-.96,6.27-2.87,8.31-1.91,2.03-4.63,3.15-8.13,3.36-3.51.21-6.93-.12-10.27-.99l.62-8.28c4.01.91,6.81,1.31,8.39,1.22,1.58-.09,2.36-.82,2.36-2.19,0-.7-.42-1.32-1.27-1.86-.84-.54-1.87-1.07-3.07-1.59-1.2-.52-2.41-1.13-3.63-1.83-1.22-.7-2.25-1.77-3.1-3.19-.84-1.42-1.27-3.15-1.27-5.18,0-3.28.97-5.98,2.93-8.09Z" fill="#fff"/>
      </g>
      <path d="m154.45,22.95c9.3-2.49,18.72-4.45,28.18-6.14,4.73-.87,9.48-1.58,14.25-2.28,4.76-.68,9.56-1.19,14.36-1.7,4.82-.36,9.64-.74,14.53-.71,2.46.02,4.99.19,7.5.71,1.26.24,2.51.63,3.74,1.11,1.22.53,2.41,1.2,3.49,2.06,2.15,1.76,3.57,4.36,4.02,6.93.49,2.58.37,5.09.1,7.53-.64,4.87-1.85,9.49-2.92,14.19.19-4.81.89-9.61.96-14.32.04-2.34-.08-4.68-.69-6.79-.59-2.11-1.73-3.88-3.39-5.07-1.68-1.17-3.77-1.84-5.97-2.2-2.21-.36-4.5-.43-6.83-.36-4.7.08-9.45.48-14.19.9-4.75.42-9.5.92-14.25,1.46-4.76.47-9.5,1.1-14.27,1.61-9.52,1.1-19.04,2.2-28.63,3.06Z" fill="#ff002b"/>
      <path d="m106.35,148.94c2.5,4.23,4.75,8.54,7.18,12.65,1.21,2.02,2.47,4.15,3.85,5.52.71.66,1.5,1.14,2.39,1.51.93.32,1.94.58,3.04.7,2.18.28,4.53.26,6.9.17,2.36-.06,4.76-.24,7.17-.38,4.82-.29,9.67-.64,14.6-.6-4.65,1.61-9.39,2.79-14.21,3.72-2.41.45-4.84.82-7.32,1.04-2.48.23-5,.33-7.64,0-1.31-.16-2.68-.49-4.02-1.01-1.33-.6-2.61-1.45-3.61-2.52-.95-1.08-1.71-2.25-2.29-3.35-.61-1.12-1.14-2.25-1.64-3.38-1.94-4.56-3.44-9.23-4.39-14.07Z" fill="#478aff"/>
      <g>
        <path d="m79.85,85.06c0,5.87-.14,10.05-.41,12.52-.27,2.47-1.13,4.8-2.56,6.97-1.44,2.17-3.37,3.92-5.82,5.25-2.44,1.33-5.29,2.16-8.54,2.5s-5.85.1-8.31-.66c-2.45-.76-4.43-2.06-5.92-3.92-1.49-1.86-2.38-3.95-2.67-6.29-.28-2.34-.43-6.47-.43-12.39v-9.84c0-5.78.14-9.89.41-12.33.27-2.44,1.13-4.75,2.56-6.92,1.43-2.18,3.37-3.96,5.82-5.35,2.44-1.39,5.29-2.3,8.54-2.73,3.08-.41,5.85-.26,8.31.44,2.45.7,4.43,1.97,5.92,3.82,1.49,1.85,2.38,3.97,2.67,6.34.28,2.37.43,6.57.43,12.59v10Zm-14.98-17.36c0-2.7-.15-4.41-.44-5.13-.3-.72-.91-1.01-1.83-.9-.78.1-1.38.48-1.8,1.14-.42.66-.62,2.48-.62,5.46v27.05c0,3.36.14,5.42.41,6.18.27.76.91,1.08,1.9.98s1.67-.63,1.96-1.57c.28-.94.43-3.12.43-6.54v-26.68Z" fill="#fff"/>
        <path d="m118.88,45.72v59.54l-13.13,1.36-7.79-26v26.81l-12.52,1.3v-58.62l12.52-1.64,8.4,25.56v-26.65l12.52-1.64Z" fill="#fff"/>
        <path d="m159.86,66.77l-14.98,1.78v-10.47c0-3.04-.16-4.92-.48-5.64-.32-.71-1.03-1-2.12-.86-1.23.16-2.02.71-2.35,1.67-.33.96-.5,2.96-.5,6v27.92c0,2.92.17,4.81.5,5.66.33.86,1.08,1.22,2.24,1.1s1.84-.65,2.19-1.58c.34-.93.52-3.05.52-6.36v-7.57l14.98-1.71v2.36c0,6.28-.42,10.78-1.26,13.49-.84,2.71-2.7,5.21-5.58,7.48-2.88,2.27-6.43,3.62-10.65,4.05s-8,0-10.85-1.36c-2.85-1.35-4.73-3.44-5.66-6.26-.93-2.81-1.39-7.15-1.39-13v-17.44c0-4.3.14-7.54.43-9.73.28-2.19,1.13-4.37,2.54-6.54,1.41-2.18,3.37-4,5.87-5.47,2.5-1.48,5.38-2.43,8.63-2.86,4.41-.58,8.05-.16,10.92,1.25,2.87,1.42,4.75,3.41,5.66,5.98.9,2.57,1.35,6.68,1.35,12.34v5.76Z" fill="#fff"/>
        <path d="m199.45,71.33c0,6.2-.14,10.61-.41,13.22-.27,2.61-1.13,5.06-2.56,7.34-1.43,2.28-3.37,4.12-5.82,5.52-2.44,1.39-5.29,2.25-8.54,2.59s-5.85.07-8.31-.75c-2.46-.81-4.43-2.21-5.92-4.18-1.49-1.97-2.38-4.19-2.67-6.67-.29-2.47-.43-6.84-.43-13.1v-10.4c0-6.11.14-10.45.41-13.03.27-2.58,1.13-5.01,2.56-7.3,1.43-2.29,3.37-4.16,5.82-5.61,2.44-1.45,5.29-2.39,8.54-2.82s5.85-.23,8.31.52c2.45.76,4.43,2.12,5.92,4.08,1.49,1.97,2.38,4.21,2.67,6.71.28,2.51.43,6.94.43,13.3v10.57Zm-14.98-18.44c0-2.85-.15-4.66-.45-5.42-.3-.76-.91-1.08-1.83-.96-.78.1-1.38.5-1.8,1.19-.42.69-.62,2.62-.62,5.77v28.58c0,3.55.14,5.73.41,6.53.27.8.91,1.15,1.9,1.04s1.67-.66,1.96-1.65c.29-.99.43-3.29.43-6.9v-28.19Z" fill="#fff"/>
      </g>
    </g>
  </g>
</svg>