<?xml version="1.0" encoding="utf-8"?>
<!-- Generator: Adobe Illustrator 27.2.0, SVG Export Plug-In . SVG Version: 6.00 Build 0)  -->
<svg version="1.1" xmlns="http://www.w3.org/2000/svg" xmlns:xlink="http://www.w3.org/1999/xlink" x="0px" y="0px"
	 viewBox="0 0 853 180" style="enable-background:new 0 0 853 180;" xml:space="preserve">
<style type="text/css">
	.st0{fill:#6F61C0;}
	.st1{fill:#A084E8;}
	.st2{fill:#8BE8E5;}
	.st3{fill:#37517E;}
</style>
<g id="_x33_5">
	<g>
		<path class="st0" d="M194.1,95.2v13.2h-28.5l-14.8,28.2c-1.4,2.5-3.8,3.9-6.6,3.6c-2.7,0-4.9-1.9-5.8-4.4l-11.2-32.6l-9.9,23.8
			c-1.4,2.5-4.1,4.1-7.1,4.1c-2.7-0.5-5.2-2.7-5.8-5.8l-9.3-57.6l-11.2,87.7c-0.3,3.3-3,5.8-6.3,5.8c0,0,0,0-0.3,0
			c-3,0-5.8-2.5-6.6-5.5L57.8,88.1l-8,16.7c-1.1,2.2-3.6,3.6-6,3.6H16.2V95.2h23.3L54.6,64c1.4-2.7,4.1-4.1,6.9-3.8
			c3,0.5,5.2,2.5,5.8,5.5l9,47.7l11.5-89.1c0.3-3.3,3-5.5,6.3-5.5c3.3-0.3,6,2.2,6.9,5.5l12.6,76.8l8.2-19.2
			c1.1-2.5,3.6-4.4,6.3-4.1c3,0,5.2,1.9,6.3,4.4l11.8,34.8l9.6-18.1c1.1-2.2,3.3-3.6,5.8-3.6H194.1z"/>
	</g>
	<g>
		<g>
			<path class="st3" d="M276.2,102.6c0,9-0.2,15.3-0.6,19.1c-0.4,3.7-1.7,7.1-4,10.2s-5.2,5.5-9,7.1c-3.8,1.7-8.2,2.5-13.2,2.5
				c-4.8,0-9.1-0.8-12.9-2.3c-3.8-1.6-6.9-3.9-9.2-7c-2.3-3.1-3.7-6.5-4.1-10.2c-0.4-3.7-0.7-10.1-0.7-19.3V87.4
				c0-9,0.2-15.3,0.6-19.1c0.4-3.7,1.7-7.1,4-10.2c2.2-3.1,5.2-5.5,9-7.1c3.8-1.7,8.2-2.5,13.2-2.5c4.8,0,9.1,0.8,12.9,2.3
				c3.8,1.6,6.9,3.9,9.2,7c2.3,3.1,3.7,6.5,4.1,10.2c0.4,3.7,0.7,10.1,0.7,19.3V102.6z M253,73.3c0-4.2-0.2-6.8-0.7-8
				c-0.5-1.2-1.4-1.7-2.8-1.7c-1.2,0-2.1,0.5-2.8,1.4c-0.6,0.9-1,3.7-1,8.3V115c0,5.2,0.2,8.4,0.6,9.6c0.4,1.2,1.4,1.8,3,1.8
				c1.6,0,2.6-0.7,3-2.1c0.4-1.4,0.7-4.7,0.7-10V73.3z"/>
			<path class="st3" d="M337.7,50.3V110c0,6.8-0.2,11.5-0.7,14.3s-1.7,5.6-3.9,8.4c-2.2,2.9-5,5.1-8.6,6.6
				c-3.5,1.5-7.7,2.2-12.6,2.2c-5.3,0-10-0.9-14.1-2.6c-4.1-1.8-7.1-4.1-9.2-6.9c-2-2.8-3.2-5.8-3.6-9c-0.4-3.1-0.6-9.8-0.6-19.8
				V50.3h23.2v67c0,3.9,0.2,6.4,0.6,7.5c0.4,1.1,1.3,1.6,2.6,1.6c1.5,0,2.4-0.6,2.8-1.8s0.6-4,0.6-8.5V50.3H337.7z"/>
			<path class="st3" d="M393.5,50.3v17.9h-13.8v71.5h-23.2V68.2h-13.7V50.3H393.5z"/>
			<path class="st3" d="M398.8,50.3h23.4c6.3,0,11.2,0.5,14.6,1.5s6,2.4,7.7,4.3c1.7,1.9,2.9,4.1,3.5,6.8c0.6,2.7,0.9,6.8,0.9,12.4
				v7.8c0,5.7-0.6,9.9-1.8,12.5c-1.2,2.6-3.3,4.6-6.5,6c-3.1,1.4-7.3,2.1-12.3,2.1H422v36h-23.2V50.3z M422,65.6v22.7
				c0.7,0,1.2,0.1,1.7,0.1c2.1,0,3.6-0.5,4.4-1.6c0.8-1,1.2-3.2,1.2-6.5V73c0-3.1-0.5-5-1.4-6C427,66.1,425,65.6,422,65.6z"/>
			<path class="st3" d="M495.6,50.3l13.3,89.3h-23.7l-1.2-16.1h-8.3l-1.4,16.1h-24l11.8-89.3H495.6z M483.3,107.8
				c-1.2-10.1-2.4-22.6-3.5-37.5c-2.4,17.1-3.9,29.6-4.5,37.5H483.3z"/>
			<path class="st3" d="M559.7,50.3v17.9h-13.8v71.5h-23.2V68.2h-13.7V50.3H559.7z"/>
			<path class="st3" d="M588.2,50.3v89.3H565V50.3H588.2z"/>
			<path class="st3" d="M597.5,50.3h38.7v17.9h-15.5v16.9h14.5v17h-14.5v19.6h17v17.9h-40.3V50.3z"/>
			<path class="st3" d="M696.3,50.3v89.3H676l-12.1-40.6v40.6h-19.4V50.3h19.4l13,40.2V50.3H696.3z"/>
			<path class="st3" d="M752.4,50.3v17.9h-13.8v71.5h-23.2V68.2h-13.7V50.3H752.4z"/>
		</g>
	</g>
</g>
<g id="Layer_1">
</g>
</svg>
