<?xml version="1.0" encoding="utf-8"?>
<!-- Generator: Adobe Illustrator 27.2.0, SVG Export Plug-In . SVG Version: 6.00 Build 0)  -->
<svg version="1.1" id="Layer_1" xmlns="http://www.w3.org/2000/svg" xmlns:xlink="http://www.w3.org/1999/xlink" x="0px" y="0px"
	 viewBox="0 0 112.2 108.2" style="enable-background:new 0 0 112.2 108.2;" xml:space="preserve">
<style type="text/css">
	.st0{opacity:0.78;fill:#FFFFFF;}
	.st1{fill:#36B3B6;}
	
		.st2{opacity:0.5;clip-path:url(#SVGID_00000079455810640803274690000011687375964750651283_);fill:url(#SVGID_00000117666854281101957360000018329486776667454368_);}
	
		.st3{opacity:0.5;clip-path:url(#SVGID_00000079455810640803274690000011687375964750651283_);fill:url(#SVGID_00000020358017858168936730000010190878043903301784_);}
	.st4{fill:#22608A;}
	.st5{fill:#123A60;}
	.st6{fill:#FFFFFF;}
	.st7{fill:#CDE3E8;}
	.st8{opacity:0.4;fill:url(#SVGID_00000183961084675742540720000007087114402947254426_);}
	.st9{opacity:0.4;fill:url(#SVGID_00000049221889086902984400000000596538623540292016_);}
	.st10{opacity:0.5;fill:url(#SVGID_00000172414526513902553080000005848165706787504026_);}
	.st11{clip-path:url(#SVGID_00000133493287108684311090000000857426559404001181_);}
	.st12{fill:#056F9A;}
	.st13{fill:#AEAEAE;}
	.st14{opacity:0.5;fill:url(#SVGID_00000065764847208881937220000011394057325213407114_);}
	.st15{fill:#BB2025;}
	.st16{fill:#F47C2A;}
	.st17{fill:#DF1F26;}
	
		.st18{opacity:0.5;clip-path:url(#SVGID_00000045581924127472080080000001747141851725256600_);fill:url(#SVGID_00000145042375122688703210000007958026832284228001_);}
	.st19{fill:#A0C3D3;}
	
		.st20{opacity:0.5;clip-path:url(#SVGID_00000122715516008014117970000016218779558724201603_);fill:url(#SVGID_00000133528404531894135840000005220238293679306666_);}
	.st21{opacity:0.5;fill:url(#SVGID_00000070827617503202451200000003227560967070944906_);}
	
		.st22{opacity:0.4;clip-path:url(#SVGID_00000047751304776268088250000007460731721036481726_);fill:url(#SVGID_00000145739896688646164220000016551873474144586671_);}
	
		.st23{opacity:0.4;clip-path:url(#SVGID_00000047751304776268088250000007460731721036481726_);fill:url(#SVGID_00000147211755199490355610000001017518523123677887_);}
	.st24{fill:#F05223;}
	.st25{opacity:0.4;fill:url(#SVGID_00000157301981791465473750000004950172133845627834_);}
	.st26{opacity:0.4;fill:url(#SVGID_00000099637310567142129090000013859363922380524175_);}
	.st27{opacity:0.5;fill:url(#SVGID_00000136377436699169727650000002836479985993830030_);}
	.st28{opacity:0.5;fill:url(#SVGID_00000176766032933544770680000006311615845148586632_);}
	.st29{opacity:0.5;fill:url(#SVGID_00000026878061361772747500000003671489952582400645_);}
	
		.st30{opacity:0.5;clip-path:url(#SVGID_00000096049473038449614710000002659321770567300513_);fill:url(#SVGID_00000145021843861211494490000010457113885681697681_);}
	.st31{opacity:0.92;fill:#FFFFFF;}
</style>
<g>
	<path class="st0" d="M99.9,79.2c0,0.8-0.6,1.9-1.3,2.3l-41.9,24.2c-0.7,0.4-1.9,0.4-2.7,0L12.1,81.5c-0.7-0.4-1.3-1.5-1.3-2.3V30.8
		c0-0.8,0.6-1.9,1.3-2.3L54,4.3c0.7-0.4,1.9-0.4,2.7,0l41.9,24.2c0.7,0.4,1.3,1.5,1.3,2.3V79.2z"/>
	<path class="st1" d="M98.8,78.6c0,0.8-0.6,1.8-1.3,2.2l-40.9,23.6c-0.7,0.4-1.9,0.4-2.6,0L13.2,80.9c-0.7-0.4-1.3-1.4-1.3-2.2V31.4
		c0-0.8,0.6-1.8,1.3-2.2L54.1,5.6c0.7-0.4,1.9-0.4,2.6,0l40.9,23.6c0.7,0.4,1.3,1.4,1.3,2.2V78.6z"/>
	<rect x="52.6" y="13.1" class="st5" width="5.6" height="10.1"/>
	<g>
		<defs>
			<path id="SVGID_00000131345217918300644390000018175320538763258281_" d="M98.9,78.5c0,0.8-0.6,1.8-1.3,2.2l-40.9,23.6
				c-0.7,0.4-1.9,0.4-2.6,0L13.3,80.8c-0.7-0.4-1.3-1.4-1.3-2.2V31.3c0-0.8,0.6-1.8,1.3-2.2L54.2,5.5c0.7-0.4,1.9-0.4,2.6,0
				l40.9,23.6c0.7,0.4,1.3,1.4,1.3,2.2V78.5z"/>
		</defs>
		<clipPath id="SVGID_00000143604727378969297040000017003067253274768304_">
			<use xlink:href="#SVGID_00000131345217918300644390000018175320538763258281_"  style="overflow:visible;"/>
		</clipPath>
		
			<linearGradient id="SVGID_00000088854130690707132490000005687843308322142647_" gradientUnits="userSpaceOnUse" x1="-14.7021" y1="76.0295" x2="113.3177" y2="-61.2549" gradientTransform="matrix(0.5455 7.390000e-02 7.390000e-02 0.5507 18.3719 52.3045)">
			<stop  offset="0.1813" style="stop-color:#FFFFFF"/>
			<stop  offset="0.2846" style="stop-color:#E6E6E6"/>
			<stop  offset="0.5048" style="stop-color:#A5A5A5"/>
			<stop  offset="0.8216" style="stop-color:#3E3E3E"/>
			<stop  offset="1" style="stop-color:#010101"/>
		</linearGradient>
		
			<polygon style="opacity:0.5;clip-path:url(#SVGID_00000143604727378969297040000017003067253274768304_);fill:url(#SVGID_00000088854130690707132490000005687843308322142647_);" points="
			101.5,63.8 43.1,101.9 10.1,87.5 9.3,34.9 23.4,26.3 25.3,25.3 31.9,25.2 33.9,26.9 36.8,25 45.1,25.5 48.2,27.2 58,20.8 
			64.7,16.5 		"/>
	</g>
	<g>
		<g>
			<g>
				<g>
					<path class="st5" d="M96.2,13.3c-0.8,0.3-1.2,0.5-1.4,0.7c-0.1,0.2-0.5,0.6-0.5,1.7c0,0.8-0.1,5.7,1.1,8.9
						c0.1,0.2,0.4,0.2,0.5,0c0.2-0.2,0.4-1.9,0.2-2.1c-0.2-0.1-0.5-0.3-0.7-0.6c-0.2-0.3,0-5.5,0.1-5.8c0.1-0.3,0.4-0.2,0.6-0.2
						C96.1,14.8,96.2,13.3,96.2,13.3z"/>
				</g>
			</g>
		</g>
		<g>
			<path class="st16" d="M100.8,16.4H64.8c-0.3,0-0.6,0.3-0.6,0.6v46.7c0,0.3,0.3,0.6,0.6,0.6h36.1c0.3,0,0.6-0.3,0.6-0.6V17
				C101.5,16.7,101.2,16.4,100.8,16.4z"/>
			<path class="st6" d="M96.6,53.9c0,0-4,4.3-4,4.3H69.4c-0.3,0-0.5-0.2-0.5-0.5V23.1c0-0.3,0.2-0.5,0.5-0.5h26.7
				c0.3,0,0.5,0.2,0.5,0.5V53.9z"/>
			<path class="st15" d="M89.3,15.3h-13c-0.3,0-0.6,0.3-0.6,0.6c0,0.3,0.3,0.6,0.6,0.6h1c-0.1,0.2-0.2,0.5-0.2,0.7
				c0,0.8,0.6,1.4,1.4,1.4h8.7c0.8,0,1.4-0.6,1.4-1.4c0-0.3-0.1-0.5-0.2-0.7h1c0.3,0,0.6-0.3,0.6-0.6C89.9,15.5,89.6,15.3,89.3,15.3
				z"/>
			<rect x="73" y="27.8" class="st7" width="19.6" height="0.8"/>
			<rect x="73" y="31.2" class="st7" width="19.6" height="0.8"/>
			<rect x="73" y="34.9" class="st7" width="19.6" height="0.8"/>
			<rect x="73" y="38.3" class="st7" width="19.6" height="0.8"/>
			<rect x="73" y="41.9" class="st7" width="19.6" height="0.8"/>
			<rect x="73" y="45.3" class="st7" width="19.6" height="0.8"/>
			<rect x="73" y="49" class="st7" width="19.6" height="0.8"/>
			<g>
				<path class="st19" d="M93.1,53.9h3.6l-4,4.3v-3.9C92.6,54.1,92.8,53.9,93.1,53.9z"/>
			</g>
		</g>
		<g>
			<g>
				<path class="st5" d="M98.3,47.5c0,0-0.3,0.7-0.4,0.7c-0.1,0-0.5-0.7-0.5-0.7L98.3,47.5z"/>
				<path class="st6" d="M98.3,47.6c0.3-0.8,0.6-3.2,0.7-3.7l-2.2,0c0,0.7,0.5,3.2,0.7,3.7C97.9,47.6,98.2,47.6,98.3,47.6z"/>
				<path class="st5" d="M98.9,44c0.2-1.1,0.7-17.4,0.7-17.4l-3.7,0c0,0,0.6,16.3,0.8,17.5C98.1,44,98.7,44,98.9,44z"/>
				<path class="st16" d="M97.8,13.5L97.8,13.5C97.8,13.5,97.8,13.5,97.8,13.5l1.9-0.1c0-0.2,0.1-2.4-1.9-2.4l0,0c0,0,0,0,0,0
					c0,0,0,0,0,0l0,0c-2,0-1.8,2.2-1.8,2.4L97.8,13.5C97.8,13.5,97.8,13.5,97.8,13.5L97.8,13.5z"/>
				<path class="st5" d="M97.8,26l0.5,0.1V26l1.4,0c0-0.1,0.1-12.3,0-12.9c-0.9,0-1.5,0-1.9,0c-0.4,0-1,0-1.9,0
					C95.8,13.6,96,25.7,96,25.8l1.3,0.2v0.1L97.8,26z"/>
				<path class="st6" d="M95.9,26.7C95.9,26.7,95.8,26.7,95.9,26.7l-0.1-1c0,0,0-0.1,0.1-0.1h3.9c0,0,0.1,0,0.1,0.1v0.9
					c0,0,0,0.1-0.1,0.1H95.9z"/>
			</g>
		</g>
	</g>
	
		<linearGradient id="SVGID_00000123413441758040726010000013146702103414106542_" gradientUnits="userSpaceOnUse" x1="48.7561" y1="60.763" x2="69.1268" y2="38.9182">
		<stop  offset="0.1813" style="stop-color:#FFFFFF"/>
		<stop  offset="0.2846" style="stop-color:#E6E6E6"/>
		<stop  offset="0.5048" style="stop-color:#A5A5A5"/>
		<stop  offset="0.8216" style="stop-color:#3E3E3E"/>
		<stop  offset="1" style="stop-color:#010101"/>
	</linearGradient>
	<path style="opacity:0.5;fill:url(#SVGID_00000123413441758040726010000013146702103414106542_);" d="M72.6,45.3
		c0-4-3.3-7.3-7.3-7.3c-1.4,0-2.7,0.6-3.8,1.2L47.1,49.8l5.6,14.7l13.9-10.9C70.4,50.5,72.6,48.9,72.6,45.3z"/>
	<g>
		<path class="st4" d="M59.7,45.2c0-3.2,2.6-5.8,5.8-5.8c3.2,0,5.8,2.6,5.8,5.8c0,3.2-2.6,5.8-5.8,5.8
			C62.3,51.1,59.7,48.5,59.7,45.2z"/>
		<g>
			<g>
				<g>
					<g>
						<path class="st5" d="M68.3,50.7c1.5,4.1,3.3,9.6,3.3,15.4l0,0c0,2.9-0.4,5.8-1.5,8.7l0,0c-0.8,2.1-2.1,3.9-3.7,5.4l0,0
							c-1.2,2.7-3.5,5-6.2,6.7l0,0c-3.2,2-7,3.2-10.8,3.2l0,0c-1.9,0-3.8-0.3-5.6-1l0,0c-5-1.9-7.6-5.2-8.8-8.4l0,0
							c-1.3-3.2-1.2-6.2-1.2-7.9l2.6-0.1c-0.2,1.7-0.6,4.5,0.5,7.3l0,0c1.1,2.8,3.2,5.5,7.7,7.3l0,0c1.5,0.6,3.2,0.9,4.8,0.9l0,0
							c3.4,0,6.9-1.1,9.7-2.9l0,0c1-0.6,1.9-1.4,2.7-2.1l0,0c-2,0.9-4.2,1.4-6.4,1.4l0,0c-2.3,0-4.6-0.6-6.5-1.8l0,0
							c-1.9-1.2-3.5-3.2-4.3-5.8l0,0c-0.5-1.6-0.8-3.1-0.8-4.6l0,0c0-3.5,1.5-6.4,3.8-8.3l0,0c2.3-2,5.3-3,8.6-3l0,0
							c1,0,1.9,0.1,2.9,0.3l0,0c4.9,1,8.7,5.9,8.6,12.2l0,0c0,0.7,0,1.3-0.1,2l0,0c0.2-0.4,0.4-0.9,0.6-1.3l0,0c1-2.6,1.4-5.4,1.4-8
							l0,0c0-5.6-1.7-11-3.3-15L68.3,50.7z M48.9,65.5c-1.9,1.6-3.1,3.9-3.1,6.8l0,0c0,1.2,0.2,2.5,0.7,4l0,0c0.7,2.2,2,3.7,3.5,4.7
							l0,0c1.5,1,3.4,1.5,5.4,1.5l0,0c3.2,0,6.7-1.3,9.3-3.5l0,0c0.1-0.3,0.2-0.6,0.3-0.8l0,0c0.5-1.7,0.8-3.2,0.8-4.7l0,0
							c0-5.5-3.2-9.5-7.1-10.3l0,0c-0.8-0.2-1.7-0.2-2.5-0.2l0,0c0,0,0,0,0,0l0,0C53.4,63,50.8,63.9,48.9,65.5L48.9,65.5z"/>
					</g>
				</g>
				<g>
					<path class="st7" d="M65.4,38.3c-3.8,0-6.9,3.1-6.9,6.9c0,3.8,3.1,6.9,6.9,6.9c3.8,0,6.9-3.1,6.9-6.9
						C72.3,41.4,69.2,38.3,65.4,38.3z M65.5,50.5c-2.9,0-5.3-2.4-5.3-5.3c0-2.9,2.4-5.3,5.3-5.3c2.9,0,5.3,2.4,5.3,5.3
						C70.8,48.1,68.4,50.5,65.5,50.5z"/>
					<g>
						<path class="st6" d="M65.6,40.9c-2.3,0-4.1,1.9-4.1,4.1s1.9,4.1,4.1,4.1c2.3,0,4.1-1.9,4.1-4.1S67.9,40.9,65.6,40.9z
							 M65.6,47.8c-1.5,0-2.8-1.2-2.8-2.8c0-1.5,1.2-2.8,2.8-2.8c1.5,0,2.8,1.2,2.8,2.8C68.4,46.6,67.1,47.8,65.6,47.8z"/>
						<path class="st6" d="M67.9,45c0,1.3-1,2.3-2.3,2.3c-1.3,0-2.3-1-2.3-2.3c0-1.3,1-2.3,2.3-2.3C66.9,42.7,67.9,43.7,67.9,45z"/>
					</g>
				</g>
				<g>
					<g>
						<path class="st5" d="M24.9,51.2c-0.2-0.7-1.3-0.5-2.2-0.2c-0.7,0.3-0.3,1.1-0.2,1.8c0.1,0.5,1.7,6.4,3,9.4
							c1.2,2.6,3.9,6.9,10,6.6c4.2-0.2,6.5-1.9,8.6-6.5c2.1-4.7,3.6-10,3.6-10.5c0-0.5-0.1-0.8-0.8-0.9c-0.6-0.1-1.2-0.3-1.4,0.1
							c-0.2,0.4-2.7,9.5-4.1,11.7c-1.4,2.2-2.8,3.9-6,3.8c-3.1,0-6.5-1-8.5-8.1C25.2,52.5,24.9,51.2,24.9,51.2z"/>
					</g>
					<g>
						<path class="st6" d="M23.8,49.9c-1-3.5-2.5-9.4-2.5-14.5c0-0.3,0-0.6,0-1c0.2-6,2.9-8,4.6-8.4c0.7-0.1,1.5-0.2,2.3-0.2
							c1.4,0,2.8,0.2,3.9,0.2l0.1-0.9h0c-1-0.1-2.5-0.3-4-0.3c-0.9,0-1.8,0.1-2.6,0.2c-2.3,0.5-5.1,3-5.3,9.2c0,0.3,0,0.7,0,1
							c0,5.4,1.3,10.7,2.4,14.8L23.8,49.9z"/>
						<g>
							<path class="st5" d="M30.9,26.6c-0.1-0.1-0.2-0.3-0.2-0.8c0-0.5,0.1-1.1,0.3-1.2c0.2-0.1,1.3-0.5,2.1-0.4
								c0.8,0,1.6,0.4,1.7,1.4c0.1,0.8-0.3,1.7-1.6,1.7C31.8,27.4,30.9,26.6,30.9,26.6z"/>
						</g>
					</g>
					<g>
						<path class="st6" d="M50.3,34.5c-0.1-6.2-2.8-8.8-5.1-9.3C44.4,25,43.5,25,42.6,25c-1.5,0-3,0.1-4,0.2l0.1,0.9
							c1-0.1,2.5-0.2,3.9-0.2c0.8,0,1.6,0.1,2.3,0.2c1.7,0.4,4.3,2.5,4.4,8.5c0,0.3,0,0.6,0,1c-0.1,5.2-1.9,11-3,14.5
							c0.2,0,1,0.2,1.2,0.3c1.1-3.6,2.6-9.5,2.7-14.7C50.3,35.2,50.3,34.8,50.3,34.5z"/>
						<g>
							<path class="st5" d="M40.3,26.5c0.1-0.1,0.2-0.3,0.2-0.8c0-0.5-0.1-1.1-0.3-1.2c-0.2-0.1-1.3-0.4-2.1-0.3
								c-0.8,0.1-1.6,0.4-1.6,1.5c0,0.8,0.3,1.7,1.7,1.7C39.4,27.3,40.3,26.5,40.3,26.5z"/>
						</g>
					</g>
				</g>
				<g>
					<g>
						<path class="st5" d="M31.9,69.5c0.1,0.2,2,4.9,2,4.9h2.4c0,0,1.8-4.8,1.9-4.9c-0.7,0.2-1.8,0.4-2.5,0.4
							C34,69.9,33.1,69.8,31.9,69.5z"/>
					</g>
				</g>
			</g>
		</g>
	</g>
	<g>
		<g>
			<g>
				<path class="st1" d="M53.6,31.7c-0.4-0.2-0.7-0.5-1-0.8c0.8,4.4,2.1,10,2.1,18.5l1.1,0c-0.2-8.5,1.2-14.2,1.9-18.6
					c-0.3,0.3-0.8,0.8-1.4,1.1C55.6,32.1,54.5,32.2,53.6,31.7z"/>
				<path class="st6" d="M54.8,50.4c0,0.3,0.2,0.5,0.4,0.5h0.1c0.2,0,0.4-0.2,0.4-0.5l0.1-1.2h-1.1L54.8,50.4z"/>
				<path class="st6" d="M56.4,8.4c-0.3,1-0.1-1.2-1.5-1.2c-1.4,0.1-1.9,2.4-2.2,1.5c-0.2-0.6-1.4-0.5-1.9-0.9
					c-0.1,0.3-0.1,0.7-0.1,1.1c-0.4,7.2,1.6,20.8,1.8,21.9c0,0,0.6,0.5,1.2,1c0.9,0.5,1.9,0.4,2.6,0.1c0.8-0.4,1.4-1.2,1.4-1.2
					c0.2-1.1,1.8-14.7,1.2-21.9c0-0.3-0.1-0.6-0.1-0.8C57.9,8.2,56.7,7.5,56.4,8.4z M56.8,14.9l0.1,6.8c0,0.5-0.3,0.8-0.8,0.8
					l-2.1,0c-0.4,0-0.8-0.4-0.8-0.8l-0.1-6.8c0-0.5,0.3-0.8,0.8-0.8l2.1,0C56.4,14.1,56.8,14.4,56.8,14.9z"/>
				<path class="st7" d="M54.8,19.3l-0.4,0l0,0.4l0.4,0L54.8,19.3z M54.8,18l-0.4,0l0,0.4l0.4,0L54.8,18z M54.4,21.6l1.1,0
					c0.3,0,0.6-0.3,0.6-0.6l0-5.6c0-0.3-0.3-0.6-0.6-0.6l-1.1,0c-0.3,0-0.6,0.3-0.6,0.6l0,5.6C53.8,21.3,54.1,21.6,54.4,21.6z
					 M54.3,17l0.2-0.1l0.1,0v0.2l-0.1,0l0,0.4l0.4,0l0-0.2l0.2,0v0.2l0.4,0v-0.4l-0.1,0l0-0.2h0.1l0.2,0.1v0.4l-0.1,0.1l-0.4,0
					l-0.1-0.1l-0.1,0.1l-0.4,0l-0.1-0.1L54.3,17z M54.3,18l0.1-0.1l1,0l0.1,0.1v0.4l-0.1,0.1l-0.1,0l0-0.2l0.1,0l0-0.4H55l0,0.4
					l-0.1,0.1l-0.4,0l-0.2-0.1V18z M54.3,18.8l0.2,0l0,0.2l-0.2,0L54.3,18.8z M54.3,19.3l0.1-0.1l1,0l0.1,0.1v0.4l-0.1,0.1l-0.1,0
					l0-0.2l0.1,0v-0.4l-0.4,0l0,0.4l-0.1,0.1l-0.4,0l-0.1-0.1V19.3z"/>
				<path class="st16" d="M53.3,10.4c0-0.9,0.7-1.6,1.6-1.6c0.9,0,1.6,0.7,1.6,1.6c0,0.2,0.1,0.2,0,0.4c0.2-0.3,0.2-0.8,0.3-1.1
					c0.3-0.9,1.4-1.8,2-1.8c-0.6-5.3-2.1-5.8-3.9-5.8l0,0c-1.9,0-3.6,0.7-4.1,5.8c0.1,0.1,1.7,1,1.9,1.6c0.2,0.5,0.4,1.2,0.6,1.3
					C53.3,10.9,53.3,10.7,53.3,10.4z"/>
				<path class="st16" d="M55.7,10.6c0,0.4-0.3,0.7-0.7,0.7c-0.4,0-0.7-0.3-0.7-0.7c0-0.4,0.3-0.7,0.7-0.7
					C55.4,9.8,55.7,10.1,55.7,10.6z"/>
			</g>
		</g>
	</g>
</g>
</svg>
