<?xml version="1.0" encoding="utf-8"?>
<!-- Generator: Adobe Illustrator 27.2.0, SVG Export Plug-In . SVG Version: 6.00 Build 0)  -->
<svg version="1.1" id="Layer_1" xmlns="http://www.w3.org/2000/svg" xmlns:xlink="http://www.w3.org/1999/xlink" x="0px" y="0px"
	 viewBox="0 0 104.5 102.1" style="enable-background:new 0 0 104.5 102.1;" xml:space="preserve">
<style type="text/css">
	.st0{fill:#7E8DAD;}
	.st1{fill:#595959;}
	.st2{fill:#FFFFFF;}
	.st3{fill-rule:evenodd;clip-rule:evenodd;fill:#595959;}
	.st4{fill:#DE2B38;}
	.st5{fill:#298C43;}
	.st6{fill-rule:evenodd;clip-rule:evenodd;fill:#FFFFFF;}
</style>
<path class="st0" d="M99.3,85.6c0,6.9-5.6,12.6-12.6,12.6h-69c-6.9,0-12.6-5.6-12.6-12.6v-69C5.2,9.6,10.8,4,17.8,4h69
	c6.9,0,12.6,5.6,12.6,12.6V85.6z"/>
<g>
	<path class="st6" d="M30,25.5v3h38.5v-3H30z M30,32.5L30,32.5v2.7h38.5v-2.7H30z M30,39.3L30,39.3v2.7h38.5v-2.7H30z M30,46.2
		L30,46.2v3h32.5v-3H30z M30,53L30,53v3h21.6v-3H30z M54.3,74.8L54.3,74.8v3H72v-3H54.3z M81.1,51.1L81.1,51.1L65.8,66.3l4.1,3.8
		l15-15.3L81.1,51.1z M63.6,72.3L63.6,72.3l3-0.8l2.7-1.1l-1.9-1.9l-1.9-1.9l-0.8,2.7L63.6,72.3z M21.3,16.5L21.3,16.5h55.9h1.6v1.4
		v34.6l-3.3,3v-36H22.9v63h52.7V65l3.3-3V84v1.6h-1.6H21.3h-1.7V84V17.8v-1.4H21.3z"/>
</g>
</svg>
