<?xml version="1.0" encoding="UTF-8"?>
<svg id="_35" data-name="35" xmlns="http://www.w3.org/2000/svg" viewBox="0 0 447 329">
  <path d="m52.36,239.89c0-2.68-.89-4.92-2.61-6.76-1.72-1.85-3.95-2.81-6.57-2.81h-20.42v43.14h8.42v-17.11h12c2.62,0,4.85-.96,6.57-2.81,1.72-1.85,2.61-4.15,2.61-6.83v-6.82Zm-8.42,3.89c0,3.32-1.02,4.98-4.79,4.98h-7.98v-10.92h7.98c3.83,0,4.79,1.28,4.79,4.53v1.4Zm60.79,29.68v-43.14h-8.43v17.8h-15.5v-17.8h-8.43v43.14h8.43v-17.74h15.5v17.74h8.43Zm51.66,0h8.93l-14.86-43.14h-11.75l-14.87,43.14h8.94l3.58-10.98h16.46l3.58,10.98Zm-12.12-35.42h.63l5.3,16.46h-11.3l5.36-16.46Zm69.78,1.85c0-2.68-.9-4.92-2.62-6.76-1.72-1.85-3.95-2.81-6.57-2.81h-20.42v43.14h8.42v-17.11h6.9l8.74,17.11h9.19l-9.13-17.87c3.32-1.47,5.49-4.98,5.49-8.87v-6.82Zm-8.43,3.89c0,3.32-1.02,4.98-4.79,4.98h-7.98v-10.92h7.98c3.83,0,4.79,1.28,4.79,4.53v1.4Zm50.13,9.44l-10.08-22.91h-8.16v43.14h8.1v-26.42h.25l7.34,15.95h5.74l7.34-15.95h.26v26.42h8.1v-43.14h-8.16l-10.08,22.91h-.64Zm70.55,20.23h8.94l-14.87-43.14h-11.74l-14.87,43.14h8.93l3.58-10.98h16.46l3.57,10.98Zm-12.12-35.42h.64l5.29,16.46h-11.29l5.36-16.46Zm66.53,27.76l-1.79.19c-1.21.13-2.81.26-4.66.38-1.85.13-3.38.19-4.66.19-3.89,0-6.12-.57-7.21-2.42-1.09-1.98-1.21-3.64-1.21-7.79v-9c0-3.89.51-6.51,1.53-7.91,1.09-1.47,3.38-2.17,6.89-2.17,2.88,0,6.51.26,10.98.77v-7.72c-5.75-.44-9.51-.7-11.36-.7-10.97,0-16.46,4.47-16.46,13.46v17.61c0,9,5.49,13.46,16.46,13.46,1.92,0,5.75-.26,11.49-.7v-7.66Zm34.68-17.99h-.64l-8.36-17.49h-9.5l13.97,26.61v16.53h8.43v-16.53l13.97-26.61h-9.51l-8.36,17.49Z" fill="#a084e8"/>
  <path d="m343.83,122.03v17.13h-37.12l-19.28,36.76c-1.77,3.22-4.99,5.02-8.56,4.65-3.57,0-6.42-2.5-7.5-5.7l-14.64-42.48-12.84,31.04c-1.79,3.22-5.36,5.36-9.29,5.36-3.57-.71-6.79-3.57-7.5-7.5l-12.13-74.95-14.64,114.23c-.37,4.28-3.93,7.5-8.22,7.5h-.34c-3.94,0-7.5-3.22-8.58-7.16l-16.78-88.17-10.35,21.78c-1.43,2.85-4.62,4.63-7.84,4.63h-36.06v-17.13h30.35l19.63-40.71c1.8-3.57,5.36-5.34,8.93-4.99,3.91.71,6.79,3.22,7.5,7.13l11.78,62.13,14.98-116.02c.37-4.28,3.94-7.13,8.22-7.13,4.28-.37,7.84,2.85,8.93,7.13l16.41,99.95,10.72-24.99c1.43-3.22,4.62-5.72,8.22-5.36,3.91,0,6.76,2.51,8.19,5.71l15.35,45.34,12.49-23.55c1.43-2.87,4.31-4.65,7.5-4.65h42.48Z" fill="#6f61c0"/>
  <text transform="translate(21.4 307)" fill="#8be8e5" font-family="ExoRoman-Bold, Exo" font-size="36" font-variation-settings="&apos;wght&apos; 700" font-weight="700" letter-spacing="41"><tspan x="0" y="0">CONNECT</tspan></text>
</svg>