<?xml version="1.0" encoding="utf-8"?>
<!-- Generator: Adobe Illustrator 27.2.0, SVG Export Plug-In . SVG Version: 6.00 Build 0)  -->
<svg version="1.1" xmlns="http://www.w3.org/2000/svg" xmlns:xlink="http://www.w3.org/1999/xlink" x="0px" y="0px"
	 viewBox="0 0 447 350" style="enable-background:new 0 0 447 350;" xml:space="preserve">
<style type="text/css">
	.st0{fill:#6F61C0;}
	.st1{fill:#A084E8;}
	.st2{fill:#8BE8E5;}
</style>
<g id="_x33_5">
	<g>
		<path class="st1" d="M52.36,239.89c0-2.68-0.89-4.92-2.61-6.76c-1.72-1.85-3.95-2.81-6.57-2.81H22.76v43.14h8.42v-17.11h12
			c2.62,0,4.85-0.96,6.57-2.81c1.72-1.85,2.61-4.15,2.61-6.83V239.89z M43.94,243.78c0,3.32-1.02,4.98-4.79,4.98h-7.98v-10.92h7.98
			c3.83,0,4.79,1.28,4.79,4.53V243.78z M104.73,273.45v-43.14H96.3v17.8h-15.5v-17.8h-8.43v43.14h8.43v-17.74h15.5v17.74H104.73z
			 M156.38,273.45h8.93l-14.86-43.14H138.7l-14.87,43.14h8.94l3.58-10.98h16.46L156.38,273.45z M144.26,238.03h0.63l5.3,16.46h-11.3
			L144.26,238.03z M214.04,239.89c0-2.68-0.9-4.92-2.62-6.76c-1.72-1.85-3.95-2.81-6.57-2.81h-20.42v43.14h8.42v-17.11h6.9
			l8.74,17.11h9.19l-9.13-17.87c3.32-1.47,5.49-4.98,5.49-8.87V239.89z M205.61,243.78c0,3.32-1.02,4.98-4.79,4.98h-7.98v-10.92
			h7.98c3.83,0,4.79,1.28,4.79,4.53V243.78z M255.74,253.22l-10.08-22.91h-8.17v43.14h8.1v-26.42h0.25l7.34,15.95h5.74l7.34-15.95
			h0.26v26.42h8.1v-43.14h-8.16l-10.08,22.91H255.74z M326.29,273.45h8.94l-14.87-43.14h-11.74l-14.87,43.14h8.93l3.58-10.98h16.46
			L326.29,273.45z M314.16,238.03h0.64l5.29,16.46H308.8L314.16,238.03z M380.69,265.79l-1.79,0.19c-1.21,0.13-2.81,0.26-4.66,0.38
			c-1.85,0.13-3.38,0.19-4.66,0.19c-3.89,0-6.12-0.57-7.21-2.42c-1.09-1.98-1.21-3.64-1.21-7.79v-9c0-3.89,0.51-6.51,1.53-7.91
			c1.09-1.47,3.38-2.17,6.89-2.17c2.88,0,6.51,0.26,10.98,0.77v-7.72c-5.75-0.44-9.51-0.7-11.36-0.7
			c-10.97,0-16.46,4.47-16.46,13.46v17.61c0,9,5.49,13.46,16.46,13.46c1.92,0,5.75-0.26,11.49-0.7V265.79z M415.37,247.8h-0.64
			l-8.36-17.49h-9.5l13.97,26.61v16.53h8.43v-16.53l13.97-26.61h-9.51L415.37,247.8z"/>
	</g>
	<g>
		<path class="st0" d="M343.83,122.03v17.13h-37.12l-19.28,36.76c-1.77,3.22-4.99,5.02-8.56,4.65c-3.57,0-6.42-2.5-7.5-5.7
			l-14.64-42.48l-12.84,31.04c-1.79,3.22-5.36,5.36-9.29,5.36c-3.57-0.71-6.79-3.57-7.5-7.5l-12.13-74.95l-14.64,114.23
			c-0.37,4.28-3.93,7.5-8.22,7.5c0,0,0,0-0.34,0c-3.94,0-7.5-3.22-8.58-7.16l-16.78-88.17l-10.35,21.78
			c-1.43,2.85-4.62,4.63-7.84,4.63h-36.06v-17.13h30.35l19.63-40.71c1.8-3.57,5.36-5.34,8.93-4.99c3.91,0.71,6.79,3.22,7.5,7.13
			l11.78,62.13l14.98-116.02c0.37-4.28,3.94-7.13,8.22-7.13c4.28-0.37,7.84,2.85,8.93,7.13l16.41,99.95l10.72-24.99
			c1.43-3.22,4.62-5.72,8.22-5.36c3.91,0,6.76,2.51,8.19,5.71l15.35,45.34l12.49-23.55c1.43-2.87,4.31-4.65,7.5-4.65H343.83z"/>
	</g>
	<g>
		<path class="st2" d="M32.31,307.22c-1.56,0-2.93-0.18-4.12-0.54c-1.19-0.36-2.2-1.02-3.02-1.98c-0.83-0.96-1.45-2.33-1.87-4.12
			c-0.42-1.79-0.63-4.11-0.63-6.97c0-2.76,0.22-5.02,0.67-6.79c0.44-1.76,1.09-3.13,1.93-4.1c0.84-0.97,1.86-1.65,3.06-2.03
			c1.2-0.38,2.56-0.58,4.07-0.58c1.2,0,2.32,0.07,3.37,0.2c1.04,0.13,1.99,0.29,2.83,0.47c0.84,0.18,1.55,0.38,2.12,0.59v4.14
			c-0.43-0.1-1.01-0.19-1.75-0.29c-0.73-0.1-1.57-0.17-2.5-0.23s-1.92-0.09-2.95-0.09c-1.01,0-1.87,0.11-2.57,0.34
			s-1.27,0.65-1.69,1.26s-0.73,1.49-0.94,2.65c-0.2,1.15-0.31,2.65-0.31,4.5c0,1.78,0.09,3.24,0.27,4.39
			c0.18,1.15,0.47,2.05,0.88,2.68c0.41,0.64,0.97,1.08,1.67,1.33c0.71,0.25,1.6,0.38,2.68,0.38c1.82,0,3.31-0.04,4.45-0.11
			c1.14-0.07,2.06-0.16,2.75-0.25v4.1c-0.65,0.22-1.39,0.4-2.23,0.56c-0.84,0.16-1.76,0.28-2.77,0.36
			C34.69,307.17,33.56,307.22,32.31,307.22z"/>
		<path class="st2" d="M96.79,307.22c-1.82,0-3.42-0.17-4.79-0.52s-2.51-1-3.44-1.94c-0.92-0.95-1.61-2.31-2.07-4.09
			c-0.46-1.78-0.68-4.09-0.68-6.95c0-2.86,0.23-5.18,0.7-6.97c0.47-1.79,1.16-3.16,2.07-4.12c0.91-0.96,2.05-1.62,3.42-1.98
			c1.37-0.36,2.96-0.54,4.79-0.54c1.82,0,3.42,0.18,4.79,0.54c1.37,0.36,2.51,1.02,3.42,1.98c0.91,0.96,1.6,2.33,2.05,4.12
			c0.46,1.79,0.68,4.11,0.68,6.97c0,2.86-0.23,5.17-0.68,6.95c-0.46,1.78-1.14,3.14-2.05,4.09c-0.91,0.95-2.05,1.6-3.42,1.94
			C100.21,307.04,98.61,307.22,96.79,307.22z M96.79,302.43c1.08,0,1.98-0.12,2.7-0.36c0.72-0.24,1.29-0.67,1.71-1.28
			s0.73-1.49,0.92-2.63c0.19-1.14,0.29-2.62,0.29-4.45c0-1.92-0.1-3.46-0.29-4.61c-0.19-1.15-0.5-2.03-0.92-2.65
			s-0.99-1.03-1.71-1.24c-0.72-0.22-1.62-0.32-2.7-0.32c-1.03,0-1.91,0.11-2.63,0.32c-0.72,0.21-1.3,0.63-1.75,1.24
			c-0.44,0.61-0.77,1.49-0.97,2.65c-0.2,1.15-0.31,2.69-0.31,4.61c0,1.82,0.09,3.31,0.27,4.45c0.18,1.14,0.49,2.02,0.92,2.63
			c0.43,0.61,1.01,1.04,1.75,1.28C94.8,302.31,95.71,302.43,96.79,302.43z"/>
		<path class="st2" d="M153.88,307v-26.64h4.28l11.16,17.57v-17.57h5.33V307h-4.28l-11.12-17.57V307H153.88z"/>
		<path class="st2" d="M221.28,307v-26.64h4.28l11.16,17.57v-17.57h5.33V307h-4.28l-11.12-17.57V307H221.28z"/>
		<path class="st2" d="M294.97,307.18c-0.58,0-1.24-0.05-1.98-0.16c-0.74-0.11-1.46-0.35-2.14-0.74c-0.68-0.38-1.25-0.96-1.69-1.75
			c-0.44-0.78-0.67-1.85-0.67-3.22v-14.87c0-1.17,0.18-2.16,0.54-2.95c0.36-0.79,0.84-1.42,1.44-1.87c0.6-0.46,1.26-0.78,1.98-0.97
			c0.72-0.19,1.43-0.29,2.12-0.29c1.8,0,3.39,0.03,4.77,0.07c1.38,0.05,2.62,0.1,3.73,0.16c1.1,0.06,2.11,0.14,3.02,0.23v4.46h-9.94
			c-0.74,0-1.32,0.18-1.73,0.54c-0.41,0.36-0.61,0.91-0.61,1.66v3.85l10.55,0.29v4.21l-10.55,0.29v3.67c0,0.62,0.1,1.11,0.31,1.46
			c0.2,0.35,0.48,0.59,0.83,0.72c0.35,0.13,0.71,0.2,1.1,0.2h10.04v4.46c-1.06,0.12-2.23,0.21-3.51,0.29
			c-1.28,0.07-2.58,0.13-3.89,0.18C297.39,307.16,296.14,307.18,294.97,307.18z"/>
		<path class="st2" d="M360.99,307.22c-1.56,0-2.93-0.18-4.12-0.54c-1.19-0.36-2.2-1.02-3.02-1.98c-0.83-0.96-1.45-2.33-1.87-4.12
			c-0.42-1.79-0.63-4.11-0.63-6.97c0-2.76,0.22-5.02,0.67-6.79c0.44-1.76,1.09-3.13,1.93-4.1s1.86-1.65,3.06-2.03
			c1.2-0.38,2.56-0.58,4.07-0.58c1.2,0,2.32,0.07,3.37,0.2c1.04,0.13,1.99,0.29,2.83,0.47c0.84,0.18,1.55,0.38,2.12,0.59v4.14
			c-0.43-0.1-1.01-0.19-1.75-0.29c-0.73-0.1-1.57-0.17-2.5-0.23c-0.94-0.06-1.92-0.09-2.95-0.09c-1.01,0-1.87,0.11-2.57,0.34
			c-0.71,0.23-1.27,0.65-1.69,1.26s-0.73,1.49-0.94,2.65c-0.21,1.15-0.31,2.65-0.31,4.5c0,1.78,0.09,3.24,0.27,4.39
			c0.18,1.15,0.47,2.05,0.88,2.68s0.97,1.08,1.67,1.33c0.71,0.25,1.6,0.38,2.68,0.38c1.82,0,3.31-0.04,4.45-0.11
			s2.06-0.16,2.75-0.25v4.1c-0.65,0.22-1.39,0.4-2.23,0.56c-0.84,0.16-1.76,0.28-2.77,0.36
			C363.37,307.17,362.24,307.22,360.99,307.22z"/>
		<path class="st2" d="M420.75,307v-21.85h-7.31v-4.79h19.98v4.79h-7.34V307H420.75z"/>
	</g>
	<g>
		<path d="M28.2,339.15c-1.27,0-2.38-0.12-3.33-0.36c-0.95-0.24-1.75-0.69-2.39-1.35c-0.64-0.66-1.12-1.6-1.44-2.84
			c-0.32-1.23-0.48-2.84-0.48-4.82s0.16-3.6,0.49-4.84c0.33-1.24,0.8-2.2,1.44-2.86c0.63-0.67,1.43-1.12,2.38-1.38
			c0.95-0.25,2.06-0.38,3.33-0.38s2.38,0.12,3.33,0.38s1.74,0.71,2.38,1.38c0.63,0.67,1.11,1.62,1.42,2.86
			c0.32,1.24,0.48,2.85,0.48,4.84s-0.16,3.59-0.48,4.82c-0.32,1.23-0.79,2.18-1.42,2.84c-0.63,0.66-1.42,1.11-2.38,1.35
			C30.57,339.03,29.46,339.15,28.2,339.15z M28.2,335.83c0.75,0,1.38-0.08,1.88-0.25s0.9-0.46,1.19-0.89s0.5-1.03,0.64-1.83
			c0.13-0.79,0.2-1.82,0.2-3.09c0-1.33-0.07-2.4-0.2-3.2c-0.13-0.8-0.35-1.41-0.64-1.84s-0.69-0.71-1.19-0.86s-1.12-0.22-1.88-0.22
			c-0.72,0-1.33,0.07-1.83,0.22s-0.9,0.44-1.21,0.86c-0.31,0.42-0.53,1.04-0.67,1.84c-0.14,0.8-0.21,1.87-0.21,3.2
			c0,1.27,0.06,2.3,0.19,3.09c0.12,0.79,0.34,1.4,0.64,1.83s0.7,0.72,1.21,0.89C26.82,335.74,27.45,335.83,28.2,335.83z"/>
		<path d="M74.7,339.12c-1.02,0-1.97-0.09-2.85-0.26c-0.88-0.17-1.65-0.48-2.31-0.92c-0.66-0.44-1.17-1.06-1.53-1.85
			c-0.36-0.79-0.54-1.8-0.54-3.04V320.5h3.7v12.53c0,0.68,0.14,1.22,0.41,1.62c0.27,0.4,0.67,0.69,1.2,0.88
			c0.52,0.18,1.16,0.27,1.91,0.27c0.73,0,1.36-0.09,1.89-0.27c0.52-0.18,0.92-0.48,1.2-0.88c0.27-0.4,0.41-0.94,0.41-1.62V320.5
			h3.72v12.55c0,1.23-0.18,2.25-0.55,3.04c-0.37,0.79-0.88,1.41-1.52,1.85c-0.65,0.44-1.41,0.75-2.29,0.92S75.73,339.12,74.7,339.12
			z"/>
		<path d="M117.95,339v-15.17h-5.08v-3.33h13.88v3.33h-5.1V339H117.95z"/>
		<path d="M157.95,339v-18.5h7.8c0.6,0,1.21,0.07,1.84,0.21s1.2,0.42,1.72,0.85c0.53,0.42,0.95,1.06,1.28,1.91
			c0.33,0.85,0.49,1.98,0.49,3.38c0,1.4-0.16,2.53-0.49,3.4c-0.33,0.87-0.75,1.53-1.26,1.97c-0.52,0.45-1.08,0.75-1.67,0.9
			s-1.18,0.22-1.75,0.22c-0.3,0-0.65-0.01-1.05-0.04c-0.4-0.03-0.8-0.06-1.21-0.11s-0.79-0.1-1.14-0.14
			c-0.35-0.04-0.63-0.08-0.85-0.11V339H157.95z M161.65,330.03h3.67c0.43,0,0.8-0.1,1.11-0.31c0.31-0.21,0.54-0.54,0.69-1
			c0.15-0.46,0.23-1.07,0.23-1.84c0-0.75-0.08-1.35-0.24-1.79c-0.16-0.44-0.38-0.76-0.68-0.96c-0.29-0.2-0.64-0.3-1.04-0.3h-3.75
			V330.03z"/>
		<path d="M201.5,339l5.8-18.5h4.67l5.8,18.5h-3.85l-1.18-3.88h-6.3L205.3,339H201.5z M207.32,331.8h4.55l-2.27-8.12L207.32,331.8z"
			/>
		<path d="M252.87,339v-15.17h-5.08v-3.33h13.88v3.33h-5.1V339H252.87z"/>
		<path d="M292.87,339v-18.5h3.7V339H292.87z"/>
		<path d="M333.47,339.12c-0.4,0-0.86-0.04-1.38-0.11c-0.52-0.08-1.01-0.25-1.49-0.51c-0.47-0.27-0.87-0.67-1.17-1.21
			c-0.31-0.54-0.46-1.29-0.46-2.24v-10.33c0-0.82,0.12-1.5,0.38-2.05s0.58-0.98,1-1.3c0.42-0.32,0.88-0.54,1.38-0.67
			s0.99-0.2,1.47-0.2c1.25,0,2.35,0.02,3.31,0.05c0.96,0.03,1.82,0.07,2.59,0.11c0.77,0.04,1.47,0.1,2.1,0.16v3.1h-6.9
			c-0.52,0-0.92,0.12-1.2,0.38c-0.28,0.25-0.43,0.63-0.43,1.15v2.67l7.33,0.2v2.92l-7.33,0.2V334c0,0.43,0.07,0.77,0.21,1.01
			s0.33,0.41,0.58,0.5c0.24,0.09,0.5,0.14,0.76,0.14h6.97v3.1c-0.73,0.08-1.55,0.15-2.44,0.2s-1.79,0.09-2.7,0.12
			C335.15,339.11,334.29,339.12,333.47,339.12z"/>
		<path d="M373.22,339v-18.5h2.97l7.75,12.2v-12.2h3.7V339h-2.98l-7.72-12.2V339H373.22z"/>
		<path d="M423.77,339v-15.17h-5.08v-3.33h13.88v3.33h-5.1V339H423.77z"/>
	</g>
</g>
<g id="Layer_1">
</g>
</svg>
