<?xml version="1.0" encoding="utf-8"?>
<!-- Generator: Adobe Illustrator 27.2.0, SVG Export Plug-In . SVG Version: 6.00 Build 0)  -->
<svg version="1.1" id="Layer_1" xmlns="http://www.w3.org/2000/svg" xmlns:xlink="http://www.w3.org/1999/xlink" x="0px" y="0px"
	 viewBox="0 0 447 350" style="enable-background:new 0 0 447 350;" xml:space="preserve">
<style type="text/css">
	.st0{fill:#A084E8;}
	.st1{fill:#6F61C0;}
	.st2{fill:#8BE8E5;}
</style>
<g>
	<path class="st0" d="M52.4,239.9c0-2.7-0.9-4.9-2.6-6.8c-1.7-1.9-4-2.8-6.6-2.8H22.8v43.1h8.4v-17.1h12c2.6,0,4.8-1,6.6-2.8
		c1.7-1.9,2.6-4.1,2.6-6.8V239.9z M43.9,243.8c0,3.3-1,5-4.8,5h-8v-10.9h8c3.8,0,4.8,1.3,4.8,4.5V243.8z M104.7,273.5v-43.1h-8.4
		v17.8H80.8v-17.8h-8.4v43.1h8.4v-17.7h15.5v17.7H104.7z M156.4,273.5h8.9l-14.9-43.1h-11.8l-14.9,43.1h8.9l3.6-11h16.5L156.4,273.5
		z M144.3,238h0.6l5.3,16.5h-11.3L144.3,238z M214,239.9c0-2.7-0.9-4.9-2.6-6.8c-1.7-1.9-3.9-2.8-6.6-2.8h-20.4v43.1h8.4v-17.1h6.9
		l8.7,17.1h9.2l-9.1-17.9c3.3-1.5,5.5-5,5.5-8.9V239.9z M205.6,243.8c0,3.3-1,5-4.8,5h-8v-10.9h8c3.8,0,4.8,1.3,4.8,4.5V243.8z
		 M255.7,253.2l-10.1-22.9h-8.2v43.1h8.1V247h0.2l7.3,15.9h5.7l7.3-15.9h0.3v26.4h8.1v-43.1h-8.2l-10.1,22.9L255.7,253.2
		L255.7,253.2z M326.3,273.5h8.9l-14.9-43.1h-11.7l-14.9,43.1h8.9l3.6-11h16.5L326.3,273.5z M314.2,238h0.6l5.3,16.5h-11.3
		L314.2,238z M380.7,265.8l-1.8,0.2c-1.2,0.1-2.8,0.3-4.7,0.4c-1.9,0.1-3.4,0.2-4.7,0.2c-3.9,0-6.1-0.6-7.2-2.4
		c-1.1-2-1.2-3.6-1.2-7.8v-9c0-3.9,0.5-6.5,1.5-7.9c1.1-1.5,3.4-2.2,6.9-2.2c2.9,0,6.5,0.3,11,0.8v-7.7c-5.8-0.4-9.5-0.7-11.4-0.7
		c-11,0-16.5,4.5-16.5,13.5v17.6c0,9,5.5,13.5,16.5,13.5c1.9,0,5.8-0.3,11.5-0.7L380.7,265.8L380.7,265.8z M415.4,247.8h-0.6
		l-8.4-17.5h-9.5l14,26.6v16.5h8.4v-16.5l14-26.6h-9.5L415.4,247.8z"/>
</g>
<g>
	<path class="st1" d="M343.8,122v17.1h-37.1l-19.3,36.8c-1.8,3.2-5,5-8.6,4.6c-3.6,0-6.4-2.5-7.5-5.7l-14.6-42.5l-12.8,31
		c-1.8,3.2-5.4,5.4-9.3,5.4c-3.6-0.7-6.8-3.6-7.5-7.5L215,86.3l-14.6,114.2c-0.4,4.3-3.9,7.5-8.2,7.5c0,0,0,0-0.3,0
		c-3.9,0-7.5-3.2-8.6-7.2l-16.8-88.2l-10.4,21.8c-1.4,2.9-4.6,4.6-7.8,4.6h-36.1V122h30.4l19.6-40.7c1.8-3.6,5.4-5.3,8.9-5
		c3.9,0.7,6.8,3.2,7.5,7.1l11.8,62.1l15-116c0.4-4.3,3.9-7.1,8.2-7.1c4.3-0.4,7.8,2.9,8.9,7.1l16.4,99.9l10.7-25
		c1.4-3.2,4.6-5.7,8.2-5.4c3.9,0,6.8,2.5,8.2,5.7l15.4,45.3l12.5-23.6c1.4-2.9,4.3-4.7,7.5-4.7L343.8,122L343.8,122z"/>
</g>
<g>
	<path class="st2" d="M32.3,307.2c-1.6,0-2.9-0.2-4.1-0.5c-1.2-0.4-2.2-1-3-2c-0.8-1-1.5-2.3-1.9-4.1s-0.6-4.1-0.6-7
		c0-2.8,0.2-5,0.7-6.8c0.4-1.8,1.1-3.1,1.9-4.1s1.9-1.6,3.1-2c1.2-0.4,2.6-0.6,4.1-0.6c1.2,0,2.3,0.1,3.4,0.2c1,0.1,2,0.3,2.8,0.5
		c0.8,0.2,1.5,0.4,2.1,0.6v4.1c-0.4-0.1-1-0.2-1.8-0.3c-0.7-0.1-1.6-0.2-2.5-0.2s-1.9-0.1-3-0.1c-1,0-1.9,0.1-2.6,0.3
		s-1.3,0.6-1.7,1.3s-0.7,1.5-0.9,2.6c-0.2,1.1-0.3,2.6-0.3,4.5c0,1.8,0.1,3.2,0.3,4.4c0.2,1.1,0.5,2,0.9,2.7c0.4,0.6,1,1.1,1.7,1.3
		c0.7,0.2,1.6,0.4,2.7,0.4c1.8,0,3.3,0,4.5-0.1c1.1-0.1,2.1-0.2,2.8-0.2v4.1c-0.7,0.2-1.4,0.4-2.2,0.6s-1.8,0.3-2.8,0.4
		C34.7,307.2,33.6,307.2,32.3,307.2z"/>
	<path class="st2" d="M96.8,307.2c-1.8,0-3.4-0.2-4.8-0.5s-2.5-1-3.4-1.9c-0.9-1-1.6-2.3-2.1-4.1s-0.7-4.1-0.7-7
		c0-2.9,0.2-5.2,0.7-7c0.5-1.8,1.2-3.2,2.1-4.1c0.9-1,2.1-1.6,3.4-2c1.4-0.4,3-0.5,4.8-0.5c1.8,0,3.4,0.2,4.8,0.5
		c1.4,0.4,2.5,1,3.4,2c0.9,1,1.6,2.3,2.1,4.1c0.5,1.8,0.7,4.1,0.7,7c0,2.9-0.2,5.2-0.7,7c-0.5,1.8-1.1,3.1-2.1,4.1
		c-0.9,1-2.1,1.6-3.4,1.9S98.6,307.2,96.8,307.2z M96.8,302.4c1.1,0,2-0.1,2.7-0.4c0.7-0.2,1.3-0.7,1.7-1.3s0.7-1.5,0.9-2.6
		c0.2-1.1,0.3-2.6,0.3-4.5c0-1.9-0.1-3.5-0.3-4.6s-0.5-2-0.9-2.6s-1-1-1.7-1.2c-0.7-0.2-1.6-0.3-2.7-0.3c-1,0-1.9,0.1-2.6,0.3
		c-0.7,0.2-1.3,0.6-1.8,1.2c-0.4,0.6-0.8,1.5-1,2.6c-0.2,1.1-0.3,2.7-0.3,4.6c0,1.8,0.1,3.3,0.3,4.5s0.5,2,0.9,2.6
		c0.4,0.6,1,1,1.8,1.3C94.8,302.3,95.7,302.4,96.8,302.4z"/>
	<path class="st2" d="M153.9,307v-26.6h4.3l11.2,17.6v-17.6h5.3V307h-4.3l-11.1-17.6V307H153.9z"/>
	<path class="st2" d="M221.3,307v-26.6h4.3l11.2,17.6v-17.6h5.3V307h-4.3l-11.1-17.6V307H221.3z"/>
	<path class="st2" d="M295,307.2c-0.6,0-1.2,0-2-0.2c-0.7-0.1-1.5-0.4-2.1-0.7c-0.7-0.4-1.2-1-1.7-1.8c-0.4-0.8-0.7-1.9-0.7-3.2
		v-14.9c0-1.2,0.2-2.2,0.5-3c0.4-0.8,0.8-1.4,1.4-1.9c0.6-0.5,1.3-0.8,2-1s1.4-0.3,2.1-0.3c1.8,0,3.4,0,4.8,0.1
		c1.4,0,2.6,0.1,3.7,0.2c1.1,0.1,2.1,0.1,3,0.2v4.5h-9.9c-0.7,0-1.3,0.2-1.7,0.5c-0.4,0.4-0.6,0.9-0.6,1.7v3.9l10.5,0.3v4.2
		l-10.5,0.3v3.7c0,0.6,0.1,1.1,0.3,1.5c0.2,0.4,0.5,0.6,0.8,0.7c0.4,0.1,0.7,0.2,1.1,0.2h10v4.5c-1.1,0.1-2.2,0.2-3.5,0.3
		c-1.3,0.1-2.6,0.1-3.9,0.2C297.4,307.2,296.1,307.2,295,307.2z"/>
	<path class="st2" d="M361,307.2c-1.6,0-2.9-0.2-4.1-0.5c-1.2-0.4-2.2-1-3-2c-0.8-1-1.5-2.3-1.9-4.1c-0.4-1.8-0.6-4.1-0.6-7
		c0-2.8,0.2-5,0.7-6.8c0.4-1.8,1.1-3.1,1.9-4.1s1.9-1.6,3.1-2s2.6-0.6,4.1-0.6c1.2,0,2.3,0.1,3.4,0.2c1,0.1,2,0.3,2.8,0.5
		s1.5,0.4,2.1,0.6v4.1c-0.4-0.1-1-0.2-1.8-0.3c-0.7-0.1-1.6-0.2-2.5-0.2c-0.9-0.1-1.9-0.1-3-0.1c-1,0-1.9,0.1-2.6,0.3
		c-0.7,0.2-1.3,0.6-1.7,1.3s-0.7,1.5-0.9,2.6c-0.2,1.1-0.3,2.6-0.3,4.5c0,1.8,0.1,3.2,0.3,4.4c0.2,1.1,0.5,2,0.9,2.7s1,1.1,1.7,1.3
		c0.7,0.2,1.6,0.4,2.7,0.4c1.8,0,3.3,0,4.5-0.1s2.1-0.2,2.8-0.2v4.1c-0.6,0.2-1.4,0.4-2.2,0.6s-1.8,0.3-2.8,0.4
		C363.4,307.2,362.2,307.2,361,307.2z"/>
	<path class="st2" d="M420.8,307v-21.9h-7.3v-4.8h20v4.8h-7.3V307H420.8z"/>
</g>
<g>
	<path d="M70.3,334.2v-15.5h6.6c1,0,1.9,0.2,2.6,0.6c0.7,0.4,1.3,0.9,1.7,1.6c0.4,0.7,0.7,1.5,0.9,2.5s0.3,2,0.3,3.2
		c0,1.8-0.2,3.2-0.6,4.3c-0.4,1.1-1,2-1.8,2.6s-1.8,0.9-3,0.9H70.3z M73.4,331.4h3.1c0.6,0,1.2-0.2,1.5-0.6c0.4-0.4,0.7-0.9,0.8-1.7
		c0.2-0.7,0.3-1.7,0.3-2.8c0-1-0.1-1.8-0.2-2.5c-0.1-0.7-0.3-1.2-0.5-1.5c-0.2-0.4-0.5-0.6-0.8-0.8c-0.3-0.1-0.7-0.2-1.1-0.2h-3.1
		V331.4z"/>
	<path d="M116.1,334.2v-15.5h3.1v15.5H116.1z"/>
	<path d="M158,334.3c-0.4,0-0.8,0-1.2,0c-0.4,0-0.9-0.1-1.3-0.1s-0.9-0.1-1.2-0.2c-0.4-0.1-0.7-0.1-1.1-0.2v-2.5
		c0.4,0,0.9,0.1,1.4,0.1c0.5,0,1.1,0,1.7,0.1c0.6,0,1.1,0,1.6,0c0.5,0,1,0,1.4-0.1c0.4-0.1,0.7-0.3,0.9-0.5c0.2-0.2,0.3-0.5,0.3-1
		v-0.6c0-0.5-0.1-0.8-0.4-1.1c-0.3-0.2-0.7-0.4-1.2-0.4h-1.3c-1.5,0-2.6-0.3-3.4-1c-0.8-0.7-1.2-1.8-1.2-3.3v-0.8
		c0-1.5,0.4-2.6,1.3-3.3c0.9-0.7,2.1-1,3.7-1c0.6,0,1.1,0,1.7,0.1c0.6,0.1,1.1,0.1,1.6,0.2c0.5,0.1,1,0.2,1.4,0.2v2.5
		c-0.6,0-1.4-0.1-2.2-0.1c-0.8,0-1.5-0.1-2.2-0.1c-0.5,0-0.9,0-1.3,0.1s-0.7,0.3-0.9,0.5c-0.2,0.3-0.3,0.6-0.3,1.1v0.4
		c0,0.5,0.2,0.9,0.5,1.2c0.3,0.2,0.8,0.4,1.4,0.4h1.5c0.9,0,1.7,0.2,2.3,0.5c0.6,0.3,1.1,0.8,1.4,1.4c0.3,0.6,0.5,1.3,0.5,2.1v0.9
		c0,1.2-0.2,2.1-0.7,2.8c-0.5,0.6-1.1,1.1-1.9,1.3C160.1,334.2,159.1,334.3,158,334.3z"/>
	<path d="M197.2,334.2v-15.5h6.6c0.5,0,1,0.1,1.5,0.2s1,0.4,1.4,0.7c0.4,0.4,0.8,0.9,1.1,1.6s0.4,1.7,0.4,2.8s-0.1,2.1-0.4,2.9
		c-0.3,0.7-0.6,1.3-1.1,1.7s-0.9,0.6-1.4,0.8c-0.5,0.1-1,0.2-1.5,0.2c-0.3,0-0.5,0-0.9,0c-0.3,0-0.7-0.1-1-0.1c-0.3,0-0.7-0.1-1-0.1
		s-0.5-0.1-0.7-0.1v5.1H197.2z M200.3,326.6h3.1c0.4,0,0.7-0.1,0.9-0.3c0.3-0.2,0.5-0.5,0.6-0.8c0.1-0.4,0.2-0.9,0.2-1.5
		c0-0.6-0.1-1.1-0.2-1.5c-0.1-0.4-0.3-0.6-0.6-0.8c-0.2-0.2-0.5-0.3-0.9-0.3h-3.1V326.6z"/>
	<path d="M245.5,334.3c-0.3,0-0.7,0-1.2-0.1c-0.4-0.1-0.9-0.2-1.2-0.4c-0.4-0.2-0.7-0.6-1-1c-0.3-0.5-0.4-1.1-0.4-1.9v-8.7
		c0-0.7,0.1-1.3,0.3-1.7s0.5-0.8,0.8-1.1c0.3-0.3,0.7-0.5,1.2-0.6c0.4-0.1,0.8-0.2,1.2-0.2c1,0,2,0,2.8,0c0.8,0,1.5,0.1,2.2,0.1
		s1.2,0.1,1.8,0.1v2.6h-5.8c-0.4,0-0.8,0.1-1,0.3s-0.4,0.5-0.4,1v2.2l6.2,0.2v2.5l-6.2,0.2v2.1c0,0.4,0.1,0.6,0.2,0.9
		s0.3,0.3,0.5,0.4c0.2,0.1,0.4,0.1,0.6,0.1h5.9v2.6c-0.6,0.1-1.3,0.1-2,0.2s-1.5,0.1-2.3,0.1C247,334.3,246.2,334.3,245.5,334.3z"/>
	<path d="M285.9,334.2v-15.5h2.5l6.5,10.2v-10.2h3.1v15.5h-2.5l-6.5-10.2v10.2H285.9z"/>
	<path d="M336.8,334.3c-0.4,0-0.8,0-1.2,0c-0.4,0-0.9-0.1-1.3-0.1c-0.4,0-0.9-0.1-1.2-0.2c-0.4-0.1-0.7-0.1-1.1-0.2v-2.5
		c0.4,0,0.9,0.1,1.4,0.1c0.5,0,1.1,0,1.7,0.1c0.6,0,1.1,0,1.6,0c0.5,0,1,0,1.4-0.1c0.4-0.1,0.7-0.3,0.9-0.5c0.2-0.2,0.3-0.5,0.3-1
		v-0.6c0-0.5-0.1-0.8-0.4-1.1c-0.3-0.2-0.7-0.4-1.2-0.4h-1.3c-1.5,0-2.6-0.3-3.4-1c-0.8-0.7-1.2-1.8-1.2-3.3v-0.8
		c0-1.5,0.4-2.6,1.3-3.3c0.9-0.7,2.1-1,3.7-1c0.6,0,1.1,0,1.7,0.1s1.1,0.1,1.6,0.2c0.5,0.1,1,0.2,1.4,0.2v2.5
		c-0.6,0-1.4-0.1-2.2-0.1s-1.5-0.1-2.2-0.1c-0.5,0-0.9,0-1.3,0.1s-0.7,0.3-0.9,0.5s-0.3,0.6-0.3,1.1v0.4c0,0.5,0.2,0.9,0.5,1.2
		s0.8,0.4,1.4,0.4h1.5c0.9,0,1.7,0.2,2.3,0.5c0.6,0.3,1.1,0.8,1.4,1.4c0.3,0.6,0.5,1.3,0.5,2.1v0.9c0,1.2-0.2,2.1-0.7,2.8
		c-0.5,0.6-1.1,1.1-1.9,1.3C338.8,334.2,337.9,334.3,336.8,334.3z"/>
	<path d="M379.7,334.3c-0.3,0-0.7,0-1.2-0.1c-0.4-0.1-0.9-0.2-1.2-0.4s-0.7-0.6-1-1s-0.4-1.1-0.4-1.9v-8.7c0-0.7,0.1-1.3,0.3-1.7
		s0.5-0.8,0.8-1.1s0.7-0.5,1.2-0.6s0.8-0.2,1.2-0.2c1,0,2,0,2.8,0c0.8,0,1.5,0.1,2.2,0.1c0.6,0,1.2,0.1,1.8,0.1v2.6h-5.8
		c-0.4,0-0.8,0.1-1,0.3c-0.2,0.2-0.4,0.5-0.4,1v2.2l6.2,0.2v2.5l-6.2,0.2v2.1c0,0.4,0.1,0.6,0.2,0.9s0.3,0.3,0.5,0.4
		c0.2,0.1,0.4,0.1,0.6,0.1h5.9v2.6c-0.6,0.1-1.3,0.1-2,0.2s-1.5,0.1-2.3,0.1C381.1,334.3,380.4,334.3,379.7,334.3z"/>
</g>
</svg>
