<?xml version="1.0" encoding="utf-8"?>
<!-- Generator: Adobe Illustrator 27.2.0, SVG Export Plug-In . SVG Version: 6.00 Build 0)  -->
<svg version="1.1" id="_35" xmlns="http://www.w3.org/2000/svg" xmlns:xlink="http://www.w3.org/1999/xlink" x="0px" y="0px"
	 viewBox="0 0 645 180" style="enable-background:new 0 0 645 180;" xml:space="preserve">
<style type="text/css">
	.st0{fill:#6F61C0;}
	.st1{fill:#A084E8;}
	.st2{enable-background:new    ;}
	.st3{fill:#8BE8E5;}
</style>
<path class="st0" d="M194.1,98.9v13.2h-28.5l-14.8,28.2c-1.4,2.5-3.8,3.9-6.6,3.6c-2.7,0-4.9-1.9-5.8-4.4l-11.2-32.6l-9.9,23.8
	c-1.4,2.5-4.1,4.1-7.1,4.1c-2.7-0.6-5.2-2.7-5.8-5.8l-9.3-57.6l-11.2,87.7c-0.3,3.3-3,5.8-6.3,5.8h-0.3c-3,0-5.8-2.5-6.6-5.5
	L57.9,91.8l-8,16.7c-1.1,2.2-3.5,3.6-6,3.6H16.2V98.9h23.3l15.1-31.3c1.4-2.7,4.1-4.1,6.9-3.8c3,0.6,5.2,2.5,5.8,5.5l9.1,47.7
	l11.5-89.1c0.3-3.3,3-5.5,6.3-5.5c3.3-0.3,6,2.2,6.9,5.5l12.6,76.8l8.2-19.2c1.1-2.5,3.6-4.4,6.3-4.1c3,0,5.2,1.9,6.3,4.4l11.8,34.8
	l9.6-18.1c1.1-2.2,3.3-3.6,5.8-3.6L194.1,98.9L194.1,98.9z"/>
<g>
	<path class="st1" d="M244.4,51.9c0-2.7-0.9-4.9-2.6-6.8c-1.7-1.8-3.9-2.8-6.6-2.8h-20.4v43.1h8.4V68.4h12c2.6,0,4.9-1,6.6-2.8
		s2.6-4.2,2.6-6.8V51.9z M235.9,55.8c0,3.3-1,5-4.8,5h-8V49.9h8c3.8,0,4.8,1.3,4.8,4.5V55.8L235.9,55.8z M296.7,85.5V42.4h-8.4v17.8
		h-15.5V42.4h-8.4v43.1h8.4V67.8h15.5v17.7H296.7z M348.4,85.5h8.9l-14.9-43.1h-11.8l-14.9,43.1h8.9l3.6-11h16.5L348.4,85.5
		L348.4,85.5z M336.3,50.1h0.6l5.3,16.5h-11.3L336.3,50.1L336.3,50.1z M406.1,51.9c0-2.7-0.9-4.9-2.6-6.8c-1.7-1.8-4-2.8-6.6-2.8
		h-20.4v43.1h8.4V68.4h6.9l8.7,17.1h9.2l-9.1-17.9c3.3-1.5,5.5-5,5.5-8.9L406.1,51.9L406.1,51.9z M397.6,55.8c0,3.3-1,5-4.8,5h-8
		V49.9h8c3.8,0,4.8,1.3,4.8,4.5V55.8L397.6,55.8z M447.8,65.3l-10.1-22.9h-8.2v43.1h8.1V59.1h0.2l7.3,15.9h5.7l7.3-16h0.3v26.4h8.1
		V42.4h-8.2l-10.1,22.9L447.8,65.3L447.8,65.3z M518.3,85.5h8.9l-14.9-43.1h-11.7l-14.9,43.1h8.9l3.6-11h16.5L518.3,85.5z
		 M506.2,50.1h0.6l5.3,16.5h-11.3L506.2,50.1L506.2,50.1z M572.7,77.8l-1.8,0.2c-1.2,0.1-2.8,0.3-4.7,0.4c-1.8,0.1-3.4,0.2-4.7,0.2
		c-3.9,0-6.1-0.6-7.2-2.4c-1.1-2-1.2-3.6-1.2-7.8v-9c0-3.9,0.5-6.5,1.5-7.9c1.1-1.5,3.4-2.2,6.9-2.2c2.9,0,6.5,0.3,11,0.8v-7.7
		c-5.8-0.4-9.5-0.7-11.4-0.7c-11,0-16.5,4.5-16.5,13.5v17.6c0,9,5.5,13.5,16.5,13.5c1.9,0,5.8-0.3,11.5-0.7L572.7,77.8L572.7,77.8z
		 M607.4,59.8h-0.6l-8.4-17.5h-9.5l14,26.6v16.5h8.4V69l14-26.6h-9.5L607.4,59.8L607.4,59.8z"/>
</g>
<g class="st2">
	<path class="st3" d="M224,109.4c3,0,6.3,0.4,9,1.1v3.3c0,0-4.8-0.4-8.3-0.4c-4,0-5.5,1.3-5.5,9.5c0,5.9,1.1,9.5,5.5,9.5
		c3.8,0,8.3-0.3,8.3-0.3v3.3c-2.4,0.6-6,1-9,0.9c-6.7,0-8.9-5.3-8.9-13.5C215.1,114.4,216.8,109.4,224,109.4z"/>
	<path class="st3" d="M286.4,109.5c6.2,0,10.4,1.2,10.4,13.5c0,11.6-3.9,13.1-10.4,13.1c-6.5,0-10.5-1.2-10.5-13.1
		C275.9,110.7,280.4,109.5,286.4,109.5z M286.4,132.3c4.7,0,6.2-1.4,6.2-9.2c0-9.1-1.9-9.6-6.2-9.6c-4.2,0-6.3,0.4-6.3,9.6
		C280.1,131,281.5,132.3,286.4,132.3z"/>
	<path class="st3" d="M341.6,109.7h4.2l11.7,18.6v-18.6h4.2V136h-4.2l-11.8-18.5V136h-4.2V109.7z"/>
	<path class="st3" d="M406.9,109.7h4.2l11.7,18.6v-18.6h4.2V136h-4.2l-11.8-18.5V136h-4.2V109.7z"/>
	<path class="st3" d="M472.2,114.9c0-4.2,2.8-5.3,5.3-5.2c0,0,10,0.4,11.5,0.6v3.4h-10.8c-1.9,0-1.9,1-1.9,2v5.2l11.1,0.4v3.4
		l-11.1,0.4v5.2c0,1.9,1.2,1.9,2.2,1.9H489v3.4c-1.3,0.2-11.2,0.6-11.2,0.6c-2.4,0.1-5.7-0.4-5.7-5V114.9z"/>
	<path class="st3" d="M541.8,109.4c3,0,6.3,0.4,9,1.1v3.3c0,0-4.8-0.4-8.3-0.4c-4,0-5.5,1.3-5.5,9.5c0,5.9,1.1,9.5,5.5,9.5
		c3.8,0,8.3-0.3,8.3-0.3v3.3c-2.4,0.6-6,1-9,0.9c-6.7,0-8.9-5.3-8.9-13.5C532.9,114.4,534.7,109.4,541.8,109.4z"/>
	<path class="st3" d="M594.2,109.7h19v3.9h-7.5V136h-4.2v-22.4h-7.3V109.7z"/>
</g>
</svg>
