<?xml version="1.0" encoding="utf-8"?>
<!-- Generator: Adobe Illustrator 27.2.0, SVG Export Plug-In . SVG Version: 6.00 Build 0)  -->
<svg version="1.1" id="_35" xmlns="http://www.w3.org/2000/svg" xmlns:xlink="http://www.w3.org/1999/xlink" x="0px" y="0px"
	 viewBox="0 0 447 329" style="enable-background:new 0 0 447 329;" xml:space="preserve">
<style type="text/css">
	.st0{fill:#A084E8;}
	.st1{fill:#6F61C0;}
	.st2{enable-background:new    ;}
	.st3{fill:#8BE8E5;}
</style>
<path class="st0" d="M52.4,239.9c0-2.7-0.9-4.9-2.6-6.8c-1.7-1.9-4-2.8-6.6-2.8H22.8v43.1h8.4v-17.1h12c2.6,0,4.8-1,6.6-2.8
	c1.7-1.9,2.6-4.1,2.6-6.8V239.9L52.4,239.9z M43.9,243.8c0,3.3-1,5-4.8,5h-8v-10.9h8c3.8,0,4.8,1.3,4.8,4.5V243.8L43.9,243.8z
	 M104.7,273.5v-43.1h-8.4v17.8H80.8v-17.8h-8.4v43.1h8.4v-17.7h15.5v17.7H104.7z M156.4,273.5h8.9l-14.9-43.1h-11.8l-14.9,43.1h8.9
	l3.6-11h16.5L156.4,273.5L156.4,273.5z M144.3,238h0.6l5.3,16.5h-11.3L144.3,238L144.3,238z M214.1,239.9c0-2.7-0.9-4.9-2.6-6.8
	c-1.7-1.9-3.9-2.8-6.6-2.8h-20.4v43.1h8.4v-17.1h6.9l8.7,17.1h9.2l-9.1-17.9c3.3-1.5,5.5-5,5.5-8.9V239.9L214.1,239.9z M205.6,243.8
	c0,3.3-1,5-4.8,5h-8v-10.9h8c3.8,0,4.8,1.3,4.8,4.5V243.8L205.6,243.8z M255.8,253.2l-10.1-22.9h-8.2v43.1h8.1V247h0.2l7.3,15.9h5.7
	l7.3-15.9h0.3v26.4h8.1v-43.1h-8.2l-10.1,22.9L255.8,253.2L255.8,253.2z M326.3,273.5h8.9l-14.9-43.1h-11.7l-14.9,43.1h8.9l3.6-11
	h16.5L326.3,273.5z M314.2,238h0.6l5.3,16.5h-11.3L314.2,238L314.2,238z M380.7,265.8l-1.8,0.2c-1.2,0.1-2.8,0.3-4.7,0.4
	c-1.9,0.1-3.4,0.2-4.7,0.2c-3.9,0-6.1-0.6-7.2-2.4c-1.1-2-1.2-3.6-1.2-7.8v-9c0-3.9,0.5-6.5,1.5-7.9c1.1-1.5,3.4-2.2,6.9-2.2
	c2.9,0,6.5,0.3,11,0.8v-7.7c-5.8-0.4-9.5-0.7-11.4-0.7c-11,0-16.5,4.5-16.5,13.5v17.6c0,9,5.5,13.5,16.5,13.5
	c1.9,0,5.8-0.3,11.5-0.7L380.7,265.8L380.7,265.8z M415.4,247.8h-0.6l-8.4-17.5h-9.5l14,26.6v16.5h8.4v-16.5l14-26.6h-9.5
	L415.4,247.8L415.4,247.8z"/>
<path class="st1" d="M343.8,122v17.1h-37.1l-19.3,36.8c-1.8,3.2-5,5-8.6,4.6c-3.6,0-6.4-2.5-7.5-5.7l-14.6-42.5l-12.8,31
	c-1.8,3.2-5.4,5.4-9.3,5.4c-3.6-0.7-6.8-3.6-7.5-7.5L215,86.3l-14.6,114.2c-0.4,4.3-3.9,7.5-8.2,7.5h-0.3c-3.9,0-7.5-3.2-8.6-7.2
	l-16.8-88.2l-10.4,21.8c-1.4,2.9-4.6,4.6-7.8,4.6h-36.1V122h30.4l19.6-40.7c1.8-3.6,5.4-5.3,8.9-5c3.9,0.7,6.8,3.2,7.5,7.1
	l11.8,62.1l15-116c0.4-4.3,3.9-7.1,8.2-7.1c4.3-0.4,7.8,2.9,8.9,7.1l16.4,99.9l10.7-25c1.4-3.2,4.6-5.7,8.2-5.4
	c3.9,0,6.8,2.5,8.2,5.7l15.4,45.3l12.5-23.6c1.4-2.9,4.3-4.7,7.5-4.7L343.8,122L343.8,122z"/>
<g class="st2">
	<path class="st3" d="M32.5,307.2c-1.5,0-2.9-0.2-4.1-0.5c-1.2-0.4-2.2-1-3.1-2c-0.9-1-1.5-2.3-2-4.1c-0.5-1.8-0.7-4.1-0.7-7
		c0-2.8,0.2-5.1,0.7-6.8c0.5-1.8,1.2-3.2,2-4.1c0.9-1,1.9-1.6,3.1-2c1.2-0.4,2.5-0.6,4-0.6c1.5,0,2.8,0.1,3.9,0.2
		c1.1,0.2,2.1,0.3,2.9,0.6c0.8,0.2,1.4,0.4,1.9,0.6v5.4c-0.5-0.1-1-0.2-1.8-0.3c-0.7-0.1-1.5-0.2-2.5-0.2c-0.9-0.1-1.9-0.1-3-0.1
		c-0.8,0-1.5,0.1-2.1,0.3c-0.6,0.2-1,0.5-1.4,1c-0.3,0.5-0.6,1.2-0.7,2.2c-0.2,1-0.2,2.3-0.2,3.9c0,1.4,0.1,2.6,0.2,3.6
		c0.1,1,0.3,1.7,0.6,2.2c0.3,0.5,0.8,0.9,1.4,1.2c0.6,0.2,1.4,0.3,2.3,0.3c1.8,0,3.3,0,4.4-0.1c1.1-0.1,2-0.1,2.7-0.2v5.4
		c-0.6,0.2-1.3,0.4-2.1,0.6c-0.8,0.2-1.7,0.3-2.8,0.4S34,307.2,32.5,307.2z"/>
	<path class="st3" d="M96.3,307.2c-1.9,0-3.6-0.2-5-0.6c-1.4-0.4-2.6-1-3.6-2s-1.7-2.3-2.2-4.1c-0.5-1.8-0.7-4.1-0.7-6.9
		s0.2-5.1,0.7-6.9c0.5-1.8,1.2-3.2,2.2-4.1c1-1,2.2-1.6,3.6-2c1.4-0.4,3.1-0.6,5-0.6c1.9,0,3.6,0.2,5,0.6c1.4,0.4,2.6,1,3.6,2
		c1,1,1.7,2.3,2.2,4.1c0.5,1.8,0.7,4.1,0.7,6.9s-0.2,5.1-0.7,6.9c-0.5,1.8-1.2,3.2-2.2,4.1c-1,1-2.2,1.6-3.6,2
		C99.9,307,98.2,307.2,96.3,307.2z M96.3,301c0.9,0,1.7-0.1,2.2-0.3c0.6-0.2,1-0.6,1.4-1.1c0.3-0.5,0.6-1.3,0.7-2.2s0.2-2.2,0.2-3.7
		c0-1.6-0.1-2.8-0.2-3.8s-0.4-1.7-0.7-2.2c-0.3-0.5-0.8-0.9-1.4-1.1c-0.6-0.2-1.3-0.3-2.2-0.3c-0.9,0-1.6,0.1-2.2,0.3
		c-0.6,0.2-1,0.5-1.4,1.1c-0.3,0.5-0.6,1.3-0.7,2.2c-0.1,1-0.2,2.2-0.2,3.8c0,1.5,0.1,2.7,0.2,3.7c0.1,1,0.4,1.7,0.7,2.2
		c0.3,0.5,0.8,0.9,1.4,1.1C94.7,300.8,95.4,301,96.3,301z"/>
	<path class="st3" d="M152,307v-26.7h5.5l9.4,14.9v-14.9h7V307h-5.5l-9.4-14.9V307H152z"/>
	<path class="st3" d="M218.9,307v-26.7h5.5l9.4,14.9v-14.9h7V307h-5.5l-9.4-14.9V307H218.9z"/>
	<path class="st3" d="M292.8,307.2c-0.6,0-1.3-0.1-2.1-0.2c-0.8-0.1-1.6-0.4-2.3-0.8s-1.4-1-1.9-1.9c-0.5-0.9-0.8-2-0.8-3.5v-14
		c0-1.3,0.2-2.4,0.6-3.2c0.4-0.9,0.9-1.5,1.6-2c0.6-0.5,1.4-0.8,2.2-1c0.8-0.2,1.6-0.3,2.3-0.3c2,0,3.8,0,5.2,0.1
		c1.5,0.1,2.7,0.1,3.8,0.2c1.1,0.1,2,0.2,2.8,0.3v5.9h-9.6c-0.6,0-1.1,0.1-1.4,0.4c-0.3,0.3-0.5,0.7-0.5,1.2v2.2l9.7,0.4v5.5
		l-9.7,0.4v2c0,0.4,0.1,0.8,0.2,1.1c0.1,0.3,0.3,0.5,0.6,0.6c0.2,0.1,0.5,0.2,0.8,0.2h9.9v5.9c-1,0.1-2.2,0.3-3.5,0.4
		c-1.3,0.1-2.7,0.2-4,0.2S294,307.2,292.8,307.2z"/>
	<path class="st3" d="M357.6,307.2c-1.5,0-2.9-0.2-4.1-0.5c-1.2-0.4-2.2-1-3.1-2s-1.5-2.3-2-4.1c-0.5-1.8-0.7-4.1-0.7-7
		c0-2.8,0.2-5.1,0.7-6.8s1.2-3.2,2-4.1c0.9-1,1.9-1.6,3.1-2c1.2-0.4,2.5-0.6,4-0.6c1.5,0,2.8,0.1,3.9,0.2c1.1,0.2,2.1,0.3,2.9,0.6
		c0.8,0.2,1.4,0.4,1.9,0.6v5.4c-0.5-0.1-1-0.2-1.8-0.3c-0.7-0.1-1.5-0.2-2.5-0.2c-0.9-0.1-1.9-0.1-3-0.1c-0.8,0-1.5,0.1-2.1,0.3
		c-0.6,0.2-1,0.5-1.3,1c-0.3,0.5-0.6,1.2-0.7,2.2c-0.2,1-0.2,2.3-0.2,3.9c0,1.4,0.1,2.6,0.2,3.6s0.3,1.7,0.6,2.2
		c0.3,0.5,0.8,0.9,1.3,1.2c0.6,0.2,1.3,0.3,2.3,0.3c1.8,0,3.3,0,4.4-0.1c1.1-0.1,2-0.1,2.7-0.2v5.4c-0.6,0.2-1.3,0.4-2.1,0.6
		c-0.8,0.2-1.7,0.3-2.8,0.4C360.3,307.2,359.1,307.2,357.6,307.2z"/>
	<path class="st3" d="M415.9,307v-20.5h-6.7v-6.3h20.4v6.3h-6.7V307H415.9z"/>
</g>
</svg>
