<?xml version="1.0" encoding="utf-8"?>
<!-- Generator: Adobe Illustrator 27.2.0, SVG Export Plug-In . SVG Version: 6.00 Build 0)  -->
<svg class="Layer" version="1.1" data-bs-toggle="collapse"
                  data-bs-target="#workflowcollapse" aria-expanded="false" x="0px" y="0px"
	 viewBox="0 0 25 27" style="enable-background:new 0 0 25 27;" xml:space="preserve">
<style type="text/css">
	.st0{fill:#595959;}
	.st1{fill:#FFFFFF;}
	.st2{fill-rule:evenodd;clip-rule:evenodd;fill:#595959;}
	.st3{fill:#DE2B38;}
	.st4{fill:#298C43;}
	.st5{fill:#7E8DAD;}
	.st6{fill-rule:evenodd;clip-rule:evenodd;fill:#FFFFFF;}
	.st7{fill:#A7A9AC;}
	.st8{fill:#EF3E3D;}
	.st9{fill:#010101;}
	.st10{fill:url(#XMLID_00000041981175905261508450000015882283665530948252_);}
	.st11{fill:#AAD2DC;}
	.st12{fill:#D3E3EB;}
	.st13{fill:url(#XMLID_00000127013396818975598570000017587525718498727296_);}
	.st14{fill:url(#XMLID_00000159433931011614567180000005793443250739235255_);}
	.st15{fill:url(#XMLID_00000172409259322654929580000003368957743565671097_);}
	.st16{fill:url(#XMLID_00000081636512390804632300000011657970751053553030_);}
	.st17{fill:#AF76B2;}
	.st18{fill:none;stroke:#24326A;stroke-linecap:round;}
	.st19{fill:#24326A;}
	.st20{fill:none;stroke:#FFFFFF;stroke-linecap:round;}
	.st21{fill:#BB9B95;}
	.st22{fill:#DECAC6;}
	.st23{fill:#429DD7;}
	.st24{fill:#72B3E2;}
	.st25{opacity:0.5;fill:#E8F2FB;}
	.st26{opacity:0.5;fill:#FFFFFF;}
	.st27{fill:#E93837;}
	.st28{fill:#F05044;}
	.st29{fill:#EFE2E1;}
	.st30{fill:#F15F50;}
	.st31{fill:#EAD9D8;}
	.st32{fill:#F04D3F;}
	.st33{fill:#422D2A;}
	.st34{fill:#573B38;}
	.st35{fill:#664545;}
	.st36{fill:#D1B8B4;}
	.st37{fill:#C5A9A6;}
	.st38{fill:#7FA63F;}
	.st39{fill:#98CA42;}
	.st40{fill:#221F1F;}
	.st41{fill:#F2C224;}
	.st42{filter:url(#Adobe_OpacityMaskFilter);}
	.st43{filter:url(#Adobe_OpacityMaskFilter_00000154413265345795356260000016525629049682432159_);}
	
		.st44{mask:url(#XMLID_00000061445958988124759890000006072564068724465807_);fill:url(#XMLID_00000162344611451749712140000002681313749205917887_);}
	.st45{opacity:0.19;fill:url(#XMLID_00000155125524381744532940000009102434289561668504_);}
	.st46{fill:#F4AC77;}
	.st47{fill:#D08252;}
	.st48{fill:#89C8EB;}
	.st49{fill:#98BFD8;}
	.st50{fill:#FDFEFF;}
	.st51{opacity:0.53;fill:#98BFD8;}
	.st52{fill:#EC2227;}
	.st53{opacity:0.33;fill:#98BFD8;}
	.st54{fill:#142937;}
	.st55{opacity:0.16;clip-path:url(#XMLID_00000082356399251214182620000007964419863141413052_);fill:#FFFFFF;}
	.st56{fill:#26415E;}
	.st57{opacity:0.48;fill:#98BFD8;}
	.st58{clip-path:url(#XMLID_00000175292644436712010010000011869774083187125903_);fill:#76B0CE;}
	.st59{fill:#1B3749;}
	.st60{opacity:0.2;clip-path:url(#XMLID_00000146489322524215379110000016685009981116055708_);fill:#98BFD8;}
	.st61{opacity:0.41;fill:#FDFEFF;}
	.st62{clip-path:url(#XMLID_00000155112230775149381320000017920400188496559791_);fill:#76B0CE;}
	.st63{fill:#425973;}
	.st64{fill:#3A5066;}
	.st65{fill:#FDFEFD;}
	.st66{fill:#E4E1E8;}
	.st67{opacity:0.37;fill:#3A5066;}
	.st68{opacity:0.26;fill:#1B3749;}
	.st69{opacity:0.15;fill:#1184C4;}
	.st70{fill:#293B54;}
	.st71{fill:#162435;}
	.st72{fill:#39B883;}
</style>
<g>
	<path class="st70" d="M20.2,10v1.8c0,2.3-0.4,4.3-1.2,5.9c-0.6,1.3-1.5,2.4-2.6,3.2c-1,0.7-2,1.1-2.7,1.4c-0.6,0.2-1,0.3-1.2,0.3
		c-0.2,0-0.6-0.1-1.2-0.3c-0.7-0.2-1.7-0.6-2.7-1.4c-1.1-0.8-2-1.9-2.6-3.2c-0.8-1.6-1.2-3.6-1.2-5.9V8.7C5.9,8.4,7,8.1,8,7.7
		c1-0.4,1.9-0.9,2.7-1.4c0.8-0.5,1.4-1,1.8-1.3c0.4,0.3,1,0.8,1.8,1.3c0.7,0.4,1.5,0.8,2.2,1.2l0.8-1.1C16.5,6,15.7,5.6,15,5.2
		c-1.3-0.8-2-1.6-2.1-1.6l-0.5-0.5L12,3.6c0,0-0.7,0.7-2.1,1.6C9.2,5.7,8.3,6.1,7.5,6.5C6.4,6.9,5.2,7.3,4,7.5L3.5,7.6v4.3
		c0,2.5,0.5,4.7,1.4,6.5c0.7,1.5,1.8,2.7,3.1,3.7c2.2,1.6,4.4,1.8,4.5,1.8l0.1,0l0.1,0c0.1,0,2.3-0.2,4.5-1.8
		c1.3-0.9,2.3-2.2,3.1-3.7c0.9-1.8,1.4-4,1.4-6.5V8.2L20.2,10z"/>
	<path class="st71" d="M14.3,6.3c-0.8-0.5-1.4-1-1.8-1.3V3.1L13,3.6c0,0,0.7,0.7,2.1,1.6c0.7,0.4,1.5,0.8,2.3,1.2l-0.8,1.1
		C15.7,7.1,15,6.7,14.3,6.3z"/>
	<path class="st71" d="M21.5,8.2v3.7c0,2.5-0.5,4.7-1.4,6.5c-0.7,1.5-1.8,2.7-3.1,3.7c-2.2,1.6-4.4,1.8-4.5,1.8l-0.1,0v-1.3
		c0.2,0,0.6-0.1,1.2-0.3c0.7-0.2,1.7-0.6,2.7-1.4c1.1-0.8,2-1.9,2.6-3.2c0.8-1.6,1.2-3.6,1.2-5.9V10L21.5,8.2z"/>
	<path class="st72" d="M12,18.9l-3.9-3.2c-0.3-0.3-0.4-0.7-0.1-1l0.9-1c0.3-0.3,0.7-0.4,1-0.1l2.1,1.8l6.7-9.6
		c0.2-0.3,0.7-0.4,1-0.2l1.1,0.8c0.3,0.2,0.4,0.7,0.2,1L13,18.7C12.8,19.1,12.3,19.2,12,18.9z"/>
</g>
</svg>
