<?xml version="1.0" encoding="utf-8"?>
<!-- Generator: Adobe Illustrator 27.2.0, SVG Export Plug-In . SVG Version: 6.00 Build 0)  -->
<svg version="1.1" id="Layer_1" xmlns="http://www.w3.org/2000/svg" xmlns:xlink="http://www.w3.org/1999/xlink" x="0px" y="0px"
	 viewBox="0 0 151.3 156.2" style="enable-background:new 0 0 151.3 156.2;" xml:space="preserve">
<style type="text/css">
	.st0{fill:#595959;}
	.st1{fill:#FFFFFF;}
	.st2{fill-rule:evenodd;clip-rule:evenodd;fill:#595959;}
	.st3{fill:#DE2B38;}
	.st4{fill:#298C43;}
	.st5{fill:#7E8DAD;}
	.st6{fill-rule:evenodd;clip-rule:evenodd;fill:#FFFFFF;}
	.st7{fill:#A7A9AC;}
	.st8{fill:#EF3E3D;}
	.st9{fill:#010101;}
	.st10{fill:url(#XMLID_00000165192503930180709550000000877830299246894480_);}
	.st11{fill:#AAD2DC;}
	.st12{fill:#D3E3EB;}
	.st13{fill:url(#XMLID_00000174593504478014350260000000770951977334849974_);}
	.st14{fill:url(#XMLID_00000005983501209855100080000005184283151366895291_);}
	.st15{fill:url(#XMLID_00000141451145025524372760000005192694093407020932_);}
	.st16{fill:url(#XMLID_00000155120704138923602610000011188806655841983917_);}
	.st17{fill:#AF76B2;}
	.st18{fill:none;stroke:#24326A;stroke-linecap:round;}
	.st19{fill:#24326A;}
	.st20{fill:none;stroke:#FFFFFF;stroke-linecap:round;}
	.st21{fill:#BB9B95;}
	.st22{fill:#DECAC6;}
	.st23{fill:#429DD7;}
	.st24{fill:#72B3E2;}
	.st25{opacity:0.5;fill:#E8F2FB;}
	.st26{opacity:0.5;fill:#FFFFFF;}
	.st27{fill:#E93837;}
	.st28{fill:#F05044;}
	.st29{fill:#EFE2E1;}
	.st30{fill:#F15F50;}
	.st31{fill:#EAD9D8;}
	.st32{fill:#F04D3F;}
	.st33{fill:#422D2A;}
	.st34{fill:#573B38;}
	.st35{fill:#664545;}
	.st36{fill:#D1B8B4;}
	.st37{fill:#C5A9A6;}
	.st38{fill:#7FA63F;}
	.st39{fill:#98CA42;}
	.st40{fill:#221F1F;}
	.st41{fill:#F2C224;}
	.st42{filter:url(#Adobe_OpacityMaskFilter);}
	.st43{filter:url(#Adobe_OpacityMaskFilter_00000039127604297549351190000003896571239197014966_);}
	
		.st44{mask:url(#XMLID_00000021102895841812655820000009582339841639891848_);fill:url(#XMLID_00000036235347461808067730000000579734296919882164_);}
	.st45{opacity:0.19;fill:url(#XMLID_00000067930919717553590490000001932512108168115378_);}
	.st46{fill:#F4AC77;}
	.st47{fill:#D08252;}
	.st48{fill:#89C8EB;}
	.st49{fill:#98BFD8;}
	.st50{fill:#FDFEFF;}
	.st51{opacity:0.53;fill:#98BFD8;}
	.st52{fill:#EC2227;}
	.st53{opacity:0.33;fill:#98BFD8;}
	.st54{fill:#142937;}
	.st55{opacity:0.16;clip-path:url(#XMLID_00000096046288085438254090000015863963740185890201_);fill:#FFFFFF;}
	.st56{fill:#26415E;}
	.st57{opacity:0.48;fill:#98BFD8;}
	.st58{clip-path:url(#XMLID_00000119078331607509601690000000573579520397498033_);fill:#76B0CE;}
	.st59{fill:#1B3749;}
	.st60{opacity:0.2;clip-path:url(#XMLID_00000182521202132864437000000014645012548254319036_);fill:#98BFD8;}
	.st61{opacity:0.41;fill:#FDFEFF;}
	.st62{clip-path:url(#XMLID_00000026861239983527252440000016475427560447003310_);fill:#76B0CE;}
	.st63{fill:#425973;}
	.st64{fill:#3A5066;}
	.st65{fill:#FDFEFD;}
	.st66{fill:#E4E1E8;}
	.st67{opacity:0.37;fill:#3A5066;}
	.st68{opacity:0.26;fill:#1B3749;}
	.st69{opacity:0.15;fill:#1184C4;}
</style>
<g>
	<path class="st48" d="M105.9,127.3H23.6c-2.2,0-4-1.8-4-4V10.5c0-2.2,1.8-4,4-4h82.3c2.2,0,4,1.8,4,4v112.7
		C109.9,125.5,108.1,127.3,105.9,127.3z"/>
	<rect x="26.5" y="10.6" class="st49" width="79.8" height="114.5"/>
	<rect x="24.6" y="9" class="st50" width="80.3" height="114.9"/>
	<g>
		<g>
			<g>
				<g>
					<rect x="49.3" y="29.7" class="st49" width="43.7" height="1"/>
					<rect x="49.3" y="31.8" class="st49" width="43.7" height="1"/>
					<rect x="49.3" y="33.8" class="st49" width="43.7" height="1"/>
					<rect x="49.3" y="35.8" class="st49" width="22.1" height="1"/>
				</g>
			</g>
		</g>
		<g>
			<g>
				<g>
					<rect x="49.3" y="40.3" class="st49" width="43.7" height="1"/>
					<rect x="49.3" y="42.3" class="st49" width="43.7" height="1"/>
					<rect x="49.3" y="44.3" class="st49" width="43.7" height="1"/>
					<rect x="49.3" y="46.3" class="st49" width="22.1" height="1"/>
				</g>
			</g>
		</g>
		<g>
			<g>
				<g>
					<rect x="49.3" y="50.8" class="st49" width="43.7" height="1"/>
					<rect x="49.3" y="52.8" class="st49" width="43.7" height="1"/>
					<rect x="49.3" y="54.8" class="st49" width="43.7" height="1"/>
					<rect x="49.3" y="56.8" class="st49" width="22.1" height="1"/>
				</g>
			</g>
		</g>
		<g>
			<g>
				<g>
					<rect x="49.3" y="61.4" class="st49" width="43.7" height="1"/>
					<rect x="49.3" y="63.4" class="st49" width="43.7" height="1"/>
					<rect x="49.3" y="65.4" class="st49" width="43.7" height="1"/>
					<rect x="49.3" y="67.4" class="st49" width="22.1" height="1"/>
				</g>
			</g>
		</g>
		<g>
			<g>
				<g>
					<rect x="49.3" y="71.9" class="st49" width="43.7" height="1"/>
					<rect x="49.3" y="73.9" class="st49" width="43.7" height="1"/>
					<rect x="49.3" y="75.9" class="st49" width="43.7" height="1"/>
					<rect x="49.3" y="77.9" class="st49" width="22.1" height="1"/>
				</g>
			</g>
		</g>
		<g>
			<g>
				<g>
					<rect x="49.3" y="83.5" class="st49" width="43.7" height="1"/>
					<rect x="49.3" y="85.5" class="st49" width="43.7" height="1"/>
					<rect x="49.3" y="87.5" class="st49" width="43.7" height="1"/>
					<rect x="49.3" y="89.5" class="st49" width="22.1" height="1"/>
				</g>
			</g>
		</g>
		<g>
			<g>
				<g>
					<rect x="49.3" y="94" class="st49" width="43.7" height="1"/>
					<rect x="49.3" y="96" class="st49" width="43.7" height="1"/>
					<rect x="49.3" y="98" class="st49" width="43.7" height="1"/>
					<rect x="49.3" y="100" class="st49" width="22.1" height="1"/>
				</g>
			</g>
		</g>
		<g>
			<g>
				<g>
					<rect x="49.3" y="104.5" class="st49" width="43.7" height="1"/>
					<rect x="49.3" y="106.5" class="st49" width="43.7" height="1"/>
					<rect x="49.3" y="108.5" class="st49" width="43.7" height="1"/>
					<rect x="49.3" y="110.5" class="st49" width="22.1" height="1"/>
				</g>
			</g>
		</g>
		<g>
			<path class="st51" d="M42.4,38h-8.7v-8.7h8.7V38z M34.2,37.6H42v-7.8h-7.8V37.6z"/>
			<polygon class="st52" points="36.6,31.4 38.1,33.7 44.3,29.2 44.9,30.2 37.9,35.5 35.6,32.4 			"/>
		</g>
		<g>
			<path class="st51" d="M42.4,48.7h-8.7V40h8.7V48.7z M34.2,48.3H42v-7.8h-7.8V48.3z"/>
			<polygon class="st52" points="36.6,42 38.1,44.4 44.3,39.9 44.9,40.8 37.9,46.2 35.6,43 			"/>
		</g>
		<g>
			<path class="st51" d="M42.4,59.3h-8.7v-8.7h8.7V59.3z M34.2,58.9H42v-7.8h-7.8V58.9z"/>
			<polygon class="st52" points="36.6,52.7 38.1,55 44.3,50.5 44.9,51.5 37.9,56.8 35.6,53.7 			"/>
		</g>
		<g>
			<path class="st51" d="M42.4,70h-8.7v-8.7h8.7V70z M34.2,69.6H42v-7.8h-7.8V69.6z"/>
			<polygon class="st52" points="36.6,63.3 38.1,65.7 44.3,61.2 44.9,62.1 37.9,67.5 35.6,64.3 			"/>
		</g>
		<g>
			<path class="st51" d="M42.4,80.6h-8.7V72h8.7V80.6z M34.2,80.2H42v-7.8h-7.8V80.2z"/>
			<polygon class="st52" points="36.6,74 38.1,76.3 44.3,71.8 44.9,72.8 37.9,78.1 35.6,75 			"/>
		</g>
		<g>
			<path class="st51" d="M42.4,91.3h-8.7v-8.7h8.7V91.3z M34.2,90.9H42V83h-7.8V90.9z"/>
			<polygon class="st52" points="36.6,84.6 38.1,87 44.3,82.5 44.9,83.4 37.9,88.8 35.6,85.6 			"/>
		</g>
		<g>
			<path class="st51" d="M42.4,101.9h-8.7v-8.7h8.7V101.9z M34.2,101.5H42v-7.8h-7.8V101.5z"/>
			<polygon class="st52" points="36.6,95.3 38.1,97.6 44.3,93.1 44.9,94.1 37.9,99.4 35.6,96.3 			"/>
		</g>
		<g>
			<path class="st51" d="M42.4,112.6h-8.7v-8.7h8.7V112.6z M34.2,112.2H42v-7.8h-7.8V112.2z"/>
			<polygon class="st52" points="36.6,105.9 38.1,108.3 44.3,103.8 44.9,104.7 37.9,110.1 35.6,106.9 			"/>
		</g>
	</g>
	<g>
		<path class="st53" d="M80,17.3H51v-3.3h29.7v2.7C80.6,17,80.4,17.3,80,17.3z"/>
		<g>
			<path class="st54" d="M84.7,14.5H44.8c-1,0-1.7-0.8-1.7-1.7v-5c0-1,0.8-1.7,1.7-1.7h39.9c1,0,1.7,0.8,1.7,1.7v5
				C86.4,13.7,85.6,14.5,84.7,14.5z M44.8,7.2c-0.3,0-0.5,0.2-0.5,0.5v5c0,0.3,0.2,0.5,0.5,0.5h39.9c0.3,0,0.5-0.2,0.5-0.5v-5
				c0-0.3-0.2-0.5-0.5-0.5H44.8z"/>
		</g>
		<g>
			<defs>
				<path id="XMLID_00000062181480149303241020000009799590342912837277_" d="M79.3,16.2H50.1c-0.2,0-0.4-0.2-0.4-0.4V12
					c0-0.2,0.2-0.4,0.4-0.4h29.2c0.2,0,0.4,0.2,0.4,0.4v3.7C79.7,16,79.5,16.2,79.3,16.2z"/>
			</defs>
			<use xlink:href="#XMLID_00000062181480149303241020000009799590342912837277_"  style="overflow:visible;fill:#26415E;"/>
			<clipPath id="XMLID_00000027606093566007443840000003522197561829264813_">
				<use xlink:href="#XMLID_00000062181480149303241020000009799590342912837277_"  style="overflow:visible;"/>
			</clipPath>
			
				<rect x="48" y="12.5" style="opacity:0.16;clip-path:url(#XMLID_00000027606093566007443840000003522197561829264813_);fill:#FFFFFF;" width="33.6" height="1.4"/>
		</g>
		<path class="st56" d="M67.6,3.8c-0.2-1.5-1.4-2.6-3-2.6h0c-1.5,0-2.8,1.1-3,2.6H56V9h17.4V3.8H67.6z M64.7,4.1
			c-0.4,0-0.8-0.4-0.8-0.8s0.4-0.8,0.8-0.8s0.8,0.4,0.8,0.8S65.1,4.1,64.7,4.1z"/>
	</g>
	<path class="st57" d="M125.9,99.3l-2.9-3c-0.4-0.4-0.6-1-0.6-1.7v-3.1h0.2c0.5,0,0.9-0.4,0.9-0.9v-3.4c0-0.5-0.4-0.9-0.9-0.9h-0.4
		h-0.7h-0.5h-0.7h-0.5h-0.7h-0.5h-0.7H117h-0.7h-0.5H115h-0.5h-0.7h-0.5h-0.7h-0.5h-0.7h-0.5h-0.7h-0.5h-0.7H108h-0.7h-0.4
		c-0.5,0-0.9,0.4-0.9,0.9v3.4c0,0.5,0.4,0.9,0.9,0.9h0.2v3.1c0,0.7-0.2,1.3-0.6,1.7l-2.9,3c-0.9,1-1.5,2.3-1.5,3.8v21.8
		c0,1.8,1.3,3.3,2.9,3.3h9.1l0,0h10.5c1.6,0,2.9-1.5,2.9-3.3v-21.8C127.4,101.7,126.9,100.3,125.9,99.3z"/>
	<path class="st57" d="M119.5,99l-2.9-3c-0.4-0.4-0.6-1-0.6-1.7v-3.1h0.2c0.5,0,0.9-0.4,0.9-0.9v-3.4c0-0.5-0.4-0.9-0.9-0.9h-0.4
		h-0.7h-0.5h-0.7h-0.5h-0.7h-0.5h-0.7h-0.5h-0.7h-0.5h-0.7H108h-0.7h-0.5h-0.7h-0.5h-0.7h-0.5h-0.7h-0.5h-0.7h-0.5h-0.7h-0.4
		c-0.5,0-0.9,0.4-0.9,0.9v3.4c0,0.5,0.4,0.9,0.9,0.9h0.2v3.1c0,0.7-0.2,1.3-0.6,1.7L97,99c-0.9,1-1.5,2.3-1.5,3.8v21.8
		c0,1.8,1.3,3.3,2.9,3.3h9.1l0,0H118c1.6,0,2.9-1.5,2.9-3.3v-21.8C120.9,101.3,120.4,99.9,119.5,99z"/>
	<g>
		<g>
			<path class="st1" d="M99.4,127.9c-1.7,0-3.1-1.5-3.1-3.4v-22.7c0-1.5,0.6-2.9,1.6-3.9l3.1-3.2c0.4-0.4,0.7-1.1,0.7-1.8v-7.2h16.5
				v7.2c0,0.7,0.2,1.3,0.7,1.8l3.1,3.2c1,1,1.6,2.4,1.6,3.9v22.7c0,1.9-1.4,3.4-3.1,3.4H99.4z"/>
			<g>
				<defs>
					<path id="XMLID_00000183962826042324160770000001071002106129989031_" d="M121,98.7l-3.1-3.2c-0.7-0.7-1-1.6-1-2.7V87h-7h-7
						v5.9c0,1-0.4,2-1,2.7l-3.1,3.2c-0.8,0.8-1.2,1.9-1.2,3v22.7c0,1.2,0.8,2.1,1.8,2.1h10.5h10.5c1,0,1.8-0.9,1.8-2.1v-22.7
						C122.2,100.6,121.8,99.5,121,98.7z"/>
				</defs>
				<use xlink:href="#XMLID_00000183962826042324160770000001071002106129989031_"  style="overflow:visible;fill:#B0D7ED;"/>
				<clipPath id="XMLID_00000096766366689467997160000013254078001584643975_">
					<use xlink:href="#XMLID_00000183962826042324160770000001071002106129989031_"  style="overflow:visible;"/>
				</clipPath>
				
					<rect x="96.3" y="93.1" style="clip-path:url(#XMLID_00000096766366689467997160000013254078001584643975_);fill:#76B0CE;" width="27.2" height="37.7"/>
			</g>
			<path class="st49" d="M110.6,127.9h9.8c1.7,0,3.1-1.5,3.1-3.4v-22.7c0-1.5-0.6-2.9-1.6-3.9l-3.1-3.2c-0.4-0.4-0.7-1.1-0.7-1.8
				v-7.2h-7.6L110.6,127.9z"/>
			<g>
				<path class="st56" d="M118.3,89.7h-16.8c-0.5,0-1-0.4-1-1v-3.5c0-0.5,0.4-1,1-1h16.8c0.5,0,1,0.4,1,1v3.5
					C119.3,89.3,118.8,89.7,118.3,89.7z"/>
				<g>
					<rect x="101.9" y="84.3" class="st59" width="0.8" height="5.5"/>
					<rect x="103.3" y="84.3" class="st59" width="0.8" height="5.5"/>
					<rect x="104.7" y="84.3" class="st59" width="0.8" height="5.5"/>
					<rect x="106.1" y="84.3" class="st59" width="0.8" height="5.5"/>
					<rect x="107.4" y="84.3" class="st59" width="0.8" height="5.5"/>
					<rect x="108.8" y="84.3" class="st59" width="0.8" height="5.5"/>
					<rect x="110.2" y="84.3" class="st59" width="0.8" height="5.5"/>
					<rect x="111.6" y="84.3" class="st59" width="0.8" height="5.5"/>
					<rect x="112.9" y="84.3" class="st59" width="0.8" height="5.5"/>
					<rect x="114.3" y="84.3" class="st59" width="0.8" height="5.5"/>
					<rect x="115.7" y="84.3" class="st59" width="0.8" height="5.5"/>
					<rect x="117.1" y="84.3" class="st59" width="0.8" height="5.5"/>
				</g>
			</g>
		</g>
		<g>
			<defs>
				<path id="XMLID_00000011716025241836623550000017093546519985144219_" d="M119.4,124.7h-19c-0.6,0-1.1-0.5-1.1-1.1v-22
					c0-0.6,0.5-1.1,1.1-1.1h19c0.6,0,1.1,0.5,1.1,1.1v22C120.5,124.3,120,124.7,119.4,124.7z"/>
			</defs>
			<use xlink:href="#XMLID_00000011716025241836623550000017093546519985144219_"  style="overflow:visible;fill:#FFFFFF;"/>
			<clipPath id="XMLID_00000078754080935004708330000001147846051640054145_">
				<use xlink:href="#XMLID_00000011716025241836623550000017093546519985144219_"  style="overflow:visible;"/>
			</clipPath>
			<polygon style="opacity:0.2;clip-path:url(#XMLID_00000078754080935004708330000001147846051640054145_);fill:#98BFD8;" points="
				121.2,126.5 110.6,126.5 110.6,99.8 121.2,99.8 			"/>
		</g>
		<g>
			<rect x="100.7" y="114.1" class="st49" width="18.3" height="1.1"/>
			<rect x="100.7" y="115.8" class="st49" width="18.3" height="1.1"/>
			<rect x="100.7" y="117.5" class="st49" width="18.3" height="1.1"/>
			<rect x="100.7" y="119.3" class="st49" width="12.4" height="1.1"/>
		</g>
		<g>
			<path class="st52" d="M100.7,110.5V108h1c0.1,0,0.2,0,0.2,0c0.1,0,0.2,0.1,0.2,0.1c0.1,0.1,0.1,0.1,0.2,0.3
				c0,0.1,0.1,0.3,0.1,0.4c0,0.2,0,0.3-0.1,0.5c0,0.1-0.1,0.2-0.2,0.3c-0.1,0.1-0.1,0.1-0.2,0.1c-0.1,0-0.2,0-0.2,0c0,0-0.1,0-0.1,0
				c-0.1,0-0.1,0-0.2,0c-0.1,0-0.1,0-0.2,0c0,0-0.1,0-0.1,0v0.8H100.7z M101.2,109.3h0.5c0.1,0,0.1,0,0.1,0c0,0,0.1-0.1,0.1-0.1
				c0-0.1,0-0.1,0-0.2c0-0.1,0-0.2,0-0.2c0-0.1-0.1-0.1-0.1-0.1c0,0-0.1,0-0.1,0h-0.5V109.3z"/>
			<path class="st52" d="M102.8,110.5V108h1c0.1,0,0.2,0,0.3,0s0.2,0.1,0.2,0.1c0.1,0.1,0.1,0.1,0.2,0.2c0,0.1,0.1,0.2,0.1,0.4
				c0,0.1,0,0.2,0,0.3c0,0.1-0.1,0.1-0.1,0.2c0,0.1-0.1,0.1-0.1,0.1c0,0-0.1,0.1-0.1,0.1l0.5,1h-0.5l-0.4-0.9c0,0-0.1,0-0.1,0
				c0,0-0.1,0-0.1,0s-0.1,0-0.1,0s-0.1,0-0.1,0v0.9H102.8z M103.3,109.2h0.4c0,0,0.1,0,0.1,0c0,0,0.1,0,0.1-0.1c0,0,0-0.1,0.1-0.1
				c0,0,0-0.1,0-0.2c0-0.1,0-0.1,0-0.2c0,0,0-0.1-0.1-0.1c0,0-0.1,0-0.1-0.1c0,0-0.1,0-0.1,0h-0.4V109.2z"/>
			<path class="st52" d="M105.8,110.5c-0.2,0-0.3,0-0.4,0c-0.1,0-0.2-0.1-0.3-0.2c-0.1-0.1-0.1-0.2-0.2-0.4s-0.1-0.4-0.1-0.6
				c0-0.3,0-0.5,0.1-0.6c0-0.2,0.1-0.3,0.2-0.4c0.1-0.1,0.2-0.1,0.3-0.2c0.1,0,0.3,0,0.4,0c0.2,0,0.3,0,0.4,0c0.1,0,0.2,0.1,0.3,0.2
				c0.1,0.1,0.1,0.2,0.2,0.4c0,0.2,0.1,0.4,0.1,0.6c0,0.3,0,0.5-0.1,0.6c0,0.2-0.1,0.3-0.2,0.4c-0.1,0.1-0.2,0.1-0.3,0.2
				C106.1,110.5,106,110.5,105.8,110.5z M105.8,110c0.1,0,0.2,0,0.2,0c0.1,0,0.1-0.1,0.2-0.1c0-0.1,0.1-0.1,0.1-0.2s0-0.2,0-0.4
				c0-0.2,0-0.3,0-0.4s0-0.2-0.1-0.2s-0.1-0.1-0.2-0.1s-0.1,0-0.2,0c-0.1,0-0.2,0-0.2,0s-0.1,0.1-0.2,0.1c0,0.1-0.1,0.1-0.1,0.2
				c0,0.1,0,0.2,0,0.4c0,0.2,0,0.3,0,0.4s0,0.2,0.1,0.2c0,0.1,0.1,0.1,0.2,0.1C105.6,110,105.7,110,105.8,110z"/>
			<path class="st52" d="M107.7,110.5v-2H107V108h1.8v0.4h-0.7v2H107.7z"/>
			<path class="st52" d="M110.1,110.5c-0.2,0-0.3,0-0.4,0c-0.1,0-0.2-0.1-0.3-0.2c-0.1-0.1-0.1-0.2-0.2-0.4s-0.1-0.4-0.1-0.6
				c0-0.3,0-0.5,0.1-0.6c0-0.2,0.1-0.3,0.2-0.4c0.1-0.1,0.2-0.1,0.3-0.2c0.1,0,0.3,0,0.4,0c0.2,0,0.3,0,0.4,0c0.1,0,0.2,0.1,0.3,0.2
				c0.1,0.1,0.1,0.2,0.2,0.4c0,0.2,0.1,0.4,0.1,0.6c0,0.3,0,0.5-0.1,0.6c0,0.2-0.1,0.3-0.2,0.4c-0.1,0.1-0.2,0.1-0.3,0.2
				C110.4,110.5,110.3,110.5,110.1,110.5z M110.1,110c0.1,0,0.2,0,0.2,0c0.1,0,0.1-0.1,0.2-0.1c0-0.1,0.1-0.1,0.1-0.2s0-0.2,0-0.4
				c0-0.2,0-0.3,0-0.4s0-0.2-0.1-0.2s-0.1-0.1-0.2-0.1s-0.1,0-0.2,0c-0.1,0-0.2,0-0.2,0s-0.1,0.1-0.2,0.1c0,0.1-0.1,0.1-0.1,0.2
				c0,0.1,0,0.2,0,0.4c0,0.2,0,0.3,0,0.4s0,0.2,0.1,0.2c0,0.1,0.1,0.1,0.2,0.1C109.9,110,110,110,110.1,110z"/>
			<path class="st52" d="M112.3,110.5c-0.1,0-0.3,0-0.4,0c-0.1,0-0.2-0.1-0.3-0.2s-0.1-0.2-0.2-0.4c0-0.2-0.1-0.4-0.1-0.6
				c0-0.3,0-0.5,0.1-0.6c0-0.2,0.1-0.3,0.2-0.4c0.1-0.1,0.2-0.2,0.3-0.2c0.1,0,0.2-0.1,0.4-0.1c0.1,0,0.2,0,0.3,0s0.2,0,0.3,0
				c0.1,0,0.1,0,0.2,0.1v0.4c0,0-0.1,0-0.2,0s-0.1,0-0.2,0c-0.1,0-0.2,0-0.3,0c-0.1,0-0.2,0-0.2,0s-0.1,0.1-0.2,0.1
				s-0.1,0.1-0.1,0.2c0,0.1,0,0.2,0,0.4c0,0.2,0,0.3,0,0.4s0,0.2,0.1,0.2c0,0.1,0.1,0.1,0.2,0.1s0.1,0,0.2,0c0.2,0,0.3,0,0.4,0
				s0.2,0,0.3,0v0.4c-0.1,0-0.1,0-0.2,0.1c-0.1,0-0.2,0-0.3,0C112.5,110.5,112.4,110.5,112.3,110.5z"/>
			<path class="st52" d="M114.4,110.5c-0.2,0-0.3,0-0.4,0c-0.1,0-0.2-0.1-0.3-0.2c-0.1-0.1-0.1-0.2-0.2-0.4s-0.1-0.4-0.1-0.6
				c0-0.3,0-0.5,0.1-0.6c0-0.2,0.1-0.3,0.2-0.4c0.1-0.1,0.2-0.1,0.3-0.2c0.1,0,0.3,0,0.4,0c0.2,0,0.3,0,0.4,0c0.1,0,0.2,0.1,0.3,0.2
				c0.1,0.1,0.1,0.2,0.2,0.4c0,0.2,0.1,0.4,0.1,0.6c0,0.3,0,0.5-0.1,0.6c0,0.2-0.1,0.3-0.2,0.4c-0.1,0.1-0.2,0.1-0.3,0.2
				C114.7,110.5,114.5,110.5,114.4,110.5z M114.4,110c0.1,0,0.2,0,0.2,0c0.1,0,0.1-0.1,0.2-0.1c0-0.1,0.1-0.1,0.1-0.2s0-0.2,0-0.4
				c0-0.2,0-0.3,0-0.4s0-0.2-0.1-0.2s-0.1-0.1-0.2-0.1s-0.1,0-0.2,0c-0.1,0-0.2,0-0.2,0s-0.1,0.1-0.2,0.1c0,0.1-0.1,0.1-0.1,0.2
				c0,0.1,0,0.2,0,0.4c0,0.2,0,0.3,0,0.4s0,0.2,0.1,0.2c0,0.1,0.1,0.1,0.2,0.1C114.2,110,114.3,110,114.4,110z"/>
			<path class="st52" d="M116.3,110.5c-0.1,0-0.2,0-0.3-0.1c-0.1,0-0.2-0.1-0.2-0.2c0-0.1-0.1-0.2-0.1-0.3V108h0.5v1.8
				c0,0.1,0,0.1,0,0.1c0,0,0,0.1,0.1,0.1s0.1,0,0.1,0h0.8v0.4H116.3z"/>
			<path class="st52" d="M118.3,110.5c-0.1,0-0.1,0-0.2,0c-0.1,0-0.1,0-0.2,0c-0.1,0-0.1,0-0.2,0c-0.1,0-0.1,0-0.2,0V110
				c0.1,0,0.1,0,0.2,0s0.2,0,0.3,0c0.1,0,0.2,0,0.3,0c0.1,0,0.2,0,0.2,0c0.1,0,0.1,0,0.1-0.1c0,0,0-0.1,0-0.2v-0.1
				c0-0.1,0-0.1-0.1-0.2c0,0-0.1-0.1-0.2-0.1h-0.2c-0.2,0-0.4-0.1-0.5-0.2c-0.1-0.1-0.2-0.3-0.2-0.5v-0.1c0-0.2,0.1-0.4,0.2-0.5
				s0.3-0.2,0.6-0.2c0.1,0,0.2,0,0.3,0s0.2,0,0.3,0c0.1,0,0.2,0,0.2,0v0.4c-0.1,0-0.2,0-0.3,0c-0.1,0-0.2,0-0.3,0
				c-0.1,0-0.1,0-0.2,0c-0.1,0-0.1,0-0.1,0.1s0,0.1,0,0.2v0.1c0,0.1,0,0.1,0.1,0.2c0,0,0.1,0.1,0.2,0.1h0.2c0.1,0,0.3,0,0.4,0.1
				c0.1,0.1,0.2,0.1,0.2,0.2c0,0.1,0.1,0.2,0.1,0.3v0.1c0,0.2,0,0.3-0.1,0.4s-0.2,0.2-0.3,0.2C118.6,110.5,118.4,110.5,118.3,110.5z
				"/>
		</g>
	</g>
	<path class="st61" d="M115,95.1L115,95.1c-0.4,0-0.7-0.3-0.7-0.7v-2.9c0-0.4,0.3-0.7,0.7-0.7l0,0c0.4,0,0.7,0.3,0.7,0.7v2.9
		C115.7,94.8,115.4,95.1,115,95.1z"/>
	<g>
		<g>
			<path class="st57" d="M129.5,122l-0.4,0c-0.4,0.1-0.7,0.4-0.7,0.9l0.2,1.4c0,0.1-0.1,0.2-0.2,0.2l-22.5,1.8l0-0.1l-2.3,0.3
				c-0.1,0-0.2-0.1-0.2-0.2l-0.2-2c0-0.3-0.3-0.5-0.6-0.5l-0.9,0.1c-0.3,0-0.5,0.3-0.5,0.6l0,0.2c0,0.1-0.1,0.2-0.2,0.2l-37.2,4.5
				c-1,0.1-1.7,1-1.6,2l0.1,0.5c0,0.1-0.1,0.2-0.2,0.2l-1.6,0.2l0,0l-0.5,0.1c0,0-0.1,0-0.1,0l-3.3,2.9l0,0l-15.1,1.8
				c-0.2,0-0.2,0.2-0.1,0.3l0.4,0.2c0,0,0.1,0,0.1,0l14.8-1.8l0,0c0,0.1,0,0.1,0.1,0.1l3.8,2c0,0,0.1,0,0.1,0l0.5-0.1l0,0l1.6-0.2
				c0.1,0,0.2,0.1,0.2,0.2l0.1,0.5c0.1,1,1,1.7,2,1.6l37.2-4.5c0.1,0,0.2,0.1,0.2,0.2l0.1,0.5c0,0.3,0.3,0.5,0.6,0.5l0.9-0.1
				c0.3,0,0.5-0.3,0.5-0.6l-0.2-2c0-0.1,0.1-0.2,0.2-0.2l24.5-3.9c0.1,0,0.2,0.1,0.2,0.2l0.2,1.3c0.1,0.4,0.4,0.7,0.9,0.7l0.4,0
				c0.4-0.1,0.7-0.4,0.7-0.9l-1-8.3C130.3,122.2,129.9,121.9,129.5,122z"/>
			<g>
				<path class="st1" d="M103.4,133.6l-38.1,4.6c-0.9,0.1-1.7-0.5-1.9-1.5l-0.1-0.8l-2.3,0.3l-0.7-5.7l2.3-0.3l-0.1-0.8
					c-0.1-0.9,0.5-1.7,1.5-1.9l38.1-4.6L103.4,133.6z"/>
				<g>
					<defs>
						<path id="XMLID_00000138575461659737127830000013886421686841714582_" d="M63.2,130.6l-2.3,0.3l0.6,4.7l2.3-0.3l0.2,1.3
							c0.1,0.6,0.6,1.1,1.3,1l37.6-4.5l-1.2-9.6L64.1,128c-0.6,0.1-1.1,0.6-1,1.3L63.2,130.6z"/>
					</defs>
					<use xlink:href="#XMLID_00000138575461659737127830000013886421686841714582_"  style="overflow:visible;fill:#B0D7ED;"/>
					<clipPath id="XMLID_00000127735065951430468220000012005452636268014774_">
						<use xlink:href="#XMLID_00000138575461659737127830000013886421686841714582_"  style="overflow:visible;"/>
					</clipPath>
					<polygon style="clip-path:url(#XMLID_00000127735065951430468220000012005452636268014774_);fill:#76B0CE;" points="
						59.9,128.5 61.4,139.7 91.3,136.1 89.7,124.3 					"/>
					
						<rect x="75.1" y="109.8" transform="matrix(-0.1191 -0.9929 0.9929 -0.1191 -39.4007 227.9487)" style="clip-path:url(#XMLID_00000127735065951430468220000012005452636268014774_);fill:#76B0CE;" width="12.6" height="43.3"/>
				</g>
				<polygon class="st50" points="58.8,133.2 58.9,133.8 42.2,135.8 41.4,135.3 				"/>
				<polygon class="st59" points="60.9,130.4 61.5,136.1 61,136.1 57.1,134.1 57,133.4 60.3,130.5 				"/>
				<path class="st59" d="M103.6,122.2l1.4,12.1c0,0.2-0.1,0.4-0.4,0.5l-1.3,0.2c-0.2,0-0.4-0.1-0.5-0.4l-1.4-12.1
					c0-0.2,0.1-0.4,0.4-0.5l1.3-0.2C103.4,121.8,103.6,121.9,103.6,122.2z"/>
				
					<rect x="86.8" y="127.7" transform="matrix(-0.1191 -0.9929 0.9929 -0.1191 -26.0854 236.0303)" class="st63" width="9.7" height="3.9"/>
				
					<rect x="89" y="125.3" transform="matrix(-0.1191 -0.9929 0.9929 -0.1191 -24.024 233.0575)" class="st64" width="4.8" height="3.9"/>
				<g>
					
						<rect x="96.3" y="126.3" transform="matrix(-0.1191 -0.9929 0.9929 -0.1191 -19.9424 243.6685)" class="st65" width="3.7" height="8.7"/>
					
						<rect x="95.9" y="122.7" transform="matrix(-0.1191 -0.9929 0.9929 -0.1191 -16.8122 239.1542)" class="st66" width="3.6" height="8.7"/>
				</g>
				<g>
					<polygon class="st65" points="129.3,125.2 129.6,127.9 104.8,131.8 104.3,128.2 					"/>
					<polygon class="st66" points="129,122.6 129.3,125.2 104.3,128.2 103.9,124.6 					"/>
				</g>
				<g>
					
						<rect x="64.8" y="136.3" transform="matrix(-0.1191 -0.9929 0.9929 -0.1191 -61.6228 218.1458)" class="st59" width="2.2" height="0.3"/>
					
						<rect x="66.3" y="136.1" transform="matrix(-0.1191 -0.9929 0.9929 -0.1191 -59.847 219.3772)" class="st59" width="2.2" height="0.3"/>
					
						<rect x="67.7" y="135.9" transform="matrix(-0.1191 -0.9929 0.9929 -0.1191 -58.0711 220.6086)" class="st59" width="2.2" height="0.3"/>
					
						<rect x="69.1" y="135.7" transform="matrix(-0.1191 -0.9929 0.9929 -0.1191 -56.2953 221.84)" class="st59" width="2.2" height="0.3"/>
					
						<rect x="70.6" y="135.6" transform="matrix(-0.1191 -0.9929 0.9929 -0.1191 -54.5194 223.0714)" class="st59" width="2.2" height="0.3"/>
					
						<rect x="72" y="135.4" transform="matrix(-0.1191 -0.9929 0.9929 -0.1191 -52.7432 224.3032)" class="st59" width="2.2" height="0.3"/>
					
						<rect x="73.4" y="135.2" transform="matrix(-0.1191 -0.9929 0.9929 -0.1191 -50.9674 225.5346)" class="st59" width="2.2" height="0.3"/>
					
						<rect x="74.9" y="135" transform="matrix(-0.1191 -0.9929 0.9929 -0.1191 -49.1915 226.7659)" class="st59" width="2.2" height="0.3"/>
					
						<rect x="76.3" y="134.9" transform="matrix(-0.1191 -0.9929 0.9929 -0.1191 -47.4156 227.9974)" class="st59" width="2.2" height="0.3"/>
					
						<rect x="77.7" y="134.7" transform="matrix(-0.1191 -0.9929 0.9929 -0.1191 -45.6398 229.2287)" class="st59" width="2.2" height="0.3"/>
					
						<rect x="79.2" y="134.5" transform="matrix(-0.1191 -0.9929 0.9929 -0.1191 -43.864 230.4601)" class="st59" width="2.2" height="0.3"/>
					
						<rect x="80.6" y="134.4" transform="matrix(-0.1191 -0.9929 0.9929 -0.1191 -42.0881 231.6914)" class="st59" width="2.2" height="0.3"/>
					
						<rect x="82" y="134.2" transform="matrix(-0.1191 -0.9929 0.9929 -0.1191 -40.3122 232.9229)" class="st59" width="2.2" height="0.3"/>
					
						<rect x="83.5" y="134" transform="matrix(-0.1191 -0.9929 0.9929 -0.1191 -38.5364 234.1542)" class="st59" width="2.2" height="0.3"/>
					
						<rect x="84.9" y="133.8" transform="matrix(-0.1191 -0.9929 0.9929 -0.1191 -36.7605 235.3855)" class="st59" width="2.2" height="0.3"/>
					
						<rect x="86.3" y="133.7" transform="matrix(-0.1191 -0.9929 0.9929 -0.1191 -34.9847 236.6169)" class="st59" width="2.2" height="0.3"/>
					
						<rect x="87.8" y="133.5" transform="matrix(-0.1191 -0.9929 0.9929 -0.1191 -33.2088 237.8483)" class="st59" width="2.2" height="0.3"/>
					
						<rect x="89.2" y="133.3" transform="matrix(-0.1191 -0.9929 0.9929 -0.1191 -31.433 239.0797)" class="st59" width="2.2" height="0.3"/>
					
						<rect x="90.6" y="133.2" transform="matrix(-0.1191 -0.9929 0.9929 -0.1191 -29.6571 240.311)" class="st59" width="2.2" height="0.3"/>
					
						<rect x="92.1" y="133" transform="matrix(-0.1191 -0.9929 0.9929 -0.1191 -27.8812 241.5424)" class="st59" width="2.2" height="0.3"/>
					
						<rect x="93.5" y="132.8" transform="matrix(-0.1191 -0.9929 0.9929 -0.1191 -26.1054 242.7738)" class="st59" width="2.2" height="0.3"/>
					
						<rect x="95" y="132.6" transform="matrix(-0.1191 -0.9929 0.9929 -0.1191 -24.3296 244.0051)" class="st59" width="2.2" height="0.3"/>
					
						<rect x="96.4" y="132.5" transform="matrix(-0.1191 -0.9929 0.9929 -0.1191 -22.5537 245.2365)" class="st59" width="2.2" height="0.3"/>
					
						<rect x="97.8" y="132.3" transform="matrix(-0.1191 -0.9929 0.9929 -0.1191 -20.7783 246.4675)" class="st59" width="2.2" height="0.3"/>
					
						<rect x="99.3" y="132.1" transform="matrix(-0.1191 -0.9929 0.9929 -0.1191 -19.0025 247.6988)" class="st59" width="2.2" height="0.3"/>
				</g>
				<polygon class="st67" points="94,133 95.2,132.9 95.6,125.5 93.1,125.8 				"/>
				<polygon class="st67" points="104.7,131.9 105.9,131.7 106.4,124.3 103.9,124.6 				"/>
				<path class="st59" d="M130.7,120.7l1,8.6c0,0.3-0.2,0.7-0.5,0.7l-0.7,0.1c-0.3,0-0.7-0.2-0.7-0.5l-1-8.6c0-0.3,0.2-0.7,0.5-0.7
					l0.7-0.1C130.4,120.1,130.7,120.3,130.7,120.7z"/>
				<polygon class="st68" points="61.5,135.6 60.9,130.9 61.9,130.8 61.8,135.5 				"/>
			</g>
		</g>
		<path class="st61" d="M77,129l-11.6,1.4c-0.5,0.1-0.9-0.3-0.9-0.7l0,0c-0.1-0.5,0.3-0.9,0.7-0.9l11.6-1.4c0.5-0.1,0.9,0.3,0.9,0.7
			l0,0C77.8,128.5,77.5,128.9,77,129z"/>
		<path class="st61" d="M81,128.5l-1.8,0.2c-0.5,0.1-0.9-0.3-0.9-0.7v0c-0.1-0.5,0.3-0.9,0.7-0.9l1.8-0.2c0.5-0.1,0.9,0.3,0.9,0.7
			l0,0C81.8,128,81.4,128.4,81,128.5z"/>
	</g>
	<g>
		<circle class="st69" cx="111.4" cy="143.1" r="4.5"/>
		<circle class="st69" cx="120.6" cy="148.7" r="4.5"/>
		<circle class="st69" cx="122.3" cy="138.7" r="4.5"/>
		<g>
			<circle class="st50" cx="121.7" cy="138.1" r="4.5"/>
			<path class="st69" d="M119.2,140.9L119.2,140.9c-0.2-0.2-0.2-0.4,0-0.6l4.5-5c0.2-0.2,0.4-0.2,0.6,0l0,0c0.2,0.2,0.2,0.4,0,0.6
				l-4.5,5C119.6,141.1,119.4,141.1,119.2,140.9z"/>
		</g>
		<g>
			<circle class="st50" cx="120.1" cy="148.2" r="4.5"/>
			<path class="st69" d="M120.1,152L120.1,152c-0.2,0-0.4-0.2-0.4-0.4v-6.7c0-0.2,0.2-0.4,0.4-0.4h0c0.2,0,0.4,0.2,0.4,0.4v6.7
				C120.6,151.8,120.4,152,120.1,152z"/>
		</g>
		<g>
			<circle class="st50" cx="110.9" cy="142.6" r="4.5"/>
			<path class="st69" d="M114.6,143.4L114.6,143.4c-0.1,0.2-0.3,0.4-0.5,0.3l-6.5-1.5c-0.2-0.1-0.4-0.3-0.3-0.5l0,0
				c0.1-0.2,0.3-0.4,0.5-0.3l6.5,1.5C114.5,143,114.7,143.2,114.6,143.4z"/>
		</g>
	</g>
</g>
</svg>
