<?xml version="1.0" encoding="utf-8"?>
<!-- Generator: Adobe Illustrator 27.2.0, SVG Export Plug-In . SVG Version: 6.00 Build 0)  -->
<svg version="1.1" id="Layer_1" xmlns="http://www.w3.org/2000/svg" xmlns:xlink="http://www.w3.org/1999/xlink" x="0px" y="0px"
	 viewBox="0 0 1161.1 180" style="enable-background:new 0 0 1161.1 180;" xml:space="preserve">
<style type="text/css">
	.st0{fill:#6F61C0;}
	.st1{fill:#37517E;}
</style>
<g>
	<path class="st0" d="M194.1,95.2v13.2h-28.5l-14.8,28.2c-1.4,2.5-3.8,3.9-6.6,3.6c-2.7,0-4.9-1.9-5.8-4.4l-11.2-32.6l-9.9,23.8
		c-1.4,2.5-4.1,4.1-7.1,4.1c-2.7-0.5-5.2-2.7-5.8-5.8l-9.3-57.6l-11.2,87.7c-0.3,3.3-3,5.8-6.3,5.8c0,0,0,0-0.3,0
		c-3,0-5.8-2.5-6.6-5.5L57.8,88.1l-8,16.7c-1.1,2.2-3.6,3.6-6,3.6H16.2V95.2h23.3L54.6,64c1.4-2.7,4.1-4.1,6.9-3.8
		c3,0.5,5.2,2.5,5.8,5.5l9,47.7l11.5-89.1c0.3-3.3,3-5.5,6.3-5.5c3.3-0.3,6,2.2,6.9,5.5l12.6,76.8l8.2-19.2c1.1-2.5,3.6-4.4,6.3-4.1
		c3,0,5.2,1.9,6.3,4.4l11.8,34.8l9.6-18.1c1.1-2.2,3.3-3.6,5.8-3.6h32.5V95.2z"/>
</g>
<g>
	<path class="st1" d="M222.4,49.9h23.4c6.3,0,11.2,0.5,14.6,1.5s6,2.4,7.7,4.3c1.7,1.9,2.9,4.1,3.5,6.8c0.6,2.7,0.9,6.8,0.9,12.4
		v7.8c0,5.7-0.6,9.9-1.8,12.5c-1.2,2.6-3.3,4.6-6.5,6c-3.1,1.4-7.3,2.1-12.3,2.1h-6.2v36h-23.2V49.9z M245.6,65.2v22.7
		c0.7,0,1.2,0.1,1.7,0.1c2.1,0,3.6-0.5,4.4-1.6c0.8-1,1.2-3.2,1.2-6.5v-7.3c0-3.1-0.5-5-1.4-6C250.6,65.6,248.6,65.2,245.6,65.2z"/>
	<path class="st1" d="M328.6,49.9l-16.9,57v32.3h-21.5v-32.3l-16.3-57h21.3c3.3,17.4,5.2,29.2,5.6,35.2c1.3-9.5,3.4-21.3,6.5-35.2
		H328.6z"/>
	<path class="st1" d="M379.7,49.9l-8.2,39.5l12.3,49.8h-21.5c-2.6-8.9-4.9-19.8-7.1-32.6c-0.6,5.7-1.4,11.7-2.4,18l-2.2,14.6H328
		l8.4-49.8L328,49.9h22.5c0.4,2.5,1.2,6.6,2.4,12.3c1,4.4,1.8,8.4,2.4,12.1l5-24.4H379.7z"/>
	<path class="st1" d="M410.3,49.9v89.3h-23.2V49.9H410.3z"/>
	<path class="st1" d="M468.9,76.9h-21.6v-6.6c0-3.1-0.3-5.1-0.8-5.9c-0.6-0.8-1.5-1.3-2.8-1.3c-1.4,0-2.5,0.6-3.2,1.7
		c-0.7,1.1-1.1,2.9-1.1,5.2c0,3,0.4,5.2,1.2,6.7c0.8,1.5,3,3.3,6.6,5.5c10.3,6.1,16.9,11.2,19.5,15.1c2.7,3.9,4,10.3,4,19
		c0,6.4-0.7,11.1-2.2,14.1c-1.5,3-4.4,5.5-8.6,7.6c-4.3,2-9.2,3.1-14.9,3.1c-6.2,0-11.5-1.2-15.9-3.5c-4.4-2.4-7.3-5.4-8.6-9
		c-1.4-3.6-2-8.8-2-15.5v-5.8H440v10.9c0,3.3,0.3,5.5,0.9,6.5c0.6,1,1.7,1.4,3.2,1.4s2.7-0.6,3.4-1.8s1.1-3,1.1-5.4
		c0-5.3-0.7-8.7-2.2-10.3c-1.5-1.6-5.1-4.3-10.9-8.1c-5.8-3.8-9.6-6.6-11.5-8.3c-1.9-1.7-3.4-4.1-4.7-7.2c-1.2-3.1-1.8-7-1.8-11.7
		c0-6.8,0.9-11.8,2.6-15c1.7-3.2,4.6-5.6,8.5-7.4s8.6-2.7,14.1-2.7c6,0,11.2,1,15.4,2.9c4.2,2,7.1,4.4,8.4,7.4c1.4,3,2.1,8,2.1,15.1
		V76.9z"/>
	<path class="st1" d="M544.8,49.9v17.9H531v71.5h-23.2V67.8H494V49.9H544.8z"/>
	<path class="st1" d="M550.1,49.9h16.4c11,0,18.4,0.4,22.3,1.3c3.9,0.8,7,3,9.5,6.5c2.4,3.5,3.7,9,3.7,16.6c0,7-0.9,11.6-2.6,14
		c-1.7,2.4-5.1,3.8-10.2,4.3c4.6,1.1,7.7,2.7,9.3,4.6c1.6,1.9,2.6,3.7,3,5.3c0.4,1.6,0.6,6,0.6,13.2v23.6h-21.6v-29.7
		c0-4.8-0.4-7.7-1.1-8.9c-0.8-1.1-2.7-1.7-5.9-1.7v40.3h-23.2V49.9z M573.3,65.2V85c2.6,0,4.4-0.4,5.5-1.1c1-0.7,1.6-3,1.6-7v-4.9
		c0-2.8-0.5-4.7-1.5-5.6S576,65.2,573.3,65.2z"/>
	<path class="st1" d="M651.1,49.9l13.3,89.3h-23.7l-1.2-16.1h-8.3l-1.4,16.1h-24l11.8-89.3H651.1z M638.8,107.3
		c-1.2-10.1-2.4-22.6-3.5-37.5c-2.4,17.1-3.9,29.6-4.5,37.5H638.8z"/>
	<path class="st1" d="M668.3,49.9h17.4c11.2,0,18.8,0.5,22.8,1.5c4,1,7,2.7,9,5.1c2.1,2.4,3.3,5,3.9,7.9c0.5,2.9,0.8,8.6,0.8,17
		v31.3c0,8-0.4,13.4-1.1,16.1c-0.8,2.7-2.1,4.8-3.9,6.3c-1.9,1.5-4.2,2.6-7,3.2c-2.8,0.6-6.9,0.9-12.5,0.9h-29.3V49.9z M691.6,65.2
		v58.8c3.3,0,5.4-0.7,6.2-2c0.8-1.3,1.2-5,1.2-11V76.3c0-4-0.1-6.6-0.4-7.8c-0.3-1.1-0.8-2-1.8-2.5
		C695.8,65.4,694.1,65.2,691.6,65.2z"/>
	<path class="st1" d="M730.8,49.9h38.7v17.9H754v16.9h14.5v17H754v19.6h17v17.9h-40.3V49.9z"/>
	<path class="st1" d="M797.7,49.9h16.4c11,0,18.4,0.4,22.3,1.3c3.9,0.8,7,3,9.5,6.5c2.4,3.5,3.7,9,3.7,16.6c0,7-0.9,11.6-2.6,14
		c-1.7,2.4-5.1,3.8-10.2,4.3c4.6,1.1,7.7,2.7,9.3,4.6c1.6,1.9,2.6,3.7,3,5.3c0.4,1.6,0.6,6,0.6,13.2v23.6H828v-29.7
		c0-4.8-0.4-7.7-1.1-8.9c-0.8-1.1-2.7-1.7-5.9-1.7v40.3h-23.2V49.9z M820.9,65.2V85c2.6,0,4.4-0.4,5.5-1.1c1-0.7,1.6-3,1.6-7v-4.9
		c0-2.8-0.5-4.7-1.5-5.6S823.6,65.2,820.9,65.2z"/>
	<path class="st1" d="M858.5,49.9h38.7v17.9h-15.5v16.9h14.5v17h-14.5v19.6h17v17.9h-40.3V49.9z"/>
	<path class="st1" d="M960.7,49.9l-11.8,89.3h-35.3l-13.4-89.3h24.5c2.8,24.6,4.9,45.4,6.1,62.5c1.2-17.2,2.5-32.5,3.8-45.8
		l1.6-16.6H960.7z"/>
	<path class="st1" d="M987.9,49.9v89.3h-23.2V49.9H987.9z"/>
	<path class="st1" d="M997.2,49.9h38.7v17.9h-15.5v16.9h14.5v17h-14.5v19.6h17v17.9h-40.3V49.9z"/>
	<path class="st1" d="M1131.6,49.9l-10.3,89.3h-29c-2.7-13.7-5-29.3-7-46.8c-0.9,7.5-3.1,23.1-6.5,46.8h-28.8l-10.4-89.3h22.6
		l2.5,31.2l2.4,30.1c0.9-15.6,3-36,6.4-61.3h24.1c0.3,2.6,1.2,12.4,2.5,29.5l2.6,34c1.3-21.6,3.5-42.8,6.5-63.5H1131.6z"/>
</g>
</svg>
