<?xml version="1.0" encoding="utf-8"?>
<!-- Generator: Adobe Illustrator 27.2.0, SVG Export Plug-In . SVG Version: 6.00 Build 0)  -->
<svg version="1.1" id="Layer_1" xmlns="http://www.w3.org/2000/svg" xmlns:xlink="http://www.w3.org/1999/xlink" x="0px" y="0px"
	 viewBox="0 0 151.3 156.2" style="enable-background:new 0 0 151.3 156.2;" xml:space="preserve">
<style type="text/css">
	.st0{fill:#595959;}
	.st1{fill:#FFFFFF;}
	.st2{fill-rule:evenodd;clip-rule:evenodd;fill:#595959;}
	.st3{fill:#DE2B38;}
	.st4{fill:#298C43;}
	.st5{fill:#7E8DAD;}
	.st6{fill-rule:evenodd;clip-rule:evenodd;fill:#FFFFFF;}
	.st7{fill:#A7A9AC;}
	.st8{fill:#EF3E3D;}
	.st9{fill:#010101;}
	.st10{fill:url(#XMLID_00000026864312312399527920000000634398836223180479_);}
	.st11{fill:#AAD2DC;}
	.st12{fill:#D3E3EB;}
	.st13{fill:url(#XMLID_00000082355508160013058700000000821616377366635966_);}
	.st14{fill:url(#XMLID_00000147936103719449773610000006330422685435319434_);}
	.st15{fill:url(#XMLID_00000109744008712510430440000012777785741285730991_);}
	.st16{fill:url(#XMLID_00000013871266344965673580000003875844149928119449_);}
	.st17{fill:#AF76B2;}
	.st18{fill:none;stroke:#24326A;stroke-linecap:round;}
	.st19{fill:#24326A;}
	.st20{fill:none;stroke:#FFFFFF;stroke-linecap:round;}
	.st21{fill:#BB9B95;}
	.st22{fill:#DECAC6;}
	.st23{fill:#429DD7;}
	.st24{fill:#72B3E2;}
	.st25{opacity:0.5;fill:#E8F2FB;}
	.st26{opacity:0.5;fill:#FFFFFF;}
	.st27{fill:#E93837;}
	.st28{fill:#F05044;}
	.st29{fill:#EFE2E1;}
	.st30{fill:#F15F50;}
	.st31{fill:#EAD9D8;}
	.st32{fill:#F04D3F;}
	.st33{fill:#422D2A;}
	.st34{fill:#573B38;}
	.st35{fill:#664545;}
	.st36{fill:#D1B8B4;}
	.st37{fill:#C5A9A6;}
	.st38{fill:#7FA63F;}
	.st39{fill:#98CA42;}
</style>
<g>
	<g>
		<path class="st21" d="M123.1,127.9l-1.1,0.7c-0.4-0.4-0.9-0.8-1.5-1.1L69.1,97.9c-5-2.9-13.8-2.5-19.6,0.8l-15.4,8.9
			c-1.2,0.7-2.2,1.5-3,2.4l-1.1-0.7c0,0-2.2,3.3-0.2,6.8c0,0,0,0,0,0c0.5,1,1.5,2,2.8,2.7L84,148.5c5,2.9,13.8,2.5,19.6-0.8
			l15.4-8.9c1.9-1.1,3.2-2.3,4-3.7c0,0,0,0,0-0.1C125.3,131.2,123.1,127.9,123.1,127.9z"/>
		<path class="st22" d="M84,146.4l-51.3-29.6c-5-2.9-4.4-8,1.4-11.3l15.4-8.9c5.8-3.3,14.6-3.7,19.6-0.8l51.3,29.6
			c5,2.9,4.4,8-1.4,11.3l-15.4,8.9C97.8,148.9,89,149.3,84,146.4z"/>
		<g>
			<g>
				<g>
					<path class="st23" d="M45,111.6c-3.1,0-5.5-1.3-5.5-2.9v3.9c0,1.6,2.5,2.9,5.5,2.9c3.1,0,5.5-1.3,5.5-2.9v-3.9
						C50.6,110.3,48.1,111.6,45,111.6z"/>
					<path class="st24" d="M45,105.8c-3.1,0-5.5,1.3-5.5,2.9c0,1.6,2.5,2.9,5.5,2.9c3.1,0,5.5-1.3,5.5-2.9
						C50.6,107.1,48.1,105.8,45,105.8z"/>
				</g>
				<g>
					<path class="st25" d="M45,112.3c-4.2,0-7.7-1.8-7.7-4.1v5.4c0,2.3,3.4,4.1,7.7,4.1c4.2,0,7.7-1.8,7.7-4.1v-5.4
						C52.7,110.5,49.3,112.3,45,112.3z"/>
					<path class="st26" d="M45,104.1c-4.2,0-7.7,1.8-7.7,4.1c0,2.3,3.4,4.1,7.7,4.1c4.2,0,7.7-1.8,7.7-4.1
						C52.7,105.9,49.3,104.1,45,104.1z"/>
				</g>
			</g>
			<g>
				<g>
					<path class="st23" d="M60.4,102.7c-3.1,0-5.5-1.3-5.5-2.9v3.9c0,1.6,2.5,2.9,5.5,2.9c3.1,0,5.5-1.3,5.5-2.9v-3.9
						C65.9,101.4,63.4,102.7,60.4,102.7z"/>
					<path class="st24" d="M60.4,96.8c-3.1,0-5.5,1.3-5.5,2.9c0,1.6,2.5,2.9,5.5,2.9c3.1,0,5.5-1.3,5.5-2.9
						C65.9,98.1,63.4,96.8,60.4,96.8z"/>
				</g>
				<g>
					<path class="st25" d="M60.4,103.3c-4.2,0-7.7-1.8-7.7-4.1v5.4c0,2.3,3.4,4.1,7.7,4.1c4.2,0,7.7-1.8,7.7-4.1v-5.4
						C68,101.5,64.6,103.3,60.4,103.3z"/>
					<path class="st26" d="M60.4,95.2c-4.2,0-7.7,1.8-7.7,4.1c0,2.3,3.4,4.1,7.7,4.1c4.2,0,7.7-1.8,7.7-4.1
						C68,97,64.6,95.2,60.4,95.2z"/>
				</g>
			</g>
			<g>
				<g>
					<path class="st23" d="M61.2,120.8c-3.1,0-5.5-1.3-5.5-2.9v3.9c0,1.6,2.5,2.9,5.5,2.9c3.1,0,5.5-1.3,5.5-2.9v-3.9
						C66.8,119.4,64.3,120.8,61.2,120.8z"/>
					<path class="st24" d="M61.2,114.9c-3.1,0-5.5,1.3-5.5,2.9c0,1.6,2.5,2.9,5.5,2.9c3.1,0,5.5-1.3,5.5-2.9
						C66.8,116.2,64.3,114.9,61.2,114.9z"/>
				</g>
				<g>
					<path class="st25" d="M61.2,121.4c-4.2,0-7.7-1.8-7.7-4.1v5.4c0,2.3,3.4,4.1,7.7,4.1c4.2,0,7.7-1.8,7.7-4.1v-5.4
						C68.9,119.6,65.5,121.4,61.2,121.4z"/>
					<path class="st26" d="M61.2,113.2c-4.2,0-7.7,1.8-7.7,4.1c0,2.3,3.4,4.1,7.7,4.1c4.2,0,7.7-1.8,7.7-4.1
						C68.9,115.1,65.5,113.2,61.2,113.2z"/>
				</g>
			</g>
			<g>
				<g>
					<path class="st23" d="M76.6,111.8c-3.1,0-5.5-1.3-5.5-2.9v3.9c0,1.6,2.5,2.9,5.5,2.9c3.1,0,5.5-1.3,5.5-2.9v-3.9
						C82.1,110.5,79.6,111.8,76.6,111.8z"/>
					<path class="st24" d="M76.6,105.9c-3.1,0-5.5,1.3-5.5,2.9c0,1.6,2.5,2.9,5.5,2.9c3.1,0,5.5-1.3,5.5-2.9
						C82.1,107.2,79.6,105.9,76.6,105.9z"/>
				</g>
				<g>
					<path class="st25" d="M76.6,112.4c-4.2,0-7.7-1.8-7.7-4.1v5.4c0,2.3,3.4,4.1,7.7,4.1c4.2,0,7.7-1.8,7.7-4.1v-5.4
						C84.2,110.6,80.8,112.4,76.6,112.4z"/>
					<path class="st26" d="M76.6,104.3c-4.2,0-7.7,1.8-7.7,4.1c0,2.3,3.4,4.1,7.7,4.1c4.2,0,7.7-1.8,7.7-4.1
						C84.2,106.1,80.8,104.3,76.6,104.3z"/>
				</g>
			</g>
		</g>
		<g>
			<g>
				<g>
					<path class="st23" d="M77.4,129.9c-3.1,0-5.5-1.3-5.5-2.9v3.9c0,1.6,2.5,2.9,5.5,2.9c3.1,0,5.5-1.3,5.5-2.9v-3.9
						C83,128.5,80.5,129.9,77.4,129.9z"/>
					<path class="st24" d="M77.4,124c-3.1,0-5.5,1.3-5.5,2.9c0,1.6,2.5,2.9,5.5,2.9c3.1,0,5.5-1.3,5.5-2.9
						C83,125.3,80.5,124,77.4,124z"/>
				</g>
				<g>
					<path class="st25" d="M77.4,130.5c-4.2,0-7.7-1.8-7.7-4.1v5.4c0,2.3,3.4,4.1,7.7,4.1c4.2,0,7.7-1.8,7.7-4.1v-5.4
						C85.1,128.7,81.7,130.5,77.4,130.5z"/>
					<path class="st26" d="M77.4,122.3c-4.2,0-7.7,1.8-7.7,4.1c0,2.3,3.4,4.1,7.7,4.1c4.2,0,7.7-1.8,7.7-4.1
						C85.1,124.2,81.7,122.3,77.4,122.3z"/>
				</g>
			</g>
			<g>
				<g>
					<path class="st23" d="M92.8,120.9c-3.1,0-5.5-1.3-5.5-2.9v3.9c0,1.6,2.5,2.9,5.5,2.9c3.1,0,5.5-1.3,5.5-2.9V118
						C98.3,119.6,95.8,120.9,92.8,120.9z"/>
					<path class="st24" d="M92.8,115c-3.1,0-5.5,1.3-5.5,2.9c0,1.6,2.5,2.9,5.5,2.9c3.1,0,5.5-1.3,5.5-2.9
						C98.3,116.3,95.8,115,92.8,115z"/>
				</g>
				<g>
					<path class="st25" d="M92.8,121.6c-4.2,0-7.7-1.8-7.7-4.1v5.4c0,2.3,3.4,4.1,7.7,4.1c4.2,0,7.7-1.8,7.7-4.1v-5.4
						C100.4,119.7,97,121.6,92.8,121.6z"/>
					<path class="st26" d="M92.8,113.4c-4.2,0-7.7,1.8-7.7,4.1c0,2.3,3.4,4.1,7.7,4.1c4.2,0,7.7-1.8,7.7-4.1
						C100.4,115.2,97,113.4,92.8,113.4z"/>
				</g>
			</g>
			<g>
				<g>
					<path class="st23" d="M93.6,139c-3.1,0-5.5-1.3-5.5-2.9v3.9c0,1.6,2.5,2.9,5.5,2.9c3.1,0,5.5-1.3,5.5-2.9V136
						C99.2,137.7,96.7,139,93.6,139z"/>
					<path class="st24" d="M93.6,133.1c-3.1,0-5.5,1.3-5.5,2.9c0,1.6,2.5,2.9,5.5,2.9c3.1,0,5.5-1.3,5.5-2.9
						C99.2,134.4,96.7,133.1,93.6,133.1z"/>
				</g>
				<g>
					<path class="st25" d="M93.6,139.6c-4.2,0-7.7-1.8-7.7-4.1v5.4c0,2.3,3.4,4.1,7.7,4.1c4.2,0,7.7-1.8,7.7-4.1v-5.4
						C101.3,137.8,97.9,139.6,93.6,139.6z"/>
					<path class="st26" d="M93.6,131.5c-4.2,0-7.7,1.8-7.7,4.1c0,2.3,3.4,4.1,7.7,4.1c4.2,0,7.7-1.8,7.7-4.1
						C101.3,133.3,97.9,131.5,93.6,131.5z"/>
				</g>
			</g>
			<g>
				<g>
					<path class="st23" d="M109,130c-3.1,0-5.5-1.3-5.5-2.9v3.9c0,1.6,2.5,2.9,5.5,2.9c3.1,0,5.5-1.3,5.5-2.9v-3.9
						C114.5,128.7,112,130,109,130z"/>
					<path class="st24" d="M109,124.1c-3.1,0-5.5,1.3-5.5,2.9c0,1.6,2.5,2.9,5.5,2.9c3.1,0,5.5-1.3,5.5-2.9
						C114.5,125.5,112,124.1,109,124.1z"/>
				</g>
				<g>
					<path class="st25" d="M109,130.7c-4.2,0-7.7-1.8-7.7-4.1v5.4c0,2.3,3.4,4.1,7.7,4.1c4.2,0,7.7-1.8,7.7-4.1v-5.4
						C116.6,128.8,113.2,130.7,109,130.7z"/>
					<path class="st26" d="M109,122.5c-4.2,0-7.7,1.8-7.7,4.1c0,2.3,3.4,4.1,7.7,4.1c4.2,0,7.7-1.8,7.7-4.1
						C116.6,124.3,113.2,122.5,109,122.5z"/>
				</g>
			</g>
		</g>
	</g>
	<g>
		<path class="st27" d="M129.8,101.6c-7.3,0-13.2,3.2-13.2,7c0,3.9,5.9,7,13.2,7c7.3,0,13.2-3.2,13.2-7
			C143.1,104.7,137.2,101.6,129.8,101.6z"/>
		<path class="st28" d="M113.5,68.7v35.5c0,4.8,7.3,8.7,16.4,8.7c9,0,16.4-3.9,16.4-8.7V68.7H113.5z"/>
		<path class="st29" d="M129.8,84.1c-9,0-16.4-3.9-16.4-8.7v20.8c0,4.8,7.3,8.7,16.4,8.7c9,0,16.4-3.9,16.4-8.7V75.4
			C146.2,80.2,138.9,84.1,129.8,84.1z"/>
		<path class="st30" d="M146.2,68.4c0-4.8-6-9.3-6-9.3l-2.2,2.2c-2.4-0.8-5.2-1.2-8.2-1.2c-3,0-5.8,0.5-8.2,1.2l-2.2-2.2
			c0,0-6,4.5-6,9.3c0,0,0,0.3,0,0.4c0,4.8,7.3,8.7,16.4,8.7c9,0,16.4-3.9,16.4-8.7C146.2,68.6,146.2,68.4,146.2,68.4z"/>
		<path class="st28" d="M129.8,55.9c-6.7,0-12.1,2.9-12.1,6.4c0,3.5,5.4,6.4,12.1,6.4c6.7,0,12.1-2.9,12.1-6.4
			C141.9,58.8,136.5,55.9,129.8,55.9z"/>
		<ellipse class="st27" cx="129.8" cy="60.3" rx="8.3" ry="4.4"/>
		<g>
			<path class="st22" d="M119.7,46.5v8.4c0,1,0.6,1.9,1.5,2.7v-6.5c0-0.4,0.2-0.6,0.5-0.4c0.3,0.2,0.5,0.6,0.5,1v6.7
				c0.9,0.5,1.9,0.9,3,1.2v-6.6c0-0.3,0.3-0.6,0.6-0.6c0.3,0,0.6,0.3,0.6,0.6V60c0.9,0.2,1.9,0.3,3,0.3v-6.8c0-0.3,0.3-0.6,0.6-0.6
				c0.3,0,0.6,0.3,0.6,0.6v6.7c1.1-0.1,2.1-0.1,3.1-0.3v-7.1c0-0.3,0.3-0.6,0.6-0.6c0.3,0,0.6,0.3,0.6,0.6v6.6
				c1-0.3,1.8-0.7,2.5-1.1v-6.5c0-0.4,0.2-0.9,0.5-1c0.3-0.2,0.5,0,0.5,0.4v6.3c0.8-0.8,1.3-1.6,1.3-2.5v-8.4H119.7z"/>
			<path class="st21" d="M130.1,52.9c-0.3,0-0.6,0.3-0.6,0.6v6.8c0.1,0,0.2,0,0.3,0c0.3,0,0.6-0.1,0.9-0.1v-6.7
				C130.8,53.2,130.5,52.9,130.1,52.9z"/>
			<path class="st21" d="M125.9,52.5c-0.3,0-0.6,0.3-0.6,0.6v6.6c0.4,0.1,0.8,0.2,1.3,0.3v-6.9C126.6,52.8,126.3,52.5,125.9,52.5z"
				/>
			<path class="st21" d="M134.5,52.2c-0.3,0-0.6,0.3-0.6,0.6v7.1c0.5-0.1,0.8-0.3,1.3-0.5v-6.6C135.1,52.5,134.8,52.2,134.5,52.2z"
				/>
			<path class="st21" d="M138.2,50.7c-0.3,0.2-0.5,0.6-0.5,1v6.5c0.4-0.3,0.8-0.6,1.1-0.9v-6.3C138.7,50.7,138.5,50.5,138.2,50.7z"
				/>
			<path class="st21" d="M121.7,50.7c-0.3-0.2-0.5,0-0.5,0.4v6.5c0.3,0.3,0.7,0.6,1.1,0.9v-6.7C122.3,51.4,122,50.9,121.7,50.7z"/>
		</g>
		<path class="st31" d="M129.8,41.1c-5.6,0-10.2,2.4-10.2,5.4c0,3,4.6,5.4,10.2,5.4c5.6,0,10.2-2.4,10.2-5.4
			C140,43.5,135.5,41.1,129.8,41.1z"/>
		<path class="st29" d="M129.9,41.1c-4.2,0-7.7,1.8-7.7,4.1c0,2.3,3.4,4.1,7.7,4.1c4.2,0,7.7-1.8,7.7-4.1
			C137.6,42.9,134.2,41.1,129.9,41.1z"/>
		<path class="st1" d="M118.1,61.9c-1.2,1.3-2.3,3.3-2.7,4.3c-0.4,1-1.2,3-0.4,4c0.6,0.8,1.6,0.2,1.9-0.5c0.4-0.9,0.5-2,0.8-2.9
			c0.3-1.2,0.9-3.1,1.2-4.3C119,61.7,118.8,61.2,118.1,61.9z"/>
		<path class="st32" d="M138.6,93.8c0.1,5.1-3.9,8.5-8.6,8.5c-4.8,0-8.6-3.4-8.6-8.5c0-4.3,3.9-7.1,8.6-7.1
			C134.7,86.7,138.5,89.5,138.6,93.8z"/>
		<path class="st29" d="M135.3,92.1c-1.1,0.3-2.4,0.5-3.6,0.6v-4h-3.6v4c-1.2-0.1-2.5-0.3-3.6-0.6l-0.6-0.2v3.4l0.4,0.1
			c1.2,0.3,2.5,0.5,3.9,0.6v4.1h3.6v-4.1c1.3-0.1,2.6-0.3,3.9-0.7l0.4-0.1V92L135.3,92.1z"/>
	</g>
	<g>
		<g>
			<path class="st23" d="M107.3,33v49.2c0,6.2-9.4,11.2-21.1,11.2c-11.7,0-21.1-5-21.1-11.2l0-49.4L107.3,33z"/>
		</g>
		<g>
			<path class="st29" d="M73.5,50c3.5,1.4,7.9,2.3,12.7,2.3c11.7,0,21.1-5,21.1-11.2v33c0,6.2-9.4,11.2-21.1,11.2
				c-4.8,0-9.2-0.9-12.7-2.3V50z"/>
		</g>
		<path class="st33" d="M78.1,58c2.5,0.6,5.2,0.9,8.1,0.9c11.7,0,21.1-5,21.1-11.2v3.8c0,6.2-9.4,11.2-21.1,11.2
			c-2.9,0-5.6-0.4-8.1-0.9V58z"/>
		<path class="st24" d="M66,29.7L66,29.7c0,0,0.2-0.4,0.6-1c0.1-0.2,0.2-0.3,0.3-0.5c1.5-2.1,5.1-5.9,12.3-7.8
			c2.5-0.7,3.9,0,4.6,1.3c0.8,0,1.6-0.1,2.4-0.1c0.8,0,1.6,0.1,2.4,0.1c0.7-1.3,2.2-2,4.6-1.3c7.4,2.1,11.1,6.2,12.5,8.1
			c0.5,0.7,1.5,3.2,1.5,4.2c0,6.2-9.4,11.2-21.1,11.2c-11.7,0-21.1-5-21.1-11.2C65.1,31.7,65.5,30.7,66,29.7z"/>
		<path class="st23" d="M85.8,19.5c6.3,0,11.4,2.7,11.4,6c0,3.3-5.1,6-11.4,6c-6.3,0-11.4-2.7-11.4-6C74.4,22.2,79.5,19.5,85.8,19.5
			z"/>
		<g>
			<path class="st34" d="M97.6,11.9v9.6c0,1.1-0.7,2.1-1.7,3c-0.4,0.3-0.8,0.7-1.2,1c-1,0.6-2.1,1.1-3.4,1.4
				c-0.5,0.1-0.9,0.2-1.4,0.3c-1.1,0.2-2.2,0.3-3.4,0.4c-0.1,0-0.2,0-0.4,0c-0.4,0-0.7-0.1-1.1-0.1c-1.2-0.1-2.4-0.1-3.5-0.4
				c-0.5-0.1-0.9-0.4-1.4-0.5c-1.1-0.4-2.1-0.8-2.9-1.3c-0.5-0.3-0.9-0.6-1.2-1c-0.9-0.9-1.5-1.8-1.5-2.9v-9.6H97.6z"/>
			<g>
				<path class="st33" d="M85.7,19.2c0.4,0,0.7,0.3,0.7,0.7v7.7c-0.1,0-0.2,0-0.4,0c-0.4,0-0.7-0.1-1.1-0.1v-7.7
					C85,19.5,85.3,19.2,85.7,19.2z"/>
				<path class="st33" d="M90.5,18.7c0.4,0,0.7,0.3,0.7,0.7V27c-0.5,0.1-0.9,0.2-1.4,0.3v-7.8C89.8,19.1,90.1,18.7,90.5,18.7z"/>
				<path class="st33" d="M80.7,18.4c0.4,0,0.7,0.3,0.7,0.7v8c-0.5-0.1-0.9-0.4-1.4-0.5v-7.5C80,18.7,80.4,18.4,80.7,18.4z"/>
				<path class="st33" d="M76.5,16.7c0.3,0.2,0.6,0.7,0.6,1.2v7.5c-0.5-0.3-0.9-0.6-1.2-1v-7.2C75.9,16.7,76.2,16.5,76.5,16.7z"/>
				<path class="st33" d="M95.3,16.7c0.3-0.2,0.6,0,0.6,0.5v7.4c-0.4,0.3-0.8,0.7-1.2,1v-7.6C94.7,17.5,94.9,16.9,95.3,16.7z"/>
			</g>
			<path class="st35" d="M86,5.7c6.4,0,11.6,2.8,11.6,6.2c0,3.4-5.2,6.2-11.6,6.2c-6.4,0-11.6-2.8-11.6-6.2
				C74.4,8.5,79.6,5.7,86,5.7z"/>
		</g>
		<g>
			<path class="st21" d="M96.8,67c2.8-1.3,7.2-1.4,7.2-1.4l1.2,2.3c1.1,2.2-1,5.5-4.6,7.2c-3.5,1.7-7.2,1.3-8.4-0.9L91,71.8
				C91,71.8,94,68.3,96.8,67z"/>
			<path class="st22" d="M99.4,72.8c3.6-1.7,5.7-4.9,4.6-7.2c-1.1-2.2-4.8-2.7-8.4-1c-3.6,1.7-5.7,4.9-4.6,7.2
				C92.1,74,95.8,74.5,99.4,72.8z"/>
		</g>
		<g>
			<path class="st21" d="M79.6,70c2-0.3,4.7,0.2,7.5,1.5c3,1.4,5.2,3.3,6.2,5.1l1.4,0.7l-1.1,2.3c-1.1,2.3-5.7,2.4-10.4,0.2
				c-4.7-2.2-7.6-5.8-6.6-8.1l1.2-2.5L79.6,70z"/>
			<path class="st36" d="M84.4,77.2c4.7,2.2,9.4,2.1,10.4-0.2c1.1-2.3-1.9-5.9-6.6-8.1c-4.7-2.2-9.4-2.1-10.4,0.2
				C76.8,71.4,79.7,75,84.4,77.2z"/>
		</g>
	</g>
	<g>
		<path class="st37" d="M30.5,130.2c-1.8-0.9-4.2-1.4-6.8-1.4c-2.6,0-5,0.5-6.8,1.4l-3.5-2.2v6.3c0,3,4.6,5.5,10.3,5.5
			c5.7,0,10.3-2.4,10.3-5.5V128L30.5,130.2z"/>
		<g>
			<path class="st29" d="M23.7,122.5c-5.7,0-10.3,2.4-10.3,5.5c0,3,4.6,5.5,10.3,5.5c5.7,0,10.3-2.4,10.3-5.5
				C34,125,29.4,122.5,23.7,122.5z"/>
		</g>
		<g>
			<path class="st36" d="M19.8,123l-3.7,1.3l13,8.3l1.6-0.7c0,0,1.4-0.9,1.3-1C31.8,130.9,19.8,123,19.8,123z"/>
		</g>
	</g>
	<g>
		<path class="st37" d="M42.3,140.1c1.8-0.9,4.2-1.4,6.8-1.4c2.6,0,5,0.5,6.8,1.4l3.5-2.2v6.3c0,3-4.6,5.5-10.3,5.5
			c-5.7,0-10.3-2.4-10.3-5.5v-6.3L42.3,140.1z"/>
		<g>
			<path class="st29" d="M49.1,132.4c5.7,0,10.3,2.4,10.3,5.5s-4.6,5.5-10.3,5.5c-5.7,0-10.3-2.4-10.3-5.5S43.4,132.4,49.1,132.4z"
				/>
		</g>
		<g>
			<path class="st36" d="M53,132.9l3.7,1.3l-13,8.3l-1.6-0.7c0,0-1.4-0.9-1.3-1C41,140.9,53,132.9,53,132.9z"/>
		</g>
	</g>
	<g>
		<path class="st38" d="M21.5,49v35.3c0,4.4,6.8,8.1,15.1,8.1c8.4,0,15.1-3.6,15.1-8.1l0-35.5L21.5,49z"/>
		<g>
			<g>
				<path class="st29" d="M21.5,54.5v22.7c0,4.4,6.8,8.1,15.1,8.1c3.7,0,7.1-0.7,9.7-1.9V60.7c-2.6,1.2-6,1.9-9.7,1.9
					C28.3,62.6,21.5,59,21.5,54.5z"/>
			</g>
		</g>
		<path class="st33" d="M42.4,65.4c-1.8,0.4-3.8,0.6-5.8,0.6c-8.4,0-15.1-3.6-15.1-8.1v3.7c0,4.4,6.8,8.1,15.1,8.1
			c2.1,0,4-0.2,5.8-0.6V65.4z"/>
		<path class="st22" d="M50.4,42c-3.2-2.1-8.1-3.5-13.6-3.5c-3.3,0-6.4,0.5-9.1,1.4l-1.4-0.1l-6.8,4.1v3.9c0,5.1,7.8,9.2,17.3,9.2
			c9.6,0,17.3-4.1,17.3-9.2v-3.9L50.4,42z"/>
		<path class="st29" d="M36.8,34.5c-9.6,0-17.3,4.1-17.3,9.2c0,5.1,7.8,9.2,17.3,9.2c9.6,0,17.3-4.1,17.3-9.2
			C54.1,38.7,46.4,34.5,36.8,34.5z"/>
		<path class="st38" d="M48.3,37.7c-2.7-1.8-6.8-3-11.4-3c-2.8,0-5.4,0.4-7.6,1.2l-1.2-0.1L22.3,38v4.5c0,4.3,6.5,7.7,14.5,7.7
			c8,0,14.5-3.5,14.5-7.7V38L48.3,37.7z"/>
		<path class="st39" d="M36.9,30.3c-8,0-14.5,3.5-14.5,7.7c0,4.3,6.5,7.7,14.5,7.7c8,0,14.5-3.5,14.5-7.7
			C51.4,33.7,44.9,30.3,36.9,30.3z"/>
	</g>
	<g>
		<path class="st23" d="M5.1,97.5l1.6-0.3c1.1-1.2,2.6-2.4,4.6-3.3c4.1-2,9-2.6,12.5-1.8c0.8,0.2,1.5,0.4,2.1,0.8l2.6,0.1
			c0,0,0,3.5,0,3.8c-0.1,2.3-2.4,4.9-6.2,6.8c-5.7,2.8-12.9,2.9-15.9,0.2c-1-0.9-1.4-2-1.4-3.1L5.1,97.5z"/>
		<path class="st24" d="M11.4,90.1c-5.7,2.8-7.9,7.2-4.9,9.8c3,2.7,10.2,2.6,15.9-0.2c5.7-2.8,7.9-7.2,4.9-9.8
			C24.2,87.2,17.1,87.3,11.4,90.1z"/>
		<path class="st23" d="M14.2,89c6.1,2.7,8.6,7.2,8.6,7.2l-2.1,1.3c0,0-4.7-5.8-9.3-7.4L14.2,89z"/>
	</g>
</g>
</svg>
