<?xml version="1.0" encoding="UTF-8"?>
<svg id="_3d_chart_icon_symbol" data-name="3d chart icon symbol" xmlns="http://www.w3.org/2000/svg" viewBox="0 0 1806.54 1806.54">
  <defs>
    <style>
      .cls-1 {
        fill: #be1e2d;
      }

      .cls-2 {
        fill: #2e3192;
      }
    </style>
  </defs>
  <path class="cls-2" d="m467.31,1279.21l-29.78-36.29-16.75,8.38c-28.85-33.5-57.69-72.58-80.96-110.73-47.46,0-93.98-13.96-132.14-43.74-67.93-28.85-120.97-95.85-120.97-205.65,0-23.26,2.79-49.32,7.44-75.37,24.19-121.9,100.5-245.66,259.62-276.37,25.12-4.65,49.32-7.44,72.58-7.44,59.55,0,110.73,16.75,147.03,47.46,68.86,28.85,110.73,90.26,110.73,178.66,0,31.64-5.58,68.86-15.82,103.29-36.29,112.59-96.78,189.83-157.26,229.84,27.92,39.08,72.58,74.44,123.76,107.01l-167.5,80.96Zm102.36-109.8c-46.53-29.78-89.33-67-118.18-108.87,64.21-39.08,123.76-108.87,160.98-229.84,63.28-210.3-66.07-319.18-256.83-281.95-155.4,29.78-228.91,150.75-252.18,268.93-39.08,201.93,82.82,291.26,198.21,285.68,9.31,0,18.61-.93,27.92-1.86,23.26,47.46,60.49,97.71,93.98,138.65l146.09-70.72Zm-111.67-330.34c-33.5,115.39-88.4,134.93-137.72,134.93-62.35,0-89.33-46.53-66.07-158.19,13.96-65.14,52.11-152.61,123.76-160.98,97.71-10.24,113.53,65.14,80.03,184.25Zm-9.31-2.79c10.24-36.29,15.82-68.86,15.82-93.98,0-20.47-4.65-37.22-12.1-49.32-8.38-.93-17.68-1.86-26.99-.93-59.55,13.03-102.36,93.99-115.39,153.54-5.58,26.05-8.38,49.32-8.38,67.93,0,21.4,3.72,38.15,10.24,51.18h8.38c45.6,0,96.78-18.61,128.41-128.42Z"/>
  <path class="cls-1" d="m550.13,1115.43l10.24-22.33-56.76-5.58,267.07-556.46h159.12l1.86,27.92h44.67l18.61,218.68,177.73-250.32,153.54,20.47s-1.86,8.38-3.72,21.4l50.25,6.51s-76.3,495.05-66.07,576.94l-223.33,6.51s2.79-12.1,6.51-29.78l-53.04,1.86s9.31-42.8,23.26-96.78l-43.74,70.72s-111.67,2.79-170.29,16.75l-.93-35.36c-17.68,1.86-32.57,4.65-45.6,7.44l-2.79-130.27-66.07,168.43-180.53-16.75Zm128.42-21.4c49.32-125.62,123.76-315.45,123.76-315.45l6.51,303.36c47.46-11.17,156.33-13.96,156.33-13.96l186.11-297.77c-27.92,70.72-109.8,357.33-109.8,357.33l208.44-11.17c-9.3-76.3,65.14-560.19,65.14-560.19l-137.72-18.61-228.91,320.11-26.99-317.31h-145.16l-258.69,538.78,160.98,14.89Z"/>
  <path d="m1660.27,742.29c-23.26-16.75-66.07-30.71-95.85-30.71-16.75,0-30.71,2.79-34.43,12.1v-.93c-3.72,9.31-2.79,16.75,4.65,25.12,14.89,6.51,32.57,13.96,54.9,22.33,16.75,7.44,30.71,15.82,41.88,26.05,1.86.93,2.79,1.86,4.65,1.86,56.76,24.19,81.89,68.86,81.89,114.46,0,53.97-29.78,111.66-71.65,153.54s-105.15,67-174.94,67c-52.11,0-107.01-15.82-156.33-52.11-26.05-12.1-52.11-29.78-75.37-53.04l76.3-127.48c6.51,11.17,22.33,24.19,41.87,36.29l4.65-8.38c3.72,6.51,10.24,13.96,18.61,20.47,18.61,8.38,37.22,13.03,53.97,13.03,10.24,0,18.61-1.86,26.99-5.58,15.82-7.44,24.19-18.61,24.19-29.78,0-6.51-2.79-13.03-8.38-19.54-26.05-12.1-52.11-25.12-72.58-40.94-56.76-28.85-102.36-65.14-102.36-122.83,0-19.54,5.58-44.67,18.61-68.86,40.94-74.44,122.83-116.32,207.51-116.32,47.46,0,95.85,13.03,144.23,40.01l-2.79,5.58c15.82,5.58,32.57,13.03,49.32,22.33l-59.55,116.32Zm0-140.51c-118.18-66.07-270.79-35.36-330.34,77.24-56.76,109.8,29.78,157.26,120.97,198.21,52.11,22.33,59.55,66.07,14.89,87.47-44.67,21.4-134-18.61-149.82-45.6l-64.21,107.94c105.15,102.36,268,79.1,341.51,4.65,74.44-74.44,111.67-205.65-7.44-253.11-100.5-40.94-122.83-53.97-110.73-86.54,13.96-32.57,103.29-14.89,134.93,8.38l50.25-98.64Z"/>
</svg>