<?xml version="1.0" encoding="utf-8"?>
<!-- Generator: Adobe Illustrator 27.2.0, SVG Export Plug-In . SVG Version: 6.00 Build 0)  -->
<svg version="1.1" id="Layer_1" xmlns="http://www.w3.org/2000/svg" xmlns:xlink="http://www.w3.org/1999/xlink" x="0px" y="0px"
	 viewBox="0 0 151.3 156.2" style="enable-background:new 0 0 151.3 156.2;" xml:space="preserve">
<style type="text/css">
	.st0{fill:#595959;}
	.st1{fill:#FFFFFF;}
	.st2{fill-rule:evenodd;clip-rule:evenodd;fill:#595959;}
	.st3{fill:#DE2B38;}
	.st4{fill:#298C43;}
	.st5{fill:#7E8DAD;}
	.st6{fill-rule:evenodd;clip-rule:evenodd;fill:#FFFFFF;}
	.st7{fill:#A7A9AC;}
	.st8{fill:#EF3E3D;}
	.st9{fill:#010101;}
	.st10{fill:url(#XMLID_00000010312702999243690680000010256289469818313900_);}
	.st11{fill:#AAD2DC;}
	.st12{fill:#D3E3EB;}
	.st13{fill:url(#XMLID_00000165956625155549269750000014824466428259283874_);}
	.st14{fill:url(#XMLID_00000024694011848822569220000011091300204922731157_);}
	.st15{fill:url(#XMLID_00000081622473114131791660000014228478044825242242_);}
	.st16{fill:url(#XMLID_00000021077749317356163480000011630316888201660578_);}
	.st17{fill:#AF76B2;}
	.st18{fill:none;stroke:#24326A;stroke-linecap:round;}
	.st19{fill:#24326A;}
	.st20{fill:none;stroke:#FFFFFF;stroke-linecap:round;}
</style>
<g>
	<ellipse transform="matrix(0.7071 -0.7071 0.7071 0.7071 -29.5832 75.24)" class="st17" cx="76" cy="73.3" rx="64.7" ry="64.7"/>
	<g>
		<path class="st18" d="M19.5,9.9c0,0.7,0.6,1.3,1.3,1.3c0.7,0,1.3-0.6,1.3-1.3s-0.6-1.3-1.3-1.3C20.1,8.6,19.5,9.2,19.5,9.9z"/>
		<circle class="st18" cx="143.7" cy="31.9" r="1.2"/>
		<circle class="st18" cx="7.2" cy="117.4" r="1.2"/>
		<g>
			<line class="st18" x1="140.7" y1="119.6" x2="140.7" y2="122.8"/>
			<line class="st18" x1="142.2" y1="121.2" x2="139.1" y2="121.2"/>
		</g>
		<g>
			<line class="st18" x1="39.3" y1="1.6" x2="39.3" y2="4.7"/>
			<line class="st18" x1="40.9" y1="3.2" x2="37.7" y2="3.2"/>
		</g>
		<g>
			<line class="st18" x1="134.5" y1="13.2" x2="134.5" y2="16.4"/>
			<line class="st18" x1="136.1" y1="14.8" x2="132.9" y2="14.8"/>
		</g>
	</g>
	<g>
		<ellipse class="st19" cx="76.1" cy="75.1" rx="30.4" ry="34.7"/>
		<path class="st19" d="M48.6,83l-4.3-17.1c-2.9-11.4,2.7-23.3,13.3-28.3c6-2.8,13.6-5.1,23.3-5.5c3.4-0.2,6.7-1.4,9.4-3.6l3.3-2.7
			l0.7,7.9l4-5.3c0,0,7.5,13.5-1.1,26.9C88.6,68.7,48.6,83,48.6,83z"/>
		<path class="st19" d="M95.6,40.4l4.9,3.4c4.7,3.2,7.3,8.7,6.9,14.4l-1.4,19.9c0,0-22.7-20.4-19.8-30.9
			C89.3,36.8,95.6,40.4,95.6,40.4z"/>
		
			<ellipse transform="matrix(0.9356 -0.3529 0.3529 0.9356 -24.7931 20.7843)" class="st19" cx="44.6" cy="78.4" rx="9.3" ry="11.7"/>
		
			<ellipse transform="matrix(0.3529 -0.9356 0.9356 0.3529 -3.0074 149.4081)" class="st19" cx="106.5" cy="76.9" rx="11.7" ry="9.3"/>
		<rect x="63.2" y="100.1" class="st19" width="25.6" height="24.6"/>
		<path class="st19" d="M147,154.7H4.3c4.5-14,14.7-24.6,27.5-28.3l0.8-0.2l23.7-6.8l-1.6-9.5h41.9l-1.6,9.5l24.3,7l0.2,0.1
			C132.3,130.1,142.5,140.7,147,154.7z"/>
	</g>
	<g>
		<path class="st20" d="M65,63.8c0.2-2,3.5-9.8,12.3-10.1C93,53.1,96.2,72.1,86,77.8c-0.9,0.6-1.8,1.1-2.7,1.6
			c-0.9,0.4-1.8,0.9-2.6,1.3c-0.8,0.4-1.4,0.9-1.9,1.4c-0.5,0.5-0.8,1-0.8,1.7h-9.4c0-0.8,0-1.7,0.1-2.5c0.1-0.8,0.3-1.6,0.6-2.4
			c0.3-0.7,0.8-1.5,1.5-2.1c0.6-0.7,1.5-1.3,2.6-1.9c0.4-0.2,1.1-0.6,1.9-1c0.8-0.4,1.7-0.9,2.5-1.5c0.8-0.6,1.5-1.2,2.1-1.9
			c0.6-0.7,0.9-1.5,0.9-2.3c0-0.9-0.4-1.7-1.1-2.2c-0.7-0.5-1.6-0.8-2.5-0.8c-0.7,0-1.4,0.1-1.9,0.4c-0.5,0.3-1,0.6-1.4,1
			c-0.4,0.4-0.7,0.8-1,1.2c-0.3,0.4-0.5,0.8-0.8,1.1L65,63.8"/>
		
			<ellipse transform="matrix(0.2249 -0.9744 0.9744 0.2249 -32.3257 142.9862)" class="st20" cx="73.7" cy="91.8" rx="4.7" ry="4.7"/>
	</g>
</g>
</svg>
