<?xml version="1.0" encoding="utf-8"?>
<!-- Generator: Adobe Illustrator 27.2.0, SVG Export Plug-In . SVG Version: 6.00 Build 0)  -->
<svg version="1.1" id="Layer_1" xmlns="http://www.w3.org/2000/svg" xmlns:xlink="http://www.w3.org/1999/xlink" x="0px" y="0px"
	 viewBox="0 0 112.2 108.2" style="enable-background:new 0 0 112.2 108.2;" xml:space="preserve">
<style type="text/css">
	.st0{fill:#367695;}
	.st1{opacity:0.5;fill:url(#SVGID_1_);}
	.st2{fill:#E6E7E7;}
	.st3{fill:#F2F2F2;}
	.st4{fill:#D2D3D4;}
	.st5{fill:#F1F0F0;}
	.st6{fill:#DD3726;}
	.st7{fill:#2774A9;}
	.st8{fill:#688B9E;}
	.st9{opacity:0.5;fill:url(#SVGID_00000023250636610777950770000005151985946695615901_);}
	.st10{fill:#BDBEC0;}
</style>
<g>
	<path class="st0" d="M103.6,91c0,5.8-4.7,10.5-10.5,10.5H18.7c-5.5,0-10-4.5-10-10V16.6c0-5.5,4.5-10,10-10h74.9
		c5.5,0,10,4.5,10,10V91z"/>
	<linearGradient id="SVGID_1_" gradientUnits="userSpaceOnUse" x1="22.4793" y1="69.2034" x2="103.5546" y2="69.2034">
		<stop  offset="0" style="stop-color:#9F9F9F"/>
		<stop  offset="1" style="stop-color:#C8C8C8"/>
	</linearGradient>
	<path class="st1" d="M22.5,74.8L49,101.5h44c2.8,0,5.5-1.1,7.5-3.1c2-2,3.1-4.7,3.1-7.5l0-40.8L89.8,36.9L22.5,74.8z"/>
	<g>
		<path class="st2" d="M90.4,73.4c0,1.1-0.9,2-2,2H23.8c-1.1,0-2-0.9-2-2V37.9c0-1.1,0.9-2,2-2h64.6c1.1,0,2,0.9,2,2V73.4z"/>
		<path class="st3" d="M24.8,73.4c-0.5,0-1-0.5-1-1V38.9c0-0.5,0.5-1,1-1h62.6c0.5,0,1,0.5,1,1v33.5c0,0.5-0.5,1-1,1H24.8z"/>
		<polygon class="st4" points="23.7,73.4 55.9,50.3 88.2,73.4 		"/>
		<polygon class="st5" points="23.7,73.4 55.9,51.9 88.2,73.4 		"/>
		<polygon class="st4" points="23.7,37.9 55.9,60.9 88.2,37.9 		"/>
		<polygon class="st5" points="23.7,37.9 55.9,59.3 88.2,37.9 		"/>
		<g>
			<path class="st6" d="M87.4,73.4h-1.8l-2,2h4.2l2.5-2.5v-4.2l-1.9,1.9v1.8C88.4,72.9,87.9,73.4,87.4,73.4z"/>
			<polygon class="st6" points="63.9,75.4 68.1,75.4 70,73.4 65.8,73.4 			"/>
			<polygon class="st6" points="90.3,53 90.3,48.8 88.4,50.7 88.4,55 			"/>
			<polygon class="st6" points="87.6,35.9 83.4,35.9 81.4,37.9 85.6,37.9 			"/>
			<polygon class="st6" points="44.1,75.4 48.3,75.4 50.2,73.4 46,73.4 			"/>
			<polygon class="st6" points="24.3,75.4 28.5,75.4 30.5,73.4 26.3,73.4 			"/>
			<polygon class="st6" points="67.8,35.9 63.6,35.9 61.6,37.9 65.8,37.9 			"/>
			<polygon class="st6" points="48,35.9 43.8,35.9 41.9,37.9 46.1,37.9 			"/>
			<polygon class="st6" points="21.9,57.9 21.9,62.1 23.8,60.2 23.8,56 			"/>
			<path class="st6" d="M24.8,37.9h1.4l2-2H24l-2.2,2.2v4.2l2-2v-1.4C23.8,38.3,24.3,37.9,24.8,37.9z"/>
			<polygon class="st7" points="90.3,63 90.3,58.8 88.4,60.7 88.4,64.9 			"/>
			<polygon class="st7" points="73.8,75.4 78,75.4 79.9,73.4 75.7,73.4 			"/>
			<polygon class="st7" points="90.3,43.2 90.3,39 88.4,40.9 88.4,45.1 			"/>
			<polygon class="st7" points="54,75.4 58.2,75.4 60.1,73.4 55.9,73.4 			"/>
			<polygon class="st7" points="34.2,75.4 38.4,75.4 40.4,73.4 36.2,73.4 			"/>
			<polygon class="st7" points="77.7,36 73.5,36 71.7,37.9 75.9,37.9 			"/>
			<polygon class="st7" points="57.9,36 53.7,36 51.9,37.9 56.1,37.9 			"/>
			<polygon class="st7" points="21.9,67.9 21.9,72.1 23.8,70.1 23.8,65.9 			"/>
			<polygon class="st7" points="38.1,36 33.9,36 32.1,37.9 36.3,37.9 			"/>
			<polygon class="st7" points="21.9,48.1 21.9,52.3 23.8,50.3 23.8,46.1 			"/>
		</g>
	</g>
</g>
</svg>
