<?xml version="1.0" encoding="utf-8"?>
<!-- Generator: Adobe Illustrator 27.2.0, SVG Export Plug-In . SVG Version: 6.00 Build 0)  -->
<svg version="1.1" id="Layer_1" xmlns="http://www.w3.org/2000/svg" xmlns:xlink="http://www.w3.org/1999/xlink" x="0px" y="0px"
	 viewBox="0 0 151.3 156.2" style="enable-background:new 0 0 151.3 156.2;" xml:space="preserve">
<style type="text/css">
	.st0{fill:#595959;}
	.st1{fill:#FFFFFF;}
	.st2{fill-rule:evenodd;clip-rule:evenodd;fill:#595959;}
	.st3{fill:#DE2B38;}
	.st4{fill:#298C43;}
	.st5{fill:#7E8DAD;}
	.st6{fill-rule:evenodd;clip-rule:evenodd;fill:#FFFFFF;}
	.st7{fill:#A7A9AC;}
	.st8{fill:#EF3E3D;}
	.st9{fill:#010101;}
	.st10{fill:url(#XMLID_00000175320988589408950710000000914170020913271997_);}
	.st11{fill:url(#XMLID_00000062152611307392225240000013289109463994907565_);}
	.st12{fill:#AAD2DC;}
	.st13{fill:#D3E3EB;}
	.st14{fill:url(#XMLID_00000155863775138677284780000018382793744896702134_);}
	.st15{fill:url(#XMLID_00000155847701608943273320000002374340442433396912_);}
	.st16{fill:url(#XMLID_00000063606430649319370160000015254731332999978668_);}
</style>
<linearGradient id="XMLID_00000114778490893034820690000010201298282949805246_" gradientUnits="userSpaceOnUse" x1="5.6649" y1="78.1117" x2="145.6649" y2="78.1117">
	<stop  offset="0" style="stop-color:#0092C8"/>
	<stop  offset="1" style="stop-color:#45B4E4"/>
</linearGradient>
<circle id="XMLID_121_" style="fill:url(#XMLID_00000114778490893034820690000010201298282949805246_);" cx="75.7" cy="78.1" r="70"/>
<linearGradient id="XMLID_00000168092918504815211940000014241492739214549407_" gradientUnits="userSpaceOnUse" x1="273.6369" y1="-79.2198" x2="327.0923" y2="-25.7644" gradientTransform="matrix(-0.2906 0.9568 0.9568 0.2906 220.3297 -163.3431)">
	<stop  offset="0" style="stop-color:#0070AC"/>
	<stop  offset="0.3297" style="stop-color:#007FB9;stop-opacity:0.6318"/>
	<stop  offset="0.6733" style="stop-color:#008DC4;stop-opacity:0.2482"/>
	<stop  offset="0.8957" style="stop-color:#0092C8;stop-opacity:0"/>
</linearGradient>
<path id="XMLID_00000106145044792179326080000006414918629103585951_" style="fill:url(#XMLID_00000168092918504815211940000014241492739214549407_);" d="
	M55.2,145c-4.2-1.3-8.2-2.9-12-4.9l-17-40.1l61.8-23.2l28.6-10.3l20.1,45.6C121,140.3,87.3,154.7,55.2,145z"/>
<g>
	<path class="st12" d="M93.2,48.7l22.3,15.6c1.6,1.1,1.6,3.5-0.1,4.5L88.1,87c0,0-2.2-28.7-1.7-28.5C87,58.6,93.2,48.7,93.2,48.7z"
		/>
	<path class="st1" d="M26.3,98c11-13.9,47.4-58.5,61.1-75.3c1.8-2.2,5.4-1,5.5,1.9l0.3,24.1l22.2,15.6c0.9,0.6,1.3,1.6,1.2,2.6
		c-0.1,0.8-20.5-4.2-20.5-4.2s10.1,28.3,14.9,41.8c1.2,3.3-1.5,6.7-5,6.4c-17.8-1.8-62.4-6.5-77.7-8.1C25.9,102.5,24.8,99.8,26.3,98
		z"/>
	<path class="st13" d="M116.6,66.9c-0.1,0.8-20.5-4.2-20.5-4.2L48.8,89.8c-0.3,0.2-0.6-0.2-0.4-0.5l44.7-40.6l22.2,15.6
		C116.3,64.9,116.7,65.9,116.6,66.9z"/>
</g>
</svg>
