<?xml version="1.0" encoding="UTF-8"?>
<svg id="Layer" data-name="Layer 1" xmlns="http://www.w3.org/2000/svg" viewBox="0 0 25 27"
data-bs-toggle="collapse" data-bs-target="#papercollapse" aria-expanded="false">
  <defs>
    <style>
      .cls-1 {
        fill: #595959;
        fill-rule: evenodd;
      }
    </style>
  </defs>
  <path class="cls-1" d="m4.68,4.49v1.06h13.54v-1.06H4.68Zm0,2.49h0v.96h13.54v-.96H4.68Zm0,2.4h0v.96h13.54v-.96H4.68Zm0,2.4h0v1.06h11.43v-1.06H4.68Zm0,2.4h0v1.06h7.59v-1.06h-7.59Zm8.54,7.67h0v1.05h6.24v-1.05h-6.24Zm9.42-8.35h0l-5.38,5.37,1.44,1.35,5.28-5.37-1.34-1.35Zm-6.14,7.48h0l1.06-.29.96-.38-.68-.67-.67-.67-.29.96-.38,1.06ZM1.61,1.32h20.26v12.66l-1.15,1.05V2.38H2.18v22.16h18.54v-6.14l1.15-1.05v8.34H1.02V1.32h.58Z"/>
</svg>