<?xml version="1.0" encoding="utf-8"?>
<!-- Generator: Adobe Illustrator 27.2.0, SVG Export Plug-In . SVG Version: 6.00 Build 0)  -->
<svg version="1.1" id="Layer_1" xmlns="http://www.w3.org/2000/svg" xmlns:xlink="http://www.w3.org/1999/xlink" x="0px" y="0px"
	 viewBox="0 0 151.3 156.2" style="enable-background:new 0 0 151.3 156.2;" xml:space="preserve">
<style type="text/css">
	.st0{fill:#595959;}
	.st1{fill:#FFFFFF;}
	.st2{fill-rule:evenodd;clip-rule:evenodd;fill:#595959;}
	.st3{fill:#DE2B38;}
	.st4{fill:#298C43;}
	.st5{fill:#7E8DAD;}
	.st6{fill-rule:evenodd;clip-rule:evenodd;fill:#FFFFFF;}
	.st7{fill:#A7A9AC;}
	.st8{fill:#EF3E3D;}
	.st9{fill:#010101;}
	.st10{fill:url(#XMLID_00000060742794318379870520000012616373567413225609_);}
	.st11{fill:url(#XMLID_00000094606099090068929840000015197761815360919972_);}
	.st12{fill:#AAD2DC;}
	.st13{fill:#D3E3EB;}
	.st14{fill:url(#XMLID_00000117635178732096644330000002881833178726876597_);}
	.st15{fill:url(#XMLID_00000152253831507015527140000011933089844777972131_);}
	.st16{fill:url(#XMLID_00000163759394340556054800000015993935325172953483_);}
</style>
<g>
	<g id="XMLID_00000103975529728868450570000003262122990151019437_">
		
			<linearGradient id="XMLID_00000036933787712363686310000003495590539015210932_" gradientUnits="userSpaceOnUse" x1="5.6649" y1="78.1117" x2="145.6649" y2="78.1117">
			<stop  offset="0" style="stop-color:#0092C8"/>
			<stop  offset="1" style="stop-color:#45B4E4"/>
		</linearGradient>
		
			<circle id="XMLID_00000117634729238612603370000012424839389191781530_" style="fill:url(#XMLID_00000036933787712363686310000003495590539015210932_);" cx="75.7" cy="78.1" r="70"/>
		
			<linearGradient id="XMLID_00000095296603035117609320000002165439847786070701_" gradientUnits="userSpaceOnUse" x1="76.2201" y1="67.4082" x2="129.6754" y2="120.8635">
			<stop  offset="0" style="stop-color:#0070AC"/>
			<stop  offset="0.3297" style="stop-color:#007FB9;stop-opacity:0.6318"/>
			<stop  offset="0.6733" style="stop-color:#008DC4;stop-opacity:0.2482"/>
			<stop  offset="0.8957" style="stop-color:#0092C8;stop-opacity:0"/>
		</linearGradient>
		
			<path id="XMLID_00000060719530771275974680000002610325527171246519_" style="fill:url(#XMLID_00000095296603035117609320000002165439847786070701_);" d="
			M145.6,78.2c0-4.4-0.4-8.7-1.2-12.9l-33.4-27.9L70.8,89.7l-18.2,24.4l37.8,32.5C121.9,139.8,145.6,111.8,145.6,78.2z"/>
	</g>
	<g>
		<path class="st12" d="M42.4,86.6l8.5,25.9c0.6,1.8,2.9,2.5,4.4,1.3l25.2-20.8c0,0-26.8-10.5-26.8-9.9
			C53.7,83.5,42.4,86.6,42.4,86.6z"/>
		<path class="st1" d="M109.1,36.9c-16.5,6.5-69.7,28.3-89.9,36.6c-2.7,1.1-2.5,4.9,0.2,5.8l23,7.3l8.4,25.8c0.3,1,1.2,1.7,2.1,1.9
			c0.8,0.1,1.9-20.9,1.9-20.9s24.2,17.9,35.6,26.4c2.8,2.1,6.9,0.5,7.5-2.9c3.4-17.6,12-61.6,14.9-76.7
			C113.4,37.9,111.2,36,109.1,36.9z"/>
		<path class="st13" d="M53,114.3c0.8,0.1,1.9-20.9,1.9-20.9l39.7-37.3c0.3-0.3-0.1-0.7-0.4-0.5l-51.8,31l8.4,25.8
			C51.2,113.4,52.1,114.1,53,114.3z"/>
	</g>
</g>
</svg>
