<?xml version="1.0" encoding="utf-8"?>
<!-- Generator: Adobe Illustrator 27.2.0, SVG Export Plug-In . SVG Version: 6.00 Build 0)  -->
<svg version="1.1" id="Layer_1" xmlns="http://www.w3.org/2000/svg" xmlns:xlink="http://www.w3.org/1999/xlink" x="0px" y="0px"
	 viewBox="0 0 112.2 108.2" style="enable-background:new 0 0 112.2 108.2;" xml:space="preserve">
<style type="text/css">
	.st0{fill:#367695;}
	.st1{opacity:0.5;fill:url(#SVGID_1_);}
	.st2{fill:#E6E7E7;}
	.st3{fill:#F2F2F2;}
	.st4{fill:#D2D3D4;}
	.st5{fill:#F1F0F0;}
	.st6{fill:#DD3726;}
	.st7{fill:#2774A9;}
	.st8{fill:#688B9E;}
	.st9{opacity:0.5;fill:url(#SVGID_00000011012438337883936220000015249571908787038111_);}
	.st10{fill:#BDBEC0;}
</style>
<g>
	<path class="st8" d="M103.6,91c0,5.8-4.7,10.5-10.5,10.5H18.7c-5.5,0-10-4.5-10-10V16.6c0-5.5,4.5-10,10-10h74.9
		c5.5,0,10,4.5,10,10V91z"/>
	<linearGradient id="SVGID_1_" gradientUnits="userSpaceOnUse" x1="24.7645" y1="64.4162" x2="103.5556" y2="64.4162">
		<stop  offset="0" style="stop-color:#9F9F9F"/>
		<stop  offset="1" style="stop-color:#C8C8C8"/>
	</linearGradient>
	<path class="st1" d="M44.1,71.8l29.3,29.6l19.6,0.1c2.8,0,5.5-1.1,7.5-3.1c2-2,3.1-4.7,3.1-7.5V45.4l-18.2-18L24.8,41.9l16,15.9
		L44.1,71.8z"/>
	<g>
		<polygon class="st2" points="85.4,27.4 24.8,41.9 40.6,56.9 		"/>
		<polygon class="st4" points="44.1,71.8 40.6,56.9 85.4,27.4 		"/>
		<polygon class="st2" points="70.4,87.3 85.4,27.4 48.1,63.2 		"/>
		<polygon class="st10" points="44.1,71.8 48.1,63.2 50.1,65.3 		"/>
	</g>
</g>
</svg>
