<?xml version="1.0" encoding="UTF-8"?>
<svg xmlns="http://www.w3.org/2000/svg" xmlns:xlink="http://www.w3.org/1999/xlink" viewBox="0 0 213.45 207.32">
  <defs>
    <style>
      .cls-1 {
        fill: #02b8af;
      }

      .cls-1, .cls-2, .cls-3 {
        fill-rule: evenodd;
      }

      .cls-2 {
        fill: #fff;
      }

      .cls-4 {
        isolation: isolate;
      }

      .cls-5 {
        fill: #131313;
      }

      .cls-6 {
        fill: #52c3c2;
      }

      .cls-7 {
        fill: url(#linear-gradient);
        mix-blend-mode: screen;
        opacity: .5;
      }

      .cls-3 {
        fill: #dd2426;
      }

      .cls-8 {
        fill: #fff200;
      }

      .cls-9 {
        fill: #ed1c24;
      }

      .cls-10 {
        fill: none;
        stroke: #fff;
        stroke-miterlimit: 22.93;
        stroke-width: 2.13px;
      }
    </style>
    <linearGradient id="linear-gradient" x1="81.67" y1="162.47" x2="50.29" y2="136.91" gradientUnits="userSpaceOnUse">
      <stop offset="0" stop-color="#fff"/>
      <stop offset=".13" stop-color="#ccc"/>
      <stop offset=".31" stop-color="#8f8f8f"/>
      <stop offset=".48" stop-color="#5c5c5c"/>
      <stop offset=".64" stop-color="#343434"/>
      <stop offset=".78" stop-color="#181818"/>
      <stop offset=".91" stop-color="#070707"/>
      <stop offset="1" stop-color="#010101"/>
    </linearGradient>
  </defs>
  <g class="cls-4">
    <g id="Layer_1" data-name="Layer 1">
      <g>
        <path class="cls-2" d="m104.27,135.9l52.02.88c.13-1,.21-2.01.23-3.04.02-1.03-.03-2.05-.12-3.05l-52.03-.88c-.13.99-.21,2.01-.23,3.04-.01,1.03.03,2.05.13,3.05Z"/>
        <path class="cls-6" d="m66.25,6.23h80.71c30.84,0,55.88,25.04,55.88,55.88v80.71c0,30.84-25.04,55.88-55.88,55.88h-80.71c-30.84,0-55.88-25.04-55.88-55.88V62.1c0-30.84,25.04-55.88,55.88-55.88Z"/>
        <path class="cls-3" d="m73.78,136.71h.47V58.17c0-5.34,2.18-10.2,5.71-13.72,3.53-3.52,8.38-5.71,13.72-5.71h2.15c5.34,0,10.2,2.18,13.72,5.71,3.53,3.52,5.71,8.38,5.71,13.72v78.54c0,5.34-2.18,10.2-5.71,13.72-3.52,3.52-8.37,5.71-13.72,5.71h-2.15c-5.34,0-10.2-2.19-13.72-5.71-3.52-3.52-5.71-8.38-5.71-13.72h-.95c0,11.21,9.17,20.37,20.38,20.38h2.15c11.21,0,20.38-9.17,20.38-20.38V58.17c0-11.21-9.16-20.37-20.38-20.38h-2.15c-11.21,0-20.37,9.16-20.38,20.38v78.54h.48Z"/>
        <path class="cls-2" d="m115.74,97.44h-41.96v39.27c0,10.95,8.96,19.9,19.9,19.9h2.15c10.95,0,19.9-8.96,19.9-19.9v-39.27Z"/>
        <path class="cls-2" d="m113.39,99.78h-37.27v36.93c0,4.83,1.98,9.21,5.16,12.4,3.18,3.18,7.57,5.16,12.4,5.16h2.15c4.83,0,9.22-1.98,12.4-5.16,3.18-3.18,5.16-7.57,5.16-12.4v-36.93h0Zm-39.61-4.69h44.31v41.62c0,6.12-2.5,11.69-6.53,15.72-4.03,4.03-9.6,6.54-15.72,6.54h-2.15c-6.12,0-11.68-2.51-15.72-6.54-4.03-4.03-6.53-9.6-6.53-15.72v-39.27s0-2.35,0-2.35h2.35Z"/>
        <path class="cls-2" d="m76.13,95.09h37.27v-36.92c0-4.83-1.98-9.22-5.16-12.4-3.18-3.18-7.57-5.16-12.4-5.16h-2.15c-4.82,0-9.21,1.97-12.4,5.16-3.18,3.18-5.16,7.57-5.16,12.4v36.92h0Zm39.61,4.69h-44.31v-41.62c0-6.12,2.5-11.68,6.53-15.72,4.03-4.03,9.6-6.53,15.72-6.53h2.15c6.12,0,11.68,2.5,15.72,6.53,4.03,4.03,6.54,9.6,6.54,15.72v41.62h-2.35Z"/>
        <path class="cls-1" d="m114.21,112.65c-11.4,8.91-13.42,25.36-4.52,36.76,8.9,11.4,25.36,13.43,36.76,4.52,11.4-8.91,13.42-25.37,4.52-36.77-8.91-11.4-25.36-13.42-36.77-4.52Z"/>
        <path class="cls-2" d="m114.21,112.65l-1.46-1.87c-7.21,5.63-10.99,14.05-10.99,22.53,0,6.14,1.98,12.35,6.06,17.57,5.63,7.21,14.05,10.99,22.53,10.99,6.15,0,12.35-1.98,17.57-6.06,7.21-5.63,10.99-14.05,10.98-22.53,0-6.14-1.98-12.35-6.06-17.57-5.63-7.21-14.05-10.99-22.53-10.99-6.15,0-12.35,1.98-17.57,6.06l1.46,1.87,1.46,1.87c4.36-3.4,9.51-5.05,14.64-5.05,7.09,0,14.08,3.14,18.79,9.16,3.4,4.36,5.05,9.51,5.05,14.64,0,7.09-3.14,14.09-9.16,18.79-4.36,3.41-9.51,5.05-14.64,5.05-7.09,0-14.08-3.14-18.79-9.16-3.4-4.36-5.05-9.51-5.05-14.64,0-7.09,3.14-14.08,9.16-18.79l-1.46-1.87Z"/>
        <line class="cls-10" x1="130.31" y1="109.48" x2="130.35" y2="157.11"/>
        <path class="cls-1" d="m118.09,58.17v49.31c3.89-1.85,8.07-2.75,12.23-2.75,8.49,0,16.9,3.78,22.53,10.99,4.07,5.22,6.06,11.43,6.06,17.57,0,8.49-3.77,16.9-10.98,22.53-5.22,4.08-11.42,6.06-17.57,6.06-7.33,0-14.62-2.82-20.1-8.24-3.89,3.32-8.93,5.34-14.42,5.34h-2.15c-4.84,0-9.34-1.57-13-4.22l43.95,43.95h22.33c30.73,0,55.87-25.14,55.87-55.88v-8.83L113.42,44.57c2.92,3.77,4.66,8.49,4.66,13.6Z"/>
      </g>
      <g>
        <g>
          <path class="cls-8" d="m65.21,113.07c2.77-4.79,9.68-4.79,12.45,0l16.26,28.16,16.26,28.16c2.77,4.79-.69,10.78-6.22,10.78H38.91c-5.53,0-8.99-5.99-6.22-10.78l16.26-28.16,16.26-28.16Z"/>
          <path class="cls-9" d="m107.59,170.89l-32.52-56.33c-.76-1.32-2.12-2.1-3.64-2.1s-2.88.79-3.64,2.1l-32.52,56.33c-.76,1.32-.76,2.89,0,4.2.76,1.32,2.12,2.1,3.64,2.1h65.04c1.52,0,2.88-.79,3.64-2.1.76-1.32.76-2.89,0-4.2Zm-68.11,1.77l31.95-55.34,31.95,55.34h-63.9Z"/>
        </g>
        <g>
          <g>
            <circle class="cls-5" cx="71.43" cy="135.73" r="4.76"/>
            <circle class="cls-5" cx="71.43" cy="158.25" r="2.56"/>
            <polygon class="cls-5" points="66.67 135.73 68.92 158.75 73.96 158.64 76.2 135.73 66.67 135.73"/>
          </g>
          <circle class="cls-5" cx="71.43" cy="166.31" r="3.09"/>
        </g>
        <path class="cls-7" d="m33.95,169.37c24.54,0,45.83-13.89,56.45-34.23l-12.74-22.07c-2.77-4.79-9.68-4.79-12.45,0l-16.26,28.16-16.23,28.12c.41,0,.82.02,1.24.02Z"/>
      </g>
    </g>
  </g>
</svg>