<?xml version="1.0" encoding="UTF-8"?>
<svg id="Layer_1" data-name="Layer 1" xmlns="http://www.w3.org/2000/svg" viewBox="0 0 104.51 102.13">
  <rect x="5.2" y="4.01" width="94.1" height="94.11" rx="12.55" ry="12.55" fill="#bc63a7"/>
  <path d="m99.31,85.56v-42.08c-.08-.09-13.81-13.82-13.89-13.89-.64-.69-1.56-1.13-2.6-1.13h-46.16c-1.66,0-3.04,1.11-3.38,2.58l-.09-.02s-.59.14-14.95,3.62v32.59l31.08,30.88h37.44c6.93,0,12.55-5.62,12.55-12.55Z" fill="#864476"/>
  <g>
    <path d="m81.08,39.78c0,.21-.17.38-.38.38h-21.76c-.21,0-.38-.17-.38-.38v-6.46c0-.21.17-.38.38-.38h21.76c.21,0,.38.17.38.38v6.46Zm.51-6.8c0-.23-.18-.42-.39-.42h-22.75c-.22,0-.39.19-.39.42v7.13c0,.23.18.42.39.42h22.75c.22,0,.39-.19.39-.42v-7.13Z" fill="#fff"/>
    <path d="m64.11,43.23s-.06,0-.08.02h-4.61s-.05-.02-.08-.02c-.36,0-.64.62-.64,1.39s.29,1.39.64,1.39h4.78c.35,0,.64-.62.64-1.39s-.29-1.39-.64-1.39Z" fill="#fff"/>
    <path d="m67.44,44.62c0-.77.62-1.39,1.39-1.39s1.39.62,1.39,1.39-.62,1.39-1.39,1.39-1.39-.62-1.39-1.39Z" fill="#fff"/>
    <path d="m71.9,44.62c0-.77.62-1.39,1.39-1.39s1.39.62,1.39,1.39-.62,1.39-1.39,1.39-1.39-.62-1.39-1.39Z" fill="#fff"/>
    <path d="m76.36,44.62c0-.77.62-1.39,1.39-1.39s1.39.62,1.39,1.39-.62,1.39-1.39,1.39-1.39-.62-1.39-1.39Z" fill="#fff"/>
    <path d="m64.11,47.89s-.06,0-.08.02h-4.61s-.05-.02-.08-.02c-.36,0-.64.62-.64,1.39s.29,1.39.64,1.39h4.78c.35,0,.64-.62.64-1.39s-.29-1.39-.64-1.39Z" fill="#fff"/>
    <path d="m86.29,70.38c0,1.82-1.55,3.29-3.47,3.29h-46.16c-1.92,0-3.47-1.47-3.47-3.29V31.75c0-1.82,1.55-3.29,3.47-3.29h46.16c1.91,0,3.47,1.47,3.47,3.29v38.63Zm-32.04-36.47l-19.57-3.31v37.14h19.58v-33.83Zm28.68-1.23c0-.98-.79-1.77-1.77-1.77h-22.67c-.98,0-1.77.79-1.77,1.77v24.74c0,.98.79,1.77,1.77,1.77h22.67c.98,0,1.77-.79,1.77-1.77v-24.74Zm-18.82,30.24s-.06,0-.08.02h-4.61s-.05-.02-.08-.02c-.36,0-.64.62-.64,1.39s.29,1.39.64,1.39h4.78c.35,0,.64-.62.64-1.39s-.29-1.39-.64-1.39Zm8.22,0s-.05,0-.08.02h-4.61s-.05-.02-.08-.02c-.35,0-.64.62-.64,1.39s.29,1.39.64,1.39h4.78c.35,0,.64-.62.64-1.39s-.29-1.39-.64-1.39Zm8.22,0s-.06,0-.08.02h-4.61s-.05-.02-.08-.02c-.35,0-.64.62-.64,1.39s.29,1.39.64,1.39h4.78c.35,0,.64-.62.64-1.39s-.29-1.39-.64-1.39Z" fill="#fff"/>
    <path d="m67.44,49.27c0-.77.62-1.39,1.39-1.39s1.39.62,1.39,1.39-.62,1.39-1.39,1.39-1.39-.62-1.39-1.39Z" fill="#fff"/>
    <path d="m71.9,49.27c0-.77.62-1.39,1.39-1.39s1.39.62,1.39,1.39-.62,1.39-1.39,1.39-1.39-.62-1.39-1.39Z" fill="#fff"/>
    <path d="m76.36,49.27c0-.77.62-1.39,1.39-1.39s1.39.62,1.39,1.39-.62,1.39-1.39,1.39-1.39-.62-1.39-1.39Z" fill="#fff"/>
    <path d="m67.44,53.93c0-.77.62-1.39,1.39-1.39s1.39.62,1.39,1.39-.62,1.39-1.39,1.39-1.39-.62-1.39-1.39Z" fill="#fff"/>
    <path d="m71.9,53.93c0-.77.62-1.39,1.39-1.39s1.39.62,1.39,1.39-.62,1.39-1.39,1.39-1.39-.62-1.39-1.39Z" fill="#fff"/>
    <path d="m76.36,53.93c0-.77.62-1.39,1.39-1.39s1.39.62,1.39,1.39-.62,1.39-1.39,1.39-1.39-.62-1.39-1.39Z" fill="#fff"/>
    <path d="m73.13,39.84l-.67-5.15-.82,3.55-.61-2.39-.08.3c-.07.26-.37.44-.72.44h-.66c-.26,0-.49.13-.54.3l-.24.88-.45-1.92-.83,3.99-.67-5.15-.82,3.54-.61-2.39-.08.3c-.07.26-.37.44-.72.44h-.66c-.26,0-.49.13-.54.3l-.24.88-.46-1.92-.83,3.99-.67-5.15-.82,3.55-.61-2.39-.08.3c-.07.26-.37.44-.73.44h-.39v-.2h.39c.26,0,.49-.13.54-.3l.28-1.01.59,2.33.89-3.81.66,5.07.77-3.72.48,2.03.04-.14c.07-.26.37-.44.72-.44h.66c.26,0,.49-.13.54-.3l.28-1.01.59,2.33.88-3.81.66,5.07.77-3.72.48,2.03.04-.14c.07-.26.37-.44.72-.44h.66c.26,0,.49-.13.54-.3l.28-1.01.59,2.33.88-3.81.66,5.07.77-3.72.48,2.03.04-.14c.07-.26.37-.44.72-.44h.66c.26,0,.49-.13.54-.3l.28-1.01.59,2.33.88-3.81.66,5.07.77-3.72.48,2.03.04-.14c.07-.26.37-.44.72-.44h.27v.2h-.27c-.26,0-.49.13-.54.3l-.24.88-.45-1.92-.83,3.99-.67-5.15-.82,3.54-.61-2.39-.08.3c-.07.26-.37.44-.72.44h-.66c-.26,0-.49.13-.54.3l-.24.88-.46-1.92-.83,3.99Z" fill="#fff"/>
    <path d="m33.18,31.03l19.88,3.62v32.59l-19.88-3.62V31.03Zm19.88,34.23v-29.01l-19.59-3.24v29.01l19.59,3.24Z" fill="#fff"/>
    <path d="m33.17,63.61l-14.94,3.62v-32.59l14.94-3.62v32.59Zm-.21-1.6v-29.01l-14.51,3.24v29.01l14.51-3.24Z" fill="#fff"/>
    <path d="m48.19,48.1l-.15-7.78-2.09,5.29-.53-3.79-.27.92c-.19.33-.71.48-1.29.37l-1.14-.2c-.48-.09-.94.03-1.08.26l-.49.87-.6-3.17-2.06,5.49-.38-7.38-1.88,4.91-.48-3.44-.33.57c-.18.32-.64.3-1.22.29h-.03s-.69-.03-.69-.03v-.19s.73.03.73.03c.52.02.92.03,1.05-.19l.61-1.07.46,3.25,1.94-5.06.38,7.36,1.97-5.26.63,3.33.23-.41c.18-.31.71-.46,1.28-.35l1.14.2c.48.09.94-.02,1.07-.26l.51-1.76.56,3.95,2.18-5.51.15,7.79,2.16-5.42.45,3.48.22-.39c.18-.31.71-.46,1.28-.35l.61.11-.03.19-.61-.11c-.48-.09-.94.03-1.08.26l-.51.89-.43-3.31-2.24,5.62Z" fill="#fff"/>
    <path d="m23.47,47.9l-1.17-7.5-1.07,5.56-.97-3.28-.52,1.29c-.19.28-.4.32-.67.37-.06.01-.14.02-.21.04l-.61.09-.03-.19.61-.09c.07-.02.14-.03.21-.04.26-.05.4-.07.53-.26l.72-1.79.9,3.05,1.13-5.87,1.1,7.07.56-5.91.56,3.22c.1-.38.31-.81.74-.87l.85-.19c.35-.08.62-.32.63-.58v-.03s.48-1.41.48-1.41l1.1,3.13,1.29-6.25,1.12,7.39.78-5.98.35,3.15c.11-.38.32-.78.71-.81l.56-.08.03.19-.56.08c-.48.04-.64.95-.66,1.3h-.19s-.25-2.21-.25-2.21l-.75,5.76-1.17-7.68-1.21,5.87-1.15-3.25-.29.86c-.03.34-.35.65-.79.75l-.86.19c-.63.09-.67,1.29-.67,1.3h-.19s-.41-2.37-.41-2.37l-.57,6.01Z" fill="#fff"/>
    <path d="m48.19,59.79l-.15-7.78-2.09,5.29-.53-3.79-.27.92c-.19.33-.71.48-1.29.37l-1.14-.2c-.48-.09-.94.03-1.08.26l-.49.87-.6-3.17-2.06,5.49-.38-7.37-1.88,4.91-.48-3.44-.33.57c-.18.32-.64.3-1.22.29h-.03l-.69-.03v-.19s.73.03.73.03c.52.02.92.03,1.05-.19l.61-1.07.46,3.25,1.94-5.06.38,7.36,1.97-5.26.63,3.33.23-.41c.18-.31.71-.46,1.28-.35l1.14.2c.48.09.94-.02,1.07-.26l.51-1.76.56,3.95,2.18-5.51.15,7.79,2.16-5.42.45,3.48.22-.39c.18-.31.71-.46,1.28-.35l.61.11-.03.19-.61-.11c-.48-.09-.94.03-1.08.26l-.51.89-.43-3.31-2.24,5.62Z" fill="#fff"/>
    <path d="m23.47,59.59l-1.17-7.5-1.07,5.56-.97-3.28-.52,1.29c-.19.28-.4.32-.67.37-.06.01-.14.02-.21.04l-.61.09-.03-.19.61-.09c.07-.02.14-.03.21-.04.26-.05.4-.07.53-.26l.72-1.79.9,3.05,1.13-5.87,1.1,7.07.56-5.91.56,3.22c.1-.38.31-.81.74-.87l.85-.19c.35-.08.62-.32.63-.58v-.03s.48-1.41.48-1.41l1.1,3.13,1.29-6.25,1.12,7.39.78-5.98.35,3.15c.11-.38.32-.78.71-.81l.56-.08.03.19-.56.08c-.48.04-.64.95-.66,1.3h-.19s-.25-2.21-.25-2.21l-.75,5.76-1.17-7.68-1.21,5.87-1.15-3.25-.29.86c-.03.34-.35.65-.79.75l-.86.19c-.63.09-.67,1.29-.67,1.3h-.19s-.41-2.37-.41-2.37l-.57,6.01Z" fill="#fff"/>
  </g>
</svg>