<?xml version="1.0" encoding="UTF-8"?>
<svg id="_3d_chart_icon_symbol" data-name="3d chart icon symbol" xmlns="http://www.w3.org/2000/svg" viewBox="0 0 1806.54 1806.54">
  <defs>
    <style>
      .cls-1 {
        fill: #fff;
      }

      .cls-2 {
        fill: #cba746;
      }

      .cls-3 {
        fill: #aeaeae;
      }

      .cls-4 {
        fill: #cdcfd0;
      }

      .cls-5 {
        fill: #357592;
      }

      .cls-6 {
        fill: #585759;
      }

      .cls-7 {
        fill: #69afe1;
      }

      .cls-8 {
        fill: #3f85b2;
      }

      .cls-9 {
        fill: #e57e4c;
      }

      .cls-10 {
        fill: #eed96b;
      }

      .cls-11 {
        fill: #d4ae46;
      }

      .cls-12 {
        fill: #c86940;
      }

      .cls-13 {
        fill: #808081;
      }

      .cls-14 {
        fill: #d66835;
      }

      .cls-15 {
        fill: #2a5274;
      }
    </style>
  </defs>
  <g id="_13" data-name="13">
    <g>
      <polygon class="cls-11" points="1368.16 226.71 807.52 108.78 595.64 847.11 626.67 913.78 641.19 856.68 1219.08 978.26 1209.37 1036.35 1264.61 987.84 1368.16 226.71"/>
      <path class="cls-3" d="m1104,572.71c-17.31,14.02-37.59,23.77-60.74,29.21-51.11,12.01-106.07-1.48-145.65-35.75-17.92-15.53-31.29-33.54-40-53.95-42.51-99.65,42.05-214.68,45.57-219.41,3.5-4.67,9.54-6.59,15.03-5.24,1.6.39,3.15,1.06,4.57,2.01,6.32,4.26,7.85,12.59,3.39,18.65-.77,1.05-78.15,107.61-41.48,192.34,11.99,27.68,35.05,50.15,68.85,67.19,12.19,6.15,25.8,9.49,39.47,9.69,37.9.56,68.88-8.64,92.46-27.58,72.22-58,53.8-188.08,53.6-189.36-1.09-7.43,4.16-14.11,11.77-14.93,1.7-.19,3.39-.05,4.99.33,5.49,1.36,9.93,5.84,10.83,11.6.9,5.81,21.71,146.72-62.68,215.21Z"/>
      <polygon class="cls-10" points="1339.02 261.21 820.29 152.08 626.67 913.78 1209.37 1036.35 1339.02 261.21"/>
      <path class="cls-13" d="m956.91,271.94c-3.13,16.58-19.73,26.99-37.11,23.33-17.37-3.65-29.08-20.02-26.15-36.65,2.95-16.74,19.6-27.38,37.17-23.69,17.57,3.7,29.25,20.3,26.08,37.01Z"/>
      <path class="cls-13" d="m1193.7,321.75c-3.89,16.42-21.11,26.7-38.49,23.05-17.37-3.65-28.46-19.89-24.77-36.35,3.72-16.58,21-27.1,38.57-23.4,17.57,3.69,28.6,20.17,24.68,36.7Z"/>
      <polygon class="cls-13" points="807.52 108.78 882.45 145.85 820.29 152.08 1339.02 261.21 1291.48 230.97 1368.16 226.71 807.52 108.78"/>
      <path class="cls-1" d="m1117.74,511.49c-17.04,13.67-37.04,23.15-59.91,28.41-50.45,11.62-104.8-1.73-143.98-35.35-17.74-15.23-31-32.87-39.67-52.86-42.29-97.59,40.96-209.96,44.41-214.59,3.43-4.56,9.41-6.42,14.83-5.09,1.58.38,3.11,1.04,4.53,1.98,6.28,4.18,7.79,12.34,3.41,18.27-.77,1.02-76.93,105.12-40.46,188.1,11.9,27.1,34.77,49.13,68.2,65.89,12.06,6.04,25.51,9.34,39.01,9.57,37.46.66,68.02-8.26,91.28-26.72,71.24-56.54,52.73-183.88,52.53-185.14-1.09-7.27,4.09-13.79,11.6-14.58,1.68-.17,3.35-.04,4.92.34,5.45,1.33,9.85,5.73,10.74,11.37.9,5.7,21.79,143.63-61.46,210.4Z"/>
      <polygon class="cls-2" points="595.64 847.11 645.39 840.1 626.67 913.78 595.64 847.11"/>
      <polygon class="cls-2" points="1264.61 987.84 1224.99 962.02 1209.37 1036.35 1264.61 987.84"/>
    </g>
    <g>
      <polygon class="cls-11" points="842.5 210.59 311.85 426.59 549.45 1157.05 612.47 1194.94 592.56 1139.51 1139.51 916.86 1163.97 970.45 1182.61 899.33 842.5 210.59"/>
      <path class="cls-3" d="m621.55,140.59c-19.14-11.38-40.63-18.07-64.32-20.09-52.29-4.46-104.71,16.88-138.89,56.54-15.49,17.97-26.1,37.73-31.75,59.19-27.59,104.75,72.79,206.29,76.97,210.45,4.14,4.12,10.39,5.14,15.64,3.01,1.51-.62,2.93-1.5,4.22-2.66,5.64-5.12,5.93-13.6.63-18.95-.92-.92-92.94-95.12-68.98-184.28,7.83-29.12,27.39-54.7,58.37-76.48,11.16-7.84,24.13-13.13,37.63-15.32,37.41-6.06,69.4-1.46,95.48,13.85,79.88,46.89,80.56,178.27,80.56,179.56,0,7.51,6.17,13.36,13.81,13.07,1.73-.06,3.37-.44,4.88-1.06,5.25-2.13,8.99-7.22,9.04-13.04.04-5.89.15-148.32-93.29-203.81Z"/>
      <polygon class="cls-10" points="837.67 255.48 346.68 455.34 612.47 1194.94 1163.97 970.45 837.67 255.48"/>
      <path class="cls-13" d="m526.99,478.21c6.67,15.5-1.27,33.42-17.7,40.11-16.43,6.69-35.29-.32-42.18-15.73-6.91-15.53.92-33.67,17.55-40.44,16.63-6.77,35.6.47,42.34,16.07Z"/>
      <path class="cls-13" d="m751.09,386.98c5.95,15.8-2.56,33.96-18.99,40.65-16.43,6.69-34.72-.56-40.87-16.28-6.19-15.82,2.23-34.21,18.86-40.98,16.63-6.76,35.01.71,41,16.61Z"/>
      <polygon class="cls-13" points="311.85 426.59 394.71 415.39 346.68 455.34 837.67 255.48 781.33 257.03 842.5 210.59 311.85 426.59"/>
      <path class="cls-4" d="m644.06,199.15c-18.86-11.05-40.04-17.52-63.43-19.41-51.59-4.15-103.4,16.94-137.29,55.89-15.36,17.66-25.91,37.04-31.57,58.08-27.66,102.69,71.02,201.77,75.13,205.85,4.05,4.01,10.22,4.99,15.4,2.88,1.51-.61,2.93-1.48,4.18-2.61,5.6-5.04,5.93-13.35.72-18.56-.9-.91-91.37-92.83-67.34-180.24,7.85-28.54,27.26-53.66,57.91-75.1,11.05-7.72,23.87-12.95,37.19-15.14,36.96-6.08,68.5-1.7,94.19,13.18,78.7,45.6,78.9,174.28,78.9,175.54-.04,7.36,6.04,13.06,13.57,12.75,1.71-.08,3.32-.45,4.83-1.05,5.19-2.11,8.91-7.11,8.97-12.81.06-5.77.68-145.28-91.37-199.24Z"/>
      <polygon class="cls-2" points="549.45 1157.05 586.76 1123.4 612.47 1194.94 549.45 1157.05"/>
      <polygon class="cls-2" points="1182.61 899.33 1135.33 900.1 1163.97 970.45 1182.61 899.33"/>
    </g>
    <g>
      <polygon class="cls-8" points="1208.93 393.99 636.01 393.99 580.68 1160.13 624.76 1218.99 627.21 1160.13 1217.75 1160.13 1220.2 1218.99 1264.28 1160.13 1208.93 393.99"/>
      <path class="cls-12" d="m1030.68,245.85c-13.46-17.74-30.83-32.04-52.01-42.85-46.78-23.85-103.36-23.85-149.96,0-21.11,10.81-38.4,25.11-51.72,42.85-65.05,86.64-10.35,218.52-8.05,223.96,2.28,5.36,7.68,8.67,13.35,8.67,1.64,0,3.3-.27,4.9-.86,7.18-2.61,10.64-10.35,7.75-17.31-.48-1.2-50.21-123.15,5.6-196.68,18.22-24.02,45.99-40.33,82.88-48.83,13.3-3.06,27.3-3.06,40.63,0,36.96,8.5,64.83,24.81,83.23,48.83,56.29,73.53,7.4,195.48,6.91,196.68-2.85,6.96.68,14.69,7.85,17.31,1.62.59,3.28.86,4.92.86,5.65,0,11.05-3.3,13.28-8.67,2.25-5.45,56.05-137.32-9.56-223.96Z"/>
      <polygon class="cls-7" points="1187.51 433.75 657.43 433.75 624.76 1218.99 1220.2 1218.99 1187.51 433.75"/>
      <path class="cls-8" d="m815.79,522.91c.35,16.87-13.76,30.48-31.5,30.48s-32.58-13.61-33.12-30.48c-.55-16.99,13.54-30.84,31.5-30.84s32.77,13.85,33.12,30.84Z"/>
      <path class="cls-8" d="m1057.77,522.91c-.44,16.87-15.18,30.48-32.93,30.48s-31.94-13.61-31.7-30.48c.22-16.99,14.97-30.84,32.93-30.84s32.14,13.85,31.7,30.84Z"/>
      <polygon class="cls-6" points="636.01 393.99 716.98 414.85 657.43 433.75 1187.51 433.75 1134.76 413.94 1208.93 393.99 636.01 393.99"/>
      <path class="cls-9" d="m1029.46,308.57c-13.3-17.34-30.48-31.32-51.44-41.88-46.21-23.3-102.15-23.3-148.23,0-20.87,10.56-37.96,24.54-51.13,41.88-64.35,84.69-10.31,213.67-8.03,218.99,2.25,5.26,7.59,8.48,13.19,8.48,1.62,0,3.26-.26,4.86-.84,7.09-2.56,10.52-10.13,7.66-16.92-.48-1.18-49.62-120.43,5.58-192.33,18.03-23.48,45.48-39.43,81.96-47.73,13.13-2.99,27-2.99,40.15,0,36.54,8.3,64.08,24.25,82.29,47.73,55.68,71.89,7.35,191.14,6.87,192.33-2.82,6.8.68,14.36,7.77,16.92,1.6.58,3.26.84,4.88.84,5.6,0,10.92-3.22,13.13-8.48,2.23-5.32,55.4-134.29-9.5-218.99Z"/>
      <polygon class="cls-5" points="580.68 1160.13 627.91 1143.03 624.76 1218.99 580.68 1160.13"/>
      <polygon class="cls-5" points="1264.28 1160.13 1220.2 1143.03 1220.2 1218.99 1264.28 1160.13"/>
    </g>
    <g>
      <path class="cls-14" d="m1486.94,595.55c-11.16-12.11-30.08-12.7-41.96-1.31l-114.93,89.93c-3.67,3.51-6.37,7.92-7.81,12.78,0,0-38.22,127.61-38.2,127.73-5.18-1.56-10.68-2.5-16.45-2.5H437.54c-37.87,0-65.16,36.32-54.61,72.68l94.19,344.26c12.32,45.04,53.23,76.27,99.92,76.27h551.04c23.08.02,14.57,24.48,8.18,36.31-9.17,16.96-24.44,30-44.09,32.34l-490.9,58.32c-26.52,3.15-46.6,27.94-46.6,57.49,0,31.93,23.34,57.8,52.16,57.8h568.98c15.14,0,27.44-12.28,27.44-27.44s-12.3-27.44-27.44-27.44h-435.15c-13.13,0-14.46-19.23-1.42-21.03l383.36-52.88c42.58-5.87,74.15-46.67,72.9-94.21l-1.12-43.63c15.8-13.21,27.88-30.97,33.61-51.91l86.16-315.02,61.77-192.05c1.36-4.27,3.7-8.16,6.8-11.39l103.75-84.82c10.76-11.19,10.96-28.85.46-40.28Zm-1020.02,393.79l-28.53-115.15h120.07l20.26,115.15h-111.8Zm12.82,51.69h108.08l16.54,93.94h-101.32l-23.3-93.94Zm53.21,214.63l-19.36-78.1h98.28l13.74,78.1h-92.66Zm83.93-381.47h120.07l7.96,115.15h-111.78l-16.26-115.15Zm23.54,166.84h108.08l6.5,93.94h-101.34l-13.24-93.94Zm30.28,214.63l-11.03-78.1h98.28l5.4,78.1h-92.66Zm230.39,0h-92.66l-2.67-78.1h98.28l-2.96,78.1Zm4.55-120.69h-101.34l-3.21-93.94h108.1l-3.54,93.94Zm5.47-145.63h-111.78l-3.96-115.15h120.09l-4.35,115.15Zm127.73,266.32h-92.66l5.67-78.1h98.26l-11.27,78.1Zm17.44-120.69h-101.34l6.82-93.94h108.08l-13.57,93.94Zm-90.75-145.63l8.36-115.15h120.07l-16.65,115.15h-111.78Zm211.04,266.32h-92.66l14.02-78.1h98.26l-19.63,78.1Zm30.35-120.69h-101.34l16.87-93.94h108.08l-23.61,93.94Zm36.58-145.63h-111.78l20.65-115.15h120.07l-28.95,115.15Z"/>
      <g>
        <g>
          <ellipse class="cls-15" cx="671.3" cy="1625.71" rx="72.07" ry="72.06"/>
          <path class="cls-3" d="m721.18,1625.71c0,27.55-22.34,49.87-49.88,49.87s-49.86-22.33-49.86-49.87,22.32-49.87,49.86-49.87,49.88,22.33,49.88,49.87Z"/>
        </g>
        <path class="cls-14" d="m671.3,1519.79c-11.55,0-21.03,9.46-21.03,21.02v80.07c0,11.56,9.47,21.01,21.03,21.01s21.03-9.45,21.03-21.01v-80.07c0-11.56-9.47-21.02-21.03-21.02Z"/>
      </g>
      <g>
        <g>
          <path class="cls-15" d="m1152.72,1625.71c0,39.8-32.27,72.06-72.07,72.06s-72.05-32.26-72.05-72.06,32.25-72.06,72.05-72.06,72.07,32.26,72.07,72.06Z"/>
          <path class="cls-3" d="m1130.54,1625.71c0,27.55-22.34,49.87-49.88,49.87s-49.86-22.33-49.86-49.87,22.32-49.87,49.86-49.87,49.88,22.33,49.88,49.87Z"/>
        </g>
        <path class="cls-14" d="m1080.65,1519.79c-11.55,0-21,9.46-21,21.02v80.07c0,11.56,9.45,21.01,21,21.01s21.03-9.45,21.03-21.01v-80.07c0-11.56-9.45-21.02-21.03-21.02Z"/>
      </g>
    </g>
  </g>
</svg>