<?xml version="1.0" encoding="UTF-8"?>
<svg id="Layer_1" data-name="Layer 1" xmlns="http://www.w3.org/2000/svg" viewBox="0 0 104.51 102.13">
  <rect x="5.2" y="4.01" width="94.1" height="94.1" rx="12.55" ry="12.55" fill="#a6ce38"/>
  <path d="m99.31,85.56v-33.26c-.14-.14-16.37-16.38-16.51-16.51-.77-.83-1.86-1.36-3.08-1.36h-.94s-3.84-3.81-3.84-3.81c-.13-.21-.35-.36-.62-.36h-3.46s-6.78-6.75-6.78-6.75c-.13-.21-.35-.36-.62-.36h-22.4c-.41,0-.74.33-.74.74v1.74c0,.27.15.49.36.62.05.09.96.99,1.06,1.09v5.7l1.47,1.39h-2.18s-3.76-3.76-3.84-3.81c-.13-.21-.35-.36-.62-.36h-6.38c-.41,0-.74.33-.74.74v1.31c0,.27.15.49.36.62.08.12,1.39,1.42,1.47,1.47,0,.01.02.03.03.04h-6.52c-2.32,0-4.2,1.88-4.2,4.19v33.33c0,1.22.53,2.31,1.36,3.08.36.39,22.8,22.79,23.08,23.08h41.71c6.93,0,12.55-5.62,12.55-12.55Z" fill="#7da63f"/>
  <path d="m30.19,30.26h6.38c.41,0,.74.33.74.74v1.31c0,.41-.33.74-.74.74h-6.38c-.41,0-.74-.33-.74-.74v-1.31c0-.41.33-.74.74-.74Z" fill="#fff"/>
  <path d="m67.95,30.26h6.37c.41,0,.74.33.74.74v1.31c0,.41-.33.73-.73.73h-6.37c-.41,0-.73-.33-.73-.73v-1.31c0-.41.33-.74.74-.74Z" fill="#fff"/>
  <rect x="71.14" y="77.37" width="4.54" height="1.61" rx=".43" ry=".43" fill="#fff"/>
  <rect x="28.83" y="77.37" width="4.54" height="1.61" rx=".43" ry=".43" fill="#fff"/>
  <rect x="41.74" y="26.38" width="1.53" height="6.66" fill="#fff"/>
  <path d="m41.06,23.15h22.4c.41,0,.74.33.74.74v1.74c0,.41-.33.74-.74.74h-22.4c-.41,0-.74-.33-.74-.74v-1.74c0-.41.33-.74.74-.74Z" fill="#fff"/>
  <rect x="61.24" y="26.38" width="1.52" height="6.66" fill="#fff"/>
  <path d="m83.92,71.95c0,2.32-1.88,4.19-4.2,4.19H24.79c-2.32,0-4.2-1.88-4.2-4.19v-33.33c0-2.32,1.88-4.19,4.2-4.19h54.93c2.32,0,4.2,1.88,4.2,4.19v33.33Zm-20.62-20.25h-7.45v-7.45c0-.78-.63-1.41-1.41-1.41h-4.35c-.78,0-1.41.63-1.41,1.41v7.45h-7.46c-.78,0-1.41.63-1.41,1.41v4.35c0,.78.63,1.41,1.41,1.41h7.46v7.46c0,.78.63,1.41,1.41,1.41h4.35c.78,0,1.41-.63,1.41-1.41v-7.46h7.45c.78,0,1.41-.63,1.41-1.41v-4.35c0-.78-.63-1.41-1.41-1.41Z" fill="#fff"/>
  <rect x="35.62" y="41.4" width="37.79" height="27.32" fill="#fff"/>
</svg>