<?xml version="1.0" encoding="utf-8"?>
<!-- Generator: Adobe Illustrator 27.2.0, SVG Export Plug-In . SVG Version: 6.00 Build 0)  -->
<svg version="1.1" id="Layer_1" xmlns="http://www.w3.org/2000/svg" xmlns:xlink="http://www.w3.org/1999/xlink" x="0px" y="0px"
	 viewBox="0 0 1122 1122" style="enable-background:new 0 0 1122 1122;" xml:space="preserve">
<style type="text/css">
	.st0{fill:#5DFCA0;}
	.st1{fill:#976CFF;}
	.st2{opacity:0.3;}
	.st3{fill:#000072;}
	.st4{opacity:0.55;}
	.st5{fill:#FFFFFF;}
	.st6{fill:#19AFF9;}
	.st7{opacity:0.65;}
	.st8{fill:#262F6A;}
	.st9{fill:#B5B4BF;}
	.st10{fill:none;stroke:#000072;stroke-width:35;stroke-linecap:round;stroke-linejoin:round;stroke-miterlimit:10;}
	.st11{opacity:0.25;}
	.st12{fill:#FFBE06;}
	.st13{fill:#FE4A27;}
	.st14{fill:#FFDC9C;}
	.st15{fill:#390075;}
</style>
<g id="Bg">
</g>
<g>
	<g>
		<circle class="st0" cx="595.2" cy="540.8" r="425.3"/>
	</g>
	<g>
		<g>
			<g>
				<path class="st1" d="M929.6,337.5L821.3,793.6l-14.3,60l-22,92.8c-10.5,44.2-54.9,71.6-99.1,61.1l-378.2-89.8
					c-44.2-10.5-71.6-54.9-61.1-99.1l114.1-480.6l30.5-128.3c1.2-4.9,2.8-9.7,4.8-14.2c15.7-35.7,55.1-56.2,94.4-46.9l378.2,89.8
					C912.7,248.9,940.1,293.2,929.6,337.5z"/>
			</g>
			<g class="st2">
				<path class="st3" d="M928.9,335.4L820.6,791.5l-14.2,60l-22.1,92.8c-10.5,44.3-54.9,71.6-99.2,61.1L307,915.6
					c-26-6.2-46.2-24.1-56.3-46.8c1.7,1.9,3.4,3.8,5.3,5.5c-2.9-8.5-1.5-15.8-1.5-15.8c78.7-19,124.4-96.8,124.4-96.8l40.8,66.9
					l271.1,63.3l-279.1-42.2C384.5,888,342,897.9,316,900.1l356,84.5c44.3,10.5,88.7-16.8,99.2-61.1l22.1-92.8l14.2-60l108.3-456.1
					c4.3-18.2,2.2-36.4-4.8-52.3C927.7,281.7,935.2,308.6,928.9,335.4z"/>
			</g>
			<g class="st4">
				<path class="st5" d="M922.1,277.6c-10.8-11.9-25.2-20.8-42-24.8L502,162.9c-44.2-10.5-88.6,16.9-99.1,61.1L258.2,832.9
					c-5.1,21.3-1.3,42.7,8.8,60.3c-17.6-19.4-25.6-46.9-19.1-74.3l144.6-608.9c10.5-44.2,54.9-71.6,99.1-61.1l378.2,89.8
					C892.8,244.1,911.2,258.7,922.1,277.6z"/>
			</g>
			<g>
				<path class="st3" d="M704.9,1016.3c-6.8,0-13.7-0.8-20.5-2.4l-378.2-89.8c-47.7-11.3-77.3-59.4-66-107.1l144.6-608.9
					c5.5-23.1,19.6-42.7,39.9-55.2c20.2-12.5,44.1-16.3,67.2-10.8L870,231.9c23.1,5.5,42.7,19.6,55.2,39.9
					c12.5,20.2,16.3,44.1,10.8,67.2L791.4,947.9C781.7,988.7,745.1,1016.3,704.9,1016.3z M687.4,1001.1
					c40.6,9.7,81.5-15.6,91.2-56.2L923.2,336c4.7-19.7,1.4-40-9.2-57.2c-10.6-17.2-27.3-29.3-47-34L488.8,155
					c-19.7-4.7-40-1.4-57.2,9.2c-17.2,10.6-29.3,27.3-34,47L253,820c-9.7,40.6,15.6,81.5,56.2,91.2L687.4,1001.1z"/>
			</g>
			<g>
				<path class="st6" d="M394.9,683.1c0,101.9-82.6,184.5-184.5,184.5c-18.6,0-36.6-2.8-53.6-7.9h0L37.5,893.1l32.9-90
					C42.7,770.9,26,729,26,683.1c0-101.9,82.6-184.4,184.4-184.4S394.9,581.3,394.9,683.1z"/>
			</g>
			<g class="st7">
				<path class="st5" d="M289.3,516.4c-18.7-6.4-38.8-9.9-59.6-9.9c-101.9,0-184.4,82.6-184.4,184.4c0,45.9,16.7,87.8,44.4,120
					l-27.5,75.2l-24.7,6.9l32.9-90C42.7,770.9,26,729,26,683.1c0-101.9,82.6-184.4,184.4-184.4C238.7,498.7,265.4,505,289.3,516.4z"
					/>
			</g>
			<g class="st2">
				<path class="st3" d="M394.9,683.1c0,101.9-82.6,184.5-184.5,184.5c-18.6,0-36.6-2.8-53.6-7.9h0L37.5,893.2l12.2-33.3l93.1-30.6
					h0c17.2,4.4,35.3,6.4,53.9,5.6c101.8-4.5,180.7-90.6,176.2-192.4c-1.2-28-8.7-54.3-20.9-77.6
					C378.8,596.8,394.9,638.1,394.9,683.1z"/>
			</g>
			<g>
				<path class="st3" d="M37.5,899.7c-1.8,0-3.6-0.7-4.8-2.1c-1.7-1.8-2.2-4.4-1.4-6.7l31.6-86.4c-28.1-34.1-43.5-77-43.5-121.4
					c0-105.3,85.7-191,191-191c105.3,0,191,85.7,191,191c0,105.3-85.7,191-191,191c-18.3,0-36.3-2.6-53.6-7.7l-117.5,33
					C38.7,899.7,38.1,899.7,37.5,899.7z M210.4,505.3c-98.1,0-177.9,79.8-177.9,177.9c0,42.5,15.2,83.6,42.8,115.7
					c1.6,1.8,2,4.3,1.2,6.6l-28.5,77.9l107-30c1.2-0.3,2.5-0.3,3.7,0c16.7,5.1,34,7.6,51.7,7.6c98.1,0,177.9-79.8,177.9-177.9
					C388.3,585.1,308.5,505.3,210.4,505.3z"/>
			</g>
			<g>
				<path class="st5" d="M441.7,229.5L333,687.2l83.8,137.3l303.7,72.1c11.7,2.8,23.5-4.5,26.2-16.2l130-547.6L441.7,229.5z"/>
				<path class="st3" d="M725.6,898.2c-1.8,0-3.5-0.2-5.3-0.6l-304.1-72.2L332,687.4l0.1-0.4L441,228.4l0.9,0.2l436,103.5l-0.2,0.9
					l-130,547.6c-1.4,5.9-5,10.9-10.2,14.1C733.8,897,729.7,898.2,725.6,898.2z M417.4,823.7l303.3,72c5.4,1.3,11,0.4,15.8-2.5
					c4.7-2.9,8.1-7.5,9.4-12.9l129.8-546.7L442.4,230.7L334,687.1L417.4,823.7z"/>
			</g>
			<g>
				<path class="st3" d="M725.6,904c-2.2,0-4.4-0.3-6.7-0.8l-303.7-72.1c-1.8-0.4-3.3-1.5-4.2-3.1l-83.8-137.3
					c-0.9-1.5-1.2-3.4-0.8-5.1L435.1,228c0.4-1.7,1.5-3.3,3-4.2c1.5-0.9,3.4-1.2,5.1-0.8l435.1,103.3c1.7,0.4,3.3,1.5,4.2,3
					c0.9,1.5,1.2,3.4,0.8,5.1L753.3,882c-1.8,7.4-6.3,13.7-12.8,17.7C736,902.6,730.8,904,725.6,904z M421.1,818.6l301,71.5
					c3.9,0.9,7.9,0.3,11.4-1.8c3.4-2.1,5.8-5.4,6.7-9.3l128.5-541L446.7,237.7L340.3,686.1L421.1,818.6z"/>
			</g>
			<g>
				<path class="st3" d="M416.8,831.1c-2.3,0-4.4-1.2-5.6-3.2l-83.8-137.3c-1.4-2.3-1.3-5.2,0.3-7.3c1.6-2.2,4.3-3.1,6.9-2.5
					l80.9,19.2c9.5,2.3,17.6,8.1,22.7,16.4c5.1,8.3,6.7,18.1,4.4,27.7L423.2,826c-0.6,2.6-2.7,4.6-5.4,5
					C417.5,831.1,417.1,831.1,416.8,831.1z M346.9,697.3l67.2,110.1l15.8-66.4c1.4-6.1,0.4-12.4-2.8-17.7
					c-3.3-5.3-8.4-9.1-14.5-10.5L346.9,697.3z"/>
			</g>
			<g class="st2">
				<path class="st8" d="M332.1,688.1l83.8,137.3l19.5-81.9c3.8-16.1-6.1-32.3-22.3-36.1L332.1,688.1z"/>
				<path class="st3" d="M416.3,827.8l-86.1-141.2l83.1,19.7c8,1.9,14.9,6.8,19.2,13.9c4.3,7,5.7,15.3,3.8,23.4L416.3,827.8z
					 M334.1,689.5l81.4,133.4l18.9-79.7c1.8-7.6,0.5-15.4-3.5-22c-4.1-6.6-10.5-11.2-18-13L334.1,689.5z"/>
			</g>
			<g class="st2">
				<path class="st3" d="M488.2,784.4l-12.8,54l-27.8-6.8l-29.1-7.1l6.8-29.6l12.2-53.4l28.5,6.8
					C482.1,752.1,492.1,768.3,488.2,784.4z"/>
			</g>
			<g class="st2">
				
					<rect x="426.9" y="296.1" transform="matrix(-0.9729 -0.2311 0.2311 -0.9729 1207.7827 777.7875)" class="st3" width="445.2" height="44.2"/>
			</g>
			<g>
				<path class="st9" d="M889.1,297.4c-9.3-15.2-24.5-26.8-43.2-31.3L802,255.7c-52.2-12.4-71-37.2-66.5-93.8
					c3.9-24.4-11.7-48.1-36.1-53.9c-23.2-5.5-46.5,7-55.2,28.4c0,0.1-0.1,0.2-0.1,0.3c-21.6,55.2-49.5,69.7-102.8,57.1l-43.2-10.3
					c-37.5-8.9-75,14.3-83.9,51.7L897.6,350C902,331.3,898.5,312.5,889.1,297.4z M680.1,190.5c-12.5-3-20.2-15.5-17.2-28
					c3-12.5,15.5-20.2,28-17.2c12.5,3,20.2,15.5,17.2,28C705.1,185.7,692.6,193.4,680.1,190.5z"/>
				<path class="st3" d="M898.3,351.2l-0.9-0.2L413,235.9l0.2-0.9c9-37.9,47.1-61.4,85-52.4l43.2,10.3
					c53.1,12.6,80.7-2.7,101.7-56.5l0.2-0.4c9.1-22.3,32.8-34.5,56.3-28.9c24.6,5.9,40.8,30,36.8,55c-4.4,55.2,13.4,80.3,65.7,92.8
					l43.9,10.4c18.4,4.4,33.9,15.6,43.8,31.7v0c9.9,16.1,12.9,35,8.6,53.4L898.3,351.2z M415.3,234.5l481.6,114.4
					c3.9-17.6,0.9-35.7-8.6-51v0c-9.6-15.6-24.8-26.6-42.6-30.8l-43.9-10.4c-53.5-12.7-71.7-38.4-67.2-94.8
					c3.8-24.1-11.7-47.3-35.4-52.9c-22.2-5.3-45.5,6.7-54.1,27.8l-0.1,0.4c-21.4,54.9-49.6,70.5-103.9,57.6l-43.2-10.3
					C461.3,175.7,424.5,198.2,415.3,234.5z M685.5,192.1c-1.8,0-3.7-0.2-5.6-0.7c-6.3-1.5-11.6-5.3-15-10.8
					c-3.4-5.5-4.4-12-2.9-18.3c3.1-13,16.1-21,29.1-17.9c13,3.1,21,16.1,17.9,29.1C706.4,184.6,696.4,192.1,685.5,192.1z
					 M685.5,145.6c-10.1,0-19.3,6.9-21.7,17.1c-1.4,5.8-0.4,11.8,2.7,16.8c3.1,5.1,8,8.6,13.8,10c12,2.8,24-4.6,26.8-16.5
					c2.8-12-4.6-24-16.5-26.8C688.9,145.8,687.2,145.6,685.5,145.6z"/>
			</g>
			<g class="st4">
				<path class="st5" d="M706.9,158.8c1.9,4.4,2.4,9.4,1.2,14.4c-3,12.5-15.5,20.2-28,17.2c-2.6-0.6-5.1-1.7-7.2-3.1
					c2.8,6.6,8.6,11.8,16,13.5c12.5,3,25-4.7,28-17.2C719.2,173.9,714.9,164,706.9,158.8z M699.4,108c-23.2-5.5-46.5,7-55.2,28.4
					c0,0.1-0.1,0.2-0.1,0.3c-21.6,55.2-49.5,69.7-102.8,57.1l-43.2-10.3c-37.5-8.9-75,14.3-83.9,51.7l11.2,2.6
					c11.9-32.8,46.8-52.1,81.6-43.9l43.2,10.3c53.2,12.6,81.2-1.8,102.8-57.1c0-0.1,0.1-0.2,0.2-0.3c8.7-21.4,32-33.9,55.2-28.4
					c8,1.9,15,5.7,20.7,10.8C722.5,118.9,712.2,111,699.4,108z"/>
			</g>
			<g>
				<path class="st10" d="M889.1,297.4c-9.3-15.2-24.5-26.8-43.2-31.3L802,255.7c-52.2-12.4-71-37.2-66.5-93.8
					c3.9-24.4-11.7-48.1-36.1-53.9c-23.2-5.5-46.5,7-55.2,28.4c0,0.1-0.1,0.2-0.1,0.3c-21.6,55.2-49.5,69.7-102.8,57.1l-43.2-10.3
					c-37.5-8.9-75,14.3-83.9,51.7L897.6,350C902,331.3,898.5,312.5,889.1,297.4z M680.1,190.5c-12.5-3-20.2-15.5-17.2-28
					c3-12.5,15.5-20.2,28-17.2c12.5,3,20.2,15.5,17.2,28C705.1,185.7,692.6,193.4,680.1,190.5z"/>
			</g>
			<g class="st11">
				<path class="st5" d="M726.1,266.2c-1.7,7.2-29.7,6.6-62.6-1.2c-32.9-7.8-58.1-19.9-56.4-27.1c1.7-7.2,28.3-0.8,61.2,7
					C701.1,252.7,727.8,259.1,726.1,266.2z"/>
			</g>
			<g>
				<path class="st10" d="M466.7,354.4l228.5,54.3"/>
			</g>
			<g>
				<path class="st10" d="M407.9,621.1l228.5,54.3"/>
			</g>
			<g>
				<path class="st10" d="M448.7,416l297.8,72.4"/>
			</g>
			<g>
				<g>
					<path class="st1" d="M188,715.9c0-14.9,3.6-28.1,17.4-47.8c15.8-22.6,20-36.5,20-53.6c0-16.2-6.5-22.3-17.8-22.3
						c-11.3,0-17.8,6.1-17.8,22.3v17.3c0,4-3.3,7.3-7.3,7.3h-19c-4,0-7.3-3.3-7.3-7.3v-15c0-36.2,17.4-56.9,52-56.9
						s52.7,20.7,52.7,56.9c0,19.7-6.1,36.2-23.6,59.5c-13.9,18.7-18.4,29.7-18.4,41v2.6c0,5.3-4.3,9.6-9.6,9.6h-11.7
						c-5.3,0-9.6-4.3-9.6-9.6V715.9z M195.9,755h15.3c5.2,0,9.5,4.2,9.5,9.5v15.3c0,5.2-4.2,9.5-9.5,9.5h-15.3
						c-5.2,0-9.5-4.2-9.5-9.5v-15.3C186.4,759.3,190.7,755,195.9,755z"/>
				</g>
			</g>
			<g class="st7">
				<g>
					<path class="st5" d="M208.4,559.9c-34.6,0-52,20.7-52,56.9v15c0,4,3.3,7.3,7.3,7.3h7.2c-1.5-1.3-2.5-3.3-2.5-5.5v-15
						c0-36.2,17.4-56.9,52-56.9c1.7,0,3.3,0.1,4.8,0.2C220.1,560.5,214.5,559.9,208.4,559.9z M217.4,669.9
						c15.8-22.6,20-36.5,20-53.6c0-16.2-6.5-22.3-17.8-22.3c-1,0-1.9,0-2.8,0.2c5.6,2.9,8.6,9.3,8.6,20.4c0,17.1-4.2,31-20,53.6
						c-13.9,19.7-17.4,33-17.4,47.8v3.9c0,5.3,4.3,9.6,9.6,9.6h6.4c-2.4-1.8-4-4.6-4-7.8v-3.9C200,702.9,203.5,689.6,217.4,669.9z
						 M207.8,756.8h8.8c-1.5-1.1-3.4-1.8-5.5-1.8h-15.3c-5.3,0-9.5,4.2-9.5,9.5v15.3c0,5.2,4.2,9.5,9.5,9.5h6.4
						c-2.4-1.7-4-4.5-4-7.7v-15.3C198.4,761.1,202.6,756.8,207.8,756.8z"/>
				</g>
			</g>
			<g>
				<path class="st10" d="M435.1,481.4l297.8,72.4"/>
			</g>
			<g>
				<g>
					<path class="st3" d="M211.2,795.9h-15.3c-8.9,0-16.1-7.2-16.1-16.1v-15.3c0-8.9,7.2-16.1,16.1-16.1h15.3
						c8.9,0,16.1,7.2,16.1,16.1v15.3C227.2,788.7,220,795.9,211.2,795.9z M195.9,761.6c-1.6,0-2.9,1.3-2.9,2.9v15.3
						c0,1.6,1.3,2.9,2.9,2.9h15.3c1.6,0,2.9-1.3,2.9-2.9v-15.3c0-1.6-1.3-2.9-2.9-2.9H195.9z M209.4,736.1h-11.7
						c-9,0-16.2-7.3-16.2-16.2v-3.9c0-15.1,3.2-29.7,18.7-51.6c15.8-22.6,18.8-35,18.8-49.8c0-14.5-5.3-15.7-11.2-15.7
						c-5.9,0-11.2,1.2-11.2,15.7v17.3c0,7.7-6.2,13.9-13.9,13.9h-19c-7.7,0-13.9-6.2-13.9-13.9v-15c0-40.3,21.4-63.5,58.6-63.5
						c37.7,0,59.3,23.1,59.3,63.5c0,21.7-7,39.5-24.9,63.4c-14.2,19.2-17.1,28.4-17.1,37.1v2.6C225.6,728.8,218.4,736.1,209.4,736.1
						z M207.7,585.6c11.1,0,24.4,5,24.4,28.9c0,20-5.6,35-21.2,57.4c-13.5,19.2-16.3,31.1-16.3,44v3.9c0,1.7,1.4,3.1,3.1,3.1h11.7
						c1.7,0,3.1-1.4,3.1-3.1v-2.6c0-13.4,5.3-25.6,19.7-45c16.3-21.7,22.3-36.7,22.3-55.5c0-33.4-15.5-50.3-46.1-50.3
						c-30.1,0-45.4,16.9-45.4,50.3v15c0,0.4,0.3,0.7,0.7,0.7h19c0.4,0,0.7-0.3,0.7-0.7v-17.3C183.4,590.6,196.6,585.6,207.7,585.6z"
						/>
				</g>
			</g>
			<g class="st11">
				<path class="st5" d="M122.5,704c3.2,30.8,6.3,57.5-13.4,59.6c-19.6,2.1-38.2-21.2-41.4-52c-3.2-30.8,10.1-57.4,29.7-59.5
					C117.1,650,119.3,673.2,122.5,704z"/>
			</g>
		</g>
		<g>
			<g>
				<path class="st12" d="M1080,834.1L876.6,576.4c-2.6-3.3-5.5-6.3-8.6-9.1l0,0c-7.2-6.3-15.6-11.1-24.8-14l-53.9-17l-31.5-10
					c-9.1-2.9-18.1,4.3-17.5,13.8l2.4,33l4,56.4c0.6,8.8,2.9,17.3,6.7,25.1l0,0c2.2,4.5,4.8,8.8,8,12.7L964,924
					c25.2,31.9,72.5,38.2,104.3,12.9c15.7-12.5,24.9-30.2,27.1-48.7C1097.5,869.5,1092.6,850,1080,834.1z"/>
			</g>
			<g>
				<path class="st13" d="M1080,834.1l-18.6-23.6l-115.2,90.9L964,924c25.2,31.9,72.5,38.2,104.3,12.9
					c15.7-12.5,24.9-30.2,27.1-48.7C1097.5,869.5,1092.6,850,1080,834.1z"/>
				<path class="st3" d="M1023.3,953.5c-2.9,0-5.9-0.2-8.8-0.5c-20.1-2.3-38.8-12.7-51.2-28.4l-18.4-23.3l116.7-92.1l19.2,24.3
					c12.3,15.6,17.8,35,15.5,54.8c-2.3,19.5-12,37.1-27.4,49.4C1055.9,948,1039.9,953.5,1023.3,953.5z M947.5,901.7l17.2,21.8
					c12.1,15.3,30.3,25.4,49.9,27.7c19.3,2.2,38.2-3.1,53-14.9c15-12,24.5-29.1,26.7-48.1c2.3-19.2-3.1-38.2-15.1-53.4l-18-22.8
					L947.5,901.7z"/>
			</g>
			<g>
				<path class="st14" d="M868,567.3L868,567.3c-7.2-6.3-15.6-11.1-24.8-14l-53.9-17l-31.5-10c-9.1-2.9-18.1,4.3-17.5,13.8l2.4,33
					l4,56.4c0.6,8.8,2.9,17.3,6.7,25.1l0,0c14.9,8.8,40,6.4,41.6-19.4c29.4,11.9,48.4-5.5,43.8-34.6
					C860.2,608.3,876.4,587.2,868,567.3z"/>
				<path class="st15" d="M770.4,660.2c-5.9,0-12.1-1.6-17.5-4.8l-0.4-0.5c-3.9-8-6.2-16.6-6.8-25.5l-6.4-89.4
					c-0.3-4.8,1.7-9.4,5.5-12.4c3.8-3,8.7-3.9,13.3-2.4l85.4,27c9.3,3,17.8,7.7,25.2,14.2l0.3,0.4c4.3,10.2,2.5,21.7-4.6,29.2
					c-6.2,6.5-15.1,8.7-24.2,6c1.8,14-1.9,25.7-10.2,32.3c-8.4,6.7-20.4,7.5-34,2.3c-1.2,12.1-7.4,17.8-12.5,20.5
					C779.6,659.2,775.1,660.2,770.4,660.2z M754.2,653.8c8.9,5.2,20.3,5.8,28.3,1.5c6.9-3.7,10.9-10.7,11.5-20.2l0.1-1.4l1.3,0.5
					c13.4,5.4,25.2,4.9,33.2-1.5c8-6.4,11.4-18,9.2-32l-0.3-1.7l1.6,0.6c8.8,3.2,17.7,1.3,23.7-4.9c6.5-6.9,8.2-17.4,4.3-26.8
					c-7-6.1-15.2-10.8-24.2-13.6l-85.4-27c-4-1.3-8.2-0.5-11.4,2.1c-3.3,2.6-5,6.5-4.7,10.6l6.4,89.4
					C748.3,637.9,750.5,646.1,754.2,653.8z"/>
			</g>
			<g class="st2">
				<path class="st3" d="M1080,834.1L876.6,576.4c-2.6-3.3-5.5-6.3-8.6-9.1l0,0c-7.2-6.3-15.6-11.1-24.8-14l-53.9-17l-31.5-10
					c-9.1-2.9-18.1,4.3-17.5,13.8l0.5,6.6l25.2,8l53.9,17c9.2,2.9,17.6,7.7,24.8,14l0,0c3.1,2.7,6,5.8,8.6,9.1l203.4,257.8
					c12.6,15.9,17.5,35.4,15.3,54.1c-1.6,13.9-7.3,27.4-16.6,38.5c4.5-2.2,8.8-4.9,12.9-8.2c15.7-12.5,24.9-30.2,27.1-48.7
					C1097.5,869.5,1092.6,850,1080,834.1z"/>
			</g>
			<g class="st7">
				<path class="st5" d="M756.1,527.6c0-0.6,0-1.2,0-1.8c-8.5-1.5-16.4,5.3-15.8,14.2l2.4,33l4,56.4c0.6,8.8,2.9,17.3,6.7,25.1l0,0
					c2.2,4.5,4.8,8.8,8,12.7L964,924c25.2,31.9,72.5,38.2,104.3,12.9c2.6-2.1,5-4.3,7.2-6.6c-31.2,18.2-72.7,10.4-95.7-18.7
					L874.5,778.2c1.6-31.8-26.4-73.4-60.3-76.5l-37-46.9c-3.1-4-5.8-8.2-8-12.7l0,0c-3.8-7.8-6.1-16.4-6.7-25.1l-4-56.4L756.1,527.6
					z"/>
			</g>
			<g>
				<path class="st3" d="M1023.3,959.3c-3.1,0-6.3-0.2-9.5-0.5c-21.7-2.5-41.8-13.6-55.1-30.6L756.1,671.5
					c-9.5-12-15-26.4-16.1-41.6l-6.4-89.4c-0.5-6.7,2.4-13.2,7.6-17.3c5.3-4.2,12.2-5.4,18.6-3.4l85.4,27
					c14.6,4.6,27.2,13.4,36.7,25.3l203.4,257.8c13.3,16.8,19.2,37.8,16.7,59.1c-2.5,21.1-13,40-29.6,53.2
					C1058.5,953.4,1041.3,959.3,1023.3,959.3z M753.7,532.4c-1.5,0-2.9,0.5-4.1,1.4c-1.8,1.4-2.7,3.5-2.5,5.7l6.4,89.4
					c0.9,12.5,5.5,24.3,13.2,34.2l202.6,256.7c11.1,14.1,27.9,23.4,46,25.5c17.8,2,35.1-2.8,48.7-13.7c13.8-11,22.5-26.7,24.6-44.2
					c2.1-17.7-2.9-35.1-13.9-49.1L871.3,580.6c-7.8-9.8-18.2-17-30.1-20.8l-85.4-27C755.1,532.5,754.4,532.4,753.7,532.4z"/>
			</g>
			<g>
				<path class="st9" d="M1025.4,773.1l-107.5,84.8c-5,3.9-5.9,11.2-1.9,16.2l17.8,22.5c3.9,5,11.2,5.9,16.2,1.9l107.5-84.8
					c5-3.9,5.9-11.2,1.9-16.2l-17.8-22.5C1037.6,770,1030.4,769.1,1025.4,773.1z"/>
				<path class="st3" d="M942.8,902c-0.5,0-1,0-1.5-0.1c-3.3-0.4-6.3-2-8.3-4.7l-17.8-22.5c-2.1-2.6-3-5.9-2.6-9.2
					c0.4-3.3,2-6.3,4.7-8.3l107.5-84.8c2.6-2.1,5.9-3,9.2-2.6c3.3,0.4,6.3,2,8.3,4.7l17.8,22.5c2.1,2.6,3,5.9,2.6,9.2
					c-0.4,3.3-2,6.3-4.7,8.3l-107.5,84.8C948.3,901,945.6,902,942.8,902z M1032.5,771.5c-2.4,0-4.7,0.8-6.5,2.3l-107.5,84.8
					c-2.2,1.8-3.6,4.3-4,7.1c-0.3,2.8,0.5,5.6,2.2,7.8l17.8,22.5c1.8,2.2,4.3,3.6,7.1,4c2.8,0.3,5.6-0.5,7.8-2.2l107.5-84.8
					c2.2-1.8,3.6-4.3,4-7.1c0.3-2.8-0.5-5.6-2.2-7.8l-17.8-22.5c-1.8-2.2-4.3-3.6-7.1-4C1033.3,771.6,1032.9,771.5,1032.5,771.5z"/>
			</g>
			<g class="st2">
				<path class="st3" d="M1059.4,797.5l-17.8-22.5c-3.9-5-11.2-5.8-16.2-1.9l-28.1,22.2c5-3.9,12.2-3.1,16.2,1.9l17.8,22.5
					c3.9,5,3.1,12.2-1.9,16.2l28.1-22.2C1062.4,809.8,1063.3,802.5,1059.4,797.5z"/>
			</g>
			<g class="st7">
				<path class="st5" d="M931.2,847.4l-13.3,10.5c-5,3.9-5.8,11.2-1.9,16.2l17.8,22.5c3.9,5,11.2,5.8,16.2,1.9l13.3-10.5
					c-5,3.9-12.2,3.1-16.2-1.9l-17.8-22.5C925.3,858.6,926.2,851.3,931.2,847.4z"/>
			</g>
			<g>
				<path class="st3" d="M942.8,907.8c-0.7,0-1.5,0-2.2-0.1c-4.9-0.6-9.2-3-12.2-6.8l-17.8-22.5c-3-3.8-4.4-8.6-3.8-13.5
					c0.6-4.9,3-9.2,6.8-12.2l107.5-84.8c3.8-3,8.6-4.4,13.5-3.8c4.9,0.6,9.2,3,12.2,6.8l17.8,22.5c3,3.8,4.4,8.6,3.8,13.5
					c-0.6,4.9-3,9.2-6.8,12.2l-107.5,84.8C950.9,906.4,946.9,907.8,942.8,907.8z M1032.5,777.4c-1.1,0-2.1,0.4-2.9,1l0,0
					l-107.5,84.8c-1,0.8-1.6,1.9-1.8,3.2c-0.1,1.3,0.2,2.5,1,3.5l17.8,22.5c0.8,1,1.9,1.6,3.2,1.8c1.3,0.1,2.5-0.2,3.5-1l107.5-84.8
					c1-0.8,1.6-1.9,1.8-3.2c0.1-1.3-0.2-2.5-1-3.5l-17.8-22.5c-0.8-1-1.9-1.6-3.2-1.8C1032.9,777.4,1032.7,777.4,1032.5,777.4z
					 M1025.4,773.1L1025.4,773.1L1025.4,773.1z"/>
			</g>
			<g>
				<path class="st3" d="M770.4,665.9c-7,0-14.2-1.9-20.4-5.5c-0.7-0.4-1.3-0.9-1.8-1.6c-2.4-2.9-1.9-7.2,1-9.5c2.3-1.9,5.6-2,8-0.4
					c7.2,4.1,16.5,4.7,22.7,1.4c5.2-2.7,8-8,8.5-15.5c0.1-2.2,1.3-4.2,3.1-5.3c1.8-1.2,4.1-1.4,6.2-0.5c11.4,4.6,21.2,4.4,27.5-0.7
					c6.4-5,8.9-14.7,7.1-26.6c-0.4-2.4,0.5-4.8,2.4-6.3c1.8-1.5,4.4-2,6.6-1.1c6.7,2.4,13.1,1.2,17.5-3.5c5-5.2,6.2-13.3,3.1-20.7
					c-1.2-2.7-0.5-6,1.9-8c2.9-2.4,7.2-1.9,9.5,1l0,0c0.4,0.5,0.7,1.1,1,1.6c5.2,12.4,2.9,26.2-5.8,35.4c-5.9,6.2-13.8,9.3-22.2,8.9
					c0,12.7-4.5,23.3-12.8,29.9c-8.6,6.8-20.2,8.6-33.1,5.2c-2.3,8.1-7.2,14.4-14.2,18.1C781.5,664.7,776,665.9,770.4,665.9z"/>
			</g>
			<g>
				<path class="st3" d="M742.7,579.8c-3.3,0-6.2-2.4-6.7-5.7c-0.6-3.7,2-7.2,5.7-7.7c20.2-3.1,33.7-13.8,41.4-32.7
					c1.4-3.5,5.4-5.1,8.8-3.7c3.5,1.4,5.1,5.4,3.7,8.8c-9.5,23.3-27,37.1-51.9,40.9C743.4,579.8,743,579.8,742.7,579.8z"/>
			</g>
			<g>
				<path class="st3" d="M789.3,536.2l-31.6-10c-9-2.9-18.1,4.3-17.5,13.8l2.4,33C765.2,569.6,780.7,557.3,789.3,536.2z"/>
			</g>
		</g>
	</g>
</g>
</svg>
