<?xml version="1.0" encoding="utf-8"?>
<!-- Generator: Adobe Illustrator 27.2.0, SVG Export Plug-In . SVG Version: 6.00 Build 0)  -->
<svg version="1.1" id="Layer_1" xmlns="http://www.w3.org/2000/svg" xmlns:xlink="http://www.w3.org/1999/xlink" x="0px" y="0px"
	 viewBox="0 0 104.5 102.1" style="enable-background:new 0 0 104.5 102.1;" xml:space="preserve">
<style type="text/css">
	.st0{fill:#595959;}
	.st1{fill:#FFFFFF;}
	.st2{fill-rule:evenodd;clip-rule:evenodd;fill:#595959;}
	.st3{fill:#DE2B38;}
	.st4{fill:#298C43;}
	.st5{fill:#7E8DAD;}
	.st6{fill-rule:evenodd;clip-rule:evenodd;fill:#FFFFFF;}
	.st7{fill:#A7A9AC;}
	.st8{fill:#EF3E3D;}
	.st9{fill:#010101;}
	.st10{fill:url(#XMLID_00000149372272644118840280000008664476434364742834_);}
	.st11{fill:#AAD2DC;}
	.st12{fill:#D3E3EB;}
	.st13{fill:url(#XMLID_00000011028688632529397940000014523049399657770647_);}
	.st14{fill:url(#XMLID_00000010312801442145567060000006003429298698377355_);}
	.st15{fill:url(#XMLID_00000049202835123559510870000016246229749528962217_);}
	.st16{fill:url(#XMLID_00000177477122282172149420000002223065155849013124_);}
	.st17{fill:#AF76B2;}
	.st18{fill:none;stroke:#24326A;stroke-linecap:round;}
	.st19{fill:#24326A;}
	.st20{fill:none;stroke:#FFFFFF;stroke-linecap:round;}
	.st21{fill:#BB9B95;}
	.st22{fill:#DECAC6;}
	.st23{fill:#429DD7;}
	.st24{fill:#72B3E2;}
	.st25{opacity:0.5;fill:#E8F2FB;}
	.st26{opacity:0.5;fill:#FFFFFF;}
	.st27{fill:#E93837;}
	.st28{fill:#F05044;}
	.st29{fill:#EFE2E1;}
	.st30{fill:#F15F50;}
	.st31{fill:#EAD9D8;}
	.st32{fill:#F04D3F;}
	.st33{fill:#422D2A;}
	.st34{fill:#573B38;}
	.st35{fill:#664545;}
	.st36{fill:#D1B8B4;}
	.st37{fill:#C5A9A6;}
	.st38{fill:#7FA63F;}
	.st39{fill:#98CA42;}
	.st40{fill:#221F1F;}
	.st41{fill:#F2C224;}
	.st42{filter:url(#Adobe_OpacityMaskFilter);}
	.st43{filter:url(#Adobe_OpacityMaskFilter_00000096741679888633519400000015590201339748764308_);}
	
		.st44{mask:url(#XMLID_00000057109598945218759220000001396915140904392120_);fill:url(#XMLID_00000127760881035588823470000012213475388560452776_);}
	.st45{opacity:0.19;fill:url(#XMLID_00000132072158644778198840000005790877910631622561_);}
</style>
<g>
	<path class="st5" d="M99.3,85.6c0,6.9-5.6,12.6-12.6,12.6h-69c-6.9,0-12.6-5.6-12.6-12.6v-69C5.2,9.6,10.8,4,17.8,4h69
		c6.9,0,12.6,5.6,12.6,12.6V85.6z"/>
	<g id="XMLID_2_">
		<g id="XMLID_3_">
			<g id="XMLID_37_">
				<path id="XMLID_307_" class="st40" d="M89.8,86.2H14.7c-3.2,0-5.1-3.6-3.5-6.4l37.2-61.9c1.6-2.6,5.3-2.7,6.9,0l37.9,61.9
					C95,82.6,93,86.2,89.8,86.2z"/>
				<path id="XMLID_38_" class="st41" d="M89.8,89.5H14.7c-1.4,0-2.7-0.4-3.8-1.1c-1.1-0.7-2-1.6-2.6-2.7c-0.6-1.1-0.9-2.4-0.9-3.7
					c0-1.4,0.4-2.7,1.1-3.9l37.2-61.9c1.3-2.2,3.6-3.5,6.2-3.6c0,0,0,0,0,0c2.5,0,4.8,1.3,6.2,3.5L96,78c1.4,2.3,1.5,5.2,0.2,7.6
					C94.9,88,92.5,89.5,89.8,89.5z M51.9,19.3C51.9,19.3,51.9,19.3,51.9,19.3c-0.2,0-0.5,0.1-0.7,0.4L14,81.5
					c-0.2,0.4-0.1,0.7,0,0.9c0.1,0.2,0.3,0.4,0.7,0.4h75.1c0.4,0,0.6-0.2,0.7-0.5c0.1-0.2,0.2-0.5,0-0.9L52.6,19.7
					C52.4,19.3,52.1,19.3,51.9,19.3z"/>
			</g>
			<g id="XMLID_4_">
				<path id="XMLID_36_" class="st41" d="M89.8,86.2H14.7c-3.2,0-5.1-3.6-3.5-6.4l37.2-61.9c1.6-2.6,5.3-2.7,6.9,0l37.9,61.9
					C95,82.6,93,86.2,89.8,86.2z"/>
				<path id="XMLID_17_" class="st40" d="M89.8,87.6H14.7c-2,0-3.8-1.1-4.7-2.8c-1-1.8-0.9-3.9,0.1-5.6l37.2-61.9
					c1-1.6,2.7-2.6,4.6-2.6c0,0,0,0,0,0c1.9,0,3.6,1,4.6,2.6L94.4,79c1.1,1.7,1.1,3.9,0.2,5.6C93.6,86.5,91.8,87.6,89.8,87.6z
					 M51.9,17.3C51.9,17.3,51.9,17.3,51.9,17.3c-1,0-1.8,0.5-2.3,1.3L12.4,80.5c-0.5,0.9-0.5,1.9-0.1,2.8c0.5,0.9,1.4,1.4,2.4,1.4
					h75.1c1,0,1.9-0.5,2.4-1.4c0.5-0.9,0.5-2-0.1-2.8L54.2,18.6C53.7,17.8,52.9,17.3,51.9,17.3z"/>
			</g>
		</g>
		<g id="XMLID_312_">
			<path id="XMLID_309_" class="st40" d="M52.3,29.9c-3.3,0-5.5,4.7-5,9.5l3,29.6c0.1,0.7,1,1.3,2.1,1.3c1.1,0,2-0.6,2.1-1.3l3-29.6
				C57.8,34.6,55.6,29.9,52.3,29.9z"/>
			<circle id="XMLID_313_" class="st40" cx="52.3" cy="74.6" r="3.2"/>
		</g>
		<defs>
			<filter id="Adobe_OpacityMaskFilter" filterUnits="userSpaceOnUse" x="7.4" y="12.6" width="63.7" height="72.7">
				<feFlood  style="flood-color:white;flood-opacity:1" result="back"/>
				<feBlend  in="SourceGraphic" in2="back" mode="normal"/>
			</filter>
		</defs>
		
			<mask maskUnits="userSpaceOnUse" x="7.4" y="12.6" width="63.7" height="72.7" id="XMLID_00000141414260396360889210000015494186267443039113_">
			<g id="XMLID_00000153678249495659510270000006207566962635907000_" class="st42">
				<defs>
					
						<filter id="Adobe_OpacityMaskFilter_00000011714162376939369380000005010567563051801002_" filterUnits="userSpaceOnUse" x="7.4" y="12.6" width="63.7" height="72.7">
						<feFlood  style="flood-color:white;flood-opacity:1" result="back"/>
						<feBlend  in="SourceGraphic" in2="back" mode="normal"/>
					</filter>
				</defs>
				
					<mask maskUnits="userSpaceOnUse" x="7.4" y="12.6" width="63.7" height="72.7" id="XMLID_00000141414260396360889210000015494186267443039113_">
				</mask>
				
					<linearGradient id="XMLID_00000176037021708097552740000000936403612217939617_" gradientUnits="userSpaceOnUse" x1="7.3927" y1="48.9889" x2="71.1415" y2="48.9889">
					<stop  offset="5.376340e-03" style="stop-color:#000000"/>
					<stop  offset="5.073645e-02" style="stop-color:#2C2C2C"/>
					<stop  offset="0.1037" style="stop-color:#585858"/>
					<stop  offset="0.1622" style="stop-color:#808080"/>
					<stop  offset="0.2251" style="stop-color:#A2A2A2"/>
					<stop  offset="0.2935" style="stop-color:#BFBFBF"/>
					<stop  offset="0.3693" style="stop-color:#D7D7D7"/>
					<stop  offset="0.4556" style="stop-color:#E9E9E9"/>
					<stop  offset="0.5587" style="stop-color:#F6F6F6"/>
					<stop  offset="0.6953" style="stop-color:#FDFDFD"/>
					<stop  offset="1" style="stop-color:#FFFFFF"/>
				</linearGradient>
				
					<path id="XMLID_00000129206596088745039130000001160737702621072805_" style="mask:url(#XMLID_00000141414260396360889210000015494186267443039113_);fill:url(#XMLID_00000176037021708097552740000000936403612217939617_);" d="
					M71.1,37.5C71,63.9,48.7,85.3,21.2,85.3c-4.8,0-9.3-0.6-13.7-1.8c-0.1-0.5-0.2-1-0.2-1.5c0-1.4,0.4-2.7,1.1-3.9l37.2-61.9
					c1.3-2.2,3.6-3.6,6.2-3.6c0,0,0,0,0,0c2.5,0,4.8,1.3,6.2,3.5L71.1,37.5z"/>
			</g>
		</mask>
		
			<linearGradient id="XMLID_00000076594558352522214180000009942743591138715305_" gradientUnits="userSpaceOnUse" x1="7.3927" y1="48.9889" x2="71.1415" y2="48.9889">
			<stop  offset="5.376340e-03" style="stop-color:#FFFFFF"/>
			<stop  offset="0.1516" style="stop-color:#FFFFFF"/>
			<stop  offset="1" style="stop-color:#FFFFFF"/>
		</linearGradient>
		<path id="XMLID_308_" style="opacity:0.19;fill:url(#XMLID_00000076594558352522214180000009942743591138715305_);" d="M71.1,37.5
			C71,63.9,48.7,85.3,21.2,85.3c-4.8,0-9.3-0.6-13.7-1.8c-0.1-0.5-0.2-1-0.2-1.5c0-1.4,0.4-2.7,1.1-3.9l37.2-61.9
			c1.3-2.2,3.6-3.6,6.2-3.6c0,0,0,0,0,0c2.5,0,4.8,1.3,6.2,3.5L71.1,37.5z"/>
	</g>
</g>
</svg>
