<?xml version="1.0" encoding="UTF-8"?>
<svg id="Layer_1" data-name="Layer 1" xmlns="http://www.w3.org/2000/svg" viewBox="0 0 25 27">
  <defs>
    <style>
      .cls-1 {
        fill: #298c43;
      }
    </style>
  </defs>
  <path class="cls-1" d="m19.13,11.97c-.14.17-.28.35-.41.52v8.39c0,.72-.58,1.3-1.3,1.3H4.46c-.72,0-1.3-.58-1.3-1.3V7.93c0-.72.58-1.3,1.3-1.3h12.22c.49-.58.94-1.12,1.42-1.65l.41-.46.23-.26c-.42-.15-.87-.23-1.33-.23H4.46c-2.16,0-3.91,1.75-3.91,3.91v12.95c0,2.16,1.75,3.91,3.91,3.91h12.95c2.16,0,3.91-1.75,3.91-3.91v-11.56c-.68.79-1.39,1.65-2.19,2.65Z"/>
  <path class="cls-1" d="m24.26,2.86c-.38-.63-1.2-.84-1.83-.47-.36.21-.69.45-1.01.7-.16.12-.31.26-.46.39-.15.13-.3.27-.44.41-.3.28-.56.58-.83.87l-.41.44-.4.45c-.53.6-1.05,1.21-1.56,1.82l-.76.93-.74.94c-.97,1.26-1.92,2.54-2.83,3.84-.46.65-.9,1.31-1.35,1.96-.16.25-.32.49-.49.74-.35-.29-.66-.61-.94-.97-.57-.72-1.02-1.6-1.39-2.55v-.02c-.26-.63-.96-.97-1.62-.76-.69.22-1.07.95-.85,1.64.18.57.39,1.15.66,1.72.26.57.58,1.13.96,1.66.38.53.82,1.03,1.31,1.47.48.44,1.01.82,1.55,1.15.65.4,1.52.22,1.95-.42l.03-.04c.43-.64.88-1.27,1.33-1.9.45-.63.9-1.26,1.36-1.88.92-1.24,1.85-2.47,2.81-3.68.96-1.2,1.94-2.39,2.96-3.53l.38-.43.39-.42c.26-.28.52-.56.77-.84.25-.28.5-.58.73-.88.24-.3.47-.6.67-.94l.03-.05c.25-.41.27-.94,0-1.37Z"/>
</svg>