<?xml version="1.0" encoding="utf-8"?>
<!-- Generator: Adobe Illustrator 27.2.0, SVG Export Plug-In . SVG Version: 6.00 Build 0)  -->
<svg version="1.1" id="Layer_1" xmlns="http://www.w3.org/2000/svg" xmlns:xlink="http://www.w3.org/1999/xlink" x="0px" y="0px"
	 viewBox="0 0 104.5 102.1" style="enable-background:new 0 0 104.5 102.1;" xml:space="preserve">
<style type="text/css">
	.st0{fill:#595959;}
	.st1{fill:#FFFFFF;}
	.st2{fill-rule:evenodd;clip-rule:evenodd;fill:#595959;}
	.st3{fill:#DE2B38;}
	.st4{fill:#298C43;}
	.st5{fill:#7E8DAD;}
	.st6{fill-rule:evenodd;clip-rule:evenodd;fill:#FFFFFF;}
	.st7{fill:#A7A9AC;}
	.st8{fill:#EF3E3D;}
	.st9{fill:#010101;}
	.st10{fill:#5E68B0;}
	.st11{fill:#3DB54A;}
	.st12{fill:#63BD5C;}
	.st13{fill:#019547;}
	.st14{fill:#135380;}
	.st15{fill:#13395F;}
	.st16{fill:#A4DBE0;}
	.st17{fill:#C8E9F1;}
	.st18{fill:#D9F0FB;}
	.st19{fill:#F47C28;}
	.st20{fill:#BA2025;}
	.st21{fill:#CEE3E8;}
	.st22{fill:#616E7D;}
	.st23{fill:#AAD3C7;}
	.st24{fill:#E31E26;}
	.st25{fill:#66B445;}
	.st26{fill:#60B9E8;}
	.st27{fill:#C12731;}
</style>
<g id="XMLID_00000078016978044046429290000007390891205038508725_">
	<g id="XMLID_00000163045226260454384250000003544217766463229576_">
		<path id="XMLID_00000059268227522344770850000001887789404094530483_" class="st24" d="M91.1,34.1c0,0,0.1-0.1,0.1-0.1
			c0.2-0.1,0.5-0.3,0.7-0.4c0.1-0.1,0.2-0.1,0.2-0.2c0.2-0.2,0.5-0.3,0.7-0.5c0.1-0.1,0.1-0.1,0.2-0.2c0.2-0.1,0.3-0.3,0.5-0.4
			c0,0,0.1-0.1,0.1-0.1c0,0,0,0,0,0c0,0,0,0,0,0c0,0,0.1-0.1,0.1-0.1c0,0,0,0,0.1-0.1c0,0,0,0,0,0c0,0,0,0,0,0
			c0.1-0.1,0.3-0.3,0.4-0.4c0.1-0.1,0.1-0.1,0.2-0.2c0.1-0.2,0.3-0.4,0.4-0.6c0-0.1,0.1-0.1,0.1-0.2c0.1-0.2,0.2-0.4,0.3-0.5
			c0-0.1,0.1-0.2,0.1-0.2c0.1-0.2,0.2-0.4,0.3-0.5c0-0.1,0.1-0.1,0.1-0.2c0.1-0.2,0.2-0.5,0.2-0.7c0-0.1,0-0.2,0.1-0.2
			c0-0.2,0.1-0.4,0.1-0.6c0-0.1,0-0.1,0-0.2c0-0.2,0.1-0.5,0.1-0.7c0-0.1,0-0.1,0-0.2c0-0.2,0-0.4,0-0.6c0-0.1,0-0.1,0-0.2
			c0-0.3,0-0.5-0.1-0.8c0,0,0-0.1,0-0.1c0-0.2-0.1-0.4-0.1-0.7c0-0.1,0-0.1-0.1-0.2c-0.1-0.3-0.1-0.5-0.2-0.8
			c-1.5-4.4-5.9-6.9-11.6-5.4c1.6-5.7-0.9-10-5.2-11.5c-0.3-0.1-0.5-0.2-0.8-0.2c-0.1,0-0.1,0-0.2-0.1c-0.2-0.1-0.4-0.1-0.6-0.1
			c0,0-0.1,0-0.1,0C76.9,6,76.7,6,76.4,6c-0.1,0-0.1,0-0.2,0c-0.2,0-0.4,0-0.6,0c-0.1,0-0.1,0-0.2,0c-0.2,0-0.5,0-0.7,0.1
			c-0.1,0-0.1,0-0.2,0c-0.2,0-0.4,0.1-0.5,0.1c-0.1,0-0.2,0-0.2,0.1c-0.2,0.1-0.4,0.1-0.7,0.2c-0.1,0-0.1,0.1-0.2,0.1
			c-0.2,0.1-0.4,0.2-0.5,0.2c-0.1,0-0.2,0.1-0.3,0.1c-0.2,0.1-0.3,0.2-0.5,0.3c-0.1,0-0.1,0.1-0.2,0.1c-0.2,0.1-0.4,0.3-0.6,0.4
			c-0.1,0.1-0.2,0.1-0.2,0.2c-0.1,0.1-0.3,0.2-0.4,0.4c0,0,0,0-0.1,0.1c0,0,0,0,0,0c0,0,0,0,0,0c0,0-0.1,0.1-0.1,0.1c0,0,0,0,0,0
			c0,0,0,0,0,0c0,0,0,0-0.1,0.1c-0.1,0.1-0.3,0.3-0.4,0.5c-0.1,0.1-0.1,0.1-0.2,0.2C69.1,9.5,69,9.8,68.8,10
			c-0.1,0.1-0.1,0.2-0.2,0.2c-0.1,0.2-0.3,0.4-0.4,0.7c0,0-0.1,0.1-0.1,0.1c-0.2,0.3-0.3,0.6-0.4,0.9c0,0.1-0.1,0.2-0.1,0.2
			c-0.1,0.3-0.3,0.6-0.4,1c-1.6,4.5-0.3,22-0.3,22.1v0c0,0,17.5,1.4,22.1-0.2c0.3-0.1,0.7-0.2,1-0.4c0.1,0,0.2-0.1,0.2-0.1
			C90.5,34.4,90.8,34.3,91.1,34.1z"/>
		<g id="XMLID_00000004507613910238893550000011177802902930497676_">
			<path id="XMLID_00000008131954247792933590000010141556594481954723_" class="st24" d="M35.3,12.2c0,0-0.1-0.1-0.1-0.1
				c-0.1-0.2-0.3-0.5-0.4-0.7c-0.1-0.1-0.1-0.2-0.2-0.2c-0.2-0.2-0.3-0.5-0.5-0.7c-0.1-0.1-0.1-0.1-0.2-0.2
				c-0.1-0.2-0.3-0.3-0.4-0.5c0,0-0.1-0.1-0.1-0.1c0,0,0,0,0,0c0,0,0,0,0,0c0,0-0.1-0.1-0.1-0.1c0,0,0,0-0.1-0.1c0,0,0,0,0,0
				c0,0,0,0,0,0c-0.1-0.1-0.3-0.3-0.4-0.4C32.8,9.1,32.8,9,32.7,9c-0.2-0.1-0.4-0.3-0.6-0.4c-0.1,0-0.1-0.1-0.2-0.1
				c-0.2-0.1-0.4-0.2-0.5-0.3c-0.1,0-0.2-0.1-0.2-0.1c-0.2-0.1-0.4-0.2-0.5-0.3c-0.1,0-0.1-0.1-0.2-0.1c-0.2-0.1-0.5-0.2-0.7-0.2
				c-0.1,0-0.2,0-0.2-0.1c-0.2,0-0.4-0.1-0.6-0.1c-0.1,0-0.1,0-0.2,0c-0.2,0-0.5-0.1-0.7-0.1c-0.1,0-0.1,0-0.2,0c-0.2,0-0.4,0-0.6,0
				c-0.1,0-0.1,0-0.2,0c-0.3,0-0.5,0-0.8,0.1c0,0-0.1,0-0.1,0c-0.2,0-0.4,0.1-0.7,0.1c-0.1,0-0.1,0-0.2,0c-0.3,0.1-0.5,0.1-0.8,0.2
				c-4.4,1.5-6.9,5.9-5.4,11.6c-5.7-1.6-10,0.9-11.5,5.2c-0.1,0.3-0.2,0.5-0.2,0.8c0,0.1,0,0.1-0.1,0.2c-0.1,0.2-0.1,0.4-0.1,0.6
				c0,0,0,0.1,0,0.1c0,0.3-0.1,0.5-0.1,0.8c0,0.1,0,0.1,0,0.2c0,0.2,0,0.4,0,0.6c0,0.1,0,0.1,0,0.2c0,0.2,0,0.5,0.1,0.7
				c0,0.1,0,0.1,0,0.2c0,0.2,0.1,0.4,0.1,0.5c0,0.1,0,0.2,0.1,0.2c0.1,0.2,0.1,0.4,0.2,0.7c0,0.1,0.1,0.1,0.1,0.2
				C7.8,30.6,7.9,30.8,8,31c0,0.1,0.1,0.2,0.1,0.3c0.1,0.2,0.2,0.3,0.3,0.5c0,0.1,0.1,0.1,0.1,0.2c0.1,0.2,0.3,0.4,0.4,0.6
				c0.1,0.1,0.1,0.2,0.2,0.2c0.1,0.1,0.2,0.3,0.4,0.4c0,0,0,0,0.1,0.1c0,0,0,0,0,0c0,0,0,0,0,0c0,0,0.1,0.1,0.1,0.1c0,0,0,0,0,0
				c0,0,0,0,0,0c0,0,0,0,0.1,0.1c0.1,0.1,0.3,0.3,0.5,0.4c0.1,0.1,0.1,0.1,0.2,0.2c0.2,0.2,0.4,0.3,0.7,0.5c0.1,0.1,0.2,0.1,0.2,0.2
				c0.2,0.1,0.4,0.3,0.7,0.4c0,0,0.1,0.1,0.1,0.1c0.3,0.2,0.6,0.3,0.9,0.4c0.1,0,0.2,0.1,0.2,0.1c0.3,0.1,0.6,0.3,1,0.4
				c4.5,1.6,22,0.3,22.1,0.3l0,0c0,0,1.4-17.5-0.2-22.1c-0.1-0.3-0.2-0.7-0.4-1c0-0.1-0.1-0.2-0.1-0.2
				C35.6,12.8,35.4,12.5,35.3,12.2z"/>
		</g>
		<g id="XMLID_00000025433196582630664880000003996712718212311955_">
			<path id="XMLID_00000008113085937237977910000010053947944787492753_" class="st24" d="M13.4,68c0,0-0.1,0.1-0.1,0.1
				c-0.2,0.1-0.5,0.3-0.7,0.4c-0.1,0.1-0.2,0.1-0.2,0.2c-0.2,0.2-0.5,0.3-0.7,0.5c-0.1,0.1-0.1,0.1-0.2,0.2
				c-0.2,0.1-0.3,0.3-0.5,0.4c0,0-0.1,0.1-0.1,0.1c0,0,0,0,0,0c0,0,0,0,0,0c0,0-0.1,0.1-0.1,0.1c0,0,0,0-0.1,0.1c0,0,0,0,0,0
				c0,0,0,0,0,0c-0.1,0.1-0.3,0.3-0.4,0.4c-0.1,0.1-0.1,0.1-0.2,0.2C10,70.8,9.9,71,9.8,71.2c0,0.1-0.1,0.1-0.1,0.2
				c-0.1,0.2-0.2,0.4-0.3,0.5c0,0.1-0.1,0.2-0.1,0.2c-0.1,0.2-0.2,0.4-0.3,0.5c0,0.1-0.1,0.1-0.1,0.2c-0.1,0.2-0.2,0.5-0.2,0.7
				c0,0.1,0,0.2-0.1,0.2c0,0.2-0.1,0.4-0.1,0.6c0,0.1,0,0.1,0,0.2c0,0.2-0.1,0.5-0.1,0.7c0,0.1,0,0.1,0,0.2c0,0.2,0,0.4,0,0.6
				c0,0.1,0,0.1,0,0.2c0,0.3,0,0.5,0.1,0.8c0,0,0,0.1,0,0.1c0,0.2,0.1,0.4,0.1,0.7c0,0.1,0,0.1,0,0.2c0.1,0.3,0.1,0.5,0.2,0.8
				c1.5,4.4,5.9,6.9,11.6,5.4c-1.6,5.7,0.9,10,5.2,11.5c0.3,0.1,0.5,0.2,0.8,0.2c0.1,0,0.1,0,0.2,0.1c0.2,0.1,0.4,0.1,0.6,0.1
				c0,0,0.1,0,0.1,0c0.3,0,0.5,0.1,0.8,0.1c0.1,0,0.1,0,0.2,0c0.2,0,0.4,0,0.6,0c0.1,0,0.1,0,0.2,0c0.2,0,0.5,0,0.7-0.1
				c0.1,0,0.1,0,0.2,0c0.2,0,0.4-0.1,0.5-0.1c0.1,0,0.2,0,0.2-0.1c0.2-0.1,0.4-0.1,0.7-0.2c0.1,0,0.1-0.1,0.2-0.1
				c0.2-0.1,0.4-0.2,0.5-0.2c0.1,0,0.2-0.1,0.3-0.1c0.2-0.1,0.3-0.2,0.5-0.3c0.1,0,0.1-0.1,0.2-0.1c0.2-0.1,0.4-0.3,0.6-0.4
				c0.1-0.1,0.2-0.1,0.2-0.2c0.1-0.1,0.3-0.2,0.4-0.4c0,0,0,0,0.1-0.1c0,0,0,0,0,0c0,0,0,0,0,0c0,0,0.1-0.1,0.1-0.1c0,0,0,0,0,0
				c0,0,0,0,0,0c0,0,0,0,0.1-0.1c0.1-0.1,0.3-0.3,0.4-0.5c0.1-0.1,0.1-0.1,0.2-0.2c0.2-0.2,0.3-0.4,0.5-0.7c0.1-0.1,0.1-0.2,0.2-0.2
				c0.1-0.2,0.3-0.4,0.4-0.7c0,0,0.1-0.1,0.1-0.1c0.2-0.3,0.3-0.6,0.4-0.9c0-0.1,0.1-0.2,0.1-0.2c0.1-0.3,0.3-0.6,0.4-1
				c1.6-4.5,0.3-22,0.3-22.1l0,0c0,0-17.5-1.4-22.1,0.2c-0.3,0.1-0.7,0.2-1,0.4c-0.1,0-0.2,0.1-0.2,0.1C14,67.7,13.7,67.9,13.4,68z"
				/>
		</g>
		<g id="XMLID_00000111894126935622040960000016500265330127275413_">
			<path id="XMLID_00000155148014798534869070000009535573486550823067_" class="st24" d="M69.2,89.9c0,0,0.1,0.1,0.1,0.1
				c0.1,0.2,0.3,0.5,0.4,0.7c0.1,0.1,0.1,0.2,0.2,0.2c0.2,0.2,0.3,0.5,0.5,0.7c0.1,0.1,0.1,0.1,0.2,0.2c0.1,0.2,0.3,0.3,0.4,0.5
				c0,0,0.1,0.1,0.1,0.1c0,0,0,0,0,0c0,0,0,0,0,0c0,0,0.1,0.1,0.1,0.1c0,0,0,0,0.1,0.1c0,0,0,0,0,0c0,0,0,0,0,0
				c0.1,0.1,0.3,0.3,0.4,0.4c0.1,0.1,0.1,0.1,0.2,0.2c0.2,0.1,0.4,0.3,0.6,0.4c0.1,0,0.1,0.1,0.2,0.1c0.2,0.1,0.4,0.2,0.5,0.3
				c0.1,0,0.2,0.1,0.2,0.1c0.2,0.1,0.4,0.2,0.5,0.3c0.1,0,0.1,0.1,0.2,0.1c0.2,0.1,0.5,0.2,0.7,0.2c0.1,0,0.2,0,0.2,0.1
				c0.2,0,0.4,0.1,0.6,0.1c0.1,0,0.1,0,0.2,0c0.2,0,0.5,0.1,0.7,0.1c0.1,0,0.1,0,0.2,0c0.2,0,0.4,0,0.6,0c0.1,0,0.1,0,0.2,0
				c0.3,0,0.5,0,0.8-0.1c0,0,0.1,0,0.1,0c0.2,0,0.4-0.1,0.7-0.1c0.1,0,0.1,0,0.2,0c0.3-0.1,0.5-0.1,0.8-0.2
				c4.4-1.5,6.9-5.9,5.4-11.6c5.7,1.6,10-0.9,11.5-5.2c0.1-0.3,0.2-0.5,0.2-0.8c0-0.1,0-0.1,0.1-0.2c0.1-0.2,0.1-0.4,0.1-0.6
				c0,0,0-0.1,0-0.1c0-0.3,0.1-0.5,0.1-0.8c0-0.1,0-0.1,0-0.2c0-0.2,0-0.4,0-0.6c0-0.1,0-0.1,0-0.2c0-0.2,0-0.5-0.1-0.7
				c0-0.1,0-0.1,0-0.2c0-0.2-0.1-0.4-0.1-0.5c0-0.1,0-0.2-0.1-0.2c-0.1-0.2-0.1-0.4-0.2-0.7c0-0.1-0.1-0.1-0.1-0.2
				c-0.1-0.2-0.2-0.4-0.2-0.5c0-0.1-0.1-0.2-0.1-0.3c-0.1-0.2-0.2-0.3-0.3-0.5c0-0.1-0.1-0.1-0.1-0.2c-0.1-0.2-0.3-0.4-0.4-0.6
				c-0.1-0.1-0.1-0.2-0.2-0.2c-0.1-0.1-0.2-0.3-0.4-0.4c0,0,0,0-0.1-0.1c0,0,0,0,0,0c0,0,0,0,0,0c0,0-0.1-0.1-0.1-0.1c0,0,0,0,0,0
				c0,0,0,0,0,0c0,0,0,0-0.1-0.1c-0.1-0.1-0.3-0.3-0.5-0.4c-0.1-0.1-0.1-0.1-0.2-0.2c-0.2-0.2-0.4-0.3-0.7-0.5
				c-0.1-0.1-0.2-0.1-0.2-0.2c-0.2-0.1-0.4-0.3-0.7-0.4c0,0-0.1-0.1-0.1-0.1c-0.3-0.2-0.6-0.3-0.9-0.4c-0.1,0-0.2-0.1-0.2-0.1
				c-0.3-0.1-0.6-0.3-1-0.4c-4.5-1.6-22-0.3-22.1-0.3h0c0,0-1.4,17.5,0.2,22.1c0.1,0.3,0.2,0.7,0.4,1c0,0.1,0.1,0.2,0.1,0.2
				C68.9,89.3,69.1,89.6,69.2,89.9z"/>
		</g>
	</g>
	<path id="XMLID_00000183214845473045972860000006770573598429134210_" class="st25" d="M90.4,41h-28c0,0,0,0,0,0v-28
		c0-5.3-3.9-9.9-9.1-10.4c-6-0.6-11.1,4.2-11.1,10.1v28.4c0,0,0,0,0,0h-28c-5.3,0-9.9,3.9-10.4,9.1c-0.6,6,4.2,11.1,10.1,11.1h28.4
		c0,0,0,0,0,0v28c0,5.3,3.9,9.9,9.1,10.4c6,0.6,11.1-4.2,11.1-10.1V61.2c0,0,0,0,0,0h28.4c5.9,0,10.6-5.1,10.1-11.1
		C100.4,44.8,95.7,41,90.4,41z"/>
</g>
</svg>
