<?xml version="1.0" encoding="utf-8"?>
<!-- Generator: Adobe Illustrator 27.2.0, SVG Export Plug-In . SVG Version: 6.00 Build 0)  -->
<svg version="1.1" id="Layer_1" xmlns="http://www.w3.org/2000/svg" xmlns:xlink="http://www.w3.org/1999/xlink" x="0px" y="0px"
	 viewBox="0 0 1122 1122" style="enable-background:new 0 0 1122 1122;" xml:space="preserve">
<style type="text/css">
	.st0{fill:#00D890;}
	.st1{fill:#0CBC7D;}
	.st2{fill:#1443FF;}
	.st3{fill:#0D3AC9;}
</style>
<g>
	<g>
		<path class="st0" d="M696.7,310.9H418.3v-98.6c0-25.4-28.7-40.1-49.4-25.4L29,428.3c-6.9,4.9-10.3,12.5-10.3,20.1
			c0,7.6,3.5,15.2,10.3,20l339.8,241.5c20.7,14.7,49.4,0,49.4-25.4v-99.2H561l8.5-3v-42.7l-8.5-3H369.8V651L84.7,448.4l285.1-202.7
			v113.8h326.9c6.7,0,12.7-2.7,17.1-7.1c4.4-4.4,7.1-10.5,7.1-17.2C720.9,321.7,710.1,310.9,696.7,310.9z"/>
		<path class="st1" d="M569.5,539.6v42.7l-8.5,3H418.3v99.2c0,25.4-28.7,40.1-49.4,25.4L29,468.4c-6.9-4.9-10.3-12.5-10.3-20h66
			L369.8,651V536.7H561L569.5,539.6z"/>
	</g>
	<g>
		<path class="st2" d="M1093,653.6L753.1,412.1c-20.7-14.7-49.4,0-49.4,25.4v99.2H561v48.6h191.2V471l285.1,202.6L752.2,876.3V762.5
			H425.3c-6.7,0-12.7,2.7-17.1,7.1c-4.4,4.4-7.1,10.5-7.1,17.2c0,13.4,10.8,24.3,24.2,24.3h278.4v98.6c0,25.4,28.7,40.1,49.4,25.4
			L1093,693.7c6.9-4.9,10.3-12.5,10.3-20.1C1103.3,666,1099.8,658.4,1093,653.6z"/>
		<path class="st3" d="M1103.3,673.6c0,7.6-3.5,15.2-10.3,20.1L753.1,935.2c-20.7,14.7-49.4,0-49.4-25.4v-98.6H425.3
			c-13.4,0-24.2-10.9-24.2-24.3c0-6.7,2.7-12.8,7.1-17.2c4.4-4.4,10.4-7.1,17.1-7.1h326.9v113.8l285.1-202.7H1103.3z"/>
	</g>
</g>
</svg>
