<?xml version="1.0" encoding="UTF-8"?>
<svg id="Object" xmlns="http://www.w3.org/2000/svg" viewBox="0 0 487 380">
  <path d="m160.62,104.92c-28.07,2.44-48.85,27.19-46.42,55.27,2.45,28.07,27.21,48.86,55.29,46.41,28.08-2.44,48.85-27.19,46.4-55.28-2.43-28.06-27.19-48.85-55.27-46.4Z" fill="none"/>
  <path d="m333.23,223.06c-15.84,9.81-21.34,31.17-12.18,47.39,9.77,17.27,31.74,23.1,48.76,13.05,16.79-9.93,22.35-31.6,12.42-48.4-10.06-16.97-32.13-22.49-49-12.04Z" fill="none"/>
  <path d="m282.28,195.42c3.16-9.29,5.21-19.04,6.05-29.09l-20.06-9.72c.02-3.25-.09-6.53-.39-9.82-.08-1.14-.23-2.25-.36-3.39l18.87-11.93c-1.96-9.91-5.08-19.37-9.23-28.21l-22.29,1.62c-2.17-3.86-4.6-7.57-7.24-11.08l10.37-19.73c-6.55-7.45-14-14.1-22.13-19.81l-18.48,12.53c-3.79-2.23-7.72-4.24-11.8-5.99l-.88-22.27c-9.29-3.15-19.05-5.21-29.08-6.08l-9.72,20.08c-3.25-.03-6.51.1-9.81.38-1.15.1-2.27.24-3.39.38l-11.91-18.89c-9.92,1.98-19.38,5.1-28.24,9.24l1.62,22.29c-3.86,2.18-7.57,4.6-11.07,7.25l-19.75-10.38c-7.47,6.57-14.12,14-19.79,22.15l12.54,18.47c-2.24,3.79-4.27,7.72-6.01,11.79l-22.28.87c-3.15,9.29-5.2,19.03-6.05,29.09l20.07,9.72c-.02,3.25.08,6.53.37,9.82.1,1.14.24,2.25.39,3.38l-18.89,11.92c1.99,9.91,5.09,19.37,9.24,28.22l22.28-1.61c2.19,3.86,4.6,7.55,7.25,11.08l-10.38,19.73c6.55,7.48,14.01,14.12,22.14,19.81l18.47-12.53c3.8,2.25,7.73,4.26,11.8,6l.88,22.28c9.29,3.15,19.02,5.21,29.07,6.06l9.74-20.07c3.24.02,6.52-.09,9.82-.37,1.13-.09,2.25-.25,3.36-.39l11.92,18.91c9.93-1.98,19.38-5.09,28.24-9.24l-1.61-22.3c3.84-2.2,7.54-4.61,11.08-7.25l19.73,10.38c7.45-6.57,14.1-14,19.79-22.14l-12.52-18.47c2.22-3.8,4.23-7.73,6-11.81l22.27-.87Zm-117.22,33.08c-40.12,0-72.75-32.64-72.75-72.75s32.63-72.75,72.75-72.75,72.74,32.64,72.74,72.75-32.63,72.75-72.74,72.75Z" fill="#616e7d"/>
  <path d="m97.51,155.75c0,37.24,30.29,67.55,67.55,67.55s67.54-30.31,67.54-67.55-30.29-67.55-67.54-67.55-67.55,30.31-67.55,67.55Zm118.39-4.44c2.44,28.09-18.33,52.84-46.4,55.28-28.08,2.46-52.83-18.34-55.29-46.41-2.43-28.08,18.34-52.83,46.42-55.27,28.09-2.45,52.85,18.33,55.27,46.4Z" fill="#616e7d"/>
  <path d="m293.85,252.84c-.67,31.92,24.76,58.43,56.67,59.1,31.92.67,58.43-24.76,59.1-56.67.67-31.92-24.75-58.43-56.68-59.1-31.92-.67-58.43,24.75-59.09,56.67Zm88.38-17.73c9.93,16.79,4.37,38.46-12.42,48.4-17.01,10.05-38.99,4.22-48.76-13.05-9.16-16.22-3.67-37.58,12.18-47.39,16.87-10.45,38.94-4.93,49,12.04Z" fill="#616e7d"/>
  <path d="m444.78,263.23c.66-6.74.6-13.52-.21-20.31l-15.75-3.77c-.83-4.13-2-8.25-3.47-12.28l11.54-11.39c-1.39-3.06-2.95-6.09-4.71-9.03-1.73-2.94-3.62-5.75-5.65-8.45l-15.54,4.64c-2.82-3.26-5.86-6.25-9.11-8.95l4.3-15.62c-5.56-3.97-11.49-7.3-17.7-9.97l-11.16,11.8c-4.02-1.39-8.15-2.45-12.33-3.18l-4.12-15.72c-6.72-.65-13.52-.58-20.27.25l-3.8,15.74c-4.13.8-8.22,1.97-12.26,3.46l-11.4-11.53c-3.04,1.37-6.09,2.92-9.03,4.68-2.95,1.74-5.76,3.63-8.45,5.63l4.63,15.57c-3.25,2.83-6.24,5.86-8.94,9.1l-15.62-4.29c-3.98,5.54-7.3,11.47-9.97,17.67l11.79,11.17c-1.39,4.02-2.42,8.15-3.15,12.33l-15.7,4.12c-.66,6.72-.6,13.52.21,20.3l15.77,3.75c.81,4.15,1.96,8.25,3.43,12.3l-11.53,11.39c1.38,3.07,2.93,6.07,4.68,9.01,1.75,2.96,3.63,5.78,5.64,8.47l15.56-4.63c2.82,3.25,5.88,6.24,9.1,8.93l-4.28,15.64c5.55,3.97,11.46,7.31,17.66,9.94l11.18-11.78c4.03,1.4,8.12,2.45,12.34,3.16l4.11,15.72c6.71.64,13.52.59,20.3-.22l3.75-15.77c4.15-.8,8.25-1.97,12.28-3.46l11.44,11.54c3.04-1.37,6.05-2.93,9-4.68,2.95-1.74,5.75-3.63,8.44-5.66l-4.63-15.54c3.25-2.82,6.24-5.88,8.94-9.11l15.63,4.28c3.97-5.55,7.32-11.48,9.95-17.68l-11.79-11.18c1.38-4,2.45-8.11,3.18-12.31l15.7-4.1Zm-94.31,51.21c-33.3-.7-59.82-28.36-59.12-61.66.69-33.3,28.34-59.82,61.65-59.12,33.3.7,59.82,28.36,59.13,61.66-.7,33.3-28.35,59.83-61.66,59.12Z" fill="#616e7d"/>
  <path d="m92.31,155.75c0,40.11,32.63,72.75,72.75,72.75s72.74-32.64,72.74-72.75-32.63-72.75-72.74-72.75-72.75,32.64-72.75,72.75Zm140.29,0c0,37.24-30.29,67.55-67.54,67.55s-67.55-30.31-67.55-67.55,30.29-67.55,67.55-67.55,67.54,30.31,67.54,67.55Z" fill="#aad4c8"/>
  <path d="m291.35,252.78c-.7,33.3,25.82,60.96,59.12,61.66,33.31.7,60.96-25.82,61.66-59.12.69-33.3-25.83-60.96-59.13-61.66-33.31-.7-60.97,25.83-61.65,59.12Zm118.27,2.48c-.67,31.91-27.18,57.34-59.1,56.67-31.92-.67-57.34-27.18-56.67-59.1.66-31.92,27.18-57.34,59.09-56.67,31.93.67,57.35,27.18,56.68,59.1Z" fill="#82bfab"/>
</svg>