<?xml version="1.0" encoding="utf-8"?>
<!-- Generator: Adobe Illustrator 27.2.0, SVG Export Plug-In . SVG Version: 6.00 Build 0)  -->
<svg version="1.1" id="Layer_1" xmlns="http://www.w3.org/2000/svg" xmlns:xlink="http://www.w3.org/1999/xlink" x="0px" y="0px"
	 viewBox="0 0 25 27" style="enable-background:new 0 0 25 27;" xml:space="preserve">
<style type="text/css">
	.st0{fill:#595959;}
	.st1{fill:#FFFFFF;}
	.st2{fill-rule:evenodd;clip-rule:evenodd;fill:#595959;}
	.st3{fill:#DE2B38;}
	.st4{fill:#298C43;}
	.st5{fill:#7E8DAD;}
	.st6{fill-rule:evenodd;clip-rule:evenodd;fill:#FFFFFF;}
	.st7{fill:#A7A9AC;}
	.st8{fill:#EF3E3D;}
	.st9{fill:#010101;}
	.st10{fill:url(#XMLID_00000148637652293771172110000003379351572145729716_);}
	.st11{fill:#AAD2DC;}
	.st12{fill:#D3E3EB;}
	.st13{fill:url(#XMLID_00000004541024263958733990000008135153974591358861_);}
	.st14{fill:url(#XMLID_00000172398241962834300120000000159524998391710640_);}
	.st15{fill:url(#XMLID_00000078046008640994237260000014302011458776401087_);}
	.st16{fill:url(#XMLID_00000078004983756687611510000007765669692834987668_);}
	.st17{fill:#AF76B2;}
	.st18{fill:none;stroke:#24326A;stroke-linecap:round;}
	.st19{fill:#24326A;}
	.st20{fill:none;stroke:#FFFFFF;stroke-linecap:round;}
	.st21{fill:#BB9B95;}
	.st22{fill:#DECAC6;}
	.st23{fill:#429DD7;}
	.st24{fill:#72B3E2;}
	.st25{opacity:0.5;fill:#E8F2FB;}
	.st26{opacity:0.5;fill:#FFFFFF;}
	.st27{fill:#E93837;}
	.st28{fill:#F05044;}
	.st29{fill:#EFE2E1;}
	.st30{fill:#F15F50;}
	.st31{fill:#EAD9D8;}
	.st32{fill:#F04D3F;}
	.st33{fill:#422D2A;}
	.st34{fill:#573B38;}
	.st35{fill:#664545;}
	.st36{fill:#D1B8B4;}
	.st37{fill:#C5A9A6;}
	.st38{fill:#7FA63F;}
	.st39{fill:#98CA42;}
</style>
<g>
	<g id="B95_x2C__Bulb_x2C__Idea_x2C__Gear_x2C__Setting">
		<g>
			<g>
				<g>
					<path class="st0" d="M12.7,9.2c-0.6,0-1.1,0.5-1.1,1.1c0,0.6,0.5,1.1,1.1,1.1c0.6,0,1.1-0.5,1.1-1.1
						C13.8,9.7,13.3,9.2,12.7,9.2z"/>
					<path class="st0" d="M15.4,12.7l-0.5-0.8c0-0.1,0-0.2,0-0.2c0.2-0.3,0.3-0.5,0.3-0.8c0-0.1,0.1-0.1,0.2-0.2l0.9-0.2V10
						l-0.9-0.2c-0.1,0-0.1-0.1-0.2-0.2c-0.1-0.3-0.2-0.6-0.3-0.8c0-0.1,0-0.2,0-0.2l0.5-0.8l-0.3-0.3L14.3,8c-0.1,0-0.2,0-0.2,0
						c-0.2-0.2-0.5-0.3-0.8-0.3c-0.1,0-0.1-0.1-0.2-0.2l-0.2-0.9h-0.4l-0.2,0.9c0,0.1-0.1,0.1-0.2,0.2c-0.3,0.1-0.6,0.2-0.8,0.3
						c-0.1,0-0.2,0-0.2,0l-0.8-0.5L10,7.9l0.5,0.8c0,0.1,0,0.2,0,0.2c-0.2,0.3-0.3,0.5-0.3,0.8c0,0.1-0.1,0.1-0.2,0.2l-0.9,0.2v0.4
						l0.9,0.2c0.1,0,0.1,0.1,0.2,0.2c0.1,0.3,0.2,0.6,0.3,0.8c0,0.1,0,0.2,0,0.2L10,12.7l0.3,0.3l0.8-0.5c0.1,0,0.2,0,0.2,0
						c0.2,0.2,0.5,0.3,0.8,0.3c0.1,0,0.1,0.1,0.2,0.2l0.2,0.9h0.4l0.2-0.9c0-0.1,0.1-0.1,0.2-0.2c0.3-0.1,0.6-0.2,0.8-0.3
						c0.1,0,0.2,0,0.2,0l0.8,0.5L15.4,12.7z M12.7,11.7c-0.8,0-1.5-0.7-1.5-1.5c0-0.8,0.7-1.5,1.5-1.5c0.8,0,1.5,0.7,1.5,1.5
						C14.2,11.1,13.5,11.7,12.7,11.7z"/>
					<path class="st0" d="M21.1,8.1C21,8,20.9,8,20.8,8c-0.1,0.1-0.1,0.2-0.1,0.3c0.3,0.6,0.5,1.2,0.5,1.8s-0.2,1.3-0.5,1.8
						c-0.1,0.1,0,0.2,0.1,0.3c0,0,0.1,0,0.1,0c0.1,0,0.1,0,0.2-0.1c0.4-0.6,0.6-1.3,0.6-2C21.7,9.4,21.5,8.7,21.1,8.1z"/>
					<path class="st0" d="M19.8,8.8c-0.1,0.1-0.1,0.2-0.1,0.3c0.2,0.3,0.3,0.7,0.3,1c0,0.3-0.1,0.7-0.3,1c-0.1,0.1,0,0.2,0.1,0.3
						c0,0,0.1,0,0.1,0c0.1,0,0.1,0,0.2-0.1c0.2-0.4,0.3-0.8,0.3-1.2c0-0.4-0.1-0.8-0.3-1.2C20,8.8,19.9,8.8,19.8,8.8z"/>
					<path class="st0" d="M4.6,11.9c-0.3-0.6-0.5-1.2-0.5-1.8s0.2-1.3,0.5-1.8c0.1-0.1,0-0.2-0.1-0.3C4.5,7.9,4.3,8,4.3,8.1
						c-0.4,0.6-0.6,1.3-0.6,2c0,0.7,0.2,1.4,0.6,2c0,0.1,0.1,0.1,0.2,0.1c0,0,0.1,0,0.1,0C4.6,12.1,4.6,12,4.6,11.9z"/>
					<path class="st0" d="M5.7,11.1c-0.2-0.3-0.3-0.7-0.3-1c0-0.3,0.1-0.7,0.3-1c0.1-0.1,0-0.2-0.1-0.3c-0.1-0.1-0.2,0-0.3,0.1
						C5.1,9.2,5,9.6,5,10.1c0,0.4,0.1,0.8,0.3,1.2c0,0.1,0.1,0.1,0.2,0.1c0,0,0.1,0,0.1,0C5.7,11.3,5.7,11.2,5.7,11.1z"/>
					<path class="st0" d="M19.5,22.1h-5c0.4-0.3,0.6-0.8,0.6-1.3v-0.7h0.2c0.5,0,1-0.5,1-1.1c0-0.6-0.4-1-1-1
						c0.2-1.4,0.7-2.7,1.5-3.7c0.1-0.1,0.1-0.2,0.2-0.3c0.9-1.1,1.3-2.4,1.3-3.8c0-1.5-0.6-3-1.6-4.1c-1.1-1.1-2.4-1.7-3.9-1.7h0
						c-1.5,0-2.9,0.6-3.9,1.7c-1.1,1.1-1.7,2.6-1.7,4.1c0,1.4,0.5,2.7,1.3,3.8c0.1,0.1,0.1,0.2,0.2,0.3c0.8,1.1,1.3,2.4,1.4,3.7
						c-0.5,0-1,0.5-1,1c0,0.6,0.4,1.1,1,1.1h0.2v0.7c0,0.5,0.2,1,0.6,1.3H5.8c-0.1,0-0.2,0.1-0.2,0.2c0,0.1,0.1,0.2,0.2,0.2H12h1.4
						h6.1c0.1,0,0.2-0.1,0.2-0.2C19.7,22.2,19.6,22.1,19.5,22.1z M13.6,16.4h-0.8v0.8h-0.8v-0.8h0.8v-0.8h-0.8v-0.8h0.8v0.8h0.8
						V16.4z M13.5,13.1l-0.2,1c0,0.1-0.1,0.2-0.2,0.2h-0.7c-0.1,0-0.2-0.1-0.2-0.2l-0.2-1c-0.2-0.1-0.5-0.2-0.7-0.3l-0.8,0.5
						c-0.1,0.1-0.2,0-0.2,0l-0.5-0.5c-0.1-0.1-0.1-0.2,0-0.3l0.5-0.8C10,11.5,9.9,11.3,9.9,11l-1-0.2c-0.1,0-0.2-0.1-0.2-0.2V9.9
						c0-0.1,0.1-0.2,0.2-0.2l1-0.2C9.9,9.3,10,9,10.1,8.8L9.6,7.9c-0.1-0.1,0-0.2,0-0.3l0.5-0.5c0.1-0.1,0.2-0.1,0.2,0l0.8,0.5
						c0.2-0.1,0.5-0.2,0.7-0.3l0.2-1c0-0.1,0.1-0.2,0.2-0.2h0.7c0.1,0,0.2,0.1,0.2,0.2l0.2,1c0.2,0.1,0.5,0.2,0.7,0.3L15,7.2
						c0.1-0.1,0.2,0,0.2,0l0.5,0.5c0.1,0.1,0.1,0.2,0,0.3l-0.5,0.8c0.1,0.2,0.2,0.5,0.3,0.7l1,0.2c0.1,0,0.2,0.1,0.2,0.2v0.7
						c0,0.1-0.1,0.2-0.2,0.2l-1,0.2c-0.1,0.3-0.2,0.5-0.3,0.7l0.5,0.8c0.1,0.1,0,0.2,0,0.3l-0.5,0.5c-0.1,0.1-0.2,0.1-0.2,0
						l-0.8-0.5C14,13,13.7,13.1,13.5,13.1z"/>
					<path class="st0" d="M20.6,22.1c-0.1,0-0.1,0-0.1,0.1c0,0-0.1,0.1-0.1,0.1c0,0.1,0,0.1,0.1,0.1c0,0,0.1,0.1,0.1,0.1
						c0.1,0,0.1,0,0.1-0.1c0,0,0.1-0.1,0.1-0.1c0-0.1,0-0.1-0.1-0.1C20.7,22.1,20.7,22.1,20.6,22.1z"/>
					<path class="st0" d="M4.6,22.1c-0.1,0-0.1,0-0.1,0.1c0,0-0.1,0.1-0.1,0.1c0,0.1,0,0.1,0.1,0.1c0,0,0.1,0.1,0.1,0.1
						c0.1,0,0.1,0,0.1-0.1c0,0,0.1-0.1,0.1-0.1c0-0.1,0-0.1-0.1-0.1C4.8,22.1,4.7,22.1,4.6,22.1z"/>
				</g>
			</g>
		</g>
	</g>
</g>
</svg>
